%TF.GenerationSoftware,KiCad,Pcbnew,8.0.4*%
%TF.CreationDate,2024-07-26T08:44:17-07:00*%
%TF.ProjectId,GOLD,474f4c44-2e6b-4696-9361-645f70636258,0*%
%TF.SameCoordinates,Original*%
%TF.FileFunction,Copper,L4,Bot*%
%TF.FilePolarity,Positive*%
%FSLAX46Y46*%
G04 Gerber Fmt 4.6, Leading zero omitted, Abs format (unit mm)*
G04 Created by KiCad (PCBNEW 8.0.4) date 2024-07-26 08:44:17*
%MOMM*%
%LPD*%
G01*
G04 APERTURE LIST*
%TA.AperFunction,ComponentPad*%
%ADD10R,1.700000X1.700000*%
%TD*%
%TA.AperFunction,ComponentPad*%
%ADD11O,1.700000X1.700000*%
%TD*%
%TA.AperFunction,ViaPad*%
%ADD12C,0.800000*%
%TD*%
%TA.AperFunction,ViaPad*%
%ADD13C,0.500000*%
%TD*%
%TA.AperFunction,ViaPad*%
%ADD14C,0.350000*%
%TD*%
%TA.AperFunction,Conductor*%
%ADD15C,0.304800*%
%TD*%
%TA.AperFunction,Conductor*%
%ADD16C,0.330200*%
%TD*%
G04 APERTURE END LIST*
D10*
%TO.P,J1,1,Pin_1*%
%TO.N,GND*%
X-11391681Y9211679D03*
D11*
%TO.P,J1,2,Pin_2*%
%TO.N,+3.3V*%
X-13931681Y9211679D03*
%TO.P,J1,3,Pin_3*%
%TO.N,/GPIO0*%
X-11391681Y11751679D03*
%TO.P,J1,4,Pin_4*%
%TO.N,/GPIO5*%
X-13931681Y11751679D03*
%TO.P,J1,5,Pin_5*%
%TO.N,/GPIO1*%
X-11391681Y14291679D03*
%TO.P,J1,6,Pin_6*%
%TO.N,/GPIO4*%
X-13931681Y14291679D03*
%TO.P,J1,7,Pin_7*%
%TO.N,/GPIO2*%
X-11391681Y16831679D03*
%TO.P,J1,8,Pin_8*%
%TO.N,/GPIO3*%
X-13931681Y16831679D03*
%TO.P,J1,9,Pin_9*%
%TO.N,GND*%
X-11391681Y19371679D03*
%TO.P,J1,10,Pin_10*%
%TO.N,+5V*%
X-13931681Y19371679D03*
%TD*%
D12*
%TO.N,+3.3V*%
X19749869Y19304000D03*
X-9517481Y9652000D03*
D13*
X12656719Y18643600D03*
D12*
X-9517481Y8128000D03*
D13*
X15577719Y14732000D03*
D14*
%TO.N,GND*%
X-6850481Y14732000D03*
X17533519Y17399000D03*
D13*
X33408519Y25578641D03*
D14*
X8897519Y14859000D03*
D12*
X13977519Y11811000D03*
D13*
X33484719Y14148641D03*
X33484719Y17958641D03*
X33484719Y21768641D03*
X33408519Y29388641D03*
X20962519Y18034000D03*
D14*
X8897519Y12827000D03*
D13*
X33484719Y6528641D03*
D12*
X-5707481Y8128000D03*
D13*
X33484719Y2718641D03*
D12*
X-5707481Y9652000D03*
D14*
X8897519Y17145000D03*
D12*
X-5453481Y19304000D03*
X16955869Y20320000D03*
D14*
X-6850481Y12700000D03*
X17152519Y14224000D03*
X-6850481Y17145000D03*
D13*
X33484719Y10338641D03*
%TO.N,+5V*%
X15685869Y13462000D03*
%TO.N,/GPIO4*%
X15939869Y16764000D03*
%TO.N,/GPIO5*%
X15431869Y17907000D03*
%TD*%
D15*
%TO.N,+3.3V*%
X-13931681Y8021000D02*
X-13683081Y7772400D01*
X-9873081Y7772400D02*
X-9517481Y8128000D01*
X-13931681Y9211679D02*
X-13931681Y8021000D01*
X-13683081Y7772400D02*
X-9873081Y7772400D01*
X-9517481Y8128000D02*
X-9517481Y9652000D01*
%TO.N,+5V*%
X-10482681Y21005800D02*
X-9796881Y20320000D01*
X15628519Y20320000D02*
X18168519Y17780000D01*
X-12297560Y21005800D02*
X-10482681Y21005800D01*
X16320869Y12827000D02*
X15685869Y13462000D01*
X-9796881Y20320000D02*
X15628519Y20320000D01*
X-13931681Y19371679D02*
X-12297560Y21005800D01*
X18168519Y17780000D02*
X18168519Y13716000D01*
X18168519Y13716000D02*
X17279519Y12827000D01*
X17279519Y12827000D02*
X16320869Y12827000D01*
D16*
%TO.N,/GPIO4*%
X10023106Y16764000D02*
X15939869Y16764000D01*
X-7307681Y15544800D02*
X-6723481Y16129000D01*
X-12678560Y15544800D02*
X-7307681Y15544800D01*
X-13931681Y14291679D02*
X-12678560Y15544800D01*
X-6723481Y16129000D02*
X9388106Y16129000D01*
X9388106Y16129000D02*
X10023106Y16764000D01*
%TO.N,/GPIO5*%
X16771519Y17526000D02*
X16390519Y17907000D01*
X-12678560Y13004800D02*
X-8552281Y13004800D01*
X14796869Y15621000D02*
X16390519Y15621000D01*
X-8552281Y13004800D02*
X-7299160Y11751679D01*
X16390519Y17907000D02*
X15431869Y17907000D01*
X-13931681Y11751679D02*
X-12678560Y13004800D01*
X-7299160Y11751679D02*
X10927548Y11751679D01*
X16390519Y15621000D02*
X16771519Y16002000D01*
X10927548Y11751679D02*
X14796869Y15621000D01*
X16771519Y16002000D02*
X16771519Y17526000D01*
%TD*%
%TA.AperFunction,Conductor*%
%TO.N,GND*%
G36*
X-10221951Y9351046D02*
G01*
X-10165115Y9308500D01*
X-10159294Y9300025D01*
X-10092381Y9193534D01*
X-10092380Y9193533D01*
X-10037485Y9138638D01*
X-10003461Y9076328D01*
X-10000581Y9049544D01*
X-10000581Y8730457D01*
X-10020583Y8662336D01*
X-10037486Y8641362D01*
X-10092377Y8586472D01*
X-10092380Y8586468D01*
X-10105795Y8565118D01*
X-10158975Y8518081D01*
X-10229142Y8507262D01*
X-10294020Y8536097D01*
X-10333009Y8595429D01*
X-10338481Y8632156D01*
X-10338481Y9084679D01*
X-10908073Y9084679D01*
X-10891681Y9145853D01*
X-10891681Y9277505D01*
X-10908073Y9338679D01*
X-10324686Y9338679D01*
X-10292767Y9356109D01*
X-10221951Y9351046D01*
G37*
%TD.AperFunction*%
%TA.AperFunction,Conductor*%
G36*
X14524135Y16248198D02*
G01*
X14570628Y16194542D01*
X14580732Y16124268D01*
X14551238Y16059688D01*
X14519014Y16033081D01*
X14492444Y16017742D01*
X14492440Y16017738D01*
X10759085Y12284384D01*
X10696773Y12250358D01*
X10669990Y12247479D01*
X-7041603Y12247479D01*
X-7109724Y12267481D01*
X-7130694Y12284380D01*
X-8247852Y13401539D01*
X-8247854Y13401540D01*
X-8247856Y13401542D01*
X-8360908Y13466812D01*
X-8360911Y13466813D01*
X-8458283Y13492904D01*
X-8458284Y13492904D01*
X-8487004Y13500600D01*
X-8487007Y13500600D01*
X-8487008Y13500600D01*
X-10263118Y13500600D01*
X-10331239Y13520602D01*
X-10377732Y13574258D01*
X-10387836Y13644532D01*
X-10375911Y13682758D01*
X-10285995Y13863334D01*
X-10226113Y14073797D01*
X-10205923Y14291679D01*
X-10226113Y14509561D01*
X-10285995Y14720024D01*
X-10359099Y14866838D01*
X-10371557Y14936732D01*
X-10344250Y15002267D01*
X-10285847Y15042636D01*
X-10246308Y15049000D01*
X-7242408Y15049000D01*
X-7242407Y15049000D01*
X-7179359Y15065894D01*
X-7179357Y15065894D01*
X-7157359Y15071789D01*
X-7116309Y15082788D01*
X-7042849Y15125200D01*
X-7003252Y15148061D01*
X-6555019Y15596296D01*
X-6492706Y15630320D01*
X-6465923Y15633200D01*
X9453379Y15633200D01*
X9453380Y15633200D01*
X9519731Y15650979D01*
X9579478Y15666988D01*
X9636006Y15699625D01*
X9692535Y15732261D01*
X10191568Y16231296D01*
X10253881Y16265320D01*
X10280664Y16268200D01*
X14456014Y16268200D01*
X14524135Y16248198D01*
G37*
%TD.AperFunction*%
%TA.AperFunction,Conductor*%
G36*
X17416915Y17838597D02*
G01*
X17450956Y17814356D01*
X17648514Y17616798D01*
X17682540Y17554486D01*
X17685419Y17527703D01*
X17685419Y13968297D01*
X17665417Y13900176D01*
X17648514Y13879202D01*
X17116317Y13347005D01*
X17054005Y13312979D01*
X17027222Y13310100D01*
X16573166Y13310100D01*
X16505045Y13330102D01*
X16484070Y13347005D01*
X16287041Y13544035D01*
X16253016Y13606347D01*
X16251997Y13612193D01*
X16251622Y13613592D01*
X16251621Y13613594D01*
X16229311Y13667458D01*
X16193111Y13754855D01*
X16100029Y13876161D01*
X15978724Y13969243D01*
X15893857Y14004394D01*
X15838576Y14048941D01*
X15816154Y14116304D01*
X15833711Y14185096D01*
X15865370Y14220765D01*
X15991879Y14317840D01*
X16084961Y14439145D01*
X16114127Y14509561D01*
X16143472Y14580407D01*
X16163430Y14732000D01*
X16143472Y14883593D01*
X16129055Y14918399D01*
X16115559Y14950983D01*
X16107970Y15021573D01*
X16139750Y15085060D01*
X16200809Y15121286D01*
X16231968Y15125200D01*
X16455792Y15125200D01*
X16455793Y15125200D01*
X16534016Y15146160D01*
X16581891Y15158988D01*
X16674923Y15212700D01*
X16694948Y15224261D01*
X17168257Y15697571D01*
X17179316Y15716726D01*
X17188288Y15732263D01*
X17233530Y15810626D01*
X17243875Y15849230D01*
X17251441Y15877473D01*
X17267319Y15936726D01*
X17267319Y16067273D01*
X17267319Y17591273D01*
X17267319Y17591276D01*
X17264294Y17602560D01*
X17264294Y17602572D01*
X17264292Y17602571D01*
X17240155Y17692649D01*
X17241844Y17763625D01*
X17281637Y17822422D01*
X17346902Y17850370D01*
X17416915Y17838597D01*
G37*
%TD.AperFunction*%
%TA.AperFunction,Conductor*%
G36*
X-11907383Y20502698D02*
G01*
X-11860890Y20449042D01*
X-11850786Y20378768D01*
X-11880280Y20314188D01*
X-11916108Y20285578D01*
X-11979640Y20251620D01*
X-12140009Y20120007D01*
X-12271622Y19959638D01*
X-12369419Y19776672D01*
X-12429644Y19578135D01*
X-12437469Y19498680D01*
X-12437468Y19498679D01*
X-11875289Y19498679D01*
X-11891681Y19437505D01*
X-11891681Y19305853D01*
X-11875289Y19244679D01*
X-12437468Y19244679D01*
X-12429644Y19165224D01*
X-12369419Y18966687D01*
X-12271622Y18783721D01*
X-12140009Y18623352D01*
X-11979640Y18491739D01*
X-11796674Y18393942D01*
X-11598137Y18333717D01*
X-11518682Y18325892D01*
X-11518681Y18325893D01*
X-11518681Y18888071D01*
X-11457507Y18871679D01*
X-11325855Y18871679D01*
X-11264681Y18888071D01*
X-11264681Y18325892D01*
X-11185226Y18333717D01*
X-10986689Y18393942D01*
X-10803723Y18491739D01*
X-10643354Y18623352D01*
X-10626736Y18643601D01*
X12071008Y18643601D01*
X12071008Y18643600D01*
X12090966Y18492007D01*
X12149476Y18350745D01*
X12242558Y18229440D01*
X12363863Y18136358D01*
X12452942Y18099462D01*
X12505126Y18077847D01*
X12656719Y18057889D01*
X12808312Y18077847D01*
X12897391Y18114745D01*
X12949574Y18136358D01*
X13070879Y18229440D01*
X13163961Y18350745D01*
X13185574Y18402928D01*
X13222472Y18492007D01*
X13242430Y18643600D01*
X13222472Y18795193D01*
X13176677Y18905754D01*
X13163961Y18936455D01*
X13070879Y19057761D01*
X12949574Y19150843D01*
X12808312Y19209353D01*
X12656719Y19229311D01*
X12505125Y19209353D01*
X12363864Y19150843D01*
X12242558Y19057761D01*
X12149476Y18936455D01*
X12090966Y18795194D01*
X12071008Y18643601D01*
X-10626736Y18643601D01*
X-10511741Y18783721D01*
X-10413944Y18966687D01*
X-10353719Y19165224D01*
X-10345894Y19244679D01*
X-10908073Y19244679D01*
X-10891681Y19305853D01*
X-10891681Y19437505D01*
X-10908073Y19498679D01*
X-10345894Y19498679D01*
X-10345894Y19498680D01*
X-10353719Y19578135D01*
X-10413944Y19776672D01*
X-10511741Y19959638D01*
X-10643354Y20120007D01*
X-10803723Y20251620D01*
X-10867254Y20285578D01*
X-10917902Y20335330D01*
X-10933612Y20404567D01*
X-10909396Y20471306D01*
X-10852942Y20514358D01*
X-10807858Y20522700D01*
X-10734979Y20522700D01*
X-10666858Y20502698D01*
X-10645884Y20485796D01*
X-10187863Y20027776D01*
X-10187842Y20027753D01*
X-10093519Y19933430D01*
X-10093515Y19933427D01*
X-10093512Y19933424D01*
X-9983351Y19869822D01*
X-9950428Y19861001D01*
X-9860481Y19836899D01*
X-9860480Y19836899D01*
X-9725562Y19836899D01*
X-9725546Y19836900D01*
X15376222Y19836900D01*
X15444343Y19816898D01*
X15465317Y19799995D01*
X16678873Y18586439D01*
X16712899Y18524127D01*
X16707834Y18453312D01*
X16665287Y18396476D01*
X16598767Y18371665D01*
X16557168Y18375637D01*
X16512147Y18387700D01*
X16479394Y18396476D01*
X16455793Y18402800D01*
X16455792Y18402800D01*
X15777410Y18402800D01*
X15729193Y18412391D01*
X15583462Y18472753D01*
X15431869Y18492711D01*
X15280275Y18472753D01*
X15139014Y18414243D01*
X15017708Y18321161D01*
X14924626Y18199855D01*
X14866116Y18058594D01*
X14846158Y17907001D01*
X14846158Y17907000D01*
X14866116Y17755407D01*
X14924626Y17614145D01*
X15017707Y17492841D01*
X15026934Y17485761D01*
X15068800Y17428423D01*
X15073021Y17357552D01*
X15038255Y17295649D01*
X14975542Y17262369D01*
X14950228Y17259800D01*
X10088380Y17259800D01*
X9957833Y17259800D01*
X9831735Y17226013D01*
X9831733Y17226012D01*
X9831730Y17226011D01*
X9718681Y17160742D01*
X9718675Y17160737D01*
X9219642Y16661704D01*
X9157330Y16627679D01*
X9130547Y16624800D01*
X-6658207Y16624800D01*
X-6788754Y16624800D01*
X-6914852Y16591013D01*
X-6914854Y16591012D01*
X-6914857Y16591011D01*
X-7027906Y16525742D01*
X-7027912Y16525737D01*
X-7476145Y16077504D01*
X-7538457Y16043479D01*
X-7565240Y16040600D01*
X-10263118Y16040600D01*
X-10331239Y16060602D01*
X-10377732Y16114258D01*
X-10387836Y16184532D01*
X-10375911Y16222758D01*
X-10285995Y16403334D01*
X-10226113Y16613797D01*
X-10205923Y16831679D01*
X-10226113Y17049561D01*
X-10285995Y17260024D01*
X-10383529Y17455900D01*
X-10411425Y17492840D01*
X-10515394Y17630519D01*
X-10677101Y17777934D01*
X-10863137Y17893123D01*
X-10863141Y17893125D01*
X-10863143Y17893126D01*
X-10988137Y17941549D01*
X-11067182Y17972171D01*
X-11282273Y18012379D01*
X-11501089Y18012379D01*
X-11501090Y18012379D01*
X-11716181Y17972171D01*
X-11874271Y17910927D01*
X-11920219Y17893126D01*
X-11920220Y17893126D01*
X-11920221Y17893125D01*
X-11920226Y17893123D01*
X-12106262Y17777934D01*
X-12267969Y17630519D01*
X-12399831Y17455904D01*
X-12497367Y17260024D01*
X-12497369Y17260019D01*
X-12540491Y17108459D01*
X-12578372Y17048413D01*
X-12642702Y17018379D01*
X-12713059Y17027892D01*
X-12767103Y17073932D01*
X-12782871Y17108459D01*
X-12825995Y17260024D01*
X-12923529Y17455900D01*
X-12951425Y17492840D01*
X-13055394Y17630519D01*
X-13217101Y17777934D01*
X-13403137Y17893123D01*
X-13403141Y17893125D01*
X-13403143Y17893126D01*
X-13528137Y17941549D01*
X-13607182Y17972171D01*
X-13613679Y17973386D01*
X-13637430Y17977826D01*
X-13700712Y18010003D01*
X-13736554Y18071288D01*
X-13733573Y18142222D01*
X-13692715Y18200284D01*
X-13637430Y18225533D01*
X-13607183Y18231187D01*
X-13403143Y18310232D01*
X-13217102Y18425424D01*
X-13055395Y18572839D01*
X-13044616Y18587112D01*
X-12937389Y18729105D01*
X-12923529Y18747458D01*
X-12825995Y18943334D01*
X-12766113Y19153797D01*
X-12745923Y19371679D01*
X-12752287Y19440352D01*
X-12766113Y19589558D01*
X-12766113Y19589561D01*
X-12804433Y19724242D01*
X-12803837Y19795233D01*
X-12772340Y19847815D01*
X-12134357Y20485796D01*
X-12072045Y20519821D01*
X-12045262Y20522700D01*
X-11975504Y20522700D01*
X-11907383Y20502698D01*
G37*
%TD.AperFunction*%
%TA.AperFunction,Conductor*%
G36*
X31555044Y31222663D02*
G01*
X31846703Y31206283D01*
X31860739Y31204702D01*
X32145244Y31156362D01*
X32159002Y31153222D01*
X32436309Y31073331D01*
X32449640Y31068666D01*
X32716249Y30958232D01*
X32728979Y30952101D01*
X32981548Y30812512D01*
X32993498Y30805003D01*
X33215277Y30647641D01*
X33228854Y30638008D01*
X33239901Y30629198D01*
X33455069Y30436910D01*
X33465051Y30426929D01*
X33657359Y30211735D01*
X33666150Y30200711D01*
X33801249Y30010306D01*
X33833148Y29965349D01*
X33840665Y29953385D01*
X33980247Y29700827D01*
X33986378Y29688097D01*
X34096810Y29421488D01*
X34101477Y29408151D01*
X34181363Y29130855D01*
X34184507Y29117079D01*
X34232842Y28832586D01*
X34234424Y28818545D01*
X34250820Y28526556D01*
X34251018Y28519492D01*
X34251018Y28465619D01*
X34251019Y28465606D01*
X34251019Y55326D01*
X34251018Y55308D01*
X34251018Y3535D01*
X34250820Y-3529D01*
X34234443Y-295187D01*
X34232861Y-309228D01*
X34184526Y-593722D01*
X34181382Y-607498D01*
X34101495Y-884797D01*
X34096828Y-898134D01*
X33986395Y-1164745D01*
X33980264Y-1177475D01*
X33840676Y-1430043D01*
X33833164Y-1441999D01*
X33666173Y-1677354D01*
X33657363Y-1688401D01*
X33465079Y-1903568D01*
X33455088Y-1913560D01*
X33239913Y-2105853D01*
X33228866Y-2114663D01*
X32993512Y-2281656D01*
X32981548Y-2289173D01*
X32728986Y-2428760D01*
X32716256Y-2434891D01*
X32449650Y-2545324D01*
X32436312Y-2549991D01*
X32159015Y-2629879D01*
X32145240Y-2633023D01*
X31860743Y-2681361D01*
X31846702Y-2682943D01*
X31555418Y-2699302D01*
X31548353Y-2699500D01*
X3540Y-2699500D01*
X-3525Y-2699302D01*
X-13780Y-2698726D01*
X-295179Y-2682921D01*
X-309219Y-2681339D01*
X-593720Y-2632999D01*
X-607496Y-2629854D01*
X-884777Y-2549968D01*
X-898107Y-2545305D01*
X-1164725Y-2434867D01*
X-1177452Y-2428737D01*
X-1430020Y-2289144D01*
X-1441983Y-2281627D01*
X-1677324Y-2114641D01*
X-1688371Y-2105831D01*
X-1903538Y-1913544D01*
X-1913529Y-1903553D01*
X-2105821Y-1688376D01*
X-2114619Y-1677344D01*
X-2281614Y-1441984D01*
X-2289127Y-1430026D01*
X-2428717Y-1177451D01*
X-2434847Y-1164721D01*
X-2545273Y-898125D01*
X-2549937Y-884797D01*
X-2629828Y-607481D01*
X-2632968Y-593722D01*
X-2681305Y-309221D01*
X-2682886Y-295184D01*
X-2699274Y-3342D01*
X-2699469Y4473D01*
X-2699199Y48494D01*
X-2698723Y126277D01*
X-1596981Y126277D01*
X-1596981Y-126277D01*
X-1557472Y-375721D01*
X-1557471Y-375725D01*
X-1482166Y-607493D01*
X-1479429Y-615914D01*
X-1364772Y-840941D01*
X-1216325Y-1045261D01*
X-1216323Y-1045263D01*
X-1216321Y-1045266D01*
X-1037748Y-1223839D01*
X-1037745Y-1223841D01*
X-1037742Y-1223844D01*
X-833422Y-1372291D01*
X-608395Y-1486948D01*
X-368202Y-1564991D01*
X-118758Y-1604500D01*
X-118755Y-1604500D01*
X133793Y-1604500D01*
X133796Y-1604500D01*
X383240Y-1564991D01*
X623433Y-1486948D01*
X848460Y-1372291D01*
X1052780Y-1223844D01*
X1231363Y-1045261D01*
X1379810Y-840941D01*
X1494467Y-615914D01*
X1572510Y-375721D01*
X1612019Y-126277D01*
X1612019Y126277D01*
X1603840Y177918D01*
X15929019Y177918D01*
X15929019Y-74636D01*
X15966176Y-309228D01*
X15968529Y-324084D01*
X16031216Y-517017D01*
X16046571Y-564273D01*
X16161228Y-789300D01*
X16309675Y-993620D01*
X16309677Y-993622D01*
X16309679Y-993625D01*
X16488252Y-1172198D01*
X16488255Y-1172200D01*
X16488258Y-1172203D01*
X16692578Y-1320650D01*
X16917605Y-1435307D01*
X17157798Y-1513350D01*
X17407242Y-1552859D01*
X17407245Y-1552859D01*
X17659793Y-1552859D01*
X17659796Y-1552859D01*
X17909240Y-1513350D01*
X18149433Y-1435307D01*
X18374460Y-1320650D01*
X18578780Y-1172203D01*
X18757363Y-993620D01*
X18905810Y-789300D01*
X19020467Y-564273D01*
X19098510Y-324080D01*
X19138019Y-74636D01*
X19138019Y177918D01*
X19098510Y427362D01*
X19020467Y667555D01*
X18905810Y892582D01*
X18757363Y1096902D01*
X18757360Y1096905D01*
X18757358Y1096908D01*
X18578785Y1275481D01*
X18578782Y1275483D01*
X18578780Y1275485D01*
X18374460Y1423932D01*
X18149433Y1538589D01*
X18149430Y1538590D01*
X18149428Y1538591D01*
X17909244Y1616631D01*
X17909242Y1616632D01*
X17909240Y1616632D01*
X17659796Y1656141D01*
X17407242Y1656141D01*
X17157798Y1616632D01*
X17157796Y1616632D01*
X17157793Y1616631D01*
X16917609Y1538591D01*
X16917603Y1538588D01*
X16692574Y1423930D01*
X16488255Y1275483D01*
X16488252Y1275481D01*
X16309679Y1096908D01*
X16309677Y1096905D01*
X16161230Y892586D01*
X16046572Y667557D01*
X16046569Y667551D01*
X15968529Y427367D01*
X15968528Y427364D01*
X15968528Y427362D01*
X15929019Y177918D01*
X1603840Y177918D01*
X1572510Y375721D01*
X1494467Y615914D01*
X1379810Y840941D01*
X1231363Y1045261D01*
X1231360Y1045264D01*
X1231358Y1045267D01*
X1052785Y1223840D01*
X1052782Y1223842D01*
X1052780Y1223844D01*
X848460Y1372291D01*
X623433Y1486948D01*
X623430Y1486949D01*
X623428Y1486950D01*
X383244Y1564990D01*
X383242Y1564991D01*
X383240Y1564991D01*
X133796Y1604500D01*
X-118758Y1604500D01*
X-368202Y1564991D01*
X-368204Y1564991D01*
X-368207Y1564990D01*
X-608391Y1486950D01*
X-608397Y1486947D01*
X-833426Y1372289D01*
X-1037745Y1223842D01*
X-1037748Y1223840D01*
X-1216321Y1045267D01*
X-1216323Y1045264D01*
X-1364770Y840945D01*
X-1479428Y615916D01*
X-1479431Y615910D01*
X-1557471Y375726D01*
X-1557472Y375723D01*
X-1557472Y375721D01*
X-1596981Y126277D01*
X-2698723Y126277D01*
X-2679186Y3318941D01*
X-2678993Y3321249D01*
X-2678831Y3376611D01*
X-2678830Y3377013D01*
X-2678818Y3379016D01*
X-2678592Y3415861D01*
X-2678594Y3415867D01*
X-2678555Y3422173D01*
X-2678752Y3425376D01*
X-2678398Y3550302D01*
X-2713635Y3894584D01*
X-2713635Y3894588D01*
X-2784733Y4233282D01*
X-2890907Y4562669D01*
X-2890913Y4562685D01*
X-2970110Y4741593D01*
X-3030995Y4879136D01*
X-3203451Y5179187D01*
X-3406381Y5459529D01*
X-3637552Y5717078D01*
X-3637559Y5717085D01*
X-3894413Y5948993D01*
X-3894424Y5949003D01*
X-4076460Y6081586D01*
X-4174163Y6152747D01*
X-4174165Y6152749D01*
X-4174170Y6152752D01*
X-4174174Y6152755D01*
X-4174181Y6152759D01*
X-4473718Y6326086D01*
X-4473722Y6326088D01*
X-4575800Y6371632D01*
X-4789766Y6467097D01*
X-4789772Y6467099D01*
X-4789781Y6467103D01*
X-5118848Y6574237D01*
X-5118857Y6574240D01*
X-5457322Y6646323D01*
X-5457333Y6646325D01*
X-5457334Y6646325D01*
X-5457337Y6646326D01*
X-5457341Y6646326D01*
X-5801514Y6682571D01*
X-5926750Y6682584D01*
X-5926822Y6682588D01*
X-5934993Y6682588D01*
X-5974551Y6682588D01*
X-5974557Y6682589D01*
X-6022147Y6682589D01*
X-6022148Y6682589D01*
X-6032296Y6682589D01*
X-6032308Y6682588D01*
X-13622484Y6682588D01*
X-13622496Y6682589D01*
X-13676705Y6682589D01*
X-13683768Y6682787D01*
X-13975427Y6699162D01*
X-13989468Y6700744D01*
X-14273965Y6749077D01*
X-14287741Y6752221D01*
X-14500736Y6813581D01*
X-14565045Y6832108D01*
X-14578374Y6836772D01*
X-14681509Y6879490D01*
X-14844983Y6947202D01*
X-14857714Y6953332D01*
X-15110285Y7092920D01*
X-15122249Y7100438D01*
X-15357597Y7267423D01*
X-15368644Y7276233D01*
X-15583822Y7468526D01*
X-15593813Y7478517D01*
X-15786108Y7693693D01*
X-15794918Y7704740D01*
X-15961904Y7940082D01*
X-15969422Y7952046D01*
X-15972381Y7957399D01*
X-16109013Y8204615D01*
X-16115144Y8217346D01*
X-16210289Y8447045D01*
X-16225578Y8483956D01*
X-16230244Y8497290D01*
X-16233117Y8507262D01*
X-16310134Y8774597D01*
X-16313274Y8788355D01*
X-16361615Y9072863D01*
X-16363196Y9086903D01*
X-16370203Y9211675D01*
X-16379537Y9377904D01*
X-16379735Y9384968D01*
X-16379735Y19141630D01*
X-16379537Y19148694D01*
X-16370022Y19318138D01*
X-16367015Y19371684D01*
X-15117439Y19371684D01*
X-15117439Y19371675D01*
X-15097250Y19153801D01*
X-15097250Y19153798D01*
X-15097249Y19153797D01*
X-15037367Y18943334D01*
X-14939833Y18747458D01*
X-14939832Y18747457D01*
X-14939831Y18747455D01*
X-14807969Y18572840D01*
X-14646262Y18425425D01*
X-14460226Y18310236D01*
X-14460225Y18310236D01*
X-14460219Y18310232D01*
X-14256179Y18231187D01*
X-14256176Y18231186D01*
X-14225936Y18225533D01*
X-14162651Y18193354D01*
X-14126809Y18132069D01*
X-14129790Y18061135D01*
X-14170648Y18003074D01*
X-14225936Y17977825D01*
X-14256176Y17972173D01*
X-14416994Y17909872D01*
X-14460219Y17893126D01*
X-14460220Y17893126D01*
X-14460221Y17893125D01*
X-14460226Y17893123D01*
X-14646262Y17777934D01*
X-14807969Y17630519D01*
X-14939831Y17455904D01*
X-15037367Y17260024D01*
X-15037369Y17260019D01*
X-15097250Y17049558D01*
X-15117439Y16831684D01*
X-15117439Y16831675D01*
X-15097250Y16613801D01*
X-15097250Y16613798D01*
X-15097249Y16613797D01*
X-15037367Y16403334D01*
X-14939833Y16207458D01*
X-14939832Y16207457D01*
X-14939831Y16207455D01*
X-14807969Y16032840D01*
X-14646262Y15885425D01*
X-14460226Y15770236D01*
X-14460225Y15770236D01*
X-14460219Y15770232D01*
X-14272650Y15697568D01*
X-14256176Y15691186D01*
X-14225936Y15685533D01*
X-14162651Y15653354D01*
X-14126809Y15592069D01*
X-14129790Y15521135D01*
X-14170648Y15463074D01*
X-14225936Y15437825D01*
X-14256176Y15432173D01*
X-14416994Y15369872D01*
X-14460219Y15353126D01*
X-14460220Y15353126D01*
X-14460221Y15353125D01*
X-14460226Y15353123D01*
X-14646262Y15237934D01*
X-14807969Y15090519D01*
X-14939831Y14915904D01*
X-15037367Y14720024D01*
X-15037369Y14720019D01*
X-15097250Y14509558D01*
X-15117439Y14291684D01*
X-15117439Y14291675D01*
X-15097250Y14073801D01*
X-15041017Y13876160D01*
X-15037367Y13863334D01*
X-14939833Y13667458D01*
X-14939832Y13667457D01*
X-14939831Y13667455D01*
X-14807969Y13492840D01*
X-14646262Y13345425D01*
X-14460226Y13230236D01*
X-14460225Y13230236D01*
X-14460219Y13230232D01*
X-14256179Y13151187D01*
X-14256176Y13151186D01*
X-14225936Y13145533D01*
X-14162651Y13113354D01*
X-14126809Y13052069D01*
X-14129790Y12981135D01*
X-14170648Y12923074D01*
X-14225936Y12897825D01*
X-14256176Y12892173D01*
X-14416994Y12829872D01*
X-14460219Y12813126D01*
X-14460220Y12813126D01*
X-14460221Y12813125D01*
X-14460226Y12813123D01*
X-14646262Y12697934D01*
X-14807969Y12550519D01*
X-14939831Y12375904D01*
X-15037367Y12180024D01*
X-15037369Y12180019D01*
X-15097250Y11969558D01*
X-15117439Y11751684D01*
X-15117439Y11751675D01*
X-15097250Y11533801D01*
X-15046362Y11354946D01*
X-15037367Y11323334D01*
X-14939833Y11127458D01*
X-14939832Y11127457D01*
X-14939831Y11127455D01*
X-14807969Y10952840D01*
X-14646262Y10805425D01*
X-14460226Y10690236D01*
X-14460225Y10690236D01*
X-14460219Y10690232D01*
X-14256179Y10611187D01*
X-14256176Y10611186D01*
X-14225936Y10605533D01*
X-14162651Y10573354D01*
X-14126809Y10512069D01*
X-14129790Y10441135D01*
X-14170648Y10383074D01*
X-14225936Y10357825D01*
X-14256176Y10352173D01*
X-14416994Y10289872D01*
X-14460219Y10273126D01*
X-14460220Y10273126D01*
X-14460221Y10273125D01*
X-14460226Y10273123D01*
X-14646262Y10157934D01*
X-14807969Y10010519D01*
X-14939831Y9835904D01*
X-15037367Y9640024D01*
X-15037369Y9640019D01*
X-15097250Y9429558D01*
X-15117439Y9211684D01*
X-15117439Y9211675D01*
X-15097250Y8993801D01*
X-15097250Y8993798D01*
X-15097249Y8993797D01*
X-15037367Y8783334D01*
X-14939833Y8587458D01*
X-14939832Y8587457D01*
X-14939831Y8587455D01*
X-14807969Y8412840D01*
X-14646260Y8265424D01*
X-14646259Y8265423D01*
X-14474451Y8159044D01*
X-14427063Y8106178D01*
X-14414781Y8051917D01*
X-14414781Y7957399D01*
X-14381859Y7834530D01*
X-14381858Y7834528D01*
X-14381857Y7834526D01*
X-14318260Y7724373D01*
X-14318258Y7724371D01*
X-14318257Y7724369D01*
X-14069658Y7475770D01*
X-14069657Y7475769D01*
X-13979712Y7385824D01*
X-13869551Y7322222D01*
X-13746682Y7289300D01*
X-13746681Y7289300D01*
X-9809482Y7289300D01*
X-9809480Y7289300D01*
X-9686611Y7322222D01*
X-9592795Y7376388D01*
X-9523805Y7393124D01*
X-9518214Y7392676D01*
X-9517484Y7392676D01*
X-9517483Y7392677D01*
X-9517481Y7392676D01*
X-9353856Y7411112D01*
X-9198436Y7465496D01*
X-9059014Y7553101D01*
X-8942582Y7669533D01*
X-8854977Y7808955D01*
X-8800593Y7964375D01*
X-8782157Y8128000D01*
X-8800593Y8291625D01*
X-8854977Y8447045D01*
X-8942582Y8586467D01*
X-8942586Y8586471D01*
X-8942586Y8586472D01*
X-8997476Y8641362D01*
X-9031502Y8703674D01*
X-9034381Y8730457D01*
X-9034381Y9049544D01*
X-9014379Y9117665D01*
X-8997481Y9138635D01*
X-8942582Y9193533D01*
X-8854977Y9332955D01*
X-8800593Y9488375D01*
X-8782157Y9652000D01*
X-8800593Y9815625D01*
X-8854977Y9971045D01*
X-8942582Y10110467D01*
X-8942586Y10110471D01*
X-8942586Y10110472D01*
X-9059010Y10226896D01*
X-9059013Y10226898D01*
X-9059014Y10226899D01*
X-9138062Y10276569D01*
X-9198437Y10314505D01*
X-9322240Y10357825D01*
X-9353856Y10368888D01*
X-9517481Y10387324D01*
X-9681106Y10368888D01*
X-9681109Y10368888D01*
X-9681109Y10368887D01*
X-9836526Y10314505D01*
X-9930314Y10255574D01*
X-9975948Y10226899D01*
X-9975950Y10226898D01*
X-9975952Y10226896D01*
X-9975953Y10226896D01*
X-10092377Y10110472D01*
X-10092380Y10110468D01*
X-10115171Y10074197D01*
X-10168351Y10027160D01*
X-10238518Y10016341D01*
X-10303396Y10045176D01*
X-10342386Y10104508D01*
X-10345436Y10116656D01*
X-10350271Y10140965D01*
X-10395182Y10208179D01*
X-10462395Y10253089D01*
X-10521667Y10264879D01*
X-11264681Y10264879D01*
X-11264681Y9695288D01*
X-11325855Y9711679D01*
X-11457507Y9711679D01*
X-11518681Y9695288D01*
X-11518681Y10264879D01*
X-12261696Y10264879D01*
X-12320968Y10253089D01*
X-12388181Y10208179D01*
X-12433091Y10140966D01*
X-12444881Y10081694D01*
X-12444881Y9338679D01*
X-11875289Y9338679D01*
X-11891681Y9277505D01*
X-11891681Y9145853D01*
X-11875289Y9084679D01*
X-12444881Y9084679D01*
X-12444881Y8381500D01*
X-12464883Y8313379D01*
X-12518539Y8266886D01*
X-12570881Y8255500D01*
X-12921169Y8255500D01*
X-12989290Y8275502D01*
X-13035783Y8329158D01*
X-13045887Y8399432D01*
X-13021719Y8457432D01*
X-12962315Y8536097D01*
X-12923529Y8587458D01*
X-12825995Y8783334D01*
X-12766113Y8993797D01*
X-12752023Y9145853D01*
X-12745923Y9211675D01*
X-12745923Y9211684D01*
X-12766113Y9429558D01*
X-12766113Y9429561D01*
X-12825995Y9640024D01*
X-12923529Y9835900D01*
X-12923532Y9835904D01*
X-13055394Y10010519D01*
X-13217101Y10157934D01*
X-13403137Y10273123D01*
X-13403141Y10273125D01*
X-13403143Y10273126D01*
X-13528137Y10321549D01*
X-13607182Y10352171D01*
X-13613679Y10353386D01*
X-13637430Y10357826D01*
X-13700712Y10390003D01*
X-13736554Y10451288D01*
X-13733573Y10522222D01*
X-13692715Y10580284D01*
X-13637430Y10605533D01*
X-13607183Y10611187D01*
X-13403143Y10690232D01*
X-13217102Y10805424D01*
X-13055395Y10952839D01*
X-12923529Y11127458D01*
X-12825995Y11323334D01*
X-12782871Y11474900D01*
X-12744990Y11534946D01*
X-12680660Y11564980D01*
X-12610303Y11555467D01*
X-12556259Y11509427D01*
X-12540491Y11474899D01*
X-12506361Y11354942D01*
X-12497367Y11323334D01*
X-12399833Y11127458D01*
X-12399832Y11127457D01*
X-12399831Y11127455D01*
X-12267969Y10952840D01*
X-12106262Y10805425D01*
X-11920226Y10690236D01*
X-11920225Y10690236D01*
X-11920219Y10690232D01*
X-11716179Y10611187D01*
X-11501089Y10570979D01*
X-11501085Y10570979D01*
X-11282277Y10570979D01*
X-11282273Y10570979D01*
X-11067183Y10611187D01*
X-10863143Y10690232D01*
X-10677102Y10805424D01*
X-10515395Y10952839D01*
X-10383529Y11127458D01*
X-10285995Y11323334D01*
X-10226113Y11533797D01*
X-10205923Y11751679D01*
X-10226113Y11969561D01*
X-10285995Y12180024D01*
X-10359099Y12326838D01*
X-10371557Y12396732D01*
X-10344250Y12462267D01*
X-10285847Y12502636D01*
X-10246308Y12509000D01*
X-8809839Y12509000D01*
X-8741718Y12488998D01*
X-8720744Y12472095D01*
X-8000332Y11751684D01*
X-7695899Y11447251D01*
X-7603588Y11354940D01*
X-7603587Y11354939D01*
X-7603585Y11354938D01*
X-7548855Y11323340D01*
X-7490532Y11289667D01*
X-7490526Y11289666D01*
X-7490525Y11289665D01*
X-7427484Y11272773D01*
X-7427483Y11272773D01*
X-7364434Y11255879D01*
X-7364433Y11255879D01*
X10992821Y11255879D01*
X10992822Y11255879D01*
X11055870Y11272773D01*
X11055872Y11272773D01*
X11105591Y11286096D01*
X11118920Y11289667D01*
X11177233Y11323334D01*
X11231977Y11354940D01*
X14787607Y14910572D01*
X14849917Y14944595D01*
X14920732Y14939531D01*
X14977568Y14896984D01*
X15002379Y14830464D01*
X15001622Y14805029D01*
X14992008Y14732002D01*
X14992008Y14732000D01*
X15011966Y14580407D01*
X15070476Y14439145D01*
X15163558Y14317840D01*
X15284863Y14224758D01*
X15369731Y14189606D01*
X15425012Y14145059D01*
X15447434Y14077696D01*
X15429877Y14008904D01*
X15398218Y13973235D01*
X15271708Y13876161D01*
X15178626Y13754855D01*
X15120116Y13613594D01*
X15100158Y13462001D01*
X15100158Y13462000D01*
X15120116Y13310407D01*
X15178626Y13169145D01*
X15271708Y13047840D01*
X15393013Y12954758D01*
X15492902Y12913385D01*
X15534276Y12896247D01*
X15534277Y12896247D01*
X15542254Y12894109D01*
X15541690Y12892007D01*
X15596112Y12867932D01*
X15603834Y12860828D01*
X15929887Y12534776D01*
X15929908Y12534753D01*
X16024231Y12440430D01*
X16024235Y12440427D01*
X16024238Y12440424D01*
X16134399Y12376822D01*
X16167322Y12368001D01*
X16257269Y12343899D01*
X16257270Y12343899D01*
X16392188Y12343899D01*
X16392204Y12343900D01*
X17343118Y12343900D01*
X17343120Y12343900D01*
X17465989Y12376822D01*
X17576150Y12440424D01*
X18454774Y13319051D01*
X18454784Y13319058D01*
X18555089Y13419363D01*
X18555095Y13419369D01*
X18618697Y13529530D01*
X18651619Y13652399D01*
X18651619Y17843601D01*
X18618697Y17966470D01*
X18599802Y17999197D01*
X18555097Y18076628D01*
X18555093Y18076633D01*
X18553878Y18077848D01*
X18465150Y18166576D01*
X17327726Y19304000D01*
X19014545Y19304000D01*
X19032981Y19140375D01*
X19032982Y19140373D01*
X19087364Y18984956D01*
X19109266Y18950100D01*
X19174970Y18845533D01*
X19174973Y18845530D01*
X19174973Y18845529D01*
X19291397Y18729105D01*
X19291399Y18729104D01*
X19291402Y18729101D01*
X19430824Y18641496D01*
X19586244Y18587112D01*
X19749869Y18568676D01*
X19913494Y18587112D01*
X20068914Y18641496D01*
X20208336Y18729101D01*
X20324768Y18845533D01*
X20412373Y18984955D01*
X20466757Y19140375D01*
X20485193Y19304000D01*
X20466757Y19467625D01*
X20412373Y19623045D01*
X20324768Y19762467D01*
X20324764Y19762471D01*
X20324764Y19762472D01*
X20208340Y19878896D01*
X20208337Y19878898D01*
X20208336Y19878899D01*
X20121551Y19933430D01*
X20068913Y19966505D01*
X19962589Y20003709D01*
X19913494Y20020888D01*
X19749869Y20039324D01*
X19586244Y20020888D01*
X19586241Y20020888D01*
X19586241Y20020887D01*
X19430824Y19966505D01*
X19337036Y19907574D01*
X19291402Y19878899D01*
X19291400Y19878898D01*
X19291398Y19878896D01*
X19291397Y19878896D01*
X19174973Y19762472D01*
X19174973Y19762471D01*
X19174971Y19762469D01*
X19174970Y19762467D01*
X19160156Y19738890D01*
X19087364Y19623045D01*
X19043847Y19498679D01*
X19032981Y19467625D01*
X19014545Y19304000D01*
X17327726Y19304000D01*
X17260042Y19371684D01*
X15925156Y20706571D01*
X15925146Y20706579D01*
X15814993Y20770176D01*
X15814991Y20770177D01*
X15814989Y20770178D01*
X15692120Y20803100D01*
X15692119Y20803100D01*
X-9544584Y20803100D01*
X-9612705Y20823102D01*
X-9633680Y20840005D01*
X-10186048Y21392374D01*
X-10186054Y21392379D01*
X-10296207Y21455976D01*
X-10296209Y21455977D01*
X-10296211Y21455978D01*
X-10419080Y21488900D01*
X-12233959Y21488900D01*
X-12361161Y21488900D01*
X-12484030Y21455978D01*
X-12484032Y21455977D01*
X-12484035Y21455976D01*
X-12594188Y21392379D01*
X-12594194Y21392374D01*
X-13453421Y20533148D01*
X-13515733Y20499123D01*
X-13586549Y20504188D01*
X-13588030Y20504752D01*
X-13607178Y20512170D01*
X-13618883Y20514358D01*
X-13822273Y20552379D01*
X-14041089Y20552379D01*
X-14041090Y20552379D01*
X-14256181Y20512171D01*
X-14414271Y20450927D01*
X-14460219Y20433126D01*
X-14460220Y20433126D01*
X-14460221Y20433125D01*
X-14460226Y20433123D01*
X-14646262Y20317934D01*
X-14807969Y20170519D01*
X-14939831Y19995904D01*
X-15037367Y19800024D01*
X-15037369Y19800019D01*
X-15097250Y19589558D01*
X-15117439Y19371684D01*
X-16367015Y19371684D01*
X-16363159Y19440358D01*
X-16361577Y19454393D01*
X-16313239Y19738898D01*
X-16310097Y19752659D01*
X-16230208Y20029957D01*
X-16225544Y20043287D01*
X-16172842Y20170519D01*
X-16115109Y20309900D01*
X-16108980Y20322625D01*
X-16026807Y20471306D01*
X-15969390Y20575196D01*
X-15961882Y20587145D01*
X-15794881Y20822509D01*
X-15786083Y20833541D01*
X-15593779Y21048726D01*
X-15583807Y21058698D01*
X-15368622Y21250997D01*
X-15357586Y21259798D01*
X-15122219Y21426797D01*
X-15110285Y21434297D01*
X-14857682Y21573903D01*
X-14844977Y21580020D01*
X-14578347Y21690458D01*
X-14565049Y21695112D01*
X-14287721Y21775005D01*
X-14273968Y21778144D01*
X-13989456Y21826481D01*
X-13975432Y21828061D01*
X-13723023Y21842232D01*
X-13683142Y21844470D01*
X-13676081Y21844668D01*
X-13632645Y21844667D01*
X-13632642Y21844668D01*
X-6023981Y21844668D01*
X-6023927Y21844653D01*
X-5971752Y21844654D01*
X-5971752Y21844653D01*
X-5798781Y21844655D01*
X-5454732Y21880819D01*
X-5116349Y21952747D01*
X-4787337Y22059651D01*
X-4471303Y22200361D01*
X-4171708Y22373334D01*
X-3891834Y22576676D01*
X-3634748Y22808158D01*
X-3403267Y23065245D01*
X-3199927Y23345119D01*
X-3026955Y23644716D01*
X-2886247Y23960751D01*
X-2779344Y24289763D01*
X-2707418Y24628147D01*
X-2671256Y24972195D01*
X-2671256Y25097413D01*
X-2671152Y25099021D01*
X-2671169Y25106278D01*
X-2671167Y25106282D01*
X-2671255Y25145368D01*
X-2671255Y25192761D01*
X-2671255Y25201623D01*
X-2671386Y25203257D01*
X-2678853Y28519708D01*
X-2678655Y28527046D01*
X-2671771Y28649636D01*
X-1596981Y28649636D01*
X-1596981Y28397082D01*
X-1557472Y28147638D01*
X-1479429Y27907445D01*
X-1364772Y27682418D01*
X-1216325Y27478098D01*
X-1216323Y27478096D01*
X-1216321Y27478093D01*
X-1037748Y27299520D01*
X-1037745Y27299518D01*
X-1037742Y27299515D01*
X-833422Y27151068D01*
X-608395Y27036411D01*
X-368202Y26958368D01*
X-118758Y26918859D01*
X-118755Y26918859D01*
X133793Y26918859D01*
X133796Y26918859D01*
X383240Y26958368D01*
X623433Y27036411D01*
X848460Y27151068D01*
X1052780Y27299515D01*
X1231363Y27478098D01*
X1379810Y27682418D01*
X1494467Y27907445D01*
X1572510Y28147638D01*
X1612019Y28397082D01*
X1612019Y28649636D01*
X1603840Y28701277D01*
X15929019Y28701277D01*
X15929019Y28448723D01*
X15968528Y28199279D01*
X16046571Y27959086D01*
X16161228Y27734059D01*
X16309675Y27529739D01*
X16309677Y27529737D01*
X16309679Y27529734D01*
X16488252Y27351161D01*
X16488255Y27351159D01*
X16488258Y27351156D01*
X16692578Y27202709D01*
X16917605Y27088052D01*
X17157798Y27010009D01*
X17407242Y26970500D01*
X17407245Y26970500D01*
X17659793Y26970500D01*
X17659796Y26970500D01*
X17909240Y27010009D01*
X18149433Y27088052D01*
X18374460Y27202709D01*
X18578780Y27351156D01*
X18757363Y27529739D01*
X18905810Y27734059D01*
X19020467Y27959086D01*
X19098510Y28199279D01*
X19138019Y28448723D01*
X19138019Y28701277D01*
X19098510Y28950721D01*
X19020467Y29190914D01*
X18905810Y29415941D01*
X18757363Y29620261D01*
X18757360Y29620264D01*
X18757358Y29620267D01*
X18578785Y29798840D01*
X18578782Y29798842D01*
X18578780Y29798844D01*
X18374460Y29947291D01*
X18149433Y30061948D01*
X18149430Y30061949D01*
X18149428Y30061950D01*
X17909244Y30139990D01*
X17909242Y30139991D01*
X17909240Y30139991D01*
X17659796Y30179500D01*
X17407242Y30179500D01*
X17157798Y30139991D01*
X17157796Y30139991D01*
X17157793Y30139990D01*
X16917609Y30061950D01*
X16917603Y30061947D01*
X16692574Y29947289D01*
X16488255Y29798842D01*
X16488252Y29798840D01*
X16309679Y29620267D01*
X16309677Y29620264D01*
X16161230Y29415945D01*
X16046572Y29190916D01*
X16046569Y29190910D01*
X15968529Y28950726D01*
X15968528Y28950723D01*
X15968528Y28950721D01*
X15929019Y28701277D01*
X1603840Y28701277D01*
X1572510Y28899080D01*
X1494467Y29139273D01*
X1379810Y29364300D01*
X1231363Y29568620D01*
X1231360Y29568623D01*
X1231358Y29568626D01*
X1052785Y29747199D01*
X1052782Y29747201D01*
X1052780Y29747203D01*
X848460Y29895650D01*
X623433Y30010307D01*
X623430Y30010308D01*
X623428Y30010309D01*
X383244Y30088349D01*
X383242Y30088350D01*
X383240Y30088350D01*
X133796Y30127859D01*
X-118758Y30127859D01*
X-368202Y30088350D01*
X-368204Y30088350D01*
X-368207Y30088349D01*
X-608391Y30010309D01*
X-608397Y30010306D01*
X-833426Y29895648D01*
X-1037745Y29747201D01*
X-1037748Y29747199D01*
X-1216321Y29568626D01*
X-1216323Y29568623D01*
X-1364770Y29364304D01*
X-1479428Y29139275D01*
X-1479431Y29139269D01*
X-1557471Y28899085D01*
X-1557472Y28899082D01*
X-1557472Y28899080D01*
X-1596981Y28649636D01*
X-2671771Y28649636D01*
X-2662286Y28818546D01*
X-2660704Y28832587D01*
X-2612365Y29117098D01*
X-2609224Y29130855D01*
X-2529334Y29408168D01*
X-2524679Y29421472D01*
X-2414236Y29688107D01*
X-2408107Y29700831D01*
X-2404269Y29707774D01*
X-2268523Y29953391D01*
X-2261013Y29965344D01*
X-2094010Y30200714D01*
X-2085201Y30211757D01*
X-1985427Y30323405D01*
X-1892908Y30426935D01*
X-1882937Y30436906D01*
X-1667757Y30629202D01*
X-1656713Y30638009D01*
X-1421346Y30805011D01*
X-1409393Y30812521D01*
X-1156827Y30952109D01*
X-1144109Y30958234D01*
X-877474Y31068677D01*
X-864170Y31073332D01*
X-586843Y31153226D01*
X-573100Y31156363D01*
X-288582Y31204703D01*
X-274555Y31206284D01*
X17112Y31222662D01*
X24172Y31222859D01*
X68232Y31222858D01*
X68234Y31222859D01*
X86879Y31222859D01*
X86894Y31222860D01*
X31547980Y31222860D01*
X31555044Y31222663D01*
G37*
%TD.AperFunction*%
%TD*%
M02*
