M48
; DRILL file {KiCad 8.0.4} date 2024-07-26T08:44:17-0700
; FORMAT={-:-/ absolute / inch / decimal}
; #@! TF.CreationDate,2024-07-26T08:44:17-07:00
; #@! TF.GenerationSoftware,Kicad,Pcbnew,8.0.4
; #@! TF.FileFunction,Plated,1,4,PTH
FMAT,2
INCH
; #@! TA.AperFunction,Plated,PTH,ViaDrill
T1C0.0079
; #@! TA.AperFunction,Plated,PTH,ViaDrill
T2C0.0118
; #@! TA.AperFunction,Plated,PTH,ViaDrill
T3C0.0157
; #@! TA.AperFunction,Plated,PTH,ComponentDrill
T4C0.0394
%
G90
G05
T1
X-0.2697Y0.675
X-0.2697Y0.58
X-0.2697Y0.5
X0.3503Y0.675
X0.3503Y0.585
X0.3503Y0.505
X0.6753Y0.56
X0.6903Y0.685
T2
X0.4983Y0.734
X0.6076Y0.705
X0.6133Y0.58
X0.6176Y0.53
X0.6276Y0.66
X0.8253Y0.71
X1.3153Y1.157
X1.3153Y1.007
X1.3183Y0.857
X1.3183Y0.707
X1.3183Y0.557
X1.3183Y0.407
X1.3183Y0.257
X1.3183Y0.107
T3
X-0.3747Y0.38
X-0.3747Y0.32
X-0.2247Y0.38
X-0.2247Y0.32
X-0.2147Y0.76
X0.5503Y0.465
X0.6676Y0.8
X0.7776Y0.76
T4
X-0.5485Y0.7627
X-0.5485Y0.6627
X-0.5485Y0.5627
X-0.5485Y0.4627
X-0.5485Y0.3627
X-0.4485Y0.7627
X-0.4485Y0.6627
X-0.4485Y0.5627
X-0.4485Y0.4627
X-0.4485Y0.3627
M30
