%TF.GenerationSoftware,KiCad,Pcbnew,8.0.4*%
%TF.CreationDate,2024-07-26T08:44:17-07:00*%
%TF.ProjectId,GOLD,474f4c44-2e6b-4696-9361-645f70636258,0*%
%TF.SameCoordinates,Original*%
%TF.FileFunction,Legend,Bot*%
%TF.FilePolarity,Positive*%
%FSLAX46Y46*%
G04 Gerber Fmt 4.6, Leading zero omitted, Abs format (unit mm)*
G04 Created by KiCad (PCBNEW 8.0.4) date 2024-07-26 08:44:17*
%MOMM*%
%LPD*%
G01*
G04 APERTURE LIST*
G04 Aperture macros list*
%AMRoundRect*
0 Rectangle with rounded corners*
0 $1 Rounding radius*
0 $2 $3 $4 $5 $6 $7 $8 $9 X,Y pos of 4 corners*
0 Add a 4 corners polygon primitive as box body*
4,1,4,$2,$3,$4,$5,$6,$7,$8,$9,$2,$3,0*
0 Add four circle primitives for the rounded corners*
1,1,$1+$1,$2,$3*
1,1,$1+$1,$4,$5*
1,1,$1+$1,$6,$7*
1,1,$1+$1,$8,$9*
0 Add four rect primitives between the rounded corners*
20,1,$1+$1,$2,$3,$4,$5,0*
20,1,$1+$1,$4,$5,$6,$7,0*
20,1,$1+$1,$6,$7,$8,$9,0*
20,1,$1+$1,$8,$9,$2,$3,0*%
G04 Aperture macros list end*
%ADD10C,0.254000*%
%ADD11C,0.120000*%
%ADD12C,0.635000*%
%ADD13C,0.317500*%
%ADD14C,0.150000*%
%ADD15C,0.010000*%
%ADD16C,2.802000*%
%ADD17RoundRect,0.051000X-0.850000X-0.850000X0.850000X-0.850000X0.850000X0.850000X-0.850000X0.850000X0*%
%ADD18O,1.802000X1.802000*%
G04 APERTURE END LIST*
D10*
X4147719Y28219400D02*
X12275719Y28219400D01*
X12275719Y914400D01*
X4147719Y914400D01*
X4147719Y28219400D01*
D11*
X4965719Y8597900D02*
X8409719Y8597900D01*
X8409719Y2184900D01*
X4965719Y2184900D01*
X4965719Y8597900D01*
G36*
X4965719Y8597900D02*
G01*
X8409719Y8597900D01*
X8409719Y2184900D01*
X4965719Y2184900D01*
X4965719Y8597900D01*
G37*
D12*
X5283703Y25548899D02*
X5162751Y25790804D01*
X5162751Y25790804D02*
X5162751Y26153661D01*
X5162751Y26153661D02*
X5283703Y26516518D01*
X5283703Y26516518D02*
X5525608Y26758423D01*
X5525608Y26758423D02*
X5767513Y26879376D01*
X5767513Y26879376D02*
X6251322Y27000328D01*
X6251322Y27000328D02*
X6614179Y27000328D01*
X6614179Y27000328D02*
X7097989Y26879376D01*
X7097989Y26879376D02*
X7339894Y26758423D01*
X7339894Y26758423D02*
X7581799Y26516518D01*
X7581799Y26516518D02*
X7702751Y26153661D01*
X7702751Y26153661D02*
X7702751Y25911757D01*
X7702751Y25911757D02*
X7581799Y25548899D01*
X7581799Y25548899D02*
X7460846Y25427947D01*
X7460846Y25427947D02*
X6614179Y25427947D01*
X6614179Y25427947D02*
X6614179Y25911757D01*
X5162751Y23855566D02*
X5162751Y23371757D01*
X5162751Y23371757D02*
X5283703Y23129852D01*
X5283703Y23129852D02*
X5525608Y22887947D01*
X5525608Y22887947D02*
X6009418Y22766995D01*
X6009418Y22766995D02*
X6856084Y22766995D01*
X6856084Y22766995D02*
X7339894Y22887947D01*
X7339894Y22887947D02*
X7581799Y23129852D01*
X7581799Y23129852D02*
X7702751Y23371757D01*
X7702751Y23371757D02*
X7702751Y23855566D01*
X7702751Y23855566D02*
X7581799Y24097471D01*
X7581799Y24097471D02*
X7339894Y24339376D01*
X7339894Y24339376D02*
X6856084Y24460328D01*
X6856084Y24460328D02*
X6009418Y24460328D01*
X6009418Y24460328D02*
X5525608Y24339376D01*
X5525608Y24339376D02*
X5283703Y24097471D01*
X5283703Y24097471D02*
X5162751Y23855566D01*
X7702751Y20468900D02*
X7702751Y21678424D01*
X7702751Y21678424D02*
X5162751Y21678424D01*
X7702751Y19622234D02*
X5162751Y19622234D01*
X5162751Y19622234D02*
X5162751Y19017472D01*
X5162751Y19017472D02*
X5283703Y18654615D01*
X5283703Y18654615D02*
X5525608Y18412710D01*
X5525608Y18412710D02*
X5767513Y18291757D01*
X5767513Y18291757D02*
X6251322Y18170805D01*
X6251322Y18170805D02*
X6614179Y18170805D01*
X6614179Y18170805D02*
X7097989Y18291757D01*
X7097989Y18291757D02*
X7339894Y18412710D01*
X7339894Y18412710D02*
X7581799Y18654615D01*
X7581799Y18654615D02*
X7702751Y19017472D01*
X7702751Y19017472D02*
X7702751Y19622234D01*
D13*
X3058240Y21556500D02*
X1534240Y21556500D01*
X1534240Y21556500D02*
X1534240Y21223881D01*
X1534240Y21223881D02*
X1606811Y21024310D01*
X1606811Y21024310D02*
X1751954Y20891262D01*
X1751954Y20891262D02*
X1897097Y20824739D01*
X1897097Y20824739D02*
X2187383Y20758215D01*
X2187383Y20758215D02*
X2405097Y20758215D01*
X2405097Y20758215D02*
X2695383Y20824739D01*
X2695383Y20824739D02*
X2840526Y20891262D01*
X2840526Y20891262D02*
X2985669Y21024310D01*
X2985669Y21024310D02*
X3058240Y21223881D01*
X3058240Y21223881D02*
X3058240Y21556500D01*
X2985669Y19627310D02*
X3058240Y19760358D01*
X3058240Y19760358D02*
X3058240Y20026453D01*
X3058240Y20026453D02*
X2985669Y20159500D01*
X2985669Y20159500D02*
X2840526Y20226024D01*
X2840526Y20226024D02*
X2259954Y20226024D01*
X2259954Y20226024D02*
X2114811Y20159500D01*
X2114811Y20159500D02*
X2042240Y20026453D01*
X2042240Y20026453D02*
X2042240Y19760358D01*
X2042240Y19760358D02*
X2114811Y19627310D01*
X2114811Y19627310D02*
X2259954Y19560786D01*
X2259954Y19560786D02*
X2405097Y19560786D01*
X2405097Y19560786D02*
X2550240Y20226024D01*
X2042240Y18962071D02*
X3058240Y18962071D01*
X2187383Y18962071D02*
X2114811Y18895548D01*
X2114811Y18895548D02*
X2042240Y18762500D01*
X2042240Y18762500D02*
X2042240Y18562929D01*
X2042240Y18562929D02*
X2114811Y18429881D01*
X2114811Y18429881D02*
X2259954Y18363357D01*
X2259954Y18363357D02*
X3058240Y18363357D01*
X2042240Y17698119D02*
X3058240Y17698119D01*
X2187383Y17698119D02*
X2114811Y17631596D01*
X2114811Y17631596D02*
X2042240Y17498548D01*
X2042240Y17498548D02*
X2042240Y17298977D01*
X2042240Y17298977D02*
X2114811Y17165929D01*
X2114811Y17165929D02*
X2259954Y17099405D01*
X2259954Y17099405D02*
X3058240Y17099405D01*
X3058240Y16234596D02*
X2985669Y16367644D01*
X2985669Y16367644D02*
X2913097Y16434167D01*
X2913097Y16434167D02*
X2767954Y16500691D01*
X2767954Y16500691D02*
X2332526Y16500691D01*
X2332526Y16500691D02*
X2187383Y16434167D01*
X2187383Y16434167D02*
X2114811Y16367644D01*
X2114811Y16367644D02*
X2042240Y16234596D01*
X2042240Y16234596D02*
X2042240Y16035025D01*
X2042240Y16035025D02*
X2114811Y15901977D01*
X2114811Y15901977D02*
X2187383Y15835453D01*
X2187383Y15835453D02*
X2332526Y15768929D01*
X2332526Y15768929D02*
X2767954Y15768929D01*
X2767954Y15768929D02*
X2913097Y15835453D01*
X2913097Y15835453D02*
X2985669Y15901977D01*
X2985669Y15901977D02*
X3058240Y16035025D01*
X3058240Y16035025D02*
X3058240Y16234596D01*
X1534240Y14238882D02*
X3058240Y13906263D01*
X3058240Y13906263D02*
X1969669Y13640168D01*
X1969669Y13640168D02*
X3058240Y13374073D01*
X3058240Y13374073D02*
X1534240Y13041453D01*
X3058240Y12509263D02*
X2042240Y12509263D01*
X1534240Y12509263D02*
X1606811Y12575787D01*
X1606811Y12575787D02*
X1679383Y12509263D01*
X1679383Y12509263D02*
X1606811Y12442740D01*
X1606811Y12442740D02*
X1534240Y12509263D01*
X1534240Y12509263D02*
X1679383Y12509263D01*
X2042240Y11245311D02*
X3275954Y11245311D01*
X3275954Y11245311D02*
X3421097Y11311835D01*
X3421097Y11311835D02*
X3493669Y11378359D01*
X3493669Y11378359D02*
X3566240Y11511406D01*
X3566240Y11511406D02*
X3566240Y11710978D01*
X3566240Y11710978D02*
X3493669Y11844025D01*
X2985669Y11245311D02*
X3058240Y11378359D01*
X3058240Y11378359D02*
X3058240Y11644454D01*
X3058240Y11644454D02*
X2985669Y11777502D01*
X2985669Y11777502D02*
X2913097Y11844025D01*
X2913097Y11844025D02*
X2767954Y11910549D01*
X2767954Y11910549D02*
X2332526Y11910549D01*
X2332526Y11910549D02*
X2187383Y11844025D01*
X2187383Y11844025D02*
X2114811Y11777502D01*
X2114811Y11777502D02*
X2042240Y11644454D01*
X2042240Y11644454D02*
X2042240Y11378359D01*
X2042240Y11378359D02*
X2114811Y11245311D01*
X2042240Y9981359D02*
X3275954Y9981359D01*
X3275954Y9981359D02*
X3421097Y10047883D01*
X3421097Y10047883D02*
X3493669Y10114407D01*
X3493669Y10114407D02*
X3566240Y10247454D01*
X3566240Y10247454D02*
X3566240Y10447026D01*
X3566240Y10447026D02*
X3493669Y10580073D01*
X2985669Y9981359D02*
X3058240Y10114407D01*
X3058240Y10114407D02*
X3058240Y10380502D01*
X3058240Y10380502D02*
X2985669Y10513550D01*
X2985669Y10513550D02*
X2913097Y10580073D01*
X2913097Y10580073D02*
X2767954Y10646597D01*
X2767954Y10646597D02*
X2332526Y10646597D01*
X2332526Y10646597D02*
X2187383Y10580073D01*
X2187383Y10580073D02*
X2114811Y10513550D01*
X2114811Y10513550D02*
X2042240Y10380502D01*
X2042240Y10380502D02*
X2042240Y10114407D01*
X2042240Y10114407D02*
X2114811Y9981359D01*
X3058240Y9116550D02*
X2985669Y9249598D01*
X2985669Y9249598D02*
X2840526Y9316121D01*
X2840526Y9316121D02*
X1534240Y9316121D01*
X2985669Y8052169D02*
X3058240Y8185217D01*
X3058240Y8185217D02*
X3058240Y8451312D01*
X3058240Y8451312D02*
X2985669Y8584359D01*
X2985669Y8584359D02*
X2840526Y8650883D01*
X2840526Y8650883D02*
X2259954Y8650883D01*
X2259954Y8650883D02*
X2114811Y8584359D01*
X2114811Y8584359D02*
X2042240Y8451312D01*
X2042240Y8451312D02*
X2042240Y8185217D01*
X2042240Y8185217D02*
X2114811Y8052169D01*
X2114811Y8052169D02*
X2259954Y7985645D01*
X2259954Y7985645D02*
X2405097Y7985645D01*
X2405097Y7985645D02*
X2550240Y8650883D01*
X-388903Y23425215D02*
X-316331Y23491739D01*
X-316331Y23491739D02*
X-243760Y23691310D01*
X-243760Y23691310D02*
X-243760Y23824358D01*
X-243760Y23824358D02*
X-316331Y24023929D01*
X-316331Y24023929D02*
X-461474Y24156977D01*
X-461474Y24156977D02*
X-606617Y24223500D01*
X-606617Y24223500D02*
X-896903Y24290024D01*
X-896903Y24290024D02*
X-1114617Y24290024D01*
X-1114617Y24290024D02*
X-1404903Y24223500D01*
X-1404903Y24223500D02*
X-1550046Y24156977D01*
X-1550046Y24156977D02*
X-1695189Y24023929D01*
X-1695189Y24023929D02*
X-1767760Y23824358D01*
X-1767760Y23824358D02*
X-1767760Y23691310D01*
X-1767760Y23691310D02*
X-1695189Y23491739D01*
X-1695189Y23491739D02*
X-1622617Y23425215D01*
X-243760Y22626929D02*
X-316331Y22759977D01*
X-316331Y22759977D02*
X-388903Y22826500D01*
X-388903Y22826500D02*
X-534046Y22893024D01*
X-534046Y22893024D02*
X-969474Y22893024D01*
X-969474Y22893024D02*
X-1114617Y22826500D01*
X-1114617Y22826500D02*
X-1187189Y22759977D01*
X-1187189Y22759977D02*
X-1259760Y22626929D01*
X-1259760Y22626929D02*
X-1259760Y22427358D01*
X-1259760Y22427358D02*
X-1187189Y22294310D01*
X-1187189Y22294310D02*
X-1114617Y22227786D01*
X-1114617Y22227786D02*
X-969474Y22161262D01*
X-969474Y22161262D02*
X-534046Y22161262D01*
X-534046Y22161262D02*
X-388903Y22227786D01*
X-388903Y22227786D02*
X-316331Y22294310D01*
X-316331Y22294310D02*
X-243760Y22427358D01*
X-243760Y22427358D02*
X-243760Y22626929D01*
X-1259760Y21562548D02*
X264240Y21562548D01*
X-1187189Y21562548D02*
X-1259760Y21429501D01*
X-1259760Y21429501D02*
X-1259760Y21163406D01*
X-1259760Y21163406D02*
X-1187189Y21030358D01*
X-1187189Y21030358D02*
X-1114617Y20963834D01*
X-1114617Y20963834D02*
X-969474Y20897310D01*
X-969474Y20897310D02*
X-534046Y20897310D01*
X-534046Y20897310D02*
X-388903Y20963834D01*
X-388903Y20963834D02*
X-316331Y21030358D01*
X-316331Y21030358D02*
X-243760Y21163406D01*
X-243760Y21163406D02*
X-243760Y21429501D01*
X-243760Y21429501D02*
X-316331Y21562548D01*
X-1259760Y20431644D02*
X-243760Y20099025D01*
X-1259760Y19766406D02*
X-243760Y20099025D01*
X-243760Y20099025D02*
X119097Y20232073D01*
X119097Y20232073D02*
X191669Y20298596D01*
X191669Y20298596D02*
X264240Y20431644D01*
X-243760Y19234215D02*
X-1259760Y19234215D01*
X-969474Y19234215D02*
X-1114617Y19167692D01*
X-1114617Y19167692D02*
X-1187189Y19101168D01*
X-1187189Y19101168D02*
X-1259760Y18968120D01*
X-1259760Y18968120D02*
X-1259760Y18835073D01*
X-243760Y18369405D02*
X-1259760Y18369405D01*
X-1767760Y18369405D02*
X-1695189Y18435929D01*
X-1695189Y18435929D02*
X-1622617Y18369405D01*
X-1622617Y18369405D02*
X-1695189Y18302882D01*
X-1695189Y18302882D02*
X-1767760Y18369405D01*
X-1767760Y18369405D02*
X-1622617Y18369405D01*
X-1259760Y17105453D02*
X-26046Y17105453D01*
X-26046Y17105453D02*
X119097Y17171977D01*
X119097Y17171977D02*
X191669Y17238501D01*
X191669Y17238501D02*
X264240Y17371548D01*
X264240Y17371548D02*
X264240Y17571120D01*
X264240Y17571120D02*
X191669Y17704167D01*
X-316331Y17105453D02*
X-243760Y17238501D01*
X-243760Y17238501D02*
X-243760Y17504596D01*
X-243760Y17504596D02*
X-316331Y17637644D01*
X-316331Y17637644D02*
X-388903Y17704167D01*
X-388903Y17704167D02*
X-534046Y17770691D01*
X-534046Y17770691D02*
X-969474Y17770691D01*
X-969474Y17770691D02*
X-1114617Y17704167D01*
X-1114617Y17704167D02*
X-1187189Y17637644D01*
X-1187189Y17637644D02*
X-1259760Y17504596D01*
X-1259760Y17504596D02*
X-1259760Y17238501D01*
X-1259760Y17238501D02*
X-1187189Y17105453D01*
X-243760Y16440215D02*
X-1767760Y16440215D01*
X-243760Y15841501D02*
X-1042046Y15841501D01*
X-1042046Y15841501D02*
X-1187189Y15908025D01*
X-1187189Y15908025D02*
X-1259760Y16041073D01*
X-1259760Y16041073D02*
X-1259760Y16240644D01*
X-1259760Y16240644D02*
X-1187189Y16373692D01*
X-1187189Y16373692D02*
X-1114617Y16440215D01*
X-1259760Y15375835D02*
X-1259760Y14843644D01*
X-1767760Y15176263D02*
X-461474Y15176263D01*
X-461474Y15176263D02*
X-316331Y15109740D01*
X-316331Y15109740D02*
X-243760Y14976692D01*
X-243760Y14976692D02*
X-243760Y14843644D01*
X-1404903Y12182692D02*
X-1477474Y12315739D01*
X-1477474Y12315739D02*
X-1477474Y12581835D01*
X-1477474Y12581835D02*
X-1404903Y12714882D01*
X-1404903Y12714882D02*
X-1259760Y12847930D01*
X-1259760Y12847930D02*
X-1114617Y12914454D01*
X-1114617Y12914454D02*
X-824331Y12914454D01*
X-824331Y12914454D02*
X-679189Y12847930D01*
X-679189Y12847930D02*
X-534046Y12714882D01*
X-534046Y12714882D02*
X-461474Y12581835D01*
X-461474Y12581835D02*
X-461474Y12315739D01*
X-461474Y12315739D02*
X-534046Y12182692D01*
X-1985474Y12448787D02*
X-1912903Y12781406D01*
X-1912903Y12781406D02*
X-1695189Y13114025D01*
X-1695189Y13114025D02*
X-1332331Y13313596D01*
X-1332331Y13313596D02*
X-969474Y13380120D01*
X-969474Y13380120D02*
X-606617Y13313596D01*
X-606617Y13313596D02*
X-243760Y13114025D01*
X-243760Y13114025D02*
X-26046Y12781406D01*
X-26046Y12781406D02*
X46526Y12448787D01*
X46526Y12448787D02*
X-26046Y12116168D01*
X-26046Y12116168D02*
X-243760Y11783549D01*
X-243760Y11783549D02*
X-606617Y11583977D01*
X-606617Y11583977D02*
X-969474Y11517454D01*
X-969474Y11517454D02*
X-1332331Y11583977D01*
X-1332331Y11583977D02*
X-1695189Y11783549D01*
X-1695189Y11783549D02*
X-1912903Y12116168D01*
X-1912903Y12116168D02*
X-1985474Y12448787D01*
X-1622617Y9920882D02*
X-1695189Y9854358D01*
X-1695189Y9854358D02*
X-1767760Y9721311D01*
X-1767760Y9721311D02*
X-1767760Y9388692D01*
X-1767760Y9388692D02*
X-1695189Y9255644D01*
X-1695189Y9255644D02*
X-1622617Y9189120D01*
X-1622617Y9189120D02*
X-1477474Y9122597D01*
X-1477474Y9122597D02*
X-1332331Y9122597D01*
X-1332331Y9122597D02*
X-1114617Y9189120D01*
X-1114617Y9189120D02*
X-243760Y9987406D01*
X-243760Y9987406D02*
X-243760Y9122597D01*
X-1767760Y8257787D02*
X-1767760Y8124740D01*
X-1767760Y8124740D02*
X-1695189Y7991692D01*
X-1695189Y7991692D02*
X-1622617Y7925168D01*
X-1622617Y7925168D02*
X-1477474Y7858644D01*
X-1477474Y7858644D02*
X-1187189Y7792121D01*
X-1187189Y7792121D02*
X-824331Y7792121D01*
X-824331Y7792121D02*
X-534046Y7858644D01*
X-534046Y7858644D02*
X-388903Y7925168D01*
X-388903Y7925168D02*
X-316331Y7991692D01*
X-316331Y7991692D02*
X-243760Y8124740D01*
X-243760Y8124740D02*
X-243760Y8257787D01*
X-243760Y8257787D02*
X-316331Y8390835D01*
X-316331Y8390835D02*
X-388903Y8457359D01*
X-388903Y8457359D02*
X-534046Y8523882D01*
X-534046Y8523882D02*
X-824331Y8590406D01*
X-824331Y8590406D02*
X-1187189Y8590406D01*
X-1187189Y8590406D02*
X-1477474Y8523882D01*
X-1477474Y8523882D02*
X-1622617Y8457359D01*
X-1622617Y8457359D02*
X-1695189Y8390835D01*
X-1695189Y8390835D02*
X-1767760Y8257787D01*
X-1622617Y7259930D02*
X-1695189Y7193406D01*
X-1695189Y7193406D02*
X-1767760Y7060359D01*
X-1767760Y7060359D02*
X-1767760Y6727740D01*
X-1767760Y6727740D02*
X-1695189Y6594692D01*
X-1695189Y6594692D02*
X-1622617Y6528168D01*
X-1622617Y6528168D02*
X-1477474Y6461645D01*
X-1477474Y6461645D02*
X-1332331Y6461645D01*
X-1332331Y6461645D02*
X-1114617Y6528168D01*
X-1114617Y6528168D02*
X-243760Y7326454D01*
X-243760Y7326454D02*
X-243760Y6461645D01*
X-1259760Y5264216D02*
X-243760Y5264216D01*
X-1840331Y5596835D02*
X-751760Y5929454D01*
X-751760Y5929454D02*
X-751760Y5064645D01*
X7432240Y14561115D02*
X6706526Y15026781D01*
X7432240Y15359400D02*
X5908240Y15359400D01*
X5908240Y15359400D02*
X5908240Y14827210D01*
X5908240Y14827210D02*
X5980811Y14694162D01*
X5980811Y14694162D02*
X6053383Y14627639D01*
X6053383Y14627639D02*
X6198526Y14561115D01*
X6198526Y14561115D02*
X6416240Y14561115D01*
X6416240Y14561115D02*
X6561383Y14627639D01*
X6561383Y14627639D02*
X6633954Y14694162D01*
X6633954Y14694162D02*
X6706526Y14827210D01*
X6706526Y14827210D02*
X6706526Y15359400D01*
X7359669Y13430210D02*
X7432240Y13563258D01*
X7432240Y13563258D02*
X7432240Y13829353D01*
X7432240Y13829353D02*
X7359669Y13962400D01*
X7359669Y13962400D02*
X7214526Y14028924D01*
X7214526Y14028924D02*
X6633954Y14028924D01*
X6633954Y14028924D02*
X6488811Y13962400D01*
X6488811Y13962400D02*
X6416240Y13829353D01*
X6416240Y13829353D02*
X6416240Y13563258D01*
X6416240Y13563258D02*
X6488811Y13430210D01*
X6488811Y13430210D02*
X6633954Y13363686D01*
X6633954Y13363686D02*
X6779097Y13363686D01*
X6779097Y13363686D02*
X6924240Y14028924D01*
X6416240Y12898019D02*
X7432240Y12565400D01*
X7432240Y12565400D02*
X6416240Y12232781D01*
X5908240Y10370114D02*
X5908240Y10237067D01*
X5908240Y10237067D02*
X5980811Y10104019D01*
X5980811Y10104019D02*
X6053383Y10037495D01*
X6053383Y10037495D02*
X6198526Y9970971D01*
X6198526Y9970971D02*
X6488811Y9904448D01*
X6488811Y9904448D02*
X6851669Y9904448D01*
X6851669Y9904448D02*
X7141954Y9970971D01*
X7141954Y9970971D02*
X7287097Y10037495D01*
X7287097Y10037495D02*
X7359669Y10104019D01*
X7359669Y10104019D02*
X7432240Y10237067D01*
X7432240Y10237067D02*
X7432240Y10370114D01*
X7432240Y10370114D02*
X7359669Y10503162D01*
X7359669Y10503162D02*
X7287097Y10569686D01*
X7287097Y10569686D02*
X7141954Y10636209D01*
X7141954Y10636209D02*
X6851669Y10702733D01*
X6851669Y10702733D02*
X6488811Y10702733D01*
X6488811Y10702733D02*
X6198526Y10636209D01*
X6198526Y10636209D02*
X6053383Y10569686D01*
X6053383Y10569686D02*
X5980811Y10503162D01*
X5980811Y10503162D02*
X5908240Y10370114D01*
X9734811Y26247639D02*
X9662240Y26380686D01*
X9662240Y26380686D02*
X9662240Y26580258D01*
X9662240Y26580258D02*
X9734811Y26779829D01*
X9734811Y26779829D02*
X9879954Y26912877D01*
X9879954Y26912877D02*
X10025097Y26979400D01*
X10025097Y26979400D02*
X10315383Y27045924D01*
X10315383Y27045924D02*
X10533097Y27045924D01*
X10533097Y27045924D02*
X10823383Y26979400D01*
X10823383Y26979400D02*
X10968526Y26912877D01*
X10968526Y26912877D02*
X11113669Y26779829D01*
X11113669Y26779829D02*
X11186240Y26580258D01*
X11186240Y26580258D02*
X11186240Y26447210D01*
X11186240Y26447210D02*
X11113669Y26247639D01*
X11113669Y26247639D02*
X11041097Y26181115D01*
X11041097Y26181115D02*
X10533097Y26181115D01*
X10533097Y26181115D02*
X10533097Y26447210D01*
X11186240Y25582400D02*
X9662240Y25582400D01*
X9662240Y25582400D02*
X9662240Y25050210D01*
X9662240Y25050210D02*
X9734811Y24917162D01*
X9734811Y24917162D02*
X9807383Y24850639D01*
X9807383Y24850639D02*
X9952526Y24784115D01*
X9952526Y24784115D02*
X10170240Y24784115D01*
X10170240Y24784115D02*
X10315383Y24850639D01*
X10315383Y24850639D02*
X10387954Y24917162D01*
X10387954Y24917162D02*
X10460526Y25050210D01*
X10460526Y25050210D02*
X10460526Y25582400D01*
X11186240Y24185400D02*
X9662240Y24185400D01*
X9662240Y23254067D02*
X9662240Y22987972D01*
X9662240Y22987972D02*
X9734811Y22854924D01*
X9734811Y22854924D02*
X9879954Y22721877D01*
X9879954Y22721877D02*
X10170240Y22655353D01*
X10170240Y22655353D02*
X10678240Y22655353D01*
X10678240Y22655353D02*
X10968526Y22721877D01*
X10968526Y22721877D02*
X11113669Y22854924D01*
X11113669Y22854924D02*
X11186240Y22987972D01*
X11186240Y22987972D02*
X11186240Y23254067D01*
X11186240Y23254067D02*
X11113669Y23387115D01*
X11113669Y23387115D02*
X10968526Y23520162D01*
X10968526Y23520162D02*
X10678240Y23586686D01*
X10678240Y23586686D02*
X10170240Y23586686D01*
X10170240Y23586686D02*
X9879954Y23520162D01*
X9879954Y23520162D02*
X9734811Y23387115D01*
X9734811Y23387115D02*
X9662240Y23254067D01*
X9662240Y20726162D02*
X9662240Y20460067D01*
X9662240Y20460067D02*
X9734811Y20327019D01*
X9734811Y20327019D02*
X9879954Y20193972D01*
X9879954Y20193972D02*
X10170240Y20127448D01*
X10170240Y20127448D02*
X10678240Y20127448D01*
X10678240Y20127448D02*
X10968526Y20193972D01*
X10968526Y20193972D02*
X11113669Y20327019D01*
X11113669Y20327019D02*
X11186240Y20460067D01*
X11186240Y20460067D02*
X11186240Y20726162D01*
X11186240Y20726162D02*
X11113669Y20859210D01*
X11113669Y20859210D02*
X10968526Y20992257D01*
X10968526Y20992257D02*
X10678240Y21058781D01*
X10678240Y21058781D02*
X10170240Y21058781D01*
X10170240Y21058781D02*
X9879954Y20992257D01*
X9879954Y20992257D02*
X9734811Y20859210D01*
X9734811Y20859210D02*
X9662240Y20726162D01*
X10170240Y19528733D02*
X11186240Y19528733D01*
X10315383Y19528733D02*
X10242811Y19462210D01*
X10242811Y19462210D02*
X10170240Y19329162D01*
X10170240Y19329162D02*
X10170240Y19129591D01*
X10170240Y19129591D02*
X10242811Y18996543D01*
X10242811Y18996543D02*
X10387954Y18930019D01*
X10387954Y18930019D02*
X11186240Y18930019D01*
X11186240Y16535162D02*
X11186240Y17200400D01*
X11186240Y17200400D02*
X9662240Y17200400D01*
X10387954Y16069495D02*
X10387954Y15603829D01*
X11186240Y15404257D02*
X11186240Y16069495D01*
X11186240Y16069495D02*
X9662240Y16069495D01*
X9662240Y16069495D02*
X9662240Y15404257D01*
X11186240Y14805543D02*
X9662240Y14805543D01*
X9662240Y14805543D02*
X9662240Y14472924D01*
X9662240Y14472924D02*
X9734811Y14273353D01*
X9734811Y14273353D02*
X9879954Y14140305D01*
X9879954Y14140305D02*
X10025097Y14073782D01*
X10025097Y14073782D02*
X10315383Y14007258D01*
X10315383Y14007258D02*
X10533097Y14007258D01*
X10533097Y14007258D02*
X10823383Y14073782D01*
X10823383Y14073782D02*
X10968526Y14140305D01*
X10968526Y14140305D02*
X11113669Y14273353D01*
X11113669Y14273353D02*
X11186240Y14472924D01*
X11186240Y14472924D02*
X11186240Y14805543D01*
X11186240Y12344162D02*
X9662240Y12344162D01*
X9662240Y12344162D02*
X9662240Y12011543D01*
X9662240Y12011543D02*
X9734811Y11811972D01*
X9734811Y11811972D02*
X9879954Y11678924D01*
X9879954Y11678924D02*
X10025097Y11612401D01*
X10025097Y11612401D02*
X10315383Y11545877D01*
X10315383Y11545877D02*
X10533097Y11545877D01*
X10533097Y11545877D02*
X10823383Y11612401D01*
X10823383Y11612401D02*
X10968526Y11678924D01*
X10968526Y11678924D02*
X11113669Y11811972D01*
X11113669Y11811972D02*
X11186240Y12011543D01*
X11186240Y12011543D02*
X11186240Y12344162D01*
X11186240Y10947162D02*
X10170240Y10947162D01*
X9662240Y10947162D02*
X9734811Y11013686D01*
X9734811Y11013686D02*
X9807383Y10947162D01*
X9807383Y10947162D02*
X9734811Y10880639D01*
X9734811Y10880639D02*
X9662240Y10947162D01*
X9662240Y10947162D02*
X9807383Y10947162D01*
X11113669Y10348448D02*
X11186240Y10215401D01*
X11186240Y10215401D02*
X11186240Y9949305D01*
X11186240Y9949305D02*
X11113669Y9816258D01*
X11113669Y9816258D02*
X10968526Y9749734D01*
X10968526Y9749734D02*
X10895954Y9749734D01*
X10895954Y9749734D02*
X10750811Y9816258D01*
X10750811Y9816258D02*
X10678240Y9949305D01*
X10678240Y9949305D02*
X10678240Y10148877D01*
X10678240Y10148877D02*
X10605669Y10281924D01*
X10605669Y10281924D02*
X10460526Y10348448D01*
X10460526Y10348448D02*
X10387954Y10348448D01*
X10387954Y10348448D02*
X10242811Y10281924D01*
X10242811Y10281924D02*
X10170240Y10148877D01*
X10170240Y10148877D02*
X10170240Y9949305D01*
X10170240Y9949305D02*
X10242811Y9816258D01*
X10170240Y9151019D02*
X11694240Y9151019D01*
X10242811Y9151019D02*
X10170240Y9017972D01*
X10170240Y9017972D02*
X10170240Y8751877D01*
X10170240Y8751877D02*
X10242811Y8618829D01*
X10242811Y8618829D02*
X10315383Y8552305D01*
X10315383Y8552305D02*
X10460526Y8485781D01*
X10460526Y8485781D02*
X10895954Y8485781D01*
X10895954Y8485781D02*
X11041097Y8552305D01*
X11041097Y8552305D02*
X11113669Y8618829D01*
X11113669Y8618829D02*
X11186240Y8751877D01*
X11186240Y8751877D02*
X11186240Y9017972D01*
X11186240Y9017972D02*
X11113669Y9151019D01*
X11186240Y7687496D02*
X11113669Y7820544D01*
X11113669Y7820544D02*
X10968526Y7887067D01*
X10968526Y7887067D02*
X9662240Y7887067D01*
X11186240Y6556591D02*
X10387954Y6556591D01*
X10387954Y6556591D02*
X10242811Y6623115D01*
X10242811Y6623115D02*
X10170240Y6756163D01*
X10170240Y6756163D02*
X10170240Y7022258D01*
X10170240Y7022258D02*
X10242811Y7155305D01*
X11113669Y6556591D02*
X11186240Y6689639D01*
X11186240Y6689639D02*
X11186240Y7022258D01*
X11186240Y7022258D02*
X11113669Y7155305D01*
X11113669Y7155305D02*
X10968526Y7221829D01*
X10968526Y7221829D02*
X10823383Y7221829D01*
X10823383Y7221829D02*
X10678240Y7155305D01*
X10678240Y7155305D02*
X10605669Y7022258D01*
X10605669Y7022258D02*
X10605669Y6689639D01*
X10605669Y6689639D02*
X10533097Y6556591D01*
X10170240Y6024401D02*
X11186240Y5691782D01*
X10170240Y5359163D02*
X11186240Y5691782D01*
X11186240Y5691782D02*
X11549097Y5824830D01*
X11549097Y5824830D02*
X11621669Y5891353D01*
X11621669Y5891353D02*
X11694240Y6024401D01*
D14*
X-7914148Y16166181D02*
X-7914148Y15451896D01*
X-7914148Y15451896D02*
X-7866529Y15309039D01*
X-7866529Y15309039D02*
X-7771291Y15213800D01*
X-7771291Y15213800D02*
X-7628434Y15166181D01*
X-7628434Y15166181D02*
X-7533196Y15166181D01*
X-8914148Y15166181D02*
X-8342720Y15166181D01*
X-8628434Y15166181D02*
X-8628434Y16166181D01*
X-8628434Y16166181D02*
X-8533196Y16023324D01*
X-8533196Y16023324D02*
X-8437958Y15928086D01*
X-8437958Y15928086D02*
X-8342720Y15880467D01*
D15*
%TO.C,LOGO1*%
X28402045Y13101053D02*
X27849002Y13101053D01*
X27806653Y13055358D01*
X27794617Y13041082D01*
X27774053Y12998558D01*
X27773229Y12946192D01*
X27791375Y12874889D01*
X27792524Y12850852D01*
X27774921Y12822656D01*
X27733081Y12785126D01*
X27709938Y12766921D01*
X27677261Y12745391D01*
X27656461Y12742073D01*
X27638914Y12754128D01*
X27616725Y12791135D01*
X27599164Y12848612D01*
X27590457Y12910972D01*
X27593735Y12963684D01*
X27606524Y13004650D01*
X27627780Y13055099D01*
X27639203Y13079526D01*
X27641268Y13097155D01*
X27625435Y13101053D01*
X27624987Y13101057D01*
X27609870Y13109312D01*
X27602122Y13137781D01*
X27599940Y13192961D01*
X27599940Y13284869D01*
X28402045Y13284869D01*
X28402045Y13101053D01*
G36*
X28402045Y13101053D02*
G01*
X27849002Y13101053D01*
X27806653Y13055358D01*
X27794617Y13041082D01*
X27774053Y12998558D01*
X27773229Y12946192D01*
X27791375Y12874889D01*
X27792524Y12850852D01*
X27774921Y12822656D01*
X27733081Y12785126D01*
X27709938Y12766921D01*
X27677261Y12745391D01*
X27656461Y12742073D01*
X27638914Y12754128D01*
X27616725Y12791135D01*
X27599164Y12848612D01*
X27590457Y12910972D01*
X27593735Y12963684D01*
X27606524Y13004650D01*
X27627780Y13055099D01*
X27639203Y13079526D01*
X27641268Y13097155D01*
X27625435Y13101053D01*
X27624987Y13101057D01*
X27609870Y13109312D01*
X27602122Y13137781D01*
X27599940Y13192961D01*
X27599940Y13284869D01*
X28402045Y13284869D01*
X28402045Y13101053D01*
G37*
X29672045Y13301579D02*
X29405463Y13301579D01*
X29390159Y13301557D01*
X29282579Y13299989D01*
X29194946Y13296141D01*
X29131743Y13290287D01*
X29097448Y13282701D01*
X29084501Y13275736D01*
X29043897Y13232860D01*
X29025923Y13174458D01*
X29034308Y13110686D01*
X29039991Y13095044D01*
X29050036Y13061721D01*
X29046917Y13038947D01*
X29026498Y13016031D01*
X28984646Y12982283D01*
X28915536Y12927547D01*
X28884383Y12966020D01*
X28865631Y13002592D01*
X28852966Y13066833D01*
X28852552Y13139240D01*
X28864235Y13207063D01*
X28887863Y13257550D01*
X28922497Y13301579D01*
X28887863Y13301579D01*
X28874713Y13302676D01*
X28860771Y13312885D01*
X28854613Y13340493D01*
X28853229Y13393487D01*
X28853229Y13485395D01*
X29672045Y13485395D01*
X29672045Y13301579D01*
G36*
X29672045Y13301579D02*
G01*
X29405463Y13301579D01*
X29390159Y13301557D01*
X29282579Y13299989D01*
X29194946Y13296141D01*
X29131743Y13290287D01*
X29097448Y13282701D01*
X29084501Y13275736D01*
X29043897Y13232860D01*
X29025923Y13174458D01*
X29034308Y13110686D01*
X29039991Y13095044D01*
X29050036Y13061721D01*
X29046917Y13038947D01*
X29026498Y13016031D01*
X28984646Y12982283D01*
X28915536Y12927547D01*
X28884383Y12966020D01*
X28865631Y13002592D01*
X28852966Y13066833D01*
X28852552Y13139240D01*
X28864235Y13207063D01*
X28887863Y13257550D01*
X28922497Y13301579D01*
X28887863Y13301579D01*
X28874713Y13302676D01*
X28860771Y13312885D01*
X28854613Y13340493D01*
X28853229Y13393487D01*
X28853229Y13485395D01*
X29672045Y13485395D01*
X29672045Y13301579D01*
G37*
X29672045Y16526711D02*
X29414120Y16526711D01*
X29354124Y16526526D01*
X29254756Y16524626D01*
X29181192Y16519816D01*
X29128346Y16511052D01*
X29091133Y16497290D01*
X29064468Y16477487D01*
X29043265Y16450600D01*
X29027466Y16421248D01*
X29022986Y16386491D01*
X29032948Y16337058D01*
X29037095Y16321173D01*
X29043337Y16281520D01*
X29034394Y16253167D01*
X29006714Y16220306D01*
X29000694Y16214070D01*
X28963456Y16179594D01*
X28933179Y16157361D01*
X28925885Y16154311D01*
X28898951Y16160354D01*
X28877417Y16190998D01*
X28862305Y16239363D01*
X28854633Y16298566D01*
X28855423Y16361728D01*
X28865694Y16421967D01*
X28886467Y16472402D01*
X28896167Y16488388D01*
X28910364Y16515302D01*
X28907113Y16525264D01*
X28886405Y16526711D01*
X28878970Y16527050D01*
X28862501Y16535112D01*
X28855005Y16560119D01*
X28853229Y16610264D01*
X28853229Y16693816D01*
X29672045Y16693816D01*
X29672045Y16526711D01*
G36*
X29672045Y16526711D02*
G01*
X29414120Y16526711D01*
X29354124Y16526526D01*
X29254756Y16524626D01*
X29181192Y16519816D01*
X29128346Y16511052D01*
X29091133Y16497290D01*
X29064468Y16477487D01*
X29043265Y16450600D01*
X29027466Y16421248D01*
X29022986Y16386491D01*
X29032948Y16337058D01*
X29037095Y16321173D01*
X29043337Y16281520D01*
X29034394Y16253167D01*
X29006714Y16220306D01*
X29000694Y16214070D01*
X28963456Y16179594D01*
X28933179Y16157361D01*
X28925885Y16154311D01*
X28898951Y16160354D01*
X28877417Y16190998D01*
X28862305Y16239363D01*
X28854633Y16298566D01*
X28855423Y16361728D01*
X28865694Y16421967D01*
X28886467Y16472402D01*
X28896167Y16488388D01*
X28910364Y16515302D01*
X28907113Y16525264D01*
X28886405Y16526711D01*
X28878970Y16527050D01*
X28862501Y16535112D01*
X28855005Y16560119D01*
X28853229Y16610264D01*
X28853229Y16693816D01*
X29672045Y16693816D01*
X29672045Y16526711D01*
G37*
X27997224Y14086688D02*
X28105462Y14084459D01*
X28188008Y14078869D01*
X28249587Y14068561D01*
X28294924Y14052183D01*
X28328745Y14028379D01*
X28355776Y13995796D01*
X28380740Y13953079D01*
X28412344Y13863377D01*
X28414406Y13769761D01*
X28385302Y13681496D01*
X28366436Y13642986D01*
X28363616Y13623880D01*
X28376947Y13619079D01*
X28391915Y13611109D01*
X28399800Y13582578D01*
X28402045Y13527172D01*
X28402045Y13435264D01*
X27599940Y13435264D01*
X27599940Y13619079D01*
X27860052Y13619079D01*
X27977069Y13620489D01*
X28071577Y13626007D01*
X28140270Y13637185D01*
X28186997Y13655572D01*
X28215608Y13682717D01*
X28229951Y13720168D01*
X28233877Y13769474D01*
X28230373Y13816552D01*
X28216658Y13854574D01*
X28188874Y13882210D01*
X28143170Y13901009D01*
X28075698Y13912519D01*
X27982608Y13918290D01*
X27860052Y13919869D01*
X27599940Y13919869D01*
X27599940Y14086974D01*
X27913523Y14086974D01*
X27997224Y14086688D01*
G36*
X27997224Y14086688D02*
G01*
X28105462Y14084459D01*
X28188008Y14078869D01*
X28249587Y14068561D01*
X28294924Y14052183D01*
X28328745Y14028379D01*
X28355776Y13995796D01*
X28380740Y13953079D01*
X28412344Y13863377D01*
X28414406Y13769761D01*
X28385302Y13681496D01*
X28366436Y13642986D01*
X28363616Y13623880D01*
X28376947Y13619079D01*
X28391915Y13611109D01*
X28399800Y13582578D01*
X28402045Y13527172D01*
X28402045Y13435264D01*
X27599940Y13435264D01*
X27599940Y13619079D01*
X27860052Y13619079D01*
X27977069Y13620489D01*
X28071577Y13626007D01*
X28140270Y13637185D01*
X28186997Y13655572D01*
X28215608Y13682717D01*
X28229951Y13720168D01*
X28233877Y13769474D01*
X28230373Y13816552D01*
X28216658Y13854574D01*
X28188874Y13882210D01*
X28143170Y13901009D01*
X28075698Y13912519D01*
X27982608Y13918290D01*
X27860052Y13919869D01*
X27599940Y13919869D01*
X27599940Y14086974D01*
X27913523Y14086974D01*
X27997224Y14086688D01*
G37*
X28402045Y16543422D02*
X28125562Y16543422D01*
X28032199Y16543296D01*
X27955507Y16542436D01*
X27901841Y16540137D01*
X27865731Y16535690D01*
X27841710Y16528390D01*
X27824310Y16517530D01*
X27808062Y16502405D01*
X27790780Y16481801D01*
X27767561Y16422555D01*
X27774376Y16360366D01*
X27811100Y16303398D01*
X27828192Y16287115D01*
X27845490Y16275426D01*
X27868509Y16267586D01*
X27902790Y16262827D01*
X27953872Y16260379D01*
X28027296Y16259473D01*
X28128600Y16259343D01*
X28402045Y16259343D01*
X28402045Y16075527D01*
X28105433Y16075894D01*
X28092221Y16075919D01*
X27966054Y16077513D01*
X27868047Y16082408D01*
X27793434Y16091864D01*
X27737450Y16107139D01*
X27695328Y16129490D01*
X27662303Y16160175D01*
X27633609Y16200454D01*
X27613745Y16242043D01*
X27595697Y16325800D01*
X27598359Y16412937D01*
X27622292Y16489112D01*
X27638559Y16522699D01*
X27640239Y16539592D01*
X27625435Y16543422D01*
X27624987Y16543425D01*
X27609870Y16551680D01*
X27602122Y16580149D01*
X27599940Y16635329D01*
X27599940Y16727237D01*
X28402045Y16727237D01*
X28402045Y16543422D01*
G36*
X28402045Y16543422D02*
G01*
X28125562Y16543422D01*
X28032199Y16543296D01*
X27955507Y16542436D01*
X27901841Y16540137D01*
X27865731Y16535690D01*
X27841710Y16528390D01*
X27824310Y16517530D01*
X27808062Y16502405D01*
X27790780Y16481801D01*
X27767561Y16422555D01*
X27774376Y16360366D01*
X27811100Y16303398D01*
X27828192Y16287115D01*
X27845490Y16275426D01*
X27868509Y16267586D01*
X27902790Y16262827D01*
X27953872Y16260379D01*
X28027296Y16259473D01*
X28128600Y16259343D01*
X28402045Y16259343D01*
X28402045Y16075527D01*
X28105433Y16075894D01*
X28092221Y16075919D01*
X27966054Y16077513D01*
X27868047Y16082408D01*
X27793434Y16091864D01*
X27737450Y16107139D01*
X27695328Y16129490D01*
X27662303Y16160175D01*
X27633609Y16200454D01*
X27613745Y16242043D01*
X27595697Y16325800D01*
X27598359Y16412937D01*
X27622292Y16489112D01*
X27638559Y16522699D01*
X27640239Y16539592D01*
X27625435Y16543422D01*
X27624987Y16543425D01*
X27609870Y16551680D01*
X27602122Y16580149D01*
X27599940Y16635329D01*
X27599940Y16727237D01*
X28402045Y16727237D01*
X28402045Y16543422D01*
G37*
X28062088Y12759234D02*
X28154007Y12746764D01*
X28226585Y12721843D01*
X28277169Y12691073D01*
X28348829Y12623344D01*
X28394381Y12538657D01*
X28412801Y12466202D01*
X28414812Y12355875D01*
X28387032Y12250302D01*
X28330661Y12156682D01*
X28280715Y12096088D01*
X28224406Y12150664D01*
X28191049Y12185144D01*
X28172477Y12216332D01*
X28176566Y12245250D01*
X28201519Y12282237D01*
X28211287Y12296985D01*
X28231281Y12359291D01*
X28231268Y12430903D01*
X28210662Y12497950D01*
X28194114Y12523196D01*
X28145249Y12560228D01*
X28073477Y12578792D01*
X27975655Y12579987D01*
X27975600Y12579983D01*
X27888081Y12566171D01*
X27827400Y12535744D01*
X27789864Y12485676D01*
X27771780Y12412941D01*
X27769348Y12367137D01*
X27779308Y12327116D01*
X27808161Y12286070D01*
X27852855Y12232954D01*
X27798798Y12165688D01*
X27778089Y12141113D01*
X27748418Y12110416D01*
X27730932Y12098422D01*
X27723052Y12102669D01*
X27698859Y12127135D01*
X27668090Y12166110D01*
X27648068Y12196605D01*
X27606938Y12293424D01*
X27592576Y12394457D01*
X27603766Y12493610D01*
X27639290Y12584791D01*
X27697932Y12661907D01*
X27778475Y12718864D01*
X27786688Y12722710D01*
X27866786Y12747130D01*
X27962467Y12759330D01*
X28062088Y12759234D01*
G36*
X28062088Y12759234D02*
G01*
X28154007Y12746764D01*
X28226585Y12721843D01*
X28277169Y12691073D01*
X28348829Y12623344D01*
X28394381Y12538657D01*
X28412801Y12466202D01*
X28414812Y12355875D01*
X28387032Y12250302D01*
X28330661Y12156682D01*
X28280715Y12096088D01*
X28224406Y12150664D01*
X28191049Y12185144D01*
X28172477Y12216332D01*
X28176566Y12245250D01*
X28201519Y12282237D01*
X28211287Y12296985D01*
X28231281Y12359291D01*
X28231268Y12430903D01*
X28210662Y12497950D01*
X28194114Y12523196D01*
X28145249Y12560228D01*
X28073477Y12578792D01*
X27975655Y12579987D01*
X27975600Y12579983D01*
X27888081Y12566171D01*
X27827400Y12535744D01*
X27789864Y12485676D01*
X27771780Y12412941D01*
X27769348Y12367137D01*
X27779308Y12327116D01*
X27808161Y12286070D01*
X27852855Y12232954D01*
X27798798Y12165688D01*
X27778089Y12141113D01*
X27748418Y12110416D01*
X27730932Y12098422D01*
X27723052Y12102669D01*
X27698859Y12127135D01*
X27668090Y12166110D01*
X27648068Y12196605D01*
X27606938Y12293424D01*
X27592576Y12394457D01*
X27603766Y12493610D01*
X27639290Y12584791D01*
X27697932Y12661907D01*
X27778475Y12718864D01*
X27786688Y12722710D01*
X27866786Y12747130D01*
X27962467Y12759330D01*
X28062088Y12759234D01*
G37*
X28111520Y14880320D02*
X28212484Y14859714D01*
X28289526Y14822857D01*
X28347720Y14766761D01*
X28392136Y14688434D01*
X28402707Y14658023D01*
X28415896Y14579263D01*
X28415537Y14496384D01*
X28401050Y14426450D01*
X28400524Y14425076D01*
X28367371Y14368718D01*
X28316049Y14311780D01*
X28257359Y14264535D01*
X28202103Y14237255D01*
X28161712Y14229169D01*
X28086088Y14222246D01*
X27999961Y14220763D01*
X27914238Y14224478D01*
X27839824Y14233145D01*
X27787625Y14246522D01*
X27728525Y14277679D01*
X27655859Y14343808D01*
X27609829Y14428331D01*
X27591609Y14528734D01*
X27593306Y14546663D01*
X27768662Y14546663D01*
X27781716Y14486689D01*
X27819470Y14436891D01*
X27879868Y14405345D01*
X27932021Y14394358D01*
X28018680Y14389442D01*
X28099533Y14399507D01*
X28165970Y14423151D01*
X28209381Y14458973D01*
X28216835Y14472551D01*
X28230383Y14524327D01*
X28233170Y14584213D01*
X28223756Y14634596D01*
X28210255Y14654260D01*
X28163042Y14681862D01*
X28089149Y14699230D01*
X27992182Y14705264D01*
X27964269Y14705167D01*
X27907709Y14703071D01*
X27870813Y14696100D01*
X27843550Y14681475D01*
X27815891Y14656418D01*
X27782368Y14608736D01*
X27768662Y14546663D01*
X27593306Y14546663D01*
X27602377Y14642505D01*
X27606964Y14661435D01*
X27646519Y14749595D01*
X27711460Y14816028D01*
X27801790Y14860735D01*
X27917513Y14883718D01*
X27992182Y14884387D01*
X28058635Y14884982D01*
X28111520Y14880320D01*
G36*
X28111520Y14880320D02*
G01*
X28212484Y14859714D01*
X28289526Y14822857D01*
X28347720Y14766761D01*
X28392136Y14688434D01*
X28402707Y14658023D01*
X28415896Y14579263D01*
X28415537Y14496384D01*
X28401050Y14426450D01*
X28400524Y14425076D01*
X28367371Y14368718D01*
X28316049Y14311780D01*
X28257359Y14264535D01*
X28202103Y14237255D01*
X28161712Y14229169D01*
X28086088Y14222246D01*
X27999961Y14220763D01*
X27914238Y14224478D01*
X27839824Y14233145D01*
X27787625Y14246522D01*
X27728525Y14277679D01*
X27655859Y14343808D01*
X27609829Y14428331D01*
X27591609Y14528734D01*
X27593306Y14546663D01*
X27768662Y14546663D01*
X27781716Y14486689D01*
X27819470Y14436891D01*
X27879868Y14405345D01*
X27932021Y14394358D01*
X28018680Y14389442D01*
X28099533Y14399507D01*
X28165970Y14423151D01*
X28209381Y14458973D01*
X28216835Y14472551D01*
X28230383Y14524327D01*
X28233170Y14584213D01*
X28223756Y14634596D01*
X28210255Y14654260D01*
X28163042Y14681862D01*
X28089149Y14699230D01*
X27992182Y14705264D01*
X27964269Y14705167D01*
X27907709Y14703071D01*
X27870813Y14696100D01*
X27843550Y14681475D01*
X27815891Y14656418D01*
X27782368Y14608736D01*
X27768662Y14546663D01*
X27593306Y14546663D01*
X27602377Y14642505D01*
X27606964Y14661435D01*
X27646519Y14749595D01*
X27711460Y14816028D01*
X27801790Y14860735D01*
X27917513Y14883718D01*
X27992182Y14884387D01*
X28058635Y14884982D01*
X28111520Y14880320D01*
G37*
X28885211Y15432562D02*
X28926253Y15419241D01*
X28991255Y15398384D01*
X29075567Y15371479D01*
X29174541Y15340012D01*
X29283525Y15305469D01*
X29672045Y15182505D01*
X29672045Y15028689D01*
X29425565Y14956213D01*
X29380304Y14942830D01*
X29298021Y14918096D01*
X29229459Y14896962D01*
X29180744Y14881329D01*
X29158002Y14873102D01*
X29156306Y14870758D01*
X29170975Y14859351D01*
X29209767Y14843065D01*
X29266621Y14824606D01*
X29269960Y14823631D01*
X29353866Y14798917D01*
X29448870Y14770641D01*
X29535047Y14744730D01*
X29673772Y14702714D01*
X29663690Y14547750D01*
X29438098Y14475987D01*
X29338973Y14444480D01*
X29227800Y14409187D01*
X29121223Y14375393D01*
X29032868Y14347418D01*
X28853229Y14290613D01*
X28853229Y14480656D01*
X29024512Y14526720D01*
X29069770Y14538965D01*
X29154144Y14562125D01*
X29230903Y14583572D01*
X29287703Y14599876D01*
X29379611Y14626969D01*
X29120598Y14713374D01*
X28861585Y14799780D01*
X28856623Y14865870D01*
X28851662Y14931959D01*
X29115626Y15018063D01*
X29183029Y15040655D01*
X29257646Y15067379D01*
X29314173Y15089696D01*
X29348005Y15105759D01*
X29354535Y15113724D01*
X29348856Y15115646D01*
X29314026Y15126049D01*
X29255854Y15142619D01*
X29180852Y15163516D01*
X29095532Y15186900D01*
X28861585Y15250518D01*
X28856509Y15347655D01*
X28856103Y15355854D01*
X28855565Y15408235D01*
X28860942Y15433406D01*
X28873220Y15436612D01*
X28885211Y15432562D01*
G36*
X28885211Y15432562D02*
G01*
X28926253Y15419241D01*
X28991255Y15398384D01*
X29075567Y15371479D01*
X29174541Y15340012D01*
X29283525Y15305469D01*
X29672045Y15182505D01*
X29672045Y15028689D01*
X29425565Y14956213D01*
X29380304Y14942830D01*
X29298021Y14918096D01*
X29229459Y14896962D01*
X29180744Y14881329D01*
X29158002Y14873102D01*
X29156306Y14870758D01*
X29170975Y14859351D01*
X29209767Y14843065D01*
X29266621Y14824606D01*
X29269960Y14823631D01*
X29353866Y14798917D01*
X29448870Y14770641D01*
X29535047Y14744730D01*
X29673772Y14702714D01*
X29663690Y14547750D01*
X29438098Y14475987D01*
X29338973Y14444480D01*
X29227800Y14409187D01*
X29121223Y14375393D01*
X29032868Y14347418D01*
X28853229Y14290613D01*
X28853229Y14480656D01*
X29024512Y14526720D01*
X29069770Y14538965D01*
X29154144Y14562125D01*
X29230903Y14583572D01*
X29287703Y14599876D01*
X29379611Y14626969D01*
X29120598Y14713374D01*
X28861585Y14799780D01*
X28856623Y14865870D01*
X28851662Y14931959D01*
X29115626Y15018063D01*
X29183029Y15040655D01*
X29257646Y15067379D01*
X29314173Y15089696D01*
X29348005Y15105759D01*
X29354535Y15113724D01*
X29348856Y15115646D01*
X29314026Y15126049D01*
X29255854Y15142619D01*
X29180852Y15163516D01*
X29095532Y15186900D01*
X28861585Y15250518D01*
X28856509Y15347655D01*
X28856103Y15355854D01*
X28855565Y15408235D01*
X28860942Y15433406D01*
X28873220Y15436612D01*
X28885211Y15432562D01*
G37*
X27999429Y19048329D02*
X28046887Y19047431D01*
X28099220Y19045273D01*
X28163038Y19040376D01*
X28208271Y19032033D01*
X28244112Y19018256D01*
X28279755Y18997057D01*
X28281106Y18996154D01*
X28338854Y18943953D01*
X28382899Y18880083D01*
X28409036Y18805813D01*
X28417522Y18708110D01*
X28400835Y18612350D01*
X28360625Y18526755D01*
X28298541Y18459545D01*
X28269207Y18440250D01*
X28178015Y18404216D01*
X28065503Y18386344D01*
X27937143Y18387723D01*
X27918937Y18389482D01*
X27802331Y18414024D01*
X27711809Y18459430D01*
X27647273Y18525795D01*
X27608623Y18613216D01*
X27595762Y18721791D01*
X27596438Y18744766D01*
X27771684Y18744766D01*
X27773379Y18680349D01*
X27807374Y18620637D01*
X27820316Y18606361D01*
X27842959Y18588347D01*
X27872583Y18577659D01*
X27918001Y18571729D01*
X27988025Y18567988D01*
X28037043Y18566249D01*
X28090269Y18566588D01*
X28125803Y18572231D01*
X28153108Y18585089D01*
X28181643Y18607072D01*
X28209959Y18637579D01*
X28235229Y18698592D01*
X28230535Y18764106D01*
X28195415Y18826719D01*
X28178641Y18844381D01*
X28149926Y18863239D01*
X28109565Y18873696D01*
X28046673Y18879624D01*
X27999429Y18881257D01*
X27902947Y18872311D01*
X27833871Y18844860D01*
X27791820Y18798781D01*
X27771684Y18744766D01*
X27596438Y18744766D01*
X27596969Y18762811D01*
X27611739Y18846934D01*
X27646993Y18915722D01*
X27707347Y18979854D01*
X27719461Y18990110D01*
X27760256Y19017774D01*
X27806449Y19035955D01*
X27864987Y19046036D01*
X27942818Y19049401D01*
X27999429Y19048329D01*
G36*
X27999429Y19048329D02*
G01*
X28046887Y19047431D01*
X28099220Y19045273D01*
X28163038Y19040376D01*
X28208271Y19032033D01*
X28244112Y19018256D01*
X28279755Y18997057D01*
X28281106Y18996154D01*
X28338854Y18943953D01*
X28382899Y18880083D01*
X28409036Y18805813D01*
X28417522Y18708110D01*
X28400835Y18612350D01*
X28360625Y18526755D01*
X28298541Y18459545D01*
X28269207Y18440250D01*
X28178015Y18404216D01*
X28065503Y18386344D01*
X27937143Y18387723D01*
X27918937Y18389482D01*
X27802331Y18414024D01*
X27711809Y18459430D01*
X27647273Y18525795D01*
X27608623Y18613216D01*
X27595762Y18721791D01*
X27596438Y18744766D01*
X27771684Y18744766D01*
X27773379Y18680349D01*
X27807374Y18620637D01*
X27820316Y18606361D01*
X27842959Y18588347D01*
X27872583Y18577659D01*
X27918001Y18571729D01*
X27988025Y18567988D01*
X28037043Y18566249D01*
X28090269Y18566588D01*
X28125803Y18572231D01*
X28153108Y18585089D01*
X28181643Y18607072D01*
X28209959Y18637579D01*
X28235229Y18698592D01*
X28230535Y18764106D01*
X28195415Y18826719D01*
X28178641Y18844381D01*
X28149926Y18863239D01*
X28109565Y18873696D01*
X28046673Y18879624D01*
X27999429Y18881257D01*
X27902947Y18872311D01*
X27833871Y18844860D01*
X27791820Y18798781D01*
X27771684Y18744766D01*
X27596438Y18744766D01*
X27596969Y18762811D01*
X27611739Y18846934D01*
X27646993Y18915722D01*
X27707347Y18979854D01*
X27719461Y18990110D01*
X27760256Y19017774D01*
X27806449Y19035955D01*
X27864987Y19046036D01*
X27942818Y19049401D01*
X27999429Y19048329D01*
G37*
X29396620Y16155868D02*
X29446385Y16151608D01*
X29450946Y16150878D01*
X29532523Y16122206D01*
X29601684Y16069846D01*
X29648540Y16001158D01*
X29667935Y15927396D01*
X29666430Y15836668D01*
X29640425Y15753205D01*
X29629451Y15731465D01*
X29617693Y15703510D01*
X29621351Y15692872D01*
X29640425Y15691185D01*
X29649937Y15690410D01*
X29664004Y15680407D01*
X29670481Y15652623D01*
X29672045Y15599277D01*
X29672045Y15507369D01*
X28535729Y15507369D01*
X28535729Y15691185D01*
X28925251Y15691185D01*
X28894439Y15725232D01*
X28875288Y15758014D01*
X28859279Y15820059D01*
X28856743Y15855722D01*
X29026820Y15855722D01*
X29030643Y15797600D01*
X29054321Y15745653D01*
X29097448Y15710063D01*
X29101075Y15708592D01*
X29141545Y15699767D01*
X29202018Y15693542D01*
X29270847Y15691185D01*
X29340351Y15692502D01*
X29386625Y15697848D01*
X29418326Y15709262D01*
X29444892Y15728783D01*
X29484392Y15780329D01*
X29497634Y15840650D01*
X29481259Y15899144D01*
X29435579Y15948410D01*
X29402153Y15961432D01*
X29342960Y15971051D01*
X29271145Y15975280D01*
X29197486Y15973948D01*
X29132758Y15966884D01*
X29087741Y15953917D01*
X29080359Y15949774D01*
X29043257Y15909840D01*
X29026820Y15855722D01*
X28856743Y15855722D01*
X28854121Y15892589D01*
X28860454Y15963419D01*
X28878919Y16020368D01*
X28905185Y16061128D01*
X28949931Y16103113D01*
X29010107Y16131370D01*
X29091507Y16148355D01*
X29199924Y16156528D01*
X29243749Y16157729D01*
X29271145Y16157816D01*
X29325178Y16157986D01*
X29396620Y16155868D01*
G36*
X29396620Y16155868D02*
G01*
X29446385Y16151608D01*
X29450946Y16150878D01*
X29532523Y16122206D01*
X29601684Y16069846D01*
X29648540Y16001158D01*
X29667935Y15927396D01*
X29666430Y15836668D01*
X29640425Y15753205D01*
X29629451Y15731465D01*
X29617693Y15703510D01*
X29621351Y15692872D01*
X29640425Y15691185D01*
X29649937Y15690410D01*
X29664004Y15680407D01*
X29670481Y15652623D01*
X29672045Y15599277D01*
X29672045Y15507369D01*
X28535729Y15507369D01*
X28535729Y15691185D01*
X28925251Y15691185D01*
X28894439Y15725232D01*
X28875288Y15758014D01*
X28859279Y15820059D01*
X28856743Y15855722D01*
X29026820Y15855722D01*
X29030643Y15797600D01*
X29054321Y15745653D01*
X29097448Y15710063D01*
X29101075Y15708592D01*
X29141545Y15699767D01*
X29202018Y15693542D01*
X29270847Y15691185D01*
X29340351Y15692502D01*
X29386625Y15697848D01*
X29418326Y15709262D01*
X29444892Y15728783D01*
X29484392Y15780329D01*
X29497634Y15840650D01*
X29481259Y15899144D01*
X29435579Y15948410D01*
X29402153Y15961432D01*
X29342960Y15971051D01*
X29271145Y15975280D01*
X29197486Y15973948D01*
X29132758Y15966884D01*
X29087741Y15953917D01*
X29080359Y15949774D01*
X29043257Y15909840D01*
X29026820Y15855722D01*
X28856743Y15855722D01*
X28854121Y15892589D01*
X28860454Y15963419D01*
X28878919Y16020368D01*
X28905185Y16061128D01*
X28949931Y16103113D01*
X29010107Y16131370D01*
X29091507Y16148355D01*
X29199924Y16156528D01*
X29243749Y16157729D01*
X29271145Y16157816D01*
X29325178Y16157986D01*
X29396620Y16155868D01*
G37*
X28075048Y12074216D02*
X28077563Y12073936D01*
X28194924Y12049909D01*
X28286171Y12006499D01*
X28353310Y11942353D01*
X28398343Y11856119D01*
X28403493Y11840289D01*
X28418670Y11742173D01*
X28410207Y11640698D01*
X28379964Y11546359D01*
X28329804Y11469649D01*
X28276716Y11412190D01*
X28228423Y11473266D01*
X28180130Y11534341D01*
X28215890Y11607947D01*
X28244866Y11693115D01*
X28245734Y11768301D01*
X28219111Y11829816D01*
X28165674Y11874083D01*
X28133655Y11889952D01*
X28106290Y11898811D01*
X28087804Y11893685D01*
X28076457Y11870687D01*
X28070506Y11825931D01*
X28068212Y11755529D01*
X28067835Y11655593D01*
X28067835Y11413290D01*
X27951949Y11413290D01*
X27890657Y11415471D01*
X27830015Y11421876D01*
X27789021Y11431025D01*
X27773371Y11437695D01*
X27703668Y11486243D01*
X27645532Y11556391D01*
X27607468Y11638426D01*
X27597073Y11681216D01*
X27595832Y11707951D01*
X27759624Y11707951D01*
X27779334Y11666458D01*
X27824187Y11619440D01*
X27879841Y11589545D01*
X27885764Y11587794D01*
X27901074Y11585706D01*
X27910431Y11593900D01*
X27915302Y11618160D01*
X27917149Y11664272D01*
X27917440Y11738019D01*
X27916976Y11777566D01*
X27913907Y11839971D01*
X27908532Y11882303D01*
X27901516Y11897895D01*
X27875627Y11893906D01*
X27826089Y11865788D01*
X27785394Y11818932D01*
X27760814Y11763074D01*
X27759624Y11707951D01*
X27595832Y11707951D01*
X27592341Y11783170D01*
X27616412Y11874015D01*
X27666607Y11951253D01*
X27740246Y12012389D01*
X27834652Y12054926D01*
X27901516Y12067671D01*
X27947146Y12076367D01*
X28075048Y12074216D01*
G36*
X28075048Y12074216D02*
G01*
X28077563Y12073936D01*
X28194924Y12049909D01*
X28286171Y12006499D01*
X28353310Y11942353D01*
X28398343Y11856119D01*
X28403493Y11840289D01*
X28418670Y11742173D01*
X28410207Y11640698D01*
X28379964Y11546359D01*
X28329804Y11469649D01*
X28276716Y11412190D01*
X28228423Y11473266D01*
X28180130Y11534341D01*
X28215890Y11607947D01*
X28244866Y11693115D01*
X28245734Y11768301D01*
X28219111Y11829816D01*
X28165674Y11874083D01*
X28133655Y11889952D01*
X28106290Y11898811D01*
X28087804Y11893685D01*
X28076457Y11870687D01*
X28070506Y11825931D01*
X28068212Y11755529D01*
X28067835Y11655593D01*
X28067835Y11413290D01*
X27951949Y11413290D01*
X27890657Y11415471D01*
X27830015Y11421876D01*
X27789021Y11431025D01*
X27773371Y11437695D01*
X27703668Y11486243D01*
X27645532Y11556391D01*
X27607468Y11638426D01*
X27597073Y11681216D01*
X27595832Y11707951D01*
X27759624Y11707951D01*
X27779334Y11666458D01*
X27824187Y11619440D01*
X27879841Y11589545D01*
X27885764Y11587794D01*
X27901074Y11585706D01*
X27910431Y11593900D01*
X27915302Y11618160D01*
X27917149Y11664272D01*
X27917440Y11738019D01*
X27916976Y11777566D01*
X27913907Y11839971D01*
X27908532Y11882303D01*
X27901516Y11897895D01*
X27875627Y11893906D01*
X27826089Y11865788D01*
X27785394Y11818932D01*
X27760814Y11763074D01*
X27759624Y11707951D01*
X27595832Y11707951D01*
X27592341Y11783170D01*
X27616412Y11874015D01*
X27666607Y11951253D01*
X27740246Y12012389D01*
X27834652Y12054926D01*
X27901516Y12067671D01*
X27947146Y12076367D01*
X28075048Y12074216D01*
G37*
X28311274Y15615987D02*
X28325492Y15596494D01*
X28357794Y15541650D01*
X28385628Y15482303D01*
X28401602Y15435335D01*
X28413173Y15366562D01*
X28413326Y15281777D01*
X28400586Y15177806D01*
X28368296Y15084145D01*
X28317005Y15017849D01*
X28246584Y14978760D01*
X28156906Y14966722D01*
X28078016Y14975436D01*
X28013426Y15003408D01*
X27967170Y15053768D01*
X27936407Y15129703D01*
X27918297Y15234400D01*
X27916986Y15246425D01*
X27908625Y15311611D01*
X27899876Y15364490D01*
X27892432Y15394573D01*
X27886439Y15404612D01*
X27855532Y15421584D01*
X27815969Y15418828D01*
X27781624Y15396146D01*
X27774134Y15384236D01*
X27762132Y15334606D01*
X27762939Y15270500D01*
X27775711Y15203653D01*
X27799605Y15145799D01*
X27835473Y15085008D01*
X27780371Y15037854D01*
X27766372Y15026412D01*
X27728872Y15000634D01*
X27703456Y14990022D01*
X27687872Y15001166D01*
X27663545Y15035644D01*
X27637367Y15085428D01*
X27634167Y15092443D01*
X27609067Y15158092D01*
X27597066Y15221372D01*
X27594656Y15299900D01*
X27599398Y15371399D01*
X27623587Y15467909D01*
X27668421Y15538411D01*
X27734200Y15583307D01*
X27821226Y15602999D01*
X27904542Y15599012D01*
X27974816Y15570235D01*
X28026773Y15515048D01*
X28061429Y15432348D01*
X28079798Y15321026D01*
X28089425Y15248692D01*
X28110256Y15182670D01*
X28140423Y15148583D01*
X28179871Y15146526D01*
X28204468Y15160243D01*
X28233620Y15202726D01*
X28247408Y15263117D01*
X28245523Y15333889D01*
X28227652Y15407512D01*
X28193486Y15476457D01*
X28147996Y15545197D01*
X28270354Y15666119D01*
X28311274Y15615987D01*
G36*
X28311274Y15615987D02*
G01*
X28325492Y15596494D01*
X28357794Y15541650D01*
X28385628Y15482303D01*
X28401602Y15435335D01*
X28413173Y15366562D01*
X28413326Y15281777D01*
X28400586Y15177806D01*
X28368296Y15084145D01*
X28317005Y15017849D01*
X28246584Y14978760D01*
X28156906Y14966722D01*
X28078016Y14975436D01*
X28013426Y15003408D01*
X27967170Y15053768D01*
X27936407Y15129703D01*
X27918297Y15234400D01*
X27916986Y15246425D01*
X27908625Y15311611D01*
X27899876Y15364490D01*
X27892432Y15394573D01*
X27886439Y15404612D01*
X27855532Y15421584D01*
X27815969Y15418828D01*
X27781624Y15396146D01*
X27774134Y15384236D01*
X27762132Y15334606D01*
X27762939Y15270500D01*
X27775711Y15203653D01*
X27799605Y15145799D01*
X27835473Y15085008D01*
X27780371Y15037854D01*
X27766372Y15026412D01*
X27728872Y15000634D01*
X27703456Y14990022D01*
X27687872Y15001166D01*
X27663545Y15035644D01*
X27637367Y15085428D01*
X27634167Y15092443D01*
X27609067Y15158092D01*
X27597066Y15221372D01*
X27594656Y15299900D01*
X27599398Y15371399D01*
X27623587Y15467909D01*
X27668421Y15538411D01*
X27734200Y15583307D01*
X27821226Y15602999D01*
X27904542Y15599012D01*
X27974816Y15570235D01*
X28026773Y15515048D01*
X28061429Y15432348D01*
X28079798Y15321026D01*
X28089425Y15248692D01*
X28110256Y15182670D01*
X28140423Y15148583D01*
X28179871Y15146526D01*
X28204468Y15160243D01*
X28233620Y15202726D01*
X28247408Y15263117D01*
X28245523Y15333889D01*
X28227652Y15407512D01*
X28193486Y15476457D01*
X28147996Y15545197D01*
X28270354Y15666119D01*
X28311274Y15615987D01*
G37*
X29325017Y12931245D02*
X29444313Y12911455D01*
X29538117Y12870734D01*
X29607100Y12808724D01*
X29651931Y12725066D01*
X29659851Y12698037D01*
X29670914Y12601524D01*
X29661578Y12499615D01*
X29632765Y12407566D01*
X29616411Y12375138D01*
X29588397Y12328643D01*
X29565346Y12300465D01*
X29560079Y12296305D01*
X29540818Y12288522D01*
X29519880Y12299736D01*
X29488169Y12333886D01*
X29474364Y12350367D01*
X29449102Y12382832D01*
X29438777Y12399855D01*
X29439840Y12404732D01*
X29451338Y12432681D01*
X29471519Y12474408D01*
X29478157Y12488013D01*
X29502808Y12568271D01*
X29496454Y12637997D01*
X29458986Y12699140D01*
X29452063Y12706255D01*
X29408697Y12740268D01*
X29367078Y12759702D01*
X29321124Y12770466D01*
X29321124Y12265527D01*
X29233394Y12265620D01*
X29224669Y12265673D01*
X29116735Y12276127D01*
X29028932Y12306555D01*
X28953242Y12359649D01*
X28921224Y12392038D01*
X28878364Y12458932D01*
X28857597Y12538807D01*
X28856789Y12594651D01*
X29016807Y12594651D01*
X29030761Y12547185D01*
X29064872Y12499738D01*
X29109315Y12463669D01*
X29154282Y12449343D01*
X29168880Y12451431D01*
X29178941Y12462152D01*
X29184525Y12487707D01*
X29186927Y12534289D01*
X29187440Y12608093D01*
X29186908Y12649124D01*
X29183799Y12709688D01*
X29178531Y12751345D01*
X29171817Y12766843D01*
X29116552Y12753626D01*
X29064971Y12714930D01*
X29029185Y12659121D01*
X29016807Y12594651D01*
X28856789Y12594651D01*
X28856137Y12639700D01*
X28861862Y12688435D01*
X28891590Y12778396D01*
X28945697Y12847271D01*
X29025017Y12895664D01*
X29130385Y12924179D01*
X29171817Y12927074D01*
X29262637Y12933418D01*
X29325017Y12931245D01*
G36*
X29325017Y12931245D02*
G01*
X29444313Y12911455D01*
X29538117Y12870734D01*
X29607100Y12808724D01*
X29651931Y12725066D01*
X29659851Y12698037D01*
X29670914Y12601524D01*
X29661578Y12499615D01*
X29632765Y12407566D01*
X29616411Y12375138D01*
X29588397Y12328643D01*
X29565346Y12300465D01*
X29560079Y12296305D01*
X29540818Y12288522D01*
X29519880Y12299736D01*
X29488169Y12333886D01*
X29474364Y12350367D01*
X29449102Y12382832D01*
X29438777Y12399855D01*
X29439840Y12404732D01*
X29451338Y12432681D01*
X29471519Y12474408D01*
X29478157Y12488013D01*
X29502808Y12568271D01*
X29496454Y12637997D01*
X29458986Y12699140D01*
X29452063Y12706255D01*
X29408697Y12740268D01*
X29367078Y12759702D01*
X29321124Y12770466D01*
X29321124Y12265527D01*
X29233394Y12265620D01*
X29224669Y12265673D01*
X29116735Y12276127D01*
X29028932Y12306555D01*
X28953242Y12359649D01*
X28921224Y12392038D01*
X28878364Y12458932D01*
X28857597Y12538807D01*
X28856789Y12594651D01*
X29016807Y12594651D01*
X29030761Y12547185D01*
X29064872Y12499738D01*
X29109315Y12463669D01*
X29154282Y12449343D01*
X29168880Y12451431D01*
X29178941Y12462152D01*
X29184525Y12487707D01*
X29186927Y12534289D01*
X29187440Y12608093D01*
X29186908Y12649124D01*
X29183799Y12709688D01*
X29178531Y12751345D01*
X29171817Y12766843D01*
X29116552Y12753626D01*
X29064971Y12714930D01*
X29029185Y12659121D01*
X29016807Y12594651D01*
X28856789Y12594651D01*
X28856137Y12639700D01*
X28861862Y12688435D01*
X28891590Y12778396D01*
X28945697Y12847271D01*
X29025017Y12895664D01*
X29130385Y12924179D01*
X29171817Y12927074D01*
X29262637Y12933418D01*
X29325017Y12931245D01*
G37*
X28068735Y17512928D02*
X28180362Y17496454D01*
X28268375Y17460151D01*
X28336403Y17402120D01*
X28388070Y17320461D01*
X28412189Y17241246D01*
X28416804Y17141871D01*
X28399056Y17041607D01*
X28359846Y16952172D01*
X28338034Y16919030D01*
X28310075Y16882515D01*
X28291677Y16865853D01*
X28284086Y16866798D01*
X28258222Y16885448D01*
X28226886Y16920498D01*
X28180555Y16981241D01*
X28216103Y17052418D01*
X28224902Y17071665D01*
X28244025Y17128323D01*
X28251650Y17175811D01*
X28245367Y17210828D01*
X28215110Y17265778D01*
X28168139Y17311967D01*
X28113789Y17338387D01*
X28067835Y17349150D01*
X28067835Y16844211D01*
X27980104Y16844304D01*
X27952300Y16845069D01*
X27884968Y16851366D01*
X27829253Y16861926D01*
X27798062Y16873501D01*
X27730219Y16914195D01*
X27668605Y16968695D01*
X27626385Y17026330D01*
X27618546Y17042982D01*
X27592540Y17139945D01*
X27593790Y17185115D01*
X27760361Y17185115D01*
X27761599Y17161591D01*
X27776415Y17117928D01*
X27814098Y17076041D01*
X27827422Y17064758D01*
X27865475Y17038513D01*
X27892638Y17028027D01*
X27896056Y17028352D01*
X27906700Y17037540D01*
X27913239Y17063504D01*
X27916533Y17111779D01*
X27917440Y17187903D01*
X27917429Y17212923D01*
X27916829Y17277902D01*
X27914234Y17316964D01*
X27908181Y17335903D01*
X27897205Y17340511D01*
X27879841Y17336581D01*
X27877872Y17335981D01*
X27817449Y17302127D01*
X27775848Y17248757D01*
X27760361Y17185115D01*
X27593790Y17185115D01*
X27595281Y17238960D01*
X27625611Y17332052D01*
X27682367Y17411244D01*
X27734709Y17454078D01*
X27808447Y17489101D01*
X27897205Y17507825D01*
X27900610Y17508543D01*
X28017657Y17514389D01*
X28068735Y17512928D01*
G36*
X28068735Y17512928D02*
G01*
X28180362Y17496454D01*
X28268375Y17460151D01*
X28336403Y17402120D01*
X28388070Y17320461D01*
X28412189Y17241246D01*
X28416804Y17141871D01*
X28399056Y17041607D01*
X28359846Y16952172D01*
X28338034Y16919030D01*
X28310075Y16882515D01*
X28291677Y16865853D01*
X28284086Y16866798D01*
X28258222Y16885448D01*
X28226886Y16920498D01*
X28180555Y16981241D01*
X28216103Y17052418D01*
X28224902Y17071665D01*
X28244025Y17128323D01*
X28251650Y17175811D01*
X28245367Y17210828D01*
X28215110Y17265778D01*
X28168139Y17311967D01*
X28113789Y17338387D01*
X28067835Y17349150D01*
X28067835Y16844211D01*
X27980104Y16844304D01*
X27952300Y16845069D01*
X27884968Y16851366D01*
X27829253Y16861926D01*
X27798062Y16873501D01*
X27730219Y16914195D01*
X27668605Y16968695D01*
X27626385Y17026330D01*
X27618546Y17042982D01*
X27592540Y17139945D01*
X27593790Y17185115D01*
X27760361Y17185115D01*
X27761599Y17161591D01*
X27776415Y17117928D01*
X27814098Y17076041D01*
X27827422Y17064758D01*
X27865475Y17038513D01*
X27892638Y17028027D01*
X27896056Y17028352D01*
X27906700Y17037540D01*
X27913239Y17063504D01*
X27916533Y17111779D01*
X27917440Y17187903D01*
X27917429Y17212923D01*
X27916829Y17277902D01*
X27914234Y17316964D01*
X27908181Y17335903D01*
X27897205Y17340511D01*
X27879841Y17336581D01*
X27877872Y17335981D01*
X27817449Y17302127D01*
X27775848Y17248757D01*
X27760361Y17185115D01*
X27593790Y17185115D01*
X27595281Y17238960D01*
X27625611Y17332052D01*
X27682367Y17411244D01*
X27734709Y17454078D01*
X27808447Y17489101D01*
X27897205Y17507825D01*
X27900610Y17508543D01*
X28017657Y17514389D01*
X28068735Y17512928D01*
G37*
X29527983Y14275509D02*
X29592884Y14231698D01*
X29639570Y14165241D01*
X29642408Y14158719D01*
X29662849Y14086005D01*
X29670818Y14004071D01*
X29665946Y13926172D01*
X29647867Y13865560D01*
X29636073Y13841348D01*
X29633260Y13823580D01*
X29647970Y13819606D01*
X29661574Y13812078D01*
X29669675Y13782953D01*
X29672045Y13726420D01*
X29672045Y13633235D01*
X29350368Y13638690D01*
X29275981Y13640172D01*
X29164618Y13644076D01*
X29079465Y13650657D01*
X29015879Y13661214D01*
X28969218Y13677048D01*
X28934840Y13699459D01*
X28908102Y13729747D01*
X28884363Y13769213D01*
X28875299Y13789573D01*
X28858192Y13860008D01*
X28851119Y13944959D01*
X28853951Y14032788D01*
X28866560Y14111857D01*
X28888816Y14170527D01*
X28901738Y14190935D01*
X28940038Y14237921D01*
X28972108Y14253824D01*
X28978305Y14249962D01*
X28999951Y14225894D01*
X29028827Y14187039D01*
X29042343Y14167174D01*
X29061493Y14133346D01*
X29063322Y14111363D01*
X29050104Y14090953D01*
X29023335Y14040086D01*
X29012327Y13971640D01*
X29020755Y13901694D01*
X29021137Y13900370D01*
X29042571Y13851036D01*
X29076122Y13826616D01*
X29131610Y13819862D01*
X29184398Y13819606D01*
X29187060Y13901070D01*
X29321124Y13901070D01*
X29321124Y13819606D01*
X29379611Y13819606D01*
X29423325Y13825900D01*
X29471519Y13853027D01*
X29480377Y13863040D01*
X29499013Y13904081D01*
X29503809Y13965823D01*
X29501936Y14002871D01*
X29487828Y14072195D01*
X29461543Y14115163D01*
X29424863Y14129655D01*
X29379571Y14113551D01*
X29367719Y14104154D01*
X29341132Y14062187D01*
X29325951Y13995766D01*
X29321124Y13901070D01*
X29187060Y13901070D01*
X29190096Y13994010D01*
X29191034Y14021796D01*
X29194294Y14091848D01*
X29199416Y14138809D01*
X29208317Y14170552D01*
X29222916Y14194948D01*
X29245131Y14219869D01*
X29296514Y14261015D01*
X29372545Y14291171D01*
X29424863Y14294128D01*
X29452119Y14295668D01*
X29527983Y14275509D01*
G36*
X29527983Y14275509D02*
G01*
X29592884Y14231698D01*
X29639570Y14165241D01*
X29642408Y14158719D01*
X29662849Y14086005D01*
X29670818Y14004071D01*
X29665946Y13926172D01*
X29647867Y13865560D01*
X29636073Y13841348D01*
X29633260Y13823580D01*
X29647970Y13819606D01*
X29661574Y13812078D01*
X29669675Y13782953D01*
X29672045Y13726420D01*
X29672045Y13633235D01*
X29350368Y13638690D01*
X29275981Y13640172D01*
X29164618Y13644076D01*
X29079465Y13650657D01*
X29015879Y13661214D01*
X28969218Y13677048D01*
X28934840Y13699459D01*
X28908102Y13729747D01*
X28884363Y13769213D01*
X28875299Y13789573D01*
X28858192Y13860008D01*
X28851119Y13944959D01*
X28853951Y14032788D01*
X28866560Y14111857D01*
X28888816Y14170527D01*
X28901738Y14190935D01*
X28940038Y14237921D01*
X28972108Y14253824D01*
X28978305Y14249962D01*
X28999951Y14225894D01*
X29028827Y14187039D01*
X29042343Y14167174D01*
X29061493Y14133346D01*
X29063322Y14111363D01*
X29050104Y14090953D01*
X29023335Y14040086D01*
X29012327Y13971640D01*
X29020755Y13901694D01*
X29021137Y13900370D01*
X29042571Y13851036D01*
X29076122Y13826616D01*
X29131610Y13819862D01*
X29184398Y13819606D01*
X29187060Y13901070D01*
X29321124Y13901070D01*
X29321124Y13819606D01*
X29379611Y13819606D01*
X29423325Y13825900D01*
X29471519Y13853027D01*
X29480377Y13863040D01*
X29499013Y13904081D01*
X29503809Y13965823D01*
X29501936Y14002871D01*
X29487828Y14072195D01*
X29461543Y14115163D01*
X29424863Y14129655D01*
X29379571Y14113551D01*
X29367719Y14104154D01*
X29341132Y14062187D01*
X29325951Y13995766D01*
X29321124Y13901070D01*
X29187060Y13901070D01*
X29190096Y13994010D01*
X29191034Y14021796D01*
X29194294Y14091848D01*
X29199416Y14138809D01*
X29208317Y14170552D01*
X29222916Y14194948D01*
X29245131Y14219869D01*
X29296514Y14261015D01*
X29372545Y14291171D01*
X29424863Y14294128D01*
X29452119Y14295668D01*
X29527983Y14275509D01*
G37*
X29451519Y17508722D02*
X29537365Y17488360D01*
X29601931Y17443067D01*
X29648456Y17370593D01*
X29659775Y17333140D01*
X29668597Y17268990D01*
X29670704Y17198840D01*
X29665849Y17135548D01*
X29653787Y17091976D01*
X29644125Y17065512D01*
X29653787Y17039601D01*
X29659385Y17030123D01*
X29668462Y16992294D01*
X29672045Y16941132D01*
X29672045Y16860922D01*
X29348661Y16860922D01*
X29320695Y16860928D01*
X29215286Y16861232D01*
X29136920Y16862376D01*
X29080390Y16864877D01*
X29040489Y16869256D01*
X29012011Y16876032D01*
X28989749Y16885725D01*
X28968497Y16898853D01*
X28918699Y16941084D01*
X28880679Y17000930D01*
X28859703Y17079543D01*
X28853255Y17183136D01*
X28853262Y17186503D01*
X28856514Y17258513D01*
X28864622Y17322966D01*
X28875989Y17366952D01*
X28881685Y17379010D01*
X28905808Y17417391D01*
X28934479Y17452124D01*
X28960279Y17474977D01*
X28975792Y17477716D01*
X28979984Y17472370D01*
X29024737Y17414127D01*
X29051132Y17375181D01*
X29061781Y17349431D01*
X29059299Y17330772D01*
X29046301Y17313101D01*
X29030075Y17280490D01*
X29019256Y17225533D01*
X29016450Y17163420D01*
X29022161Y17107217D01*
X29036895Y17069984D01*
X29038688Y17068025D01*
X29072369Y17051294D01*
X29122644Y17044737D01*
X29187440Y17044737D01*
X29187477Y17137182D01*
X29321124Y17137182D01*
X29321124Y17044737D01*
X29385376Y17044737D01*
X29434272Y17050915D01*
X29477284Y17075297D01*
X29486593Y17089249D01*
X29501102Y17139051D01*
X29504724Y17201225D01*
X29497364Y17262196D01*
X29478927Y17308388D01*
X29454549Y17331399D01*
X29411232Y17345527D01*
X29376895Y17332998D01*
X29347039Y17291582D01*
X29327885Y17225005D01*
X29321124Y17137182D01*
X29187477Y17137182D01*
X29187502Y17199310D01*
X29188626Y17270314D01*
X29193515Y17330082D01*
X29203574Y17372837D01*
X29220184Y17407380D01*
X29225286Y17415419D01*
X29281366Y17473576D01*
X29355523Y17504510D01*
X29411232Y17507125D01*
X29449315Y17508912D01*
X29451519Y17508722D01*
G36*
X29451519Y17508722D02*
G01*
X29537365Y17488360D01*
X29601931Y17443067D01*
X29648456Y17370593D01*
X29659775Y17333140D01*
X29668597Y17268990D01*
X29670704Y17198840D01*
X29665849Y17135548D01*
X29653787Y17091976D01*
X29644125Y17065512D01*
X29653787Y17039601D01*
X29659385Y17030123D01*
X29668462Y16992294D01*
X29672045Y16941132D01*
X29672045Y16860922D01*
X29348661Y16860922D01*
X29320695Y16860928D01*
X29215286Y16861232D01*
X29136920Y16862376D01*
X29080390Y16864877D01*
X29040489Y16869256D01*
X29012011Y16876032D01*
X28989749Y16885725D01*
X28968497Y16898853D01*
X28918699Y16941084D01*
X28880679Y17000930D01*
X28859703Y17079543D01*
X28853255Y17183136D01*
X28853262Y17186503D01*
X28856514Y17258513D01*
X28864622Y17322966D01*
X28875989Y17366952D01*
X28881685Y17379010D01*
X28905808Y17417391D01*
X28934479Y17452124D01*
X28960279Y17474977D01*
X28975792Y17477716D01*
X28979984Y17472370D01*
X29024737Y17414127D01*
X29051132Y17375181D01*
X29061781Y17349431D01*
X29059299Y17330772D01*
X29046301Y17313101D01*
X29030075Y17280490D01*
X29019256Y17225533D01*
X29016450Y17163420D01*
X29022161Y17107217D01*
X29036895Y17069984D01*
X29038688Y17068025D01*
X29072369Y17051294D01*
X29122644Y17044737D01*
X29187440Y17044737D01*
X29187477Y17137182D01*
X29321124Y17137182D01*
X29321124Y17044737D01*
X29385376Y17044737D01*
X29434272Y17050915D01*
X29477284Y17075297D01*
X29486593Y17089249D01*
X29501102Y17139051D01*
X29504724Y17201225D01*
X29497364Y17262196D01*
X29478927Y17308388D01*
X29454549Y17331399D01*
X29411232Y17345527D01*
X29376895Y17332998D01*
X29347039Y17291582D01*
X29327885Y17225005D01*
X29321124Y17137182D01*
X29187477Y17137182D01*
X29187502Y17199310D01*
X29188626Y17270314D01*
X29193515Y17330082D01*
X29203574Y17372837D01*
X29220184Y17407380D01*
X29225286Y17415419D01*
X29281366Y17473576D01*
X29355523Y17504510D01*
X29411232Y17507125D01*
X29449315Y17508912D01*
X29451519Y17508722D01*
G37*
X28014620Y18264606D02*
X29673792Y18264606D01*
X29668741Y18176875D01*
X29663690Y18089145D01*
X29396321Y18084974D01*
X29331307Y18083740D01*
X29233630Y18080237D01*
X29161953Y18074224D01*
X29111459Y18064597D01*
X29077329Y18050249D01*
X29054746Y18030075D01*
X29038891Y18002970D01*
X29022699Y17952112D01*
X29028991Y17901534D01*
X29063596Y17848125D01*
X29106858Y17796711D01*
X29672045Y17796711D01*
X29672045Y17612895D01*
X29365529Y17612895D01*
X29269454Y17613072D01*
X29184081Y17614049D01*
X29121590Y17616399D01*
X29076313Y17620691D01*
X29042587Y17627495D01*
X29014746Y17637378D01*
X28987124Y17650910D01*
X28981260Y17654119D01*
X28924146Y17696792D01*
X28884233Y17746735D01*
X28863275Y17806948D01*
X28853946Y17886680D01*
X28858999Y17966527D01*
X28878724Y18031488D01*
X28904219Y18080790D01*
X28352450Y18080790D01*
X28387661Y18013237D01*
X28400453Y17985019D01*
X28418542Y17895950D01*
X28406040Y17807434D01*
X28364471Y17725381D01*
X28295362Y17655704D01*
X28279119Y17644789D01*
X28255309Y17634298D01*
X28222937Y17627455D01*
X28175790Y17623504D01*
X28107654Y17621688D01*
X28012316Y17621250D01*
X27968815Y17621400D01*
X27867630Y17623962D01*
X27792041Y17631097D01*
X27736336Y17644606D01*
X27694802Y17666294D01*
X27661725Y17697960D01*
X27631393Y17741408D01*
X27613987Y17776640D01*
X27594790Y17860173D01*
X27597406Y17948222D01*
X27603310Y17966789D01*
X27768341Y17966789D01*
X27772600Y17900513D01*
X27798971Y17844516D01*
X27811064Y17831114D01*
X27831986Y17816913D01*
X27863130Y17808133D01*
X27912229Y17802919D01*
X27987017Y17799416D01*
X28036661Y17797891D01*
X28095950Y17798040D01*
X28135488Y17802573D01*
X28163708Y17812760D01*
X28189038Y17829872D01*
X28212588Y17851610D01*
X28230411Y17886372D01*
X28234940Y17938750D01*
X28230999Y17985020D01*
X28211278Y18030817D01*
X28171328Y18060312D01*
X28107119Y18076104D01*
X28014620Y18080790D01*
X27965413Y18079578D01*
X27872525Y18067481D01*
X27809715Y18042523D01*
X27777425Y18004844D01*
X27768341Y17966789D01*
X27603310Y17966789D01*
X27622291Y18026481D01*
X27638558Y18060067D01*
X27640239Y18076960D01*
X27625435Y18080790D01*
X27624987Y18080794D01*
X27609870Y18089048D01*
X27602122Y18117517D01*
X27599940Y18172698D01*
X27599940Y18264606D01*
X28014620Y18264606D01*
G36*
X28014620Y18264606D02*
G01*
X29673792Y18264606D01*
X29668741Y18176875D01*
X29663690Y18089145D01*
X29396321Y18084974D01*
X29331307Y18083740D01*
X29233630Y18080237D01*
X29161953Y18074224D01*
X29111459Y18064597D01*
X29077329Y18050249D01*
X29054746Y18030075D01*
X29038891Y18002970D01*
X29022699Y17952112D01*
X29028991Y17901534D01*
X29063596Y17848125D01*
X29106858Y17796711D01*
X29672045Y17796711D01*
X29672045Y17612895D01*
X29365529Y17612895D01*
X29269454Y17613072D01*
X29184081Y17614049D01*
X29121590Y17616399D01*
X29076313Y17620691D01*
X29042587Y17627495D01*
X29014746Y17637378D01*
X28987124Y17650910D01*
X28981260Y17654119D01*
X28924146Y17696792D01*
X28884233Y17746735D01*
X28863275Y17806948D01*
X28853946Y17886680D01*
X28858999Y17966527D01*
X28878724Y18031488D01*
X28904219Y18080790D01*
X28352450Y18080790D01*
X28387661Y18013237D01*
X28400453Y17985019D01*
X28418542Y17895950D01*
X28406040Y17807434D01*
X28364471Y17725381D01*
X28295362Y17655704D01*
X28279119Y17644789D01*
X28255309Y17634298D01*
X28222937Y17627455D01*
X28175790Y17623504D01*
X28107654Y17621688D01*
X28012316Y17621250D01*
X27968815Y17621400D01*
X27867630Y17623962D01*
X27792041Y17631097D01*
X27736336Y17644606D01*
X27694802Y17666294D01*
X27661725Y17697960D01*
X27631393Y17741408D01*
X27613987Y17776640D01*
X27594790Y17860173D01*
X27597406Y17948222D01*
X27603310Y17966789D01*
X27768341Y17966789D01*
X27772600Y17900513D01*
X27798971Y17844516D01*
X27811064Y17831114D01*
X27831986Y17816913D01*
X27863130Y17808133D01*
X27912229Y17802919D01*
X27987017Y17799416D01*
X28036661Y17797891D01*
X28095950Y17798040D01*
X28135488Y17802573D01*
X28163708Y17812760D01*
X28189038Y17829872D01*
X28212588Y17851610D01*
X28230411Y17886372D01*
X28234940Y17938750D01*
X28230999Y17985020D01*
X28211278Y18030817D01*
X28171328Y18060312D01*
X28107119Y18076104D01*
X28014620Y18080790D01*
X27965413Y18079578D01*
X27872525Y18067481D01*
X27809715Y18042523D01*
X27777425Y18004844D01*
X27768341Y17966789D01*
X27603310Y17966789D01*
X27622291Y18026481D01*
X27638558Y18060067D01*
X27640239Y18076960D01*
X27625435Y18080790D01*
X27624987Y18080794D01*
X27609870Y18089048D01*
X27602122Y18117517D01*
X27599940Y18172698D01*
X27599940Y18264606D01*
X28014620Y18264606D01*
G37*
X24694647Y18215749D02*
X24792312Y18213945D01*
X24879823Y18210766D01*
X24951388Y18206219D01*
X25001215Y18200306D01*
X25023512Y18193031D01*
X25026027Y18188617D01*
X25036815Y18155694D01*
X25051088Y18098582D01*
X25067283Y18023882D01*
X25083838Y17938196D01*
X25089111Y17909285D01*
X25113632Y17775755D01*
X25133340Y17670813D01*
X25149050Y17590820D01*
X25161581Y17532139D01*
X25171748Y17491132D01*
X25180370Y17464161D01*
X25188264Y17447588D01*
X25196246Y17437775D01*
X25197586Y17436635D01*
X25225516Y17420588D01*
X25276623Y17396843D01*
X25344911Y17367701D01*
X25424385Y17335463D01*
X25509048Y17302430D01*
X25592906Y17270904D01*
X25669963Y17243186D01*
X25734223Y17221577D01*
X25779691Y17208379D01*
X25800371Y17205893D01*
X25803054Y17207555D01*
X25829003Y17224765D01*
X25876864Y17257130D01*
X25942229Y17301650D01*
X26020689Y17355323D01*
X26107834Y17415149D01*
X26131811Y17431567D01*
X26217814Y17489303D01*
X26294730Y17539200D01*
X26357996Y17578409D01*
X26403051Y17604083D01*
X26425334Y17613374D01*
X26431192Y17611372D01*
X26460060Y17590503D01*
X26507199Y17549331D01*
X26569439Y17490803D01*
X26643606Y17417867D01*
X26726527Y17333473D01*
X26772940Y17285234D01*
X26845227Y17208962D01*
X26907143Y17142205D01*
X26955430Y17088546D01*
X26986826Y17051570D01*
X26998073Y17034863D01*
X26993903Y17023385D01*
X26974182Y16988045D01*
X26941929Y16936723D01*
X26901230Y16876113D01*
X26871530Y16833020D01*
X26812549Y16746987D01*
X26749909Y16655179D01*
X26692988Y16571323D01*
X26581878Y16407053D01*
X26656435Y16269160D01*
X26673644Y16236690D01*
X26703079Y16177642D01*
X26723402Y16131979D01*
X26730979Y16107574D01*
X26721249Y16099588D01*
X26684198Y16079756D01*
X26623112Y16050462D01*
X26541868Y16013338D01*
X26444342Y15970013D01*
X26334410Y15922118D01*
X26215951Y15871281D01*
X26092840Y15819133D01*
X25968954Y15767304D01*
X25848169Y15717424D01*
X25734363Y15671123D01*
X25631412Y15630031D01*
X25543192Y15595778D01*
X25473581Y15569993D01*
X25426455Y15554308D01*
X25405691Y15550351D01*
X25405084Y15550619D01*
X25385889Y15569050D01*
X25355825Y15607602D01*
X25321128Y15658316D01*
X25310533Y15674324D01*
X25210017Y15796125D01*
X25090296Y15896929D01*
X24956353Y15974351D01*
X24813172Y16026004D01*
X24665735Y16049500D01*
X24519026Y16042454D01*
X24388539Y16013910D01*
X24256776Y15962659D01*
X24139225Y15887945D01*
X24027561Y15785414D01*
X23991888Y15745127D01*
X23903999Y15614889D01*
X23844807Y15474197D01*
X23813784Y15327127D01*
X23810398Y15177758D01*
X23834121Y15030167D01*
X23884423Y14888429D01*
X23960774Y14756623D01*
X24062644Y14638826D01*
X24189503Y14539114D01*
X24220919Y14519943D01*
X24364511Y14454783D01*
X24514036Y14420177D01*
X24665624Y14415218D01*
X24815401Y14439001D01*
X24959495Y14490619D01*
X25094034Y14569166D01*
X25215144Y14673736D01*
X25318953Y14803422D01*
X25321751Y14807634D01*
X25357109Y14857810D01*
X25387172Y14895417D01*
X25405691Y14912594D01*
X25420209Y14910426D01*
X25462484Y14896951D01*
X25528005Y14873058D01*
X25612896Y14840375D01*
X25713278Y14800533D01*
X25825276Y14755160D01*
X25945010Y14705887D01*
X26068603Y14654341D01*
X26192178Y14602154D01*
X26311858Y14550953D01*
X26423764Y14502368D01*
X26524019Y14458030D01*
X26608746Y14419566D01*
X26674066Y14388606D01*
X26716103Y14366779D01*
X26730979Y14355716D01*
X26728965Y14346516D01*
X26714485Y14310371D01*
X26689097Y14256951D01*
X26656435Y14194131D01*
X26581878Y14056238D01*
X26692988Y13891968D01*
X26725889Y13843436D01*
X26787364Y13753166D01*
X26848937Y13663171D01*
X26901230Y13587177D01*
X26929728Y13545237D01*
X26965135Y13490726D01*
X26989374Y13450309D01*
X26998361Y13430568D01*
X26994545Y13422087D01*
X26971175Y13391429D01*
X26930029Y13344168D01*
X26875154Y13284416D01*
X26810596Y13216288D01*
X26740404Y13143896D01*
X26668625Y13071356D01*
X26599305Y13002780D01*
X26536492Y12942282D01*
X26484233Y12893976D01*
X26446576Y12861976D01*
X26427567Y12850395D01*
X26423950Y12851063D01*
X26394512Y12864847D01*
X26343581Y12894292D01*
X26275757Y12936553D01*
X26195642Y12988785D01*
X26107834Y13048142D01*
X26083615Y13064789D01*
X25998387Y13123244D01*
X25923040Y13174733D01*
X25861982Y13216256D01*
X25819623Y13244811D01*
X25800371Y13257398D01*
X25799546Y13257707D01*
X25775992Y13253993D01*
X25728278Y13239807D01*
X25662398Y13217451D01*
X25584349Y13189227D01*
X25500126Y13157435D01*
X25415724Y13124378D01*
X25337140Y13092356D01*
X25270369Y13063671D01*
X25221405Y13040623D01*
X25196246Y13025515D01*
X25194684Y13024002D01*
X25186782Y13013185D01*
X25178813Y12994915D01*
X25169960Y12965556D01*
X25159406Y12921470D01*
X25146334Y12859018D01*
X25129927Y12774564D01*
X25109367Y12664469D01*
X25083838Y12525095D01*
X25078465Y12496187D01*
X25061856Y12413377D01*
X25046119Y12343718D01*
X25032817Y12293812D01*
X25023512Y12270259D01*
X25015749Y12266319D01*
X24978461Y12259750D01*
X24916644Y12254544D01*
X24836091Y12250706D01*
X24742594Y12248239D01*
X24641945Y12247147D01*
X24539936Y12247435D01*
X24442358Y12249107D01*
X24355004Y12252165D01*
X24283666Y12256615D01*
X24234136Y12262460D01*
X24212205Y12269704D01*
X24208965Y12277101D01*
X24198752Y12313896D01*
X24184308Y12376091D01*
X24166708Y12458723D01*
X24147029Y12556828D01*
X24126349Y12665444D01*
X24115300Y12724750D01*
X24096140Y12826398D01*
X24079363Y12913890D01*
X24065880Y12982549D01*
X24056603Y13027693D01*
X24052445Y13044644D01*
X24051588Y13045281D01*
X24029812Y13056077D01*
X23984190Y13076657D01*
X23920777Y13104449D01*
X23845626Y13136882D01*
X23764789Y13171382D01*
X23684318Y13205378D01*
X23610268Y13236297D01*
X23548691Y13261566D01*
X23505640Y13278615D01*
X23487169Y13284869D01*
X23480669Y13282110D01*
X23449741Y13263750D01*
X23397682Y13230446D01*
X23328578Y13184874D01*
X23246512Y13129711D01*
X23155571Y13067632D01*
X23105767Y13033573D01*
X23018450Y12974797D01*
X22941817Y12924403D01*
X22880050Y12885080D01*
X22837325Y12859514D01*
X22817824Y12850395D01*
X22807246Y12856732D01*
X22775638Y12883237D01*
X22727802Y12926720D01*
X22667792Y12983189D01*
X22599661Y13048653D01*
X22527464Y13119121D01*
X22455252Y13190601D01*
X22387081Y13259100D01*
X22327002Y13320629D01*
X22279070Y13371194D01*
X22247339Y13406805D01*
X22235861Y13423470D01*
X22240324Y13432720D01*
X22261021Y13466689D01*
X22296246Y13521505D01*
X22343415Y13593218D01*
X22399950Y13677878D01*
X22463267Y13771535D01*
X22690673Y14105959D01*
X22460841Y14663487D01*
X22060095Y14739036D01*
X21659348Y14814585D01*
X21659348Y15648706D01*
X22060095Y15724254D01*
X22460841Y15799803D01*
X22575757Y16078567D01*
X22690673Y16357332D01*
X22463267Y16691756D01*
X22418436Y16757946D01*
X22359590Y16845693D01*
X22309329Y16921663D01*
X22270234Y16981911D01*
X22244884Y17022491D01*
X22235861Y17039457D01*
X22242278Y17049877D01*
X22269166Y17081025D01*
X22313293Y17128161D01*
X22370606Y17187293D01*
X22437054Y17254426D01*
X22508584Y17325566D01*
X22581145Y17396719D01*
X22650686Y17463892D01*
X22713154Y17523090D01*
X22764497Y17570319D01*
X22800664Y17601586D01*
X22817602Y17612895D01*
X22824880Y17610264D01*
X22857343Y17592048D01*
X22910768Y17558782D01*
X22980968Y17513164D01*
X23063755Y17457890D01*
X23154940Y17395658D01*
X23204671Y17361506D01*
X23291250Y17302757D01*
X23366810Y17252388D01*
X23427252Y17213086D01*
X23468480Y17187535D01*
X23486395Y17178422D01*
X23487388Y17178571D01*
X23510099Y17186611D01*
X23556474Y17205054D01*
X23620456Y17231331D01*
X23695987Y17262871D01*
X23777008Y17297102D01*
X23857462Y17331454D01*
X23931291Y17363355D01*
X23992437Y17390235D01*
X24034841Y17409522D01*
X24052445Y17418646D01*
X24054007Y17424045D01*
X24061050Y17456846D01*
X24072718Y17515306D01*
X24088099Y17594746D01*
X24106279Y17690486D01*
X24126349Y17797846D01*
X24136990Y17854431D01*
X24157292Y17958289D01*
X24176041Y18049097D01*
X24192161Y18121891D01*
X24204575Y18171708D01*
X24212205Y18193586D01*
X24219769Y18197516D01*
X24256728Y18204034D01*
X24318284Y18209156D01*
X24398646Y18212884D01*
X24492022Y18215223D01*
X24592620Y18216177D01*
X24694647Y18215749D01*
G36*
X24694647Y18215749D02*
G01*
X24792312Y18213945D01*
X24879823Y18210766D01*
X24951388Y18206219D01*
X25001215Y18200306D01*
X25023512Y18193031D01*
X25026027Y18188617D01*
X25036815Y18155694D01*
X25051088Y18098582D01*
X25067283Y18023882D01*
X25083838Y17938196D01*
X25089111Y17909285D01*
X25113632Y17775755D01*
X25133340Y17670813D01*
X25149050Y17590820D01*
X25161581Y17532139D01*
X25171748Y17491132D01*
X25180370Y17464161D01*
X25188264Y17447588D01*
X25196246Y17437775D01*
X25197586Y17436635D01*
X25225516Y17420588D01*
X25276623Y17396843D01*
X25344911Y17367701D01*
X25424385Y17335463D01*
X25509048Y17302430D01*
X25592906Y17270904D01*
X25669963Y17243186D01*
X25734223Y17221577D01*
X25779691Y17208379D01*
X25800371Y17205893D01*
X25803054Y17207555D01*
X25829003Y17224765D01*
X25876864Y17257130D01*
X25942229Y17301650D01*
X26020689Y17355323D01*
X26107834Y17415149D01*
X26131811Y17431567D01*
X26217814Y17489303D01*
X26294730Y17539200D01*
X26357996Y17578409D01*
X26403051Y17604083D01*
X26425334Y17613374D01*
X26431192Y17611372D01*
X26460060Y17590503D01*
X26507199Y17549331D01*
X26569439Y17490803D01*
X26643606Y17417867D01*
X26726527Y17333473D01*
X26772940Y17285234D01*
X26845227Y17208962D01*
X26907143Y17142205D01*
X26955430Y17088546D01*
X26986826Y17051570D01*
X26998073Y17034863D01*
X26993903Y17023385D01*
X26974182Y16988045D01*
X26941929Y16936723D01*
X26901230Y16876113D01*
X26871530Y16833020D01*
X26812549Y16746987D01*
X26749909Y16655179D01*
X26692988Y16571323D01*
X26581878Y16407053D01*
X26656435Y16269160D01*
X26673644Y16236690D01*
X26703079Y16177642D01*
X26723402Y16131979D01*
X26730979Y16107574D01*
X26721249Y16099588D01*
X26684198Y16079756D01*
X26623112Y16050462D01*
X26541868Y16013338D01*
X26444342Y15970013D01*
X26334410Y15922118D01*
X26215951Y15871281D01*
X26092840Y15819133D01*
X25968954Y15767304D01*
X25848169Y15717424D01*
X25734363Y15671123D01*
X25631412Y15630031D01*
X25543192Y15595778D01*
X25473581Y15569993D01*
X25426455Y15554308D01*
X25405691Y15550351D01*
X25405084Y15550619D01*
X25385889Y15569050D01*
X25355825Y15607602D01*
X25321128Y15658316D01*
X25310533Y15674324D01*
X25210017Y15796125D01*
X25090296Y15896929D01*
X24956353Y15974351D01*
X24813172Y16026004D01*
X24665735Y16049500D01*
X24519026Y16042454D01*
X24388539Y16013910D01*
X24256776Y15962659D01*
X24139225Y15887945D01*
X24027561Y15785414D01*
X23991888Y15745127D01*
X23903999Y15614889D01*
X23844807Y15474197D01*
X23813784Y15327127D01*
X23810398Y15177758D01*
X23834121Y15030167D01*
X23884423Y14888429D01*
X23960774Y14756623D01*
X24062644Y14638826D01*
X24189503Y14539114D01*
X24220919Y14519943D01*
X24364511Y14454783D01*
X24514036Y14420177D01*
X24665624Y14415218D01*
X24815401Y14439001D01*
X24959495Y14490619D01*
X25094034Y14569166D01*
X25215144Y14673736D01*
X25318953Y14803422D01*
X25321751Y14807634D01*
X25357109Y14857810D01*
X25387172Y14895417D01*
X25405691Y14912594D01*
X25420209Y14910426D01*
X25462484Y14896951D01*
X25528005Y14873058D01*
X25612896Y14840375D01*
X25713278Y14800533D01*
X25825276Y14755160D01*
X25945010Y14705887D01*
X26068603Y14654341D01*
X26192178Y14602154D01*
X26311858Y14550953D01*
X26423764Y14502368D01*
X26524019Y14458030D01*
X26608746Y14419566D01*
X26674066Y14388606D01*
X26716103Y14366779D01*
X26730979Y14355716D01*
X26728965Y14346516D01*
X26714485Y14310371D01*
X26689097Y14256951D01*
X26656435Y14194131D01*
X26581878Y14056238D01*
X26692988Y13891968D01*
X26725889Y13843436D01*
X26787364Y13753166D01*
X26848937Y13663171D01*
X26901230Y13587177D01*
X26929728Y13545237D01*
X26965135Y13490726D01*
X26989374Y13450309D01*
X26998361Y13430568D01*
X26994545Y13422087D01*
X26971175Y13391429D01*
X26930029Y13344168D01*
X26875154Y13284416D01*
X26810596Y13216288D01*
X26740404Y13143896D01*
X26668625Y13071356D01*
X26599305Y13002780D01*
X26536492Y12942282D01*
X26484233Y12893976D01*
X26446576Y12861976D01*
X26427567Y12850395D01*
X26423950Y12851063D01*
X26394512Y12864847D01*
X26343581Y12894292D01*
X26275757Y12936553D01*
X26195642Y12988785D01*
X26107834Y13048142D01*
X26083615Y13064789D01*
X25998387Y13123244D01*
X25923040Y13174733D01*
X25861982Y13216256D01*
X25819623Y13244811D01*
X25800371Y13257398D01*
X25799546Y13257707D01*
X25775992Y13253993D01*
X25728278Y13239807D01*
X25662398Y13217451D01*
X25584349Y13189227D01*
X25500126Y13157435D01*
X25415724Y13124378D01*
X25337140Y13092356D01*
X25270369Y13063671D01*
X25221405Y13040623D01*
X25196246Y13025515D01*
X25194684Y13024002D01*
X25186782Y13013185D01*
X25178813Y12994915D01*
X25169960Y12965556D01*
X25159406Y12921470D01*
X25146334Y12859018D01*
X25129927Y12774564D01*
X25109367Y12664469D01*
X25083838Y12525095D01*
X25078465Y12496187D01*
X25061856Y12413377D01*
X25046119Y12343718D01*
X25032817Y12293812D01*
X25023512Y12270259D01*
X25015749Y12266319D01*
X24978461Y12259750D01*
X24916644Y12254544D01*
X24836091Y12250706D01*
X24742594Y12248239D01*
X24641945Y12247147D01*
X24539936Y12247435D01*
X24442358Y12249107D01*
X24355004Y12252165D01*
X24283666Y12256615D01*
X24234136Y12262460D01*
X24212205Y12269704D01*
X24208965Y12277101D01*
X24198752Y12313896D01*
X24184308Y12376091D01*
X24166708Y12458723D01*
X24147029Y12556828D01*
X24126349Y12665444D01*
X24115300Y12724750D01*
X24096140Y12826398D01*
X24079363Y12913890D01*
X24065880Y12982549D01*
X24056603Y13027693D01*
X24052445Y13044644D01*
X24051588Y13045281D01*
X24029812Y13056077D01*
X23984190Y13076657D01*
X23920777Y13104449D01*
X23845626Y13136882D01*
X23764789Y13171382D01*
X23684318Y13205378D01*
X23610268Y13236297D01*
X23548691Y13261566D01*
X23505640Y13278615D01*
X23487169Y13284869D01*
X23480669Y13282110D01*
X23449741Y13263750D01*
X23397682Y13230446D01*
X23328578Y13184874D01*
X23246512Y13129711D01*
X23155571Y13067632D01*
X23105767Y13033573D01*
X23018450Y12974797D01*
X22941817Y12924403D01*
X22880050Y12885080D01*
X22837325Y12859514D01*
X22817824Y12850395D01*
X22807246Y12856732D01*
X22775638Y12883237D01*
X22727802Y12926720D01*
X22667792Y12983189D01*
X22599661Y13048653D01*
X22527464Y13119121D01*
X22455252Y13190601D01*
X22387081Y13259100D01*
X22327002Y13320629D01*
X22279070Y13371194D01*
X22247339Y13406805D01*
X22235861Y13423470D01*
X22240324Y13432720D01*
X22261021Y13466689D01*
X22296246Y13521505D01*
X22343415Y13593218D01*
X22399950Y13677878D01*
X22463267Y13771535D01*
X22690673Y14105959D01*
X22460841Y14663487D01*
X22060095Y14739036D01*
X21659348Y14814585D01*
X21659348Y15648706D01*
X22060095Y15724254D01*
X22460841Y15799803D01*
X22575757Y16078567D01*
X22690673Y16357332D01*
X22463267Y16691756D01*
X22418436Y16757946D01*
X22359590Y16845693D01*
X22309329Y16921663D01*
X22270234Y16981911D01*
X22244884Y17022491D01*
X22235861Y17039457D01*
X22242278Y17049877D01*
X22269166Y17081025D01*
X22313293Y17128161D01*
X22370606Y17187293D01*
X22437054Y17254426D01*
X22508584Y17325566D01*
X22581145Y17396719D01*
X22650686Y17463892D01*
X22713154Y17523090D01*
X22764497Y17570319D01*
X22800664Y17601586D01*
X22817602Y17612895D01*
X22824880Y17610264D01*
X22857343Y17592048D01*
X22910768Y17558782D01*
X22980968Y17513164D01*
X23063755Y17457890D01*
X23154940Y17395658D01*
X23204671Y17361506D01*
X23291250Y17302757D01*
X23366810Y17252388D01*
X23427252Y17213086D01*
X23468480Y17187535D01*
X23486395Y17178422D01*
X23487388Y17178571D01*
X23510099Y17186611D01*
X23556474Y17205054D01*
X23620456Y17231331D01*
X23695987Y17262871D01*
X23777008Y17297102D01*
X23857462Y17331454D01*
X23931291Y17363355D01*
X23992437Y17390235D01*
X24034841Y17409522D01*
X24052445Y17418646D01*
X24054007Y17424045D01*
X24061050Y17456846D01*
X24072718Y17515306D01*
X24088099Y17594746D01*
X24106279Y17690486D01*
X24126349Y17797846D01*
X24136990Y17854431D01*
X24157292Y17958289D01*
X24176041Y18049097D01*
X24192161Y18121891D01*
X24204575Y18171708D01*
X24212205Y18193586D01*
X24219769Y18197516D01*
X24256728Y18204034D01*
X24318284Y18209156D01*
X24398646Y18212884D01*
X24492022Y18215223D01*
X24592620Y18216177D01*
X24694647Y18215749D01*
G37*
D11*
%TO.C,J1*%
X-15261681Y20701679D02*
X-15261681Y7881679D01*
X-12661681Y10481679D02*
X-12661681Y7881679D01*
X-12661681Y7881679D02*
X-15261681Y7881679D01*
X-10061681Y20701679D02*
X-15261681Y20701679D01*
X-10061681Y20701679D02*
X-10061681Y10481679D01*
X-10061681Y10481679D02*
X-12661681Y10481679D01*
X-10061681Y9211679D02*
X-10061681Y7881679D01*
X-10061681Y7881679D02*
X-11391681Y7881679D01*
%TD*%
%LPC*%
D16*
%TO.C,H1*%
X17533519Y28575000D03*
%TD*%
%TO.C,H2*%
X17533519Y51641D03*
%TD*%
%TO.C,H3*%
X7519Y0D03*
%TD*%
%TO.C,H4*%
X7519Y28523359D03*
%TD*%
D17*
%TO.C,J1*%
X-11391681Y9211679D03*
D18*
X-13931681Y9211679D03*
X-11391681Y11751679D03*
X-13931681Y11751679D03*
X-11391681Y14291679D03*
X-13931681Y14291679D03*
X-11391681Y16831679D03*
X-13931681Y16831679D03*
X-11391681Y19371679D03*
X-13931681Y19371679D03*
%TD*%
%LPD*%
M02*
