%TF.GenerationSoftware,KiCad,Pcbnew,8.0.4*%
%TF.CreationDate,2024-07-26T08:44:17-07:00*%
%TF.ProjectId,GOLD,474f4c44-2e6b-4696-9361-645f70636258,0*%
%TF.SameCoordinates,Original*%
%TF.FileFunction,Paste,Top*%
%TF.FilePolarity,Positive*%
%FSLAX46Y46*%
G04 Gerber Fmt 4.6, Leading zero omitted, Abs format (unit mm)*
G04 Created by KiCad (PCBNEW 8.0.4) date 2024-07-26 08:44:17*
%MOMM*%
%LPD*%
G01*
G04 APERTURE LIST*
G04 Aperture macros list*
%AMRoundRect*
0 Rectangle with rounded corners*
0 $1 Rounding radius*
0 $2 $3 $4 $5 $6 $7 $8 $9 X,Y pos of 4 corners*
0 Add a 4 corners polygon primitive as box body*
4,1,4,$2,$3,$4,$5,$6,$7,$8,$9,$2,$3,0*
0 Add four circle primitives for the rounded corners*
1,1,$1+$1,$2,$3*
1,1,$1+$1,$4,$5*
1,1,$1+$1,$6,$7*
1,1,$1+$1,$8,$9*
0 Add four rect primitives between the rounded corners*
20,1,$1+$1,$2,$3,$4,$5,0*
20,1,$1+$1,$4,$5,$6,$7,0*
20,1,$1+$1,$6,$7,$8,$9,0*
20,1,$1+$1,$8,$9,$2,$3,0*%
G04 Aperture macros list end*
%ADD10RoundRect,0.237500X-0.237500X0.250000X-0.237500X-0.250000X0.237500X-0.250000X0.237500X0.250000X0*%
%ADD11RoundRect,0.237500X-0.300000X-0.237500X0.300000X-0.237500X0.300000X0.237500X-0.300000X0.237500X0*%
%ADD12RoundRect,0.237500X0.300000X0.237500X-0.300000X0.237500X-0.300000X-0.237500X0.300000X-0.237500X0*%
%ADD13RoundRect,0.250000X-0.250000X0.300000X-0.250000X-0.300000X0.250000X-0.300000X0.250000X0.300000X0*%
%ADD14RoundRect,0.100000X-0.637500X-0.100000X0.637500X-0.100000X0.637500X0.100000X-0.637500X0.100000X0*%
G04 APERTURE END LIST*
D10*
%TO.C,R4*%
X31757519Y13320820D03*
X31757519Y11495820D03*
%TD*%
D11*
%TO.C,C1*%
X-8424181Y8128000D03*
X-6699181Y8128000D03*
%TD*%
D12*
%TO.C,C4*%
X19799169Y20320000D03*
X18074169Y20320000D03*
%TD*%
D13*
%TO.C,D1*%
X33428839Y1815620D03*
X33428839Y115620D03*
%TD*%
%TO.C,D3*%
X33428839Y9435620D03*
X33428839Y7735620D03*
%TD*%
D10*
%TO.C,R1*%
X31757519Y1890820D03*
X31757519Y65820D03*
%TD*%
D11*
%TO.C,C2*%
X-8424181Y9652000D03*
X-6699181Y9652000D03*
%TD*%
%TO.C,C3*%
X-8297181Y19341679D03*
X-6572181Y19341679D03*
%TD*%
D14*
%TO.C,U1*%
X14017169Y18632000D03*
X14017169Y17982000D03*
X14017169Y17332000D03*
X14017169Y16682000D03*
X14017169Y16032000D03*
X14017169Y15382000D03*
X14017169Y14732000D03*
X14017169Y14082000D03*
X14017169Y13432000D03*
X14017169Y12782000D03*
X19742169Y12782000D03*
X19742169Y13432000D03*
X19742169Y14082000D03*
X19742169Y14732000D03*
X19742169Y15382000D03*
X19742169Y16032000D03*
X19742169Y16682000D03*
X19742169Y17332000D03*
X19742169Y17982000D03*
X19742169Y18632000D03*
%TD*%
D10*
%TO.C,R5*%
X31757519Y17130820D03*
X31757519Y15305820D03*
%TD*%
D13*
%TO.C,D7*%
X33428839Y24675620D03*
X33428839Y22975620D03*
%TD*%
D10*
%TO.C,R3*%
X31757519Y9510820D03*
X31757519Y7685820D03*
%TD*%
%TO.C,R8*%
X31757519Y28560820D03*
X31757519Y26735820D03*
%TD*%
D13*
%TO.C,D5*%
X33428839Y17055620D03*
X33428839Y15355620D03*
%TD*%
%TO.C,D2*%
X33428839Y5625620D03*
X33428839Y3925620D03*
%TD*%
D10*
%TO.C,R6*%
X31757519Y20940820D03*
X31757519Y19115820D03*
%TD*%
D13*
%TO.C,D8*%
X33428839Y28485620D03*
X33428839Y26785620D03*
%TD*%
%TO.C,D4*%
X33428839Y13245620D03*
X33428839Y11545620D03*
%TD*%
D10*
%TO.C,R7*%
X31757519Y24750820D03*
X31757519Y22925820D03*
%TD*%
D13*
%TO.C,D6*%
X33428839Y20865620D03*
X33428839Y19165620D03*
%TD*%
D10*
%TO.C,R2*%
X31757519Y5700820D03*
X31757519Y3875820D03*
%TD*%
M02*
