%TF.GenerationSoftware,KiCad,Pcbnew,8.0.4*%
%TF.CreationDate,2024-07-26T08:44:17-07:00*%
%TF.ProjectId,GOLD,474f4c44-2e6b-4696-9361-645f70636258,0*%
%TF.SameCoordinates,Original*%
%TF.FileFunction,Legend,Top*%
%TF.FilePolarity,Positive*%
%FSLAX46Y46*%
G04 Gerber Fmt 4.6, Leading zero omitted, Abs format (unit mm)*
G04 Created by KiCad (PCBNEW 8.0.4) date 2024-07-26 08:44:17*
%MOMM*%
%LPD*%
G01*
G04 APERTURE LIST*
G04 Aperture macros list*
%AMRoundRect*
0 Rectangle with rounded corners*
0 $1 Rounding radius*
0 $2 $3 $4 $5 $6 $7 $8 $9 X,Y pos of 4 corners*
0 Add a 4 corners polygon primitive as box body*
4,1,4,$2,$3,$4,$5,$6,$7,$8,$9,$2,$3,0*
0 Add four circle primitives for the rounded corners*
1,1,$1+$1,$2,$3*
1,1,$1+$1,$4,$5*
1,1,$1+$1,$6,$7*
1,1,$1+$1,$8,$9*
0 Add four rect primitives between the rounded corners*
20,1,$1+$1,$2,$3,$4,$5,0*
20,1,$1+$1,$4,$5,$6,$7,0*
20,1,$1+$1,$6,$7,$8,$9,0*
20,1,$1+$1,$8,$9,$2,$3,0*%
G04 Aperture macros list end*
%ADD10C,0.120000*%
%ADD11C,0.254000*%
%ADD12C,0.695000*%
%ADD13C,0.150000*%
%ADD14C,0.317500*%
%ADD15C,0.635000*%
%ADD16C,2.802000*%
%ADD17RoundRect,0.263000X-0.263000X0.275500X-0.263000X-0.275500X0.263000X-0.275500X0.263000X0.275500X0*%
%ADD18RoundRect,0.263000X-0.325500X-0.263000X0.325500X-0.263000X0.325500X0.263000X-0.325500X0.263000X0*%
%ADD19RoundRect,0.263000X0.325500X0.263000X-0.325500X0.263000X-0.325500X-0.263000X0.325500X-0.263000X0*%
%ADD20RoundRect,0.301000X-0.301000X0.351000X-0.301000X-0.351000X0.301000X-0.351000X0.301000X0.351000X0*%
%ADD21RoundRect,0.125500X-0.663000X-0.125500X0.663000X-0.125500X0.663000X0.125500X-0.663000X0.125500X0*%
%ADD22RoundRect,0.051000X-0.850000X-0.850000X0.850000X-0.850000X0.850000X0.850000X-0.850000X0.850000X0*%
%ADD23O,1.802000X1.802000*%
G04 APERTURE END LIST*
D10*
X21749919Y24917820D02*
X26956919Y24917820D01*
X26956919Y22758820D01*
X21749919Y22758820D01*
X21749919Y24917820D01*
X21749919Y13487820D02*
X26956919Y13487820D01*
X26956919Y11328820D01*
X21749919Y11328820D01*
X21749919Y13487820D01*
X21749919Y17297820D02*
X26956919Y17297820D01*
X26956919Y15138820D01*
X21749919Y15138820D01*
X21749919Y17297820D01*
X21749919Y28727820D02*
X26956919Y28727820D01*
X26956919Y26568820D01*
X21749919Y26568820D01*
X21749919Y28727820D01*
X20606919Y2184820D02*
X26956919Y2184820D01*
X26956919Y25820D01*
X20606919Y25820D01*
X20606919Y2184820D01*
D11*
X4173119Y28231679D02*
X12301119Y28231679D01*
X12301119Y926679D01*
X4173119Y926679D01*
X4173119Y28231679D01*
D10*
X21749919Y9677820D02*
X26956919Y9677820D01*
X26956919Y7518820D01*
X21749919Y7518820D01*
X21749919Y9677820D01*
X4991119Y26961179D02*
X8435119Y26961179D01*
X8435119Y20548179D01*
X4991119Y20548179D01*
X4991119Y26961179D01*
G36*
X4991119Y26961179D02*
G01*
X8435119Y26961179D01*
X8435119Y20548179D01*
X4991119Y20548179D01*
X4991119Y26961179D01*
G37*
X19590919Y5867820D02*
X26956919Y5867820D01*
X26956919Y3708820D01*
X19590919Y3708820D01*
X19590919Y5867820D01*
X21749919Y21107820D02*
X26956919Y21107820D01*
X26956919Y18948820D01*
X21749919Y18948820D01*
X21749919Y21107820D01*
D12*
X14198019Y20193000D02*
G75*
G02*
X13503019Y20193000I-347500J0D01*
G01*
X13503019Y20193000D02*
G75*
G02*
X14198019Y20193000I347500J0D01*
G01*
D13*
X22889949Y16665882D02*
X22794711Y16713501D01*
X22794711Y16713501D02*
X22651854Y16713501D01*
X22651854Y16713501D02*
X22508997Y16665882D01*
X22508997Y16665882D02*
X22413759Y16570644D01*
X22413759Y16570644D02*
X22366140Y16475406D01*
X22366140Y16475406D02*
X22318521Y16284930D01*
X22318521Y16284930D02*
X22318521Y16142073D01*
X22318521Y16142073D02*
X22366140Y15951597D01*
X22366140Y15951597D02*
X22413759Y15856359D01*
X22413759Y15856359D02*
X22508997Y15761120D01*
X22508997Y15761120D02*
X22651854Y15713501D01*
X22651854Y15713501D02*
X22747092Y15713501D01*
X22747092Y15713501D02*
X22889949Y15761120D01*
X22889949Y15761120D02*
X22937568Y15808740D01*
X22937568Y15808740D02*
X22937568Y16142073D01*
X22937568Y16142073D02*
X22747092Y16142073D01*
X23366140Y15713501D02*
X23366140Y16713501D01*
X23366140Y16713501D02*
X23747092Y16713501D01*
X23747092Y16713501D02*
X23842330Y16665882D01*
X23842330Y16665882D02*
X23889949Y16618263D01*
X23889949Y16618263D02*
X23937568Y16523025D01*
X23937568Y16523025D02*
X23937568Y16380168D01*
X23937568Y16380168D02*
X23889949Y16284930D01*
X23889949Y16284930D02*
X23842330Y16237311D01*
X23842330Y16237311D02*
X23747092Y16189692D01*
X23747092Y16189692D02*
X23366140Y16189692D01*
X24366140Y15713501D02*
X24366140Y16713501D01*
X25032806Y16713501D02*
X25223282Y16713501D01*
X25223282Y16713501D02*
X25318520Y16665882D01*
X25318520Y16665882D02*
X25413758Y16570644D01*
X25413758Y16570644D02*
X25461377Y16380168D01*
X25461377Y16380168D02*
X25461377Y16046835D01*
X25461377Y16046835D02*
X25413758Y15856359D01*
X25413758Y15856359D02*
X25318520Y15761120D01*
X25318520Y15761120D02*
X25223282Y15713501D01*
X25223282Y15713501D02*
X25032806Y15713501D01*
X25032806Y15713501D02*
X24937568Y15761120D01*
X24937568Y15761120D02*
X24842330Y15856359D01*
X24842330Y15856359D02*
X24794711Y16046835D01*
X24794711Y16046835D02*
X24794711Y16380168D01*
X24794711Y16380168D02*
X24842330Y16570644D01*
X24842330Y16570644D02*
X24937568Y16665882D01*
X24937568Y16665882D02*
X25032806Y16713501D01*
X25842330Y16618263D02*
X25889949Y16665882D01*
X25889949Y16665882D02*
X25985187Y16713501D01*
X25985187Y16713501D02*
X26223282Y16713501D01*
X26223282Y16713501D02*
X26318520Y16665882D01*
X26318520Y16665882D02*
X26366139Y16618263D01*
X26366139Y16618263D02*
X26413758Y16523025D01*
X26413758Y16523025D02*
X26413758Y16427787D01*
X26413758Y16427787D02*
X26366139Y16284930D01*
X26366139Y16284930D02*
X25794711Y15713501D01*
X25794711Y15713501D02*
X26413758Y15713501D01*
D14*
X2829640Y7411780D02*
X1305640Y7411780D01*
X1305640Y7411780D02*
X1305640Y7744399D01*
X1305640Y7744399D02*
X1378211Y7943970D01*
X1378211Y7943970D02*
X1523354Y8077018D01*
X1523354Y8077018D02*
X1668497Y8143541D01*
X1668497Y8143541D02*
X1958783Y8210065D01*
X1958783Y8210065D02*
X2176497Y8210065D01*
X2176497Y8210065D02*
X2466783Y8143541D01*
X2466783Y8143541D02*
X2611926Y8077018D01*
X2611926Y8077018D02*
X2757069Y7943970D01*
X2757069Y7943970D02*
X2829640Y7744399D01*
X2829640Y7744399D02*
X2829640Y7411780D01*
X2757069Y9340970D02*
X2829640Y9207922D01*
X2829640Y9207922D02*
X2829640Y8941827D01*
X2829640Y8941827D02*
X2757069Y8808780D01*
X2757069Y8808780D02*
X2611926Y8742256D01*
X2611926Y8742256D02*
X2031354Y8742256D01*
X2031354Y8742256D02*
X1886211Y8808780D01*
X1886211Y8808780D02*
X1813640Y8941827D01*
X1813640Y8941827D02*
X1813640Y9207922D01*
X1813640Y9207922D02*
X1886211Y9340970D01*
X1886211Y9340970D02*
X2031354Y9407494D01*
X2031354Y9407494D02*
X2176497Y9407494D01*
X2176497Y9407494D02*
X2321640Y8742256D01*
X1813640Y10006209D02*
X2829640Y10006209D01*
X1958783Y10006209D02*
X1886211Y10072732D01*
X1886211Y10072732D02*
X1813640Y10205780D01*
X1813640Y10205780D02*
X1813640Y10405351D01*
X1813640Y10405351D02*
X1886211Y10538399D01*
X1886211Y10538399D02*
X2031354Y10604923D01*
X2031354Y10604923D02*
X2829640Y10604923D01*
X1813640Y11270161D02*
X2829640Y11270161D01*
X1958783Y11270161D02*
X1886211Y11336684D01*
X1886211Y11336684D02*
X1813640Y11469732D01*
X1813640Y11469732D02*
X1813640Y11669303D01*
X1813640Y11669303D02*
X1886211Y11802351D01*
X1886211Y11802351D02*
X2031354Y11868875D01*
X2031354Y11868875D02*
X2829640Y11868875D01*
X2829640Y12733684D02*
X2757069Y12600636D01*
X2757069Y12600636D02*
X2684497Y12534113D01*
X2684497Y12534113D02*
X2539354Y12467589D01*
X2539354Y12467589D02*
X2103926Y12467589D01*
X2103926Y12467589D02*
X1958783Y12534113D01*
X1958783Y12534113D02*
X1886211Y12600636D01*
X1886211Y12600636D02*
X1813640Y12733684D01*
X1813640Y12733684D02*
X1813640Y12933255D01*
X1813640Y12933255D02*
X1886211Y13066303D01*
X1886211Y13066303D02*
X1958783Y13132827D01*
X1958783Y13132827D02*
X2103926Y13199351D01*
X2103926Y13199351D02*
X2539354Y13199351D01*
X2539354Y13199351D02*
X2684497Y13132827D01*
X2684497Y13132827D02*
X2757069Y13066303D01*
X2757069Y13066303D02*
X2829640Y12933255D01*
X2829640Y12933255D02*
X2829640Y12733684D01*
X1305640Y14729398D02*
X2829640Y15062017D01*
X2829640Y15062017D02*
X1741069Y15328112D01*
X1741069Y15328112D02*
X2829640Y15594207D01*
X2829640Y15594207D02*
X1305640Y15926826D01*
X2829640Y16459017D02*
X1813640Y16459017D01*
X1305640Y16459017D02*
X1378211Y16392493D01*
X1378211Y16392493D02*
X1450783Y16459017D01*
X1450783Y16459017D02*
X1378211Y16525540D01*
X1378211Y16525540D02*
X1305640Y16459017D01*
X1305640Y16459017D02*
X1450783Y16459017D01*
X1813640Y17722969D02*
X3047354Y17722969D01*
X3047354Y17722969D02*
X3192497Y17656445D01*
X3192497Y17656445D02*
X3265069Y17589921D01*
X3265069Y17589921D02*
X3337640Y17456874D01*
X3337640Y17456874D02*
X3337640Y17257302D01*
X3337640Y17257302D02*
X3265069Y17124255D01*
X2757069Y17722969D02*
X2829640Y17589921D01*
X2829640Y17589921D02*
X2829640Y17323826D01*
X2829640Y17323826D02*
X2757069Y17190778D01*
X2757069Y17190778D02*
X2684497Y17124255D01*
X2684497Y17124255D02*
X2539354Y17057731D01*
X2539354Y17057731D02*
X2103926Y17057731D01*
X2103926Y17057731D02*
X1958783Y17124255D01*
X1958783Y17124255D02*
X1886211Y17190778D01*
X1886211Y17190778D02*
X1813640Y17323826D01*
X1813640Y17323826D02*
X1813640Y17589921D01*
X1813640Y17589921D02*
X1886211Y17722969D01*
X1813640Y18986921D02*
X3047354Y18986921D01*
X3047354Y18986921D02*
X3192497Y18920397D01*
X3192497Y18920397D02*
X3265069Y18853873D01*
X3265069Y18853873D02*
X3337640Y18720826D01*
X3337640Y18720826D02*
X3337640Y18521254D01*
X3337640Y18521254D02*
X3265069Y18388207D01*
X2757069Y18986921D02*
X2829640Y18853873D01*
X2829640Y18853873D02*
X2829640Y18587778D01*
X2829640Y18587778D02*
X2757069Y18454730D01*
X2757069Y18454730D02*
X2684497Y18388207D01*
X2684497Y18388207D02*
X2539354Y18321683D01*
X2539354Y18321683D02*
X2103926Y18321683D01*
X2103926Y18321683D02*
X1958783Y18388207D01*
X1958783Y18388207D02*
X1886211Y18454730D01*
X1886211Y18454730D02*
X1813640Y18587778D01*
X1813640Y18587778D02*
X1813640Y18853873D01*
X1813640Y18853873D02*
X1886211Y18986921D01*
X2829640Y19851730D02*
X2757069Y19718682D01*
X2757069Y19718682D02*
X2611926Y19652159D01*
X2611926Y19652159D02*
X1305640Y19652159D01*
X2757069Y20916111D02*
X2829640Y20783063D01*
X2829640Y20783063D02*
X2829640Y20516968D01*
X2829640Y20516968D02*
X2757069Y20383921D01*
X2757069Y20383921D02*
X2611926Y20317397D01*
X2611926Y20317397D02*
X2031354Y20317397D01*
X2031354Y20317397D02*
X1886211Y20383921D01*
X1886211Y20383921D02*
X1813640Y20516968D01*
X1813640Y20516968D02*
X1813640Y20783063D01*
X1813640Y20783063D02*
X1886211Y20916111D01*
X1886211Y20916111D02*
X2031354Y20982635D01*
X2031354Y20982635D02*
X2176497Y20982635D01*
X2176497Y20982635D02*
X2321640Y20317397D01*
X9760211Y2898441D02*
X9687640Y2765394D01*
X9687640Y2765394D02*
X9687640Y2565822D01*
X9687640Y2565822D02*
X9760211Y2366251D01*
X9760211Y2366251D02*
X9905354Y2233203D01*
X9905354Y2233203D02*
X10050497Y2166680D01*
X10050497Y2166680D02*
X10340783Y2100156D01*
X10340783Y2100156D02*
X10558497Y2100156D01*
X10558497Y2100156D02*
X10848783Y2166680D01*
X10848783Y2166680D02*
X10993926Y2233203D01*
X10993926Y2233203D02*
X11139069Y2366251D01*
X11139069Y2366251D02*
X11211640Y2565822D01*
X11211640Y2565822D02*
X11211640Y2698870D01*
X11211640Y2698870D02*
X11139069Y2898441D01*
X11139069Y2898441D02*
X11066497Y2964965D01*
X11066497Y2964965D02*
X10558497Y2964965D01*
X10558497Y2964965D02*
X10558497Y2698870D01*
X11211640Y3563680D02*
X9687640Y3563680D01*
X9687640Y3563680D02*
X9687640Y4095870D01*
X9687640Y4095870D02*
X9760211Y4228918D01*
X9760211Y4228918D02*
X9832783Y4295441D01*
X9832783Y4295441D02*
X9977926Y4361965D01*
X9977926Y4361965D02*
X10195640Y4361965D01*
X10195640Y4361965D02*
X10340783Y4295441D01*
X10340783Y4295441D02*
X10413354Y4228918D01*
X10413354Y4228918D02*
X10485926Y4095870D01*
X10485926Y4095870D02*
X10485926Y3563680D01*
X11211640Y4960680D02*
X9687640Y4960680D01*
X9687640Y5892013D02*
X9687640Y6158108D01*
X9687640Y6158108D02*
X9760211Y6291156D01*
X9760211Y6291156D02*
X9905354Y6424203D01*
X9905354Y6424203D02*
X10195640Y6490727D01*
X10195640Y6490727D02*
X10703640Y6490727D01*
X10703640Y6490727D02*
X10993926Y6424203D01*
X10993926Y6424203D02*
X11139069Y6291156D01*
X11139069Y6291156D02*
X11211640Y6158108D01*
X11211640Y6158108D02*
X11211640Y5892013D01*
X11211640Y5892013D02*
X11139069Y5758965D01*
X11139069Y5758965D02*
X10993926Y5625918D01*
X10993926Y5625918D02*
X10703640Y5559394D01*
X10703640Y5559394D02*
X10195640Y5559394D01*
X10195640Y5559394D02*
X9905354Y5625918D01*
X9905354Y5625918D02*
X9760211Y5758965D01*
X9760211Y5758965D02*
X9687640Y5892013D01*
X9687640Y8419918D02*
X9687640Y8686013D01*
X9687640Y8686013D02*
X9760211Y8819061D01*
X9760211Y8819061D02*
X9905354Y8952108D01*
X9905354Y8952108D02*
X10195640Y9018632D01*
X10195640Y9018632D02*
X10703640Y9018632D01*
X10703640Y9018632D02*
X10993926Y8952108D01*
X10993926Y8952108D02*
X11139069Y8819061D01*
X11139069Y8819061D02*
X11211640Y8686013D01*
X11211640Y8686013D02*
X11211640Y8419918D01*
X11211640Y8419918D02*
X11139069Y8286870D01*
X11139069Y8286870D02*
X10993926Y8153823D01*
X10993926Y8153823D02*
X10703640Y8087299D01*
X10703640Y8087299D02*
X10195640Y8087299D01*
X10195640Y8087299D02*
X9905354Y8153823D01*
X9905354Y8153823D02*
X9760211Y8286870D01*
X9760211Y8286870D02*
X9687640Y8419918D01*
X10195640Y9617347D02*
X11211640Y9617347D01*
X10340783Y9617347D02*
X10268211Y9683870D01*
X10268211Y9683870D02*
X10195640Y9816918D01*
X10195640Y9816918D02*
X10195640Y10016489D01*
X10195640Y10016489D02*
X10268211Y10149537D01*
X10268211Y10149537D02*
X10413354Y10216061D01*
X10413354Y10216061D02*
X11211640Y10216061D01*
X11211640Y12610918D02*
X11211640Y11945680D01*
X11211640Y11945680D02*
X9687640Y11945680D01*
X10413354Y13076585D02*
X10413354Y13542251D01*
X11211640Y13741823D02*
X11211640Y13076585D01*
X11211640Y13076585D02*
X9687640Y13076585D01*
X9687640Y13076585D02*
X9687640Y13741823D01*
X11211640Y14340537D02*
X9687640Y14340537D01*
X9687640Y14340537D02*
X9687640Y14673156D01*
X9687640Y14673156D02*
X9760211Y14872727D01*
X9760211Y14872727D02*
X9905354Y15005775D01*
X9905354Y15005775D02*
X10050497Y15072298D01*
X10050497Y15072298D02*
X10340783Y15138822D01*
X10340783Y15138822D02*
X10558497Y15138822D01*
X10558497Y15138822D02*
X10848783Y15072298D01*
X10848783Y15072298D02*
X10993926Y15005775D01*
X10993926Y15005775D02*
X11139069Y14872727D01*
X11139069Y14872727D02*
X11211640Y14673156D01*
X11211640Y14673156D02*
X11211640Y14340537D01*
X11211640Y16801918D02*
X9687640Y16801918D01*
X9687640Y16801918D02*
X9687640Y17134537D01*
X9687640Y17134537D02*
X9760211Y17334108D01*
X9760211Y17334108D02*
X9905354Y17467156D01*
X9905354Y17467156D02*
X10050497Y17533679D01*
X10050497Y17533679D02*
X10340783Y17600203D01*
X10340783Y17600203D02*
X10558497Y17600203D01*
X10558497Y17600203D02*
X10848783Y17533679D01*
X10848783Y17533679D02*
X10993926Y17467156D01*
X10993926Y17467156D02*
X11139069Y17334108D01*
X11139069Y17334108D02*
X11211640Y17134537D01*
X11211640Y17134537D02*
X11211640Y16801918D01*
X11211640Y18198918D02*
X10195640Y18198918D01*
X9687640Y18198918D02*
X9760211Y18132394D01*
X9760211Y18132394D02*
X9832783Y18198918D01*
X9832783Y18198918D02*
X9760211Y18265441D01*
X9760211Y18265441D02*
X9687640Y18198918D01*
X9687640Y18198918D02*
X9832783Y18198918D01*
X11139069Y18797632D02*
X11211640Y18930679D01*
X11211640Y18930679D02*
X11211640Y19196775D01*
X11211640Y19196775D02*
X11139069Y19329822D01*
X11139069Y19329822D02*
X10993926Y19396346D01*
X10993926Y19396346D02*
X10921354Y19396346D01*
X10921354Y19396346D02*
X10776211Y19329822D01*
X10776211Y19329822D02*
X10703640Y19196775D01*
X10703640Y19196775D02*
X10703640Y18997203D01*
X10703640Y18997203D02*
X10631069Y18864156D01*
X10631069Y18864156D02*
X10485926Y18797632D01*
X10485926Y18797632D02*
X10413354Y18797632D01*
X10413354Y18797632D02*
X10268211Y18864156D01*
X10268211Y18864156D02*
X10195640Y18997203D01*
X10195640Y18997203D02*
X10195640Y19196775D01*
X10195640Y19196775D02*
X10268211Y19329822D01*
X10195640Y19995061D02*
X11719640Y19995061D01*
X10268211Y19995061D02*
X10195640Y20128108D01*
X10195640Y20128108D02*
X10195640Y20394203D01*
X10195640Y20394203D02*
X10268211Y20527251D01*
X10268211Y20527251D02*
X10340783Y20593775D01*
X10340783Y20593775D02*
X10485926Y20660299D01*
X10485926Y20660299D02*
X10921354Y20660299D01*
X10921354Y20660299D02*
X11066497Y20593775D01*
X11066497Y20593775D02*
X11139069Y20527251D01*
X11139069Y20527251D02*
X11211640Y20394203D01*
X11211640Y20394203D02*
X11211640Y20128108D01*
X11211640Y20128108D02*
X11139069Y19995061D01*
X11211640Y21458584D02*
X11139069Y21325536D01*
X11139069Y21325536D02*
X10993926Y21259013D01*
X10993926Y21259013D02*
X9687640Y21259013D01*
X11211640Y22589489D02*
X10413354Y22589489D01*
X10413354Y22589489D02*
X10268211Y22522965D01*
X10268211Y22522965D02*
X10195640Y22389917D01*
X10195640Y22389917D02*
X10195640Y22123822D01*
X10195640Y22123822D02*
X10268211Y21990775D01*
X11139069Y22589489D02*
X11211640Y22456441D01*
X11211640Y22456441D02*
X11211640Y22123822D01*
X11211640Y22123822D02*
X11139069Y21990775D01*
X11139069Y21990775D02*
X10993926Y21924251D01*
X10993926Y21924251D02*
X10848783Y21924251D01*
X10848783Y21924251D02*
X10703640Y21990775D01*
X10703640Y21990775D02*
X10631069Y22123822D01*
X10631069Y22123822D02*
X10631069Y22456441D01*
X10631069Y22456441D02*
X10558497Y22589489D01*
X10195640Y23121679D02*
X11211640Y23454298D01*
X10195640Y23786917D02*
X11211640Y23454298D01*
X11211640Y23454298D02*
X11574497Y23321250D01*
X11574497Y23321250D02*
X11647069Y23254727D01*
X11647069Y23254727D02*
X11719640Y23121679D01*
D13*
X22889949Y12855882D02*
X22794711Y12903501D01*
X22794711Y12903501D02*
X22651854Y12903501D01*
X22651854Y12903501D02*
X22508997Y12855882D01*
X22508997Y12855882D02*
X22413759Y12760644D01*
X22413759Y12760644D02*
X22366140Y12665406D01*
X22366140Y12665406D02*
X22318521Y12474930D01*
X22318521Y12474930D02*
X22318521Y12332073D01*
X22318521Y12332073D02*
X22366140Y12141597D01*
X22366140Y12141597D02*
X22413759Y12046359D01*
X22413759Y12046359D02*
X22508997Y11951120D01*
X22508997Y11951120D02*
X22651854Y11903501D01*
X22651854Y11903501D02*
X22747092Y11903501D01*
X22747092Y11903501D02*
X22889949Y11951120D01*
X22889949Y11951120D02*
X22937568Y11998740D01*
X22937568Y11998740D02*
X22937568Y12332073D01*
X22937568Y12332073D02*
X22747092Y12332073D01*
X23366140Y11903501D02*
X23366140Y12903501D01*
X23366140Y12903501D02*
X23747092Y12903501D01*
X23747092Y12903501D02*
X23842330Y12855882D01*
X23842330Y12855882D02*
X23889949Y12808263D01*
X23889949Y12808263D02*
X23937568Y12713025D01*
X23937568Y12713025D02*
X23937568Y12570168D01*
X23937568Y12570168D02*
X23889949Y12474930D01*
X23889949Y12474930D02*
X23842330Y12427311D01*
X23842330Y12427311D02*
X23747092Y12379692D01*
X23747092Y12379692D02*
X23366140Y12379692D01*
X24366140Y11903501D02*
X24366140Y12903501D01*
X25032806Y12903501D02*
X25223282Y12903501D01*
X25223282Y12903501D02*
X25318520Y12855882D01*
X25318520Y12855882D02*
X25413758Y12760644D01*
X25413758Y12760644D02*
X25461377Y12570168D01*
X25461377Y12570168D02*
X25461377Y12236835D01*
X25461377Y12236835D02*
X25413758Y12046359D01*
X25413758Y12046359D02*
X25318520Y11951120D01*
X25318520Y11951120D02*
X25223282Y11903501D01*
X25223282Y11903501D02*
X25032806Y11903501D01*
X25032806Y11903501D02*
X24937568Y11951120D01*
X24937568Y11951120D02*
X24842330Y12046359D01*
X24842330Y12046359D02*
X24794711Y12236835D01*
X24794711Y12236835D02*
X24794711Y12570168D01*
X24794711Y12570168D02*
X24842330Y12760644D01*
X24842330Y12760644D02*
X24937568Y12855882D01*
X24937568Y12855882D02*
X25032806Y12903501D01*
X26413758Y11903501D02*
X25842330Y11903501D01*
X26128044Y11903501D02*
X26128044Y12903501D01*
X26128044Y12903501D02*
X26032806Y12760644D01*
X26032806Y12760644D02*
X25937568Y12665406D01*
X25937568Y12665406D02*
X25842330Y12617787D01*
D14*
X-541303Y5568465D02*
X-468731Y5501941D01*
X-468731Y5501941D02*
X-396160Y5302370D01*
X-396160Y5302370D02*
X-396160Y5169322D01*
X-396160Y5169322D02*
X-468731Y4969751D01*
X-468731Y4969751D02*
X-613874Y4836703D01*
X-613874Y4836703D02*
X-759017Y4770180D01*
X-759017Y4770180D02*
X-1049303Y4703656D01*
X-1049303Y4703656D02*
X-1267017Y4703656D01*
X-1267017Y4703656D02*
X-1557303Y4770180D01*
X-1557303Y4770180D02*
X-1702446Y4836703D01*
X-1702446Y4836703D02*
X-1847589Y4969751D01*
X-1847589Y4969751D02*
X-1920160Y5169322D01*
X-1920160Y5169322D02*
X-1920160Y5302370D01*
X-1920160Y5302370D02*
X-1847589Y5501941D01*
X-1847589Y5501941D02*
X-1775017Y5568465D01*
X-396160Y6366751D02*
X-468731Y6233703D01*
X-468731Y6233703D02*
X-541303Y6167180D01*
X-541303Y6167180D02*
X-686446Y6100656D01*
X-686446Y6100656D02*
X-1121874Y6100656D01*
X-1121874Y6100656D02*
X-1267017Y6167180D01*
X-1267017Y6167180D02*
X-1339589Y6233703D01*
X-1339589Y6233703D02*
X-1412160Y6366751D01*
X-1412160Y6366751D02*
X-1412160Y6566322D01*
X-1412160Y6566322D02*
X-1339589Y6699370D01*
X-1339589Y6699370D02*
X-1267017Y6765894D01*
X-1267017Y6765894D02*
X-1121874Y6832418D01*
X-1121874Y6832418D02*
X-686446Y6832418D01*
X-686446Y6832418D02*
X-541303Y6765894D01*
X-541303Y6765894D02*
X-468731Y6699370D01*
X-468731Y6699370D02*
X-396160Y6566322D01*
X-396160Y6566322D02*
X-396160Y6366751D01*
X-1412160Y7431132D02*
X111840Y7431132D01*
X-1339589Y7431132D02*
X-1412160Y7564179D01*
X-1412160Y7564179D02*
X-1412160Y7830274D01*
X-1412160Y7830274D02*
X-1339589Y7963322D01*
X-1339589Y7963322D02*
X-1267017Y8029846D01*
X-1267017Y8029846D02*
X-1121874Y8096370D01*
X-1121874Y8096370D02*
X-686446Y8096370D01*
X-686446Y8096370D02*
X-541303Y8029846D01*
X-541303Y8029846D02*
X-468731Y7963322D01*
X-468731Y7963322D02*
X-396160Y7830274D01*
X-396160Y7830274D02*
X-396160Y7564179D01*
X-396160Y7564179D02*
X-468731Y7431132D01*
X-1412160Y8562036D02*
X-396160Y8894655D01*
X-1412160Y9227274D02*
X-396160Y8894655D01*
X-396160Y8894655D02*
X-33303Y8761607D01*
X-33303Y8761607D02*
X39269Y8695084D01*
X39269Y8695084D02*
X111840Y8562036D01*
X-396160Y9759465D02*
X-1412160Y9759465D01*
X-1121874Y9759465D02*
X-1267017Y9825988D01*
X-1267017Y9825988D02*
X-1339589Y9892512D01*
X-1339589Y9892512D02*
X-1412160Y10025560D01*
X-1412160Y10025560D02*
X-1412160Y10158607D01*
X-396160Y10624275D02*
X-1412160Y10624275D01*
X-1920160Y10624275D02*
X-1847589Y10557751D01*
X-1847589Y10557751D02*
X-1775017Y10624275D01*
X-1775017Y10624275D02*
X-1847589Y10690798D01*
X-1847589Y10690798D02*
X-1920160Y10624275D01*
X-1920160Y10624275D02*
X-1775017Y10624275D01*
X-1412160Y11888227D02*
X-178446Y11888227D01*
X-178446Y11888227D02*
X-33303Y11821703D01*
X-33303Y11821703D02*
X39269Y11755179D01*
X39269Y11755179D02*
X111840Y11622132D01*
X111840Y11622132D02*
X111840Y11422560D01*
X111840Y11422560D02*
X39269Y11289513D01*
X-468731Y11888227D02*
X-396160Y11755179D01*
X-396160Y11755179D02*
X-396160Y11489084D01*
X-396160Y11489084D02*
X-468731Y11356036D01*
X-468731Y11356036D02*
X-541303Y11289513D01*
X-541303Y11289513D02*
X-686446Y11222989D01*
X-686446Y11222989D02*
X-1121874Y11222989D01*
X-1121874Y11222989D02*
X-1267017Y11289513D01*
X-1267017Y11289513D02*
X-1339589Y11356036D01*
X-1339589Y11356036D02*
X-1412160Y11489084D01*
X-1412160Y11489084D02*
X-1412160Y11755179D01*
X-1412160Y11755179D02*
X-1339589Y11888227D01*
X-396160Y12553465D02*
X-1920160Y12553465D01*
X-396160Y13152179D02*
X-1194446Y13152179D01*
X-1194446Y13152179D02*
X-1339589Y13085655D01*
X-1339589Y13085655D02*
X-1412160Y12952607D01*
X-1412160Y12952607D02*
X-1412160Y12753036D01*
X-1412160Y12753036D02*
X-1339589Y12619988D01*
X-1339589Y12619988D02*
X-1267017Y12553465D01*
X-1412160Y13617845D02*
X-1412160Y14150036D01*
X-1920160Y13817417D02*
X-613874Y13817417D01*
X-613874Y13817417D02*
X-468731Y13883940D01*
X-468731Y13883940D02*
X-396160Y14016988D01*
X-396160Y14016988D02*
X-396160Y14150036D01*
X-1557303Y16810988D02*
X-1629874Y16677941D01*
X-1629874Y16677941D02*
X-1629874Y16411845D01*
X-1629874Y16411845D02*
X-1557303Y16278798D01*
X-1557303Y16278798D02*
X-1412160Y16145750D01*
X-1412160Y16145750D02*
X-1267017Y16079226D01*
X-1267017Y16079226D02*
X-976731Y16079226D01*
X-976731Y16079226D02*
X-831589Y16145750D01*
X-831589Y16145750D02*
X-686446Y16278798D01*
X-686446Y16278798D02*
X-613874Y16411845D01*
X-613874Y16411845D02*
X-613874Y16677941D01*
X-613874Y16677941D02*
X-686446Y16810988D01*
X-2137874Y16544893D02*
X-2065303Y16212274D01*
X-2065303Y16212274D02*
X-1847589Y15879655D01*
X-1847589Y15879655D02*
X-1484731Y15680084D01*
X-1484731Y15680084D02*
X-1121874Y15613560D01*
X-1121874Y15613560D02*
X-759017Y15680084D01*
X-759017Y15680084D02*
X-396160Y15879655D01*
X-396160Y15879655D02*
X-178446Y16212274D01*
X-178446Y16212274D02*
X-105874Y16544893D01*
X-105874Y16544893D02*
X-178446Y16877512D01*
X-178446Y16877512D02*
X-396160Y17210131D01*
X-396160Y17210131D02*
X-759017Y17409703D01*
X-759017Y17409703D02*
X-1121874Y17476226D01*
X-1121874Y17476226D02*
X-1484731Y17409703D01*
X-1484731Y17409703D02*
X-1847589Y17210131D01*
X-1847589Y17210131D02*
X-2065303Y16877512D01*
X-2065303Y16877512D02*
X-2137874Y16544893D01*
X-1775017Y19072798D02*
X-1847589Y19139322D01*
X-1847589Y19139322D02*
X-1920160Y19272369D01*
X-1920160Y19272369D02*
X-1920160Y19604988D01*
X-1920160Y19604988D02*
X-1847589Y19738036D01*
X-1847589Y19738036D02*
X-1775017Y19804560D01*
X-1775017Y19804560D02*
X-1629874Y19871083D01*
X-1629874Y19871083D02*
X-1484731Y19871083D01*
X-1484731Y19871083D02*
X-1267017Y19804560D01*
X-1267017Y19804560D02*
X-396160Y19006274D01*
X-396160Y19006274D02*
X-396160Y19871083D01*
X-1920160Y20735893D02*
X-1920160Y20868940D01*
X-1920160Y20868940D02*
X-1847589Y21001988D01*
X-1847589Y21001988D02*
X-1775017Y21068512D01*
X-1775017Y21068512D02*
X-1629874Y21135036D01*
X-1629874Y21135036D02*
X-1339589Y21201559D01*
X-1339589Y21201559D02*
X-976731Y21201559D01*
X-976731Y21201559D02*
X-686446Y21135036D01*
X-686446Y21135036D02*
X-541303Y21068512D01*
X-541303Y21068512D02*
X-468731Y21001988D01*
X-468731Y21001988D02*
X-396160Y20868940D01*
X-396160Y20868940D02*
X-396160Y20735893D01*
X-396160Y20735893D02*
X-468731Y20602845D01*
X-468731Y20602845D02*
X-541303Y20536321D01*
X-541303Y20536321D02*
X-686446Y20469798D01*
X-686446Y20469798D02*
X-976731Y20403274D01*
X-976731Y20403274D02*
X-1339589Y20403274D01*
X-1339589Y20403274D02*
X-1629874Y20469798D01*
X-1629874Y20469798D02*
X-1775017Y20536321D01*
X-1775017Y20536321D02*
X-1847589Y20602845D01*
X-1847589Y20602845D02*
X-1920160Y20735893D01*
X-1775017Y21733750D02*
X-1847589Y21800274D01*
X-1847589Y21800274D02*
X-1920160Y21933321D01*
X-1920160Y21933321D02*
X-1920160Y22265940D01*
X-1920160Y22265940D02*
X-1847589Y22398988D01*
X-1847589Y22398988D02*
X-1775017Y22465512D01*
X-1775017Y22465512D02*
X-1629874Y22532035D01*
X-1629874Y22532035D02*
X-1484731Y22532035D01*
X-1484731Y22532035D02*
X-1267017Y22465512D01*
X-1267017Y22465512D02*
X-396160Y21667226D01*
X-396160Y21667226D02*
X-396160Y22532035D01*
X-1412160Y23729464D02*
X-396160Y23729464D01*
X-1992731Y23396845D02*
X-904160Y23064226D01*
X-904160Y23064226D02*
X-904160Y23929035D01*
D13*
X22889949Y20475882D02*
X22794711Y20523501D01*
X22794711Y20523501D02*
X22651854Y20523501D01*
X22651854Y20523501D02*
X22508997Y20475882D01*
X22508997Y20475882D02*
X22413759Y20380644D01*
X22413759Y20380644D02*
X22366140Y20285406D01*
X22366140Y20285406D02*
X22318521Y20094930D01*
X22318521Y20094930D02*
X22318521Y19952073D01*
X22318521Y19952073D02*
X22366140Y19761597D01*
X22366140Y19761597D02*
X22413759Y19666359D01*
X22413759Y19666359D02*
X22508997Y19571120D01*
X22508997Y19571120D02*
X22651854Y19523501D01*
X22651854Y19523501D02*
X22747092Y19523501D01*
X22747092Y19523501D02*
X22889949Y19571120D01*
X22889949Y19571120D02*
X22937568Y19618740D01*
X22937568Y19618740D02*
X22937568Y19952073D01*
X22937568Y19952073D02*
X22747092Y19952073D01*
X23366140Y19523501D02*
X23366140Y20523501D01*
X23366140Y20523501D02*
X23747092Y20523501D01*
X23747092Y20523501D02*
X23842330Y20475882D01*
X23842330Y20475882D02*
X23889949Y20428263D01*
X23889949Y20428263D02*
X23937568Y20333025D01*
X23937568Y20333025D02*
X23937568Y20190168D01*
X23937568Y20190168D02*
X23889949Y20094930D01*
X23889949Y20094930D02*
X23842330Y20047311D01*
X23842330Y20047311D02*
X23747092Y19999692D01*
X23747092Y19999692D02*
X23366140Y19999692D01*
X24366140Y19523501D02*
X24366140Y20523501D01*
X25032806Y20523501D02*
X25223282Y20523501D01*
X25223282Y20523501D02*
X25318520Y20475882D01*
X25318520Y20475882D02*
X25413758Y20380644D01*
X25413758Y20380644D02*
X25461377Y20190168D01*
X25461377Y20190168D02*
X25461377Y19856835D01*
X25461377Y19856835D02*
X25413758Y19666359D01*
X25413758Y19666359D02*
X25318520Y19571120D01*
X25318520Y19571120D02*
X25223282Y19523501D01*
X25223282Y19523501D02*
X25032806Y19523501D01*
X25032806Y19523501D02*
X24937568Y19571120D01*
X24937568Y19571120D02*
X24842330Y19666359D01*
X24842330Y19666359D02*
X24794711Y19856835D01*
X24794711Y19856835D02*
X24794711Y20190168D01*
X24794711Y20190168D02*
X24842330Y20380644D01*
X24842330Y20380644D02*
X24937568Y20475882D01*
X24937568Y20475882D02*
X25032806Y20523501D01*
X25794711Y20523501D02*
X26413758Y20523501D01*
X26413758Y20523501D02*
X26080425Y20142549D01*
X26080425Y20142549D02*
X26223282Y20142549D01*
X26223282Y20142549D02*
X26318520Y20094930D01*
X26318520Y20094930D02*
X26366139Y20047311D01*
X26366139Y20047311D02*
X26413758Y19952073D01*
X26413758Y19952073D02*
X26413758Y19713978D01*
X26413758Y19713978D02*
X26366139Y19618740D01*
X26366139Y19618740D02*
X26318520Y19571120D01*
X26318520Y19571120D02*
X26223282Y19523501D01*
X26223282Y19523501D02*
X25937568Y19523501D01*
X25937568Y19523501D02*
X25842330Y19571120D01*
X25842330Y19571120D02*
X25794711Y19618740D01*
D14*
X7457640Y14584965D02*
X6731926Y14119299D01*
X7457640Y13786680D02*
X5933640Y13786680D01*
X5933640Y13786680D02*
X5933640Y14318870D01*
X5933640Y14318870D02*
X6006211Y14451918D01*
X6006211Y14451918D02*
X6078783Y14518441D01*
X6078783Y14518441D02*
X6223926Y14584965D01*
X6223926Y14584965D02*
X6441640Y14584965D01*
X6441640Y14584965D02*
X6586783Y14518441D01*
X6586783Y14518441D02*
X6659354Y14451918D01*
X6659354Y14451918D02*
X6731926Y14318870D01*
X6731926Y14318870D02*
X6731926Y13786680D01*
X7385069Y15715870D02*
X7457640Y15582822D01*
X7457640Y15582822D02*
X7457640Y15316727D01*
X7457640Y15316727D02*
X7385069Y15183680D01*
X7385069Y15183680D02*
X7239926Y15117156D01*
X7239926Y15117156D02*
X6659354Y15117156D01*
X6659354Y15117156D02*
X6514211Y15183680D01*
X6514211Y15183680D02*
X6441640Y15316727D01*
X6441640Y15316727D02*
X6441640Y15582822D01*
X6441640Y15582822D02*
X6514211Y15715870D01*
X6514211Y15715870D02*
X6659354Y15782394D01*
X6659354Y15782394D02*
X6804497Y15782394D01*
X6804497Y15782394D02*
X6949640Y15117156D01*
X6441640Y16248061D02*
X7457640Y16580680D01*
X7457640Y16580680D02*
X6441640Y16913299D01*
X5933640Y18775966D02*
X5933640Y18909013D01*
X5933640Y18909013D02*
X6006211Y19042061D01*
X6006211Y19042061D02*
X6078783Y19108585D01*
X6078783Y19108585D02*
X6223926Y19175109D01*
X6223926Y19175109D02*
X6514211Y19241632D01*
X6514211Y19241632D02*
X6877069Y19241632D01*
X6877069Y19241632D02*
X7167354Y19175109D01*
X7167354Y19175109D02*
X7312497Y19108585D01*
X7312497Y19108585D02*
X7385069Y19042061D01*
X7385069Y19042061D02*
X7457640Y18909013D01*
X7457640Y18909013D02*
X7457640Y18775966D01*
X7457640Y18775966D02*
X7385069Y18642918D01*
X7385069Y18642918D02*
X7312497Y18576394D01*
X7312497Y18576394D02*
X7167354Y18509871D01*
X7167354Y18509871D02*
X6877069Y18443347D01*
X6877069Y18443347D02*
X6514211Y18443347D01*
X6514211Y18443347D02*
X6223926Y18509871D01*
X6223926Y18509871D02*
X6078783Y18576394D01*
X6078783Y18576394D02*
X6006211Y18642918D01*
X6006211Y18642918D02*
X5933640Y18775966D01*
D13*
X22889949Y28095882D02*
X22794711Y28143501D01*
X22794711Y28143501D02*
X22651854Y28143501D01*
X22651854Y28143501D02*
X22508997Y28095882D01*
X22508997Y28095882D02*
X22413759Y28000644D01*
X22413759Y28000644D02*
X22366140Y27905406D01*
X22366140Y27905406D02*
X22318521Y27714930D01*
X22318521Y27714930D02*
X22318521Y27572073D01*
X22318521Y27572073D02*
X22366140Y27381597D01*
X22366140Y27381597D02*
X22413759Y27286359D01*
X22413759Y27286359D02*
X22508997Y27191120D01*
X22508997Y27191120D02*
X22651854Y27143501D01*
X22651854Y27143501D02*
X22747092Y27143501D01*
X22747092Y27143501D02*
X22889949Y27191120D01*
X22889949Y27191120D02*
X22937568Y27238740D01*
X22937568Y27238740D02*
X22937568Y27572073D01*
X22937568Y27572073D02*
X22747092Y27572073D01*
X23366140Y27143501D02*
X23366140Y28143501D01*
X23366140Y28143501D02*
X23747092Y28143501D01*
X23747092Y28143501D02*
X23842330Y28095882D01*
X23842330Y28095882D02*
X23889949Y28048263D01*
X23889949Y28048263D02*
X23937568Y27953025D01*
X23937568Y27953025D02*
X23937568Y27810168D01*
X23937568Y27810168D02*
X23889949Y27714930D01*
X23889949Y27714930D02*
X23842330Y27667311D01*
X23842330Y27667311D02*
X23747092Y27619692D01*
X23747092Y27619692D02*
X23366140Y27619692D01*
X24366140Y27143501D02*
X24366140Y28143501D01*
X25032806Y28143501D02*
X25223282Y28143501D01*
X25223282Y28143501D02*
X25318520Y28095882D01*
X25318520Y28095882D02*
X25413758Y28000644D01*
X25413758Y28000644D02*
X25461377Y27810168D01*
X25461377Y27810168D02*
X25461377Y27476835D01*
X25461377Y27476835D02*
X25413758Y27286359D01*
X25413758Y27286359D02*
X25318520Y27191120D01*
X25318520Y27191120D02*
X25223282Y27143501D01*
X25223282Y27143501D02*
X25032806Y27143501D01*
X25032806Y27143501D02*
X24937568Y27191120D01*
X24937568Y27191120D02*
X24842330Y27286359D01*
X24842330Y27286359D02*
X24794711Y27476835D01*
X24794711Y27476835D02*
X24794711Y27810168D01*
X24794711Y27810168D02*
X24842330Y28000644D01*
X24842330Y28000644D02*
X24937568Y28095882D01*
X24937568Y28095882D02*
X25032806Y28143501D01*
X26366139Y28143501D02*
X25889949Y28143501D01*
X25889949Y28143501D02*
X25842330Y27667311D01*
X25842330Y27667311D02*
X25889949Y27714930D01*
X25889949Y27714930D02*
X25985187Y27762549D01*
X25985187Y27762549D02*
X26223282Y27762549D01*
X26223282Y27762549D02*
X26318520Y27714930D01*
X26318520Y27714930D02*
X26366139Y27667311D01*
X26366139Y27667311D02*
X26413758Y27572073D01*
X26413758Y27572073D02*
X26413758Y27333978D01*
X26413758Y27333978D02*
X26366139Y27238740D01*
X26366139Y27238740D02*
X26318520Y27191120D01*
X26318520Y27191120D02*
X26223282Y27143501D01*
X26223282Y27143501D02*
X25985187Y27143501D01*
X25985187Y27143501D02*
X25889949Y27191120D01*
X25889949Y27191120D02*
X25842330Y27238740D01*
X21604234Y1600501D02*
X21128044Y1600501D01*
X21128044Y1600501D02*
X21080425Y1124311D01*
X21080425Y1124311D02*
X21128044Y1171930D01*
X21128044Y1171930D02*
X21223282Y1219549D01*
X21223282Y1219549D02*
X21461377Y1219549D01*
X21461377Y1219549D02*
X21556615Y1171930D01*
X21556615Y1171930D02*
X21604234Y1124311D01*
X21604234Y1124311D02*
X21651853Y1029073D01*
X21651853Y1029073D02*
X21651853Y790978D01*
X21651853Y790978D02*
X21604234Y695740D01*
X21604234Y695740D02*
X21556615Y648120D01*
X21556615Y648120D02*
X21461377Y600501D01*
X21461377Y600501D02*
X21223282Y600501D01*
X21223282Y600501D02*
X21128044Y648120D01*
X21128044Y648120D02*
X21080425Y695740D01*
X21937568Y1600501D02*
X22270901Y600501D01*
X22270901Y600501D02*
X22604234Y1600501D01*
X23699473Y600501D02*
X23699473Y1600501D01*
X23699473Y1600501D02*
X24080425Y1600501D01*
X24080425Y1600501D02*
X24175663Y1552882D01*
X24175663Y1552882D02*
X24223282Y1505263D01*
X24223282Y1505263D02*
X24270901Y1410025D01*
X24270901Y1410025D02*
X24270901Y1267168D01*
X24270901Y1267168D02*
X24223282Y1171930D01*
X24223282Y1171930D02*
X24175663Y1124311D01*
X24175663Y1124311D02*
X24080425Y1076692D01*
X24080425Y1076692D02*
X23699473Y1076692D01*
X24604235Y1600501D02*
X24842330Y600501D01*
X24842330Y600501D02*
X25032806Y1314787D01*
X25032806Y1314787D02*
X25223282Y600501D01*
X25223282Y600501D02*
X25461378Y1600501D01*
X26413758Y600501D02*
X26080425Y1076692D01*
X25842330Y600501D02*
X25842330Y1600501D01*
X25842330Y1600501D02*
X26223282Y1600501D01*
X26223282Y1600501D02*
X26318520Y1552882D01*
X26318520Y1552882D02*
X26366139Y1505263D01*
X26366139Y1505263D02*
X26413758Y1410025D01*
X26413758Y1410025D02*
X26413758Y1267168D01*
X26413758Y1267168D02*
X26366139Y1171930D01*
X26366139Y1171930D02*
X26318520Y1124311D01*
X26318520Y1124311D02*
X26223282Y1076692D01*
X26223282Y1076692D02*
X25842330Y1076692D01*
D15*
X5309103Y3597181D02*
X5188151Y3355276D01*
X5188151Y3355276D02*
X5188151Y2992419D01*
X5188151Y2992419D02*
X5309103Y2629562D01*
X5309103Y2629562D02*
X5551008Y2387657D01*
X5551008Y2387657D02*
X5792913Y2266704D01*
X5792913Y2266704D02*
X6276722Y2145752D01*
X6276722Y2145752D02*
X6639579Y2145752D01*
X6639579Y2145752D02*
X7123389Y2266704D01*
X7123389Y2266704D02*
X7365294Y2387657D01*
X7365294Y2387657D02*
X7607199Y2629562D01*
X7607199Y2629562D02*
X7728151Y2992419D01*
X7728151Y2992419D02*
X7728151Y3234323D01*
X7728151Y3234323D02*
X7607199Y3597181D01*
X7607199Y3597181D02*
X7486246Y3718133D01*
X7486246Y3718133D02*
X6639579Y3718133D01*
X6639579Y3718133D02*
X6639579Y3234323D01*
X5188151Y5290514D02*
X5188151Y5774323D01*
X5188151Y5774323D02*
X5309103Y6016228D01*
X5309103Y6016228D02*
X5551008Y6258133D01*
X5551008Y6258133D02*
X6034818Y6379085D01*
X6034818Y6379085D02*
X6881484Y6379085D01*
X6881484Y6379085D02*
X7365294Y6258133D01*
X7365294Y6258133D02*
X7607199Y6016228D01*
X7607199Y6016228D02*
X7728151Y5774323D01*
X7728151Y5774323D02*
X7728151Y5290514D01*
X7728151Y5290514D02*
X7607199Y5048609D01*
X7607199Y5048609D02*
X7365294Y4806704D01*
X7365294Y4806704D02*
X6881484Y4685752D01*
X6881484Y4685752D02*
X6034818Y4685752D01*
X6034818Y4685752D02*
X5551008Y4806704D01*
X5551008Y4806704D02*
X5309103Y5048609D01*
X5309103Y5048609D02*
X5188151Y5290514D01*
X7728151Y8677180D02*
X7728151Y7467656D01*
X7728151Y7467656D02*
X5188151Y7467656D01*
X7728151Y9523846D02*
X5188151Y9523846D01*
X5188151Y9523846D02*
X5188151Y10128608D01*
X5188151Y10128608D02*
X5309103Y10491465D01*
X5309103Y10491465D02*
X5551008Y10733370D01*
X5551008Y10733370D02*
X5792913Y10854323D01*
X5792913Y10854323D02*
X6276722Y10975275D01*
X6276722Y10975275D02*
X6639579Y10975275D01*
X6639579Y10975275D02*
X7123389Y10854323D01*
X7123389Y10854323D02*
X7365294Y10733370D01*
X7365294Y10733370D02*
X7607199Y10491465D01*
X7607199Y10491465D02*
X7728151Y10128608D01*
X7728151Y10128608D02*
X7728151Y9523846D01*
D13*
X22889949Y9045882D02*
X22794711Y9093501D01*
X22794711Y9093501D02*
X22651854Y9093501D01*
X22651854Y9093501D02*
X22508997Y9045882D01*
X22508997Y9045882D02*
X22413759Y8950644D01*
X22413759Y8950644D02*
X22366140Y8855406D01*
X22366140Y8855406D02*
X22318521Y8664930D01*
X22318521Y8664930D02*
X22318521Y8522073D01*
X22318521Y8522073D02*
X22366140Y8331597D01*
X22366140Y8331597D02*
X22413759Y8236359D01*
X22413759Y8236359D02*
X22508997Y8141120D01*
X22508997Y8141120D02*
X22651854Y8093501D01*
X22651854Y8093501D02*
X22747092Y8093501D01*
X22747092Y8093501D02*
X22889949Y8141120D01*
X22889949Y8141120D02*
X22937568Y8188740D01*
X22937568Y8188740D02*
X22937568Y8522073D01*
X22937568Y8522073D02*
X22747092Y8522073D01*
X23366140Y8093501D02*
X23366140Y9093501D01*
X23366140Y9093501D02*
X23747092Y9093501D01*
X23747092Y9093501D02*
X23842330Y9045882D01*
X23842330Y9045882D02*
X23889949Y8998263D01*
X23889949Y8998263D02*
X23937568Y8903025D01*
X23937568Y8903025D02*
X23937568Y8760168D01*
X23937568Y8760168D02*
X23889949Y8664930D01*
X23889949Y8664930D02*
X23842330Y8617311D01*
X23842330Y8617311D02*
X23747092Y8569692D01*
X23747092Y8569692D02*
X23366140Y8569692D01*
X24366140Y8093501D02*
X24366140Y9093501D01*
X25032806Y9093501D02*
X25223282Y9093501D01*
X25223282Y9093501D02*
X25318520Y9045882D01*
X25318520Y9045882D02*
X25413758Y8950644D01*
X25413758Y8950644D02*
X25461377Y8760168D01*
X25461377Y8760168D02*
X25461377Y8426835D01*
X25461377Y8426835D02*
X25413758Y8236359D01*
X25413758Y8236359D02*
X25318520Y8141120D01*
X25318520Y8141120D02*
X25223282Y8093501D01*
X25223282Y8093501D02*
X25032806Y8093501D01*
X25032806Y8093501D02*
X24937568Y8141120D01*
X24937568Y8141120D02*
X24842330Y8236359D01*
X24842330Y8236359D02*
X24794711Y8426835D01*
X24794711Y8426835D02*
X24794711Y8760168D01*
X24794711Y8760168D02*
X24842330Y8950644D01*
X24842330Y8950644D02*
X24937568Y9045882D01*
X24937568Y9045882D02*
X25032806Y9093501D01*
X26080425Y9093501D02*
X26175663Y9093501D01*
X26175663Y9093501D02*
X26270901Y9045882D01*
X26270901Y9045882D02*
X26318520Y8998263D01*
X26318520Y8998263D02*
X26366139Y8903025D01*
X26366139Y8903025D02*
X26413758Y8712549D01*
X26413758Y8712549D02*
X26413758Y8474454D01*
X26413758Y8474454D02*
X26366139Y8283978D01*
X26366139Y8283978D02*
X26318520Y8188740D01*
X26318520Y8188740D02*
X26270901Y8141120D01*
X26270901Y8141120D02*
X26175663Y8093501D01*
X26175663Y8093501D02*
X26080425Y8093501D01*
X26080425Y8093501D02*
X25985187Y8141120D01*
X25985187Y8141120D02*
X25937568Y8188740D01*
X25937568Y8188740D02*
X25889949Y8283978D01*
X25889949Y8283978D02*
X25842330Y8474454D01*
X25842330Y8474454D02*
X25842330Y8712549D01*
X25842330Y8712549D02*
X25889949Y8903025D01*
X25889949Y8903025D02*
X25937568Y8998263D01*
X25937568Y8998263D02*
X25985187Y9045882D01*
X25985187Y9045882D02*
X26080425Y9093501D01*
X22889949Y24285882D02*
X22794711Y24333501D01*
X22794711Y24333501D02*
X22651854Y24333501D01*
X22651854Y24333501D02*
X22508997Y24285882D01*
X22508997Y24285882D02*
X22413759Y24190644D01*
X22413759Y24190644D02*
X22366140Y24095406D01*
X22366140Y24095406D02*
X22318521Y23904930D01*
X22318521Y23904930D02*
X22318521Y23762073D01*
X22318521Y23762073D02*
X22366140Y23571597D01*
X22366140Y23571597D02*
X22413759Y23476359D01*
X22413759Y23476359D02*
X22508997Y23381120D01*
X22508997Y23381120D02*
X22651854Y23333501D01*
X22651854Y23333501D02*
X22747092Y23333501D01*
X22747092Y23333501D02*
X22889949Y23381120D01*
X22889949Y23381120D02*
X22937568Y23428740D01*
X22937568Y23428740D02*
X22937568Y23762073D01*
X22937568Y23762073D02*
X22747092Y23762073D01*
X23366140Y23333501D02*
X23366140Y24333501D01*
X23366140Y24333501D02*
X23747092Y24333501D01*
X23747092Y24333501D02*
X23842330Y24285882D01*
X23842330Y24285882D02*
X23889949Y24238263D01*
X23889949Y24238263D02*
X23937568Y24143025D01*
X23937568Y24143025D02*
X23937568Y24000168D01*
X23937568Y24000168D02*
X23889949Y23904930D01*
X23889949Y23904930D02*
X23842330Y23857311D01*
X23842330Y23857311D02*
X23747092Y23809692D01*
X23747092Y23809692D02*
X23366140Y23809692D01*
X24366140Y23333501D02*
X24366140Y24333501D01*
X25032806Y24333501D02*
X25223282Y24333501D01*
X25223282Y24333501D02*
X25318520Y24285882D01*
X25318520Y24285882D02*
X25413758Y24190644D01*
X25413758Y24190644D02*
X25461377Y24000168D01*
X25461377Y24000168D02*
X25461377Y23666835D01*
X25461377Y23666835D02*
X25413758Y23476359D01*
X25413758Y23476359D02*
X25318520Y23381120D01*
X25318520Y23381120D02*
X25223282Y23333501D01*
X25223282Y23333501D02*
X25032806Y23333501D01*
X25032806Y23333501D02*
X24937568Y23381120D01*
X24937568Y23381120D02*
X24842330Y23476359D01*
X24842330Y23476359D02*
X24794711Y23666835D01*
X24794711Y23666835D02*
X24794711Y24000168D01*
X24794711Y24000168D02*
X24842330Y24190644D01*
X24842330Y24190644D02*
X24937568Y24285882D01*
X24937568Y24285882D02*
X25032806Y24333501D01*
X26318520Y24000168D02*
X26318520Y23333501D01*
X26080425Y24381120D02*
X25842330Y23666835D01*
X25842330Y23666835D02*
X26461377Y23666835D01*
X20080425Y5283501D02*
X20699472Y5283501D01*
X20699472Y5283501D02*
X20366139Y4902549D01*
X20366139Y4902549D02*
X20508996Y4902549D01*
X20508996Y4902549D02*
X20604234Y4854930D01*
X20604234Y4854930D02*
X20651853Y4807311D01*
X20651853Y4807311D02*
X20699472Y4712073D01*
X20699472Y4712073D02*
X20699472Y4473978D01*
X20699472Y4473978D02*
X20651853Y4378740D01*
X20651853Y4378740D02*
X20604234Y4331120D01*
X20604234Y4331120D02*
X20508996Y4283501D01*
X20508996Y4283501D02*
X20223282Y4283501D01*
X20223282Y4283501D02*
X20128044Y4331120D01*
X20128044Y4331120D02*
X20080425Y4378740D01*
X20985187Y5283501D02*
X21318520Y4283501D01*
X21318520Y4283501D02*
X21651853Y5283501D01*
X21889949Y5283501D02*
X22508996Y5283501D01*
X22508996Y5283501D02*
X22175663Y4902549D01*
X22175663Y4902549D02*
X22318520Y4902549D01*
X22318520Y4902549D02*
X22413758Y4854930D01*
X22413758Y4854930D02*
X22461377Y4807311D01*
X22461377Y4807311D02*
X22508996Y4712073D01*
X22508996Y4712073D02*
X22508996Y4473978D01*
X22508996Y4473978D02*
X22461377Y4378740D01*
X22461377Y4378740D02*
X22413758Y4331120D01*
X22413758Y4331120D02*
X22318520Y4283501D01*
X22318520Y4283501D02*
X22032806Y4283501D01*
X22032806Y4283501D02*
X21937568Y4331120D01*
X21937568Y4331120D02*
X21889949Y4378740D01*
X23699473Y4283501D02*
X23699473Y5283501D01*
X23699473Y5283501D02*
X24080425Y5283501D01*
X24080425Y5283501D02*
X24175663Y5235882D01*
X24175663Y5235882D02*
X24223282Y5188263D01*
X24223282Y5188263D02*
X24270901Y5093025D01*
X24270901Y5093025D02*
X24270901Y4950168D01*
X24270901Y4950168D02*
X24223282Y4854930D01*
X24223282Y4854930D02*
X24175663Y4807311D01*
X24175663Y4807311D02*
X24080425Y4759692D01*
X24080425Y4759692D02*
X23699473Y4759692D01*
X24604235Y5283501D02*
X24842330Y4283501D01*
X24842330Y4283501D02*
X25032806Y4997787D01*
X25032806Y4997787D02*
X25223282Y4283501D01*
X25223282Y4283501D02*
X25461378Y5283501D01*
X26413758Y4283501D02*
X26080425Y4759692D01*
X25842330Y4283501D02*
X25842330Y5283501D01*
X25842330Y5283501D02*
X26223282Y5283501D01*
X26223282Y5283501D02*
X26318520Y5235882D01*
X26318520Y5235882D02*
X26366139Y5188263D01*
X26366139Y5188263D02*
X26413758Y5093025D01*
X26413758Y5093025D02*
X26413758Y4950168D01*
X26413758Y4950168D02*
X26366139Y4854930D01*
X26366139Y4854930D02*
X26318520Y4807311D01*
X26318520Y4807311D02*
X26223282Y4759692D01*
X26223282Y4759692D02*
X25842330Y4759692D01*
X29164338Y12241654D02*
X28688147Y11908321D01*
X29164338Y11670226D02*
X28164338Y11670226D01*
X28164338Y11670226D02*
X28164338Y12051178D01*
X28164338Y12051178D02*
X28211957Y12146416D01*
X28211957Y12146416D02*
X28259576Y12194035D01*
X28259576Y12194035D02*
X28354814Y12241654D01*
X28354814Y12241654D02*
X28497671Y12241654D01*
X28497671Y12241654D02*
X28592909Y12194035D01*
X28592909Y12194035D02*
X28640528Y12146416D01*
X28640528Y12146416D02*
X28688147Y12051178D01*
X28688147Y12051178D02*
X28688147Y11670226D01*
X28497671Y13098797D02*
X29164338Y13098797D01*
X28116719Y12860702D02*
X28831004Y12622607D01*
X28831004Y12622607D02*
X28831004Y13241654D01*
X-4223148Y7785120D02*
X-4270767Y7737500D01*
X-4270767Y7737500D02*
X-4413624Y7689881D01*
X-4413624Y7689881D02*
X-4508862Y7689881D01*
X-4508862Y7689881D02*
X-4651719Y7737500D01*
X-4651719Y7737500D02*
X-4746957Y7832739D01*
X-4746957Y7832739D02*
X-4794576Y7927977D01*
X-4794576Y7927977D02*
X-4842195Y8118453D01*
X-4842195Y8118453D02*
X-4842195Y8261310D01*
X-4842195Y8261310D02*
X-4794576Y8451786D01*
X-4794576Y8451786D02*
X-4746957Y8547024D01*
X-4746957Y8547024D02*
X-4651719Y8642262D01*
X-4651719Y8642262D02*
X-4508862Y8689881D01*
X-4508862Y8689881D02*
X-4413624Y8689881D01*
X-4413624Y8689881D02*
X-4270767Y8642262D01*
X-4270767Y8642262D02*
X-4223148Y8594643D01*
X-3270767Y7689881D02*
X-3842195Y7689881D01*
X-3556481Y7689881D02*
X-3556481Y8689881D01*
X-3556481Y8689881D02*
X-3651719Y8547024D01*
X-3651719Y8547024D02*
X-3746957Y8451786D01*
X-3746957Y8451786D02*
X-3842195Y8404167D01*
X18636852Y21484420D02*
X18589233Y21436800D01*
X18589233Y21436800D02*
X18446376Y21389181D01*
X18446376Y21389181D02*
X18351138Y21389181D01*
X18351138Y21389181D02*
X18208281Y21436800D01*
X18208281Y21436800D02*
X18113043Y21532039D01*
X18113043Y21532039D02*
X18065424Y21627277D01*
X18065424Y21627277D02*
X18017805Y21817753D01*
X18017805Y21817753D02*
X18017805Y21960610D01*
X18017805Y21960610D02*
X18065424Y22151086D01*
X18065424Y22151086D02*
X18113043Y22246324D01*
X18113043Y22246324D02*
X18208281Y22341562D01*
X18208281Y22341562D02*
X18351138Y22389181D01*
X18351138Y22389181D02*
X18446376Y22389181D01*
X18446376Y22389181D02*
X18589233Y22341562D01*
X18589233Y22341562D02*
X18636852Y22293943D01*
X19493995Y22055848D02*
X19493995Y21389181D01*
X19255900Y22436800D02*
X19017805Y21722515D01*
X19017805Y21722515D02*
X19636852Y21722515D01*
X30689457Y238441D02*
X29687040Y238441D01*
X29687040Y238441D02*
X29687040Y477112D01*
X29687040Y477112D02*
X29734774Y620314D01*
X29734774Y620314D02*
X29830242Y715783D01*
X29830242Y715783D02*
X29925710Y763517D01*
X29925710Y763517D02*
X30116647Y811251D01*
X30116647Y811251D02*
X30259849Y811251D01*
X30259849Y811251D02*
X30450786Y763517D01*
X30450786Y763517D02*
X30546254Y715783D01*
X30546254Y715783D02*
X30641723Y620314D01*
X30641723Y620314D02*
X30689457Y477112D01*
X30689457Y477112D02*
X30689457Y238441D01*
X30689457Y1765934D02*
X30689457Y1193124D01*
X30689457Y1479529D02*
X29687040Y1479529D01*
X29687040Y1479529D02*
X29830242Y1384061D01*
X29830242Y1384061D02*
X29925710Y1288592D01*
X29925710Y1288592D02*
X29973445Y1193124D01*
X30689457Y7858441D02*
X29687040Y7858441D01*
X29687040Y7858441D02*
X29687040Y8097112D01*
X29687040Y8097112D02*
X29734774Y8240314D01*
X29734774Y8240314D02*
X29830242Y8335783D01*
X29830242Y8335783D02*
X29925710Y8383517D01*
X29925710Y8383517D02*
X30116647Y8431251D01*
X30116647Y8431251D02*
X30259849Y8431251D01*
X30259849Y8431251D02*
X30450786Y8383517D01*
X30450786Y8383517D02*
X30546254Y8335783D01*
X30546254Y8335783D02*
X30641723Y8240314D01*
X30641723Y8240314D02*
X30689457Y8097112D01*
X30689457Y8097112D02*
X30689457Y7858441D01*
X29687040Y8765390D02*
X29687040Y9385934D01*
X29687040Y9385934D02*
X30068913Y9051795D01*
X30068913Y9051795D02*
X30068913Y9194997D01*
X30068913Y9194997D02*
X30116647Y9290465D01*
X30116647Y9290465D02*
X30164381Y9338200D01*
X30164381Y9338200D02*
X30259849Y9385934D01*
X30259849Y9385934D02*
X30498520Y9385934D01*
X30498520Y9385934D02*
X30593988Y9338200D01*
X30593988Y9338200D02*
X30641723Y9290465D01*
X30641723Y9290465D02*
X30689457Y9194997D01*
X30689457Y9194997D02*
X30689457Y8908592D01*
X30689457Y8908592D02*
X30641723Y8813124D01*
X30641723Y8813124D02*
X30593988Y8765390D01*
X29164338Y811654D02*
X28688147Y478321D01*
X29164338Y240226D02*
X28164338Y240226D01*
X28164338Y240226D02*
X28164338Y621178D01*
X28164338Y621178D02*
X28211957Y716416D01*
X28211957Y716416D02*
X28259576Y764035D01*
X28259576Y764035D02*
X28354814Y811654D01*
X28354814Y811654D02*
X28497671Y811654D01*
X28497671Y811654D02*
X28592909Y764035D01*
X28592909Y764035D02*
X28640528Y716416D01*
X28640528Y716416D02*
X28688147Y621178D01*
X28688147Y621178D02*
X28688147Y240226D01*
X29164338Y1764035D02*
X29164338Y1192607D01*
X29164338Y1478321D02*
X28164338Y1478321D01*
X28164338Y1478321D02*
X28307195Y1383083D01*
X28307195Y1383083D02*
X28402433Y1287845D01*
X28402433Y1287845D02*
X28450052Y1192607D01*
X-4223148Y9309120D02*
X-4270767Y9261500D01*
X-4270767Y9261500D02*
X-4413624Y9213881D01*
X-4413624Y9213881D02*
X-4508862Y9213881D01*
X-4508862Y9213881D02*
X-4651719Y9261500D01*
X-4651719Y9261500D02*
X-4746957Y9356739D01*
X-4746957Y9356739D02*
X-4794576Y9451977D01*
X-4794576Y9451977D02*
X-4842195Y9642453D01*
X-4842195Y9642453D02*
X-4842195Y9785310D01*
X-4842195Y9785310D02*
X-4794576Y9975786D01*
X-4794576Y9975786D02*
X-4746957Y10071024D01*
X-4746957Y10071024D02*
X-4651719Y10166262D01*
X-4651719Y10166262D02*
X-4508862Y10213881D01*
X-4508862Y10213881D02*
X-4413624Y10213881D01*
X-4413624Y10213881D02*
X-4270767Y10166262D01*
X-4270767Y10166262D02*
X-4223148Y10118643D01*
X-3842195Y10118643D02*
X-3794576Y10166262D01*
X-3794576Y10166262D02*
X-3699338Y10213881D01*
X-3699338Y10213881D02*
X-3461243Y10213881D01*
X-3461243Y10213881D02*
X-3366005Y10166262D01*
X-3366005Y10166262D02*
X-3318386Y10118643D01*
X-3318386Y10118643D02*
X-3270767Y10023405D01*
X-3270767Y10023405D02*
X-3270767Y9928167D01*
X-3270767Y9928167D02*
X-3318386Y9785310D01*
X-3318386Y9785310D02*
X-3889814Y9213881D01*
X-3889814Y9213881D02*
X-3270767Y9213881D01*
X-4141868Y18982099D02*
X-4189487Y18934479D01*
X-4189487Y18934479D02*
X-4332344Y18886860D01*
X-4332344Y18886860D02*
X-4427582Y18886860D01*
X-4427582Y18886860D02*
X-4570439Y18934479D01*
X-4570439Y18934479D02*
X-4665677Y19029718D01*
X-4665677Y19029718D02*
X-4713296Y19124956D01*
X-4713296Y19124956D02*
X-4760915Y19315432D01*
X-4760915Y19315432D02*
X-4760915Y19458289D01*
X-4760915Y19458289D02*
X-4713296Y19648765D01*
X-4713296Y19648765D02*
X-4665677Y19744003D01*
X-4665677Y19744003D02*
X-4570439Y19839241D01*
X-4570439Y19839241D02*
X-4427582Y19886860D01*
X-4427582Y19886860D02*
X-4332344Y19886860D01*
X-4332344Y19886860D02*
X-4189487Y19839241D01*
X-4189487Y19839241D02*
X-4141868Y19791622D01*
X-3808534Y19886860D02*
X-3189487Y19886860D01*
X-3189487Y19886860D02*
X-3522820Y19505908D01*
X-3522820Y19505908D02*
X-3379963Y19505908D01*
X-3379963Y19505908D02*
X-3284725Y19458289D01*
X-3284725Y19458289D02*
X-3237106Y19410670D01*
X-3237106Y19410670D02*
X-3189487Y19315432D01*
X-3189487Y19315432D02*
X-3189487Y19077337D01*
X-3189487Y19077337D02*
X-3237106Y18982099D01*
X-3237106Y18982099D02*
X-3284725Y18934479D01*
X-3284725Y18934479D02*
X-3379963Y18886860D01*
X-3379963Y18886860D02*
X-3665677Y18886860D01*
X-3665677Y18886860D02*
X-3760915Y18934479D01*
X-3760915Y18934479D02*
X-3808534Y18982099D01*
X14866614Y22389181D02*
X14866614Y21579658D01*
X14866614Y21579658D02*
X14914233Y21484420D01*
X14914233Y21484420D02*
X14961852Y21436800D01*
X14961852Y21436800D02*
X15057090Y21389181D01*
X15057090Y21389181D02*
X15247566Y21389181D01*
X15247566Y21389181D02*
X15342804Y21436800D01*
X15342804Y21436800D02*
X15390423Y21484420D01*
X15390423Y21484420D02*
X15438042Y21579658D01*
X15438042Y21579658D02*
X15438042Y22389181D01*
X16438042Y21389181D02*
X15866614Y21389181D01*
X16152328Y21389181D02*
X16152328Y22389181D01*
X16152328Y22389181D02*
X16057090Y22246324D01*
X16057090Y22246324D02*
X15961852Y22151086D01*
X15961852Y22151086D02*
X15866614Y22103467D01*
X29070338Y16051654D02*
X28594147Y15718321D01*
X29070338Y15480226D02*
X28070338Y15480226D01*
X28070338Y15480226D02*
X28070338Y15861178D01*
X28070338Y15861178D02*
X28117957Y15956416D01*
X28117957Y15956416D02*
X28165576Y16004035D01*
X28165576Y16004035D02*
X28260814Y16051654D01*
X28260814Y16051654D02*
X28403671Y16051654D01*
X28403671Y16051654D02*
X28498909Y16004035D01*
X28498909Y16004035D02*
X28546528Y15956416D01*
X28546528Y15956416D02*
X28594147Y15861178D01*
X28594147Y15861178D02*
X28594147Y15480226D01*
X28070338Y16956416D02*
X28070338Y16480226D01*
X28070338Y16480226D02*
X28546528Y16432607D01*
X28546528Y16432607D02*
X28498909Y16480226D01*
X28498909Y16480226D02*
X28451290Y16575464D01*
X28451290Y16575464D02*
X28451290Y16813559D01*
X28451290Y16813559D02*
X28498909Y16908797D01*
X28498909Y16908797D02*
X28546528Y16956416D01*
X28546528Y16956416D02*
X28641766Y17004035D01*
X28641766Y17004035D02*
X28879861Y17004035D01*
X28879861Y17004035D02*
X28975099Y16956416D01*
X28975099Y16956416D02*
X29022719Y16908797D01*
X29022719Y16908797D02*
X29070338Y16813559D01*
X29070338Y16813559D02*
X29070338Y16575464D01*
X29070338Y16575464D02*
X29022719Y16480226D01*
X29022719Y16480226D02*
X28975099Y16432607D01*
X30689457Y23098441D02*
X29687040Y23098441D01*
X29687040Y23098441D02*
X29687040Y23337112D01*
X29687040Y23337112D02*
X29734774Y23480314D01*
X29734774Y23480314D02*
X29830242Y23575783D01*
X29830242Y23575783D02*
X29925710Y23623517D01*
X29925710Y23623517D02*
X30116647Y23671251D01*
X30116647Y23671251D02*
X30259849Y23671251D01*
X30259849Y23671251D02*
X30450786Y23623517D01*
X30450786Y23623517D02*
X30546254Y23575783D01*
X30546254Y23575783D02*
X30641723Y23480314D01*
X30641723Y23480314D02*
X30689457Y23337112D01*
X30689457Y23337112D02*
X30689457Y23098441D01*
X29687040Y24005390D02*
X29687040Y24673668D01*
X29687040Y24673668D02*
X30689457Y24244061D01*
X29164338Y8431654D02*
X28688147Y8098321D01*
X29164338Y7860226D02*
X28164338Y7860226D01*
X28164338Y7860226D02*
X28164338Y8241178D01*
X28164338Y8241178D02*
X28211957Y8336416D01*
X28211957Y8336416D02*
X28259576Y8384035D01*
X28259576Y8384035D02*
X28354814Y8431654D01*
X28354814Y8431654D02*
X28497671Y8431654D01*
X28497671Y8431654D02*
X28592909Y8384035D01*
X28592909Y8384035D02*
X28640528Y8336416D01*
X28640528Y8336416D02*
X28688147Y8241178D01*
X28688147Y8241178D02*
X28688147Y7860226D01*
X28164338Y8764988D02*
X28164338Y9384035D01*
X28164338Y9384035D02*
X28545290Y9050702D01*
X28545290Y9050702D02*
X28545290Y9193559D01*
X28545290Y9193559D02*
X28592909Y9288797D01*
X28592909Y9288797D02*
X28640528Y9336416D01*
X28640528Y9336416D02*
X28735766Y9384035D01*
X28735766Y9384035D02*
X28973861Y9384035D01*
X28973861Y9384035D02*
X29069099Y9336416D01*
X29069099Y9336416D02*
X29116719Y9288797D01*
X29116719Y9288797D02*
X29164338Y9193559D01*
X29164338Y9193559D02*
X29164338Y8907845D01*
X29164338Y8907845D02*
X29116719Y8812607D01*
X29116719Y8812607D02*
X29069099Y8764988D01*
X29037338Y27481654D02*
X28561147Y27148321D01*
X29037338Y26910226D02*
X28037338Y26910226D01*
X28037338Y26910226D02*
X28037338Y27291178D01*
X28037338Y27291178D02*
X28084957Y27386416D01*
X28084957Y27386416D02*
X28132576Y27434035D01*
X28132576Y27434035D02*
X28227814Y27481654D01*
X28227814Y27481654D02*
X28370671Y27481654D01*
X28370671Y27481654D02*
X28465909Y27434035D01*
X28465909Y27434035D02*
X28513528Y27386416D01*
X28513528Y27386416D02*
X28561147Y27291178D01*
X28561147Y27291178D02*
X28561147Y26910226D01*
X28465909Y28053083D02*
X28418290Y27957845D01*
X28418290Y27957845D02*
X28370671Y27910226D01*
X28370671Y27910226D02*
X28275433Y27862607D01*
X28275433Y27862607D02*
X28227814Y27862607D01*
X28227814Y27862607D02*
X28132576Y27910226D01*
X28132576Y27910226D02*
X28084957Y27957845D01*
X28084957Y27957845D02*
X28037338Y28053083D01*
X28037338Y28053083D02*
X28037338Y28243559D01*
X28037338Y28243559D02*
X28084957Y28338797D01*
X28084957Y28338797D02*
X28132576Y28386416D01*
X28132576Y28386416D02*
X28227814Y28434035D01*
X28227814Y28434035D02*
X28275433Y28434035D01*
X28275433Y28434035D02*
X28370671Y28386416D01*
X28370671Y28386416D02*
X28418290Y28338797D01*
X28418290Y28338797D02*
X28465909Y28243559D01*
X28465909Y28243559D02*
X28465909Y28053083D01*
X28465909Y28053083D02*
X28513528Y27957845D01*
X28513528Y27957845D02*
X28561147Y27910226D01*
X28561147Y27910226D02*
X28656385Y27862607D01*
X28656385Y27862607D02*
X28846861Y27862607D01*
X28846861Y27862607D02*
X28942099Y27910226D01*
X28942099Y27910226D02*
X28989719Y27957845D01*
X28989719Y27957845D02*
X29037338Y28053083D01*
X29037338Y28053083D02*
X29037338Y28243559D01*
X29037338Y28243559D02*
X28989719Y28338797D01*
X28989719Y28338797D02*
X28942099Y28386416D01*
X28942099Y28386416D02*
X28846861Y28434035D01*
X28846861Y28434035D02*
X28656385Y28434035D01*
X28656385Y28434035D02*
X28561147Y28386416D01*
X28561147Y28386416D02*
X28513528Y28338797D01*
X28513528Y28338797D02*
X28465909Y28243559D01*
X30689457Y15478441D02*
X29687040Y15478441D01*
X29687040Y15478441D02*
X29687040Y15717112D01*
X29687040Y15717112D02*
X29734774Y15860314D01*
X29734774Y15860314D02*
X29830242Y15955783D01*
X29830242Y15955783D02*
X29925710Y16003517D01*
X29925710Y16003517D02*
X30116647Y16051251D01*
X30116647Y16051251D02*
X30259849Y16051251D01*
X30259849Y16051251D02*
X30450786Y16003517D01*
X30450786Y16003517D02*
X30546254Y15955783D01*
X30546254Y15955783D02*
X30641723Y15860314D01*
X30641723Y15860314D02*
X30689457Y15717112D01*
X30689457Y15717112D02*
X30689457Y15478441D01*
X29687040Y16958200D02*
X29687040Y16480858D01*
X29687040Y16480858D02*
X30164381Y16433124D01*
X30164381Y16433124D02*
X30116647Y16480858D01*
X30116647Y16480858D02*
X30068913Y16576326D01*
X30068913Y16576326D02*
X30068913Y16814997D01*
X30068913Y16814997D02*
X30116647Y16910465D01*
X30116647Y16910465D02*
X30164381Y16958200D01*
X30164381Y16958200D02*
X30259849Y17005934D01*
X30259849Y17005934D02*
X30498520Y17005934D01*
X30498520Y17005934D02*
X30593988Y16958200D01*
X30593988Y16958200D02*
X30641723Y16910465D01*
X30641723Y16910465D02*
X30689457Y16814997D01*
X30689457Y16814997D02*
X30689457Y16576326D01*
X30689457Y16576326D02*
X30641723Y16480858D01*
X30641723Y16480858D02*
X30593988Y16433124D01*
X30689457Y4048441D02*
X29687040Y4048441D01*
X29687040Y4048441D02*
X29687040Y4287112D01*
X29687040Y4287112D02*
X29734774Y4430314D01*
X29734774Y4430314D02*
X29830242Y4525783D01*
X29830242Y4525783D02*
X29925710Y4573517D01*
X29925710Y4573517D02*
X30116647Y4621251D01*
X30116647Y4621251D02*
X30259849Y4621251D01*
X30259849Y4621251D02*
X30450786Y4573517D01*
X30450786Y4573517D02*
X30546254Y4525783D01*
X30546254Y4525783D02*
X30641723Y4430314D01*
X30641723Y4430314D02*
X30689457Y4287112D01*
X30689457Y4287112D02*
X30689457Y4048441D01*
X29782508Y5003124D02*
X29734774Y5050858D01*
X29734774Y5050858D02*
X29687040Y5146326D01*
X29687040Y5146326D02*
X29687040Y5384997D01*
X29687040Y5384997D02*
X29734774Y5480465D01*
X29734774Y5480465D02*
X29782508Y5528200D01*
X29782508Y5528200D02*
X29877976Y5575934D01*
X29877976Y5575934D02*
X29973445Y5575934D01*
X29973445Y5575934D02*
X30116647Y5528200D01*
X30116647Y5528200D02*
X30689457Y4955390D01*
X30689457Y4955390D02*
X30689457Y5575934D01*
X29070338Y19861654D02*
X28594147Y19528321D01*
X29070338Y19290226D02*
X28070338Y19290226D01*
X28070338Y19290226D02*
X28070338Y19671178D01*
X28070338Y19671178D02*
X28117957Y19766416D01*
X28117957Y19766416D02*
X28165576Y19814035D01*
X28165576Y19814035D02*
X28260814Y19861654D01*
X28260814Y19861654D02*
X28403671Y19861654D01*
X28403671Y19861654D02*
X28498909Y19814035D01*
X28498909Y19814035D02*
X28546528Y19766416D01*
X28546528Y19766416D02*
X28594147Y19671178D01*
X28594147Y19671178D02*
X28594147Y19290226D01*
X28070338Y20718797D02*
X28070338Y20528321D01*
X28070338Y20528321D02*
X28117957Y20433083D01*
X28117957Y20433083D02*
X28165576Y20385464D01*
X28165576Y20385464D02*
X28308433Y20290226D01*
X28308433Y20290226D02*
X28498909Y20242607D01*
X28498909Y20242607D02*
X28879861Y20242607D01*
X28879861Y20242607D02*
X28975099Y20290226D01*
X28975099Y20290226D02*
X29022719Y20337845D01*
X29022719Y20337845D02*
X29070338Y20433083D01*
X29070338Y20433083D02*
X29070338Y20623559D01*
X29070338Y20623559D02*
X29022719Y20718797D01*
X29022719Y20718797D02*
X28975099Y20766416D01*
X28975099Y20766416D02*
X28879861Y20814035D01*
X28879861Y20814035D02*
X28641766Y20814035D01*
X28641766Y20814035D02*
X28546528Y20766416D01*
X28546528Y20766416D02*
X28498909Y20718797D01*
X28498909Y20718797D02*
X28451290Y20623559D01*
X28451290Y20623559D02*
X28451290Y20433083D01*
X28451290Y20433083D02*
X28498909Y20337845D01*
X28498909Y20337845D02*
X28546528Y20290226D01*
X28546528Y20290226D02*
X28641766Y20242607D01*
X30689457Y26908441D02*
X29687040Y26908441D01*
X29687040Y26908441D02*
X29687040Y27147112D01*
X29687040Y27147112D02*
X29734774Y27290314D01*
X29734774Y27290314D02*
X29830242Y27385783D01*
X29830242Y27385783D02*
X29925710Y27433517D01*
X29925710Y27433517D02*
X30116647Y27481251D01*
X30116647Y27481251D02*
X30259849Y27481251D01*
X30259849Y27481251D02*
X30450786Y27433517D01*
X30450786Y27433517D02*
X30546254Y27385783D01*
X30546254Y27385783D02*
X30641723Y27290314D01*
X30641723Y27290314D02*
X30689457Y27147112D01*
X30689457Y27147112D02*
X30689457Y26908441D01*
X30116647Y28054061D02*
X30068913Y27958592D01*
X30068913Y27958592D02*
X30021179Y27910858D01*
X30021179Y27910858D02*
X29925710Y27863124D01*
X29925710Y27863124D02*
X29877976Y27863124D01*
X29877976Y27863124D02*
X29782508Y27910858D01*
X29782508Y27910858D02*
X29734774Y27958592D01*
X29734774Y27958592D02*
X29687040Y28054061D01*
X29687040Y28054061D02*
X29687040Y28244997D01*
X29687040Y28244997D02*
X29734774Y28340465D01*
X29734774Y28340465D02*
X29782508Y28388200D01*
X29782508Y28388200D02*
X29877976Y28435934D01*
X29877976Y28435934D02*
X29925710Y28435934D01*
X29925710Y28435934D02*
X30021179Y28388200D01*
X30021179Y28388200D02*
X30068913Y28340465D01*
X30068913Y28340465D02*
X30116647Y28244997D01*
X30116647Y28244997D02*
X30116647Y28054061D01*
X30116647Y28054061D02*
X30164381Y27958592D01*
X30164381Y27958592D02*
X30212115Y27910858D01*
X30212115Y27910858D02*
X30307584Y27863124D01*
X30307584Y27863124D02*
X30498520Y27863124D01*
X30498520Y27863124D02*
X30593988Y27910858D01*
X30593988Y27910858D02*
X30641723Y27958592D01*
X30641723Y27958592D02*
X30689457Y28054061D01*
X30689457Y28054061D02*
X30689457Y28244997D01*
X30689457Y28244997D02*
X30641723Y28340465D01*
X30641723Y28340465D02*
X30593988Y28388200D01*
X30593988Y28388200D02*
X30498520Y28435934D01*
X30498520Y28435934D02*
X30307584Y28435934D01*
X30307584Y28435934D02*
X30212115Y28388200D01*
X30212115Y28388200D02*
X30164381Y28340465D01*
X30164381Y28340465D02*
X30116647Y28244997D01*
X30689457Y11668441D02*
X29687040Y11668441D01*
X29687040Y11668441D02*
X29687040Y11907112D01*
X29687040Y11907112D02*
X29734774Y12050314D01*
X29734774Y12050314D02*
X29830242Y12145783D01*
X29830242Y12145783D02*
X29925710Y12193517D01*
X29925710Y12193517D02*
X30116647Y12241251D01*
X30116647Y12241251D02*
X30259849Y12241251D01*
X30259849Y12241251D02*
X30450786Y12193517D01*
X30450786Y12193517D02*
X30546254Y12145783D01*
X30546254Y12145783D02*
X30641723Y12050314D01*
X30641723Y12050314D02*
X30689457Y11907112D01*
X30689457Y11907112D02*
X30689457Y11668441D01*
X30021179Y13100465D02*
X30689457Y13100465D01*
X29639306Y12861795D02*
X30355318Y12623124D01*
X30355318Y12623124D02*
X30355318Y13243668D01*
X29070338Y23671654D02*
X28594147Y23338321D01*
X29070338Y23100226D02*
X28070338Y23100226D01*
X28070338Y23100226D02*
X28070338Y23481178D01*
X28070338Y23481178D02*
X28117957Y23576416D01*
X28117957Y23576416D02*
X28165576Y23624035D01*
X28165576Y23624035D02*
X28260814Y23671654D01*
X28260814Y23671654D02*
X28403671Y23671654D01*
X28403671Y23671654D02*
X28498909Y23624035D01*
X28498909Y23624035D02*
X28546528Y23576416D01*
X28546528Y23576416D02*
X28594147Y23481178D01*
X28594147Y23481178D02*
X28594147Y23100226D01*
X28070338Y24004988D02*
X28070338Y24671654D01*
X28070338Y24671654D02*
X29070338Y24243083D01*
X30689457Y19288441D02*
X29687040Y19288441D01*
X29687040Y19288441D02*
X29687040Y19527112D01*
X29687040Y19527112D02*
X29734774Y19670314D01*
X29734774Y19670314D02*
X29830242Y19765783D01*
X29830242Y19765783D02*
X29925710Y19813517D01*
X29925710Y19813517D02*
X30116647Y19861251D01*
X30116647Y19861251D02*
X30259849Y19861251D01*
X30259849Y19861251D02*
X30450786Y19813517D01*
X30450786Y19813517D02*
X30546254Y19765783D01*
X30546254Y19765783D02*
X30641723Y19670314D01*
X30641723Y19670314D02*
X30689457Y19527112D01*
X30689457Y19527112D02*
X30689457Y19288441D01*
X29687040Y20720465D02*
X29687040Y20529529D01*
X29687040Y20529529D02*
X29734774Y20434061D01*
X29734774Y20434061D02*
X29782508Y20386326D01*
X29782508Y20386326D02*
X29925710Y20290858D01*
X29925710Y20290858D02*
X30116647Y20243124D01*
X30116647Y20243124D02*
X30498520Y20243124D01*
X30498520Y20243124D02*
X30593988Y20290858D01*
X30593988Y20290858D02*
X30641723Y20338592D01*
X30641723Y20338592D02*
X30689457Y20434061D01*
X30689457Y20434061D02*
X30689457Y20624997D01*
X30689457Y20624997D02*
X30641723Y20720465D01*
X30641723Y20720465D02*
X30593988Y20768200D01*
X30593988Y20768200D02*
X30498520Y20815934D01*
X30498520Y20815934D02*
X30259849Y20815934D01*
X30259849Y20815934D02*
X30164381Y20768200D01*
X30164381Y20768200D02*
X30116647Y20720465D01*
X30116647Y20720465D02*
X30068913Y20624997D01*
X30068913Y20624997D02*
X30068913Y20434061D01*
X30068913Y20434061D02*
X30116647Y20338592D01*
X30116647Y20338592D02*
X30164381Y20290858D01*
X30164381Y20290858D02*
X30259849Y20243124D01*
X29164338Y4621654D02*
X28688147Y4288321D01*
X29164338Y4050226D02*
X28164338Y4050226D01*
X28164338Y4050226D02*
X28164338Y4431178D01*
X28164338Y4431178D02*
X28211957Y4526416D01*
X28211957Y4526416D02*
X28259576Y4574035D01*
X28259576Y4574035D02*
X28354814Y4621654D01*
X28354814Y4621654D02*
X28497671Y4621654D01*
X28497671Y4621654D02*
X28592909Y4574035D01*
X28592909Y4574035D02*
X28640528Y4526416D01*
X28640528Y4526416D02*
X28688147Y4431178D01*
X28688147Y4431178D02*
X28688147Y4050226D01*
X28259576Y5002607D02*
X28211957Y5050226D01*
X28211957Y5050226D02*
X28164338Y5145464D01*
X28164338Y5145464D02*
X28164338Y5383559D01*
X28164338Y5383559D02*
X28211957Y5478797D01*
X28211957Y5478797D02*
X28259576Y5526416D01*
X28259576Y5526416D02*
X28354814Y5574035D01*
X28354814Y5574035D02*
X28450052Y5574035D01*
X28450052Y5574035D02*
X28592909Y5526416D01*
X28592909Y5526416D02*
X29164338Y4954988D01*
X29164338Y4954988D02*
X29164338Y5574035D01*
D10*
%TO.C,R4*%
X31235019Y12663044D02*
X31235019Y12153596D01*
X32280019Y12663044D02*
X32280019Y12153596D01*
%TO.C,C1*%
X-7707948Y8638000D02*
X-7415414Y8638000D01*
X-7707948Y7618000D02*
X-7415414Y7618000D01*
%TO.C,C4*%
X19082936Y20830000D02*
X18790402Y20830000D01*
X19082936Y19810000D02*
X18790402Y19810000D01*
%TO.C,D1*%
X32666839Y2615620D02*
X32666839Y330620D01*
X33988839Y1585620D02*
X34248839Y1585620D01*
X33988839Y385620D02*
X34248839Y385620D01*
X34136839Y2615620D02*
X32666839Y2615620D01*
X34182839Y330620D02*
X34182839Y2615620D01*
X34248839Y1585620D02*
X34248839Y385620D01*
%TO.C,D3*%
X32666839Y10235620D02*
X32666839Y7950620D01*
X33988839Y9205620D02*
X34248839Y9205620D01*
X33988839Y8005620D02*
X34248839Y8005620D01*
X34136839Y10235620D02*
X32666839Y10235620D01*
X34182839Y7950620D02*
X34182839Y10235620D01*
X34248839Y9205620D02*
X34248839Y8005620D01*
%TO.C,R1*%
X31235019Y1233044D02*
X31235019Y723596D01*
X32280019Y1233044D02*
X32280019Y723596D01*
%TO.C,C2*%
X-7707948Y10162000D02*
X-7415414Y10162000D01*
X-7707948Y9142000D02*
X-7415414Y9142000D01*
%TO.C,C3*%
X-7580948Y19851679D02*
X-7288414Y19851679D01*
X-7580948Y18831679D02*
X-7288414Y18831679D01*
%TO.C,U1*%
X16879669Y19092000D02*
X14679669Y19092000D01*
X16879669Y19092000D02*
X19079669Y19092000D01*
X16879669Y12322000D02*
X14679669Y12322000D01*
X16879669Y12322000D02*
X19079669Y12322000D01*
X13019669Y18632000D02*
X12689669Y18392000D01*
X12689669Y18872000D01*
X13019669Y18632000D01*
G36*
X13019669Y18632000D02*
G01*
X12689669Y18392000D01*
X12689669Y18872000D01*
X13019669Y18632000D01*
G37*
%TO.C,R5*%
X31235019Y16473044D02*
X31235019Y15963596D01*
X32280019Y16473044D02*
X32280019Y15963596D01*
%TO.C,D7*%
X32666839Y25475620D02*
X32666839Y23190620D01*
X33988839Y24445620D02*
X34248839Y24445620D01*
X33988839Y23245620D02*
X34248839Y23245620D01*
X34136839Y25475620D02*
X32666839Y25475620D01*
X34182839Y23190620D02*
X34182839Y25475620D01*
X34248839Y24445620D02*
X34248839Y23245620D01*
%TO.C,R3*%
X31235019Y8853044D02*
X31235019Y8343596D01*
X32280019Y8853044D02*
X32280019Y8343596D01*
%TO.C,R8*%
X31235019Y27903044D02*
X31235019Y27393596D01*
X32280019Y27903044D02*
X32280019Y27393596D01*
%TO.C,D5*%
X32666839Y17855620D02*
X32666839Y15570620D01*
X33988839Y16825620D02*
X34248839Y16825620D01*
X33988839Y15625620D02*
X34248839Y15625620D01*
X34136839Y17855620D02*
X32666839Y17855620D01*
X34182839Y15570620D02*
X34182839Y17855620D01*
X34248839Y16825620D02*
X34248839Y15625620D01*
%TO.C,D2*%
X32666839Y6425620D02*
X32666839Y4140620D01*
X33988839Y5395620D02*
X34248839Y5395620D01*
X33988839Y4195620D02*
X34248839Y4195620D01*
X34136839Y6425620D02*
X32666839Y6425620D01*
X34182839Y4140620D02*
X34182839Y6425620D01*
X34248839Y5395620D02*
X34248839Y4195620D01*
%TO.C,R6*%
X31235019Y20283044D02*
X31235019Y19773596D01*
X32280019Y20283044D02*
X32280019Y19773596D01*
%TO.C,D8*%
X32666839Y29285620D02*
X32666839Y27000620D01*
X33988839Y28255620D02*
X34248839Y28255620D01*
X33988839Y27055620D02*
X34248839Y27055620D01*
X34136839Y29285620D02*
X32666839Y29285620D01*
X34182839Y27000620D02*
X34182839Y29285620D01*
X34248839Y28255620D02*
X34248839Y27055620D01*
%TO.C,D4*%
X32666839Y14045620D02*
X32666839Y11760620D01*
X33988839Y13015620D02*
X34248839Y13015620D01*
X33988839Y11815620D02*
X34248839Y11815620D01*
X34136839Y14045620D02*
X32666839Y14045620D01*
X34182839Y11760620D02*
X34182839Y14045620D01*
X34248839Y13015620D02*
X34248839Y11815620D01*
%TO.C,R7*%
X31235019Y24093044D02*
X31235019Y23583596D01*
X32280019Y24093044D02*
X32280019Y23583596D01*
%TO.C,D6*%
X32666839Y21665620D02*
X32666839Y19380620D01*
X33988839Y20635620D02*
X34248839Y20635620D01*
X33988839Y19435620D02*
X34248839Y19435620D01*
X34136839Y21665620D02*
X32666839Y21665620D01*
X34182839Y19380620D02*
X34182839Y21665620D01*
X34248839Y20635620D02*
X34248839Y19435620D01*
%TO.C,R2*%
X31235019Y5043044D02*
X31235019Y4533596D01*
X32280019Y5043044D02*
X32280019Y4533596D01*
%TD*%
%LPC*%
D16*
%TO.C,H1*%
X17533519Y28575000D03*
%TD*%
%TO.C,H2*%
X17533519Y51641D03*
%TD*%
%TO.C,H3*%
X7519Y0D03*
%TD*%
D17*
%TO.C,R4*%
X31757519Y13320820D03*
X31757519Y11495820D03*
%TD*%
D18*
%TO.C,C1*%
X-8424181Y8128000D03*
X-6699181Y8128000D03*
%TD*%
D19*
%TO.C,C4*%
X19799169Y20320000D03*
X18074169Y20320000D03*
%TD*%
D20*
%TO.C,D1*%
X33428839Y1815620D03*
X33428839Y115620D03*
%TD*%
%TO.C,D3*%
X33428839Y9435620D03*
X33428839Y7735620D03*
%TD*%
D17*
%TO.C,R1*%
X31757519Y1890820D03*
X31757519Y65820D03*
%TD*%
D18*
%TO.C,C2*%
X-8424181Y9652000D03*
X-6699181Y9652000D03*
%TD*%
%TO.C,C3*%
X-8297181Y19341679D03*
X-6572181Y19341679D03*
%TD*%
D21*
%TO.C,U1*%
X14017169Y18632000D03*
X14017169Y17982000D03*
X14017169Y17332000D03*
X14017169Y16682000D03*
X14017169Y16032000D03*
X14017169Y15382000D03*
X14017169Y14732000D03*
X14017169Y14082000D03*
X14017169Y13432000D03*
X14017169Y12782000D03*
X19742169Y12782000D03*
X19742169Y13432000D03*
X19742169Y14082000D03*
X19742169Y14732000D03*
X19742169Y15382000D03*
X19742169Y16032000D03*
X19742169Y16682000D03*
X19742169Y17332000D03*
X19742169Y17982000D03*
X19742169Y18632000D03*
%TD*%
D17*
%TO.C,R5*%
X31757519Y17130820D03*
X31757519Y15305820D03*
%TD*%
D20*
%TO.C,D7*%
X33428839Y24675620D03*
X33428839Y22975620D03*
%TD*%
D17*
%TO.C,R3*%
X31757519Y9510820D03*
X31757519Y7685820D03*
%TD*%
%TO.C,R8*%
X31757519Y28560820D03*
X31757519Y26735820D03*
%TD*%
D16*
%TO.C,H4*%
X7519Y28523359D03*
%TD*%
D20*
%TO.C,D5*%
X33428839Y17055620D03*
X33428839Y15355620D03*
%TD*%
%TO.C,D2*%
X33428839Y5625620D03*
X33428839Y3925620D03*
%TD*%
D17*
%TO.C,R6*%
X31757519Y20940820D03*
X31757519Y19115820D03*
%TD*%
D20*
%TO.C,D8*%
X33428839Y28485620D03*
X33428839Y26785620D03*
%TD*%
%TO.C,D4*%
X33428839Y13245620D03*
X33428839Y11545620D03*
%TD*%
D17*
%TO.C,R7*%
X31757519Y24750820D03*
X31757519Y22925820D03*
%TD*%
D20*
%TO.C,D6*%
X33428839Y20865620D03*
X33428839Y19165620D03*
%TD*%
D17*
%TO.C,R2*%
X31757519Y5700820D03*
X31757519Y3875820D03*
%TD*%
D22*
%TO.C,J1*%
X-11391681Y9211679D03*
D23*
X-13931681Y9211679D03*
X-11391681Y11751679D03*
X-13931681Y11751679D03*
X-11391681Y14291679D03*
X-13931681Y14291679D03*
X-11391681Y16831679D03*
X-13931681Y16831679D03*
X-11391681Y19371679D03*
X-13931681Y19371679D03*
%TD*%
%LPD*%
M02*
