%TF.GenerationSoftware,KiCad,Pcbnew,8.0.4*%
%TF.CreationDate,2024-07-29T13:54:58-07:00*%
%TF.ProjectId,RANDY,52414e44-592e-46b6-9963-61645f706362,0*%
%TF.SameCoordinates,Original*%
%TF.FileFunction,Legend,Top*%
%TF.FilePolarity,Positive*%
%FSLAX46Y46*%
G04 Gerber Fmt 4.6, Leading zero omitted, Abs format (unit mm)*
G04 Created by KiCad (PCBNEW 8.0.4) date 2024-07-29 13:54:58*
%MOMM*%
%LPD*%
G01*
G04 APERTURE LIST*
G04 Aperture macros list*
%AMRoundRect*
0 Rectangle with rounded corners*
0 $1 Rounding radius*
0 $2 $3 $4 $5 $6 $7 $8 $9 X,Y pos of 4 corners*
0 Add a 4 corners polygon primitive as box body*
4,1,4,$2,$3,$4,$5,$6,$7,$8,$9,$2,$3,0*
0 Add four circle primitives for the rounded corners*
1,1,$1+$1,$2,$3*
1,1,$1+$1,$4,$5*
1,1,$1+$1,$6,$7*
1,1,$1+$1,$8,$9*
0 Add four rect primitives between the rounded corners*
20,1,$1+$1,$2,$3,$4,$5,0*
20,1,$1+$1,$4,$5,$6,$7,0*
20,1,$1+$1,$6,$7,$8,$9,0*
20,1,$1+$1,$8,$9,$2,$3,0*%
G04 Aperture macros list end*
%ADD10C,0.695000*%
%ADD11C,0.300000*%
%ADD12C,0.120000*%
%ADD13C,0.317500*%
%ADD14C,0.635000*%
%ADD15C,0.150000*%
%ADD16C,0.010000*%
%ADD17C,2.802000*%
%ADD18RoundRect,0.263000X0.263000X-0.325500X0.263000X0.325500X-0.263000X0.325500X-0.263000X-0.325500X0*%
%ADD19RoundRect,0.263000X-0.263000X0.325500X-0.263000X-0.325500X0.263000X-0.325500X0.263000X0.325500X0*%
%ADD20RoundRect,0.051000X0.850000X0.850000X-0.850000X0.850000X-0.850000X-0.850000X0.850000X-0.850000X0*%
%ADD21O,1.802000X1.802000*%
G04 APERTURE END LIST*
D10*
X2809500Y-88265000D02*
G75*
G02*
X2114500Y-88265000I-347500J0D01*
G01*
X2114500Y-88265000D02*
G75*
G02*
X2809500Y-88265000I347500J0D01*
G01*
D11*
X5080000Y-79121000D02*
X10668000Y-79121000D01*
X10668000Y-96647000D01*
X5080000Y-96647000D01*
X5080000Y-79121000D01*
D10*
X24018500Y1882200D02*
G75*
G02*
X23323500Y1882200I-347500J0D01*
G01*
X23323500Y1882200D02*
G75*
G02*
X24018500Y1882200I347500J0D01*
G01*
D11*
X3302000Y-96647000D02*
X19558000Y-96647000D01*
X19558000Y-105537000D01*
X3302000Y-105537000D01*
X3302000Y-96647000D01*
D12*
X11621000Y-101402000D02*
X18034000Y-101402000D01*
X18034000Y-104846000D01*
X11621000Y-104846000D01*
X11621000Y-101402000D01*
G36*
X11621000Y-101402000D02*
G01*
X18034000Y-101402000D01*
X18034000Y-104846000D01*
X11621000Y-104846000D01*
X11621000Y-101402000D01*
G37*
D11*
X11684000Y-76454000D02*
X19939000Y-76454000D01*
X19939000Y-96647000D01*
X11684000Y-96647000D01*
X11684000Y-76454000D01*
X13111653Y-72976828D02*
X14111653Y-72976828D01*
X14111653Y-72976828D02*
X13468796Y-74476828D01*
X14968796Y-72976828D02*
X15111653Y-72976828D01*
X15111653Y-72976828D02*
X15254510Y-73048257D01*
X15254510Y-73048257D02*
X15325939Y-73119685D01*
X15325939Y-73119685D02*
X15397367Y-73262542D01*
X15397367Y-73262542D02*
X15468796Y-73548257D01*
X15468796Y-73548257D02*
X15468796Y-73905400D01*
X15468796Y-73905400D02*
X15397367Y-74191114D01*
X15397367Y-74191114D02*
X15325939Y-74333971D01*
X15325939Y-74333971D02*
X15254510Y-74405400D01*
X15254510Y-74405400D02*
X15111653Y-74476828D01*
X15111653Y-74476828D02*
X14968796Y-74476828D01*
X14968796Y-74476828D02*
X14825939Y-74405400D01*
X14825939Y-74405400D02*
X14754510Y-74333971D01*
X14754510Y-74333971D02*
X14683081Y-74191114D01*
X14683081Y-74191114D02*
X14611653Y-73905400D01*
X14611653Y-73905400D02*
X14611653Y-73548257D01*
X14611653Y-73548257D02*
X14683081Y-73262542D01*
X14683081Y-73262542D02*
X14754510Y-73119685D01*
X14754510Y-73119685D02*
X14825939Y-73048257D01*
X14825939Y-73048257D02*
X14968796Y-72976828D01*
X17183081Y-72905400D02*
X15897367Y-74833971D01*
X17540224Y-72976828D02*
X18468796Y-72976828D01*
X18468796Y-72976828D02*
X17968796Y-73548257D01*
X17968796Y-73548257D02*
X18183081Y-73548257D01*
X18183081Y-73548257D02*
X18325939Y-73619685D01*
X18325939Y-73619685D02*
X18397367Y-73691114D01*
X18397367Y-73691114D02*
X18468796Y-73833971D01*
X18468796Y-73833971D02*
X18468796Y-74191114D01*
X18468796Y-74191114D02*
X18397367Y-74333971D01*
X18397367Y-74333971D02*
X18325939Y-74405400D01*
X18325939Y-74405400D02*
X18183081Y-74476828D01*
X18183081Y-74476828D02*
X17754510Y-74476828D01*
X17754510Y-74476828D02*
X17611653Y-74405400D01*
X17611653Y-74405400D02*
X17540224Y-74333971D01*
X19397367Y-72976828D02*
X19540224Y-72976828D01*
X19540224Y-72976828D02*
X19683081Y-73048257D01*
X19683081Y-73048257D02*
X19754510Y-73119685D01*
X19754510Y-73119685D02*
X19825938Y-73262542D01*
X19825938Y-73262542D02*
X19897367Y-73548257D01*
X19897367Y-73548257D02*
X19897367Y-73905400D01*
X19897367Y-73905400D02*
X19825938Y-74191114D01*
X19825938Y-74191114D02*
X19754510Y-74333971D01*
X19754510Y-74333971D02*
X19683081Y-74405400D01*
X19683081Y-74405400D02*
X19540224Y-74476828D01*
X19540224Y-74476828D02*
X19397367Y-74476828D01*
X19397367Y-74476828D02*
X19254510Y-74405400D01*
X19254510Y-74405400D02*
X19183081Y-74333971D01*
X19183081Y-74333971D02*
X19111652Y-74191114D01*
X19111652Y-74191114D02*
X19040224Y-73905400D01*
X19040224Y-73905400D02*
X19040224Y-73548257D01*
X19040224Y-73548257D02*
X19111652Y-73262542D01*
X19111652Y-73262542D02*
X19183081Y-73119685D01*
X19183081Y-73119685D02*
X19254510Y-73048257D01*
X19254510Y-73048257D02*
X19397367Y-72976828D01*
D13*
X5657785Y-104010521D02*
X5192119Y-103284807D01*
X4859500Y-104010521D02*
X4859500Y-102486521D01*
X4859500Y-102486521D02*
X5391690Y-102486521D01*
X5391690Y-102486521D02*
X5524738Y-102559092D01*
X5524738Y-102559092D02*
X5591261Y-102631664D01*
X5591261Y-102631664D02*
X5657785Y-102776807D01*
X5657785Y-102776807D02*
X5657785Y-102994521D01*
X5657785Y-102994521D02*
X5591261Y-103139664D01*
X5591261Y-103139664D02*
X5524738Y-103212235D01*
X5524738Y-103212235D02*
X5391690Y-103284807D01*
X5391690Y-103284807D02*
X4859500Y-103284807D01*
X6788690Y-103937950D02*
X6655642Y-104010521D01*
X6655642Y-104010521D02*
X6389547Y-104010521D01*
X6389547Y-104010521D02*
X6256500Y-103937950D01*
X6256500Y-103937950D02*
X6189976Y-103792807D01*
X6189976Y-103792807D02*
X6189976Y-103212235D01*
X6189976Y-103212235D02*
X6256500Y-103067092D01*
X6256500Y-103067092D02*
X6389547Y-102994521D01*
X6389547Y-102994521D02*
X6655642Y-102994521D01*
X6655642Y-102994521D02*
X6788690Y-103067092D01*
X6788690Y-103067092D02*
X6855214Y-103212235D01*
X6855214Y-103212235D02*
X6855214Y-103357378D01*
X6855214Y-103357378D02*
X6189976Y-103502521D01*
X7320881Y-102994521D02*
X7653500Y-104010521D01*
X7653500Y-104010521D02*
X7986119Y-102994521D01*
X9848786Y-102486521D02*
X9981833Y-102486521D01*
X9981833Y-102486521D02*
X10114881Y-102559092D01*
X10114881Y-102559092D02*
X10181405Y-102631664D01*
X10181405Y-102631664D02*
X10247929Y-102776807D01*
X10247929Y-102776807D02*
X10314452Y-103067092D01*
X10314452Y-103067092D02*
X10314452Y-103429950D01*
X10314452Y-103429950D02*
X10247929Y-103720235D01*
X10247929Y-103720235D02*
X10181405Y-103865378D01*
X10181405Y-103865378D02*
X10114881Y-103937950D01*
X10114881Y-103937950D02*
X9981833Y-104010521D01*
X9981833Y-104010521D02*
X9848786Y-104010521D01*
X9848786Y-104010521D02*
X9715738Y-103937950D01*
X9715738Y-103937950D02*
X9649214Y-103865378D01*
X9649214Y-103865378D02*
X9582691Y-103720235D01*
X9582691Y-103720235D02*
X9516167Y-103429950D01*
X9516167Y-103429950D02*
X9516167Y-103067092D01*
X9516167Y-103067092D02*
X9582691Y-102776807D01*
X9582691Y-102776807D02*
X9649214Y-102631664D01*
X9649214Y-102631664D02*
X9715738Y-102559092D01*
X9715738Y-102559092D02*
X9848786Y-102486521D01*
D11*
X5007368Y-37408828D02*
X5007368Y-38408828D01*
X4650225Y-36837400D02*
X4293082Y-37908828D01*
X4293082Y-37908828D02*
X5221653Y-37908828D01*
X6078796Y-36908828D02*
X6221653Y-36908828D01*
X6221653Y-36908828D02*
X6364510Y-36980257D01*
X6364510Y-36980257D02*
X6435939Y-37051685D01*
X6435939Y-37051685D02*
X6507367Y-37194542D01*
X6507367Y-37194542D02*
X6578796Y-37480257D01*
X6578796Y-37480257D02*
X6578796Y-37837400D01*
X6578796Y-37837400D02*
X6507367Y-38123114D01*
X6507367Y-38123114D02*
X6435939Y-38265971D01*
X6435939Y-38265971D02*
X6364510Y-38337400D01*
X6364510Y-38337400D02*
X6221653Y-38408828D01*
X6221653Y-38408828D02*
X6078796Y-38408828D01*
X6078796Y-38408828D02*
X5935939Y-38337400D01*
X5935939Y-38337400D02*
X5864510Y-38265971D01*
X5864510Y-38265971D02*
X5793081Y-38123114D01*
X5793081Y-38123114D02*
X5721653Y-37837400D01*
X5721653Y-37837400D02*
X5721653Y-37480257D01*
X5721653Y-37480257D02*
X5793081Y-37194542D01*
X5793081Y-37194542D02*
X5864510Y-37051685D01*
X5864510Y-37051685D02*
X5935939Y-36980257D01*
X5935939Y-36980257D02*
X6078796Y-36908828D01*
X8293081Y-36837400D02*
X7007367Y-38765971D01*
X8650224Y-36908828D02*
X9578796Y-36908828D01*
X9578796Y-36908828D02*
X9078796Y-37480257D01*
X9078796Y-37480257D02*
X9293081Y-37480257D01*
X9293081Y-37480257D02*
X9435939Y-37551685D01*
X9435939Y-37551685D02*
X9507367Y-37623114D01*
X9507367Y-37623114D02*
X9578796Y-37765971D01*
X9578796Y-37765971D02*
X9578796Y-38123114D01*
X9578796Y-38123114D02*
X9507367Y-38265971D01*
X9507367Y-38265971D02*
X9435939Y-38337400D01*
X9435939Y-38337400D02*
X9293081Y-38408828D01*
X9293081Y-38408828D02*
X8864510Y-38408828D01*
X8864510Y-38408828D02*
X8721653Y-38337400D01*
X8721653Y-38337400D02*
X8650224Y-38265971D01*
X10293081Y-38408828D02*
X10578795Y-38408828D01*
X10578795Y-38408828D02*
X10721652Y-38337400D01*
X10721652Y-38337400D02*
X10793081Y-38265971D01*
X10793081Y-38265971D02*
X10935938Y-38051685D01*
X10935938Y-38051685D02*
X11007367Y-37765971D01*
X11007367Y-37765971D02*
X11007367Y-37194542D01*
X11007367Y-37194542D02*
X10935938Y-37051685D01*
X10935938Y-37051685D02*
X10864510Y-36980257D01*
X10864510Y-36980257D02*
X10721652Y-36908828D01*
X10721652Y-36908828D02*
X10435938Y-36908828D01*
X10435938Y-36908828D02*
X10293081Y-36980257D01*
X10293081Y-36980257D02*
X10221652Y-37051685D01*
X10221652Y-37051685D02*
X10150224Y-37194542D01*
X10150224Y-37194542D02*
X10150224Y-37551685D01*
X10150224Y-37551685D02*
X10221652Y-37694542D01*
X10221652Y-37694542D02*
X10293081Y-37765971D01*
X10293081Y-37765971D02*
X10435938Y-37837400D01*
X10435938Y-37837400D02*
X10721652Y-37837400D01*
X10721652Y-37837400D02*
X10864510Y-37765971D01*
X10864510Y-37765971D02*
X10935938Y-37694542D01*
X10935938Y-37694542D02*
X11007367Y-37551685D01*
X13897368Y-47449828D02*
X13611653Y-47449828D01*
X13611653Y-47449828D02*
X13468796Y-47521257D01*
X13468796Y-47521257D02*
X13397368Y-47592685D01*
X13397368Y-47592685D02*
X13254510Y-47806971D01*
X13254510Y-47806971D02*
X13183082Y-48092685D01*
X13183082Y-48092685D02*
X13183082Y-48664114D01*
X13183082Y-48664114D02*
X13254510Y-48806971D01*
X13254510Y-48806971D02*
X13325939Y-48878400D01*
X13325939Y-48878400D02*
X13468796Y-48949828D01*
X13468796Y-48949828D02*
X13754510Y-48949828D01*
X13754510Y-48949828D02*
X13897368Y-48878400D01*
X13897368Y-48878400D02*
X13968796Y-48806971D01*
X13968796Y-48806971D02*
X14040225Y-48664114D01*
X14040225Y-48664114D02*
X14040225Y-48306971D01*
X14040225Y-48306971D02*
X13968796Y-48164114D01*
X13968796Y-48164114D02*
X13897368Y-48092685D01*
X13897368Y-48092685D02*
X13754510Y-48021257D01*
X13754510Y-48021257D02*
X13468796Y-48021257D01*
X13468796Y-48021257D02*
X13325939Y-48092685D01*
X13325939Y-48092685D02*
X13254510Y-48164114D01*
X13254510Y-48164114D02*
X13183082Y-48306971D01*
X14968796Y-47449828D02*
X15111653Y-47449828D01*
X15111653Y-47449828D02*
X15254510Y-47521257D01*
X15254510Y-47521257D02*
X15325939Y-47592685D01*
X15325939Y-47592685D02*
X15397367Y-47735542D01*
X15397367Y-47735542D02*
X15468796Y-48021257D01*
X15468796Y-48021257D02*
X15468796Y-48378400D01*
X15468796Y-48378400D02*
X15397367Y-48664114D01*
X15397367Y-48664114D02*
X15325939Y-48806971D01*
X15325939Y-48806971D02*
X15254510Y-48878400D01*
X15254510Y-48878400D02*
X15111653Y-48949828D01*
X15111653Y-48949828D02*
X14968796Y-48949828D01*
X14968796Y-48949828D02*
X14825939Y-48878400D01*
X14825939Y-48878400D02*
X14754510Y-48806971D01*
X14754510Y-48806971D02*
X14683081Y-48664114D01*
X14683081Y-48664114D02*
X14611653Y-48378400D01*
X14611653Y-48378400D02*
X14611653Y-48021257D01*
X14611653Y-48021257D02*
X14683081Y-47735542D01*
X14683081Y-47735542D02*
X14754510Y-47592685D01*
X14754510Y-47592685D02*
X14825939Y-47521257D01*
X14825939Y-47521257D02*
X14968796Y-47449828D01*
X17183081Y-47378400D02*
X15897367Y-49306971D01*
X17611653Y-47592685D02*
X17683081Y-47521257D01*
X17683081Y-47521257D02*
X17825939Y-47449828D01*
X17825939Y-47449828D02*
X18183081Y-47449828D01*
X18183081Y-47449828D02*
X18325939Y-47521257D01*
X18325939Y-47521257D02*
X18397367Y-47592685D01*
X18397367Y-47592685D02*
X18468796Y-47735542D01*
X18468796Y-47735542D02*
X18468796Y-47878400D01*
X18468796Y-47878400D02*
X18397367Y-48092685D01*
X18397367Y-48092685D02*
X17540224Y-48949828D01*
X17540224Y-48949828D02*
X18468796Y-48949828D01*
X19397367Y-47449828D02*
X19540224Y-47449828D01*
X19540224Y-47449828D02*
X19683081Y-47521257D01*
X19683081Y-47521257D02*
X19754510Y-47592685D01*
X19754510Y-47592685D02*
X19825938Y-47735542D01*
X19825938Y-47735542D02*
X19897367Y-48021257D01*
X19897367Y-48021257D02*
X19897367Y-48378400D01*
X19897367Y-48378400D02*
X19825938Y-48664114D01*
X19825938Y-48664114D02*
X19754510Y-48806971D01*
X19754510Y-48806971D02*
X19683081Y-48878400D01*
X19683081Y-48878400D02*
X19540224Y-48949828D01*
X19540224Y-48949828D02*
X19397367Y-48949828D01*
X19397367Y-48949828D02*
X19254510Y-48878400D01*
X19254510Y-48878400D02*
X19183081Y-48806971D01*
X19183081Y-48806971D02*
X19111652Y-48664114D01*
X19111652Y-48664114D02*
X19040224Y-48378400D01*
X19040224Y-48378400D02*
X19040224Y-48021257D01*
X19040224Y-48021257D02*
X19111652Y-47735542D01*
X19111652Y-47735542D02*
X19183081Y-47592685D01*
X19183081Y-47592685D02*
X19254510Y-47521257D01*
X19254510Y-47521257D02*
X19397367Y-47449828D01*
D13*
X18519321Y-67835299D02*
X16995321Y-67835299D01*
X16995321Y-67835299D02*
X16995321Y-67502680D01*
X16995321Y-67502680D02*
X17067892Y-67303109D01*
X17067892Y-67303109D02*
X17213035Y-67170061D01*
X17213035Y-67170061D02*
X17358178Y-67103538D01*
X17358178Y-67103538D02*
X17648464Y-67037014D01*
X17648464Y-67037014D02*
X17866178Y-67037014D01*
X17866178Y-67037014D02*
X18156464Y-67103538D01*
X18156464Y-67103538D02*
X18301607Y-67170061D01*
X18301607Y-67170061D02*
X18446750Y-67303109D01*
X18446750Y-67303109D02*
X18519321Y-67502680D01*
X18519321Y-67502680D02*
X18519321Y-67835299D01*
X18446750Y-65906109D02*
X18519321Y-66039157D01*
X18519321Y-66039157D02*
X18519321Y-66305252D01*
X18519321Y-66305252D02*
X18446750Y-66438299D01*
X18446750Y-66438299D02*
X18301607Y-66504823D01*
X18301607Y-66504823D02*
X17721035Y-66504823D01*
X17721035Y-66504823D02*
X17575892Y-66438299D01*
X17575892Y-66438299D02*
X17503321Y-66305252D01*
X17503321Y-66305252D02*
X17503321Y-66039157D01*
X17503321Y-66039157D02*
X17575892Y-65906109D01*
X17575892Y-65906109D02*
X17721035Y-65839585D01*
X17721035Y-65839585D02*
X17866178Y-65839585D01*
X17866178Y-65839585D02*
X18011321Y-66504823D01*
X17503321Y-65240870D02*
X18519321Y-65240870D01*
X17648464Y-65240870D02*
X17575892Y-65174347D01*
X17575892Y-65174347D02*
X17503321Y-65041299D01*
X17503321Y-65041299D02*
X17503321Y-64841728D01*
X17503321Y-64841728D02*
X17575892Y-64708680D01*
X17575892Y-64708680D02*
X17721035Y-64642156D01*
X17721035Y-64642156D02*
X18519321Y-64642156D01*
X17503321Y-63976918D02*
X18519321Y-63976918D01*
X17648464Y-63976918D02*
X17575892Y-63910395D01*
X17575892Y-63910395D02*
X17503321Y-63777347D01*
X17503321Y-63777347D02*
X17503321Y-63577776D01*
X17503321Y-63577776D02*
X17575892Y-63444728D01*
X17575892Y-63444728D02*
X17721035Y-63378204D01*
X17721035Y-63378204D02*
X18519321Y-63378204D01*
X18519321Y-62513395D02*
X18446750Y-62646443D01*
X18446750Y-62646443D02*
X18374178Y-62712966D01*
X18374178Y-62712966D02*
X18229035Y-62779490D01*
X18229035Y-62779490D02*
X17793607Y-62779490D01*
X17793607Y-62779490D02*
X17648464Y-62712966D01*
X17648464Y-62712966D02*
X17575892Y-62646443D01*
X17575892Y-62646443D02*
X17503321Y-62513395D01*
X17503321Y-62513395D02*
X17503321Y-62313824D01*
X17503321Y-62313824D02*
X17575892Y-62180776D01*
X17575892Y-62180776D02*
X17648464Y-62114252D01*
X17648464Y-62114252D02*
X17793607Y-62047728D01*
X17793607Y-62047728D02*
X18229035Y-62047728D01*
X18229035Y-62047728D02*
X18374178Y-62114252D01*
X18374178Y-62114252D02*
X18446750Y-62180776D01*
X18446750Y-62180776D02*
X18519321Y-62313824D01*
X18519321Y-62313824D02*
X18519321Y-62513395D01*
X16995321Y-60517681D02*
X18519321Y-60185062D01*
X18519321Y-60185062D02*
X17430750Y-59918967D01*
X17430750Y-59918967D02*
X18519321Y-59652872D01*
X18519321Y-59652872D02*
X16995321Y-59320253D01*
X18519321Y-58788062D02*
X17503321Y-58788062D01*
X16995321Y-58788062D02*
X17067892Y-58854586D01*
X17067892Y-58854586D02*
X17140464Y-58788062D01*
X17140464Y-58788062D02*
X17067892Y-58721539D01*
X17067892Y-58721539D02*
X16995321Y-58788062D01*
X16995321Y-58788062D02*
X17140464Y-58788062D01*
X17503321Y-57524110D02*
X18737035Y-57524110D01*
X18737035Y-57524110D02*
X18882178Y-57590634D01*
X18882178Y-57590634D02*
X18954750Y-57657158D01*
X18954750Y-57657158D02*
X19027321Y-57790205D01*
X19027321Y-57790205D02*
X19027321Y-57989777D01*
X19027321Y-57989777D02*
X18954750Y-58122824D01*
X18446750Y-57524110D02*
X18519321Y-57657158D01*
X18519321Y-57657158D02*
X18519321Y-57923253D01*
X18519321Y-57923253D02*
X18446750Y-58056301D01*
X18446750Y-58056301D02*
X18374178Y-58122824D01*
X18374178Y-58122824D02*
X18229035Y-58189348D01*
X18229035Y-58189348D02*
X17793607Y-58189348D01*
X17793607Y-58189348D02*
X17648464Y-58122824D01*
X17648464Y-58122824D02*
X17575892Y-58056301D01*
X17575892Y-58056301D02*
X17503321Y-57923253D01*
X17503321Y-57923253D02*
X17503321Y-57657158D01*
X17503321Y-57657158D02*
X17575892Y-57524110D01*
X17503321Y-56260158D02*
X18737035Y-56260158D01*
X18737035Y-56260158D02*
X18882178Y-56326682D01*
X18882178Y-56326682D02*
X18954750Y-56393206D01*
X18954750Y-56393206D02*
X19027321Y-56526253D01*
X19027321Y-56526253D02*
X19027321Y-56725825D01*
X19027321Y-56725825D02*
X18954750Y-56858872D01*
X18446750Y-56260158D02*
X18519321Y-56393206D01*
X18519321Y-56393206D02*
X18519321Y-56659301D01*
X18519321Y-56659301D02*
X18446750Y-56792349D01*
X18446750Y-56792349D02*
X18374178Y-56858872D01*
X18374178Y-56858872D02*
X18229035Y-56925396D01*
X18229035Y-56925396D02*
X17793607Y-56925396D01*
X17793607Y-56925396D02*
X17648464Y-56858872D01*
X17648464Y-56858872D02*
X17575892Y-56792349D01*
X17575892Y-56792349D02*
X17503321Y-56659301D01*
X17503321Y-56659301D02*
X17503321Y-56393206D01*
X17503321Y-56393206D02*
X17575892Y-56260158D01*
X18519321Y-55395349D02*
X18446750Y-55528397D01*
X18446750Y-55528397D02*
X18301607Y-55594920D01*
X18301607Y-55594920D02*
X16995321Y-55594920D01*
X18446750Y-54330968D02*
X18519321Y-54464016D01*
X18519321Y-54464016D02*
X18519321Y-54730111D01*
X18519321Y-54730111D02*
X18446750Y-54863158D01*
X18446750Y-54863158D02*
X18301607Y-54929682D01*
X18301607Y-54929682D02*
X17721035Y-54929682D01*
X17721035Y-54929682D02*
X17575892Y-54863158D01*
X17575892Y-54863158D02*
X17503321Y-54730111D01*
X17503321Y-54730111D02*
X17503321Y-54464016D01*
X17503321Y-54464016D02*
X17575892Y-54330968D01*
X17575892Y-54330968D02*
X17721035Y-54264444D01*
X17721035Y-54264444D02*
X17866178Y-54264444D01*
X17866178Y-54264444D02*
X18011321Y-54929682D01*
D11*
X4293082Y-62451685D02*
X4364510Y-62380257D01*
X4364510Y-62380257D02*
X4507368Y-62308828D01*
X4507368Y-62308828D02*
X4864510Y-62308828D01*
X4864510Y-62308828D02*
X5007368Y-62380257D01*
X5007368Y-62380257D02*
X5078796Y-62451685D01*
X5078796Y-62451685D02*
X5150225Y-62594542D01*
X5150225Y-62594542D02*
X5150225Y-62737400D01*
X5150225Y-62737400D02*
X5078796Y-62951685D01*
X5078796Y-62951685D02*
X4221653Y-63808828D01*
X4221653Y-63808828D02*
X5150225Y-63808828D01*
X6078796Y-62308828D02*
X6221653Y-62308828D01*
X6221653Y-62308828D02*
X6364510Y-62380257D01*
X6364510Y-62380257D02*
X6435939Y-62451685D01*
X6435939Y-62451685D02*
X6507367Y-62594542D01*
X6507367Y-62594542D02*
X6578796Y-62880257D01*
X6578796Y-62880257D02*
X6578796Y-63237400D01*
X6578796Y-63237400D02*
X6507367Y-63523114D01*
X6507367Y-63523114D02*
X6435939Y-63665971D01*
X6435939Y-63665971D02*
X6364510Y-63737400D01*
X6364510Y-63737400D02*
X6221653Y-63808828D01*
X6221653Y-63808828D02*
X6078796Y-63808828D01*
X6078796Y-63808828D02*
X5935939Y-63737400D01*
X5935939Y-63737400D02*
X5864510Y-63665971D01*
X5864510Y-63665971D02*
X5793081Y-63523114D01*
X5793081Y-63523114D02*
X5721653Y-63237400D01*
X5721653Y-63237400D02*
X5721653Y-62880257D01*
X5721653Y-62880257D02*
X5793081Y-62594542D01*
X5793081Y-62594542D02*
X5864510Y-62451685D01*
X5864510Y-62451685D02*
X5935939Y-62380257D01*
X5935939Y-62380257D02*
X6078796Y-62308828D01*
X8293081Y-62237400D02*
X7007367Y-64165971D01*
X9578796Y-63808828D02*
X8721653Y-63808828D01*
X9150224Y-63808828D02*
X9150224Y-62308828D01*
X9150224Y-62308828D02*
X9007367Y-62523114D01*
X9007367Y-62523114D02*
X8864510Y-62665971D01*
X8864510Y-62665971D02*
X8721653Y-62737400D01*
X10293081Y-63808828D02*
X10578795Y-63808828D01*
X10578795Y-63808828D02*
X10721652Y-63737400D01*
X10721652Y-63737400D02*
X10793081Y-63665971D01*
X10793081Y-63665971D02*
X10935938Y-63451685D01*
X10935938Y-63451685D02*
X11007367Y-63165971D01*
X11007367Y-63165971D02*
X11007367Y-62594542D01*
X11007367Y-62594542D02*
X10935938Y-62451685D01*
X10935938Y-62451685D02*
X10864510Y-62380257D01*
X10864510Y-62380257D02*
X10721652Y-62308828D01*
X10721652Y-62308828D02*
X10435938Y-62308828D01*
X10435938Y-62308828D02*
X10293081Y-62380257D01*
X10293081Y-62380257D02*
X10221652Y-62451685D01*
X10221652Y-62451685D02*
X10150224Y-62594542D01*
X10150224Y-62594542D02*
X10150224Y-62951685D01*
X10150224Y-62951685D02*
X10221652Y-63094542D01*
X10221652Y-63094542D02*
X10293081Y-63165971D01*
X10293081Y-63165971D02*
X10435938Y-63237400D01*
X10435938Y-63237400D02*
X10721652Y-63237400D01*
X10721652Y-63237400D02*
X10864510Y-63165971D01*
X10864510Y-63165971D02*
X10935938Y-63094542D01*
X10935938Y-63094542D02*
X11007367Y-62951685D01*
X5918912Y-95346346D02*
X5918912Y-94346346D01*
X5918912Y-94346346D02*
X7418912Y-95346346D01*
X7418912Y-95346346D02*
X7418912Y-94346346D01*
X6561769Y-93560632D02*
X6490341Y-93703489D01*
X6490341Y-93703489D02*
X6418912Y-93774918D01*
X6418912Y-93774918D02*
X6276055Y-93846346D01*
X6276055Y-93846346D02*
X6204626Y-93846346D01*
X6204626Y-93846346D02*
X6061769Y-93774918D01*
X6061769Y-93774918D02*
X5990341Y-93703489D01*
X5990341Y-93703489D02*
X5918912Y-93560632D01*
X5918912Y-93560632D02*
X5918912Y-93274918D01*
X5918912Y-93274918D02*
X5990341Y-93132061D01*
X5990341Y-93132061D02*
X6061769Y-93060632D01*
X6061769Y-93060632D02*
X6204626Y-92989203D01*
X6204626Y-92989203D02*
X6276055Y-92989203D01*
X6276055Y-92989203D02*
X6418912Y-93060632D01*
X6418912Y-93060632D02*
X6490341Y-93132061D01*
X6490341Y-93132061D02*
X6561769Y-93274918D01*
X6561769Y-93274918D02*
X6561769Y-93560632D01*
X6561769Y-93560632D02*
X6633198Y-93703489D01*
X6633198Y-93703489D02*
X6704626Y-93774918D01*
X6704626Y-93774918D02*
X6847484Y-93846346D01*
X6847484Y-93846346D02*
X7133198Y-93846346D01*
X7133198Y-93846346D02*
X7276055Y-93774918D01*
X7276055Y-93774918D02*
X7347484Y-93703489D01*
X7347484Y-93703489D02*
X7418912Y-93560632D01*
X7418912Y-93560632D02*
X7418912Y-93274918D01*
X7418912Y-93274918D02*
X7347484Y-93132061D01*
X7347484Y-93132061D02*
X7276055Y-93060632D01*
X7276055Y-93060632D02*
X7133198Y-92989203D01*
X7133198Y-92989203D02*
X6847484Y-92989203D01*
X6847484Y-92989203D02*
X6704626Y-93060632D01*
X6704626Y-93060632D02*
X6633198Y-93132061D01*
X6633198Y-93132061D02*
X6561769Y-93274918D01*
X5918912Y-92060632D02*
X5918912Y-91917775D01*
X5918912Y-91917775D02*
X5990341Y-91774918D01*
X5990341Y-91774918D02*
X6061769Y-91703490D01*
X6061769Y-91703490D02*
X6204626Y-91632061D01*
X6204626Y-91632061D02*
X6490341Y-91560632D01*
X6490341Y-91560632D02*
X6847484Y-91560632D01*
X6847484Y-91560632D02*
X7133198Y-91632061D01*
X7133198Y-91632061D02*
X7276055Y-91703490D01*
X7276055Y-91703490D02*
X7347484Y-91774918D01*
X7347484Y-91774918D02*
X7418912Y-91917775D01*
X7418912Y-91917775D02*
X7418912Y-92060632D01*
X7418912Y-92060632D02*
X7347484Y-92203490D01*
X7347484Y-92203490D02*
X7276055Y-92274918D01*
X7276055Y-92274918D02*
X7133198Y-92346347D01*
X7133198Y-92346347D02*
X6847484Y-92417775D01*
X6847484Y-92417775D02*
X6490341Y-92417775D01*
X6490341Y-92417775D02*
X6204626Y-92346347D01*
X6204626Y-92346347D02*
X6061769Y-92274918D01*
X6061769Y-92274918D02*
X5990341Y-92203490D01*
X5990341Y-92203490D02*
X5918912Y-92060632D01*
X7418912Y-89774919D02*
X5918912Y-89774919D01*
X5918912Y-89774919D02*
X7418912Y-88917776D01*
X7418912Y-88917776D02*
X5918912Y-88917776D01*
X5918912Y-87917775D02*
X5918912Y-87632061D01*
X5918912Y-87632061D02*
X5990341Y-87489204D01*
X5990341Y-87489204D02*
X6133198Y-87346347D01*
X6133198Y-87346347D02*
X6418912Y-87274918D01*
X6418912Y-87274918D02*
X6918912Y-87274918D01*
X6918912Y-87274918D02*
X7204626Y-87346347D01*
X7204626Y-87346347D02*
X7347484Y-87489204D01*
X7347484Y-87489204D02*
X7418912Y-87632061D01*
X7418912Y-87632061D02*
X7418912Y-87917775D01*
X7418912Y-87917775D02*
X7347484Y-88060633D01*
X7347484Y-88060633D02*
X7204626Y-88203490D01*
X7204626Y-88203490D02*
X6918912Y-88274918D01*
X6918912Y-88274918D02*
X6418912Y-88274918D01*
X6418912Y-88274918D02*
X6133198Y-88203490D01*
X6133198Y-88203490D02*
X5990341Y-88060633D01*
X5990341Y-88060633D02*
X5918912Y-87917775D01*
X5918912Y-86632061D02*
X7133198Y-86632061D01*
X7133198Y-86632061D02*
X7276055Y-86560632D01*
X7276055Y-86560632D02*
X7347484Y-86489204D01*
X7347484Y-86489204D02*
X7418912Y-86346346D01*
X7418912Y-86346346D02*
X7418912Y-86060632D01*
X7418912Y-86060632D02*
X7347484Y-85917775D01*
X7347484Y-85917775D02*
X7276055Y-85846346D01*
X7276055Y-85846346D02*
X7133198Y-85774918D01*
X7133198Y-85774918D02*
X5918912Y-85774918D01*
X5918912Y-85274917D02*
X7418912Y-84774917D01*
X7418912Y-84774917D02*
X5918912Y-84274917D01*
X6633198Y-83774918D02*
X6633198Y-83274918D01*
X7418912Y-83060632D02*
X7418912Y-83774918D01*
X7418912Y-83774918D02*
X5918912Y-83774918D01*
X5918912Y-83774918D02*
X5918912Y-83060632D01*
X6990341Y-82489203D02*
X6990341Y-81774918D01*
X7418912Y-82632060D02*
X5918912Y-82132060D01*
X5918912Y-82132060D02*
X7418912Y-81632060D01*
X5918912Y-81132061D02*
X7133198Y-81132061D01*
X7133198Y-81132061D02*
X7276055Y-81060632D01*
X7276055Y-81060632D02*
X7347484Y-80989204D01*
X7347484Y-80989204D02*
X7418912Y-80846346D01*
X7418912Y-80846346D02*
X7418912Y-80560632D01*
X7418912Y-80560632D02*
X7347484Y-80417775D01*
X7347484Y-80417775D02*
X7276055Y-80346346D01*
X7276055Y-80346346D02*
X7133198Y-80274918D01*
X7133198Y-80274918D02*
X5918912Y-80274918D01*
X9690971Y-94346346D02*
X9762400Y-94417774D01*
X9762400Y-94417774D02*
X9833828Y-94632060D01*
X9833828Y-94632060D02*
X9833828Y-94774917D01*
X9833828Y-94774917D02*
X9762400Y-94989203D01*
X9762400Y-94989203D02*
X9619542Y-95132060D01*
X9619542Y-95132060D02*
X9476685Y-95203489D01*
X9476685Y-95203489D02*
X9190971Y-95274917D01*
X9190971Y-95274917D02*
X8976685Y-95274917D01*
X8976685Y-95274917D02*
X8690971Y-95203489D01*
X8690971Y-95203489D02*
X8548114Y-95132060D01*
X8548114Y-95132060D02*
X8405257Y-94989203D01*
X8405257Y-94989203D02*
X8333828Y-94774917D01*
X8333828Y-94774917D02*
X8333828Y-94632060D01*
X8333828Y-94632060D02*
X8405257Y-94417774D01*
X8405257Y-94417774D02*
X8476685Y-94346346D01*
X8333828Y-93417774D02*
X8333828Y-93132060D01*
X8333828Y-93132060D02*
X8405257Y-92989203D01*
X8405257Y-92989203D02*
X8548114Y-92846346D01*
X8548114Y-92846346D02*
X8833828Y-92774917D01*
X8833828Y-92774917D02*
X9333828Y-92774917D01*
X9333828Y-92774917D02*
X9619542Y-92846346D01*
X9619542Y-92846346D02*
X9762400Y-92989203D01*
X9762400Y-92989203D02*
X9833828Y-93132060D01*
X9833828Y-93132060D02*
X9833828Y-93417774D01*
X9833828Y-93417774D02*
X9762400Y-93560632D01*
X9762400Y-93560632D02*
X9619542Y-93703489D01*
X9619542Y-93703489D02*
X9333828Y-93774917D01*
X9333828Y-93774917D02*
X8833828Y-93774917D01*
X8833828Y-93774917D02*
X8548114Y-93703489D01*
X8548114Y-93703489D02*
X8405257Y-93560632D01*
X8405257Y-93560632D02*
X8333828Y-93417774D01*
X9833828Y-92132060D02*
X8333828Y-92132060D01*
X8333828Y-92132060D02*
X9833828Y-91274917D01*
X9833828Y-91274917D02*
X8333828Y-91274917D01*
X9833828Y-90560631D02*
X8333828Y-90560631D01*
X8333828Y-90560631D02*
X9833828Y-89703488D01*
X9833828Y-89703488D02*
X8333828Y-89703488D01*
X9048114Y-88989202D02*
X9048114Y-88489202D01*
X9833828Y-88274916D02*
X9833828Y-88989202D01*
X9833828Y-88989202D02*
X8333828Y-88989202D01*
X8333828Y-88989202D02*
X8333828Y-88274916D01*
X9690971Y-86774916D02*
X9762400Y-86846344D01*
X9762400Y-86846344D02*
X9833828Y-87060630D01*
X9833828Y-87060630D02*
X9833828Y-87203487D01*
X9833828Y-87203487D02*
X9762400Y-87417773D01*
X9762400Y-87417773D02*
X9619542Y-87560630D01*
X9619542Y-87560630D02*
X9476685Y-87632059D01*
X9476685Y-87632059D02*
X9190971Y-87703487D01*
X9190971Y-87703487D02*
X8976685Y-87703487D01*
X8976685Y-87703487D02*
X8690971Y-87632059D01*
X8690971Y-87632059D02*
X8548114Y-87560630D01*
X8548114Y-87560630D02*
X8405257Y-87417773D01*
X8405257Y-87417773D02*
X8333828Y-87203487D01*
X8333828Y-87203487D02*
X8333828Y-87060630D01*
X8333828Y-87060630D02*
X8405257Y-86846344D01*
X8405257Y-86846344D02*
X8476685Y-86774916D01*
X8333828Y-86346344D02*
X8333828Y-85489202D01*
X9833828Y-85917773D02*
X8333828Y-85917773D01*
X8333828Y-84703487D02*
X8333828Y-84417773D01*
X8333828Y-84417773D02*
X8405257Y-84274916D01*
X8405257Y-84274916D02*
X8548114Y-84132059D01*
X8548114Y-84132059D02*
X8833828Y-84060630D01*
X8833828Y-84060630D02*
X9333828Y-84060630D01*
X9333828Y-84060630D02*
X9619542Y-84132059D01*
X9619542Y-84132059D02*
X9762400Y-84274916D01*
X9762400Y-84274916D02*
X9833828Y-84417773D01*
X9833828Y-84417773D02*
X9833828Y-84703487D01*
X9833828Y-84703487D02*
X9762400Y-84846345D01*
X9762400Y-84846345D02*
X9619542Y-84989202D01*
X9619542Y-84989202D02*
X9333828Y-85060630D01*
X9333828Y-85060630D02*
X8833828Y-85060630D01*
X8833828Y-85060630D02*
X8548114Y-84989202D01*
X8548114Y-84989202D02*
X8405257Y-84846345D01*
X8405257Y-84846345D02*
X8333828Y-84703487D01*
X9833828Y-82560630D02*
X9119542Y-83060630D01*
X9833828Y-83417773D02*
X8333828Y-83417773D01*
X8333828Y-83417773D02*
X8333828Y-82846344D01*
X8333828Y-82846344D02*
X8405257Y-82703487D01*
X8405257Y-82703487D02*
X8476685Y-82632058D01*
X8476685Y-82632058D02*
X8619542Y-82560630D01*
X8619542Y-82560630D02*
X8833828Y-82560630D01*
X8833828Y-82560630D02*
X8976685Y-82632058D01*
X8976685Y-82632058D02*
X9048114Y-82703487D01*
X9048114Y-82703487D02*
X9119542Y-82846344D01*
X9119542Y-82846344D02*
X9119542Y-83417773D01*
X5150225Y-76381828D02*
X4293082Y-76381828D01*
X4721653Y-76381828D02*
X4721653Y-74881828D01*
X4721653Y-74881828D02*
X4578796Y-75096114D01*
X4578796Y-75096114D02*
X4435939Y-75238971D01*
X4435939Y-75238971D02*
X4293082Y-75310400D01*
X6078796Y-74881828D02*
X6221653Y-74881828D01*
X6221653Y-74881828D02*
X6364510Y-74953257D01*
X6364510Y-74953257D02*
X6435939Y-75024685D01*
X6435939Y-75024685D02*
X6507367Y-75167542D01*
X6507367Y-75167542D02*
X6578796Y-75453257D01*
X6578796Y-75453257D02*
X6578796Y-75810400D01*
X6578796Y-75810400D02*
X6507367Y-76096114D01*
X6507367Y-76096114D02*
X6435939Y-76238971D01*
X6435939Y-76238971D02*
X6364510Y-76310400D01*
X6364510Y-76310400D02*
X6221653Y-76381828D01*
X6221653Y-76381828D02*
X6078796Y-76381828D01*
X6078796Y-76381828D02*
X5935939Y-76310400D01*
X5935939Y-76310400D02*
X5864510Y-76238971D01*
X5864510Y-76238971D02*
X5793081Y-76096114D01*
X5793081Y-76096114D02*
X5721653Y-75810400D01*
X5721653Y-75810400D02*
X5721653Y-75453257D01*
X5721653Y-75453257D02*
X5793081Y-75167542D01*
X5793081Y-75167542D02*
X5864510Y-75024685D01*
X5864510Y-75024685D02*
X5935939Y-74953257D01*
X5935939Y-74953257D02*
X6078796Y-74881828D01*
X8293081Y-74810400D02*
X7007367Y-76738971D01*
X8864510Y-76381828D02*
X9150224Y-76381828D01*
X9150224Y-76381828D02*
X9293081Y-76310400D01*
X9293081Y-76310400D02*
X9364510Y-76238971D01*
X9364510Y-76238971D02*
X9507367Y-76024685D01*
X9507367Y-76024685D02*
X9578796Y-75738971D01*
X9578796Y-75738971D02*
X9578796Y-75167542D01*
X9578796Y-75167542D02*
X9507367Y-75024685D01*
X9507367Y-75024685D02*
X9435939Y-74953257D01*
X9435939Y-74953257D02*
X9293081Y-74881828D01*
X9293081Y-74881828D02*
X9007367Y-74881828D01*
X9007367Y-74881828D02*
X8864510Y-74953257D01*
X8864510Y-74953257D02*
X8793081Y-75024685D01*
X8793081Y-75024685D02*
X8721653Y-75167542D01*
X8721653Y-75167542D02*
X8721653Y-75524685D01*
X8721653Y-75524685D02*
X8793081Y-75667542D01*
X8793081Y-75667542D02*
X8864510Y-75738971D01*
X8864510Y-75738971D02*
X9007367Y-75810400D01*
X9007367Y-75810400D02*
X9293081Y-75810400D01*
X9293081Y-75810400D02*
X9435939Y-75738971D01*
X9435939Y-75738971D02*
X9507367Y-75667542D01*
X9507367Y-75667542D02*
X9578796Y-75524685D01*
X5007368Y-8841828D02*
X4721653Y-8841828D01*
X4721653Y-8841828D02*
X4578796Y-8913257D01*
X4578796Y-8913257D02*
X4507368Y-8984685D01*
X4507368Y-8984685D02*
X4364510Y-9198971D01*
X4364510Y-9198971D02*
X4293082Y-9484685D01*
X4293082Y-9484685D02*
X4293082Y-10056114D01*
X4293082Y-10056114D02*
X4364510Y-10198971D01*
X4364510Y-10198971D02*
X4435939Y-10270400D01*
X4435939Y-10270400D02*
X4578796Y-10341828D01*
X4578796Y-10341828D02*
X4864510Y-10341828D01*
X4864510Y-10341828D02*
X5007368Y-10270400D01*
X5007368Y-10270400D02*
X5078796Y-10198971D01*
X5078796Y-10198971D02*
X5150225Y-10056114D01*
X5150225Y-10056114D02*
X5150225Y-9698971D01*
X5150225Y-9698971D02*
X5078796Y-9556114D01*
X5078796Y-9556114D02*
X5007368Y-9484685D01*
X5007368Y-9484685D02*
X4864510Y-9413257D01*
X4864510Y-9413257D02*
X4578796Y-9413257D01*
X4578796Y-9413257D02*
X4435939Y-9484685D01*
X4435939Y-9484685D02*
X4364510Y-9556114D01*
X4364510Y-9556114D02*
X4293082Y-9698971D01*
X6078796Y-8841828D02*
X6221653Y-8841828D01*
X6221653Y-8841828D02*
X6364510Y-8913257D01*
X6364510Y-8913257D02*
X6435939Y-8984685D01*
X6435939Y-8984685D02*
X6507367Y-9127542D01*
X6507367Y-9127542D02*
X6578796Y-9413257D01*
X6578796Y-9413257D02*
X6578796Y-9770400D01*
X6578796Y-9770400D02*
X6507367Y-10056114D01*
X6507367Y-10056114D02*
X6435939Y-10198971D01*
X6435939Y-10198971D02*
X6364510Y-10270400D01*
X6364510Y-10270400D02*
X6221653Y-10341828D01*
X6221653Y-10341828D02*
X6078796Y-10341828D01*
X6078796Y-10341828D02*
X5935939Y-10270400D01*
X5935939Y-10270400D02*
X5864510Y-10198971D01*
X5864510Y-10198971D02*
X5793081Y-10056114D01*
X5793081Y-10056114D02*
X5721653Y-9770400D01*
X5721653Y-9770400D02*
X5721653Y-9413257D01*
X5721653Y-9413257D02*
X5793081Y-9127542D01*
X5793081Y-9127542D02*
X5864510Y-8984685D01*
X5864510Y-8984685D02*
X5935939Y-8913257D01*
X5935939Y-8913257D02*
X6078796Y-8841828D01*
X8293081Y-8770400D02*
X7007367Y-10698971D01*
X9507367Y-8841828D02*
X8793081Y-8841828D01*
X8793081Y-8841828D02*
X8721653Y-9556114D01*
X8721653Y-9556114D02*
X8793081Y-9484685D01*
X8793081Y-9484685D02*
X8935939Y-9413257D01*
X8935939Y-9413257D02*
X9293081Y-9413257D01*
X9293081Y-9413257D02*
X9435939Y-9484685D01*
X9435939Y-9484685D02*
X9507367Y-9556114D01*
X9507367Y-9556114D02*
X9578796Y-9698971D01*
X9578796Y-9698971D02*
X9578796Y-10056114D01*
X9578796Y-10056114D02*
X9507367Y-10198971D01*
X9507367Y-10198971D02*
X9435939Y-10270400D01*
X9435939Y-10270400D02*
X9293081Y-10341828D01*
X9293081Y-10341828D02*
X8935939Y-10341828D01*
X8935939Y-10341828D02*
X8793081Y-10270400D01*
X8793081Y-10270400D02*
X8721653Y-10198971D01*
X10293081Y-10341828D02*
X10578795Y-10341828D01*
X10578795Y-10341828D02*
X10721652Y-10270400D01*
X10721652Y-10270400D02*
X10793081Y-10198971D01*
X10793081Y-10198971D02*
X10935938Y-9984685D01*
X10935938Y-9984685D02*
X11007367Y-9698971D01*
X11007367Y-9698971D02*
X11007367Y-9127542D01*
X11007367Y-9127542D02*
X10935938Y-8984685D01*
X10935938Y-8984685D02*
X10864510Y-8913257D01*
X10864510Y-8913257D02*
X10721652Y-8841828D01*
X10721652Y-8841828D02*
X10435938Y-8841828D01*
X10435938Y-8841828D02*
X10293081Y-8913257D01*
X10293081Y-8913257D02*
X10221652Y-8984685D01*
X10221652Y-8984685D02*
X10150224Y-9127542D01*
X10150224Y-9127542D02*
X10150224Y-9484685D01*
X10150224Y-9484685D02*
X10221652Y-9627542D01*
X10221652Y-9627542D02*
X10293081Y-9698971D01*
X10293081Y-9698971D02*
X10435938Y-9770400D01*
X10435938Y-9770400D02*
X10721652Y-9770400D01*
X10721652Y-9770400D02*
X10864510Y-9698971D01*
X10864510Y-9698971D02*
X10935938Y-9627542D01*
X10935938Y-9627542D02*
X11007367Y-9484685D01*
X5078796Y-24208828D02*
X4364510Y-24208828D01*
X4364510Y-24208828D02*
X4293082Y-24923114D01*
X4293082Y-24923114D02*
X4364510Y-24851685D01*
X4364510Y-24851685D02*
X4507368Y-24780257D01*
X4507368Y-24780257D02*
X4864510Y-24780257D01*
X4864510Y-24780257D02*
X5007368Y-24851685D01*
X5007368Y-24851685D02*
X5078796Y-24923114D01*
X5078796Y-24923114D02*
X5150225Y-25065971D01*
X5150225Y-25065971D02*
X5150225Y-25423114D01*
X5150225Y-25423114D02*
X5078796Y-25565971D01*
X5078796Y-25565971D02*
X5007368Y-25637400D01*
X5007368Y-25637400D02*
X4864510Y-25708828D01*
X4864510Y-25708828D02*
X4507368Y-25708828D01*
X4507368Y-25708828D02*
X4364510Y-25637400D01*
X4364510Y-25637400D02*
X4293082Y-25565971D01*
X6078796Y-24208828D02*
X6221653Y-24208828D01*
X6221653Y-24208828D02*
X6364510Y-24280257D01*
X6364510Y-24280257D02*
X6435939Y-24351685D01*
X6435939Y-24351685D02*
X6507367Y-24494542D01*
X6507367Y-24494542D02*
X6578796Y-24780257D01*
X6578796Y-24780257D02*
X6578796Y-25137400D01*
X6578796Y-25137400D02*
X6507367Y-25423114D01*
X6507367Y-25423114D02*
X6435939Y-25565971D01*
X6435939Y-25565971D02*
X6364510Y-25637400D01*
X6364510Y-25637400D02*
X6221653Y-25708828D01*
X6221653Y-25708828D02*
X6078796Y-25708828D01*
X6078796Y-25708828D02*
X5935939Y-25637400D01*
X5935939Y-25637400D02*
X5864510Y-25565971D01*
X5864510Y-25565971D02*
X5793081Y-25423114D01*
X5793081Y-25423114D02*
X5721653Y-25137400D01*
X5721653Y-25137400D02*
X5721653Y-24780257D01*
X5721653Y-24780257D02*
X5793081Y-24494542D01*
X5793081Y-24494542D02*
X5864510Y-24351685D01*
X5864510Y-24351685D02*
X5935939Y-24280257D01*
X5935939Y-24280257D02*
X6078796Y-24208828D01*
X8293081Y-24137400D02*
X7007367Y-26065971D01*
X9435939Y-24708828D02*
X9435939Y-25708828D01*
X9078796Y-24137400D02*
X8721653Y-25208828D01*
X8721653Y-25208828D02*
X9650224Y-25208828D01*
X10293081Y-25708828D02*
X10578795Y-25708828D01*
X10578795Y-25708828D02*
X10721652Y-25637400D01*
X10721652Y-25637400D02*
X10793081Y-25565971D01*
X10793081Y-25565971D02*
X10935938Y-25351685D01*
X10935938Y-25351685D02*
X11007367Y-25065971D01*
X11007367Y-25065971D02*
X11007367Y-24494542D01*
X11007367Y-24494542D02*
X10935938Y-24351685D01*
X10935938Y-24351685D02*
X10864510Y-24280257D01*
X10864510Y-24280257D02*
X10721652Y-24208828D01*
X10721652Y-24208828D02*
X10435938Y-24208828D01*
X10435938Y-24208828D02*
X10293081Y-24280257D01*
X10293081Y-24280257D02*
X10221652Y-24351685D01*
X10221652Y-24351685D02*
X10150224Y-24494542D01*
X10150224Y-24494542D02*
X10150224Y-24851685D01*
X10150224Y-24851685D02*
X10221652Y-24994542D01*
X10221652Y-24994542D02*
X10293081Y-25065971D01*
X10293081Y-25065971D02*
X10435938Y-25137400D01*
X10435938Y-25137400D02*
X10721652Y-25137400D01*
X10721652Y-25137400D02*
X10864510Y-25065971D01*
X10864510Y-25065971D02*
X10935938Y-24994542D01*
X10935938Y-24994542D02*
X11007367Y-24851685D01*
X4221653Y-49608828D02*
X5150225Y-49608828D01*
X5150225Y-49608828D02*
X4650225Y-50180257D01*
X4650225Y-50180257D02*
X4864510Y-50180257D01*
X4864510Y-50180257D02*
X5007368Y-50251685D01*
X5007368Y-50251685D02*
X5078796Y-50323114D01*
X5078796Y-50323114D02*
X5150225Y-50465971D01*
X5150225Y-50465971D02*
X5150225Y-50823114D01*
X5150225Y-50823114D02*
X5078796Y-50965971D01*
X5078796Y-50965971D02*
X5007368Y-51037400D01*
X5007368Y-51037400D02*
X4864510Y-51108828D01*
X4864510Y-51108828D02*
X4435939Y-51108828D01*
X4435939Y-51108828D02*
X4293082Y-51037400D01*
X4293082Y-51037400D02*
X4221653Y-50965971D01*
X6078796Y-49608828D02*
X6221653Y-49608828D01*
X6221653Y-49608828D02*
X6364510Y-49680257D01*
X6364510Y-49680257D02*
X6435939Y-49751685D01*
X6435939Y-49751685D02*
X6507367Y-49894542D01*
X6507367Y-49894542D02*
X6578796Y-50180257D01*
X6578796Y-50180257D02*
X6578796Y-50537400D01*
X6578796Y-50537400D02*
X6507367Y-50823114D01*
X6507367Y-50823114D02*
X6435939Y-50965971D01*
X6435939Y-50965971D02*
X6364510Y-51037400D01*
X6364510Y-51037400D02*
X6221653Y-51108828D01*
X6221653Y-51108828D02*
X6078796Y-51108828D01*
X6078796Y-51108828D02*
X5935939Y-51037400D01*
X5935939Y-51037400D02*
X5864510Y-50965971D01*
X5864510Y-50965971D02*
X5793081Y-50823114D01*
X5793081Y-50823114D02*
X5721653Y-50537400D01*
X5721653Y-50537400D02*
X5721653Y-50180257D01*
X5721653Y-50180257D02*
X5793081Y-49894542D01*
X5793081Y-49894542D02*
X5864510Y-49751685D01*
X5864510Y-49751685D02*
X5935939Y-49680257D01*
X5935939Y-49680257D02*
X6078796Y-49608828D01*
X8293081Y-49537400D02*
X7007367Y-51465971D01*
X8721653Y-49751685D02*
X8793081Y-49680257D01*
X8793081Y-49680257D02*
X8935939Y-49608828D01*
X8935939Y-49608828D02*
X9293081Y-49608828D01*
X9293081Y-49608828D02*
X9435939Y-49680257D01*
X9435939Y-49680257D02*
X9507367Y-49751685D01*
X9507367Y-49751685D02*
X9578796Y-49894542D01*
X9578796Y-49894542D02*
X9578796Y-50037400D01*
X9578796Y-50037400D02*
X9507367Y-50251685D01*
X9507367Y-50251685D02*
X8650224Y-51108828D01*
X8650224Y-51108828D02*
X9578796Y-51108828D01*
X10293081Y-51108828D02*
X10578795Y-51108828D01*
X10578795Y-51108828D02*
X10721652Y-51037400D01*
X10721652Y-51037400D02*
X10793081Y-50965971D01*
X10793081Y-50965971D02*
X10935938Y-50751685D01*
X10935938Y-50751685D02*
X11007367Y-50465971D01*
X11007367Y-50465971D02*
X11007367Y-49894542D01*
X11007367Y-49894542D02*
X10935938Y-49751685D01*
X10935938Y-49751685D02*
X10864510Y-49680257D01*
X10864510Y-49680257D02*
X10721652Y-49608828D01*
X10721652Y-49608828D02*
X10435938Y-49608828D01*
X10435938Y-49608828D02*
X10293081Y-49680257D01*
X10293081Y-49680257D02*
X10221652Y-49751685D01*
X10221652Y-49751685D02*
X10150224Y-49894542D01*
X10150224Y-49894542D02*
X10150224Y-50251685D01*
X10150224Y-50251685D02*
X10221652Y-50394542D01*
X10221652Y-50394542D02*
X10293081Y-50465971D01*
X10293081Y-50465971D02*
X10435938Y-50537400D01*
X10435938Y-50537400D02*
X10721652Y-50537400D01*
X10721652Y-50537400D02*
X10864510Y-50465971D01*
X10864510Y-50465971D02*
X10935938Y-50394542D01*
X10935938Y-50394542D02*
X11007367Y-50251685D01*
D14*
X6537953Y-100456032D02*
X5691286Y-99246508D01*
X5086524Y-100456032D02*
X5086524Y-97916032D01*
X5086524Y-97916032D02*
X6054143Y-97916032D01*
X6054143Y-97916032D02*
X6296048Y-98036984D01*
X6296048Y-98036984D02*
X6417001Y-98157937D01*
X6417001Y-98157937D02*
X6537953Y-98399841D01*
X6537953Y-98399841D02*
X6537953Y-98762699D01*
X6537953Y-98762699D02*
X6417001Y-99004603D01*
X6417001Y-99004603D02*
X6296048Y-99125556D01*
X6296048Y-99125556D02*
X6054143Y-99246508D01*
X6054143Y-99246508D02*
X5086524Y-99246508D01*
X7505572Y-99730318D02*
X8715096Y-99730318D01*
X7263667Y-100456032D02*
X8110334Y-97916032D01*
X8110334Y-97916032D02*
X8957001Y-100456032D01*
X9803667Y-100456032D02*
X9803667Y-97916032D01*
X9803667Y-97916032D02*
X11255096Y-100456032D01*
X11255096Y-100456032D02*
X11255096Y-97916032D01*
X12464619Y-100456032D02*
X12464619Y-97916032D01*
X12464619Y-97916032D02*
X13069381Y-97916032D01*
X13069381Y-97916032D02*
X13432238Y-98036984D01*
X13432238Y-98036984D02*
X13674143Y-98278889D01*
X13674143Y-98278889D02*
X13795096Y-98520794D01*
X13795096Y-98520794D02*
X13916048Y-99004603D01*
X13916048Y-99004603D02*
X13916048Y-99367460D01*
X13916048Y-99367460D02*
X13795096Y-99851270D01*
X13795096Y-99851270D02*
X13674143Y-100093175D01*
X13674143Y-100093175D02*
X13432238Y-100335080D01*
X13432238Y-100335080D02*
X13069381Y-100456032D01*
X13069381Y-100456032D02*
X12464619Y-100456032D01*
X15488429Y-99246508D02*
X15488429Y-100456032D01*
X14641762Y-97916032D02*
X15488429Y-99246508D01*
X15488429Y-99246508D02*
X16335096Y-97916032D01*
D13*
X15148378Y-69678614D02*
X15220950Y-69745138D01*
X15220950Y-69745138D02*
X15293521Y-69944709D01*
X15293521Y-69944709D02*
X15293521Y-70077757D01*
X15293521Y-70077757D02*
X15220950Y-70277328D01*
X15220950Y-70277328D02*
X15075807Y-70410376D01*
X15075807Y-70410376D02*
X14930664Y-70476899D01*
X14930664Y-70476899D02*
X14640378Y-70543423D01*
X14640378Y-70543423D02*
X14422664Y-70543423D01*
X14422664Y-70543423D02*
X14132378Y-70476899D01*
X14132378Y-70476899D02*
X13987235Y-70410376D01*
X13987235Y-70410376D02*
X13842092Y-70277328D01*
X13842092Y-70277328D02*
X13769521Y-70077757D01*
X13769521Y-70077757D02*
X13769521Y-69944709D01*
X13769521Y-69944709D02*
X13842092Y-69745138D01*
X13842092Y-69745138D02*
X13914664Y-69678614D01*
X15293521Y-68880328D02*
X15220950Y-69013376D01*
X15220950Y-69013376D02*
X15148378Y-69079899D01*
X15148378Y-69079899D02*
X15003235Y-69146423D01*
X15003235Y-69146423D02*
X14567807Y-69146423D01*
X14567807Y-69146423D02*
X14422664Y-69079899D01*
X14422664Y-69079899D02*
X14350092Y-69013376D01*
X14350092Y-69013376D02*
X14277521Y-68880328D01*
X14277521Y-68880328D02*
X14277521Y-68680757D01*
X14277521Y-68680757D02*
X14350092Y-68547709D01*
X14350092Y-68547709D02*
X14422664Y-68481185D01*
X14422664Y-68481185D02*
X14567807Y-68414661D01*
X14567807Y-68414661D02*
X15003235Y-68414661D01*
X15003235Y-68414661D02*
X15148378Y-68481185D01*
X15148378Y-68481185D02*
X15220950Y-68547709D01*
X15220950Y-68547709D02*
X15293521Y-68680757D01*
X15293521Y-68680757D02*
X15293521Y-68880328D01*
X14277521Y-67815947D02*
X15801521Y-67815947D01*
X14350092Y-67815947D02*
X14277521Y-67682900D01*
X14277521Y-67682900D02*
X14277521Y-67416805D01*
X14277521Y-67416805D02*
X14350092Y-67283757D01*
X14350092Y-67283757D02*
X14422664Y-67217233D01*
X14422664Y-67217233D02*
X14567807Y-67150709D01*
X14567807Y-67150709D02*
X15003235Y-67150709D01*
X15003235Y-67150709D02*
X15148378Y-67217233D01*
X15148378Y-67217233D02*
X15220950Y-67283757D01*
X15220950Y-67283757D02*
X15293521Y-67416805D01*
X15293521Y-67416805D02*
X15293521Y-67682900D01*
X15293521Y-67682900D02*
X15220950Y-67815947D01*
X14277521Y-66685043D02*
X15293521Y-66352424D01*
X14277521Y-66019805D02*
X15293521Y-66352424D01*
X15293521Y-66352424D02*
X15656378Y-66485472D01*
X15656378Y-66485472D02*
X15728950Y-66551995D01*
X15728950Y-66551995D02*
X15801521Y-66685043D01*
X15293521Y-65487614D02*
X14277521Y-65487614D01*
X14567807Y-65487614D02*
X14422664Y-65421091D01*
X14422664Y-65421091D02*
X14350092Y-65354567D01*
X14350092Y-65354567D02*
X14277521Y-65221519D01*
X14277521Y-65221519D02*
X14277521Y-65088472D01*
X15293521Y-64622804D02*
X14277521Y-64622804D01*
X13769521Y-64622804D02*
X13842092Y-64689328D01*
X13842092Y-64689328D02*
X13914664Y-64622804D01*
X13914664Y-64622804D02*
X13842092Y-64556281D01*
X13842092Y-64556281D02*
X13769521Y-64622804D01*
X13769521Y-64622804D02*
X13914664Y-64622804D01*
X14277521Y-63358852D02*
X15511235Y-63358852D01*
X15511235Y-63358852D02*
X15656378Y-63425376D01*
X15656378Y-63425376D02*
X15728950Y-63491900D01*
X15728950Y-63491900D02*
X15801521Y-63624947D01*
X15801521Y-63624947D02*
X15801521Y-63824519D01*
X15801521Y-63824519D02*
X15728950Y-63957566D01*
X15220950Y-63358852D02*
X15293521Y-63491900D01*
X15293521Y-63491900D02*
X15293521Y-63757995D01*
X15293521Y-63757995D02*
X15220950Y-63891043D01*
X15220950Y-63891043D02*
X15148378Y-63957566D01*
X15148378Y-63957566D02*
X15003235Y-64024090D01*
X15003235Y-64024090D02*
X14567807Y-64024090D01*
X14567807Y-64024090D02*
X14422664Y-63957566D01*
X14422664Y-63957566D02*
X14350092Y-63891043D01*
X14350092Y-63891043D02*
X14277521Y-63757995D01*
X14277521Y-63757995D02*
X14277521Y-63491900D01*
X14277521Y-63491900D02*
X14350092Y-63358852D01*
X15293521Y-62693614D02*
X13769521Y-62693614D01*
X15293521Y-62094900D02*
X14495235Y-62094900D01*
X14495235Y-62094900D02*
X14350092Y-62161424D01*
X14350092Y-62161424D02*
X14277521Y-62294472D01*
X14277521Y-62294472D02*
X14277521Y-62494043D01*
X14277521Y-62494043D02*
X14350092Y-62627091D01*
X14350092Y-62627091D02*
X14422664Y-62693614D01*
X14277521Y-61629234D02*
X14277521Y-61097043D01*
X13769521Y-61429662D02*
X15075807Y-61429662D01*
X15075807Y-61429662D02*
X15220950Y-61363139D01*
X15220950Y-61363139D02*
X15293521Y-61230091D01*
X15293521Y-61230091D02*
X15293521Y-61097043D01*
X14132378Y-58436091D02*
X14059807Y-58569138D01*
X14059807Y-58569138D02*
X14059807Y-58835234D01*
X14059807Y-58835234D02*
X14132378Y-58968281D01*
X14132378Y-58968281D02*
X14277521Y-59101329D01*
X14277521Y-59101329D02*
X14422664Y-59167853D01*
X14422664Y-59167853D02*
X14712950Y-59167853D01*
X14712950Y-59167853D02*
X14858092Y-59101329D01*
X14858092Y-59101329D02*
X15003235Y-58968281D01*
X15003235Y-58968281D02*
X15075807Y-58835234D01*
X15075807Y-58835234D02*
X15075807Y-58569138D01*
X15075807Y-58569138D02*
X15003235Y-58436091D01*
X13551807Y-58702186D02*
X13624378Y-59034805D01*
X13624378Y-59034805D02*
X13842092Y-59367424D01*
X13842092Y-59367424D02*
X14204950Y-59566995D01*
X14204950Y-59566995D02*
X14567807Y-59633519D01*
X14567807Y-59633519D02*
X14930664Y-59566995D01*
X14930664Y-59566995D02*
X15293521Y-59367424D01*
X15293521Y-59367424D02*
X15511235Y-59034805D01*
X15511235Y-59034805D02*
X15583807Y-58702186D01*
X15583807Y-58702186D02*
X15511235Y-58369567D01*
X15511235Y-58369567D02*
X15293521Y-58036948D01*
X15293521Y-58036948D02*
X14930664Y-57837376D01*
X14930664Y-57837376D02*
X14567807Y-57770853D01*
X14567807Y-57770853D02*
X14204950Y-57837376D01*
X14204950Y-57837376D02*
X13842092Y-58036948D01*
X13842092Y-58036948D02*
X13624378Y-58369567D01*
X13624378Y-58369567D02*
X13551807Y-58702186D01*
X13914664Y-56174281D02*
X13842092Y-56107757D01*
X13842092Y-56107757D02*
X13769521Y-55974710D01*
X13769521Y-55974710D02*
X13769521Y-55642091D01*
X13769521Y-55642091D02*
X13842092Y-55509043D01*
X13842092Y-55509043D02*
X13914664Y-55442519D01*
X13914664Y-55442519D02*
X14059807Y-55375996D01*
X14059807Y-55375996D02*
X14204950Y-55375996D01*
X14204950Y-55375996D02*
X14422664Y-55442519D01*
X14422664Y-55442519D02*
X15293521Y-56240805D01*
X15293521Y-56240805D02*
X15293521Y-55375996D01*
X13769521Y-54511186D02*
X13769521Y-54378139D01*
X13769521Y-54378139D02*
X13842092Y-54245091D01*
X13842092Y-54245091D02*
X13914664Y-54178567D01*
X13914664Y-54178567D02*
X14059807Y-54112043D01*
X14059807Y-54112043D02*
X14350092Y-54045520D01*
X14350092Y-54045520D02*
X14712950Y-54045520D01*
X14712950Y-54045520D02*
X15003235Y-54112043D01*
X15003235Y-54112043D02*
X15148378Y-54178567D01*
X15148378Y-54178567D02*
X15220950Y-54245091D01*
X15220950Y-54245091D02*
X15293521Y-54378139D01*
X15293521Y-54378139D02*
X15293521Y-54511186D01*
X15293521Y-54511186D02*
X15220950Y-54644234D01*
X15220950Y-54644234D02*
X15148378Y-54710758D01*
X15148378Y-54710758D02*
X15003235Y-54777281D01*
X15003235Y-54777281D02*
X14712950Y-54843805D01*
X14712950Y-54843805D02*
X14350092Y-54843805D01*
X14350092Y-54843805D02*
X14059807Y-54777281D01*
X14059807Y-54777281D02*
X13914664Y-54710758D01*
X13914664Y-54710758D02*
X13842092Y-54644234D01*
X13842092Y-54644234D02*
X13769521Y-54511186D01*
X13914664Y-53513329D02*
X13842092Y-53446805D01*
X13842092Y-53446805D02*
X13769521Y-53313758D01*
X13769521Y-53313758D02*
X13769521Y-52981139D01*
X13769521Y-52981139D02*
X13842092Y-52848091D01*
X13842092Y-52848091D02*
X13914664Y-52781567D01*
X13914664Y-52781567D02*
X14059807Y-52715044D01*
X14059807Y-52715044D02*
X14204950Y-52715044D01*
X14204950Y-52715044D02*
X14422664Y-52781567D01*
X14422664Y-52781567D02*
X15293521Y-53579853D01*
X15293521Y-53579853D02*
X15293521Y-52715044D01*
X14277521Y-51517615D02*
X15293521Y-51517615D01*
X13696950Y-51850234D02*
X14785521Y-52182853D01*
X14785521Y-52182853D02*
X14785521Y-51318044D01*
D11*
X14147996Y-94473346D02*
X13433710Y-94973346D01*
X14147996Y-95330489D02*
X12647996Y-95330489D01*
X12647996Y-95330489D02*
X12647996Y-94759060D01*
X12647996Y-94759060D02*
X12719425Y-94616203D01*
X12719425Y-94616203D02*
X12790853Y-94544774D01*
X12790853Y-94544774D02*
X12933710Y-94473346D01*
X12933710Y-94473346D02*
X13147996Y-94473346D01*
X13147996Y-94473346D02*
X13290853Y-94544774D01*
X13290853Y-94544774D02*
X13362282Y-94616203D01*
X13362282Y-94616203D02*
X13433710Y-94759060D01*
X13433710Y-94759060D02*
X13433710Y-95330489D01*
X14005139Y-92973346D02*
X14076568Y-93044774D01*
X14076568Y-93044774D02*
X14147996Y-93259060D01*
X14147996Y-93259060D02*
X14147996Y-93401917D01*
X14147996Y-93401917D02*
X14076568Y-93616203D01*
X14076568Y-93616203D02*
X13933710Y-93759060D01*
X13933710Y-93759060D02*
X13790853Y-93830489D01*
X13790853Y-93830489D02*
X13505139Y-93901917D01*
X13505139Y-93901917D02*
X13290853Y-93901917D01*
X13290853Y-93901917D02*
X13005139Y-93830489D01*
X13005139Y-93830489D02*
X12862282Y-93759060D01*
X12862282Y-93759060D02*
X12719425Y-93616203D01*
X12719425Y-93616203D02*
X12647996Y-93401917D01*
X12647996Y-93401917D02*
X12647996Y-93259060D01*
X12647996Y-93259060D02*
X12719425Y-93044774D01*
X12719425Y-93044774D02*
X12790853Y-92973346D01*
X13362282Y-91830489D02*
X13433710Y-91616203D01*
X13433710Y-91616203D02*
X13505139Y-91544774D01*
X13505139Y-91544774D02*
X13647996Y-91473346D01*
X13647996Y-91473346D02*
X13862282Y-91473346D01*
X13862282Y-91473346D02*
X14005139Y-91544774D01*
X14005139Y-91544774D02*
X14076568Y-91616203D01*
X14076568Y-91616203D02*
X14147996Y-91759060D01*
X14147996Y-91759060D02*
X14147996Y-92330489D01*
X14147996Y-92330489D02*
X12647996Y-92330489D01*
X12647996Y-92330489D02*
X12647996Y-91830489D01*
X12647996Y-91830489D02*
X12719425Y-91687632D01*
X12719425Y-91687632D02*
X12790853Y-91616203D01*
X12790853Y-91616203D02*
X12933710Y-91544774D01*
X12933710Y-91544774D02*
X13076568Y-91544774D01*
X13076568Y-91544774D02*
X13219425Y-91616203D01*
X13219425Y-91616203D02*
X13290853Y-91687632D01*
X13290853Y-91687632D02*
X13362282Y-91830489D01*
X13362282Y-91830489D02*
X13362282Y-92330489D01*
X12647996Y-90830489D02*
X13862282Y-90830489D01*
X13862282Y-90830489D02*
X14005139Y-90759060D01*
X14005139Y-90759060D02*
X14076568Y-90687632D01*
X14076568Y-90687632D02*
X14147996Y-90544774D01*
X14147996Y-90544774D02*
X14147996Y-90259060D01*
X14147996Y-90259060D02*
X14076568Y-90116203D01*
X14076568Y-90116203D02*
X14005139Y-90044774D01*
X14005139Y-90044774D02*
X13862282Y-89973346D01*
X13862282Y-89973346D02*
X12647996Y-89973346D01*
X14076568Y-89330488D02*
X14147996Y-89116203D01*
X14147996Y-89116203D02*
X14147996Y-88759060D01*
X14147996Y-88759060D02*
X14076568Y-88616203D01*
X14076568Y-88616203D02*
X14005139Y-88544774D01*
X14005139Y-88544774D02*
X13862282Y-88473345D01*
X13862282Y-88473345D02*
X13719425Y-88473345D01*
X13719425Y-88473345D02*
X13576568Y-88544774D01*
X13576568Y-88544774D02*
X13505139Y-88616203D01*
X13505139Y-88616203D02*
X13433710Y-88759060D01*
X13433710Y-88759060D02*
X13362282Y-89044774D01*
X13362282Y-89044774D02*
X13290853Y-89187631D01*
X13290853Y-89187631D02*
X13219425Y-89259060D01*
X13219425Y-89259060D02*
X13076568Y-89330488D01*
X13076568Y-89330488D02*
X12933710Y-89330488D01*
X12933710Y-89330488D02*
X12790853Y-89259060D01*
X12790853Y-89259060D02*
X12719425Y-89187631D01*
X12719425Y-89187631D02*
X12647996Y-89044774D01*
X12647996Y-89044774D02*
X12647996Y-88687631D01*
X12647996Y-88687631D02*
X12719425Y-88473345D01*
X13290853Y-86473346D02*
X13219425Y-86616203D01*
X13219425Y-86616203D02*
X13147996Y-86687632D01*
X13147996Y-86687632D02*
X13005139Y-86759060D01*
X13005139Y-86759060D02*
X12933710Y-86759060D01*
X12933710Y-86759060D02*
X12790853Y-86687632D01*
X12790853Y-86687632D02*
X12719425Y-86616203D01*
X12719425Y-86616203D02*
X12647996Y-86473346D01*
X12647996Y-86473346D02*
X12647996Y-86187632D01*
X12647996Y-86187632D02*
X12719425Y-86044775D01*
X12719425Y-86044775D02*
X12790853Y-85973346D01*
X12790853Y-85973346D02*
X12933710Y-85901917D01*
X12933710Y-85901917D02*
X13005139Y-85901917D01*
X13005139Y-85901917D02*
X13147996Y-85973346D01*
X13147996Y-85973346D02*
X13219425Y-86044775D01*
X13219425Y-86044775D02*
X13290853Y-86187632D01*
X13290853Y-86187632D02*
X13290853Y-86473346D01*
X13290853Y-86473346D02*
X13362282Y-86616203D01*
X13362282Y-86616203D02*
X13433710Y-86687632D01*
X13433710Y-86687632D02*
X13576568Y-86759060D01*
X13576568Y-86759060D02*
X13862282Y-86759060D01*
X13862282Y-86759060D02*
X14005139Y-86687632D01*
X14005139Y-86687632D02*
X14076568Y-86616203D01*
X14076568Y-86616203D02*
X14147996Y-86473346D01*
X14147996Y-86473346D02*
X14147996Y-86187632D01*
X14147996Y-86187632D02*
X14076568Y-86044775D01*
X14076568Y-86044775D02*
X14005139Y-85973346D01*
X14005139Y-85973346D02*
X13862282Y-85901917D01*
X13862282Y-85901917D02*
X13576568Y-85901917D01*
X13576568Y-85901917D02*
X13433710Y-85973346D01*
X13433710Y-85973346D02*
X13362282Y-86044775D01*
X13362282Y-86044775D02*
X13290853Y-86187632D01*
X12647996Y-84973346D02*
X12647996Y-84830489D01*
X12647996Y-84830489D02*
X12719425Y-84687632D01*
X12719425Y-84687632D02*
X12790853Y-84616204D01*
X12790853Y-84616204D02*
X12933710Y-84544775D01*
X12933710Y-84544775D02*
X13219425Y-84473346D01*
X13219425Y-84473346D02*
X13576568Y-84473346D01*
X13576568Y-84473346D02*
X13862282Y-84544775D01*
X13862282Y-84544775D02*
X14005139Y-84616204D01*
X14005139Y-84616204D02*
X14076568Y-84687632D01*
X14076568Y-84687632D02*
X14147996Y-84830489D01*
X14147996Y-84830489D02*
X14147996Y-84973346D01*
X14147996Y-84973346D02*
X14076568Y-85116204D01*
X14076568Y-85116204D02*
X14005139Y-85187632D01*
X14005139Y-85187632D02*
X13862282Y-85259061D01*
X13862282Y-85259061D02*
X13576568Y-85330489D01*
X13576568Y-85330489D02*
X13219425Y-85330489D01*
X13219425Y-85330489D02*
X12933710Y-85259061D01*
X12933710Y-85259061D02*
X12790853Y-85187632D01*
X12790853Y-85187632D02*
X12719425Y-85116204D01*
X12719425Y-85116204D02*
X12647996Y-84973346D01*
X13576568Y-83830490D02*
X13576568Y-82687633D01*
X14147996Y-81973347D02*
X12647996Y-81973347D01*
X12647996Y-81973347D02*
X12647996Y-81401918D01*
X12647996Y-81401918D02*
X12719425Y-81259061D01*
X12719425Y-81259061D02*
X12790853Y-81187632D01*
X12790853Y-81187632D02*
X12933710Y-81116204D01*
X12933710Y-81116204D02*
X13147996Y-81116204D01*
X13147996Y-81116204D02*
X13290853Y-81187632D01*
X13290853Y-81187632D02*
X13362282Y-81259061D01*
X13362282Y-81259061D02*
X13433710Y-81401918D01*
X13433710Y-81401918D02*
X13433710Y-81973347D01*
X14147996Y-80473347D02*
X12647996Y-80473347D01*
X14147996Y-79759061D02*
X12647996Y-79759061D01*
X12647996Y-79759061D02*
X14147996Y-78901918D01*
X14147996Y-78901918D02*
X12647996Y-78901918D01*
X15777198Y-95330489D02*
X15777198Y-94830489D01*
X16562912Y-94616203D02*
X16562912Y-95330489D01*
X16562912Y-95330489D02*
X15062912Y-95330489D01*
X15062912Y-95330489D02*
X15062912Y-94616203D01*
X15062912Y-94116203D02*
X16562912Y-93116203D01*
X15062912Y-93116203D02*
X16562912Y-94116203D01*
X16562912Y-92544775D02*
X15062912Y-92544775D01*
X15062912Y-92544775D02*
X15062912Y-91973346D01*
X15062912Y-91973346D02*
X15134341Y-91830489D01*
X15134341Y-91830489D02*
X15205769Y-91759060D01*
X15205769Y-91759060D02*
X15348626Y-91687632D01*
X15348626Y-91687632D02*
X15562912Y-91687632D01*
X15562912Y-91687632D02*
X15705769Y-91759060D01*
X15705769Y-91759060D02*
X15777198Y-91830489D01*
X15777198Y-91830489D02*
X15848626Y-91973346D01*
X15848626Y-91973346D02*
X15848626Y-92544775D01*
X16134341Y-91116203D02*
X16134341Y-90401918D01*
X16562912Y-91259060D02*
X15062912Y-90759060D01*
X15062912Y-90759060D02*
X16562912Y-90259060D01*
X16562912Y-89759061D02*
X15062912Y-89759061D01*
X15062912Y-89759061D02*
X16562912Y-88901918D01*
X16562912Y-88901918D02*
X15062912Y-88901918D01*
X16491484Y-88259060D02*
X16562912Y-88044775D01*
X16562912Y-88044775D02*
X16562912Y-87687632D01*
X16562912Y-87687632D02*
X16491484Y-87544775D01*
X16491484Y-87544775D02*
X16420055Y-87473346D01*
X16420055Y-87473346D02*
X16277198Y-87401917D01*
X16277198Y-87401917D02*
X16134341Y-87401917D01*
X16134341Y-87401917D02*
X15991484Y-87473346D01*
X15991484Y-87473346D02*
X15920055Y-87544775D01*
X15920055Y-87544775D02*
X15848626Y-87687632D01*
X15848626Y-87687632D02*
X15777198Y-87973346D01*
X15777198Y-87973346D02*
X15705769Y-88116203D01*
X15705769Y-88116203D02*
X15634341Y-88187632D01*
X15634341Y-88187632D02*
X15491484Y-88259060D01*
X15491484Y-88259060D02*
X15348626Y-88259060D01*
X15348626Y-88259060D02*
X15205769Y-88187632D01*
X15205769Y-88187632D02*
X15134341Y-88116203D01*
X15134341Y-88116203D02*
X15062912Y-87973346D01*
X15062912Y-87973346D02*
X15062912Y-87616203D01*
X15062912Y-87616203D02*
X15134341Y-87401917D01*
X16562912Y-86759061D02*
X15062912Y-86759061D01*
X15062912Y-85759060D02*
X15062912Y-85473346D01*
X15062912Y-85473346D02*
X15134341Y-85330489D01*
X15134341Y-85330489D02*
X15277198Y-85187632D01*
X15277198Y-85187632D02*
X15562912Y-85116203D01*
X15562912Y-85116203D02*
X16062912Y-85116203D01*
X16062912Y-85116203D02*
X16348626Y-85187632D01*
X16348626Y-85187632D02*
X16491484Y-85330489D01*
X16491484Y-85330489D02*
X16562912Y-85473346D01*
X16562912Y-85473346D02*
X16562912Y-85759060D01*
X16562912Y-85759060D02*
X16491484Y-85901918D01*
X16491484Y-85901918D02*
X16348626Y-86044775D01*
X16348626Y-86044775D02*
X16062912Y-86116203D01*
X16062912Y-86116203D02*
X15562912Y-86116203D01*
X15562912Y-86116203D02*
X15277198Y-86044775D01*
X15277198Y-86044775D02*
X15134341Y-85901918D01*
X15134341Y-85901918D02*
X15062912Y-85759060D01*
X16562912Y-84473346D02*
X15062912Y-84473346D01*
X15062912Y-84473346D02*
X16562912Y-83616203D01*
X16562912Y-83616203D02*
X15062912Y-83616203D01*
X15777198Y-81259060D02*
X15848626Y-81044774D01*
X15848626Y-81044774D02*
X15920055Y-80973345D01*
X15920055Y-80973345D02*
X16062912Y-80901917D01*
X16062912Y-80901917D02*
X16277198Y-80901917D01*
X16277198Y-80901917D02*
X16420055Y-80973345D01*
X16420055Y-80973345D02*
X16491484Y-81044774D01*
X16491484Y-81044774D02*
X16562912Y-81187631D01*
X16562912Y-81187631D02*
X16562912Y-81759060D01*
X16562912Y-81759060D02*
X15062912Y-81759060D01*
X15062912Y-81759060D02*
X15062912Y-81259060D01*
X15062912Y-81259060D02*
X15134341Y-81116203D01*
X15134341Y-81116203D02*
X15205769Y-81044774D01*
X15205769Y-81044774D02*
X15348626Y-80973345D01*
X15348626Y-80973345D02*
X15491484Y-80973345D01*
X15491484Y-80973345D02*
X15634341Y-81044774D01*
X15634341Y-81044774D02*
X15705769Y-81116203D01*
X15705769Y-81116203D02*
X15777198Y-81259060D01*
X15777198Y-81259060D02*
X15777198Y-81759060D01*
X15062912Y-80259060D02*
X16277198Y-80259060D01*
X16277198Y-80259060D02*
X16420055Y-80187631D01*
X16420055Y-80187631D02*
X16491484Y-80116203D01*
X16491484Y-80116203D02*
X16562912Y-79973345D01*
X16562912Y-79973345D02*
X16562912Y-79687631D01*
X16562912Y-79687631D02*
X16491484Y-79544774D01*
X16491484Y-79544774D02*
X16420055Y-79473345D01*
X16420055Y-79473345D02*
X16277198Y-79401917D01*
X16277198Y-79401917D02*
X15062912Y-79401917D01*
X16491484Y-78759059D02*
X16562912Y-78544774D01*
X16562912Y-78544774D02*
X16562912Y-78187631D01*
X16562912Y-78187631D02*
X16491484Y-78044774D01*
X16491484Y-78044774D02*
X16420055Y-77973345D01*
X16420055Y-77973345D02*
X16277198Y-77901916D01*
X16277198Y-77901916D02*
X16134341Y-77901916D01*
X16134341Y-77901916D02*
X15991484Y-77973345D01*
X15991484Y-77973345D02*
X15920055Y-78044774D01*
X15920055Y-78044774D02*
X15848626Y-78187631D01*
X15848626Y-78187631D02*
X15777198Y-78473345D01*
X15777198Y-78473345D02*
X15705769Y-78616202D01*
X15705769Y-78616202D02*
X15634341Y-78687631D01*
X15634341Y-78687631D02*
X15491484Y-78759059D01*
X15491484Y-78759059D02*
X15348626Y-78759059D01*
X15348626Y-78759059D02*
X15205769Y-78687631D01*
X15205769Y-78687631D02*
X15134341Y-78616202D01*
X15134341Y-78616202D02*
X15062912Y-78473345D01*
X15062912Y-78473345D02*
X15062912Y-78116202D01*
X15062912Y-78116202D02*
X15134341Y-77901916D01*
X17477828Y-95544774D02*
X17477828Y-94687632D01*
X18977828Y-95116203D02*
X17477828Y-95116203D01*
X18977828Y-94187632D02*
X17477828Y-94187632D01*
X18192114Y-94187632D02*
X18192114Y-93330489D01*
X18977828Y-93330489D02*
X17477828Y-93330489D01*
X18977828Y-92616203D02*
X17477828Y-92616203D01*
X18906400Y-91973345D02*
X18977828Y-91759060D01*
X18977828Y-91759060D02*
X18977828Y-91401917D01*
X18977828Y-91401917D02*
X18906400Y-91259060D01*
X18906400Y-91259060D02*
X18834971Y-91187631D01*
X18834971Y-91187631D02*
X18692114Y-91116202D01*
X18692114Y-91116202D02*
X18549257Y-91116202D01*
X18549257Y-91116202D02*
X18406400Y-91187631D01*
X18406400Y-91187631D02*
X18334971Y-91259060D01*
X18334971Y-91259060D02*
X18263542Y-91401917D01*
X18263542Y-91401917D02*
X18192114Y-91687631D01*
X18192114Y-91687631D02*
X18120685Y-91830488D01*
X18120685Y-91830488D02*
X18049257Y-91901917D01*
X18049257Y-91901917D02*
X17906400Y-91973345D01*
X17906400Y-91973345D02*
X17763542Y-91973345D01*
X17763542Y-91973345D02*
X17620685Y-91901917D01*
X17620685Y-91901917D02*
X17549257Y-91830488D01*
X17549257Y-91830488D02*
X17477828Y-91687631D01*
X17477828Y-91687631D02*
X17477828Y-91330488D01*
X17477828Y-91330488D02*
X17549257Y-91116202D01*
X18906400Y-89401917D02*
X18977828Y-89187632D01*
X18977828Y-89187632D02*
X18977828Y-88830489D01*
X18977828Y-88830489D02*
X18906400Y-88687632D01*
X18906400Y-88687632D02*
X18834971Y-88616203D01*
X18834971Y-88616203D02*
X18692114Y-88544774D01*
X18692114Y-88544774D02*
X18549257Y-88544774D01*
X18549257Y-88544774D02*
X18406400Y-88616203D01*
X18406400Y-88616203D02*
X18334971Y-88687632D01*
X18334971Y-88687632D02*
X18263542Y-88830489D01*
X18263542Y-88830489D02*
X18192114Y-89116203D01*
X18192114Y-89116203D02*
X18120685Y-89259060D01*
X18120685Y-89259060D02*
X18049257Y-89330489D01*
X18049257Y-89330489D02*
X17906400Y-89401917D01*
X17906400Y-89401917D02*
X17763542Y-89401917D01*
X17763542Y-89401917D02*
X17620685Y-89330489D01*
X17620685Y-89330489D02*
X17549257Y-89259060D01*
X17549257Y-89259060D02*
X17477828Y-89116203D01*
X17477828Y-89116203D02*
X17477828Y-88759060D01*
X17477828Y-88759060D02*
X17549257Y-88544774D01*
X18977828Y-87901918D02*
X17477828Y-87901918D01*
X18977828Y-87187632D02*
X17477828Y-87187632D01*
X17477828Y-87187632D02*
X17477828Y-86830489D01*
X17477828Y-86830489D02*
X17549257Y-86616203D01*
X17549257Y-86616203D02*
X17692114Y-86473346D01*
X17692114Y-86473346D02*
X17834971Y-86401917D01*
X17834971Y-86401917D02*
X18120685Y-86330489D01*
X18120685Y-86330489D02*
X18334971Y-86330489D01*
X18334971Y-86330489D02*
X18620685Y-86401917D01*
X18620685Y-86401917D02*
X18763542Y-86473346D01*
X18763542Y-86473346D02*
X18906400Y-86616203D01*
X18906400Y-86616203D02*
X18977828Y-86830489D01*
X18977828Y-86830489D02*
X18977828Y-87187632D01*
X18192114Y-85687632D02*
X18192114Y-85187632D01*
X18977828Y-84973346D02*
X18977828Y-85687632D01*
X18977828Y-85687632D02*
X17477828Y-85687632D01*
X17477828Y-85687632D02*
X17477828Y-84973346D01*
X13968796Y-22176828D02*
X13254510Y-22176828D01*
X13254510Y-22176828D02*
X13183082Y-22891114D01*
X13183082Y-22891114D02*
X13254510Y-22819685D01*
X13254510Y-22819685D02*
X13397368Y-22748257D01*
X13397368Y-22748257D02*
X13754510Y-22748257D01*
X13754510Y-22748257D02*
X13897368Y-22819685D01*
X13897368Y-22819685D02*
X13968796Y-22891114D01*
X13968796Y-22891114D02*
X14040225Y-23033971D01*
X14040225Y-23033971D02*
X14040225Y-23391114D01*
X14040225Y-23391114D02*
X13968796Y-23533971D01*
X13968796Y-23533971D02*
X13897368Y-23605400D01*
X13897368Y-23605400D02*
X13754510Y-23676828D01*
X13754510Y-23676828D02*
X13397368Y-23676828D01*
X13397368Y-23676828D02*
X13254510Y-23605400D01*
X13254510Y-23605400D02*
X13183082Y-23533971D01*
X14968796Y-22176828D02*
X15111653Y-22176828D01*
X15111653Y-22176828D02*
X15254510Y-22248257D01*
X15254510Y-22248257D02*
X15325939Y-22319685D01*
X15325939Y-22319685D02*
X15397367Y-22462542D01*
X15397367Y-22462542D02*
X15468796Y-22748257D01*
X15468796Y-22748257D02*
X15468796Y-23105400D01*
X15468796Y-23105400D02*
X15397367Y-23391114D01*
X15397367Y-23391114D02*
X15325939Y-23533971D01*
X15325939Y-23533971D02*
X15254510Y-23605400D01*
X15254510Y-23605400D02*
X15111653Y-23676828D01*
X15111653Y-23676828D02*
X14968796Y-23676828D01*
X14968796Y-23676828D02*
X14825939Y-23605400D01*
X14825939Y-23605400D02*
X14754510Y-23533971D01*
X14754510Y-23533971D02*
X14683081Y-23391114D01*
X14683081Y-23391114D02*
X14611653Y-23105400D01*
X14611653Y-23105400D02*
X14611653Y-22748257D01*
X14611653Y-22748257D02*
X14683081Y-22462542D01*
X14683081Y-22462542D02*
X14754510Y-22319685D01*
X14754510Y-22319685D02*
X14825939Y-22248257D01*
X14825939Y-22248257D02*
X14968796Y-22176828D01*
X17183081Y-22105400D02*
X15897367Y-24033971D01*
X18468796Y-23676828D02*
X17611653Y-23676828D01*
X18040224Y-23676828D02*
X18040224Y-22176828D01*
X18040224Y-22176828D02*
X17897367Y-22391114D01*
X17897367Y-22391114D02*
X17754510Y-22533971D01*
X17754510Y-22533971D02*
X17611653Y-22605400D01*
X19397367Y-22176828D02*
X19540224Y-22176828D01*
X19540224Y-22176828D02*
X19683081Y-22248257D01*
X19683081Y-22248257D02*
X19754510Y-22319685D01*
X19754510Y-22319685D02*
X19825938Y-22462542D01*
X19825938Y-22462542D02*
X19897367Y-22748257D01*
X19897367Y-22748257D02*
X19897367Y-23105400D01*
X19897367Y-23105400D02*
X19825938Y-23391114D01*
X19825938Y-23391114D02*
X19754510Y-23533971D01*
X19754510Y-23533971D02*
X19683081Y-23605400D01*
X19683081Y-23605400D02*
X19540224Y-23676828D01*
X19540224Y-23676828D02*
X19397367Y-23676828D01*
X19397367Y-23676828D02*
X19254510Y-23605400D01*
X19254510Y-23605400D02*
X19183081Y-23533971D01*
X19183081Y-23533971D02*
X19111652Y-23391114D01*
X19111652Y-23391114D02*
X19040224Y-23105400D01*
X19040224Y-23105400D02*
X19040224Y-22748257D01*
X19040224Y-22748257D02*
X19111652Y-22462542D01*
X19111652Y-22462542D02*
X19183081Y-22319685D01*
X19183081Y-22319685D02*
X19254510Y-22248257D01*
X19254510Y-22248257D02*
X19397367Y-22176828D01*
D15*
X16742580Y-44870666D02*
X16790200Y-44918285D01*
X16790200Y-44918285D02*
X16837819Y-45061142D01*
X16837819Y-45061142D02*
X16837819Y-45156380D01*
X16837819Y-45156380D02*
X16790200Y-45299237D01*
X16790200Y-45299237D02*
X16694961Y-45394475D01*
X16694961Y-45394475D02*
X16599723Y-45442094D01*
X16599723Y-45442094D02*
X16409247Y-45489713D01*
X16409247Y-45489713D02*
X16266390Y-45489713D01*
X16266390Y-45489713D02*
X16075914Y-45442094D01*
X16075914Y-45442094D02*
X15980676Y-45394475D01*
X15980676Y-45394475D02*
X15885438Y-45299237D01*
X15885438Y-45299237D02*
X15837819Y-45156380D01*
X15837819Y-45156380D02*
X15837819Y-45061142D01*
X15837819Y-45061142D02*
X15885438Y-44918285D01*
X15885438Y-44918285D02*
X15933057Y-44870666D01*
X16837819Y-43918285D02*
X16837819Y-44489713D01*
X16837819Y-44203999D02*
X15837819Y-44203999D01*
X15837819Y-44203999D02*
X15980676Y-44299237D01*
X15980676Y-44299237D02*
X16075914Y-44394475D01*
X16075914Y-44394475D02*
X16123533Y-44489713D01*
X7217580Y-16321066D02*
X7265200Y-16368685D01*
X7265200Y-16368685D02*
X7312819Y-16511542D01*
X7312819Y-16511542D02*
X7312819Y-16606780D01*
X7312819Y-16606780D02*
X7265200Y-16749637D01*
X7265200Y-16749637D02*
X7169961Y-16844875D01*
X7169961Y-16844875D02*
X7074723Y-16892494D01*
X7074723Y-16892494D02*
X6884247Y-16940113D01*
X6884247Y-16940113D02*
X6741390Y-16940113D01*
X6741390Y-16940113D02*
X6550914Y-16892494D01*
X6550914Y-16892494D02*
X6455676Y-16844875D01*
X6455676Y-16844875D02*
X6360438Y-16749637D01*
X6360438Y-16749637D02*
X6312819Y-16606780D01*
X6312819Y-16606780D02*
X6312819Y-16511542D01*
X6312819Y-16511542D02*
X6360438Y-16368685D01*
X6360438Y-16368685D02*
X6408057Y-16321066D01*
X6312819Y-15987732D02*
X6312819Y-15368685D01*
X6312819Y-15368685D02*
X6693771Y-15702018D01*
X6693771Y-15702018D02*
X6693771Y-15559161D01*
X6693771Y-15559161D02*
X6741390Y-15463923D01*
X6741390Y-15463923D02*
X6789009Y-15416304D01*
X6789009Y-15416304D02*
X6884247Y-15368685D01*
X6884247Y-15368685D02*
X7122342Y-15368685D01*
X7122342Y-15368685D02*
X7217580Y-15416304D01*
X7217580Y-15416304D02*
X7265200Y-15463923D01*
X7265200Y-15463923D02*
X7312819Y-15559161D01*
X7312819Y-15559161D02*
X7312819Y-15844875D01*
X7312819Y-15844875D02*
X7265200Y-15940113D01*
X7265200Y-15940113D02*
X7217580Y-15987732D01*
X1366666Y-8621619D02*
X1366666Y-9335904D01*
X1366666Y-9335904D02*
X1319047Y-9478761D01*
X1319047Y-9478761D02*
X1223809Y-9574000D01*
X1223809Y-9574000D02*
X1080952Y-9621619D01*
X1080952Y-9621619D02*
X985714Y-9621619D01*
X2366666Y-9621619D02*
X1795238Y-9621619D01*
X2080952Y-9621619D02*
X2080952Y-8621619D01*
X2080952Y-8621619D02*
X1985714Y-8764476D01*
X1985714Y-8764476D02*
X1890476Y-8859714D01*
X1890476Y-8859714D02*
X1795238Y-8907333D01*
X17622666Y-4557619D02*
X17622666Y-5271904D01*
X17622666Y-5271904D02*
X17575047Y-5414761D01*
X17575047Y-5414761D02*
X17479809Y-5510000D01*
X17479809Y-5510000D02*
X17336952Y-5557619D01*
X17336952Y-5557619D02*
X17241714Y-5557619D01*
X18051238Y-4652857D02*
X18098857Y-4605238D01*
X18098857Y-4605238D02*
X18194095Y-4557619D01*
X18194095Y-4557619D02*
X18432190Y-4557619D01*
X18432190Y-4557619D02*
X18527428Y-4605238D01*
X18527428Y-4605238D02*
X18575047Y-4652857D01*
X18575047Y-4652857D02*
X18622666Y-4748095D01*
X18622666Y-4748095D02*
X18622666Y-4843333D01*
X18622666Y-4843333D02*
X18575047Y-4986190D01*
X18575047Y-4986190D02*
X18003619Y-5557619D01*
X18003619Y-5557619D02*
X18622666Y-5557619D01*
X18393580Y-44870666D02*
X18441200Y-44918285D01*
X18441200Y-44918285D02*
X18488819Y-45061142D01*
X18488819Y-45061142D02*
X18488819Y-45156380D01*
X18488819Y-45156380D02*
X18441200Y-45299237D01*
X18441200Y-45299237D02*
X18345961Y-45394475D01*
X18345961Y-45394475D02*
X18250723Y-45442094D01*
X18250723Y-45442094D02*
X18060247Y-45489713D01*
X18060247Y-45489713D02*
X17917390Y-45489713D01*
X17917390Y-45489713D02*
X17726914Y-45442094D01*
X17726914Y-45442094D02*
X17631676Y-45394475D01*
X17631676Y-45394475D02*
X17536438Y-45299237D01*
X17536438Y-45299237D02*
X17488819Y-45156380D01*
X17488819Y-45156380D02*
X17488819Y-45061142D01*
X17488819Y-45061142D02*
X17536438Y-44918285D01*
X17536438Y-44918285D02*
X17584057Y-44870666D01*
X17584057Y-44489713D02*
X17536438Y-44442094D01*
X17536438Y-44442094D02*
X17488819Y-44346856D01*
X17488819Y-44346856D02*
X17488819Y-44108761D01*
X17488819Y-44108761D02*
X17536438Y-44013523D01*
X17536438Y-44013523D02*
X17584057Y-43965904D01*
X17584057Y-43965904D02*
X17679295Y-43918285D01*
X17679295Y-43918285D02*
X17774533Y-43918285D01*
X17774533Y-43918285D02*
X17917390Y-43965904D01*
X17917390Y-43965904D02*
X18488819Y-44537332D01*
X18488819Y-44537332D02*
X18488819Y-43918285D01*
X5693580Y-16321066D02*
X5741200Y-16368685D01*
X5741200Y-16368685D02*
X5788819Y-16511542D01*
X5788819Y-16511542D02*
X5788819Y-16606780D01*
X5788819Y-16606780D02*
X5741200Y-16749637D01*
X5741200Y-16749637D02*
X5645961Y-16844875D01*
X5645961Y-16844875D02*
X5550723Y-16892494D01*
X5550723Y-16892494D02*
X5360247Y-16940113D01*
X5360247Y-16940113D02*
X5217390Y-16940113D01*
X5217390Y-16940113D02*
X5026914Y-16892494D01*
X5026914Y-16892494D02*
X4931676Y-16844875D01*
X4931676Y-16844875D02*
X4836438Y-16749637D01*
X4836438Y-16749637D02*
X4788819Y-16606780D01*
X4788819Y-16606780D02*
X4788819Y-16511542D01*
X4788819Y-16511542D02*
X4836438Y-16368685D01*
X4836438Y-16368685D02*
X4884057Y-16321066D01*
X5122152Y-15463923D02*
X5788819Y-15463923D01*
X4741200Y-15702018D02*
X5455485Y-15940113D01*
X5455485Y-15940113D02*
X5455485Y-15321066D01*
D12*
%TO.C,C1*%
X15873000Y-42056267D02*
X15873000Y-41763733D01*
X16893000Y-42056267D02*
X16893000Y-41763733D01*
%TO.C,C3*%
X6320800Y-12830533D02*
X6320800Y-13123067D01*
X7340800Y-12830533D02*
X7340800Y-13123067D01*
%TO.C,J1*%
X-1474000Y-87154000D02*
X-1474000Y-10834000D01*
X1126000Y-84554000D02*
X1126000Y-87154000D01*
X1126000Y-87154000D02*
X-1474000Y-87154000D01*
X3726000Y-10834000D02*
X-1474000Y-10834000D01*
X3726000Y-84554000D02*
X1126000Y-84554000D01*
X3726000Y-84554000D02*
X3726000Y-10834000D01*
X3726000Y-85824000D02*
X3726000Y-87154000D01*
X3726000Y-87154000D02*
X2396000Y-87154000D01*
D16*
%TO.C,LOGO2*%
X10316188Y-5011045D02*
X10373665Y-5028606D01*
X10410672Y-5050795D01*
X10422727Y-5068342D01*
X10419409Y-5089142D01*
X10397879Y-5121819D01*
X10379674Y-5144962D01*
X10342144Y-5186802D01*
X10313948Y-5204405D01*
X10289911Y-5203256D01*
X10218608Y-5185110D01*
X10166242Y-5185934D01*
X10123718Y-5206498D01*
X10109442Y-5218534D01*
X10063747Y-5260883D01*
X10063747Y-5813926D01*
X9879931Y-5813926D01*
X9879931Y-5011821D01*
X9971839Y-5011821D01*
X10027019Y-5014003D01*
X10055488Y-5021751D01*
X10063743Y-5036868D01*
X10063747Y-5037316D01*
X10067645Y-5053149D01*
X10085274Y-5051084D01*
X10109701Y-5039661D01*
X10160150Y-5018405D01*
X10201116Y-5005616D01*
X10253828Y-5002338D01*
X10316188Y-5011045D01*
G36*
X10316188Y-5011045D02*
G01*
X10373665Y-5028606D01*
X10410672Y-5050795D01*
X10422727Y-5068342D01*
X10419409Y-5089142D01*
X10397879Y-5121819D01*
X10379674Y-5144962D01*
X10342144Y-5186802D01*
X10313948Y-5204405D01*
X10289911Y-5203256D01*
X10218608Y-5185110D01*
X10166242Y-5185934D01*
X10123718Y-5206498D01*
X10109442Y-5218534D01*
X10063747Y-5260883D01*
X10063747Y-5813926D01*
X9879931Y-5813926D01*
X9879931Y-5011821D01*
X9971839Y-5011821D01*
X10027019Y-5014003D01*
X10055488Y-5021751D01*
X10063743Y-5036868D01*
X10063747Y-5037316D01*
X10067645Y-5053149D01*
X10085274Y-5051084D01*
X10109701Y-5039661D01*
X10160150Y-5018405D01*
X10201116Y-5005616D01*
X10253828Y-5002338D01*
X10316188Y-5011045D01*
G37*
X10097967Y-6264847D02*
X10162208Y-6277512D01*
X10198780Y-6296264D01*
X10237253Y-6327417D01*
X10182517Y-6396527D01*
X10148769Y-6438379D01*
X10125853Y-6458798D01*
X10103079Y-6461917D01*
X10069756Y-6451872D01*
X10054114Y-6446189D01*
X9990342Y-6437804D01*
X9931940Y-6455778D01*
X9889064Y-6496382D01*
X9882099Y-6509329D01*
X9874513Y-6543624D01*
X9868659Y-6606827D01*
X9864811Y-6694460D01*
X9863243Y-6802040D01*
X9863221Y-6817344D01*
X9863221Y-7083926D01*
X9679405Y-7083926D01*
X9679405Y-6265110D01*
X9771313Y-6265110D01*
X9824307Y-6266494D01*
X9851915Y-6272652D01*
X9862124Y-6286594D01*
X9863221Y-6299744D01*
X9863221Y-6334378D01*
X9907250Y-6299744D01*
X9957737Y-6276116D01*
X10025560Y-6264433D01*
X10097967Y-6264847D01*
G36*
X10097967Y-6264847D02*
G01*
X10162208Y-6277512D01*
X10198780Y-6296264D01*
X10237253Y-6327417D01*
X10182517Y-6396527D01*
X10148769Y-6438379D01*
X10125853Y-6458798D01*
X10103079Y-6461917D01*
X10069756Y-6451872D01*
X10054114Y-6446189D01*
X9990342Y-6437804D01*
X9931940Y-6455778D01*
X9889064Y-6496382D01*
X9882099Y-6509329D01*
X9874513Y-6543624D01*
X9868659Y-6606827D01*
X9864811Y-6694460D01*
X9863243Y-6802040D01*
X9863221Y-6817344D01*
X9863221Y-7083926D01*
X9679405Y-7083926D01*
X9679405Y-6265110D01*
X9771313Y-6265110D01*
X9824307Y-6266494D01*
X9851915Y-6272652D01*
X9862124Y-6286594D01*
X9863221Y-6299744D01*
X9863221Y-6334378D01*
X9907250Y-6299744D01*
X9957737Y-6276116D01*
X10025560Y-6264433D01*
X10097967Y-6264847D01*
G37*
X6604681Y-6266886D02*
X6629688Y-6274382D01*
X6637750Y-6290851D01*
X6638089Y-6298286D01*
X6639536Y-6318994D01*
X6649498Y-6322245D01*
X6676412Y-6308048D01*
X6692398Y-6298348D01*
X6742833Y-6277575D01*
X6803072Y-6267304D01*
X6866234Y-6266514D01*
X6925437Y-6274186D01*
X6973802Y-6289298D01*
X7004446Y-6310832D01*
X7010489Y-6337766D01*
X7007439Y-6345060D01*
X6985206Y-6375337D01*
X6950730Y-6412575D01*
X6944494Y-6418595D01*
X6911633Y-6446275D01*
X6883280Y-6455218D01*
X6843627Y-6448976D01*
X6827742Y-6444829D01*
X6778309Y-6434867D01*
X6743552Y-6439347D01*
X6714200Y-6455146D01*
X6687313Y-6476349D01*
X6667510Y-6503014D01*
X6653748Y-6540227D01*
X6644984Y-6593073D01*
X6640174Y-6666637D01*
X6638274Y-6766005D01*
X6638089Y-6826001D01*
X6638089Y-7083926D01*
X6470984Y-7083926D01*
X6470984Y-6265110D01*
X6554536Y-6265110D01*
X6604681Y-6266886D01*
G36*
X6604681Y-6266886D02*
G01*
X6629688Y-6274382D01*
X6637750Y-6290851D01*
X6638089Y-6298286D01*
X6639536Y-6318994D01*
X6649498Y-6322245D01*
X6676412Y-6308048D01*
X6692398Y-6298348D01*
X6742833Y-6277575D01*
X6803072Y-6267304D01*
X6866234Y-6266514D01*
X6925437Y-6274186D01*
X6973802Y-6289298D01*
X7004446Y-6310832D01*
X7010489Y-6337766D01*
X7007439Y-6345060D01*
X6985206Y-6375337D01*
X6950730Y-6412575D01*
X6944494Y-6418595D01*
X6911633Y-6446275D01*
X6883280Y-6455218D01*
X6843627Y-6448976D01*
X6827742Y-6444829D01*
X6778309Y-6434867D01*
X6743552Y-6439347D01*
X6714200Y-6455146D01*
X6687313Y-6476349D01*
X6667510Y-6503014D01*
X6653748Y-6540227D01*
X6644984Y-6593073D01*
X6640174Y-6666637D01*
X6638274Y-6766005D01*
X6638089Y-6826001D01*
X6638089Y-7083926D01*
X6470984Y-7083926D01*
X6470984Y-6265110D01*
X6554536Y-6265110D01*
X6604681Y-6266886D01*
G37*
X9244931Y-5271933D02*
X9246510Y-5394489D01*
X9252281Y-5487579D01*
X9263791Y-5555051D01*
X9282590Y-5600755D01*
X9310226Y-5628539D01*
X9348248Y-5642254D01*
X9395326Y-5645758D01*
X9444632Y-5641832D01*
X9482083Y-5627489D01*
X9509228Y-5598878D01*
X9527615Y-5552151D01*
X9538793Y-5483458D01*
X9544311Y-5388950D01*
X9545721Y-5271933D01*
X9545721Y-5011821D01*
X9729536Y-5011821D01*
X9729536Y-5813926D01*
X9637628Y-5813926D01*
X9582222Y-5811681D01*
X9553691Y-5803796D01*
X9545721Y-5788828D01*
X9540920Y-5775497D01*
X9521814Y-5778317D01*
X9483304Y-5797183D01*
X9395039Y-5826287D01*
X9301423Y-5824225D01*
X9211721Y-5792621D01*
X9169004Y-5767657D01*
X9136421Y-5740626D01*
X9112617Y-5706805D01*
X9096239Y-5661468D01*
X9085931Y-5599889D01*
X9080341Y-5517343D01*
X9078112Y-5409105D01*
X9077826Y-5325404D01*
X9077826Y-5011821D01*
X9244931Y-5011821D01*
X9244931Y-5271933D01*
G36*
X9244931Y-5271933D02*
G01*
X9246510Y-5394489D01*
X9252281Y-5487579D01*
X9263791Y-5555051D01*
X9282590Y-5600755D01*
X9310226Y-5628539D01*
X9348248Y-5642254D01*
X9395326Y-5645758D01*
X9444632Y-5641832D01*
X9482083Y-5627489D01*
X9509228Y-5598878D01*
X9527615Y-5552151D01*
X9538793Y-5483458D01*
X9544311Y-5388950D01*
X9545721Y-5271933D01*
X9545721Y-5011821D01*
X9729536Y-5011821D01*
X9729536Y-5813926D01*
X9637628Y-5813926D01*
X9582222Y-5811681D01*
X9553691Y-5803796D01*
X9545721Y-5788828D01*
X9540920Y-5775497D01*
X9521814Y-5778317D01*
X9483304Y-5797183D01*
X9395039Y-5826287D01*
X9301423Y-5824225D01*
X9211721Y-5792621D01*
X9169004Y-5767657D01*
X9136421Y-5740626D01*
X9112617Y-5706805D01*
X9096239Y-5661468D01*
X9085931Y-5599889D01*
X9080341Y-5517343D01*
X9078112Y-5409105D01*
X9077826Y-5325404D01*
X9077826Y-5011821D01*
X9244931Y-5011821D01*
X9244931Y-5271933D01*
G37*
X6922757Y-5025626D02*
X6964346Y-5045490D01*
X7004625Y-5074184D01*
X7035310Y-5107209D01*
X7057661Y-5149331D01*
X7072936Y-5205315D01*
X7082392Y-5279928D01*
X7087287Y-5377935D01*
X7088881Y-5504102D01*
X7088906Y-5517314D01*
X7089273Y-5813926D01*
X6905457Y-5813926D01*
X6905457Y-5540481D01*
X6905327Y-5439177D01*
X6904421Y-5365753D01*
X6901973Y-5314671D01*
X6897214Y-5280390D01*
X6889374Y-5257371D01*
X6877685Y-5240073D01*
X6861402Y-5222981D01*
X6804434Y-5186257D01*
X6742245Y-5179442D01*
X6682999Y-5202661D01*
X6662395Y-5219943D01*
X6647270Y-5236191D01*
X6636410Y-5253591D01*
X6629110Y-5277612D01*
X6624663Y-5313722D01*
X6622364Y-5367388D01*
X6621504Y-5444080D01*
X6621378Y-5537443D01*
X6621378Y-5813926D01*
X6437563Y-5813926D01*
X6437563Y-5011821D01*
X6529471Y-5011821D01*
X6584651Y-5014003D01*
X6613120Y-5021751D01*
X6621375Y-5036868D01*
X6621378Y-5037316D01*
X6625208Y-5052120D01*
X6642101Y-5050440D01*
X6675688Y-5034173D01*
X6751863Y-5010240D01*
X6839000Y-5007578D01*
X6922757Y-5025626D01*
G36*
X6922757Y-5025626D02*
G01*
X6964346Y-5045490D01*
X7004625Y-5074184D01*
X7035310Y-5107209D01*
X7057661Y-5149331D01*
X7072936Y-5205315D01*
X7082392Y-5279928D01*
X7087287Y-5377935D01*
X7088881Y-5504102D01*
X7088906Y-5517314D01*
X7089273Y-5813926D01*
X6905457Y-5813926D01*
X6905457Y-5540481D01*
X6905327Y-5439177D01*
X6904421Y-5365753D01*
X6901973Y-5314671D01*
X6897214Y-5280390D01*
X6889374Y-5257371D01*
X6877685Y-5240073D01*
X6861402Y-5222981D01*
X6804434Y-5186257D01*
X6742245Y-5179442D01*
X6682999Y-5202661D01*
X6662395Y-5219943D01*
X6647270Y-5236191D01*
X6636410Y-5253591D01*
X6629110Y-5277612D01*
X6624663Y-5313722D01*
X6622364Y-5367388D01*
X6621504Y-5444080D01*
X6621378Y-5537443D01*
X6621378Y-5813926D01*
X6437563Y-5813926D01*
X6437563Y-5011821D01*
X6529471Y-5011821D01*
X6584651Y-5014003D01*
X6613120Y-5021751D01*
X6621375Y-5036868D01*
X6621378Y-5037316D01*
X6625208Y-5052120D01*
X6642101Y-5050440D01*
X6675688Y-5034173D01*
X6751863Y-5010240D01*
X6839000Y-5007578D01*
X6922757Y-5025626D01*
G37*
X10871376Y-5018819D02*
X10968195Y-5059949D01*
X10998690Y-5079971D01*
X11037665Y-5110740D01*
X11062131Y-5134933D01*
X11066378Y-5142813D01*
X11054384Y-5160299D01*
X11023687Y-5189970D01*
X10999112Y-5210679D01*
X10931846Y-5264736D01*
X10878730Y-5220042D01*
X10837684Y-5191189D01*
X10797663Y-5181229D01*
X10751859Y-5183661D01*
X10679124Y-5201745D01*
X10629056Y-5239281D01*
X10598629Y-5299962D01*
X10584817Y-5387481D01*
X10584813Y-5387536D01*
X10586008Y-5485358D01*
X10604572Y-5557130D01*
X10641604Y-5605995D01*
X10666850Y-5622543D01*
X10733897Y-5643149D01*
X10805509Y-5643162D01*
X10867815Y-5623168D01*
X10882563Y-5613400D01*
X10919550Y-5588447D01*
X10948468Y-5584358D01*
X10979656Y-5602930D01*
X11014136Y-5636287D01*
X11068712Y-5692596D01*
X11008118Y-5742542D01*
X10914498Y-5798913D01*
X10808925Y-5826693D01*
X10698598Y-5824682D01*
X10626143Y-5806262D01*
X10541456Y-5760710D01*
X10473727Y-5689050D01*
X10442957Y-5638466D01*
X10418036Y-5565888D01*
X10405566Y-5473969D01*
X10405470Y-5374348D01*
X10417670Y-5278667D01*
X10442090Y-5198569D01*
X10445936Y-5190356D01*
X10502893Y-5109813D01*
X10580009Y-5051171D01*
X10671190Y-5015647D01*
X10770343Y-5004457D01*
X10871376Y-5018819D01*
G36*
X10871376Y-5018819D02*
G01*
X10968195Y-5059949D01*
X10998690Y-5079971D01*
X11037665Y-5110740D01*
X11062131Y-5134933D01*
X11066378Y-5142813D01*
X11054384Y-5160299D01*
X11023687Y-5189970D01*
X10999112Y-5210679D01*
X10931846Y-5264736D01*
X10878730Y-5220042D01*
X10837684Y-5191189D01*
X10797663Y-5181229D01*
X10751859Y-5183661D01*
X10679124Y-5201745D01*
X10629056Y-5239281D01*
X10598629Y-5299962D01*
X10584817Y-5387481D01*
X10584813Y-5387536D01*
X10586008Y-5485358D01*
X10604572Y-5557130D01*
X10641604Y-5605995D01*
X10666850Y-5622543D01*
X10733897Y-5643149D01*
X10805509Y-5643162D01*
X10867815Y-5623168D01*
X10882563Y-5613400D01*
X10919550Y-5588447D01*
X10948468Y-5584358D01*
X10979656Y-5602930D01*
X11014136Y-5636287D01*
X11068712Y-5692596D01*
X11008118Y-5742542D01*
X10914498Y-5798913D01*
X10808925Y-5826693D01*
X10698598Y-5824682D01*
X10626143Y-5806262D01*
X10541456Y-5760710D01*
X10473727Y-5689050D01*
X10442957Y-5638466D01*
X10418036Y-5565888D01*
X10405566Y-5473969D01*
X10405470Y-5374348D01*
X10417670Y-5278667D01*
X10442090Y-5198569D01*
X10445936Y-5190356D01*
X10502893Y-5109813D01*
X10580009Y-5051171D01*
X10671190Y-5015647D01*
X10770343Y-5004457D01*
X10871376Y-5018819D01*
G37*
X8736469Y-5021710D02*
X8820992Y-5067740D01*
X8887121Y-5140406D01*
X8918278Y-5199506D01*
X8931655Y-5251705D01*
X8940322Y-5326119D01*
X8944037Y-5411842D01*
X8942554Y-5497969D01*
X8935631Y-5573593D01*
X8927545Y-5613984D01*
X8900265Y-5669240D01*
X8853020Y-5727930D01*
X8796082Y-5779252D01*
X8739724Y-5812405D01*
X8738350Y-5812931D01*
X8668416Y-5827418D01*
X8585537Y-5827777D01*
X8506777Y-5814588D01*
X8476366Y-5804017D01*
X8398039Y-5759601D01*
X8341943Y-5701407D01*
X8305086Y-5624365D01*
X8284480Y-5523401D01*
X8279818Y-5470516D01*
X8280413Y-5404063D01*
X8459536Y-5404063D01*
X8465570Y-5501030D01*
X8482938Y-5574923D01*
X8510540Y-5622136D01*
X8530204Y-5635637D01*
X8580587Y-5645051D01*
X8640473Y-5642264D01*
X8692249Y-5628716D01*
X8705827Y-5621262D01*
X8741649Y-5577851D01*
X8765293Y-5511414D01*
X8775358Y-5430561D01*
X8770442Y-5343902D01*
X8759455Y-5291749D01*
X8727909Y-5231351D01*
X8678111Y-5193597D01*
X8618137Y-5180543D01*
X8556064Y-5194249D01*
X8508382Y-5227772D01*
X8483325Y-5255431D01*
X8468700Y-5282694D01*
X8461729Y-5319590D01*
X8459633Y-5376150D01*
X8459536Y-5404063D01*
X8280413Y-5404063D01*
X8281082Y-5329394D01*
X8304065Y-5213671D01*
X8348772Y-5123341D01*
X8415205Y-5058400D01*
X8503365Y-5018845D01*
X8522295Y-5014258D01*
X8636066Y-5003490D01*
X8736469Y-5021710D01*
G36*
X8736469Y-5021710D02*
G01*
X8820992Y-5067740D01*
X8887121Y-5140406D01*
X8918278Y-5199506D01*
X8931655Y-5251705D01*
X8940322Y-5326119D01*
X8944037Y-5411842D01*
X8942554Y-5497969D01*
X8935631Y-5573593D01*
X8927545Y-5613984D01*
X8900265Y-5669240D01*
X8853020Y-5727930D01*
X8796082Y-5779252D01*
X8739724Y-5812405D01*
X8738350Y-5812931D01*
X8668416Y-5827418D01*
X8585537Y-5827777D01*
X8506777Y-5814588D01*
X8476366Y-5804017D01*
X8398039Y-5759601D01*
X8341943Y-5701407D01*
X8305086Y-5624365D01*
X8284480Y-5523401D01*
X8279818Y-5470516D01*
X8280413Y-5404063D01*
X8459536Y-5404063D01*
X8465570Y-5501030D01*
X8482938Y-5574923D01*
X8510540Y-5622136D01*
X8530204Y-5635637D01*
X8580587Y-5645051D01*
X8640473Y-5642264D01*
X8692249Y-5628716D01*
X8705827Y-5621262D01*
X8741649Y-5577851D01*
X8765293Y-5511414D01*
X8775358Y-5430561D01*
X8770442Y-5343902D01*
X8759455Y-5291749D01*
X8727909Y-5231351D01*
X8678111Y-5193597D01*
X8618137Y-5180543D01*
X8556064Y-5194249D01*
X8508382Y-5227772D01*
X8483325Y-5255431D01*
X8468700Y-5282694D01*
X8461729Y-5319590D01*
X8459633Y-5376150D01*
X8459536Y-5404063D01*
X8280413Y-5404063D01*
X8281082Y-5329394D01*
X8304065Y-5213671D01*
X8348772Y-5123341D01*
X8415205Y-5058400D01*
X8503365Y-5018845D01*
X8522295Y-5014258D01*
X8636066Y-5003490D01*
X8736469Y-5021710D01*
G37*
X8298930Y-6268504D02*
X8365020Y-6273466D01*
X8451426Y-6532479D01*
X8537831Y-6791492D01*
X8564924Y-6699584D01*
X8581228Y-6642784D01*
X8602675Y-6566025D01*
X8625835Y-6481651D01*
X8638080Y-6436393D01*
X8684144Y-6265110D01*
X8874187Y-6265110D01*
X8817382Y-6444749D01*
X8789407Y-6533104D01*
X8755613Y-6639681D01*
X8720320Y-6750854D01*
X8688813Y-6849979D01*
X8617050Y-7075571D01*
X8462086Y-7085653D01*
X8420070Y-6946928D01*
X8394159Y-6860751D01*
X8365883Y-6765747D01*
X8341169Y-6681841D01*
X8340194Y-6678502D01*
X8321735Y-6621648D01*
X8305449Y-6582856D01*
X8294042Y-6568187D01*
X8291698Y-6569883D01*
X8283471Y-6592625D01*
X8267838Y-6641340D01*
X8246704Y-6709902D01*
X8221970Y-6792185D01*
X8208587Y-6837446D01*
X8136111Y-7083926D01*
X7982295Y-7083926D01*
X7859331Y-6695406D01*
X7824788Y-6586422D01*
X7793321Y-6487448D01*
X7766416Y-6403136D01*
X7745559Y-6338134D01*
X7732238Y-6297092D01*
X7728188Y-6285101D01*
X7731394Y-6272823D01*
X7756565Y-6267446D01*
X7808946Y-6267984D01*
X7817145Y-6268390D01*
X7914282Y-6273466D01*
X7977900Y-6507413D01*
X8001284Y-6592733D01*
X8022181Y-6667735D01*
X8038751Y-6725907D01*
X8049154Y-6760737D01*
X8051076Y-6766416D01*
X8059041Y-6759886D01*
X8075104Y-6726054D01*
X8097421Y-6669527D01*
X8124145Y-6594910D01*
X8146737Y-6527507D01*
X8232841Y-6263543D01*
X8298930Y-6268504D01*
G36*
X8298930Y-6268504D02*
G01*
X8365020Y-6273466D01*
X8451426Y-6532479D01*
X8537831Y-6791492D01*
X8564924Y-6699584D01*
X8581228Y-6642784D01*
X8602675Y-6566025D01*
X8625835Y-6481651D01*
X8638080Y-6436393D01*
X8684144Y-6265110D01*
X8874187Y-6265110D01*
X8817382Y-6444749D01*
X8789407Y-6533104D01*
X8755613Y-6639681D01*
X8720320Y-6750854D01*
X8688813Y-6849979D01*
X8617050Y-7075571D01*
X8462086Y-7085653D01*
X8420070Y-6946928D01*
X8394159Y-6860751D01*
X8365883Y-6765747D01*
X8341169Y-6681841D01*
X8340194Y-6678502D01*
X8321735Y-6621648D01*
X8305449Y-6582856D01*
X8294042Y-6568187D01*
X8291698Y-6569883D01*
X8283471Y-6592625D01*
X8267838Y-6641340D01*
X8246704Y-6709902D01*
X8221970Y-6792185D01*
X8208587Y-6837446D01*
X8136111Y-7083926D01*
X7982295Y-7083926D01*
X7859331Y-6695406D01*
X7824788Y-6586422D01*
X7793321Y-6487448D01*
X7766416Y-6403136D01*
X7745559Y-6338134D01*
X7732238Y-6297092D01*
X7728188Y-6285101D01*
X7731394Y-6272823D01*
X7756565Y-6267446D01*
X7808946Y-6267984D01*
X7817145Y-6268390D01*
X7914282Y-6273466D01*
X7977900Y-6507413D01*
X8001284Y-6592733D01*
X8022181Y-6667735D01*
X8038751Y-6725907D01*
X8049154Y-6760737D01*
X8051076Y-6766416D01*
X8059041Y-6759886D01*
X8075104Y-6726054D01*
X8097421Y-6669527D01*
X8124145Y-6594910D01*
X8146737Y-6527507D01*
X8232841Y-6263543D01*
X8298930Y-6268504D01*
G37*
X4551584Y-5020504D02*
X4639005Y-5059154D01*
X4705370Y-5123690D01*
X4750776Y-5214212D01*
X4775318Y-5330818D01*
X4777077Y-5349024D01*
X4778456Y-5477384D01*
X4760584Y-5589896D01*
X4724550Y-5681088D01*
X4705255Y-5710422D01*
X4638045Y-5772506D01*
X4552450Y-5812716D01*
X4456690Y-5829403D01*
X4358987Y-5820917D01*
X4284717Y-5794780D01*
X4220847Y-5750735D01*
X4168646Y-5692987D01*
X4167743Y-5691636D01*
X4146544Y-5655993D01*
X4132767Y-5620152D01*
X4124424Y-5574919D01*
X4119527Y-5511101D01*
X4117369Y-5458768D01*
X4116471Y-5411310D01*
X4283543Y-5411310D01*
X4285176Y-5458554D01*
X4291104Y-5521446D01*
X4301561Y-5561807D01*
X4320419Y-5590522D01*
X4338081Y-5607296D01*
X4400694Y-5642416D01*
X4466208Y-5647110D01*
X4527221Y-5621840D01*
X4557728Y-5593524D01*
X4579711Y-5564989D01*
X4592569Y-5537684D01*
X4598212Y-5502150D01*
X4598551Y-5448924D01*
X4596812Y-5399906D01*
X4593071Y-5329882D01*
X4587141Y-5284464D01*
X4576453Y-5254840D01*
X4558439Y-5232197D01*
X4544163Y-5219255D01*
X4484451Y-5185260D01*
X4420034Y-5183565D01*
X4366019Y-5203701D01*
X4319940Y-5245752D01*
X4292489Y-5314828D01*
X4283543Y-5411310D01*
X4116471Y-5411310D01*
X4115399Y-5354699D01*
X4118764Y-5276868D01*
X4128845Y-5218330D01*
X4147026Y-5172137D01*
X4174690Y-5131342D01*
X4184946Y-5119228D01*
X4249078Y-5058874D01*
X4317866Y-5023620D01*
X4401989Y-5008850D01*
X4443009Y-5007643D01*
X4551584Y-5020504D01*
G36*
X4551584Y-5020504D02*
G01*
X4639005Y-5059154D01*
X4705370Y-5123690D01*
X4750776Y-5214212D01*
X4775318Y-5330818D01*
X4777077Y-5349024D01*
X4778456Y-5477384D01*
X4760584Y-5589896D01*
X4724550Y-5681088D01*
X4705255Y-5710422D01*
X4638045Y-5772506D01*
X4552450Y-5812716D01*
X4456690Y-5829403D01*
X4358987Y-5820917D01*
X4284717Y-5794780D01*
X4220847Y-5750735D01*
X4168646Y-5692987D01*
X4167743Y-5691636D01*
X4146544Y-5655993D01*
X4132767Y-5620152D01*
X4124424Y-5574919D01*
X4119527Y-5511101D01*
X4117369Y-5458768D01*
X4116471Y-5411310D01*
X4283543Y-5411310D01*
X4285176Y-5458554D01*
X4291104Y-5521446D01*
X4301561Y-5561807D01*
X4320419Y-5590522D01*
X4338081Y-5607296D01*
X4400694Y-5642416D01*
X4466208Y-5647110D01*
X4527221Y-5621840D01*
X4557728Y-5593524D01*
X4579711Y-5564989D01*
X4592569Y-5537684D01*
X4598212Y-5502150D01*
X4598551Y-5448924D01*
X4596812Y-5399906D01*
X4593071Y-5329882D01*
X4587141Y-5284464D01*
X4576453Y-5254840D01*
X4558439Y-5232197D01*
X4544163Y-5219255D01*
X4484451Y-5185260D01*
X4420034Y-5183565D01*
X4366019Y-5203701D01*
X4319940Y-5245752D01*
X4292489Y-5314828D01*
X4283543Y-5411310D01*
X4116471Y-5411310D01*
X4115399Y-5354699D01*
X4118764Y-5276868D01*
X4128845Y-5218330D01*
X4147026Y-5172137D01*
X4174690Y-5131342D01*
X4184946Y-5119228D01*
X4249078Y-5058874D01*
X4317866Y-5023620D01*
X4401989Y-5008850D01*
X4443009Y-5007643D01*
X4551584Y-5020504D01*
G37*
X7657431Y-7083926D02*
X7565523Y-7083926D01*
X7512177Y-7082362D01*
X7484393Y-7075885D01*
X7474390Y-7061818D01*
X7473615Y-7052306D01*
X7471928Y-7033232D01*
X7461290Y-7029574D01*
X7433335Y-7041332D01*
X7411595Y-7052306D01*
X7328132Y-7078311D01*
X7237404Y-7079816D01*
X7163642Y-7060421D01*
X7094954Y-7013565D01*
X7042594Y-6944404D01*
X7013922Y-6862827D01*
X7013192Y-6858266D01*
X7008932Y-6808501D01*
X7006814Y-6737059D01*
X7006984Y-6683026D01*
X7189520Y-6683026D01*
X7193749Y-6754841D01*
X7203368Y-6814034D01*
X7216390Y-6847460D01*
X7265656Y-6893140D01*
X7324150Y-6909515D01*
X7384471Y-6896273D01*
X7436017Y-6856773D01*
X7455538Y-6830207D01*
X7466952Y-6798506D01*
X7472298Y-6752232D01*
X7473615Y-6682728D01*
X7471258Y-6613899D01*
X7465033Y-6553426D01*
X7456208Y-6512956D01*
X7454737Y-6509329D01*
X7419147Y-6466202D01*
X7367200Y-6442524D01*
X7309078Y-6438701D01*
X7254960Y-6455138D01*
X7215026Y-6492240D01*
X7210883Y-6499622D01*
X7197916Y-6544639D01*
X7190852Y-6609367D01*
X7189520Y-6683026D01*
X7006984Y-6683026D01*
X7007071Y-6655630D01*
X7008272Y-6611805D01*
X7016445Y-6503388D01*
X7033430Y-6421988D01*
X7061687Y-6361812D01*
X7103672Y-6317066D01*
X7144432Y-6290800D01*
X7201381Y-6272335D01*
X7272211Y-6266002D01*
X7344741Y-6271160D01*
X7406786Y-6287169D01*
X7439568Y-6306320D01*
X7473615Y-6337132D01*
X7473615Y-5947610D01*
X7657431Y-5947610D01*
X7657431Y-7083926D01*
G36*
X7657431Y-7083926D02*
G01*
X7565523Y-7083926D01*
X7512177Y-7082362D01*
X7484393Y-7075885D01*
X7474390Y-7061818D01*
X7473615Y-7052306D01*
X7471928Y-7033232D01*
X7461290Y-7029574D01*
X7433335Y-7041332D01*
X7411595Y-7052306D01*
X7328132Y-7078311D01*
X7237404Y-7079816D01*
X7163642Y-7060421D01*
X7094954Y-7013565D01*
X7042594Y-6944404D01*
X7013922Y-6862827D01*
X7013192Y-6858266D01*
X7008932Y-6808501D01*
X7006814Y-6737059D01*
X7006984Y-6683026D01*
X7189520Y-6683026D01*
X7193749Y-6754841D01*
X7203368Y-6814034D01*
X7216390Y-6847460D01*
X7265656Y-6893140D01*
X7324150Y-6909515D01*
X7384471Y-6896273D01*
X7436017Y-6856773D01*
X7455538Y-6830207D01*
X7466952Y-6798506D01*
X7472298Y-6752232D01*
X7473615Y-6682728D01*
X7471258Y-6613899D01*
X7465033Y-6553426D01*
X7456208Y-6512956D01*
X7454737Y-6509329D01*
X7419147Y-6466202D01*
X7367200Y-6442524D01*
X7309078Y-6438701D01*
X7254960Y-6455138D01*
X7215026Y-6492240D01*
X7210883Y-6499622D01*
X7197916Y-6544639D01*
X7190852Y-6609367D01*
X7189520Y-6683026D01*
X7006984Y-6683026D01*
X7007071Y-6655630D01*
X7008272Y-6611805D01*
X7016445Y-6503388D01*
X7033430Y-6421988D01*
X7061687Y-6361812D01*
X7103672Y-6317066D01*
X7144432Y-6290800D01*
X7201381Y-6272335D01*
X7272211Y-6266002D01*
X7344741Y-6271160D01*
X7406786Y-6287169D01*
X7439568Y-6306320D01*
X7473615Y-6337132D01*
X7473615Y-5947610D01*
X7657431Y-5947610D01*
X7657431Y-7083926D01*
G37*
X11483584Y-5008954D02*
X11526374Y-5019349D01*
X11608409Y-5057413D01*
X11678557Y-5115549D01*
X11727105Y-5185252D01*
X11733775Y-5200902D01*
X11742924Y-5241896D01*
X11749329Y-5302538D01*
X11751510Y-5363830D01*
X11751510Y-5479716D01*
X11509207Y-5479716D01*
X11409271Y-5480093D01*
X11338869Y-5482387D01*
X11294113Y-5488338D01*
X11271115Y-5499685D01*
X11265989Y-5518171D01*
X11274848Y-5545536D01*
X11290717Y-5577555D01*
X11334984Y-5630992D01*
X11396499Y-5657615D01*
X11471685Y-5656747D01*
X11556853Y-5627771D01*
X11630459Y-5592011D01*
X11691534Y-5640304D01*
X11752610Y-5688597D01*
X11695151Y-5741685D01*
X11618441Y-5791845D01*
X11524102Y-5822088D01*
X11422627Y-5830551D01*
X11324511Y-5815374D01*
X11308681Y-5810224D01*
X11222447Y-5765191D01*
X11158301Y-5698052D01*
X11114891Y-5606805D01*
X11090864Y-5489444D01*
X11090584Y-5486929D01*
X11088433Y-5359027D01*
X11097129Y-5313397D01*
X11266905Y-5313397D01*
X11282497Y-5320413D01*
X11324829Y-5325788D01*
X11387234Y-5328857D01*
X11426781Y-5329321D01*
X11500528Y-5329030D01*
X11546640Y-5327183D01*
X11570900Y-5322312D01*
X11579094Y-5312955D01*
X11577006Y-5297645D01*
X11575255Y-5291722D01*
X11545360Y-5236068D01*
X11498342Y-5191215D01*
X11456849Y-5171505D01*
X11401726Y-5172695D01*
X11345868Y-5197275D01*
X11299012Y-5237970D01*
X11270894Y-5287508D01*
X11266905Y-5313397D01*
X11097129Y-5313397D01*
X11109874Y-5246533D01*
X11152411Y-5152127D01*
X11213547Y-5078488D01*
X11290785Y-5028293D01*
X11381630Y-5004222D01*
X11483584Y-5008954D01*
G36*
X11483584Y-5008954D02*
G01*
X11526374Y-5019349D01*
X11608409Y-5057413D01*
X11678557Y-5115549D01*
X11727105Y-5185252D01*
X11733775Y-5200902D01*
X11742924Y-5241896D01*
X11749329Y-5302538D01*
X11751510Y-5363830D01*
X11751510Y-5479716D01*
X11509207Y-5479716D01*
X11409271Y-5480093D01*
X11338869Y-5482387D01*
X11294113Y-5488338D01*
X11271115Y-5499685D01*
X11265989Y-5518171D01*
X11274848Y-5545536D01*
X11290717Y-5577555D01*
X11334984Y-5630992D01*
X11396499Y-5657615D01*
X11471685Y-5656747D01*
X11556853Y-5627771D01*
X11630459Y-5592011D01*
X11691534Y-5640304D01*
X11752610Y-5688597D01*
X11695151Y-5741685D01*
X11618441Y-5791845D01*
X11524102Y-5822088D01*
X11422627Y-5830551D01*
X11324511Y-5815374D01*
X11308681Y-5810224D01*
X11222447Y-5765191D01*
X11158301Y-5698052D01*
X11114891Y-5606805D01*
X11090864Y-5489444D01*
X11090584Y-5486929D01*
X11088433Y-5359027D01*
X11097129Y-5313397D01*
X11266905Y-5313397D01*
X11282497Y-5320413D01*
X11324829Y-5325788D01*
X11387234Y-5328857D01*
X11426781Y-5329321D01*
X11500528Y-5329030D01*
X11546640Y-5327183D01*
X11570900Y-5322312D01*
X11579094Y-5312955D01*
X11577006Y-5297645D01*
X11575255Y-5291722D01*
X11545360Y-5236068D01*
X11498342Y-5191215D01*
X11456849Y-5171505D01*
X11401726Y-5172695D01*
X11345868Y-5197275D01*
X11299012Y-5237970D01*
X11270894Y-5287508D01*
X11266905Y-5313397D01*
X11097129Y-5313397D01*
X11109874Y-5246533D01*
X11152411Y-5152127D01*
X11213547Y-5078488D01*
X11290785Y-5028293D01*
X11381630Y-5004222D01*
X11483584Y-5008954D01*
G37*
X7943428Y-5008947D02*
X8006708Y-5020948D01*
X8072357Y-5046048D01*
X8079372Y-5049248D01*
X8129156Y-5075426D01*
X8163634Y-5099753D01*
X8174778Y-5115337D01*
X8164166Y-5140753D01*
X8138388Y-5178253D01*
X8126946Y-5192252D01*
X8079792Y-5247354D01*
X8019001Y-5211486D01*
X7961147Y-5187592D01*
X7894300Y-5174820D01*
X7830194Y-5174013D01*
X7780564Y-5186015D01*
X7768654Y-5193505D01*
X7745972Y-5227850D01*
X7743216Y-5267413D01*
X7760188Y-5298320D01*
X7770227Y-5304313D01*
X7800310Y-5311757D01*
X7853189Y-5320506D01*
X7918375Y-5328867D01*
X7930400Y-5330178D01*
X8035097Y-5348288D01*
X8111032Y-5379051D01*
X8161392Y-5425307D01*
X8189364Y-5489897D01*
X8198078Y-5568787D01*
X8186040Y-5658465D01*
X8146951Y-5728886D01*
X8080655Y-5780177D01*
X7986994Y-5812467D01*
X7883023Y-5825207D01*
X7798238Y-5825054D01*
X7729465Y-5813483D01*
X7682497Y-5797509D01*
X7623150Y-5769675D01*
X7568306Y-5737373D01*
X7548813Y-5723155D01*
X7498681Y-5682235D01*
X7619603Y-5559877D01*
X7688343Y-5605367D01*
X7757288Y-5639533D01*
X7830911Y-5657404D01*
X7901683Y-5659289D01*
X7962074Y-5645501D01*
X8004557Y-5616349D01*
X8018274Y-5591752D01*
X8016217Y-5552304D01*
X7982130Y-5522137D01*
X7916108Y-5501306D01*
X7843774Y-5491679D01*
X7732452Y-5473310D01*
X7649752Y-5438654D01*
X7594565Y-5386697D01*
X7565788Y-5316423D01*
X7561801Y-5233107D01*
X7581493Y-5146081D01*
X7626389Y-5080302D01*
X7696891Y-5035468D01*
X7793401Y-5011279D01*
X7864900Y-5006537D01*
X7943428Y-5008947D01*
G36*
X7943428Y-5008947D02*
G01*
X8006708Y-5020948D01*
X8072357Y-5046048D01*
X8079372Y-5049248D01*
X8129156Y-5075426D01*
X8163634Y-5099753D01*
X8174778Y-5115337D01*
X8164166Y-5140753D01*
X8138388Y-5178253D01*
X8126946Y-5192252D01*
X8079792Y-5247354D01*
X8019001Y-5211486D01*
X7961147Y-5187592D01*
X7894300Y-5174820D01*
X7830194Y-5174013D01*
X7780564Y-5186015D01*
X7768654Y-5193505D01*
X7745972Y-5227850D01*
X7743216Y-5267413D01*
X7760188Y-5298320D01*
X7770227Y-5304313D01*
X7800310Y-5311757D01*
X7853189Y-5320506D01*
X7918375Y-5328867D01*
X7930400Y-5330178D01*
X8035097Y-5348288D01*
X8111032Y-5379051D01*
X8161392Y-5425307D01*
X8189364Y-5489897D01*
X8198078Y-5568787D01*
X8186040Y-5658465D01*
X8146951Y-5728886D01*
X8080655Y-5780177D01*
X7986994Y-5812467D01*
X7883023Y-5825207D01*
X7798238Y-5825054D01*
X7729465Y-5813483D01*
X7682497Y-5797509D01*
X7623150Y-5769675D01*
X7568306Y-5737373D01*
X7548813Y-5723155D01*
X7498681Y-5682235D01*
X7619603Y-5559877D01*
X7688343Y-5605367D01*
X7757288Y-5639533D01*
X7830911Y-5657404D01*
X7901683Y-5659289D01*
X7962074Y-5645501D01*
X8004557Y-5616349D01*
X8018274Y-5591752D01*
X8016217Y-5552304D01*
X7982130Y-5522137D01*
X7916108Y-5501306D01*
X7843774Y-5491679D01*
X7732452Y-5473310D01*
X7649752Y-5438654D01*
X7594565Y-5386697D01*
X7565788Y-5316423D01*
X7561801Y-5233107D01*
X7581493Y-5146081D01*
X7626389Y-5080302D01*
X7696891Y-5035468D01*
X7793401Y-5011279D01*
X7864900Y-5006537D01*
X7943428Y-5008947D01*
G37*
X10625993Y-6269478D02*
X10705868Y-6290245D01*
X10772762Y-6333105D01*
X10805151Y-6365123D01*
X10858245Y-6440813D01*
X10888673Y-6528616D01*
X10899127Y-6636550D01*
X10899180Y-6645275D01*
X10899273Y-6733005D01*
X10394334Y-6733005D01*
X10405098Y-6778959D01*
X10424532Y-6820578D01*
X10458545Y-6863944D01*
X10465660Y-6870867D01*
X10526803Y-6908335D01*
X10596529Y-6914689D01*
X10676787Y-6890038D01*
X10690392Y-6883400D01*
X10732119Y-6863219D01*
X10760068Y-6851721D01*
X10764945Y-6850658D01*
X10781968Y-6860983D01*
X10814433Y-6886245D01*
X10830914Y-6900050D01*
X10865064Y-6931761D01*
X10876278Y-6952699D01*
X10868495Y-6971960D01*
X10864335Y-6977227D01*
X10836157Y-7000278D01*
X10789662Y-7028292D01*
X10757234Y-7044646D01*
X10665185Y-7073459D01*
X10563276Y-7082795D01*
X10466763Y-7071732D01*
X10439734Y-7063812D01*
X10356076Y-7018981D01*
X10294066Y-6949998D01*
X10253345Y-6856194D01*
X10233555Y-6736898D01*
X10231382Y-6674518D01*
X10237726Y-6583698D01*
X10397957Y-6583698D01*
X10413455Y-6590412D01*
X10455112Y-6595680D01*
X10515676Y-6598789D01*
X10556707Y-6599321D01*
X10630511Y-6598808D01*
X10677093Y-6596406D01*
X10702648Y-6590822D01*
X10713369Y-6580761D01*
X10715457Y-6566163D01*
X10701131Y-6521196D01*
X10665062Y-6476753D01*
X10617615Y-6442642D01*
X10570149Y-6428688D01*
X10505679Y-6441066D01*
X10449870Y-6476852D01*
X10411174Y-6528433D01*
X10397957Y-6583698D01*
X10237726Y-6583698D01*
X10240621Y-6542266D01*
X10269136Y-6436898D01*
X10317529Y-6357578D01*
X10386404Y-6303471D01*
X10476365Y-6273743D01*
X10525100Y-6268018D01*
X10625993Y-6269478D01*
G36*
X10625993Y-6269478D02*
G01*
X10705868Y-6290245D01*
X10772762Y-6333105D01*
X10805151Y-6365123D01*
X10858245Y-6440813D01*
X10888673Y-6528616D01*
X10899127Y-6636550D01*
X10899180Y-6645275D01*
X10899273Y-6733005D01*
X10394334Y-6733005D01*
X10405098Y-6778959D01*
X10424532Y-6820578D01*
X10458545Y-6863944D01*
X10465660Y-6870867D01*
X10526803Y-6908335D01*
X10596529Y-6914689D01*
X10676787Y-6890038D01*
X10690392Y-6883400D01*
X10732119Y-6863219D01*
X10760068Y-6851721D01*
X10764945Y-6850658D01*
X10781968Y-6860983D01*
X10814433Y-6886245D01*
X10830914Y-6900050D01*
X10865064Y-6931761D01*
X10876278Y-6952699D01*
X10868495Y-6971960D01*
X10864335Y-6977227D01*
X10836157Y-7000278D01*
X10789662Y-7028292D01*
X10757234Y-7044646D01*
X10665185Y-7073459D01*
X10563276Y-7082795D01*
X10466763Y-7071732D01*
X10439734Y-7063812D01*
X10356076Y-7018981D01*
X10294066Y-6949998D01*
X10253345Y-6856194D01*
X10233555Y-6736898D01*
X10231382Y-6674518D01*
X10237726Y-6583698D01*
X10397957Y-6583698D01*
X10413455Y-6590412D01*
X10455112Y-6595680D01*
X10515676Y-6598789D01*
X10556707Y-6599321D01*
X10630511Y-6598808D01*
X10677093Y-6596406D01*
X10702648Y-6590822D01*
X10713369Y-6580761D01*
X10715457Y-6566163D01*
X10701131Y-6521196D01*
X10665062Y-6476753D01*
X10617615Y-6442642D01*
X10570149Y-6428688D01*
X10505679Y-6441066D01*
X10449870Y-6476852D01*
X10411174Y-6528433D01*
X10397957Y-6583698D01*
X10237726Y-6583698D01*
X10240621Y-6542266D01*
X10269136Y-6436898D01*
X10317529Y-6357578D01*
X10386404Y-6303471D01*
X10476365Y-6273743D01*
X10525100Y-6268018D01*
X10625993Y-6269478D01*
G37*
X6121818Y-5030427D02*
X6138470Y-5038266D01*
X6196105Y-5080486D01*
X6250605Y-5142100D01*
X6291299Y-5209943D01*
X6302874Y-5241134D01*
X6313434Y-5296849D01*
X6319731Y-5364181D01*
X6320496Y-5391985D01*
X6320589Y-5479716D01*
X5815650Y-5479716D01*
X5826413Y-5525670D01*
X5852833Y-5580020D01*
X5899022Y-5626991D01*
X5953972Y-5657248D01*
X5988989Y-5663531D01*
X6036477Y-5655906D01*
X6093135Y-5636783D01*
X6112382Y-5627984D01*
X6183559Y-5592436D01*
X6244302Y-5638767D01*
X6279352Y-5670103D01*
X6298002Y-5695967D01*
X6298947Y-5703558D01*
X6282285Y-5721956D01*
X6245770Y-5749915D01*
X6212628Y-5771727D01*
X6123193Y-5810937D01*
X6022929Y-5828685D01*
X5923554Y-5824070D01*
X5844339Y-5799951D01*
X5762680Y-5748284D01*
X5704649Y-5680256D01*
X5668346Y-5592243D01*
X5651872Y-5480616D01*
X5650411Y-5429538D01*
X5656257Y-5312491D01*
X5656975Y-5309086D01*
X5824289Y-5309086D01*
X5828897Y-5320062D01*
X5847836Y-5326115D01*
X5886898Y-5328710D01*
X5951877Y-5329310D01*
X5976897Y-5329321D01*
X6053021Y-5328414D01*
X6101296Y-5325120D01*
X6127260Y-5318581D01*
X6136448Y-5307937D01*
X6136773Y-5304519D01*
X6126287Y-5277356D01*
X6100042Y-5239303D01*
X6088759Y-5225979D01*
X6046872Y-5188296D01*
X6003209Y-5173480D01*
X5979685Y-5172242D01*
X5916043Y-5187729D01*
X5862673Y-5229330D01*
X5828819Y-5289753D01*
X5828219Y-5291722D01*
X5824289Y-5309086D01*
X5656975Y-5309086D01*
X5675699Y-5220328D01*
X5710722Y-5146590D01*
X5753556Y-5094248D01*
X5832748Y-5037492D01*
X5925840Y-5007162D01*
X6024855Y-5004421D01*
X6121818Y-5030427D01*
G36*
X6121818Y-5030427D02*
G01*
X6138470Y-5038266D01*
X6196105Y-5080486D01*
X6250605Y-5142100D01*
X6291299Y-5209943D01*
X6302874Y-5241134D01*
X6313434Y-5296849D01*
X6319731Y-5364181D01*
X6320496Y-5391985D01*
X6320589Y-5479716D01*
X5815650Y-5479716D01*
X5826413Y-5525670D01*
X5852833Y-5580020D01*
X5899022Y-5626991D01*
X5953972Y-5657248D01*
X5988989Y-5663531D01*
X6036477Y-5655906D01*
X6093135Y-5636783D01*
X6112382Y-5627984D01*
X6183559Y-5592436D01*
X6244302Y-5638767D01*
X6279352Y-5670103D01*
X6298002Y-5695967D01*
X6298947Y-5703558D01*
X6282285Y-5721956D01*
X6245770Y-5749915D01*
X6212628Y-5771727D01*
X6123193Y-5810937D01*
X6022929Y-5828685D01*
X5923554Y-5824070D01*
X5844339Y-5799951D01*
X5762680Y-5748284D01*
X5704649Y-5680256D01*
X5668346Y-5592243D01*
X5651872Y-5480616D01*
X5650411Y-5429538D01*
X5656257Y-5312491D01*
X5656975Y-5309086D01*
X5824289Y-5309086D01*
X5828897Y-5320062D01*
X5847836Y-5326115D01*
X5886898Y-5328710D01*
X5951877Y-5329310D01*
X5976897Y-5329321D01*
X6053021Y-5328414D01*
X6101296Y-5325120D01*
X6127260Y-5318581D01*
X6136448Y-5307937D01*
X6136773Y-5304519D01*
X6126287Y-5277356D01*
X6100042Y-5239303D01*
X6088759Y-5225979D01*
X6046872Y-5188296D01*
X6003209Y-5173480D01*
X5979685Y-5172242D01*
X5916043Y-5187729D01*
X5862673Y-5229330D01*
X5828819Y-5289753D01*
X5828219Y-5291722D01*
X5824289Y-5309086D01*
X5656975Y-5309086D01*
X5675699Y-5220328D01*
X5710722Y-5146590D01*
X5753556Y-5094248D01*
X5832748Y-5037492D01*
X5925840Y-5007162D01*
X6024855Y-5004421D01*
X6121818Y-5030427D01*
G37*
X9304792Y-6270073D02*
X9375227Y-6287180D01*
X9395587Y-6296244D01*
X9435053Y-6319983D01*
X9465341Y-6346721D01*
X9487752Y-6381099D01*
X9503586Y-6427760D01*
X9514143Y-6491346D01*
X9520724Y-6576499D01*
X9524628Y-6687862D01*
X9526110Y-6762249D01*
X9531565Y-7083926D01*
X9438380Y-7083926D01*
X9381847Y-7081556D01*
X9352722Y-7073455D01*
X9345194Y-7059851D01*
X9341220Y-7045141D01*
X9323452Y-7047954D01*
X9299240Y-7059748D01*
X9238628Y-7077827D01*
X9160729Y-7082699D01*
X9078795Y-7074730D01*
X9006081Y-7054289D01*
X8999559Y-7051451D01*
X8933102Y-7004765D01*
X8889291Y-6939864D01*
X8869132Y-6864000D01*
X8870672Y-6836744D01*
X9035145Y-6836744D01*
X9049637Y-6873424D01*
X9092605Y-6899709D01*
X9161929Y-6913817D01*
X9198977Y-6915690D01*
X9260719Y-6910894D01*
X9301760Y-6892258D01*
X9311773Y-6883400D01*
X9338900Y-6835206D01*
X9345194Y-6791492D01*
X9345194Y-6733005D01*
X9263730Y-6733005D01*
X9169034Y-6737832D01*
X9102613Y-6753013D01*
X9060646Y-6779600D01*
X9051249Y-6791452D01*
X9035145Y-6836744D01*
X8870672Y-6836744D01*
X8873629Y-6784426D01*
X8903785Y-6708395D01*
X8944931Y-6657012D01*
X8969852Y-6634797D01*
X8994248Y-6620198D01*
X9025991Y-6611297D01*
X9072952Y-6606175D01*
X9143004Y-6602915D01*
X9170790Y-6601977D01*
X9345194Y-6596279D01*
X9344938Y-6543491D01*
X9338184Y-6488003D01*
X9313764Y-6454452D01*
X9264430Y-6433018D01*
X9263106Y-6432636D01*
X9193160Y-6424208D01*
X9124714Y-6435216D01*
X9073847Y-6461985D01*
X9053437Y-6475203D01*
X9031454Y-6473374D01*
X8997626Y-6454224D01*
X8977761Y-6440708D01*
X8938906Y-6411832D01*
X8914838Y-6390186D01*
X8910976Y-6383989D01*
X8926879Y-6351919D01*
X8973865Y-6313619D01*
X8994273Y-6300697D01*
X9052943Y-6278441D01*
X9132012Y-6265832D01*
X9219841Y-6263000D01*
X9304792Y-6270073D01*
G36*
X9304792Y-6270073D02*
G01*
X9375227Y-6287180D01*
X9395587Y-6296244D01*
X9435053Y-6319983D01*
X9465341Y-6346721D01*
X9487752Y-6381099D01*
X9503586Y-6427760D01*
X9514143Y-6491346D01*
X9520724Y-6576499D01*
X9524628Y-6687862D01*
X9526110Y-6762249D01*
X9531565Y-7083926D01*
X9438380Y-7083926D01*
X9381847Y-7081556D01*
X9352722Y-7073455D01*
X9345194Y-7059851D01*
X9341220Y-7045141D01*
X9323452Y-7047954D01*
X9299240Y-7059748D01*
X9238628Y-7077827D01*
X9160729Y-7082699D01*
X9078795Y-7074730D01*
X9006081Y-7054289D01*
X8999559Y-7051451D01*
X8933102Y-7004765D01*
X8889291Y-6939864D01*
X8869132Y-6864000D01*
X8870672Y-6836744D01*
X9035145Y-6836744D01*
X9049637Y-6873424D01*
X9092605Y-6899709D01*
X9161929Y-6913817D01*
X9198977Y-6915690D01*
X9260719Y-6910894D01*
X9301760Y-6892258D01*
X9311773Y-6883400D01*
X9338900Y-6835206D01*
X9345194Y-6791492D01*
X9345194Y-6733005D01*
X9263730Y-6733005D01*
X9169034Y-6737832D01*
X9102613Y-6753013D01*
X9060646Y-6779600D01*
X9051249Y-6791452D01*
X9035145Y-6836744D01*
X8870672Y-6836744D01*
X8873629Y-6784426D01*
X8903785Y-6708395D01*
X8944931Y-6657012D01*
X8969852Y-6634797D01*
X8994248Y-6620198D01*
X9025991Y-6611297D01*
X9072952Y-6606175D01*
X9143004Y-6602915D01*
X9170790Y-6601977D01*
X9345194Y-6596279D01*
X9344938Y-6543491D01*
X9338184Y-6488003D01*
X9313764Y-6454452D01*
X9264430Y-6433018D01*
X9263106Y-6432636D01*
X9193160Y-6424208D01*
X9124714Y-6435216D01*
X9073847Y-6461985D01*
X9053437Y-6475203D01*
X9031454Y-6473374D01*
X8997626Y-6454224D01*
X8977761Y-6440708D01*
X8938906Y-6411832D01*
X8914838Y-6390186D01*
X8910976Y-6383989D01*
X8926879Y-6351919D01*
X8973865Y-6313619D01*
X8994273Y-6300697D01*
X9052943Y-6278441D01*
X9132012Y-6265832D01*
X9219841Y-6263000D01*
X9304792Y-6270073D01*
G37*
X6085257Y-6271584D02*
X6163870Y-6292560D01*
X6223716Y-6330580D01*
X6265947Y-6380378D01*
X6279075Y-6401630D01*
X6288768Y-6423892D01*
X6295544Y-6452370D01*
X6299923Y-6492271D01*
X6302424Y-6548801D01*
X6303568Y-6627167D01*
X6303872Y-6732576D01*
X6303878Y-6760542D01*
X6303878Y-7083926D01*
X6223668Y-7083926D01*
X6172506Y-7080343D01*
X6134677Y-7071266D01*
X6125199Y-7065668D01*
X6099288Y-7056006D01*
X6072824Y-7065668D01*
X6029252Y-7077730D01*
X5965960Y-7082585D01*
X5895810Y-7080478D01*
X5831660Y-7071656D01*
X5794207Y-7060337D01*
X5721733Y-7013812D01*
X5676440Y-6949246D01*
X5656078Y-6863400D01*
X5655888Y-6861196D01*
X5657675Y-6823113D01*
X5819273Y-6823113D01*
X5833401Y-6866430D01*
X5856412Y-6890808D01*
X5902604Y-6909245D01*
X5963575Y-6916605D01*
X6025749Y-6912983D01*
X6075551Y-6898474D01*
X6089503Y-6889165D01*
X6113885Y-6846153D01*
X6120063Y-6797257D01*
X6120063Y-6733005D01*
X6027618Y-6733005D01*
X5939795Y-6739766D01*
X5873218Y-6758920D01*
X5831802Y-6788776D01*
X5819273Y-6823113D01*
X5657675Y-6823113D01*
X5660290Y-6767404D01*
X5691224Y-6693247D01*
X5749381Y-6637167D01*
X5757420Y-6632065D01*
X5791963Y-6615455D01*
X5834718Y-6605396D01*
X5894486Y-6600507D01*
X5965490Y-6599383D01*
X6120063Y-6599321D01*
X6120063Y-6534525D01*
X6113506Y-6484250D01*
X6096775Y-6450569D01*
X6094816Y-6448776D01*
X6057583Y-6434042D01*
X6001380Y-6428331D01*
X5939267Y-6431137D01*
X5884310Y-6441956D01*
X5851699Y-6458182D01*
X5834028Y-6471180D01*
X5815369Y-6473662D01*
X5789619Y-6463013D01*
X5750673Y-6436618D01*
X5692430Y-6391865D01*
X5687084Y-6387673D01*
X5689823Y-6372160D01*
X5712676Y-6346360D01*
X5747409Y-6317689D01*
X5785790Y-6293566D01*
X5797848Y-6287870D01*
X5841834Y-6276503D01*
X5906287Y-6268395D01*
X5978297Y-6265143D01*
X5981664Y-6265136D01*
X6085257Y-6271584D01*
G36*
X6085257Y-6271584D02*
G01*
X6163870Y-6292560D01*
X6223716Y-6330580D01*
X6265947Y-6380378D01*
X6279075Y-6401630D01*
X6288768Y-6423892D01*
X6295544Y-6452370D01*
X6299923Y-6492271D01*
X6302424Y-6548801D01*
X6303568Y-6627167D01*
X6303872Y-6732576D01*
X6303878Y-6760542D01*
X6303878Y-7083926D01*
X6223668Y-7083926D01*
X6172506Y-7080343D01*
X6134677Y-7071266D01*
X6125199Y-7065668D01*
X6099288Y-7056006D01*
X6072824Y-7065668D01*
X6029252Y-7077730D01*
X5965960Y-7082585D01*
X5895810Y-7080478D01*
X5831660Y-7071656D01*
X5794207Y-7060337D01*
X5721733Y-7013812D01*
X5676440Y-6949246D01*
X5656078Y-6863400D01*
X5655888Y-6861196D01*
X5657675Y-6823113D01*
X5819273Y-6823113D01*
X5833401Y-6866430D01*
X5856412Y-6890808D01*
X5902604Y-6909245D01*
X5963575Y-6916605D01*
X6025749Y-6912983D01*
X6075551Y-6898474D01*
X6089503Y-6889165D01*
X6113885Y-6846153D01*
X6120063Y-6797257D01*
X6120063Y-6733005D01*
X6027618Y-6733005D01*
X5939795Y-6739766D01*
X5873218Y-6758920D01*
X5831802Y-6788776D01*
X5819273Y-6823113D01*
X5657675Y-6823113D01*
X5660290Y-6767404D01*
X5691224Y-6693247D01*
X5749381Y-6637167D01*
X5757420Y-6632065D01*
X5791963Y-6615455D01*
X5834718Y-6605396D01*
X5894486Y-6600507D01*
X5965490Y-6599383D01*
X6120063Y-6599321D01*
X6120063Y-6534525D01*
X6113506Y-6484250D01*
X6096775Y-6450569D01*
X6094816Y-6448776D01*
X6057583Y-6434042D01*
X6001380Y-6428331D01*
X5939267Y-6431137D01*
X5884310Y-6441956D01*
X5851699Y-6458182D01*
X5834028Y-6471180D01*
X5815369Y-6473662D01*
X5789619Y-6463013D01*
X5750673Y-6436618D01*
X5692430Y-6391865D01*
X5687084Y-6387673D01*
X5689823Y-6372160D01*
X5712676Y-6346360D01*
X5747409Y-6317689D01*
X5785790Y-6293566D01*
X5797848Y-6287870D01*
X5841834Y-6276503D01*
X5906287Y-6268395D01*
X5978297Y-6265143D01*
X5981664Y-6265136D01*
X6085257Y-6271584D01*
G37*
X5388160Y-5025868D02*
X5423392Y-5043274D01*
X5466840Y-5073606D01*
X5498506Y-5106683D01*
X5520194Y-5148217D01*
X5533703Y-5203922D01*
X5540838Y-5279511D01*
X5543400Y-5380696D01*
X5543550Y-5424197D01*
X5543112Y-5519535D01*
X5541296Y-5587671D01*
X5537345Y-5634818D01*
X5530502Y-5667190D01*
X5520011Y-5691000D01*
X5509096Y-5707243D01*
X5439419Y-5776352D01*
X5357366Y-5817921D01*
X5268850Y-5830423D01*
X5179781Y-5812334D01*
X5151563Y-5799542D01*
X5084010Y-5764331D01*
X5084010Y-6316100D01*
X5133312Y-6290605D01*
X5198273Y-6270880D01*
X5278120Y-6265827D01*
X5357852Y-6275156D01*
X5418065Y-6296114D01*
X5468008Y-6336027D01*
X5510681Y-6393141D01*
X5513890Y-6399005D01*
X5527422Y-6426627D01*
X5537305Y-6454468D01*
X5544109Y-6488194D01*
X5548401Y-6533471D01*
X5550751Y-6595962D01*
X5551728Y-6681335D01*
X5551905Y-6777410D01*
X5551905Y-7083926D01*
X5368089Y-7083926D01*
X5368089Y-6518739D01*
X5316675Y-6475477D01*
X5263266Y-6440872D01*
X5212688Y-6434580D01*
X5161830Y-6450772D01*
X5134725Y-6466627D01*
X5114551Y-6489210D01*
X5100203Y-6523340D01*
X5090576Y-6573834D01*
X5084563Y-6645511D01*
X5081060Y-6743188D01*
X5079826Y-6808202D01*
X5075655Y-7075571D01*
X4987925Y-7080622D01*
X4900194Y-7085673D01*
X4900194Y-5426501D01*
X5084010Y-5426501D01*
X5088696Y-5519000D01*
X5104488Y-5583209D01*
X5133983Y-5623159D01*
X5179780Y-5642880D01*
X5226050Y-5646821D01*
X5278428Y-5642292D01*
X5313190Y-5624469D01*
X5334928Y-5600919D01*
X5352040Y-5575589D01*
X5362227Y-5547369D01*
X5366760Y-5507831D01*
X5366909Y-5448542D01*
X5365384Y-5398898D01*
X5361881Y-5324110D01*
X5356667Y-5275011D01*
X5347887Y-5243867D01*
X5333686Y-5222945D01*
X5320284Y-5210852D01*
X5264287Y-5184481D01*
X5198011Y-5180222D01*
X5159956Y-5189306D01*
X5122277Y-5221596D01*
X5097319Y-5284406D01*
X5085222Y-5377294D01*
X5084010Y-5426501D01*
X4900194Y-5426501D01*
X4900194Y-5011821D01*
X4992102Y-5011821D01*
X5047283Y-5014003D01*
X5075752Y-5021751D01*
X5084006Y-5036868D01*
X5084010Y-5037316D01*
X5087840Y-5052120D01*
X5104733Y-5050439D01*
X5138319Y-5034172D01*
X5216578Y-5009287D01*
X5304627Y-5006671D01*
X5388160Y-5025868D01*
G36*
X5388160Y-5025868D02*
G01*
X5423392Y-5043274D01*
X5466840Y-5073606D01*
X5498506Y-5106683D01*
X5520194Y-5148217D01*
X5533703Y-5203922D01*
X5540838Y-5279511D01*
X5543400Y-5380696D01*
X5543550Y-5424197D01*
X5543112Y-5519535D01*
X5541296Y-5587671D01*
X5537345Y-5634818D01*
X5530502Y-5667190D01*
X5520011Y-5691000D01*
X5509096Y-5707243D01*
X5439419Y-5776352D01*
X5357366Y-5817921D01*
X5268850Y-5830423D01*
X5179781Y-5812334D01*
X5151563Y-5799542D01*
X5084010Y-5764331D01*
X5084010Y-6316100D01*
X5133312Y-6290605D01*
X5198273Y-6270880D01*
X5278120Y-6265827D01*
X5357852Y-6275156D01*
X5418065Y-6296114D01*
X5468008Y-6336027D01*
X5510681Y-6393141D01*
X5513890Y-6399005D01*
X5527422Y-6426627D01*
X5537305Y-6454468D01*
X5544109Y-6488194D01*
X5548401Y-6533471D01*
X5550751Y-6595962D01*
X5551728Y-6681335D01*
X5551905Y-6777410D01*
X5551905Y-7083926D01*
X5368089Y-7083926D01*
X5368089Y-6518739D01*
X5316675Y-6475477D01*
X5263266Y-6440872D01*
X5212688Y-6434580D01*
X5161830Y-6450772D01*
X5134725Y-6466627D01*
X5114551Y-6489210D01*
X5100203Y-6523340D01*
X5090576Y-6573834D01*
X5084563Y-6645511D01*
X5081060Y-6743188D01*
X5079826Y-6808202D01*
X5075655Y-7075571D01*
X4987925Y-7080622D01*
X4900194Y-7085673D01*
X4900194Y-5426501D01*
X5084010Y-5426501D01*
X5088696Y-5519000D01*
X5104488Y-5583209D01*
X5133983Y-5623159D01*
X5179780Y-5642880D01*
X5226050Y-5646821D01*
X5278428Y-5642292D01*
X5313190Y-5624469D01*
X5334928Y-5600919D01*
X5352040Y-5575589D01*
X5362227Y-5547369D01*
X5366760Y-5507831D01*
X5366909Y-5448542D01*
X5365384Y-5398898D01*
X5361881Y-5324110D01*
X5356667Y-5275011D01*
X5347887Y-5243867D01*
X5333686Y-5222945D01*
X5320284Y-5210852D01*
X5264287Y-5184481D01*
X5198011Y-5180222D01*
X5159956Y-5189306D01*
X5122277Y-5221596D01*
X5097319Y-5284406D01*
X5085222Y-5377294D01*
X5084010Y-5426501D01*
X4900194Y-5426501D01*
X4900194Y-5011821D01*
X4992102Y-5011821D01*
X5047283Y-5014003D01*
X5075752Y-5021751D01*
X5084006Y-5036868D01*
X5084010Y-5037316D01*
X5087840Y-5052120D01*
X5104733Y-5050439D01*
X5138319Y-5034172D01*
X5216578Y-5009287D01*
X5304627Y-5006671D01*
X5388160Y-5025868D01*
G37*
X8425764Y528024D02*
X8501313Y127278D01*
X9058841Y-102554D01*
X9393265Y124852D01*
X9486922Y188169D01*
X9571582Y244704D01*
X9643295Y291873D01*
X9698111Y327098D01*
X9732080Y347795D01*
X9741330Y352258D01*
X9757995Y340780D01*
X9793606Y309049D01*
X9844171Y261117D01*
X9905700Y201038D01*
X9974199Y132867D01*
X10045679Y60655D01*
X10116147Y-11542D01*
X10181611Y-79673D01*
X10238080Y-139683D01*
X10281563Y-187519D01*
X10308068Y-219127D01*
X10314405Y-229705D01*
X10305286Y-249206D01*
X10279720Y-291931D01*
X10240397Y-353698D01*
X10190003Y-430331D01*
X10131227Y-517648D01*
X10097168Y-567452D01*
X10035089Y-658393D01*
X9979926Y-740459D01*
X9934354Y-809563D01*
X9901050Y-861622D01*
X9882690Y-892550D01*
X9879931Y-899050D01*
X9886185Y-917521D01*
X9903234Y-960572D01*
X9928503Y-1022149D01*
X9959422Y-1096199D01*
X9993418Y-1176670D01*
X10027918Y-1257507D01*
X10060351Y-1332658D01*
X10088143Y-1396071D01*
X10108723Y-1441693D01*
X10119519Y-1463469D01*
X10120156Y-1464326D01*
X10137107Y-1468484D01*
X10182251Y-1477761D01*
X10250910Y-1491244D01*
X10338402Y-1508021D01*
X10440050Y-1527181D01*
X10499356Y-1538230D01*
X10607972Y-1558910D01*
X10706077Y-1578589D01*
X10788709Y-1596189D01*
X10850904Y-1610633D01*
X10887699Y-1620846D01*
X10895096Y-1624086D01*
X10902340Y-1646017D01*
X10908185Y-1695547D01*
X10912635Y-1766885D01*
X10915693Y-1854239D01*
X10917365Y-1951817D01*
X10917653Y-2053826D01*
X10916561Y-2154475D01*
X10914094Y-2247972D01*
X10910256Y-2328525D01*
X10905050Y-2390342D01*
X10898481Y-2427630D01*
X10894541Y-2435393D01*
X10870988Y-2444698D01*
X10821082Y-2458000D01*
X10751423Y-2473737D01*
X10668613Y-2490346D01*
X10639705Y-2495719D01*
X10500331Y-2521248D01*
X10390236Y-2541808D01*
X10305782Y-2558215D01*
X10243330Y-2571287D01*
X10199244Y-2581841D01*
X10169885Y-2590694D01*
X10151615Y-2598663D01*
X10140798Y-2606565D01*
X10139285Y-2608127D01*
X10124177Y-2633286D01*
X10101129Y-2682250D01*
X10072444Y-2749021D01*
X10040422Y-2827605D01*
X10007365Y-2912007D01*
X9975573Y-2996230D01*
X9947349Y-3074279D01*
X9924993Y-3140159D01*
X9910807Y-3187873D01*
X9907093Y-3211427D01*
X9907402Y-3212252D01*
X9919989Y-3231504D01*
X9948544Y-3273863D01*
X9990067Y-3334921D01*
X10041556Y-3410268D01*
X10100011Y-3495496D01*
X10116658Y-3519715D01*
X10176015Y-3607523D01*
X10228247Y-3687638D01*
X10270508Y-3755462D01*
X10299953Y-3806393D01*
X10313737Y-3835831D01*
X10314405Y-3839448D01*
X10302824Y-3858457D01*
X10270824Y-3896114D01*
X10222518Y-3948373D01*
X10162020Y-4011186D01*
X10093444Y-4080506D01*
X10020904Y-4152285D01*
X9948512Y-4222477D01*
X9880384Y-4287035D01*
X9820632Y-4341910D01*
X9773371Y-4383056D01*
X9742713Y-4406426D01*
X9734232Y-4410242D01*
X9714491Y-4401255D01*
X9674074Y-4377016D01*
X9619563Y-4341609D01*
X9577623Y-4313111D01*
X9501629Y-4260818D01*
X9411634Y-4199245D01*
X9321364Y-4137770D01*
X9272832Y-4104869D01*
X9108562Y-3993759D01*
X8970669Y-4068316D01*
X8907849Y-4100978D01*
X8854429Y-4126366D01*
X8818284Y-4140846D01*
X8809084Y-4142860D01*
X8798021Y-4127984D01*
X8776194Y-4085947D01*
X8745234Y-4020627D01*
X8706770Y-3935900D01*
X8662432Y-3835645D01*
X8613847Y-3723739D01*
X8562646Y-3604059D01*
X8510459Y-3480484D01*
X8458913Y-3356891D01*
X8409640Y-3237157D01*
X8364267Y-3125159D01*
X8324425Y-3024777D01*
X8291742Y-2939886D01*
X8267849Y-2874365D01*
X8254374Y-2832090D01*
X8252206Y-2817572D01*
X8269383Y-2799053D01*
X8306990Y-2768990D01*
X8357166Y-2733632D01*
X8361378Y-2730834D01*
X8491064Y-2627025D01*
X8595634Y-2505915D01*
X8674181Y-2371376D01*
X8725799Y-2227282D01*
X8749582Y-2077505D01*
X8744623Y-1925917D01*
X8710017Y-1776392D01*
X8644857Y-1632800D01*
X8625686Y-1601384D01*
X8525974Y-1474525D01*
X8408177Y-1372655D01*
X8276371Y-1296304D01*
X8134633Y-1246002D01*
X7987042Y-1222279D01*
X7837673Y-1225665D01*
X7690603Y-1256688D01*
X7549911Y-1315880D01*
X7419673Y-1403769D01*
X7379386Y-1439442D01*
X7276855Y-1551106D01*
X7202141Y-1668657D01*
X7150890Y-1800420D01*
X7122346Y-1930907D01*
X7115300Y-2077616D01*
X7138796Y-2225053D01*
X7190449Y-2368234D01*
X7267871Y-2502177D01*
X7368675Y-2621898D01*
X7490476Y-2722414D01*
X7506484Y-2733009D01*
X7557198Y-2767706D01*
X7595750Y-2797770D01*
X7614181Y-2816965D01*
X7614449Y-2817572D01*
X7610492Y-2838336D01*
X7594807Y-2885462D01*
X7569022Y-2955073D01*
X7534769Y-3043293D01*
X7493677Y-3146244D01*
X7447376Y-3260050D01*
X7397496Y-3380835D01*
X7345667Y-3504721D01*
X7293519Y-3627832D01*
X7242682Y-3746291D01*
X7194787Y-3856223D01*
X7151462Y-3953749D01*
X7114338Y-4034993D01*
X7085044Y-4096079D01*
X7065212Y-4133130D01*
X7057226Y-4142860D01*
X7032821Y-4135283D01*
X6987158Y-4114960D01*
X6928110Y-4085525D01*
X6895640Y-4068316D01*
X6757747Y-3993759D01*
X6593477Y-4104869D01*
X6509621Y-4161790D01*
X6417813Y-4224430D01*
X6331780Y-4283411D01*
X6288687Y-4313111D01*
X6228077Y-4353810D01*
X6176755Y-4386063D01*
X6141415Y-4405784D01*
X6129937Y-4409954D01*
X6113230Y-4398707D01*
X6076254Y-4367311D01*
X6022595Y-4319024D01*
X5955838Y-4257108D01*
X5879566Y-4184821D01*
X5831327Y-4138408D01*
X5746933Y-4055487D01*
X5673997Y-3981320D01*
X5615469Y-3919080D01*
X5574297Y-3871941D01*
X5553428Y-3843073D01*
X5551426Y-3837215D01*
X5560717Y-3814932D01*
X5586391Y-3769877D01*
X5625600Y-3706611D01*
X5675497Y-3629695D01*
X5733233Y-3543692D01*
X5749651Y-3519715D01*
X5809477Y-3432570D01*
X5863150Y-3354110D01*
X5907670Y-3288745D01*
X5940035Y-3240884D01*
X5957245Y-3214935D01*
X5958907Y-3212252D01*
X5956421Y-3191572D01*
X5943223Y-3146104D01*
X5921614Y-3081844D01*
X5893896Y-3004787D01*
X5862370Y-2920929D01*
X5829337Y-2836266D01*
X5797099Y-2756792D01*
X5767957Y-2688504D01*
X5744212Y-2637397D01*
X5728165Y-2609467D01*
X5727025Y-2608127D01*
X5717212Y-2600145D01*
X5700639Y-2592251D01*
X5673668Y-2583629D01*
X5632661Y-2573462D01*
X5573980Y-2560931D01*
X5493987Y-2545221D01*
X5389045Y-2525513D01*
X5255515Y-2500992D01*
X5226604Y-2495719D01*
X5140918Y-2479164D01*
X5066218Y-2462969D01*
X5009106Y-2448696D01*
X4976183Y-2437908D01*
X4971769Y-2435393D01*
X4964494Y-2413096D01*
X4958581Y-2363269D01*
X4954034Y-2291704D01*
X4950855Y-2204193D01*
X4949051Y-2106528D01*
X4948623Y-2004501D01*
X4949577Y-1903903D01*
X4951916Y-1810527D01*
X4955644Y-1730165D01*
X4960766Y-1668609D01*
X4967284Y-1631650D01*
X4971214Y-1624086D01*
X4993092Y-1616456D01*
X5042909Y-1604042D01*
X5115703Y-1587922D01*
X5206511Y-1569173D01*
X5310369Y-1548871D01*
X5366954Y-1538230D01*
X5474314Y-1518160D01*
X5570054Y-1499980D01*
X5649494Y-1484599D01*
X5707954Y-1472931D01*
X5740755Y-1465888D01*
X5746154Y-1464326D01*
X5755278Y-1446722D01*
X5774565Y-1404318D01*
X5801445Y-1343172D01*
X5833346Y-1269343D01*
X5867698Y-1188889D01*
X5901929Y-1107868D01*
X5933469Y-1032337D01*
X5959746Y-968355D01*
X5978189Y-921980D01*
X5986229Y-899269D01*
X5986378Y-898276D01*
X5977265Y-880361D01*
X5951714Y-839133D01*
X5912412Y-778691D01*
X5862043Y-703131D01*
X5803294Y-616552D01*
X5769142Y-566821D01*
X5706910Y-475636D01*
X5651636Y-392849D01*
X5606018Y-322649D01*
X5572752Y-269224D01*
X5554536Y-236761D01*
X5551905Y-229483D01*
X5563214Y-212545D01*
X5594481Y-176378D01*
X5641710Y-125035D01*
X5700908Y-62567D01*
X5768081Y6974D01*
X5839234Y79535D01*
X5910374Y151065D01*
X5977507Y217513D01*
X6036639Y274826D01*
X6083775Y318953D01*
X6114923Y345841D01*
X6125343Y352258D01*
X6142309Y343235D01*
X6182889Y317885D01*
X6243137Y278790D01*
X6319107Y228529D01*
X6406854Y169683D01*
X6473044Y124852D01*
X6807468Y-102554D01*
X7086233Y12362D01*
X7364997Y127278D01*
X7440546Y528024D01*
X7516094Y928771D01*
X8350215Y928771D01*
X8425764Y528024D01*
G36*
X8425764Y528024D02*
G01*
X8501313Y127278D01*
X9058841Y-102554D01*
X9393265Y124852D01*
X9486922Y188169D01*
X9571582Y244704D01*
X9643295Y291873D01*
X9698111Y327098D01*
X9732080Y347795D01*
X9741330Y352258D01*
X9757995Y340780D01*
X9793606Y309049D01*
X9844171Y261117D01*
X9905700Y201038D01*
X9974199Y132867D01*
X10045679Y60655D01*
X10116147Y-11542D01*
X10181611Y-79673D01*
X10238080Y-139683D01*
X10281563Y-187519D01*
X10308068Y-219127D01*
X10314405Y-229705D01*
X10305286Y-249206D01*
X10279720Y-291931D01*
X10240397Y-353698D01*
X10190003Y-430331D01*
X10131227Y-517648D01*
X10097168Y-567452D01*
X10035089Y-658393D01*
X9979926Y-740459D01*
X9934354Y-809563D01*
X9901050Y-861622D01*
X9882690Y-892550D01*
X9879931Y-899050D01*
X9886185Y-917521D01*
X9903234Y-960572D01*
X9928503Y-1022149D01*
X9959422Y-1096199D01*
X9993418Y-1176670D01*
X10027918Y-1257507D01*
X10060351Y-1332658D01*
X10088143Y-1396071D01*
X10108723Y-1441693D01*
X10119519Y-1463469D01*
X10120156Y-1464326D01*
X10137107Y-1468484D01*
X10182251Y-1477761D01*
X10250910Y-1491244D01*
X10338402Y-1508021D01*
X10440050Y-1527181D01*
X10499356Y-1538230D01*
X10607972Y-1558910D01*
X10706077Y-1578589D01*
X10788709Y-1596189D01*
X10850904Y-1610633D01*
X10887699Y-1620846D01*
X10895096Y-1624086D01*
X10902340Y-1646017D01*
X10908185Y-1695547D01*
X10912635Y-1766885D01*
X10915693Y-1854239D01*
X10917365Y-1951817D01*
X10917653Y-2053826D01*
X10916561Y-2154475D01*
X10914094Y-2247972D01*
X10910256Y-2328525D01*
X10905050Y-2390342D01*
X10898481Y-2427630D01*
X10894541Y-2435393D01*
X10870988Y-2444698D01*
X10821082Y-2458000D01*
X10751423Y-2473737D01*
X10668613Y-2490346D01*
X10639705Y-2495719D01*
X10500331Y-2521248D01*
X10390236Y-2541808D01*
X10305782Y-2558215D01*
X10243330Y-2571287D01*
X10199244Y-2581841D01*
X10169885Y-2590694D01*
X10151615Y-2598663D01*
X10140798Y-2606565D01*
X10139285Y-2608127D01*
X10124177Y-2633286D01*
X10101129Y-2682250D01*
X10072444Y-2749021D01*
X10040422Y-2827605D01*
X10007365Y-2912007D01*
X9975573Y-2996230D01*
X9947349Y-3074279D01*
X9924993Y-3140159D01*
X9910807Y-3187873D01*
X9907093Y-3211427D01*
X9907402Y-3212252D01*
X9919989Y-3231504D01*
X9948544Y-3273863D01*
X9990067Y-3334921D01*
X10041556Y-3410268D01*
X10100011Y-3495496D01*
X10116658Y-3519715D01*
X10176015Y-3607523D01*
X10228247Y-3687638D01*
X10270508Y-3755462D01*
X10299953Y-3806393D01*
X10313737Y-3835831D01*
X10314405Y-3839448D01*
X10302824Y-3858457D01*
X10270824Y-3896114D01*
X10222518Y-3948373D01*
X10162020Y-4011186D01*
X10093444Y-4080506D01*
X10020904Y-4152285D01*
X9948512Y-4222477D01*
X9880384Y-4287035D01*
X9820632Y-4341910D01*
X9773371Y-4383056D01*
X9742713Y-4406426D01*
X9734232Y-4410242D01*
X9714491Y-4401255D01*
X9674074Y-4377016D01*
X9619563Y-4341609D01*
X9577623Y-4313111D01*
X9501629Y-4260818D01*
X9411634Y-4199245D01*
X9321364Y-4137770D01*
X9272832Y-4104869D01*
X9108562Y-3993759D01*
X8970669Y-4068316D01*
X8907849Y-4100978D01*
X8854429Y-4126366D01*
X8818284Y-4140846D01*
X8809084Y-4142860D01*
X8798021Y-4127984D01*
X8776194Y-4085947D01*
X8745234Y-4020627D01*
X8706770Y-3935900D01*
X8662432Y-3835645D01*
X8613847Y-3723739D01*
X8562646Y-3604059D01*
X8510459Y-3480484D01*
X8458913Y-3356891D01*
X8409640Y-3237157D01*
X8364267Y-3125159D01*
X8324425Y-3024777D01*
X8291742Y-2939886D01*
X8267849Y-2874365D01*
X8254374Y-2832090D01*
X8252206Y-2817572D01*
X8269383Y-2799053D01*
X8306990Y-2768990D01*
X8357166Y-2733632D01*
X8361378Y-2730834D01*
X8491064Y-2627025D01*
X8595634Y-2505915D01*
X8674181Y-2371376D01*
X8725799Y-2227282D01*
X8749582Y-2077505D01*
X8744623Y-1925917D01*
X8710017Y-1776392D01*
X8644857Y-1632800D01*
X8625686Y-1601384D01*
X8525974Y-1474525D01*
X8408177Y-1372655D01*
X8276371Y-1296304D01*
X8134633Y-1246002D01*
X7987042Y-1222279D01*
X7837673Y-1225665D01*
X7690603Y-1256688D01*
X7549911Y-1315880D01*
X7419673Y-1403769D01*
X7379386Y-1439442D01*
X7276855Y-1551106D01*
X7202141Y-1668657D01*
X7150890Y-1800420D01*
X7122346Y-1930907D01*
X7115300Y-2077616D01*
X7138796Y-2225053D01*
X7190449Y-2368234D01*
X7267871Y-2502177D01*
X7368675Y-2621898D01*
X7490476Y-2722414D01*
X7506484Y-2733009D01*
X7557198Y-2767706D01*
X7595750Y-2797770D01*
X7614181Y-2816965D01*
X7614449Y-2817572D01*
X7610492Y-2838336D01*
X7594807Y-2885462D01*
X7569022Y-2955073D01*
X7534769Y-3043293D01*
X7493677Y-3146244D01*
X7447376Y-3260050D01*
X7397496Y-3380835D01*
X7345667Y-3504721D01*
X7293519Y-3627832D01*
X7242682Y-3746291D01*
X7194787Y-3856223D01*
X7151462Y-3953749D01*
X7114338Y-4034993D01*
X7085044Y-4096079D01*
X7065212Y-4133130D01*
X7057226Y-4142860D01*
X7032821Y-4135283D01*
X6987158Y-4114960D01*
X6928110Y-4085525D01*
X6895640Y-4068316D01*
X6757747Y-3993759D01*
X6593477Y-4104869D01*
X6509621Y-4161790D01*
X6417813Y-4224430D01*
X6331780Y-4283411D01*
X6288687Y-4313111D01*
X6228077Y-4353810D01*
X6176755Y-4386063D01*
X6141415Y-4405784D01*
X6129937Y-4409954D01*
X6113230Y-4398707D01*
X6076254Y-4367311D01*
X6022595Y-4319024D01*
X5955838Y-4257108D01*
X5879566Y-4184821D01*
X5831327Y-4138408D01*
X5746933Y-4055487D01*
X5673997Y-3981320D01*
X5615469Y-3919080D01*
X5574297Y-3871941D01*
X5553428Y-3843073D01*
X5551426Y-3837215D01*
X5560717Y-3814932D01*
X5586391Y-3769877D01*
X5625600Y-3706611D01*
X5675497Y-3629695D01*
X5733233Y-3543692D01*
X5749651Y-3519715D01*
X5809477Y-3432570D01*
X5863150Y-3354110D01*
X5907670Y-3288745D01*
X5940035Y-3240884D01*
X5957245Y-3214935D01*
X5958907Y-3212252D01*
X5956421Y-3191572D01*
X5943223Y-3146104D01*
X5921614Y-3081844D01*
X5893896Y-3004787D01*
X5862370Y-2920929D01*
X5829337Y-2836266D01*
X5797099Y-2756792D01*
X5767957Y-2688504D01*
X5744212Y-2637397D01*
X5728165Y-2609467D01*
X5727025Y-2608127D01*
X5717212Y-2600145D01*
X5700639Y-2592251D01*
X5673668Y-2583629D01*
X5632661Y-2573462D01*
X5573980Y-2560931D01*
X5493987Y-2545221D01*
X5389045Y-2525513D01*
X5255515Y-2500992D01*
X5226604Y-2495719D01*
X5140918Y-2479164D01*
X5066218Y-2462969D01*
X5009106Y-2448696D01*
X4976183Y-2437908D01*
X4971769Y-2435393D01*
X4964494Y-2413096D01*
X4958581Y-2363269D01*
X4954034Y-2291704D01*
X4950855Y-2204193D01*
X4949051Y-2106528D01*
X4948623Y-2004501D01*
X4949577Y-1903903D01*
X4951916Y-1810527D01*
X4955644Y-1730165D01*
X4960766Y-1668609D01*
X4967284Y-1631650D01*
X4971214Y-1624086D01*
X4993092Y-1616456D01*
X5042909Y-1604042D01*
X5115703Y-1587922D01*
X5206511Y-1569173D01*
X5310369Y-1548871D01*
X5366954Y-1538230D01*
X5474314Y-1518160D01*
X5570054Y-1499980D01*
X5649494Y-1484599D01*
X5707954Y-1472931D01*
X5740755Y-1465888D01*
X5746154Y-1464326D01*
X5755278Y-1446722D01*
X5774565Y-1404318D01*
X5801445Y-1343172D01*
X5833346Y-1269343D01*
X5867698Y-1188889D01*
X5901929Y-1107868D01*
X5933469Y-1032337D01*
X5959746Y-968355D01*
X5978189Y-921980D01*
X5986229Y-899269D01*
X5986378Y-898276D01*
X5977265Y-880361D01*
X5951714Y-839133D01*
X5912412Y-778691D01*
X5862043Y-703131D01*
X5803294Y-616552D01*
X5769142Y-566821D01*
X5706910Y-475636D01*
X5651636Y-392849D01*
X5606018Y-322649D01*
X5572752Y-269224D01*
X5554536Y-236761D01*
X5551905Y-229483D01*
X5563214Y-212545D01*
X5594481Y-176378D01*
X5641710Y-125035D01*
X5700908Y-62567D01*
X5768081Y6974D01*
X5839234Y79535D01*
X5910374Y151065D01*
X5977507Y217513D01*
X6036639Y274826D01*
X6083775Y318953D01*
X6114923Y345841D01*
X6125343Y352258D01*
X6142309Y343235D01*
X6182889Y317885D01*
X6243137Y278790D01*
X6319107Y228529D01*
X6406854Y169683D01*
X6473044Y124852D01*
X6807468Y-102554D01*
X7086233Y12362D01*
X7364997Y127278D01*
X7440546Y528024D01*
X7516094Y928771D01*
X8350215Y928771D01*
X8425764Y528024D01*
G37*
D12*
%TO.C,J2*%
X22565800Y1298000D02*
X23895800Y1298000D01*
X22565800Y188000D02*
X22565800Y1298000D01*
X22845800Y388000D02*
X22405800Y388000D01*
X22845800Y-332000D02*
X22405800Y-332000D01*
X22845800Y-2152000D02*
X22405800Y-2152000D01*
X22845800Y-2872000D02*
X22405800Y-2872000D01*
X22845800Y-4692000D02*
X22405800Y-4692000D01*
X22845800Y-5412000D02*
X22405800Y-5412000D01*
X22845800Y-7232000D02*
X22405800Y-7232000D01*
X22845800Y-7952000D02*
X22405800Y-7952000D01*
X22845800Y-9772000D02*
X22405800Y-9772000D01*
X22845800Y-10492000D02*
X22405800Y-10492000D01*
X22845800Y-12312000D02*
X22405800Y-12312000D01*
X22845800Y-13032000D02*
X22405800Y-13032000D01*
X22845800Y-14852000D02*
X22405800Y-14852000D01*
X22845800Y-15572000D02*
X22405800Y-15572000D01*
X22845800Y-17392000D02*
X22405800Y-17392000D01*
X22845800Y-18112000D02*
X22405800Y-18112000D01*
X22845800Y-19932000D02*
X22405800Y-19932000D01*
X22845800Y-20652000D02*
X22405800Y-20652000D01*
X22845800Y-22472000D02*
X22405800Y-22472000D01*
X22845800Y-23192000D02*
X22405800Y-23192000D01*
X22845800Y-25012000D02*
X22405800Y-25012000D01*
X22845800Y-25732000D02*
X22405800Y-25732000D01*
X22845800Y-27552000D02*
X22405800Y-27552000D01*
X22845800Y-28272000D02*
X22405800Y-28272000D01*
X22845800Y-30092000D02*
X22405800Y-30092000D01*
X22845800Y-30812000D02*
X22405800Y-30812000D01*
X22845800Y-32632000D02*
X22405800Y-32632000D01*
X22845800Y-33352000D02*
X22405800Y-33352000D01*
X22845800Y-35172000D02*
X22405800Y-35172000D01*
X22845800Y-35892000D02*
X22405800Y-35892000D01*
X22845800Y-37712000D02*
X22405800Y-37712000D01*
X22845800Y-38432000D02*
X22405800Y-38432000D01*
X22845800Y-40252000D02*
X22405800Y-40252000D01*
X22845800Y-40972000D02*
X22405800Y-40972000D01*
X22845800Y-42792000D02*
X22405800Y-42792000D01*
X22845800Y-43512000D02*
X22405800Y-43512000D01*
X22845800Y-45332000D02*
X22405800Y-45332000D01*
X22845800Y-46052000D02*
X22405800Y-46052000D01*
X22845800Y-47872000D02*
X22405800Y-47872000D01*
X22845800Y-48592000D02*
X22405800Y-48592000D01*
X22845800Y-50412000D02*
X22405800Y-50412000D01*
X22845800Y-51132000D02*
X22405800Y-51132000D01*
X22845800Y-52952000D02*
X22405800Y-52952000D01*
X22845800Y-53672000D02*
X22405800Y-53672000D01*
X22845800Y-55492000D02*
X22405800Y-55492000D01*
X22845800Y-56212000D02*
X22405800Y-56212000D01*
X22845800Y-58032000D02*
X22405800Y-58032000D01*
X22845800Y-58752000D02*
X22405800Y-58752000D01*
X22845800Y-60572000D02*
X22405800Y-60572000D01*
X22845800Y-61292000D02*
X22405800Y-61292000D01*
X22845800Y-63112000D02*
X22405800Y-63112000D01*
X22845800Y-63832000D02*
X22405800Y-63832000D01*
X22845800Y-65652000D02*
X22405800Y-65652000D01*
X22845800Y-66372000D02*
X22405800Y-66372000D01*
X22845800Y-68192000D02*
X22405800Y-68192000D01*
X22845800Y-68912000D02*
X22405800Y-68912000D01*
X22845800Y-70732000D02*
X22405800Y-70732000D01*
X22845800Y-71452000D02*
X22405800Y-71452000D01*
X22845800Y-73272000D02*
X22405800Y-73272000D01*
X22845800Y-73992000D02*
X22405800Y-73992000D01*
X22845800Y-75812000D02*
X22405800Y-75812000D01*
X22845800Y-76532000D02*
X22405800Y-76532000D01*
X22845800Y-78352000D02*
X22405800Y-78352000D01*
X22845800Y-79072000D02*
X22405800Y-79072000D01*
X22845800Y-80892000D02*
X22405800Y-80892000D01*
X22845800Y-81612000D02*
X22405800Y-81612000D01*
X22845800Y-83432000D02*
X22405800Y-83432000D01*
X22845800Y-84152000D02*
X22405800Y-84152000D01*
X22845800Y-85972000D02*
X22405800Y-85972000D01*
X22845800Y-86692000D02*
X22405800Y-86692000D01*
X22845800Y-88512000D02*
X22405800Y-88512000D01*
X22845800Y-89232000D02*
X22405800Y-89232000D01*
X22845800Y-91052000D02*
X22405800Y-91052000D01*
X22845800Y-91772000D02*
X22405800Y-91772000D01*
X22845800Y-93592000D02*
X22405800Y-93592000D01*
X22845800Y-94312000D02*
X22405800Y-94312000D01*
X22845800Y-96132000D02*
X22405800Y-96132000D01*
X22845800Y-96852000D02*
X22405800Y-96852000D01*
X22845800Y-98672000D02*
X22465800Y-98672000D01*
X22845800Y-99392000D02*
X22465800Y-99392000D01*
X25355800Y388000D02*
X24945800Y388000D01*
X25355800Y-332000D02*
X24945800Y-332000D01*
X25355800Y-2152000D02*
X24945800Y-2152000D01*
X25355800Y-2872000D02*
X24945800Y-2872000D01*
X25355800Y-4692000D02*
X24945800Y-4692000D01*
X25355800Y-5412000D02*
X24945800Y-5412000D01*
X25355800Y-7232000D02*
X24945800Y-7232000D01*
X25355800Y-7952000D02*
X24945800Y-7952000D01*
X25355800Y-9772000D02*
X24945800Y-9772000D01*
X25355800Y-10492000D02*
X24945800Y-10492000D01*
X25355800Y-12312000D02*
X24945800Y-12312000D01*
X25355800Y-13032000D02*
X24945800Y-13032000D01*
X25355800Y-14852000D02*
X24945800Y-14852000D01*
X25355800Y-15572000D02*
X24945800Y-15572000D01*
X25355800Y-17392000D02*
X24945800Y-17392000D01*
X25355800Y-18112000D02*
X24945800Y-18112000D01*
X25355800Y-19932000D02*
X24945800Y-19932000D01*
X25355800Y-20652000D02*
X24945800Y-20652000D01*
X25355800Y-22472000D02*
X24945800Y-22472000D01*
X25355800Y-23192000D02*
X24945800Y-23192000D01*
X25355800Y-25012000D02*
X24945800Y-25012000D01*
X25355800Y-25732000D02*
X24945800Y-25732000D01*
X25355800Y-27552000D02*
X24945800Y-27552000D01*
X25355800Y-28272000D02*
X24945800Y-28272000D01*
X25355800Y-30092000D02*
X24945800Y-30092000D01*
X25355800Y-30812000D02*
X24945800Y-30812000D01*
X25355800Y-32632000D02*
X24945800Y-32632000D01*
X25355800Y-33352000D02*
X24945800Y-33352000D01*
X25355800Y-35172000D02*
X24945800Y-35172000D01*
X25355800Y-35892000D02*
X24945800Y-35892000D01*
X25355800Y-37712000D02*
X24945800Y-37712000D01*
X25355800Y-38432000D02*
X24945800Y-38432000D01*
X25355800Y-40252000D02*
X24945800Y-40252000D01*
X25355800Y-40972000D02*
X24945800Y-40972000D01*
X25355800Y-42792000D02*
X24945800Y-42792000D01*
X25355800Y-43512000D02*
X24945800Y-43512000D01*
X25355800Y-45332000D02*
X24945800Y-45332000D01*
X25355800Y-46052000D02*
X24945800Y-46052000D01*
X25355800Y-47872000D02*
X24945800Y-47872000D01*
X25355800Y-48592000D02*
X24945800Y-48592000D01*
X25355800Y-50412000D02*
X24945800Y-50412000D01*
X25355800Y-51132000D02*
X24945800Y-51132000D01*
X25355800Y-52952000D02*
X24945800Y-52952000D01*
X25355800Y-53672000D02*
X24945800Y-53672000D01*
X25355800Y-55492000D02*
X24945800Y-55492000D01*
X25355800Y-56212000D02*
X24945800Y-56212000D01*
X25355800Y-58032000D02*
X24945800Y-58032000D01*
X25355800Y-58752000D02*
X24945800Y-58752000D01*
X25355800Y-60572000D02*
X24945800Y-60572000D01*
X25355800Y-61292000D02*
X24945800Y-61292000D01*
X25355800Y-63112000D02*
X24945800Y-63112000D01*
X25355800Y-63832000D02*
X24945800Y-63832000D01*
X25355800Y-65652000D02*
X24945800Y-65652000D01*
X25355800Y-66372000D02*
X24945800Y-66372000D01*
X25355800Y-68192000D02*
X24945800Y-68192000D01*
X25355800Y-68912000D02*
X24945800Y-68912000D01*
X25355800Y-70732000D02*
X24945800Y-70732000D01*
X25355800Y-71452000D02*
X24945800Y-71452000D01*
X25355800Y-73272000D02*
X24945800Y-73272000D01*
X25355800Y-73992000D02*
X24945800Y-73992000D01*
X25355800Y-75812000D02*
X24945800Y-75812000D01*
X25355800Y-76532000D02*
X24945800Y-76532000D01*
X25355800Y-78352000D02*
X24945800Y-78352000D01*
X25355800Y-79072000D02*
X24945800Y-79072000D01*
X25355800Y-80892000D02*
X24945800Y-80892000D01*
X25355800Y-81612000D02*
X24945800Y-81612000D01*
X25355800Y-83432000D02*
X24945800Y-83432000D01*
X25355800Y-84152000D02*
X24945800Y-84152000D01*
X25355800Y-85972000D02*
X24945800Y-85972000D01*
X25355800Y-86692000D02*
X24945800Y-86692000D01*
X25355800Y-88512000D02*
X24945800Y-88512000D01*
X25355800Y-89232000D02*
X24945800Y-89232000D01*
X25355800Y-91052000D02*
X24945800Y-91052000D01*
X25355800Y-91772000D02*
X24945800Y-91772000D01*
X25355800Y-93592000D02*
X24945800Y-93592000D01*
X25355800Y-94312000D02*
X24945800Y-94312000D01*
X25355800Y-96132000D02*
X24945800Y-96132000D01*
X25355800Y-96852000D02*
X24945800Y-96852000D01*
X25355800Y-98672000D02*
X24945800Y-98672000D01*
X25355800Y-99392000D02*
X24945800Y-99392000D01*
X25355800Y-100362000D02*
X25355800Y1358000D01*
X33976600Y1342230D02*
X25346600Y1342230D01*
X33976600Y1224130D02*
X25346600Y1224130D01*
X33976600Y1106035D02*
X25346600Y1106035D01*
X33976600Y987940D02*
X25346600Y987940D01*
X33976600Y869845D02*
X25346600Y869845D01*
X33976600Y751750D02*
X25346600Y751750D01*
X33976600Y633655D02*
X25346600Y633655D01*
X33976600Y515560D02*
X25346600Y515560D01*
X33976600Y397465D02*
X25346600Y397465D01*
X33976600Y279370D02*
X25346600Y279370D01*
X33976600Y161275D02*
X25346600Y161275D01*
X33976600Y43180D02*
X25346600Y43180D01*
X33976600Y-74915D02*
X25346600Y-74915D01*
X33976600Y-193010D02*
X25346600Y-193010D01*
X33976600Y-311105D02*
X25346600Y-311105D01*
X33976600Y-429200D02*
X25346600Y-429200D01*
X33976600Y-547295D02*
X25346600Y-547295D01*
X33976600Y-665390D02*
X25346600Y-665390D01*
X33976600Y-783485D02*
X25346600Y-783485D01*
X33976600Y-901580D02*
X25346600Y-901580D01*
X33976600Y-1019675D02*
X25346600Y-1019675D01*
X33976600Y-1137770D02*
X25346600Y-1137770D01*
X33976600Y-1257770D02*
X25346600Y-1257770D01*
X33985800Y1358000D02*
X25355800Y1358000D01*
X33985800Y-1242000D02*
X25355800Y-1242000D01*
X33985800Y-3782000D02*
X25355800Y-3782000D01*
X33985800Y-6322000D02*
X25355800Y-6322000D01*
X33985800Y-8862000D02*
X25355800Y-8862000D01*
X33985800Y-11402000D02*
X25355800Y-11402000D01*
X33985800Y-13942000D02*
X25355800Y-13942000D01*
X33985800Y-16482000D02*
X25355800Y-16482000D01*
X33985800Y-19022000D02*
X25355800Y-19022000D01*
X33985800Y-21562000D02*
X25355800Y-21562000D01*
X33985800Y-24102000D02*
X25355800Y-24102000D01*
X33985800Y-26642000D02*
X25355800Y-26642000D01*
X33985800Y-29182000D02*
X25355800Y-29182000D01*
X33985800Y-31722000D02*
X25355800Y-31722000D01*
X33985800Y-34262000D02*
X25355800Y-34262000D01*
X33985800Y-36802000D02*
X25355800Y-36802000D01*
X33985800Y-39342000D02*
X25355800Y-39342000D01*
X33985800Y-41882000D02*
X25355800Y-41882000D01*
X33985800Y-44422000D02*
X25355800Y-44422000D01*
X33985800Y-46962000D02*
X25355800Y-46962000D01*
X33985800Y-49502000D02*
X25355800Y-49502000D01*
X33985800Y-52042000D02*
X25355800Y-52042000D01*
X33985800Y-54582000D02*
X25355800Y-54582000D01*
X33985800Y-57122000D02*
X25355800Y-57122000D01*
X33985800Y-59662000D02*
X25355800Y-59662000D01*
X33985800Y-62202000D02*
X25355800Y-62202000D01*
X33985800Y-64742000D02*
X25355800Y-64742000D01*
X33985800Y-67282000D02*
X25355800Y-67282000D01*
X33985800Y-69822000D02*
X25355800Y-69822000D01*
X33985800Y-72362000D02*
X25355800Y-72362000D01*
X33985800Y-74902000D02*
X25355800Y-74902000D01*
X33985800Y-77442000D02*
X25355800Y-77442000D01*
X33985800Y-79982000D02*
X25355800Y-79982000D01*
X33985800Y-82522000D02*
X25355800Y-82522000D01*
X33985800Y-85062000D02*
X25355800Y-85062000D01*
X33985800Y-87602000D02*
X25355800Y-87602000D01*
X33985800Y-90142000D02*
X25355800Y-90142000D01*
X33985800Y-92682000D02*
X25355800Y-92682000D01*
X33985800Y-95222000D02*
X25355800Y-95222000D01*
X33985800Y-97812800D02*
X25355800Y-97812800D01*
X33985800Y-100362000D02*
X25355800Y-100362000D01*
X33985800Y-100362000D02*
X33985800Y1358000D01*
%TO.C,C2*%
X17397000Y-42056267D02*
X17397000Y-41763733D01*
X18417000Y-42056267D02*
X18417000Y-41763733D01*
%TO.C,C4*%
X4847600Y-12830533D02*
X4847600Y-13123067D01*
X5867600Y-12830533D02*
X5867600Y-13123067D01*
%TD*%
%LPC*%
D17*
%TO.C,H1*%
X0Y0D03*
%TD*%
%TO.C,H2*%
X16051000Y0D03*
%TD*%
%TO.C,H3*%
X0Y-104000000D03*
%TD*%
%TO.C,H4*%
X23950400Y-104000000D03*
%TD*%
D18*
%TO.C,C1*%
X16383000Y-42772500D03*
X16383000Y-41047500D03*
%TD*%
D19*
%TO.C,C3*%
X6830800Y-12114300D03*
X6830800Y-13839300D03*
%TD*%
D20*
%TO.C,J1*%
X2396000Y-85824000D03*
D21*
X-144000Y-85824000D03*
X2396000Y-83284000D03*
X-144000Y-83284000D03*
X2396000Y-80744000D03*
X-144000Y-80744000D03*
X2396000Y-78204000D03*
X-144000Y-78204000D03*
X2396000Y-75664000D03*
X-144000Y-75664000D03*
X2396000Y-73124000D03*
X-144000Y-73124000D03*
X2396000Y-70584000D03*
X-144000Y-70584000D03*
X2396000Y-68044000D03*
X-144000Y-68044000D03*
X2396000Y-65504000D03*
X-144000Y-65504000D03*
X2396000Y-62964000D03*
X-144000Y-62964000D03*
X2396000Y-60424000D03*
X-144000Y-60424000D03*
X2396000Y-57884000D03*
X-144000Y-57884000D03*
X2396000Y-55344000D03*
X-144000Y-55344000D03*
X2396000Y-52804000D03*
X-144000Y-52804000D03*
X2396000Y-50264000D03*
X-144000Y-50264000D03*
X2396000Y-47724000D03*
X-144000Y-47724000D03*
X2396000Y-45184000D03*
X-144000Y-45184000D03*
X2396000Y-42644000D03*
X-144000Y-42644000D03*
X2396000Y-40104000D03*
X-144000Y-40104000D03*
X2396000Y-37564000D03*
X-144000Y-37564000D03*
X2396000Y-35024000D03*
X-144000Y-35024000D03*
X2396000Y-32484000D03*
X-144000Y-32484000D03*
X2396000Y-29944000D03*
X-144000Y-29944000D03*
X2396000Y-27404000D03*
X-144000Y-27404000D03*
X2396000Y-24864000D03*
X-144000Y-24864000D03*
X2396000Y-22324000D03*
X-144000Y-22324000D03*
X2396000Y-19784000D03*
X-144000Y-19784000D03*
X2396000Y-17244000D03*
X-144000Y-17244000D03*
X2396000Y-14704000D03*
X-144000Y-14704000D03*
X2396000Y-12164000D03*
X-144000Y-12164000D03*
%TD*%
D20*
%TO.C,J2*%
X23895800Y28000D03*
D21*
X23895800Y-2512000D03*
X23895800Y-5052000D03*
X23895800Y-7592000D03*
X23895800Y-10132000D03*
X23895800Y-12672000D03*
X23895800Y-15212000D03*
X23895800Y-17752000D03*
X23895800Y-20292000D03*
X23895800Y-22832000D03*
X23895800Y-25372000D03*
X23895800Y-27912000D03*
X23895800Y-30452000D03*
X23895800Y-32992000D03*
X23895800Y-35532000D03*
X23895800Y-38072000D03*
X23895800Y-40612000D03*
X23895800Y-43152000D03*
X23895800Y-45692000D03*
X23895800Y-48232000D03*
X23895800Y-50772000D03*
X23895800Y-53312000D03*
X23895800Y-55852000D03*
X23895800Y-58392000D03*
X23895800Y-60932000D03*
X23895800Y-63472000D03*
X23895800Y-66012000D03*
X23895800Y-68552000D03*
X23895800Y-71092000D03*
X23895800Y-73632000D03*
X23895800Y-76172000D03*
X23895800Y-78712000D03*
X23895800Y-81252000D03*
X23895800Y-83792000D03*
X23895800Y-86332000D03*
X23895800Y-88872000D03*
X23895800Y-91412000D03*
X23895800Y-93952000D03*
X23895800Y-96492000D03*
X23895800Y-99032000D03*
X21355800Y28000D03*
X21355800Y-2512000D03*
X21355800Y-5052000D03*
X21355800Y-7592000D03*
X21355800Y-10132000D03*
X21355800Y-12672000D03*
X21355800Y-15212000D03*
X21355800Y-17752000D03*
X21355800Y-20292000D03*
X21355800Y-22832000D03*
X21355800Y-25372000D03*
X21355800Y-27912000D03*
X21355800Y-30452000D03*
X21355800Y-32992000D03*
X21355800Y-35532000D03*
X21355800Y-38072000D03*
X21355800Y-40612000D03*
X21355800Y-43152000D03*
X21355800Y-45692000D03*
X21355800Y-48232000D03*
X21355800Y-50772000D03*
X21355800Y-53312000D03*
X21355800Y-55852000D03*
X21355800Y-58392000D03*
X21355800Y-60932000D03*
X21355800Y-63472000D03*
X21355800Y-66012000D03*
X21355800Y-68552000D03*
X21355800Y-71092000D03*
X21355800Y-73632000D03*
X21355800Y-76172000D03*
X21355800Y-78712000D03*
X21355800Y-81252000D03*
X21355800Y-83792000D03*
X21355800Y-86332000D03*
X21355800Y-88872000D03*
X21355800Y-91412000D03*
X21355800Y-93952000D03*
X21355800Y-96492000D03*
X21355800Y-99032000D03*
%TD*%
D18*
%TO.C,C2*%
X17907000Y-42772500D03*
X17907000Y-41047500D03*
%TD*%
D19*
%TO.C,C4*%
X5357600Y-12114300D03*
X5357600Y-13839300D03*
%TD*%
%LPD*%
M02*
