M48
; DRILL file {KiCad 8.0.4} date 2024-07-29T13:54:58-0700
; FORMAT={-:-/ absolute / inch / decimal}
; #@! TF.CreationDate,2024-07-29T13:54:58-07:00
; #@! TF.GenerationSoftware,Kicad,Pcbnew,8.0.4
; #@! TF.FileFunction,Plated,1,4,PTH
FMAT,2
INCH
; #@! TA.AperFunction,Plated,PTH,ViaDrill
T1C0.0118
; #@! TA.AperFunction,Plated,PTH,ViaDrill
T2C0.0157
; #@! TA.AperFunction,Plated,PTH,ComponentDrill
T3C0.0394
%
G90
G05
T1
X-0.075Y-0.175
X-0.075Y-0.275
X-0.075Y-0.375
X-0.075Y-0.475
X-0.075Y-0.575
X-0.075Y-0.675
X-0.075Y-0.775
X-0.075Y-0.875
X-0.075Y-0.975
X-0.075Y-1.075
X-0.075Y-1.175
X-0.075Y-1.275
X-0.075Y-1.375
X-0.075Y-1.475
X-0.075Y-1.575
X-0.075Y-1.675
X-0.075Y-1.775
X-0.075Y-1.875
X-0.075Y-1.975
X-0.075Y-2.075
X-0.075Y-2.175
X-0.075Y-2.275
X-0.075Y-2.375
X-0.075Y-2.475
X-0.075Y-2.575
X-0.075Y-2.675
X-0.075Y-2.775
X-0.075Y-2.975
X-0.075Y-3.075
X-0.075Y-3.175
X-0.075Y-3.275
X-0.075Y-3.375
X-0.075Y-3.475
X-0.075Y-3.575
X-0.075Y-3.675
X-0.075Y-3.775
X-0.075Y-3.875
X-0.075Y-3.975
X0.115Y0.075
X0.125Y-4.175
X0.18Y-2.42
X0.19Y-2.555
X0.21Y-3.16
X0.215Y0.075
X0.225Y-4.175
X0.24Y-0.8809
X0.245Y-1.2
X0.255Y-0.695
X0.28Y-3.155
X0.3Y-2.68
X0.305Y-3.08
X0.315Y0.075
X0.325Y-4.175
X0.3525Y-3.1475
X0.36Y-2.79
X0.3625Y-2.7225
X0.4Y-0.865
X0.405Y-1.15
X0.405Y-1.23
X0.415Y0.075
X0.4167Y-3.1483
X0.425Y-4.175
X0.43Y-2.705
X0.445Y-2.775
X0.45Y-0.4
X0.45Y-0.94
X0.465Y-3.08
X0.475Y-1.725
X0.48Y-1.81
X0.48Y-1.9
X0.49Y-2.955
X0.5Y-1.2
X0.5125Y-2.7475
X0.515Y0.075
X0.52Y-1.165
X0.52Y-1.745
X0.525Y-4.175
X0.5369Y-2.94
X0.56Y-1.775
X0.615Y-1.8
X0.625Y-2.0
X0.625Y-4.175
X0.63Y-1.065
X0.635Y-2.245
X0.64Y-3.04
X0.655Y-3.115
X0.665Y-1.02
X0.685Y-1.08
X0.69Y-1.34
X0.7Y-0.99
X0.7069Y-2.9009
X0.71Y-3.155
X0.7169Y-1.8909
X0.725Y-4.175
X0.7269Y-2.8609
X0.745Y-3.07
X0.75Y-0.685
X0.7819Y0.0741
X0.825Y-4.175
X0.8819Y0.0741
X0.98Y0.075
X1.025Y0.0061
X1.025Y-0.075
X1.025Y-0.175
X1.025Y-0.275
X1.025Y-0.375
X1.025Y-0.475
X1.025Y-0.575
X1.025Y-0.675
X1.025Y-0.775
X1.025Y-0.875
X1.025Y-0.975
X1.025Y-1.075
X1.025Y-1.175
X1.025Y-1.275
X1.025Y-1.375
X1.025Y-1.475
X1.025Y-1.575
X1.025Y-1.675
X1.025Y-1.775
X1.025Y-1.875
X1.025Y-1.975
X1.025Y-2.075
X1.025Y-2.175
X1.025Y-2.275
X1.025Y-2.375
X1.025Y-2.475
X1.025Y-2.575
X1.025Y-2.675
X1.025Y-2.775
X1.025Y-2.875
X1.025Y-2.975
X1.025Y-3.075
X1.025Y-3.175
X1.025Y-3.275
X1.025Y-3.375
X1.025Y-3.475
X1.025Y-3.575
X1.025Y-3.675
X1.025Y-3.775
X1.025Y-3.875
X1.025Y-3.975
T2
X0.2109Y-0.4459
X0.2109Y-0.5769
X0.2689Y-0.4459
X0.2689Y-0.5769
X0.3049Y-0.4789
X0.3119Y-0.5609
X0.7469Y-1.6209
X0.7469Y-1.6814
T3
X-0.0057Y-0.4789
X-0.0057Y-0.5789
X-0.0057Y-0.6789
X-0.0057Y-0.7789
X-0.0057Y-0.8789
X-0.0057Y-0.9789
X-0.0057Y-1.0789
X-0.0057Y-1.1789
X-0.0057Y-1.2789
X-0.0057Y-1.3789
X-0.0057Y-1.4789
X-0.0057Y-1.5789
X-0.0057Y-1.6789
X-0.0057Y-1.7789
X-0.0057Y-1.8789
X-0.0057Y-1.9789
X-0.0057Y-2.0789
X-0.0057Y-2.1789
X-0.0057Y-2.2789
X-0.0057Y-2.3789
X-0.0057Y-2.4789
X-0.0057Y-2.5789
X-0.0057Y-2.6789
X-0.0057Y-2.7789
X-0.0057Y-2.8789
X-0.0057Y-2.9789
X-0.0057Y-3.0789
X-0.0057Y-3.1789
X-0.0057Y-3.2789
X-0.0057Y-3.3789
X0.0943Y-0.4789
X0.0943Y-0.5789
X0.0943Y-0.6789
X0.0943Y-0.7789
X0.0943Y-0.8789
X0.0943Y-0.9789
X0.0943Y-1.0789
X0.0943Y-1.1789
X0.0943Y-1.2789
X0.0943Y-1.3789
X0.0943Y-1.4789
X0.0943Y-1.5789
X0.0943Y-1.6789
X0.0943Y-1.7789
X0.0943Y-1.8789
X0.0943Y-1.9789
X0.0943Y-2.0789
X0.0943Y-2.1789
X0.0943Y-2.2789
X0.0943Y-2.3789
X0.0943Y-2.4789
X0.0943Y-2.5789
X0.0943Y-2.6789
X0.0943Y-2.7789
X0.0943Y-2.8789
X0.0943Y-2.9789
X0.0943Y-3.0789
X0.0943Y-3.1789
X0.0943Y-3.2789
X0.0943Y-3.3789
X0.8408Y0.0011
X0.8408Y-0.0989
X0.8408Y-0.1989
X0.8408Y-0.2989
X0.8408Y-0.3989
X0.8408Y-0.4989
X0.8408Y-0.5989
X0.8408Y-0.6989
X0.8408Y-0.7989
X0.8408Y-0.8989
X0.8408Y-0.9989
X0.8408Y-1.0989
X0.8408Y-1.1989
X0.8408Y-1.2989
X0.8408Y-1.3989
X0.8408Y-1.4989
X0.8408Y-1.5989
X0.8408Y-1.6989
X0.8408Y-1.7989
X0.8408Y-1.8989
X0.8408Y-1.9989
X0.8408Y-2.0989
X0.8408Y-2.1989
X0.8408Y-2.2989
X0.8408Y-2.3989
X0.8408Y-2.4989
X0.8408Y-2.5989
X0.8408Y-2.6989
X0.8408Y-2.7989
X0.8408Y-2.8989
X0.8408Y-2.9989
X0.8408Y-3.0989
X0.8408Y-3.1989
X0.8408Y-3.2989
X0.8408Y-3.3989
X0.8408Y-3.4989
X0.8408Y-3.5989
X0.8408Y-3.6989
X0.8408Y-3.7989
X0.8408Y-3.8989
X0.9408Y0.0011
X0.9408Y-0.0989
X0.9408Y-0.1989
X0.9408Y-0.2989
X0.9408Y-0.3989
X0.9408Y-0.4989
X0.9408Y-0.5989
X0.9408Y-0.6989
X0.9408Y-0.7989
X0.9408Y-0.8989
X0.9408Y-0.9989
X0.9408Y-1.0989
X0.9408Y-1.1989
X0.9408Y-1.2989
X0.9408Y-1.3989
X0.9408Y-1.4989
X0.9408Y-1.5989
X0.9408Y-1.6989
X0.9408Y-1.7989
X0.9408Y-1.8989
X0.9408Y-1.9989
X0.9408Y-2.0989
X0.9408Y-2.1989
X0.9408Y-2.2989
X0.9408Y-2.3989
X0.9408Y-2.4989
X0.9408Y-2.5989
X0.9408Y-2.6989
X0.9408Y-2.7989
X0.9408Y-2.8989
X0.9408Y-2.9989
X0.9408Y-3.0989
X0.9408Y-3.1989
X0.9408Y-3.2989
X0.9408Y-3.3989
X0.9408Y-3.4989
X0.9408Y-3.5989
X0.9408Y-3.6989
X0.9408Y-3.7989
X0.9408Y-3.8989
M30
