%TF.GenerationSoftware,KiCad,Pcbnew,8.0.4*%
%TF.CreationDate,2024-07-29T13:54:58-07:00*%
%TF.ProjectId,RANDY,52414e44-592e-46b6-9963-61645f706362,0*%
%TF.SameCoordinates,Original*%
%TF.FileFunction,Legend,Bot*%
%TF.FilePolarity,Positive*%
%FSLAX46Y46*%
G04 Gerber Fmt 4.6, Leading zero omitted, Abs format (unit mm)*
G04 Created by KiCad (PCBNEW 8.0.4) date 2024-07-29 13:54:58*
%MOMM*%
%LPD*%
G01*
G04 APERTURE LIST*
G04 Aperture macros list*
%AMRoundRect*
0 Rectangle with rounded corners*
0 $1 Rounding radius*
0 $2 $3 $4 $5 $6 $7 $8 $9 X,Y pos of 4 corners*
0 Add a 4 corners polygon primitive as box body*
4,1,4,$2,$3,$4,$5,$6,$7,$8,$9,$2,$3,0*
0 Add four circle primitives for the rounded corners*
1,1,$1+$1,$2,$3*
1,1,$1+$1,$4,$5*
1,1,$1+$1,$6,$7*
1,1,$1+$1,$8,$9*
0 Add four rect primitives between the rounded corners*
20,1,$1+$1,$2,$3,$4,$5,0*
20,1,$1+$1,$4,$5,$6,$7,0*
20,1,$1+$1,$6,$7,$8,$9,0*
20,1,$1+$1,$8,$9,$2,$3,0*%
G04 Aperture macros list end*
%ADD10C,0.254000*%
%ADD11C,0.300000*%
%ADD12C,0.120000*%
%ADD13C,0.317500*%
%ADD14C,0.635000*%
%ADD15C,0.010000*%
%ADD16C,2.802000*%
%ADD17RoundRect,0.051000X0.850000X0.850000X-0.850000X0.850000X-0.850000X-0.850000X0.850000X-0.850000X0*%
%ADD18O,1.802000X1.802000*%
G04 APERTURE END LIST*
D10*
X9047600Y-58292500D02*
X17175600Y-58292500D01*
X17175600Y-105079300D01*
X9047600Y-105079300D01*
X9047600Y-58292500D01*
D11*
X7937500Y-36449000D02*
X17208500Y-36449000D01*
X17208500Y-55372000D01*
X7937500Y-55372000D01*
X7937500Y-36449000D01*
D12*
X12913600Y-76962000D02*
X16357600Y-76962000D01*
X16357600Y-83375000D01*
X12913600Y-83375000D01*
X12913600Y-76962000D01*
G36*
X12913600Y-76962000D02*
G01*
X16357600Y-76962000D01*
X16357600Y-83375000D01*
X12913600Y-83375000D01*
X12913600Y-76962000D01*
G37*
D13*
X6314621Y-102279014D02*
X6242050Y-102345538D01*
X6242050Y-102345538D02*
X6169478Y-102545109D01*
X6169478Y-102545109D02*
X6169478Y-102678157D01*
X6169478Y-102678157D02*
X6242050Y-102877728D01*
X6242050Y-102877728D02*
X6387192Y-103010776D01*
X6387192Y-103010776D02*
X6532335Y-103077299D01*
X6532335Y-103077299D02*
X6822621Y-103143823D01*
X6822621Y-103143823D02*
X7040335Y-103143823D01*
X7040335Y-103143823D02*
X7330621Y-103077299D01*
X7330621Y-103077299D02*
X7475764Y-103010776D01*
X7475764Y-103010776D02*
X7620907Y-102877728D01*
X7620907Y-102877728D02*
X7693478Y-102678157D01*
X7693478Y-102678157D02*
X7693478Y-102545109D01*
X7693478Y-102545109D02*
X7620907Y-102345538D01*
X7620907Y-102345538D02*
X7548335Y-102279014D01*
X6169478Y-101480728D02*
X6242050Y-101613776D01*
X6242050Y-101613776D02*
X6314621Y-101680299D01*
X6314621Y-101680299D02*
X6459764Y-101746823D01*
X6459764Y-101746823D02*
X6895192Y-101746823D01*
X6895192Y-101746823D02*
X7040335Y-101680299D01*
X7040335Y-101680299D02*
X7112907Y-101613776D01*
X7112907Y-101613776D02*
X7185478Y-101480728D01*
X7185478Y-101480728D02*
X7185478Y-101281157D01*
X7185478Y-101281157D02*
X7112907Y-101148109D01*
X7112907Y-101148109D02*
X7040335Y-101081585D01*
X7040335Y-101081585D02*
X6895192Y-101015061D01*
X6895192Y-101015061D02*
X6459764Y-101015061D01*
X6459764Y-101015061D02*
X6314621Y-101081585D01*
X6314621Y-101081585D02*
X6242050Y-101148109D01*
X6242050Y-101148109D02*
X6169478Y-101281157D01*
X6169478Y-101281157D02*
X6169478Y-101480728D01*
X7185478Y-100416347D02*
X5661478Y-100416347D01*
X7112907Y-100416347D02*
X7185478Y-100283300D01*
X7185478Y-100283300D02*
X7185478Y-100017205D01*
X7185478Y-100017205D02*
X7112907Y-99884157D01*
X7112907Y-99884157D02*
X7040335Y-99817633D01*
X7040335Y-99817633D02*
X6895192Y-99751109D01*
X6895192Y-99751109D02*
X6459764Y-99751109D01*
X6459764Y-99751109D02*
X6314621Y-99817633D01*
X6314621Y-99817633D02*
X6242050Y-99884157D01*
X6242050Y-99884157D02*
X6169478Y-100017205D01*
X6169478Y-100017205D02*
X6169478Y-100283300D01*
X6169478Y-100283300D02*
X6242050Y-100416347D01*
X7185478Y-99285443D02*
X6169478Y-98952824D01*
X7185478Y-98620205D02*
X6169478Y-98952824D01*
X6169478Y-98952824D02*
X5806621Y-99085872D01*
X5806621Y-99085872D02*
X5734050Y-99152395D01*
X5734050Y-99152395D02*
X5661478Y-99285443D01*
X6169478Y-98088014D02*
X7185478Y-98088014D01*
X6895192Y-98088014D02*
X7040335Y-98021491D01*
X7040335Y-98021491D02*
X7112907Y-97954967D01*
X7112907Y-97954967D02*
X7185478Y-97821919D01*
X7185478Y-97821919D02*
X7185478Y-97688872D01*
X6169478Y-97223204D02*
X7185478Y-97223204D01*
X7693478Y-97223204D02*
X7620907Y-97289728D01*
X7620907Y-97289728D02*
X7548335Y-97223204D01*
X7548335Y-97223204D02*
X7620907Y-97156681D01*
X7620907Y-97156681D02*
X7693478Y-97223204D01*
X7693478Y-97223204D02*
X7548335Y-97223204D01*
X7185478Y-95959252D02*
X5951764Y-95959252D01*
X5951764Y-95959252D02*
X5806621Y-96025776D01*
X5806621Y-96025776D02*
X5734050Y-96092300D01*
X5734050Y-96092300D02*
X5661478Y-96225347D01*
X5661478Y-96225347D02*
X5661478Y-96424919D01*
X5661478Y-96424919D02*
X5734050Y-96557966D01*
X6242050Y-95959252D02*
X6169478Y-96092300D01*
X6169478Y-96092300D02*
X6169478Y-96358395D01*
X6169478Y-96358395D02*
X6242050Y-96491443D01*
X6242050Y-96491443D02*
X6314621Y-96557966D01*
X6314621Y-96557966D02*
X6459764Y-96624490D01*
X6459764Y-96624490D02*
X6895192Y-96624490D01*
X6895192Y-96624490D02*
X7040335Y-96557966D01*
X7040335Y-96557966D02*
X7112907Y-96491443D01*
X7112907Y-96491443D02*
X7185478Y-96358395D01*
X7185478Y-96358395D02*
X7185478Y-96092300D01*
X7185478Y-96092300D02*
X7112907Y-95959252D01*
X6169478Y-95294014D02*
X7693478Y-95294014D01*
X6169478Y-94695300D02*
X6967764Y-94695300D01*
X6967764Y-94695300D02*
X7112907Y-94761824D01*
X7112907Y-94761824D02*
X7185478Y-94894872D01*
X7185478Y-94894872D02*
X7185478Y-95094443D01*
X7185478Y-95094443D02*
X7112907Y-95227491D01*
X7112907Y-95227491D02*
X7040335Y-95294014D01*
X7185478Y-94229634D02*
X7185478Y-93697443D01*
X7693478Y-94030062D02*
X6387192Y-94030062D01*
X6387192Y-94030062D02*
X6242050Y-93963539D01*
X6242050Y-93963539D02*
X6169478Y-93830491D01*
X6169478Y-93830491D02*
X6169478Y-93697443D01*
X7330621Y-91036491D02*
X7403192Y-91169538D01*
X7403192Y-91169538D02*
X7403192Y-91435634D01*
X7403192Y-91435634D02*
X7330621Y-91568681D01*
X7330621Y-91568681D02*
X7185478Y-91701729D01*
X7185478Y-91701729D02*
X7040335Y-91768253D01*
X7040335Y-91768253D02*
X6750050Y-91768253D01*
X6750050Y-91768253D02*
X6604907Y-91701729D01*
X6604907Y-91701729D02*
X6459764Y-91568681D01*
X6459764Y-91568681D02*
X6387192Y-91435634D01*
X6387192Y-91435634D02*
X6387192Y-91169538D01*
X6387192Y-91169538D02*
X6459764Y-91036491D01*
X7911192Y-91302586D02*
X7838621Y-91635205D01*
X7838621Y-91635205D02*
X7620907Y-91967824D01*
X7620907Y-91967824D02*
X7258050Y-92167395D01*
X7258050Y-92167395D02*
X6895192Y-92233919D01*
X6895192Y-92233919D02*
X6532335Y-92167395D01*
X6532335Y-92167395D02*
X6169478Y-91967824D01*
X6169478Y-91967824D02*
X5951764Y-91635205D01*
X5951764Y-91635205D02*
X5879192Y-91302586D01*
X5879192Y-91302586D02*
X5951764Y-90969967D01*
X5951764Y-90969967D02*
X6169478Y-90637348D01*
X6169478Y-90637348D02*
X6532335Y-90437776D01*
X6532335Y-90437776D02*
X6895192Y-90371253D01*
X6895192Y-90371253D02*
X7258050Y-90437776D01*
X7258050Y-90437776D02*
X7620907Y-90637348D01*
X7620907Y-90637348D02*
X7838621Y-90969967D01*
X7838621Y-90969967D02*
X7911192Y-91302586D01*
X7548335Y-88774681D02*
X7620907Y-88708157D01*
X7620907Y-88708157D02*
X7693478Y-88575110D01*
X7693478Y-88575110D02*
X7693478Y-88242491D01*
X7693478Y-88242491D02*
X7620907Y-88109443D01*
X7620907Y-88109443D02*
X7548335Y-88042919D01*
X7548335Y-88042919D02*
X7403192Y-87976396D01*
X7403192Y-87976396D02*
X7258050Y-87976396D01*
X7258050Y-87976396D02*
X7040335Y-88042919D01*
X7040335Y-88042919D02*
X6169478Y-88841205D01*
X6169478Y-88841205D02*
X6169478Y-87976396D01*
X7693478Y-87111586D02*
X7693478Y-86978539D01*
X7693478Y-86978539D02*
X7620907Y-86845491D01*
X7620907Y-86845491D02*
X7548335Y-86778967D01*
X7548335Y-86778967D02*
X7403192Y-86712443D01*
X7403192Y-86712443D02*
X7112907Y-86645920D01*
X7112907Y-86645920D02*
X6750050Y-86645920D01*
X6750050Y-86645920D02*
X6459764Y-86712443D01*
X6459764Y-86712443D02*
X6314621Y-86778967D01*
X6314621Y-86778967D02*
X6242050Y-86845491D01*
X6242050Y-86845491D02*
X6169478Y-86978539D01*
X6169478Y-86978539D02*
X6169478Y-87111586D01*
X6169478Y-87111586D02*
X6242050Y-87244634D01*
X6242050Y-87244634D02*
X6314621Y-87311158D01*
X6314621Y-87311158D02*
X6459764Y-87377681D01*
X6459764Y-87377681D02*
X6750050Y-87444205D01*
X6750050Y-87444205D02*
X7112907Y-87444205D01*
X7112907Y-87444205D02*
X7403192Y-87377681D01*
X7403192Y-87377681D02*
X7548335Y-87311158D01*
X7548335Y-87311158D02*
X7620907Y-87244634D01*
X7620907Y-87244634D02*
X7693478Y-87111586D01*
X7548335Y-86113729D02*
X7620907Y-86047205D01*
X7620907Y-86047205D02*
X7693478Y-85914158D01*
X7693478Y-85914158D02*
X7693478Y-85581539D01*
X7693478Y-85581539D02*
X7620907Y-85448491D01*
X7620907Y-85448491D02*
X7548335Y-85381967D01*
X7548335Y-85381967D02*
X7403192Y-85315444D01*
X7403192Y-85315444D02*
X7258050Y-85315444D01*
X7258050Y-85315444D02*
X7040335Y-85381967D01*
X7040335Y-85381967D02*
X6169478Y-86180253D01*
X6169478Y-86180253D02*
X6169478Y-85315444D01*
X7185478Y-84118015D02*
X6169478Y-84118015D01*
X7766050Y-84450634D02*
X6677478Y-84783253D01*
X6677478Y-84783253D02*
X6677478Y-83918444D01*
D14*
X13493567Y-101665546D02*
X14703091Y-102512213D01*
X13493567Y-103116975D02*
X16033567Y-103116975D01*
X16033567Y-103116975D02*
X16033567Y-102149356D01*
X16033567Y-102149356D02*
X15912615Y-101907451D01*
X15912615Y-101907451D02*
X15791662Y-101786498D01*
X15791662Y-101786498D02*
X15549758Y-101665546D01*
X15549758Y-101665546D02*
X15186900Y-101665546D01*
X15186900Y-101665546D02*
X14944996Y-101786498D01*
X14944996Y-101786498D02*
X14824043Y-101907451D01*
X14824043Y-101907451D02*
X14703091Y-102149356D01*
X14703091Y-102149356D02*
X14703091Y-103116975D01*
X14219281Y-100697927D02*
X14219281Y-99488403D01*
X13493567Y-100939832D02*
X16033567Y-100093165D01*
X16033567Y-100093165D02*
X13493567Y-99246498D01*
X13493567Y-98399832D02*
X16033567Y-98399832D01*
X16033567Y-98399832D02*
X13493567Y-96948403D01*
X13493567Y-96948403D02*
X16033567Y-96948403D01*
X13493567Y-95738880D02*
X16033567Y-95738880D01*
X16033567Y-95738880D02*
X16033567Y-95134118D01*
X16033567Y-95134118D02*
X15912615Y-94771261D01*
X15912615Y-94771261D02*
X15670710Y-94529356D01*
X15670710Y-94529356D02*
X15428805Y-94408403D01*
X15428805Y-94408403D02*
X14944996Y-94287451D01*
X14944996Y-94287451D02*
X14582139Y-94287451D01*
X14582139Y-94287451D02*
X14098329Y-94408403D01*
X14098329Y-94408403D02*
X13856424Y-94529356D01*
X13856424Y-94529356D02*
X13614520Y-94771261D01*
X13614520Y-94771261D02*
X13493567Y-95134118D01*
X13493567Y-95134118D02*
X13493567Y-95738880D01*
X14703091Y-92715070D02*
X13493567Y-92715070D01*
X16033567Y-93561737D02*
X14703091Y-92715070D01*
X14703091Y-92715070D02*
X16033567Y-91868403D01*
D13*
X6118678Y-79595499D02*
X7642678Y-79595499D01*
X7642678Y-79595499D02*
X7642678Y-79262880D01*
X7642678Y-79262880D02*
X7570107Y-79063309D01*
X7570107Y-79063309D02*
X7424964Y-78930261D01*
X7424964Y-78930261D02*
X7279821Y-78863738D01*
X7279821Y-78863738D02*
X6989535Y-78797214D01*
X6989535Y-78797214D02*
X6771821Y-78797214D01*
X6771821Y-78797214D02*
X6481535Y-78863738D01*
X6481535Y-78863738D02*
X6336392Y-78930261D01*
X6336392Y-78930261D02*
X6191250Y-79063309D01*
X6191250Y-79063309D02*
X6118678Y-79262880D01*
X6118678Y-79262880D02*
X6118678Y-79595499D01*
X6191250Y-77666309D02*
X6118678Y-77799357D01*
X6118678Y-77799357D02*
X6118678Y-78065452D01*
X6118678Y-78065452D02*
X6191250Y-78198499D01*
X6191250Y-78198499D02*
X6336392Y-78265023D01*
X6336392Y-78265023D02*
X6916964Y-78265023D01*
X6916964Y-78265023D02*
X7062107Y-78198499D01*
X7062107Y-78198499D02*
X7134678Y-78065452D01*
X7134678Y-78065452D02*
X7134678Y-77799357D01*
X7134678Y-77799357D02*
X7062107Y-77666309D01*
X7062107Y-77666309D02*
X6916964Y-77599785D01*
X6916964Y-77599785D02*
X6771821Y-77599785D01*
X6771821Y-77599785D02*
X6626678Y-78265023D01*
X7134678Y-77001070D02*
X6118678Y-77001070D01*
X6989535Y-77001070D02*
X7062107Y-76934547D01*
X7062107Y-76934547D02*
X7134678Y-76801499D01*
X7134678Y-76801499D02*
X7134678Y-76601928D01*
X7134678Y-76601928D02*
X7062107Y-76468880D01*
X7062107Y-76468880D02*
X6916964Y-76402356D01*
X6916964Y-76402356D02*
X6118678Y-76402356D01*
X7134678Y-75737118D02*
X6118678Y-75737118D01*
X6989535Y-75737118D02*
X7062107Y-75670595D01*
X7062107Y-75670595D02*
X7134678Y-75537547D01*
X7134678Y-75537547D02*
X7134678Y-75337976D01*
X7134678Y-75337976D02*
X7062107Y-75204928D01*
X7062107Y-75204928D02*
X6916964Y-75138404D01*
X6916964Y-75138404D02*
X6118678Y-75138404D01*
X6118678Y-74273595D02*
X6191250Y-74406643D01*
X6191250Y-74406643D02*
X6263821Y-74473166D01*
X6263821Y-74473166D02*
X6408964Y-74539690D01*
X6408964Y-74539690D02*
X6844392Y-74539690D01*
X6844392Y-74539690D02*
X6989535Y-74473166D01*
X6989535Y-74473166D02*
X7062107Y-74406643D01*
X7062107Y-74406643D02*
X7134678Y-74273595D01*
X7134678Y-74273595D02*
X7134678Y-74074024D01*
X7134678Y-74074024D02*
X7062107Y-73940976D01*
X7062107Y-73940976D02*
X6989535Y-73874452D01*
X6989535Y-73874452D02*
X6844392Y-73807928D01*
X6844392Y-73807928D02*
X6408964Y-73807928D01*
X6408964Y-73807928D02*
X6263821Y-73874452D01*
X6263821Y-73874452D02*
X6191250Y-73940976D01*
X6191250Y-73940976D02*
X6118678Y-74074024D01*
X6118678Y-74074024D02*
X6118678Y-74273595D01*
X7642678Y-72277881D02*
X6118678Y-71945262D01*
X6118678Y-71945262D02*
X7207250Y-71679167D01*
X7207250Y-71679167D02*
X6118678Y-71413072D01*
X6118678Y-71413072D02*
X7642678Y-71080453D01*
X6118678Y-70548262D02*
X7134678Y-70548262D01*
X7642678Y-70548262D02*
X7570107Y-70614786D01*
X7570107Y-70614786D02*
X7497535Y-70548262D01*
X7497535Y-70548262D02*
X7570107Y-70481739D01*
X7570107Y-70481739D02*
X7642678Y-70548262D01*
X7642678Y-70548262D02*
X7497535Y-70548262D01*
X7134678Y-69284310D02*
X5900964Y-69284310D01*
X5900964Y-69284310D02*
X5755821Y-69350834D01*
X5755821Y-69350834D02*
X5683250Y-69417358D01*
X5683250Y-69417358D02*
X5610678Y-69550405D01*
X5610678Y-69550405D02*
X5610678Y-69749977D01*
X5610678Y-69749977D02*
X5683250Y-69883024D01*
X6191250Y-69284310D02*
X6118678Y-69417358D01*
X6118678Y-69417358D02*
X6118678Y-69683453D01*
X6118678Y-69683453D02*
X6191250Y-69816501D01*
X6191250Y-69816501D02*
X6263821Y-69883024D01*
X6263821Y-69883024D02*
X6408964Y-69949548D01*
X6408964Y-69949548D02*
X6844392Y-69949548D01*
X6844392Y-69949548D02*
X6989535Y-69883024D01*
X6989535Y-69883024D02*
X7062107Y-69816501D01*
X7062107Y-69816501D02*
X7134678Y-69683453D01*
X7134678Y-69683453D02*
X7134678Y-69417358D01*
X7134678Y-69417358D02*
X7062107Y-69284310D01*
X7134678Y-68020358D02*
X5900964Y-68020358D01*
X5900964Y-68020358D02*
X5755821Y-68086882D01*
X5755821Y-68086882D02*
X5683250Y-68153406D01*
X5683250Y-68153406D02*
X5610678Y-68286453D01*
X5610678Y-68286453D02*
X5610678Y-68486025D01*
X5610678Y-68486025D02*
X5683250Y-68619072D01*
X6191250Y-68020358D02*
X6118678Y-68153406D01*
X6118678Y-68153406D02*
X6118678Y-68419501D01*
X6118678Y-68419501D02*
X6191250Y-68552549D01*
X6191250Y-68552549D02*
X6263821Y-68619072D01*
X6263821Y-68619072D02*
X6408964Y-68685596D01*
X6408964Y-68685596D02*
X6844392Y-68685596D01*
X6844392Y-68685596D02*
X6989535Y-68619072D01*
X6989535Y-68619072D02*
X7062107Y-68552549D01*
X7062107Y-68552549D02*
X7134678Y-68419501D01*
X7134678Y-68419501D02*
X7134678Y-68153406D01*
X7134678Y-68153406D02*
X7062107Y-68020358D01*
X6118678Y-67155549D02*
X6191250Y-67288597D01*
X6191250Y-67288597D02*
X6336392Y-67355120D01*
X6336392Y-67355120D02*
X7642678Y-67355120D01*
X6191250Y-66091168D02*
X6118678Y-66224216D01*
X6118678Y-66224216D02*
X6118678Y-66490311D01*
X6118678Y-66490311D02*
X6191250Y-66623358D01*
X6191250Y-66623358D02*
X6336392Y-66689882D01*
X6336392Y-66689882D02*
X6916964Y-66689882D01*
X6916964Y-66689882D02*
X7062107Y-66623358D01*
X7062107Y-66623358D02*
X7134678Y-66490311D01*
X7134678Y-66490311D02*
X7134678Y-66224216D01*
X7134678Y-66224216D02*
X7062107Y-66091168D01*
X7062107Y-66091168D02*
X6916964Y-66024644D01*
X6916964Y-66024644D02*
X6771821Y-66024644D01*
X6771821Y-66024644D02*
X6626678Y-66689882D01*
D11*
X13728503Y-53198346D02*
X14442789Y-53698346D01*
X13728503Y-54055489D02*
X15228503Y-54055489D01*
X15228503Y-54055489D02*
X15228503Y-53484060D01*
X15228503Y-53484060D02*
X15157074Y-53341203D01*
X15157074Y-53341203D02*
X15085646Y-53269774D01*
X15085646Y-53269774D02*
X14942789Y-53198346D01*
X14942789Y-53198346D02*
X14728503Y-53198346D01*
X14728503Y-53198346D02*
X14585646Y-53269774D01*
X14585646Y-53269774D02*
X14514217Y-53341203D01*
X14514217Y-53341203D02*
X14442789Y-53484060D01*
X14442789Y-53484060D02*
X14442789Y-54055489D01*
X13871360Y-51698346D02*
X13799932Y-51769774D01*
X13799932Y-51769774D02*
X13728503Y-51984060D01*
X13728503Y-51984060D02*
X13728503Y-52126917D01*
X13728503Y-52126917D02*
X13799932Y-52341203D01*
X13799932Y-52341203D02*
X13942789Y-52484060D01*
X13942789Y-52484060D02*
X14085646Y-52555489D01*
X14085646Y-52555489D02*
X14371360Y-52626917D01*
X14371360Y-52626917D02*
X14585646Y-52626917D01*
X14585646Y-52626917D02*
X14871360Y-52555489D01*
X14871360Y-52555489D02*
X15014217Y-52484060D01*
X15014217Y-52484060D02*
X15157074Y-52341203D01*
X15157074Y-52341203D02*
X15228503Y-52126917D01*
X15228503Y-52126917D02*
X15228503Y-51984060D01*
X15228503Y-51984060D02*
X15157074Y-51769774D01*
X15157074Y-51769774D02*
X15085646Y-51698346D01*
X14514217Y-50555489D02*
X14442789Y-50341203D01*
X14442789Y-50341203D02*
X14371360Y-50269774D01*
X14371360Y-50269774D02*
X14228503Y-50198346D01*
X14228503Y-50198346D02*
X14014217Y-50198346D01*
X14014217Y-50198346D02*
X13871360Y-50269774D01*
X13871360Y-50269774D02*
X13799932Y-50341203D01*
X13799932Y-50341203D02*
X13728503Y-50484060D01*
X13728503Y-50484060D02*
X13728503Y-51055489D01*
X13728503Y-51055489D02*
X15228503Y-51055489D01*
X15228503Y-51055489D02*
X15228503Y-50555489D01*
X15228503Y-50555489D02*
X15157074Y-50412632D01*
X15157074Y-50412632D02*
X15085646Y-50341203D01*
X15085646Y-50341203D02*
X14942789Y-50269774D01*
X14942789Y-50269774D02*
X14799932Y-50269774D01*
X14799932Y-50269774D02*
X14657074Y-50341203D01*
X14657074Y-50341203D02*
X14585646Y-50412632D01*
X14585646Y-50412632D02*
X14514217Y-50555489D01*
X14514217Y-50555489D02*
X14514217Y-51055489D01*
X15228503Y-49555489D02*
X14014217Y-49555489D01*
X14014217Y-49555489D02*
X13871360Y-49484060D01*
X13871360Y-49484060D02*
X13799932Y-49412632D01*
X13799932Y-49412632D02*
X13728503Y-49269774D01*
X13728503Y-49269774D02*
X13728503Y-48984060D01*
X13728503Y-48984060D02*
X13799932Y-48841203D01*
X13799932Y-48841203D02*
X13871360Y-48769774D01*
X13871360Y-48769774D02*
X14014217Y-48698346D01*
X14014217Y-48698346D02*
X15228503Y-48698346D01*
X13799932Y-48055488D02*
X13728503Y-47841203D01*
X13728503Y-47841203D02*
X13728503Y-47484060D01*
X13728503Y-47484060D02*
X13799932Y-47341203D01*
X13799932Y-47341203D02*
X13871360Y-47269774D01*
X13871360Y-47269774D02*
X14014217Y-47198345D01*
X14014217Y-47198345D02*
X14157074Y-47198345D01*
X14157074Y-47198345D02*
X14299932Y-47269774D01*
X14299932Y-47269774D02*
X14371360Y-47341203D01*
X14371360Y-47341203D02*
X14442789Y-47484060D01*
X14442789Y-47484060D02*
X14514217Y-47769774D01*
X14514217Y-47769774D02*
X14585646Y-47912631D01*
X14585646Y-47912631D02*
X14657074Y-47984060D01*
X14657074Y-47984060D02*
X14799932Y-48055488D01*
X14799932Y-48055488D02*
X14942789Y-48055488D01*
X14942789Y-48055488D02*
X15085646Y-47984060D01*
X15085646Y-47984060D02*
X15157074Y-47912631D01*
X15157074Y-47912631D02*
X15228503Y-47769774D01*
X15228503Y-47769774D02*
X15228503Y-47412631D01*
X15228503Y-47412631D02*
X15157074Y-47198345D01*
X14585646Y-45198346D02*
X14657074Y-45341203D01*
X14657074Y-45341203D02*
X14728503Y-45412632D01*
X14728503Y-45412632D02*
X14871360Y-45484060D01*
X14871360Y-45484060D02*
X14942789Y-45484060D01*
X14942789Y-45484060D02*
X15085646Y-45412632D01*
X15085646Y-45412632D02*
X15157074Y-45341203D01*
X15157074Y-45341203D02*
X15228503Y-45198346D01*
X15228503Y-45198346D02*
X15228503Y-44912632D01*
X15228503Y-44912632D02*
X15157074Y-44769775D01*
X15157074Y-44769775D02*
X15085646Y-44698346D01*
X15085646Y-44698346D02*
X14942789Y-44626917D01*
X14942789Y-44626917D02*
X14871360Y-44626917D01*
X14871360Y-44626917D02*
X14728503Y-44698346D01*
X14728503Y-44698346D02*
X14657074Y-44769775D01*
X14657074Y-44769775D02*
X14585646Y-44912632D01*
X14585646Y-44912632D02*
X14585646Y-45198346D01*
X14585646Y-45198346D02*
X14514217Y-45341203D01*
X14514217Y-45341203D02*
X14442789Y-45412632D01*
X14442789Y-45412632D02*
X14299932Y-45484060D01*
X14299932Y-45484060D02*
X14014217Y-45484060D01*
X14014217Y-45484060D02*
X13871360Y-45412632D01*
X13871360Y-45412632D02*
X13799932Y-45341203D01*
X13799932Y-45341203D02*
X13728503Y-45198346D01*
X13728503Y-45198346D02*
X13728503Y-44912632D01*
X13728503Y-44912632D02*
X13799932Y-44769775D01*
X13799932Y-44769775D02*
X13871360Y-44698346D01*
X13871360Y-44698346D02*
X14014217Y-44626917D01*
X14014217Y-44626917D02*
X14299932Y-44626917D01*
X14299932Y-44626917D02*
X14442789Y-44698346D01*
X14442789Y-44698346D02*
X14514217Y-44769775D01*
X14514217Y-44769775D02*
X14585646Y-44912632D01*
X15228503Y-43698346D02*
X15228503Y-43555489D01*
X15228503Y-43555489D02*
X15157074Y-43412632D01*
X15157074Y-43412632D02*
X15085646Y-43341204D01*
X15085646Y-43341204D02*
X14942789Y-43269775D01*
X14942789Y-43269775D02*
X14657074Y-43198346D01*
X14657074Y-43198346D02*
X14299932Y-43198346D01*
X14299932Y-43198346D02*
X14014217Y-43269775D01*
X14014217Y-43269775D02*
X13871360Y-43341204D01*
X13871360Y-43341204D02*
X13799932Y-43412632D01*
X13799932Y-43412632D02*
X13728503Y-43555489D01*
X13728503Y-43555489D02*
X13728503Y-43698346D01*
X13728503Y-43698346D02*
X13799932Y-43841204D01*
X13799932Y-43841204D02*
X13871360Y-43912632D01*
X13871360Y-43912632D02*
X14014217Y-43984061D01*
X14014217Y-43984061D02*
X14299932Y-44055489D01*
X14299932Y-44055489D02*
X14657074Y-44055489D01*
X14657074Y-44055489D02*
X14942789Y-43984061D01*
X14942789Y-43984061D02*
X15085646Y-43912632D01*
X15085646Y-43912632D02*
X15157074Y-43841204D01*
X15157074Y-43841204D02*
X15228503Y-43698346D01*
X14299932Y-42555490D02*
X14299932Y-41412633D01*
X13728503Y-40698347D02*
X15228503Y-40698347D01*
X15228503Y-40698347D02*
X15228503Y-40126918D01*
X15228503Y-40126918D02*
X15157074Y-39984061D01*
X15157074Y-39984061D02*
X15085646Y-39912632D01*
X15085646Y-39912632D02*
X14942789Y-39841204D01*
X14942789Y-39841204D02*
X14728503Y-39841204D01*
X14728503Y-39841204D02*
X14585646Y-39912632D01*
X14585646Y-39912632D02*
X14514217Y-39984061D01*
X14514217Y-39984061D02*
X14442789Y-40126918D01*
X14442789Y-40126918D02*
X14442789Y-40698347D01*
X13728503Y-39198347D02*
X15228503Y-39198347D01*
X13728503Y-38484061D02*
X15228503Y-38484061D01*
X15228503Y-38484061D02*
X13728503Y-37626918D01*
X13728503Y-37626918D02*
X15228503Y-37626918D01*
X11385016Y-54126917D02*
X11313587Y-53912632D01*
X11313587Y-53912632D02*
X11313587Y-53555489D01*
X11313587Y-53555489D02*
X11385016Y-53412632D01*
X11385016Y-53412632D02*
X11456444Y-53341203D01*
X11456444Y-53341203D02*
X11599301Y-53269774D01*
X11599301Y-53269774D02*
X11742158Y-53269774D01*
X11742158Y-53269774D02*
X11885016Y-53341203D01*
X11885016Y-53341203D02*
X11956444Y-53412632D01*
X11956444Y-53412632D02*
X12027873Y-53555489D01*
X12027873Y-53555489D02*
X12099301Y-53841203D01*
X12099301Y-53841203D02*
X12170730Y-53984060D01*
X12170730Y-53984060D02*
X12242158Y-54055489D01*
X12242158Y-54055489D02*
X12385016Y-54126917D01*
X12385016Y-54126917D02*
X12527873Y-54126917D01*
X12527873Y-54126917D02*
X12670730Y-54055489D01*
X12670730Y-54055489D02*
X12742158Y-53984060D01*
X12742158Y-53984060D02*
X12813587Y-53841203D01*
X12813587Y-53841203D02*
X12813587Y-53484060D01*
X12813587Y-53484060D02*
X12742158Y-53269774D01*
X11313587Y-51912632D02*
X11313587Y-52626918D01*
X11313587Y-52626918D02*
X12813587Y-52626918D01*
X12813587Y-51126917D02*
X12813587Y-50841203D01*
X12813587Y-50841203D02*
X12742158Y-50698346D01*
X12742158Y-50698346D02*
X12599301Y-50555489D01*
X12599301Y-50555489D02*
X12313587Y-50484060D01*
X12313587Y-50484060D02*
X11813587Y-50484060D01*
X11813587Y-50484060D02*
X11527873Y-50555489D01*
X11527873Y-50555489D02*
X11385016Y-50698346D01*
X11385016Y-50698346D02*
X11313587Y-50841203D01*
X11313587Y-50841203D02*
X11313587Y-51126917D01*
X11313587Y-51126917D02*
X11385016Y-51269775D01*
X11385016Y-51269775D02*
X11527873Y-51412632D01*
X11527873Y-51412632D02*
X11813587Y-51484060D01*
X11813587Y-51484060D02*
X12313587Y-51484060D01*
X12313587Y-51484060D02*
X12599301Y-51412632D01*
X12599301Y-51412632D02*
X12742158Y-51269775D01*
X12742158Y-51269775D02*
X12813587Y-51126917D01*
X12813587Y-50055488D02*
X12813587Y-49198346D01*
X11313587Y-49626917D02*
X12813587Y-49626917D01*
X11313587Y-47555489D02*
X12813587Y-47555489D01*
X12813587Y-47555489D02*
X12813587Y-46984060D01*
X12813587Y-46984060D02*
X12742158Y-46841203D01*
X12742158Y-46841203D02*
X12670730Y-46769774D01*
X12670730Y-46769774D02*
X12527873Y-46698346D01*
X12527873Y-46698346D02*
X12313587Y-46698346D01*
X12313587Y-46698346D02*
X12170730Y-46769774D01*
X12170730Y-46769774D02*
X12099301Y-46841203D01*
X12099301Y-46841203D02*
X12027873Y-46984060D01*
X12027873Y-46984060D02*
X12027873Y-47555489D01*
X11313587Y-45341203D02*
X11313587Y-46055489D01*
X11313587Y-46055489D02*
X12813587Y-46055489D01*
X12813587Y-44841203D02*
X11599301Y-44841203D01*
X11599301Y-44841203D02*
X11456444Y-44769774D01*
X11456444Y-44769774D02*
X11385016Y-44698346D01*
X11385016Y-44698346D02*
X11313587Y-44555488D01*
X11313587Y-44555488D02*
X11313587Y-44269774D01*
X11313587Y-44269774D02*
X11385016Y-44126917D01*
X11385016Y-44126917D02*
X11456444Y-44055488D01*
X11456444Y-44055488D02*
X11599301Y-43984060D01*
X11599301Y-43984060D02*
X12813587Y-43984060D01*
X12742158Y-42484059D02*
X12813587Y-42626917D01*
X12813587Y-42626917D02*
X12813587Y-42841202D01*
X12813587Y-42841202D02*
X12742158Y-43055488D01*
X12742158Y-43055488D02*
X12599301Y-43198345D01*
X12599301Y-43198345D02*
X12456444Y-43269774D01*
X12456444Y-43269774D02*
X12170730Y-43341202D01*
X12170730Y-43341202D02*
X11956444Y-43341202D01*
X11956444Y-43341202D02*
X11670730Y-43269774D01*
X11670730Y-43269774D02*
X11527873Y-43198345D01*
X11527873Y-43198345D02*
X11385016Y-43055488D01*
X11385016Y-43055488D02*
X11313587Y-42841202D01*
X11313587Y-42841202D02*
X11313587Y-42698345D01*
X11313587Y-42698345D02*
X11385016Y-42484059D01*
X11385016Y-42484059D02*
X11456444Y-42412631D01*
X11456444Y-42412631D02*
X11956444Y-42412631D01*
X11956444Y-42412631D02*
X11956444Y-42698345D01*
X10398671Y-54269774D02*
X10398671Y-53412632D01*
X8898671Y-53841203D02*
X10398671Y-53841203D01*
X8898671Y-52912632D02*
X10398671Y-52912632D01*
X9684385Y-52912632D02*
X9684385Y-52055489D01*
X8898671Y-52055489D02*
X10398671Y-52055489D01*
X8898671Y-51341203D02*
X10398671Y-51341203D01*
X8970100Y-50698345D02*
X8898671Y-50484060D01*
X8898671Y-50484060D02*
X8898671Y-50126917D01*
X8898671Y-50126917D02*
X8970100Y-49984060D01*
X8970100Y-49984060D02*
X9041528Y-49912631D01*
X9041528Y-49912631D02*
X9184385Y-49841202D01*
X9184385Y-49841202D02*
X9327242Y-49841202D01*
X9327242Y-49841202D02*
X9470100Y-49912631D01*
X9470100Y-49912631D02*
X9541528Y-49984060D01*
X9541528Y-49984060D02*
X9612957Y-50126917D01*
X9612957Y-50126917D02*
X9684385Y-50412631D01*
X9684385Y-50412631D02*
X9755814Y-50555488D01*
X9755814Y-50555488D02*
X9827242Y-50626917D01*
X9827242Y-50626917D02*
X9970100Y-50698345D01*
X9970100Y-50698345D02*
X10112957Y-50698345D01*
X10112957Y-50698345D02*
X10255814Y-50626917D01*
X10255814Y-50626917D02*
X10327242Y-50555488D01*
X10327242Y-50555488D02*
X10398671Y-50412631D01*
X10398671Y-50412631D02*
X10398671Y-50055488D01*
X10398671Y-50055488D02*
X10327242Y-49841202D01*
X8970100Y-48126917D02*
X8898671Y-47912632D01*
X8898671Y-47912632D02*
X8898671Y-47555489D01*
X8898671Y-47555489D02*
X8970100Y-47412632D01*
X8970100Y-47412632D02*
X9041528Y-47341203D01*
X9041528Y-47341203D02*
X9184385Y-47269774D01*
X9184385Y-47269774D02*
X9327242Y-47269774D01*
X9327242Y-47269774D02*
X9470100Y-47341203D01*
X9470100Y-47341203D02*
X9541528Y-47412632D01*
X9541528Y-47412632D02*
X9612957Y-47555489D01*
X9612957Y-47555489D02*
X9684385Y-47841203D01*
X9684385Y-47841203D02*
X9755814Y-47984060D01*
X9755814Y-47984060D02*
X9827242Y-48055489D01*
X9827242Y-48055489D02*
X9970100Y-48126917D01*
X9970100Y-48126917D02*
X10112957Y-48126917D01*
X10112957Y-48126917D02*
X10255814Y-48055489D01*
X10255814Y-48055489D02*
X10327242Y-47984060D01*
X10327242Y-47984060D02*
X10398671Y-47841203D01*
X10398671Y-47841203D02*
X10398671Y-47484060D01*
X10398671Y-47484060D02*
X10327242Y-47269774D01*
X8898671Y-46626918D02*
X10398671Y-46626918D01*
X8898671Y-45912632D02*
X10398671Y-45912632D01*
X10398671Y-45912632D02*
X10398671Y-45555489D01*
X10398671Y-45555489D02*
X10327242Y-45341203D01*
X10327242Y-45341203D02*
X10184385Y-45198346D01*
X10184385Y-45198346D02*
X10041528Y-45126917D01*
X10041528Y-45126917D02*
X9755814Y-45055489D01*
X9755814Y-45055489D02*
X9541528Y-45055489D01*
X9541528Y-45055489D02*
X9255814Y-45126917D01*
X9255814Y-45126917D02*
X9112957Y-45198346D01*
X9112957Y-45198346D02*
X8970100Y-45341203D01*
X8970100Y-45341203D02*
X8898671Y-45555489D01*
X8898671Y-45555489D02*
X8898671Y-45912632D01*
X9684385Y-44412632D02*
X9684385Y-43912632D01*
X8898671Y-43698346D02*
X8898671Y-44412632D01*
X8898671Y-44412632D02*
X10398671Y-44412632D01*
X10398671Y-44412632D02*
X10398671Y-43698346D01*
D13*
X13891078Y-89338214D02*
X14616792Y-89803880D01*
X13891078Y-90136499D02*
X15415078Y-90136499D01*
X15415078Y-90136499D02*
X15415078Y-89604309D01*
X15415078Y-89604309D02*
X15342507Y-89471261D01*
X15342507Y-89471261D02*
X15269935Y-89404738D01*
X15269935Y-89404738D02*
X15124792Y-89338214D01*
X15124792Y-89338214D02*
X14907078Y-89338214D01*
X14907078Y-89338214D02*
X14761935Y-89404738D01*
X14761935Y-89404738D02*
X14689364Y-89471261D01*
X14689364Y-89471261D02*
X14616792Y-89604309D01*
X14616792Y-89604309D02*
X14616792Y-90136499D01*
X13963650Y-88207309D02*
X13891078Y-88340357D01*
X13891078Y-88340357D02*
X13891078Y-88606452D01*
X13891078Y-88606452D02*
X13963650Y-88739499D01*
X13963650Y-88739499D02*
X14108792Y-88806023D01*
X14108792Y-88806023D02*
X14689364Y-88806023D01*
X14689364Y-88806023D02*
X14834507Y-88739499D01*
X14834507Y-88739499D02*
X14907078Y-88606452D01*
X14907078Y-88606452D02*
X14907078Y-88340357D01*
X14907078Y-88340357D02*
X14834507Y-88207309D01*
X14834507Y-88207309D02*
X14689364Y-88140785D01*
X14689364Y-88140785D02*
X14544221Y-88140785D01*
X14544221Y-88140785D02*
X14399078Y-88806023D01*
X14907078Y-87675118D02*
X13891078Y-87342499D01*
X13891078Y-87342499D02*
X14907078Y-87009880D01*
X15415078Y-85147213D02*
X15415078Y-85014166D01*
X15415078Y-85014166D02*
X15342507Y-84881118D01*
X15342507Y-84881118D02*
X15269935Y-84814594D01*
X15269935Y-84814594D02*
X15124792Y-84748070D01*
X15124792Y-84748070D02*
X14834507Y-84681547D01*
X14834507Y-84681547D02*
X14471650Y-84681547D01*
X14471650Y-84681547D02*
X14181364Y-84748070D01*
X14181364Y-84748070D02*
X14036221Y-84814594D01*
X14036221Y-84814594D02*
X13963650Y-84881118D01*
X13963650Y-84881118D02*
X13891078Y-85014166D01*
X13891078Y-85014166D02*
X13891078Y-85147213D01*
X13891078Y-85147213D02*
X13963650Y-85280261D01*
X13963650Y-85280261D02*
X14036221Y-85346785D01*
X14036221Y-85346785D02*
X14181364Y-85413308D01*
X14181364Y-85413308D02*
X14471650Y-85479832D01*
X14471650Y-85479832D02*
X14834507Y-85479832D01*
X14834507Y-85479832D02*
X15124792Y-85413308D01*
X15124792Y-85413308D02*
X15269935Y-85346785D01*
X15269935Y-85346785D02*
X15342507Y-85280261D01*
X15342507Y-85280261D02*
X15415078Y-85147213D01*
X10137078Y-102418714D02*
X10862792Y-102884380D01*
X10137078Y-103216999D02*
X11661078Y-103216999D01*
X11661078Y-103216999D02*
X11661078Y-102684809D01*
X11661078Y-102684809D02*
X11588507Y-102551761D01*
X11588507Y-102551761D02*
X11515935Y-102485238D01*
X11515935Y-102485238D02*
X11370792Y-102418714D01*
X11370792Y-102418714D02*
X11153078Y-102418714D01*
X11153078Y-102418714D02*
X11007935Y-102485238D01*
X11007935Y-102485238D02*
X10935364Y-102551761D01*
X10935364Y-102551761D02*
X10862792Y-102684809D01*
X10862792Y-102684809D02*
X10862792Y-103216999D01*
X10282221Y-101021714D02*
X10209650Y-101088238D01*
X10209650Y-101088238D02*
X10137078Y-101287809D01*
X10137078Y-101287809D02*
X10137078Y-101420857D01*
X10137078Y-101420857D02*
X10209650Y-101620428D01*
X10209650Y-101620428D02*
X10354792Y-101753476D01*
X10354792Y-101753476D02*
X10499935Y-101819999D01*
X10499935Y-101819999D02*
X10790221Y-101886523D01*
X10790221Y-101886523D02*
X11007935Y-101886523D01*
X11007935Y-101886523D02*
X11298221Y-101819999D01*
X11298221Y-101819999D02*
X11443364Y-101753476D01*
X11443364Y-101753476D02*
X11588507Y-101620428D01*
X11588507Y-101620428D02*
X11661078Y-101420857D01*
X11661078Y-101420857D02*
X11661078Y-101287809D01*
X11661078Y-101287809D02*
X11588507Y-101088238D01*
X11588507Y-101088238D02*
X11515935Y-101021714D01*
X10935364Y-99957333D02*
X10862792Y-99757761D01*
X10862792Y-99757761D02*
X10790221Y-99691238D01*
X10790221Y-99691238D02*
X10645078Y-99624714D01*
X10645078Y-99624714D02*
X10427364Y-99624714D01*
X10427364Y-99624714D02*
X10282221Y-99691238D01*
X10282221Y-99691238D02*
X10209650Y-99757761D01*
X10209650Y-99757761D02*
X10137078Y-99890809D01*
X10137078Y-99890809D02*
X10137078Y-100422999D01*
X10137078Y-100422999D02*
X11661078Y-100422999D01*
X11661078Y-100422999D02*
X11661078Y-99957333D01*
X11661078Y-99957333D02*
X11588507Y-99824285D01*
X11588507Y-99824285D02*
X11515935Y-99757761D01*
X11515935Y-99757761D02*
X11370792Y-99691238D01*
X11370792Y-99691238D02*
X11225650Y-99691238D01*
X11225650Y-99691238D02*
X11080507Y-99757761D01*
X11080507Y-99757761D02*
X11007935Y-99824285D01*
X11007935Y-99824285D02*
X10935364Y-99957333D01*
X10935364Y-99957333D02*
X10935364Y-100422999D01*
X11661078Y-99025999D02*
X10427364Y-99025999D01*
X10427364Y-99025999D02*
X10282221Y-98959476D01*
X10282221Y-98959476D02*
X10209650Y-98892952D01*
X10209650Y-98892952D02*
X10137078Y-98759904D01*
X10137078Y-98759904D02*
X10137078Y-98493809D01*
X10137078Y-98493809D02*
X10209650Y-98360761D01*
X10209650Y-98360761D02*
X10282221Y-98294238D01*
X10282221Y-98294238D02*
X10427364Y-98227714D01*
X10427364Y-98227714D02*
X11661078Y-98227714D01*
X10209650Y-97628999D02*
X10137078Y-97429428D01*
X10137078Y-97429428D02*
X10137078Y-97096809D01*
X10137078Y-97096809D02*
X10209650Y-96963761D01*
X10209650Y-96963761D02*
X10282221Y-96897237D01*
X10282221Y-96897237D02*
X10427364Y-96830714D01*
X10427364Y-96830714D02*
X10572507Y-96830714D01*
X10572507Y-96830714D02*
X10717650Y-96897237D01*
X10717650Y-96897237D02*
X10790221Y-96963761D01*
X10790221Y-96963761D02*
X10862792Y-97096809D01*
X10862792Y-97096809D02*
X10935364Y-97362904D01*
X10935364Y-97362904D02*
X11007935Y-97495952D01*
X11007935Y-97495952D02*
X11080507Y-97562475D01*
X11080507Y-97562475D02*
X11225650Y-97628999D01*
X11225650Y-97628999D02*
X11370792Y-97628999D01*
X11370792Y-97628999D02*
X11515935Y-97562475D01*
X11515935Y-97562475D02*
X11588507Y-97495952D01*
X11588507Y-97495952D02*
X11661078Y-97362904D01*
X11661078Y-97362904D02*
X11661078Y-97030285D01*
X11661078Y-97030285D02*
X11588507Y-96830714D01*
X10572507Y-95234142D02*
X10572507Y-94568904D01*
X10137078Y-95367190D02*
X11661078Y-94901523D01*
X11661078Y-94901523D02*
X10137078Y-94435857D01*
X10137078Y-93371475D02*
X11661078Y-93371475D01*
X10209650Y-93371475D02*
X10137078Y-93504523D01*
X10137078Y-93504523D02*
X10137078Y-93770618D01*
X10137078Y-93770618D02*
X10209650Y-93903666D01*
X10209650Y-93903666D02*
X10282221Y-93970189D01*
X10282221Y-93970189D02*
X10427364Y-94036713D01*
X10427364Y-94036713D02*
X10862792Y-94036713D01*
X10862792Y-94036713D02*
X11007935Y-93970189D01*
X11007935Y-93970189D02*
X11080507Y-93903666D01*
X11080507Y-93903666D02*
X11153078Y-93770618D01*
X11153078Y-93770618D02*
X11153078Y-93504523D01*
X11153078Y-93504523D02*
X11080507Y-93371475D01*
X10137078Y-92107523D02*
X10935364Y-92107523D01*
X10935364Y-92107523D02*
X11080507Y-92174047D01*
X11080507Y-92174047D02*
X11153078Y-92307095D01*
X11153078Y-92307095D02*
X11153078Y-92573190D01*
X11153078Y-92573190D02*
X11080507Y-92706237D01*
X10209650Y-92107523D02*
X10137078Y-92240571D01*
X10137078Y-92240571D02*
X10137078Y-92573190D01*
X10137078Y-92573190D02*
X10209650Y-92706237D01*
X10209650Y-92706237D02*
X10354792Y-92772761D01*
X10354792Y-92772761D02*
X10499935Y-92772761D01*
X10499935Y-92772761D02*
X10645078Y-92706237D01*
X10645078Y-92706237D02*
X10717650Y-92573190D01*
X10717650Y-92573190D02*
X10717650Y-92240571D01*
X10717650Y-92240571D02*
X10790221Y-92107523D01*
X11153078Y-91442285D02*
X9629078Y-91442285D01*
X11080507Y-91442285D02*
X11153078Y-91309238D01*
X11153078Y-91309238D02*
X11153078Y-91043143D01*
X11153078Y-91043143D02*
X11080507Y-90910095D01*
X11080507Y-90910095D02*
X11007935Y-90843571D01*
X11007935Y-90843571D02*
X10862792Y-90777047D01*
X10862792Y-90777047D02*
X10427364Y-90777047D01*
X10427364Y-90777047D02*
X10282221Y-90843571D01*
X10282221Y-90843571D02*
X10209650Y-90910095D01*
X10209650Y-90910095D02*
X10137078Y-91043143D01*
X10137078Y-91043143D02*
X10137078Y-91309238D01*
X10137078Y-91309238D02*
X10209650Y-91442285D01*
X11153078Y-90377905D02*
X11153078Y-89845714D01*
X11661078Y-90178333D02*
X10354792Y-90178333D01*
X10354792Y-90178333D02*
X10209650Y-90111810D01*
X10209650Y-90111810D02*
X10137078Y-89978762D01*
X10137078Y-89978762D02*
X10137078Y-89845714D01*
X10209650Y-88847857D02*
X10137078Y-88980905D01*
X10137078Y-88980905D02*
X10137078Y-89247000D01*
X10137078Y-89247000D02*
X10209650Y-89380047D01*
X10209650Y-89380047D02*
X10354792Y-89446571D01*
X10354792Y-89446571D02*
X10935364Y-89446571D01*
X10935364Y-89446571D02*
X11080507Y-89380047D01*
X11080507Y-89380047D02*
X11153078Y-89247000D01*
X11153078Y-89247000D02*
X11153078Y-88980905D01*
X11153078Y-88980905D02*
X11080507Y-88847857D01*
X11080507Y-88847857D02*
X10935364Y-88781333D01*
X10935364Y-88781333D02*
X10790221Y-88781333D01*
X10790221Y-88781333D02*
X10645078Y-89446571D01*
X10137078Y-88182618D02*
X11153078Y-88182618D01*
X10862792Y-88182618D02*
X11007935Y-88116095D01*
X11007935Y-88116095D02*
X11080507Y-88049571D01*
X11080507Y-88049571D02*
X11153078Y-87916523D01*
X11153078Y-87916523D02*
X11153078Y-87783476D01*
X11153078Y-86452999D02*
X11153078Y-85920808D01*
X11661078Y-86253427D02*
X10354792Y-86253427D01*
X10354792Y-86253427D02*
X10209650Y-86186904D01*
X10209650Y-86186904D02*
X10137078Y-86053856D01*
X10137078Y-86053856D02*
X10137078Y-85920808D01*
X10137078Y-85255570D02*
X10209650Y-85388618D01*
X10209650Y-85388618D02*
X10282221Y-85455141D01*
X10282221Y-85455141D02*
X10427364Y-85521665D01*
X10427364Y-85521665D02*
X10862792Y-85521665D01*
X10862792Y-85521665D02*
X11007935Y-85455141D01*
X11007935Y-85455141D02*
X11080507Y-85388618D01*
X11080507Y-85388618D02*
X11153078Y-85255570D01*
X11153078Y-85255570D02*
X11153078Y-85055999D01*
X11153078Y-85055999D02*
X11080507Y-84922951D01*
X11080507Y-84922951D02*
X11007935Y-84856427D01*
X11007935Y-84856427D02*
X10862792Y-84789903D01*
X10862792Y-84789903D02*
X10427364Y-84789903D01*
X10427364Y-84789903D02*
X10282221Y-84856427D01*
X10282221Y-84856427D02*
X10209650Y-84922951D01*
X10209650Y-84922951D02*
X10137078Y-85055999D01*
X10137078Y-85055999D02*
X10137078Y-85255570D01*
X10137078Y-83126808D02*
X11661078Y-83126808D01*
X11661078Y-83126808D02*
X10137078Y-82328523D01*
X10137078Y-82328523D02*
X11661078Y-82328523D01*
X10137078Y-81463713D02*
X10209650Y-81596761D01*
X10209650Y-81596761D02*
X10282221Y-81663284D01*
X10282221Y-81663284D02*
X10427364Y-81729808D01*
X10427364Y-81729808D02*
X10862792Y-81729808D01*
X10862792Y-81729808D02*
X11007935Y-81663284D01*
X11007935Y-81663284D02*
X11080507Y-81596761D01*
X11080507Y-81596761D02*
X11153078Y-81463713D01*
X11153078Y-81463713D02*
X11153078Y-81264142D01*
X11153078Y-81264142D02*
X11080507Y-81131094D01*
X11080507Y-81131094D02*
X11007935Y-81064570D01*
X11007935Y-81064570D02*
X10862792Y-80998046D01*
X10862792Y-80998046D02*
X10427364Y-80998046D01*
X10427364Y-80998046D02*
X10282221Y-81064570D01*
X10282221Y-81064570D02*
X10209650Y-81131094D01*
X10209650Y-81131094D02*
X10137078Y-81264142D01*
X10137078Y-81264142D02*
X10137078Y-81463713D01*
X11153078Y-79800618D02*
X10137078Y-79800618D01*
X11153078Y-80399332D02*
X10354792Y-80399332D01*
X10354792Y-80399332D02*
X10209650Y-80332809D01*
X10209650Y-80332809D02*
X10137078Y-80199761D01*
X10137078Y-80199761D02*
X10137078Y-80000190D01*
X10137078Y-80000190D02*
X10209650Y-79867142D01*
X10209650Y-79867142D02*
X10282221Y-79800618D01*
X11153078Y-79268428D02*
X10137078Y-78935809D01*
X10137078Y-78935809D02*
X11153078Y-78603190D01*
X10209650Y-77538809D02*
X10137078Y-77671857D01*
X10137078Y-77671857D02*
X10137078Y-77937952D01*
X10137078Y-77937952D02*
X10209650Y-78070999D01*
X10209650Y-78070999D02*
X10354792Y-78137523D01*
X10354792Y-78137523D02*
X10935364Y-78137523D01*
X10935364Y-78137523D02*
X11080507Y-78070999D01*
X11080507Y-78070999D02*
X11153078Y-77937952D01*
X11153078Y-77937952D02*
X11153078Y-77671857D01*
X11153078Y-77671857D02*
X11080507Y-77538809D01*
X11080507Y-77538809D02*
X10935364Y-77472285D01*
X10935364Y-77472285D02*
X10790221Y-77472285D01*
X10790221Y-77472285D02*
X10645078Y-78137523D01*
X10137078Y-76274856D02*
X10935364Y-76274856D01*
X10935364Y-76274856D02*
X11080507Y-76341380D01*
X11080507Y-76341380D02*
X11153078Y-76474428D01*
X11153078Y-76474428D02*
X11153078Y-76740523D01*
X11153078Y-76740523D02*
X11080507Y-76873570D01*
X10209650Y-76274856D02*
X10137078Y-76407904D01*
X10137078Y-76407904D02*
X10137078Y-76740523D01*
X10137078Y-76740523D02*
X10209650Y-76873570D01*
X10209650Y-76873570D02*
X10354792Y-76940094D01*
X10354792Y-76940094D02*
X10499935Y-76940094D01*
X10499935Y-76940094D02*
X10645078Y-76873570D01*
X10645078Y-76873570D02*
X10717650Y-76740523D01*
X10717650Y-76740523D02*
X10717650Y-76407904D01*
X10717650Y-76407904D02*
X10790221Y-76274856D01*
X11153078Y-75010904D02*
X10137078Y-75010904D01*
X11153078Y-75609618D02*
X10354792Y-75609618D01*
X10354792Y-75609618D02*
X10209650Y-75543095D01*
X10209650Y-75543095D02*
X10137078Y-75410047D01*
X10137078Y-75410047D02*
X10137078Y-75210476D01*
X10137078Y-75210476D02*
X10209650Y-75077428D01*
X10209650Y-75077428D02*
X10282221Y-75010904D01*
X10137078Y-73281285D02*
X11661078Y-73281285D01*
X11661078Y-73281285D02*
X11661078Y-72948666D01*
X11661078Y-72948666D02*
X11588507Y-72749095D01*
X11588507Y-72749095D02*
X11443364Y-72616047D01*
X11443364Y-72616047D02*
X11298221Y-72549524D01*
X11298221Y-72549524D02*
X11007935Y-72483000D01*
X11007935Y-72483000D02*
X10790221Y-72483000D01*
X10790221Y-72483000D02*
X10499935Y-72549524D01*
X10499935Y-72549524D02*
X10354792Y-72616047D01*
X10354792Y-72616047D02*
X10209650Y-72749095D01*
X10209650Y-72749095D02*
X10137078Y-72948666D01*
X10137078Y-72948666D02*
X10137078Y-73281285D01*
X10209650Y-71352095D02*
X10137078Y-71485143D01*
X10137078Y-71485143D02*
X10137078Y-71751238D01*
X10137078Y-71751238D02*
X10209650Y-71884285D01*
X10209650Y-71884285D02*
X10354792Y-71950809D01*
X10354792Y-71950809D02*
X10935364Y-71950809D01*
X10935364Y-71950809D02*
X11080507Y-71884285D01*
X11080507Y-71884285D02*
X11153078Y-71751238D01*
X11153078Y-71751238D02*
X11153078Y-71485143D01*
X11153078Y-71485143D02*
X11080507Y-71352095D01*
X11080507Y-71352095D02*
X10935364Y-71285571D01*
X10935364Y-71285571D02*
X10790221Y-71285571D01*
X10790221Y-71285571D02*
X10645078Y-71950809D01*
X10209650Y-70753380D02*
X10137078Y-70620333D01*
X10137078Y-70620333D02*
X10137078Y-70354237D01*
X10137078Y-70354237D02*
X10209650Y-70221190D01*
X10209650Y-70221190D02*
X10354792Y-70154666D01*
X10354792Y-70154666D02*
X10427364Y-70154666D01*
X10427364Y-70154666D02*
X10572507Y-70221190D01*
X10572507Y-70221190D02*
X10645078Y-70354237D01*
X10645078Y-70354237D02*
X10645078Y-70553809D01*
X10645078Y-70553809D02*
X10717650Y-70686856D01*
X10717650Y-70686856D02*
X10862792Y-70753380D01*
X10862792Y-70753380D02*
X10935364Y-70753380D01*
X10935364Y-70753380D02*
X11080507Y-70686856D01*
X11080507Y-70686856D02*
X11153078Y-70553809D01*
X11153078Y-70553809D02*
X11153078Y-70354237D01*
X11153078Y-70354237D02*
X11080507Y-70221190D01*
X10137078Y-69555951D02*
X11153078Y-69555951D01*
X11661078Y-69555951D02*
X11588507Y-69622475D01*
X11588507Y-69622475D02*
X11515935Y-69555951D01*
X11515935Y-69555951D02*
X11588507Y-69489428D01*
X11588507Y-69489428D02*
X11661078Y-69555951D01*
X11661078Y-69555951D02*
X11515935Y-69555951D01*
X11153078Y-68291999D02*
X9919364Y-68291999D01*
X9919364Y-68291999D02*
X9774221Y-68358523D01*
X9774221Y-68358523D02*
X9701650Y-68425047D01*
X9701650Y-68425047D02*
X9629078Y-68558094D01*
X9629078Y-68558094D02*
X9629078Y-68757666D01*
X9629078Y-68757666D02*
X9701650Y-68890713D01*
X10209650Y-68291999D02*
X10137078Y-68425047D01*
X10137078Y-68425047D02*
X10137078Y-68691142D01*
X10137078Y-68691142D02*
X10209650Y-68824190D01*
X10209650Y-68824190D02*
X10282221Y-68890713D01*
X10282221Y-68890713D02*
X10427364Y-68957237D01*
X10427364Y-68957237D02*
X10862792Y-68957237D01*
X10862792Y-68957237D02*
X11007935Y-68890713D01*
X11007935Y-68890713D02*
X11080507Y-68824190D01*
X11080507Y-68824190D02*
X11153078Y-68691142D01*
X11153078Y-68691142D02*
X11153078Y-68425047D01*
X11153078Y-68425047D02*
X11080507Y-68291999D01*
X11153078Y-67626761D02*
X10137078Y-67626761D01*
X11007935Y-67626761D02*
X11080507Y-67560238D01*
X11080507Y-67560238D02*
X11153078Y-67427190D01*
X11153078Y-67427190D02*
X11153078Y-67227619D01*
X11153078Y-67227619D02*
X11080507Y-67094571D01*
X11080507Y-67094571D02*
X10935364Y-67028047D01*
X10935364Y-67028047D02*
X10137078Y-67028047D01*
X10282221Y-66362809D02*
X10209650Y-66296286D01*
X10209650Y-66296286D02*
X10137078Y-66362809D01*
X10137078Y-66362809D02*
X10209650Y-66429333D01*
X10209650Y-66429333D02*
X10282221Y-66362809D01*
X10282221Y-66362809D02*
X10137078Y-66362809D01*
X10862792Y-64367095D02*
X10137078Y-64367095D01*
X11661078Y-64832762D02*
X10862792Y-64367095D01*
X10862792Y-64367095D02*
X11661078Y-63901429D01*
X10209650Y-62903571D02*
X10137078Y-63036619D01*
X10137078Y-63036619D02*
X10137078Y-63302714D01*
X10137078Y-63302714D02*
X10209650Y-63435761D01*
X10209650Y-63435761D02*
X10354792Y-63502285D01*
X10354792Y-63502285D02*
X10935364Y-63502285D01*
X10935364Y-63502285D02*
X11080507Y-63435761D01*
X11080507Y-63435761D02*
X11153078Y-63302714D01*
X11153078Y-63302714D02*
X11153078Y-63036619D01*
X11153078Y-63036619D02*
X11080507Y-62903571D01*
X11080507Y-62903571D02*
X10935364Y-62837047D01*
X10935364Y-62837047D02*
X10790221Y-62837047D01*
X10790221Y-62837047D02*
X10645078Y-63502285D01*
X10137078Y-61639618D02*
X10935364Y-61639618D01*
X10935364Y-61639618D02*
X11080507Y-61706142D01*
X11080507Y-61706142D02*
X11153078Y-61839190D01*
X11153078Y-61839190D02*
X11153078Y-62105285D01*
X11153078Y-62105285D02*
X11080507Y-62238332D01*
X10209650Y-61639618D02*
X10137078Y-61772666D01*
X10137078Y-61772666D02*
X10137078Y-62105285D01*
X10137078Y-62105285D02*
X10209650Y-62238332D01*
X10209650Y-62238332D02*
X10354792Y-62304856D01*
X10354792Y-62304856D02*
X10499935Y-62304856D01*
X10499935Y-62304856D02*
X10645078Y-62238332D01*
X10645078Y-62238332D02*
X10717650Y-62105285D01*
X10717650Y-62105285D02*
X10717650Y-61772666D01*
X10717650Y-61772666D02*
X10790221Y-61639618D01*
X10137078Y-60974380D02*
X11661078Y-60974380D01*
X10137078Y-60375666D02*
X10935364Y-60375666D01*
X10935364Y-60375666D02*
X11080507Y-60442190D01*
X11080507Y-60442190D02*
X11153078Y-60575238D01*
X11153078Y-60575238D02*
X11153078Y-60774809D01*
X11153078Y-60774809D02*
X11080507Y-60907857D01*
X11080507Y-60907857D02*
X11007935Y-60974380D01*
X10282221Y-59710428D02*
X10209650Y-59643905D01*
X10209650Y-59643905D02*
X10137078Y-59710428D01*
X10137078Y-59710428D02*
X10209650Y-59776952D01*
X10209650Y-59776952D02*
X10282221Y-59710428D01*
X10282221Y-59710428D02*
X10137078Y-59710428D01*
X10717650Y-59710428D02*
X11588507Y-59776952D01*
X11588507Y-59776952D02*
X11661078Y-59710428D01*
X11661078Y-59710428D02*
X11588507Y-59643905D01*
X11588507Y-59643905D02*
X10717650Y-59710428D01*
X10717650Y-59710428D02*
X11661078Y-59710428D01*
D15*
%TO.C,LOGO1*%
X10113005Y-17986528D02*
X10135194Y-18023535D01*
X10152755Y-18081012D01*
X10161462Y-18143372D01*
X10158184Y-18196084D01*
X10145395Y-18237050D01*
X10124139Y-18287499D01*
X10112716Y-18311926D01*
X10110651Y-18329555D01*
X10126484Y-18333453D01*
X10126932Y-18333457D01*
X10142049Y-18341712D01*
X10149797Y-18370181D01*
X10151979Y-18425361D01*
X10151979Y-18517269D01*
X9349874Y-18517269D01*
X9349874Y-18333453D01*
X9902917Y-18333453D01*
X9945266Y-18287758D01*
X9957302Y-18273482D01*
X9977866Y-18230958D01*
X9978690Y-18178592D01*
X9960544Y-18107289D01*
X9959395Y-18083252D01*
X9976998Y-18055056D01*
X10018838Y-18017526D01*
X10041981Y-17999321D01*
X10074658Y-17977791D01*
X10095458Y-17974473D01*
X10113005Y-17986528D01*
G36*
X10113005Y-17986528D02*
G01*
X10135194Y-18023535D01*
X10152755Y-18081012D01*
X10161462Y-18143372D01*
X10158184Y-18196084D01*
X10145395Y-18237050D01*
X10124139Y-18287499D01*
X10112716Y-18311926D01*
X10110651Y-18329555D01*
X10126484Y-18333453D01*
X10126932Y-18333457D01*
X10142049Y-18341712D01*
X10149797Y-18370181D01*
X10151979Y-18425361D01*
X10151979Y-18517269D01*
X9349874Y-18517269D01*
X9349874Y-18333453D01*
X9902917Y-18333453D01*
X9945266Y-18287758D01*
X9957302Y-18273482D01*
X9977866Y-18230958D01*
X9978690Y-18178592D01*
X9960544Y-18107289D01*
X9959395Y-18083252D01*
X9976998Y-18055056D01*
X10018838Y-18017526D01*
X10041981Y-17999321D01*
X10074658Y-17977791D01*
X10095458Y-17974473D01*
X10113005Y-17986528D01*
G37*
X8867536Y-18198420D02*
X8886288Y-18234992D01*
X8898953Y-18299233D01*
X8899367Y-18371640D01*
X8887684Y-18439463D01*
X8864056Y-18489950D01*
X8829422Y-18533979D01*
X8864056Y-18533979D01*
X8877206Y-18535076D01*
X8891148Y-18545285D01*
X8897306Y-18572893D01*
X8898690Y-18625887D01*
X8898690Y-18717795D01*
X8079874Y-18717795D01*
X8079874Y-18533979D01*
X8346456Y-18533979D01*
X8361760Y-18533957D01*
X8469340Y-18532389D01*
X8556973Y-18528541D01*
X8620176Y-18522687D01*
X8654471Y-18515101D01*
X8667418Y-18508136D01*
X8708022Y-18465260D01*
X8725996Y-18406858D01*
X8717611Y-18343086D01*
X8711928Y-18327444D01*
X8701883Y-18294121D01*
X8705002Y-18271347D01*
X8725421Y-18248431D01*
X8767273Y-18214683D01*
X8836383Y-18159947D01*
X8867536Y-18198420D01*
G36*
X8867536Y-18198420D02*
G01*
X8886288Y-18234992D01*
X8898953Y-18299233D01*
X8899367Y-18371640D01*
X8887684Y-18439463D01*
X8864056Y-18489950D01*
X8829422Y-18533979D01*
X8864056Y-18533979D01*
X8877206Y-18535076D01*
X8891148Y-18545285D01*
X8897306Y-18572893D01*
X8898690Y-18625887D01*
X8898690Y-18717795D01*
X8079874Y-18717795D01*
X8079874Y-18533979D01*
X8346456Y-18533979D01*
X8361760Y-18533957D01*
X8469340Y-18532389D01*
X8556973Y-18528541D01*
X8620176Y-18522687D01*
X8654471Y-18515101D01*
X8667418Y-18508136D01*
X8708022Y-18465260D01*
X8725996Y-18406858D01*
X8717611Y-18343086D01*
X8711928Y-18327444D01*
X8701883Y-18294121D01*
X8705002Y-18271347D01*
X8725421Y-18248431D01*
X8767273Y-18214683D01*
X8836383Y-18159947D01*
X8867536Y-18198420D01*
G37*
X8852968Y-21392754D02*
X8874502Y-21423398D01*
X8889614Y-21471763D01*
X8897286Y-21530966D01*
X8896496Y-21594128D01*
X8886225Y-21654367D01*
X8865452Y-21704802D01*
X8855752Y-21720788D01*
X8841555Y-21747702D01*
X8844806Y-21757664D01*
X8865514Y-21759111D01*
X8872949Y-21759450D01*
X8889418Y-21767512D01*
X8896914Y-21792519D01*
X8898690Y-21842664D01*
X8898690Y-21926216D01*
X8079874Y-21926216D01*
X8079874Y-21759111D01*
X8337799Y-21759111D01*
X8397795Y-21758926D01*
X8497163Y-21757026D01*
X8570727Y-21752216D01*
X8623573Y-21743452D01*
X8660786Y-21729690D01*
X8687451Y-21709887D01*
X8708654Y-21683000D01*
X8724453Y-21653648D01*
X8728933Y-21618891D01*
X8718971Y-21569458D01*
X8714824Y-21553573D01*
X8708582Y-21513920D01*
X8717525Y-21485567D01*
X8745205Y-21452706D01*
X8751225Y-21446470D01*
X8788463Y-21411994D01*
X8818740Y-21389761D01*
X8826034Y-21386711D01*
X8852968Y-21392754D01*
G36*
X8852968Y-21392754D02*
G01*
X8874502Y-21423398D01*
X8889614Y-21471763D01*
X8897286Y-21530966D01*
X8896496Y-21594128D01*
X8886225Y-21654367D01*
X8865452Y-21704802D01*
X8855752Y-21720788D01*
X8841555Y-21747702D01*
X8844806Y-21757664D01*
X8865514Y-21759111D01*
X8872949Y-21759450D01*
X8889418Y-21767512D01*
X8896914Y-21792519D01*
X8898690Y-21842664D01*
X8898690Y-21926216D01*
X8079874Y-21926216D01*
X8079874Y-21759111D01*
X8337799Y-21759111D01*
X8397795Y-21758926D01*
X8497163Y-21757026D01*
X8570727Y-21752216D01*
X8623573Y-21743452D01*
X8660786Y-21729690D01*
X8687451Y-21709887D01*
X8708654Y-21683000D01*
X8724453Y-21653648D01*
X8728933Y-21618891D01*
X8718971Y-21569458D01*
X8714824Y-21553573D01*
X8708582Y-21513920D01*
X8717525Y-21485567D01*
X8745205Y-21452706D01*
X8751225Y-21446470D01*
X8788463Y-21411994D01*
X8818740Y-21389761D01*
X8826034Y-21386711D01*
X8852968Y-21392754D01*
G37*
X10151979Y-18851479D02*
X9891867Y-18851479D01*
X9774850Y-18852889D01*
X9680342Y-18858407D01*
X9611649Y-18869585D01*
X9564922Y-18887972D01*
X9536311Y-18915117D01*
X9521968Y-18952568D01*
X9518042Y-19001874D01*
X9521546Y-19048952D01*
X9535261Y-19086974D01*
X9563045Y-19114610D01*
X9608749Y-19133409D01*
X9676221Y-19144919D01*
X9769311Y-19150690D01*
X9891867Y-19152269D01*
X10151979Y-19152269D01*
X10151979Y-19319374D01*
X9838396Y-19319374D01*
X9754695Y-19319088D01*
X9646457Y-19316859D01*
X9563911Y-19311269D01*
X9502332Y-19300961D01*
X9456995Y-19284583D01*
X9423174Y-19260779D01*
X9396143Y-19228196D01*
X9371179Y-19185479D01*
X9339575Y-19095777D01*
X9337513Y-19002161D01*
X9366617Y-18913896D01*
X9385483Y-18875386D01*
X9388303Y-18856280D01*
X9374972Y-18851479D01*
X9360004Y-18843509D01*
X9352119Y-18814978D01*
X9349874Y-18759572D01*
X9349874Y-18667664D01*
X10151979Y-18667664D01*
X10151979Y-18851479D01*
G36*
X10151979Y-18851479D02*
G01*
X9891867Y-18851479D01*
X9774850Y-18852889D01*
X9680342Y-18858407D01*
X9611649Y-18869585D01*
X9564922Y-18887972D01*
X9536311Y-18915117D01*
X9521968Y-18952568D01*
X9518042Y-19001874D01*
X9521546Y-19048952D01*
X9535261Y-19086974D01*
X9563045Y-19114610D01*
X9608749Y-19133409D01*
X9676221Y-19144919D01*
X9769311Y-19150690D01*
X9891867Y-19152269D01*
X10151979Y-19152269D01*
X10151979Y-19319374D01*
X9838396Y-19319374D01*
X9754695Y-19319088D01*
X9646457Y-19316859D01*
X9563911Y-19311269D01*
X9502332Y-19300961D01*
X9456995Y-19284583D01*
X9423174Y-19260779D01*
X9396143Y-19228196D01*
X9371179Y-19185479D01*
X9339575Y-19095777D01*
X9337513Y-19002161D01*
X9366617Y-18913896D01*
X9385483Y-18875386D01*
X9388303Y-18856280D01*
X9374972Y-18851479D01*
X9360004Y-18843509D01*
X9352119Y-18814978D01*
X9349874Y-18759572D01*
X9349874Y-18667664D01*
X10151979Y-18667664D01*
X10151979Y-18851479D01*
G37*
X9646486Y-21308294D02*
X9659698Y-21308319D01*
X9785865Y-21309913D01*
X9883872Y-21314808D01*
X9958485Y-21324264D01*
X10014469Y-21339539D01*
X10056591Y-21361890D01*
X10089616Y-21392575D01*
X10118310Y-21432854D01*
X10138174Y-21474443D01*
X10156222Y-21558200D01*
X10153560Y-21645337D01*
X10129627Y-21721512D01*
X10113360Y-21755099D01*
X10111680Y-21771992D01*
X10126484Y-21775822D01*
X10126932Y-21775825D01*
X10142049Y-21784080D01*
X10149797Y-21812549D01*
X10151979Y-21867729D01*
X10151979Y-21959637D01*
X9349874Y-21959637D01*
X9349874Y-21775822D01*
X9626357Y-21775822D01*
X9719720Y-21775696D01*
X9796412Y-21774836D01*
X9850078Y-21772537D01*
X9886188Y-21768090D01*
X9910209Y-21760790D01*
X9927609Y-21749930D01*
X9943857Y-21734805D01*
X9961139Y-21714201D01*
X9984358Y-21654955D01*
X9977543Y-21592766D01*
X9940819Y-21535798D01*
X9923727Y-21519515D01*
X9906429Y-21507826D01*
X9883410Y-21499986D01*
X9849129Y-21495227D01*
X9798047Y-21492779D01*
X9724623Y-21491873D01*
X9623319Y-21491743D01*
X9349874Y-21491743D01*
X9349874Y-21307927D01*
X9646486Y-21308294D01*
G36*
X9646486Y-21308294D02*
G01*
X9659698Y-21308319D01*
X9785865Y-21309913D01*
X9883872Y-21314808D01*
X9958485Y-21324264D01*
X10014469Y-21339539D01*
X10056591Y-21361890D01*
X10089616Y-21392575D01*
X10118310Y-21432854D01*
X10138174Y-21474443D01*
X10156222Y-21558200D01*
X10153560Y-21645337D01*
X10129627Y-21721512D01*
X10113360Y-21755099D01*
X10111680Y-21771992D01*
X10126484Y-21775822D01*
X10126932Y-21775825D01*
X10142049Y-21784080D01*
X10149797Y-21812549D01*
X10151979Y-21867729D01*
X10151979Y-21959637D01*
X9349874Y-21959637D01*
X9349874Y-21775822D01*
X9626357Y-21775822D01*
X9719720Y-21775696D01*
X9796412Y-21774836D01*
X9850078Y-21772537D01*
X9886188Y-21768090D01*
X9910209Y-21760790D01*
X9927609Y-21749930D01*
X9943857Y-21734805D01*
X9961139Y-21714201D01*
X9984358Y-21654955D01*
X9977543Y-21592766D01*
X9940819Y-21535798D01*
X9923727Y-21519515D01*
X9906429Y-21507826D01*
X9883410Y-21499986D01*
X9849129Y-21495227D01*
X9798047Y-21492779D01*
X9724623Y-21491873D01*
X9623319Y-21491743D01*
X9349874Y-21491743D01*
X9349874Y-21307927D01*
X9646486Y-21308294D01*
G37*
X9527513Y-17383064D02*
X9560870Y-17417544D01*
X9579442Y-17448732D01*
X9575353Y-17477650D01*
X9550400Y-17514637D01*
X9540632Y-17529385D01*
X9520638Y-17591691D01*
X9520651Y-17663303D01*
X9541257Y-17730350D01*
X9557805Y-17755596D01*
X9606670Y-17792628D01*
X9678442Y-17811192D01*
X9776264Y-17812387D01*
X9776319Y-17812383D01*
X9863838Y-17798571D01*
X9924519Y-17768144D01*
X9962055Y-17718076D01*
X9980139Y-17645341D01*
X9982571Y-17599537D01*
X9972611Y-17559516D01*
X9943758Y-17518470D01*
X9899064Y-17465354D01*
X9953121Y-17398088D01*
X9973830Y-17373513D01*
X10003501Y-17342816D01*
X10020987Y-17330822D01*
X10028867Y-17335069D01*
X10053060Y-17359535D01*
X10083829Y-17398510D01*
X10103851Y-17429005D01*
X10144981Y-17525824D01*
X10159343Y-17626857D01*
X10148153Y-17726010D01*
X10112629Y-17817191D01*
X10053987Y-17894307D01*
X9973444Y-17951264D01*
X9965231Y-17955110D01*
X9885133Y-17979530D01*
X9789452Y-17991730D01*
X9689831Y-17991634D01*
X9597912Y-17979164D01*
X9525334Y-17954243D01*
X9474750Y-17923473D01*
X9403090Y-17855744D01*
X9357538Y-17771057D01*
X9339118Y-17698602D01*
X9337107Y-17588275D01*
X9364887Y-17482702D01*
X9421258Y-17389082D01*
X9471204Y-17328488D01*
X9527513Y-17383064D01*
G36*
X9527513Y-17383064D02*
G01*
X9560870Y-17417544D01*
X9579442Y-17448732D01*
X9575353Y-17477650D01*
X9550400Y-17514637D01*
X9540632Y-17529385D01*
X9520638Y-17591691D01*
X9520651Y-17663303D01*
X9541257Y-17730350D01*
X9557805Y-17755596D01*
X9606670Y-17792628D01*
X9678442Y-17811192D01*
X9776264Y-17812387D01*
X9776319Y-17812383D01*
X9863838Y-17798571D01*
X9924519Y-17768144D01*
X9962055Y-17718076D01*
X9980139Y-17645341D01*
X9982571Y-17599537D01*
X9972611Y-17559516D01*
X9943758Y-17518470D01*
X9899064Y-17465354D01*
X9953121Y-17398088D01*
X9973830Y-17373513D01*
X10003501Y-17342816D01*
X10020987Y-17330822D01*
X10028867Y-17335069D01*
X10053060Y-17359535D01*
X10083829Y-17398510D01*
X10103851Y-17429005D01*
X10144981Y-17525824D01*
X10159343Y-17626857D01*
X10148153Y-17726010D01*
X10112629Y-17817191D01*
X10053987Y-17894307D01*
X9973444Y-17951264D01*
X9965231Y-17955110D01*
X9885133Y-17979530D01*
X9789452Y-17991730D01*
X9689831Y-17991634D01*
X9597912Y-17979164D01*
X9525334Y-17954243D01*
X9474750Y-17923473D01*
X9403090Y-17855744D01*
X9357538Y-17771057D01*
X9339118Y-17698602D01*
X9337107Y-17588275D01*
X9364887Y-17482702D01*
X9421258Y-17389082D01*
X9471204Y-17328488D01*
X9527513Y-17383064D01*
G37*
X9837681Y-19456878D02*
X9912095Y-19465545D01*
X9964294Y-19478922D01*
X10023394Y-19510079D01*
X10096060Y-19576208D01*
X10142090Y-19660731D01*
X10160310Y-19761134D01*
X10149542Y-19874905D01*
X10144955Y-19893835D01*
X10105400Y-19981995D01*
X10040459Y-20048428D01*
X9950129Y-20093135D01*
X9834406Y-20116118D01*
X9759737Y-20116787D01*
X9693284Y-20117382D01*
X9640399Y-20112720D01*
X9539435Y-20092114D01*
X9462393Y-20055257D01*
X9404199Y-19999161D01*
X9359783Y-19920834D01*
X9349212Y-19890423D01*
X9336852Y-19816613D01*
X9518749Y-19816613D01*
X9528163Y-19866996D01*
X9541664Y-19886660D01*
X9588877Y-19914262D01*
X9662770Y-19931630D01*
X9759737Y-19937664D01*
X9787650Y-19937567D01*
X9844210Y-19935471D01*
X9881106Y-19928500D01*
X9908369Y-19913875D01*
X9936028Y-19888818D01*
X9969551Y-19841136D01*
X9983257Y-19779063D01*
X9970203Y-19719089D01*
X9932449Y-19669291D01*
X9872051Y-19637745D01*
X9819898Y-19626758D01*
X9733239Y-19621842D01*
X9652386Y-19631907D01*
X9585949Y-19655551D01*
X9542538Y-19691373D01*
X9535084Y-19704951D01*
X9521536Y-19756727D01*
X9518749Y-19816613D01*
X9336852Y-19816613D01*
X9336023Y-19811663D01*
X9336382Y-19728784D01*
X9350869Y-19658850D01*
X9351395Y-19657476D01*
X9384548Y-19601118D01*
X9435870Y-19544180D01*
X9494560Y-19496935D01*
X9549816Y-19469655D01*
X9590207Y-19461569D01*
X9665831Y-19454646D01*
X9751958Y-19453163D01*
X9837681Y-19456878D01*
G36*
X9837681Y-19456878D02*
G01*
X9912095Y-19465545D01*
X9964294Y-19478922D01*
X10023394Y-19510079D01*
X10096060Y-19576208D01*
X10142090Y-19660731D01*
X10160310Y-19761134D01*
X10149542Y-19874905D01*
X10144955Y-19893835D01*
X10105400Y-19981995D01*
X10040459Y-20048428D01*
X9950129Y-20093135D01*
X9834406Y-20116118D01*
X9759737Y-20116787D01*
X9693284Y-20117382D01*
X9640399Y-20112720D01*
X9539435Y-20092114D01*
X9462393Y-20055257D01*
X9404199Y-19999161D01*
X9359783Y-19920834D01*
X9349212Y-19890423D01*
X9336852Y-19816613D01*
X9518749Y-19816613D01*
X9528163Y-19866996D01*
X9541664Y-19886660D01*
X9588877Y-19914262D01*
X9662770Y-19931630D01*
X9759737Y-19937664D01*
X9787650Y-19937567D01*
X9844210Y-19935471D01*
X9881106Y-19928500D01*
X9908369Y-19913875D01*
X9936028Y-19888818D01*
X9969551Y-19841136D01*
X9983257Y-19779063D01*
X9970203Y-19719089D01*
X9932449Y-19669291D01*
X9872051Y-19637745D01*
X9819898Y-19626758D01*
X9733239Y-19621842D01*
X9652386Y-19631907D01*
X9585949Y-19655551D01*
X9542538Y-19691373D01*
X9535084Y-19704951D01*
X9521536Y-19756727D01*
X9518749Y-19816613D01*
X9336852Y-19816613D01*
X9336023Y-19811663D01*
X9336382Y-19728784D01*
X9350869Y-19658850D01*
X9351395Y-19657476D01*
X9384548Y-19601118D01*
X9435870Y-19544180D01*
X9494560Y-19496935D01*
X9549816Y-19469655D01*
X9590207Y-19461569D01*
X9665831Y-19454646D01*
X9751958Y-19453163D01*
X9837681Y-19456878D01*
G37*
X8898690Y-19713056D02*
X8727407Y-19759120D01*
X8682149Y-19771365D01*
X8597775Y-19794525D01*
X8521016Y-19815972D01*
X8464216Y-19832276D01*
X8372308Y-19859369D01*
X8631321Y-19945774D01*
X8890334Y-20032180D01*
X8895296Y-20098270D01*
X8900257Y-20164359D01*
X8636293Y-20250463D01*
X8568890Y-20273055D01*
X8494273Y-20299779D01*
X8437746Y-20322096D01*
X8403914Y-20338159D01*
X8397384Y-20346124D01*
X8403063Y-20348046D01*
X8437893Y-20358449D01*
X8496065Y-20375019D01*
X8571067Y-20395916D01*
X8656387Y-20419300D01*
X8890334Y-20482918D01*
X8895410Y-20580055D01*
X8895816Y-20588254D01*
X8896354Y-20640635D01*
X8890977Y-20665806D01*
X8878699Y-20669012D01*
X8866708Y-20664962D01*
X8825666Y-20651641D01*
X8760664Y-20630784D01*
X8676352Y-20603879D01*
X8577378Y-20572412D01*
X8468394Y-20537869D01*
X8079874Y-20414905D01*
X8079874Y-20261089D01*
X8326354Y-20188613D01*
X8371615Y-20175230D01*
X8453898Y-20150496D01*
X8522460Y-20129362D01*
X8571175Y-20113729D01*
X8593917Y-20105502D01*
X8595613Y-20103158D01*
X8580944Y-20091751D01*
X8542152Y-20075465D01*
X8485298Y-20057006D01*
X8481959Y-20056031D01*
X8398053Y-20031317D01*
X8303049Y-20003041D01*
X8216872Y-19977130D01*
X8078147Y-19935114D01*
X8088229Y-19780150D01*
X8313821Y-19708387D01*
X8412946Y-19676880D01*
X8524119Y-19641587D01*
X8630696Y-19607793D01*
X8719051Y-19579818D01*
X8898690Y-19523013D01*
X8898690Y-19713056D01*
G36*
X8898690Y-19713056D02*
G01*
X8727407Y-19759120D01*
X8682149Y-19771365D01*
X8597775Y-19794525D01*
X8521016Y-19815972D01*
X8464216Y-19832276D01*
X8372308Y-19859369D01*
X8631321Y-19945774D01*
X8890334Y-20032180D01*
X8895296Y-20098270D01*
X8900257Y-20164359D01*
X8636293Y-20250463D01*
X8568890Y-20273055D01*
X8494273Y-20299779D01*
X8437746Y-20322096D01*
X8403914Y-20338159D01*
X8397384Y-20346124D01*
X8403063Y-20348046D01*
X8437893Y-20358449D01*
X8496065Y-20375019D01*
X8571067Y-20395916D01*
X8656387Y-20419300D01*
X8890334Y-20482918D01*
X8895410Y-20580055D01*
X8895816Y-20588254D01*
X8896354Y-20640635D01*
X8890977Y-20665806D01*
X8878699Y-20669012D01*
X8866708Y-20664962D01*
X8825666Y-20651641D01*
X8760664Y-20630784D01*
X8676352Y-20603879D01*
X8577378Y-20572412D01*
X8468394Y-20537869D01*
X8079874Y-20414905D01*
X8079874Y-20261089D01*
X8326354Y-20188613D01*
X8371615Y-20175230D01*
X8453898Y-20150496D01*
X8522460Y-20129362D01*
X8571175Y-20113729D01*
X8593917Y-20105502D01*
X8595613Y-20103158D01*
X8580944Y-20091751D01*
X8542152Y-20075465D01*
X8485298Y-20057006D01*
X8481959Y-20056031D01*
X8398053Y-20031317D01*
X8303049Y-20003041D01*
X8216872Y-19977130D01*
X8078147Y-19935114D01*
X8088229Y-19780150D01*
X8313821Y-19708387D01*
X8412946Y-19676880D01*
X8524119Y-19641587D01*
X8630696Y-19607793D01*
X8719051Y-19579818D01*
X8898690Y-19523013D01*
X8898690Y-19713056D01*
G37*
X9216190Y-20923585D02*
X8826668Y-20923585D01*
X8857480Y-20957632D01*
X8876631Y-20990414D01*
X8892640Y-21052459D01*
X8897798Y-21124989D01*
X8891465Y-21195819D01*
X8873000Y-21252768D01*
X8846734Y-21293528D01*
X8801988Y-21335513D01*
X8741812Y-21363770D01*
X8660412Y-21380755D01*
X8551995Y-21388928D01*
X8508170Y-21390129D01*
X8480774Y-21390216D01*
X8426741Y-21390386D01*
X8355299Y-21388268D01*
X8305534Y-21384008D01*
X8300973Y-21383278D01*
X8219396Y-21354606D01*
X8150235Y-21302246D01*
X8103379Y-21233558D01*
X8083984Y-21159796D01*
X8085423Y-21073050D01*
X8254285Y-21073050D01*
X8270660Y-21131544D01*
X8316340Y-21180810D01*
X8349766Y-21193832D01*
X8408959Y-21203451D01*
X8480774Y-21207680D01*
X8554433Y-21206348D01*
X8619161Y-21199284D01*
X8664178Y-21186317D01*
X8671560Y-21182174D01*
X8708662Y-21142240D01*
X8725099Y-21088122D01*
X8721276Y-21030000D01*
X8697598Y-20978053D01*
X8654471Y-20942463D01*
X8650844Y-20940992D01*
X8610374Y-20932167D01*
X8549901Y-20925942D01*
X8481072Y-20923585D01*
X8411568Y-20924902D01*
X8365294Y-20930248D01*
X8333593Y-20941662D01*
X8307027Y-20961183D01*
X8267527Y-21012729D01*
X8254285Y-21073050D01*
X8085423Y-21073050D01*
X8085489Y-21069068D01*
X8111494Y-20985605D01*
X8122468Y-20963865D01*
X8134226Y-20935910D01*
X8130568Y-20925272D01*
X8111494Y-20923585D01*
X8101982Y-20922810D01*
X8087915Y-20912807D01*
X8081438Y-20885023D01*
X8079874Y-20831677D01*
X8079874Y-20739769D01*
X9216190Y-20739769D01*
X9216190Y-20923585D01*
G36*
X9216190Y-20923585D02*
G01*
X8826668Y-20923585D01*
X8857480Y-20957632D01*
X8876631Y-20990414D01*
X8892640Y-21052459D01*
X8897798Y-21124989D01*
X8891465Y-21195819D01*
X8873000Y-21252768D01*
X8846734Y-21293528D01*
X8801988Y-21335513D01*
X8741812Y-21363770D01*
X8660412Y-21380755D01*
X8551995Y-21388928D01*
X8508170Y-21390129D01*
X8480774Y-21390216D01*
X8426741Y-21390386D01*
X8355299Y-21388268D01*
X8305534Y-21384008D01*
X8300973Y-21383278D01*
X8219396Y-21354606D01*
X8150235Y-21302246D01*
X8103379Y-21233558D01*
X8083984Y-21159796D01*
X8085423Y-21073050D01*
X8254285Y-21073050D01*
X8270660Y-21131544D01*
X8316340Y-21180810D01*
X8349766Y-21193832D01*
X8408959Y-21203451D01*
X8480774Y-21207680D01*
X8554433Y-21206348D01*
X8619161Y-21199284D01*
X8664178Y-21186317D01*
X8671560Y-21182174D01*
X8708662Y-21142240D01*
X8725099Y-21088122D01*
X8721276Y-21030000D01*
X8697598Y-20978053D01*
X8654471Y-20942463D01*
X8650844Y-20940992D01*
X8610374Y-20932167D01*
X8549901Y-20925942D01*
X8481072Y-20923585D01*
X8411568Y-20924902D01*
X8365294Y-20930248D01*
X8333593Y-20941662D01*
X8307027Y-20961183D01*
X8267527Y-21012729D01*
X8254285Y-21073050D01*
X8085423Y-21073050D01*
X8085489Y-21069068D01*
X8111494Y-20985605D01*
X8122468Y-20963865D01*
X8134226Y-20935910D01*
X8130568Y-20925272D01*
X8111494Y-20923585D01*
X8101982Y-20922810D01*
X8087915Y-20912807D01*
X8081438Y-20885023D01*
X8079874Y-20831677D01*
X8079874Y-20739769D01*
X9216190Y-20739769D01*
X9216190Y-20923585D01*
G37*
X9814776Y-23620123D02*
X9832982Y-23621882D01*
X9949588Y-23646424D01*
X10040110Y-23691830D01*
X10104646Y-23758195D01*
X10143296Y-23845616D01*
X10156157Y-23954191D01*
X10154950Y-23995211D01*
X10140180Y-24079334D01*
X10104926Y-24148122D01*
X10044572Y-24212254D01*
X10032458Y-24222510D01*
X9991663Y-24250174D01*
X9945470Y-24268355D01*
X9886932Y-24278436D01*
X9809101Y-24281801D01*
X9752490Y-24280729D01*
X9705032Y-24279831D01*
X9652699Y-24277673D01*
X9588881Y-24272776D01*
X9543648Y-24264433D01*
X9507807Y-24250656D01*
X9472164Y-24229457D01*
X9470813Y-24228554D01*
X9413065Y-24176353D01*
X9369020Y-24112483D01*
X9342883Y-24038213D01*
X9334397Y-23940510D01*
X9336056Y-23930992D01*
X9516690Y-23930992D01*
X9521384Y-23996506D01*
X9556504Y-24059119D01*
X9573278Y-24076781D01*
X9601993Y-24095639D01*
X9642354Y-24106096D01*
X9705246Y-24112024D01*
X9752490Y-24113657D01*
X9848972Y-24104711D01*
X9918048Y-24077260D01*
X9960099Y-24031181D01*
X9980235Y-23977166D01*
X9978540Y-23912749D01*
X9944545Y-23853037D01*
X9931603Y-23838761D01*
X9908960Y-23820747D01*
X9879336Y-23810059D01*
X9833918Y-23804129D01*
X9763894Y-23800388D01*
X9714876Y-23798649D01*
X9661650Y-23798988D01*
X9626116Y-23804631D01*
X9598811Y-23817489D01*
X9570276Y-23839472D01*
X9541960Y-23869979D01*
X9516690Y-23930992D01*
X9336056Y-23930992D01*
X9351084Y-23844750D01*
X9391294Y-23759155D01*
X9453378Y-23691945D01*
X9482712Y-23672650D01*
X9573904Y-23636616D01*
X9686416Y-23618744D01*
X9814776Y-23620123D01*
G36*
X9814776Y-23620123D02*
G01*
X9832982Y-23621882D01*
X9949588Y-23646424D01*
X10040110Y-23691830D01*
X10104646Y-23758195D01*
X10143296Y-23845616D01*
X10156157Y-23954191D01*
X10154950Y-23995211D01*
X10140180Y-24079334D01*
X10104926Y-24148122D01*
X10044572Y-24212254D01*
X10032458Y-24222510D01*
X9991663Y-24250174D01*
X9945470Y-24268355D01*
X9886932Y-24278436D01*
X9809101Y-24281801D01*
X9752490Y-24280729D01*
X9705032Y-24279831D01*
X9652699Y-24277673D01*
X9588881Y-24272776D01*
X9543648Y-24264433D01*
X9507807Y-24250656D01*
X9472164Y-24229457D01*
X9470813Y-24228554D01*
X9413065Y-24176353D01*
X9369020Y-24112483D01*
X9342883Y-24038213D01*
X9334397Y-23940510D01*
X9336056Y-23930992D01*
X9516690Y-23930992D01*
X9521384Y-23996506D01*
X9556504Y-24059119D01*
X9573278Y-24076781D01*
X9601993Y-24095639D01*
X9642354Y-24106096D01*
X9705246Y-24112024D01*
X9752490Y-24113657D01*
X9848972Y-24104711D01*
X9918048Y-24077260D01*
X9960099Y-24031181D01*
X9980235Y-23977166D01*
X9978540Y-23912749D01*
X9944545Y-23853037D01*
X9931603Y-23838761D01*
X9908960Y-23820747D01*
X9879336Y-23810059D01*
X9833918Y-23804129D01*
X9763894Y-23800388D01*
X9714876Y-23798649D01*
X9661650Y-23798988D01*
X9626116Y-23804631D01*
X9598811Y-23817489D01*
X9570276Y-23839472D01*
X9541960Y-23869979D01*
X9516690Y-23930992D01*
X9336056Y-23930992D01*
X9351084Y-23844750D01*
X9391294Y-23759155D01*
X9453378Y-23691945D01*
X9482712Y-23672650D01*
X9573904Y-23636616D01*
X9686416Y-23618744D01*
X9814776Y-23620123D01*
G37*
X9523496Y-16705666D02*
X9571789Y-16766741D01*
X9536029Y-16840347D01*
X9507053Y-16925515D01*
X9506185Y-17000701D01*
X9532808Y-17062216D01*
X9586245Y-17106483D01*
X9618264Y-17122352D01*
X9645629Y-17131211D01*
X9664115Y-17126085D01*
X9675462Y-17103087D01*
X9681413Y-17058331D01*
X9683707Y-16987929D01*
X9683773Y-16970419D01*
X9834479Y-16970419D01*
X9834943Y-17009966D01*
X9838012Y-17072371D01*
X9843387Y-17114703D01*
X9850403Y-17130295D01*
X9876292Y-17126306D01*
X9925830Y-17098188D01*
X9966525Y-17051332D01*
X9991105Y-16995474D01*
X9992295Y-16940351D01*
X9972585Y-16898858D01*
X9927732Y-16851840D01*
X9872078Y-16821945D01*
X9866155Y-16820194D01*
X9850845Y-16818106D01*
X9841488Y-16826300D01*
X9836617Y-16850560D01*
X9834770Y-16896672D01*
X9834479Y-16970419D01*
X9683773Y-16970419D01*
X9684084Y-16887993D01*
X9684084Y-16645690D01*
X9799970Y-16645690D01*
X9861262Y-16647871D01*
X9921904Y-16654276D01*
X9962898Y-16663425D01*
X9978548Y-16670095D01*
X10048251Y-16718643D01*
X10106387Y-16788791D01*
X10144451Y-16870826D01*
X10154846Y-16913616D01*
X10159578Y-17015570D01*
X10135507Y-17106415D01*
X10085312Y-17183653D01*
X10011673Y-17244789D01*
X9917267Y-17287326D01*
X9850403Y-17300071D01*
X9804773Y-17308767D01*
X9676871Y-17306616D01*
X9674356Y-17306336D01*
X9556995Y-17282309D01*
X9465748Y-17238899D01*
X9398609Y-17174753D01*
X9353576Y-17088519D01*
X9348426Y-17072689D01*
X9333249Y-16974573D01*
X9341712Y-16873098D01*
X9371955Y-16778759D01*
X9422115Y-16702049D01*
X9475203Y-16644590D01*
X9523496Y-16705666D01*
G36*
X9523496Y-16705666D02*
G01*
X9571789Y-16766741D01*
X9536029Y-16840347D01*
X9507053Y-16925515D01*
X9506185Y-17000701D01*
X9532808Y-17062216D01*
X9586245Y-17106483D01*
X9618264Y-17122352D01*
X9645629Y-17131211D01*
X9664115Y-17126085D01*
X9675462Y-17103087D01*
X9681413Y-17058331D01*
X9683707Y-16987929D01*
X9683773Y-16970419D01*
X9834479Y-16970419D01*
X9834943Y-17009966D01*
X9838012Y-17072371D01*
X9843387Y-17114703D01*
X9850403Y-17130295D01*
X9876292Y-17126306D01*
X9925830Y-17098188D01*
X9966525Y-17051332D01*
X9991105Y-16995474D01*
X9992295Y-16940351D01*
X9972585Y-16898858D01*
X9927732Y-16851840D01*
X9872078Y-16821945D01*
X9866155Y-16820194D01*
X9850845Y-16818106D01*
X9841488Y-16826300D01*
X9836617Y-16850560D01*
X9834770Y-16896672D01*
X9834479Y-16970419D01*
X9683773Y-16970419D01*
X9684084Y-16887993D01*
X9684084Y-16645690D01*
X9799970Y-16645690D01*
X9861262Y-16647871D01*
X9921904Y-16654276D01*
X9962898Y-16663425D01*
X9978548Y-16670095D01*
X10048251Y-16718643D01*
X10106387Y-16788791D01*
X10144451Y-16870826D01*
X10154846Y-16913616D01*
X10159578Y-17015570D01*
X10135507Y-17106415D01*
X10085312Y-17183653D01*
X10011673Y-17244789D01*
X9917267Y-17287326D01*
X9850403Y-17300071D01*
X9804773Y-17308767D01*
X9676871Y-17306616D01*
X9674356Y-17306336D01*
X9556995Y-17282309D01*
X9465748Y-17238899D01*
X9398609Y-17174753D01*
X9353576Y-17088519D01*
X9348426Y-17072689D01*
X9333249Y-16974573D01*
X9341712Y-16873098D01*
X9371955Y-16778759D01*
X9422115Y-16702049D01*
X9475203Y-16644590D01*
X9523496Y-16705666D01*
G37*
X9673903Y-20207836D02*
X9738493Y-20235808D01*
X9784749Y-20286168D01*
X9815512Y-20362103D01*
X9833622Y-20466800D01*
X9834933Y-20478825D01*
X9843294Y-20544011D01*
X9852043Y-20596890D01*
X9859487Y-20626973D01*
X9865480Y-20637012D01*
X9896387Y-20653984D01*
X9935950Y-20651228D01*
X9970295Y-20628546D01*
X9977785Y-20616636D01*
X9989787Y-20567006D01*
X9988980Y-20502900D01*
X9976208Y-20436053D01*
X9952314Y-20378199D01*
X9916446Y-20317408D01*
X9971548Y-20270254D01*
X9985547Y-20258812D01*
X10023047Y-20233034D01*
X10048463Y-20222422D01*
X10064047Y-20233566D01*
X10088374Y-20268044D01*
X10114552Y-20317828D01*
X10117752Y-20324843D01*
X10142852Y-20390492D01*
X10154853Y-20453772D01*
X10157263Y-20532300D01*
X10152521Y-20603799D01*
X10128332Y-20700309D01*
X10083498Y-20770811D01*
X10017719Y-20815707D01*
X9930693Y-20835399D01*
X9847377Y-20831412D01*
X9777103Y-20802635D01*
X9725146Y-20747448D01*
X9690490Y-20664748D01*
X9672121Y-20553426D01*
X9662494Y-20481092D01*
X9641663Y-20415070D01*
X9611496Y-20380983D01*
X9572048Y-20378926D01*
X9547451Y-20392643D01*
X9518299Y-20435126D01*
X9504511Y-20495517D01*
X9506396Y-20566289D01*
X9524267Y-20639912D01*
X9558433Y-20708857D01*
X9603923Y-20777597D01*
X9481565Y-20898519D01*
X9440645Y-20848387D01*
X9426427Y-20828894D01*
X9394125Y-20774050D01*
X9366291Y-20714703D01*
X9350317Y-20667735D01*
X9338746Y-20598962D01*
X9338593Y-20514177D01*
X9351333Y-20410206D01*
X9383623Y-20316545D01*
X9434914Y-20250249D01*
X9505335Y-20211160D01*
X9595013Y-20199122D01*
X9673903Y-20207836D01*
G36*
X9673903Y-20207836D02*
G01*
X9738493Y-20235808D01*
X9784749Y-20286168D01*
X9815512Y-20362103D01*
X9833622Y-20466800D01*
X9834933Y-20478825D01*
X9843294Y-20544011D01*
X9852043Y-20596890D01*
X9859487Y-20626973D01*
X9865480Y-20637012D01*
X9896387Y-20653984D01*
X9935950Y-20651228D01*
X9970295Y-20628546D01*
X9977785Y-20616636D01*
X9989787Y-20567006D01*
X9988980Y-20502900D01*
X9976208Y-20436053D01*
X9952314Y-20378199D01*
X9916446Y-20317408D01*
X9971548Y-20270254D01*
X9985547Y-20258812D01*
X10023047Y-20233034D01*
X10048463Y-20222422D01*
X10064047Y-20233566D01*
X10088374Y-20268044D01*
X10114552Y-20317828D01*
X10117752Y-20324843D01*
X10142852Y-20390492D01*
X10154853Y-20453772D01*
X10157263Y-20532300D01*
X10152521Y-20603799D01*
X10128332Y-20700309D01*
X10083498Y-20770811D01*
X10017719Y-20815707D01*
X9930693Y-20835399D01*
X9847377Y-20831412D01*
X9777103Y-20802635D01*
X9725146Y-20747448D01*
X9690490Y-20664748D01*
X9672121Y-20553426D01*
X9662494Y-20481092D01*
X9641663Y-20415070D01*
X9611496Y-20380983D01*
X9572048Y-20378926D01*
X9547451Y-20392643D01*
X9518299Y-20435126D01*
X9504511Y-20495517D01*
X9506396Y-20566289D01*
X9524267Y-20639912D01*
X9558433Y-20708857D01*
X9603923Y-20777597D01*
X9481565Y-20898519D01*
X9440645Y-20848387D01*
X9426427Y-20828894D01*
X9394125Y-20774050D01*
X9366291Y-20714703D01*
X9350317Y-20667735D01*
X9338746Y-20598962D01*
X9338593Y-20514177D01*
X9351333Y-20410206D01*
X9383623Y-20316545D01*
X9434914Y-20250249D01*
X9505335Y-20211160D01*
X9595013Y-20199122D01*
X9673903Y-20207836D01*
G37*
X8518525Y-17498020D02*
X8527250Y-17498073D01*
X8635184Y-17508527D01*
X8722987Y-17538955D01*
X8798677Y-17592049D01*
X8830695Y-17624438D01*
X8873555Y-17691332D01*
X8894322Y-17771207D01*
X8895782Y-17872100D01*
X8890057Y-17920835D01*
X8860329Y-18010796D01*
X8806222Y-18079671D01*
X8726902Y-18128064D01*
X8621534Y-18156579D01*
X8580102Y-18159474D01*
X8489282Y-18165818D01*
X8426902Y-18163645D01*
X8307606Y-18143855D01*
X8213802Y-18103134D01*
X8144819Y-18041124D01*
X8099988Y-17957466D01*
X8092068Y-17930437D01*
X8081005Y-17833924D01*
X8090341Y-17732015D01*
X8119154Y-17639966D01*
X8135508Y-17607538D01*
X8163522Y-17561043D01*
X8186573Y-17532865D01*
X8191840Y-17528705D01*
X8211101Y-17520922D01*
X8232039Y-17532136D01*
X8263750Y-17566286D01*
X8277555Y-17582767D01*
X8302817Y-17615232D01*
X8313142Y-17632255D01*
X8312079Y-17637132D01*
X8300581Y-17665081D01*
X8280400Y-17706808D01*
X8273762Y-17720413D01*
X8249111Y-17800671D01*
X8255465Y-17870397D01*
X8292933Y-17931540D01*
X8299856Y-17938655D01*
X8343222Y-17972668D01*
X8384841Y-17992102D01*
X8430795Y-18002866D01*
X8430795Y-17840493D01*
X8564479Y-17840493D01*
X8565011Y-17881524D01*
X8568120Y-17942088D01*
X8573388Y-17983745D01*
X8580102Y-17999243D01*
X8635367Y-17986026D01*
X8686948Y-17947330D01*
X8722734Y-17891521D01*
X8735112Y-17827051D01*
X8721158Y-17779585D01*
X8687047Y-17732138D01*
X8642604Y-17696069D01*
X8597637Y-17681743D01*
X8583039Y-17683831D01*
X8572978Y-17694552D01*
X8567394Y-17720107D01*
X8564992Y-17766689D01*
X8564479Y-17840493D01*
X8430795Y-17840493D01*
X8430795Y-17497927D01*
X8518525Y-17498020D01*
G36*
X8518525Y-17498020D02*
G01*
X8527250Y-17498073D01*
X8635184Y-17508527D01*
X8722987Y-17538955D01*
X8798677Y-17592049D01*
X8830695Y-17624438D01*
X8873555Y-17691332D01*
X8894322Y-17771207D01*
X8895782Y-17872100D01*
X8890057Y-17920835D01*
X8860329Y-18010796D01*
X8806222Y-18079671D01*
X8726902Y-18128064D01*
X8621534Y-18156579D01*
X8580102Y-18159474D01*
X8489282Y-18165818D01*
X8426902Y-18163645D01*
X8307606Y-18143855D01*
X8213802Y-18103134D01*
X8144819Y-18041124D01*
X8099988Y-17957466D01*
X8092068Y-17930437D01*
X8081005Y-17833924D01*
X8090341Y-17732015D01*
X8119154Y-17639966D01*
X8135508Y-17607538D01*
X8163522Y-17561043D01*
X8186573Y-17532865D01*
X8191840Y-17528705D01*
X8211101Y-17520922D01*
X8232039Y-17532136D01*
X8263750Y-17566286D01*
X8277555Y-17582767D01*
X8302817Y-17615232D01*
X8313142Y-17632255D01*
X8312079Y-17637132D01*
X8300581Y-17665081D01*
X8280400Y-17706808D01*
X8273762Y-17720413D01*
X8249111Y-17800671D01*
X8255465Y-17870397D01*
X8292933Y-17931540D01*
X8299856Y-17938655D01*
X8343222Y-17972668D01*
X8384841Y-17992102D01*
X8430795Y-18002866D01*
X8430795Y-17840493D01*
X8564479Y-17840493D01*
X8565011Y-17881524D01*
X8568120Y-17942088D01*
X8573388Y-17983745D01*
X8580102Y-17999243D01*
X8635367Y-17986026D01*
X8686948Y-17947330D01*
X8722734Y-17891521D01*
X8735112Y-17827051D01*
X8721158Y-17779585D01*
X8687047Y-17732138D01*
X8642604Y-17696069D01*
X8597637Y-17681743D01*
X8583039Y-17683831D01*
X8572978Y-17694552D01*
X8567394Y-17720107D01*
X8564992Y-17766689D01*
X8564479Y-17840493D01*
X8430795Y-17840493D01*
X8430795Y-17497927D01*
X8518525Y-17498020D01*
G37*
X9771815Y-22076704D02*
X9799619Y-22077469D01*
X9866951Y-22083766D01*
X9922666Y-22094326D01*
X9953857Y-22105901D01*
X10021700Y-22146595D01*
X10083314Y-22201095D01*
X10125534Y-22258730D01*
X10133373Y-22275382D01*
X10159379Y-22372345D01*
X10156638Y-22471360D01*
X10126308Y-22564452D01*
X10069552Y-22643644D01*
X10017210Y-22686478D01*
X9943472Y-22721501D01*
X9854714Y-22740225D01*
X9851309Y-22740943D01*
X9734262Y-22746789D01*
X9683184Y-22745328D01*
X9571557Y-22728854D01*
X9483544Y-22692551D01*
X9415516Y-22634520D01*
X9363849Y-22552861D01*
X9339730Y-22473646D01*
X9335115Y-22374271D01*
X9352863Y-22274007D01*
X9392073Y-22184572D01*
X9413885Y-22151430D01*
X9441844Y-22114915D01*
X9460242Y-22098253D01*
X9467833Y-22099198D01*
X9493697Y-22117848D01*
X9525033Y-22152898D01*
X9571364Y-22213641D01*
X9535816Y-22284818D01*
X9527017Y-22304065D01*
X9507894Y-22360723D01*
X9500269Y-22408211D01*
X9506552Y-22443228D01*
X9536809Y-22498178D01*
X9583780Y-22544367D01*
X9638130Y-22570787D01*
X9684084Y-22581550D01*
X9684084Y-22420303D01*
X9834479Y-22420303D01*
X9834490Y-22445323D01*
X9835090Y-22510302D01*
X9837685Y-22549364D01*
X9843738Y-22568303D01*
X9854714Y-22572911D01*
X9872078Y-22568981D01*
X9874047Y-22568381D01*
X9934470Y-22534527D01*
X9976071Y-22481157D01*
X9991558Y-22417515D01*
X9990320Y-22393991D01*
X9975504Y-22350328D01*
X9937821Y-22308441D01*
X9924497Y-22297158D01*
X9886444Y-22270913D01*
X9859281Y-22260427D01*
X9855863Y-22260752D01*
X9845219Y-22269940D01*
X9838680Y-22295904D01*
X9835386Y-22344179D01*
X9834479Y-22420303D01*
X9684084Y-22420303D01*
X9684084Y-22076611D01*
X9771815Y-22076704D01*
G36*
X9771815Y-22076704D02*
G01*
X9799619Y-22077469D01*
X9866951Y-22083766D01*
X9922666Y-22094326D01*
X9953857Y-22105901D01*
X10021700Y-22146595D01*
X10083314Y-22201095D01*
X10125534Y-22258730D01*
X10133373Y-22275382D01*
X10159379Y-22372345D01*
X10156638Y-22471360D01*
X10126308Y-22564452D01*
X10069552Y-22643644D01*
X10017210Y-22686478D01*
X9943472Y-22721501D01*
X9854714Y-22740225D01*
X9851309Y-22740943D01*
X9734262Y-22746789D01*
X9683184Y-22745328D01*
X9571557Y-22728854D01*
X9483544Y-22692551D01*
X9415516Y-22634520D01*
X9363849Y-22552861D01*
X9339730Y-22473646D01*
X9335115Y-22374271D01*
X9352863Y-22274007D01*
X9392073Y-22184572D01*
X9413885Y-22151430D01*
X9441844Y-22114915D01*
X9460242Y-22098253D01*
X9467833Y-22099198D01*
X9493697Y-22117848D01*
X9525033Y-22152898D01*
X9571364Y-22213641D01*
X9535816Y-22284818D01*
X9527017Y-22304065D01*
X9507894Y-22360723D01*
X9500269Y-22408211D01*
X9506552Y-22443228D01*
X9536809Y-22498178D01*
X9583780Y-22544367D01*
X9638130Y-22570787D01*
X9684084Y-22581550D01*
X9684084Y-22420303D01*
X9834479Y-22420303D01*
X9834490Y-22445323D01*
X9835090Y-22510302D01*
X9837685Y-22549364D01*
X9843738Y-22568303D01*
X9854714Y-22572911D01*
X9872078Y-22568981D01*
X9874047Y-22568381D01*
X9934470Y-22534527D01*
X9976071Y-22481157D01*
X9991558Y-22417515D01*
X9990320Y-22393991D01*
X9975504Y-22350328D01*
X9937821Y-22308441D01*
X9924497Y-22297158D01*
X9886444Y-22270913D01*
X9859281Y-22260427D01*
X9855863Y-22260752D01*
X9845219Y-22269940D01*
X9838680Y-22295904D01*
X9835386Y-22344179D01*
X9834479Y-22420303D01*
X9684084Y-22420303D01*
X9684084Y-22076611D01*
X9771815Y-22076704D01*
G37*
X8401551Y-18871090D02*
X8475938Y-18872572D01*
X8587301Y-18876476D01*
X8672454Y-18883057D01*
X8736040Y-18893614D01*
X8782701Y-18909448D01*
X8817079Y-18931859D01*
X8843817Y-18962147D01*
X8867556Y-19001613D01*
X8876620Y-19021973D01*
X8893727Y-19092408D01*
X8900800Y-19177359D01*
X8897968Y-19265188D01*
X8885359Y-19344257D01*
X8863103Y-19402927D01*
X8850181Y-19423335D01*
X8811881Y-19470321D01*
X8779811Y-19486224D01*
X8773614Y-19482362D01*
X8751968Y-19458294D01*
X8723092Y-19419439D01*
X8709576Y-19399574D01*
X8690426Y-19365746D01*
X8688597Y-19343763D01*
X8701815Y-19323353D01*
X8728584Y-19272486D01*
X8739592Y-19204040D01*
X8731164Y-19134094D01*
X8730782Y-19132770D01*
X8709348Y-19083436D01*
X8675797Y-19059016D01*
X8620309Y-19052262D01*
X8567521Y-19052006D01*
X8561823Y-19226410D01*
X8560885Y-19254196D01*
X8557625Y-19324248D01*
X8552503Y-19371209D01*
X8543602Y-19402952D01*
X8529003Y-19427348D01*
X8506788Y-19452269D01*
X8455405Y-19493415D01*
X8379374Y-19523571D01*
X8327056Y-19526528D01*
X8299800Y-19528068D01*
X8223936Y-19507909D01*
X8159035Y-19464098D01*
X8112349Y-19397641D01*
X8109511Y-19391119D01*
X8089070Y-19318405D01*
X8081101Y-19236471D01*
X8083493Y-19198223D01*
X8248110Y-19198223D01*
X8249983Y-19235271D01*
X8264091Y-19304595D01*
X8290376Y-19347563D01*
X8327056Y-19362055D01*
X8372348Y-19345951D01*
X8384200Y-19336554D01*
X8410787Y-19294587D01*
X8425968Y-19228166D01*
X8430795Y-19133470D01*
X8430795Y-19052006D01*
X8372308Y-19052006D01*
X8328594Y-19058300D01*
X8280400Y-19085427D01*
X8271542Y-19095440D01*
X8252906Y-19136481D01*
X8248110Y-19198223D01*
X8083493Y-19198223D01*
X8085973Y-19158572D01*
X8104052Y-19097960D01*
X8115846Y-19073748D01*
X8118659Y-19055980D01*
X8103949Y-19052006D01*
X8090345Y-19044478D01*
X8082244Y-19015353D01*
X8079874Y-18958820D01*
X8079874Y-18865635D01*
X8401551Y-18871090D01*
G36*
X8401551Y-18871090D02*
G01*
X8475938Y-18872572D01*
X8587301Y-18876476D01*
X8672454Y-18883057D01*
X8736040Y-18893614D01*
X8782701Y-18909448D01*
X8817079Y-18931859D01*
X8843817Y-18962147D01*
X8867556Y-19001613D01*
X8876620Y-19021973D01*
X8893727Y-19092408D01*
X8900800Y-19177359D01*
X8897968Y-19265188D01*
X8885359Y-19344257D01*
X8863103Y-19402927D01*
X8850181Y-19423335D01*
X8811881Y-19470321D01*
X8779811Y-19486224D01*
X8773614Y-19482362D01*
X8751968Y-19458294D01*
X8723092Y-19419439D01*
X8709576Y-19399574D01*
X8690426Y-19365746D01*
X8688597Y-19343763D01*
X8701815Y-19323353D01*
X8728584Y-19272486D01*
X8739592Y-19204040D01*
X8731164Y-19134094D01*
X8730782Y-19132770D01*
X8709348Y-19083436D01*
X8675797Y-19059016D01*
X8620309Y-19052262D01*
X8567521Y-19052006D01*
X8561823Y-19226410D01*
X8560885Y-19254196D01*
X8557625Y-19324248D01*
X8552503Y-19371209D01*
X8543602Y-19402952D01*
X8529003Y-19427348D01*
X8506788Y-19452269D01*
X8455405Y-19493415D01*
X8379374Y-19523571D01*
X8327056Y-19526528D01*
X8299800Y-19528068D01*
X8223936Y-19507909D01*
X8159035Y-19464098D01*
X8112349Y-19397641D01*
X8109511Y-19391119D01*
X8089070Y-19318405D01*
X8081101Y-19236471D01*
X8083493Y-19198223D01*
X8248110Y-19198223D01*
X8249983Y-19235271D01*
X8264091Y-19304595D01*
X8290376Y-19347563D01*
X8327056Y-19362055D01*
X8372348Y-19345951D01*
X8384200Y-19336554D01*
X8410787Y-19294587D01*
X8425968Y-19228166D01*
X8430795Y-19133470D01*
X8430795Y-19052006D01*
X8372308Y-19052006D01*
X8328594Y-19058300D01*
X8280400Y-19085427D01*
X8271542Y-19095440D01*
X8252906Y-19136481D01*
X8248110Y-19198223D01*
X8083493Y-19198223D01*
X8085973Y-19158572D01*
X8104052Y-19097960D01*
X8115846Y-19073748D01*
X8118659Y-19055980D01*
X8103949Y-19052006D01*
X8090345Y-19044478D01*
X8082244Y-19015353D01*
X8079874Y-18958820D01*
X8079874Y-18865635D01*
X8401551Y-18871090D01*
G37*
X8431224Y-22093328D02*
X8536633Y-22093632D01*
X8614999Y-22094776D01*
X8671529Y-22097277D01*
X8711430Y-22101656D01*
X8739908Y-22108432D01*
X8762170Y-22118125D01*
X8783422Y-22131253D01*
X8833220Y-22173484D01*
X8871240Y-22233330D01*
X8892216Y-22311943D01*
X8898664Y-22415536D01*
X8898657Y-22418903D01*
X8895405Y-22490913D01*
X8887297Y-22555366D01*
X8875930Y-22599352D01*
X8870234Y-22611410D01*
X8846111Y-22649791D01*
X8817440Y-22684524D01*
X8791640Y-22707377D01*
X8776127Y-22710116D01*
X8771935Y-22704770D01*
X8727182Y-22646527D01*
X8700787Y-22607581D01*
X8690138Y-22581831D01*
X8692620Y-22563172D01*
X8705618Y-22545501D01*
X8721844Y-22512890D01*
X8732663Y-22457933D01*
X8735469Y-22395820D01*
X8729758Y-22339617D01*
X8715024Y-22302384D01*
X8713231Y-22300425D01*
X8679550Y-22283694D01*
X8629275Y-22277137D01*
X8564479Y-22277137D01*
X8564417Y-22431710D01*
X8563293Y-22502714D01*
X8558404Y-22562482D01*
X8548345Y-22605237D01*
X8531735Y-22639780D01*
X8526633Y-22647819D01*
X8470553Y-22705976D01*
X8396396Y-22736910D01*
X8340687Y-22739525D01*
X8302604Y-22741312D01*
X8300400Y-22741122D01*
X8214554Y-22720760D01*
X8149988Y-22675467D01*
X8103463Y-22602993D01*
X8092144Y-22565540D01*
X8083322Y-22501390D01*
X8081287Y-22433625D01*
X8247195Y-22433625D01*
X8254555Y-22494596D01*
X8272992Y-22540788D01*
X8297370Y-22563799D01*
X8340687Y-22577927D01*
X8375024Y-22565398D01*
X8404880Y-22523982D01*
X8424034Y-22457405D01*
X8430795Y-22369582D01*
X8430795Y-22277137D01*
X8366543Y-22277137D01*
X8317647Y-22283315D01*
X8274635Y-22307697D01*
X8265326Y-22321649D01*
X8250817Y-22371451D01*
X8247195Y-22433625D01*
X8081287Y-22433625D01*
X8081215Y-22431240D01*
X8086070Y-22367948D01*
X8098132Y-22324376D01*
X8107794Y-22297912D01*
X8098132Y-22272001D01*
X8092534Y-22262523D01*
X8083457Y-22224694D01*
X8079874Y-22173532D01*
X8079874Y-22093322D01*
X8403258Y-22093322D01*
X8431224Y-22093328D01*
G36*
X8431224Y-22093328D02*
G01*
X8536633Y-22093632D01*
X8614999Y-22094776D01*
X8671529Y-22097277D01*
X8711430Y-22101656D01*
X8739908Y-22108432D01*
X8762170Y-22118125D01*
X8783422Y-22131253D01*
X8833220Y-22173484D01*
X8871240Y-22233330D01*
X8892216Y-22311943D01*
X8898664Y-22415536D01*
X8898657Y-22418903D01*
X8895405Y-22490913D01*
X8887297Y-22555366D01*
X8875930Y-22599352D01*
X8870234Y-22611410D01*
X8846111Y-22649791D01*
X8817440Y-22684524D01*
X8791640Y-22707377D01*
X8776127Y-22710116D01*
X8771935Y-22704770D01*
X8727182Y-22646527D01*
X8700787Y-22607581D01*
X8690138Y-22581831D01*
X8692620Y-22563172D01*
X8705618Y-22545501D01*
X8721844Y-22512890D01*
X8732663Y-22457933D01*
X8735469Y-22395820D01*
X8729758Y-22339617D01*
X8715024Y-22302384D01*
X8713231Y-22300425D01*
X8679550Y-22283694D01*
X8629275Y-22277137D01*
X8564479Y-22277137D01*
X8564417Y-22431710D01*
X8563293Y-22502714D01*
X8558404Y-22562482D01*
X8548345Y-22605237D01*
X8531735Y-22639780D01*
X8526633Y-22647819D01*
X8470553Y-22705976D01*
X8396396Y-22736910D01*
X8340687Y-22739525D01*
X8302604Y-22741312D01*
X8300400Y-22741122D01*
X8214554Y-22720760D01*
X8149988Y-22675467D01*
X8103463Y-22602993D01*
X8092144Y-22565540D01*
X8083322Y-22501390D01*
X8081287Y-22433625D01*
X8247195Y-22433625D01*
X8254555Y-22494596D01*
X8272992Y-22540788D01*
X8297370Y-22563799D01*
X8340687Y-22577927D01*
X8375024Y-22565398D01*
X8404880Y-22523982D01*
X8424034Y-22457405D01*
X8430795Y-22369582D01*
X8430795Y-22277137D01*
X8366543Y-22277137D01*
X8317647Y-22283315D01*
X8274635Y-22307697D01*
X8265326Y-22321649D01*
X8250817Y-22371451D01*
X8247195Y-22433625D01*
X8081287Y-22433625D01*
X8081215Y-22431240D01*
X8086070Y-22367948D01*
X8098132Y-22324376D01*
X8107794Y-22297912D01*
X8098132Y-22272001D01*
X8092534Y-22262523D01*
X8083457Y-22224694D01*
X8079874Y-22173532D01*
X8079874Y-22093322D01*
X8403258Y-22093322D01*
X8431224Y-22093328D01*
G37*
X8482465Y-22845472D02*
X8567838Y-22846449D01*
X8630329Y-22848799D01*
X8675606Y-22853091D01*
X8709332Y-22859895D01*
X8737173Y-22869778D01*
X8764795Y-22883310D01*
X8770659Y-22886519D01*
X8827773Y-22929192D01*
X8867686Y-22979135D01*
X8888644Y-23039348D01*
X8897973Y-23119080D01*
X8892920Y-23198927D01*
X8873195Y-23263888D01*
X8847700Y-23313190D01*
X9399469Y-23313190D01*
X9364258Y-23245637D01*
X9351466Y-23217419D01*
X9342069Y-23171150D01*
X9516979Y-23171150D01*
X9520920Y-23217420D01*
X9540641Y-23263217D01*
X9580591Y-23292712D01*
X9644800Y-23308504D01*
X9737299Y-23313190D01*
X9786506Y-23311978D01*
X9879394Y-23299881D01*
X9942204Y-23274923D01*
X9974494Y-23237244D01*
X9983578Y-23199189D01*
X9979319Y-23132913D01*
X9952948Y-23076916D01*
X9940855Y-23063514D01*
X9919933Y-23049313D01*
X9888789Y-23040533D01*
X9839690Y-23035319D01*
X9764902Y-23031816D01*
X9715258Y-23030291D01*
X9655969Y-23030440D01*
X9616431Y-23034973D01*
X9588211Y-23045160D01*
X9562881Y-23062272D01*
X9539331Y-23084010D01*
X9521508Y-23118772D01*
X9516979Y-23171150D01*
X9342069Y-23171150D01*
X9333377Y-23128350D01*
X9345879Y-23039834D01*
X9387448Y-22957781D01*
X9456557Y-22888104D01*
X9472800Y-22877189D01*
X9496610Y-22866698D01*
X9528982Y-22859855D01*
X9576129Y-22855904D01*
X9644265Y-22854088D01*
X9739603Y-22853650D01*
X9783104Y-22853800D01*
X9884289Y-22856362D01*
X9959878Y-22863497D01*
X10015583Y-22877006D01*
X10057117Y-22898694D01*
X10090194Y-22930360D01*
X10120526Y-22973808D01*
X10137932Y-23009040D01*
X10157129Y-23092573D01*
X10154513Y-23180622D01*
X10129628Y-23258881D01*
X10113361Y-23292467D01*
X10111680Y-23309360D01*
X10126484Y-23313190D01*
X10126932Y-23313194D01*
X10142049Y-23321448D01*
X10149797Y-23349917D01*
X10151979Y-23405098D01*
X10151979Y-23497006D01*
X9737299Y-23497006D01*
X8078127Y-23497006D01*
X8083178Y-23409275D01*
X8088229Y-23321545D01*
X8355598Y-23317374D01*
X8420612Y-23316140D01*
X8518289Y-23312637D01*
X8589966Y-23306624D01*
X8640460Y-23296997D01*
X8674590Y-23282649D01*
X8697173Y-23262475D01*
X8713028Y-23235370D01*
X8729220Y-23184512D01*
X8722928Y-23133934D01*
X8688323Y-23080525D01*
X8645061Y-23029111D01*
X8079874Y-23029111D01*
X8079874Y-22845295D01*
X8386390Y-22845295D01*
X8482465Y-22845472D01*
G36*
X8482465Y-22845472D02*
G01*
X8567838Y-22846449D01*
X8630329Y-22848799D01*
X8675606Y-22853091D01*
X8709332Y-22859895D01*
X8737173Y-22869778D01*
X8764795Y-22883310D01*
X8770659Y-22886519D01*
X8827773Y-22929192D01*
X8867686Y-22979135D01*
X8888644Y-23039348D01*
X8897973Y-23119080D01*
X8892920Y-23198927D01*
X8873195Y-23263888D01*
X8847700Y-23313190D01*
X9399469Y-23313190D01*
X9364258Y-23245637D01*
X9351466Y-23217419D01*
X9342069Y-23171150D01*
X9516979Y-23171150D01*
X9520920Y-23217420D01*
X9540641Y-23263217D01*
X9580591Y-23292712D01*
X9644800Y-23308504D01*
X9737299Y-23313190D01*
X9786506Y-23311978D01*
X9879394Y-23299881D01*
X9942204Y-23274923D01*
X9974494Y-23237244D01*
X9983578Y-23199189D01*
X9979319Y-23132913D01*
X9952948Y-23076916D01*
X9940855Y-23063514D01*
X9919933Y-23049313D01*
X9888789Y-23040533D01*
X9839690Y-23035319D01*
X9764902Y-23031816D01*
X9715258Y-23030291D01*
X9655969Y-23030440D01*
X9616431Y-23034973D01*
X9588211Y-23045160D01*
X9562881Y-23062272D01*
X9539331Y-23084010D01*
X9521508Y-23118772D01*
X9516979Y-23171150D01*
X9342069Y-23171150D01*
X9333377Y-23128350D01*
X9345879Y-23039834D01*
X9387448Y-22957781D01*
X9456557Y-22888104D01*
X9472800Y-22877189D01*
X9496610Y-22866698D01*
X9528982Y-22859855D01*
X9576129Y-22855904D01*
X9644265Y-22854088D01*
X9739603Y-22853650D01*
X9783104Y-22853800D01*
X9884289Y-22856362D01*
X9959878Y-22863497D01*
X10015583Y-22877006D01*
X10057117Y-22898694D01*
X10090194Y-22930360D01*
X10120526Y-22973808D01*
X10137932Y-23009040D01*
X10157129Y-23092573D01*
X10154513Y-23180622D01*
X10129628Y-23258881D01*
X10113361Y-23292467D01*
X10111680Y-23309360D01*
X10126484Y-23313190D01*
X10126932Y-23313194D01*
X10142049Y-23321448D01*
X10149797Y-23349917D01*
X10151979Y-23405098D01*
X10151979Y-23497006D01*
X9737299Y-23497006D01*
X8078127Y-23497006D01*
X8083178Y-23409275D01*
X8088229Y-23321545D01*
X8355598Y-23317374D01*
X8420612Y-23316140D01*
X8518289Y-23312637D01*
X8589966Y-23306624D01*
X8640460Y-23296997D01*
X8674590Y-23282649D01*
X8697173Y-23262475D01*
X8713028Y-23235370D01*
X8729220Y-23184512D01*
X8722928Y-23133934D01*
X8688323Y-23080525D01*
X8645061Y-23029111D01*
X8079874Y-23029111D01*
X8079874Y-22845295D01*
X8386390Y-22845295D01*
X8482465Y-22845472D01*
G37*
X13211983Y-17479835D02*
X13309561Y-17481507D01*
X13396915Y-17484565D01*
X13468253Y-17489015D01*
X13517783Y-17494860D01*
X13539714Y-17502104D01*
X13542954Y-17509501D01*
X13553167Y-17546296D01*
X13567611Y-17608491D01*
X13585211Y-17691123D01*
X13604890Y-17789228D01*
X13625570Y-17897844D01*
X13636619Y-17957150D01*
X13655779Y-18058798D01*
X13672556Y-18146290D01*
X13686039Y-18214949D01*
X13695316Y-18260093D01*
X13699474Y-18277044D01*
X13700331Y-18277681D01*
X13722107Y-18288477D01*
X13767729Y-18309057D01*
X13831142Y-18336849D01*
X13906293Y-18369282D01*
X13987130Y-18403782D01*
X14067601Y-18437778D01*
X14141651Y-18468697D01*
X14203228Y-18493966D01*
X14246279Y-18511015D01*
X14264750Y-18517269D01*
X14271250Y-18514510D01*
X14302178Y-18496150D01*
X14354237Y-18462846D01*
X14423341Y-18417274D01*
X14505407Y-18362111D01*
X14596348Y-18300032D01*
X14646152Y-18265973D01*
X14733469Y-18207197D01*
X14810102Y-18156803D01*
X14871869Y-18117480D01*
X14914594Y-18091914D01*
X14934095Y-18082795D01*
X14944673Y-18089132D01*
X14976281Y-18115637D01*
X15024117Y-18159120D01*
X15084127Y-18215589D01*
X15152258Y-18281053D01*
X15224455Y-18351521D01*
X15296667Y-18423001D01*
X15364838Y-18491500D01*
X15424917Y-18553029D01*
X15472849Y-18603594D01*
X15504580Y-18639205D01*
X15516058Y-18655870D01*
X15511595Y-18665120D01*
X15490898Y-18699089D01*
X15455673Y-18753905D01*
X15408504Y-18825618D01*
X15351969Y-18910278D01*
X15288652Y-19003935D01*
X15061246Y-19338359D01*
X15291078Y-19895887D01*
X15691824Y-19971436D01*
X16092571Y-20046985D01*
X16092571Y-20881106D01*
X15691824Y-20956654D01*
X15291078Y-21032203D01*
X15176162Y-21310967D01*
X15061246Y-21589732D01*
X15288652Y-21924156D01*
X15333483Y-21990346D01*
X15392329Y-22078093D01*
X15442590Y-22154063D01*
X15481685Y-22214311D01*
X15507035Y-22254891D01*
X15516058Y-22271857D01*
X15509641Y-22282277D01*
X15482753Y-22313425D01*
X15438626Y-22360561D01*
X15381313Y-22419693D01*
X15314865Y-22486826D01*
X15243335Y-22557966D01*
X15170774Y-22629119D01*
X15101233Y-22696292D01*
X15038765Y-22755490D01*
X14987422Y-22802719D01*
X14951255Y-22833986D01*
X14934317Y-22845295D01*
X14927039Y-22842664D01*
X14894576Y-22824448D01*
X14841151Y-22791182D01*
X14770951Y-22745564D01*
X14688164Y-22690290D01*
X14596979Y-22628058D01*
X14547248Y-22593906D01*
X14460669Y-22535157D01*
X14385109Y-22484788D01*
X14324667Y-22445486D01*
X14283439Y-22419935D01*
X14265524Y-22410822D01*
X14264531Y-22410971D01*
X14241820Y-22419011D01*
X14195445Y-22437454D01*
X14131463Y-22463731D01*
X14055932Y-22495271D01*
X13974911Y-22529502D01*
X13894457Y-22563854D01*
X13820628Y-22595755D01*
X13759482Y-22622635D01*
X13717078Y-22641922D01*
X13699474Y-22651046D01*
X13697912Y-22656445D01*
X13690869Y-22689246D01*
X13679201Y-22747706D01*
X13663820Y-22827146D01*
X13645640Y-22922886D01*
X13625570Y-23030246D01*
X13614929Y-23086831D01*
X13594627Y-23190689D01*
X13575878Y-23281497D01*
X13559758Y-23354291D01*
X13547344Y-23404108D01*
X13539714Y-23425986D01*
X13532150Y-23429916D01*
X13495191Y-23436434D01*
X13433635Y-23441556D01*
X13353273Y-23445284D01*
X13259897Y-23447623D01*
X13159299Y-23448577D01*
X13057272Y-23448149D01*
X12959607Y-23446345D01*
X12872096Y-23443166D01*
X12800531Y-23438619D01*
X12750704Y-23432706D01*
X12728407Y-23425431D01*
X12725892Y-23421017D01*
X12715104Y-23388094D01*
X12700831Y-23330982D01*
X12684636Y-23256282D01*
X12668081Y-23170596D01*
X12662808Y-23141685D01*
X12638287Y-23008155D01*
X12618579Y-22903213D01*
X12602869Y-22823220D01*
X12590338Y-22764539D01*
X12580171Y-22723532D01*
X12571549Y-22696561D01*
X12563655Y-22679988D01*
X12555673Y-22670175D01*
X12554333Y-22669035D01*
X12526403Y-22652988D01*
X12475296Y-22629243D01*
X12407008Y-22600101D01*
X12327534Y-22567863D01*
X12242871Y-22534830D01*
X12159013Y-22503304D01*
X12081956Y-22475586D01*
X12017696Y-22453977D01*
X11972228Y-22440779D01*
X11951548Y-22438293D01*
X11948865Y-22439955D01*
X11922916Y-22457165D01*
X11875055Y-22489530D01*
X11809690Y-22534050D01*
X11731230Y-22587723D01*
X11644085Y-22647549D01*
X11620108Y-22663967D01*
X11534105Y-22721703D01*
X11457189Y-22771600D01*
X11393923Y-22810809D01*
X11348868Y-22836483D01*
X11326585Y-22845774D01*
X11320727Y-22843772D01*
X11291859Y-22822903D01*
X11244720Y-22781731D01*
X11182480Y-22723203D01*
X11108313Y-22650267D01*
X11025392Y-22565873D01*
X10978979Y-22517634D01*
X10906692Y-22441362D01*
X10844776Y-22374605D01*
X10796489Y-22320946D01*
X10765093Y-22283970D01*
X10753846Y-22267263D01*
X10758016Y-22255785D01*
X10777737Y-22220445D01*
X10809990Y-22169123D01*
X10850689Y-22108513D01*
X10880389Y-22065420D01*
X10939370Y-21979387D01*
X11002010Y-21887579D01*
X11058931Y-21803723D01*
X11170041Y-21639453D01*
X11095484Y-21501560D01*
X11078275Y-21469090D01*
X11048840Y-21410042D01*
X11028517Y-21364379D01*
X11020940Y-21339974D01*
X11030670Y-21331988D01*
X11067721Y-21312156D01*
X11128807Y-21282862D01*
X11210051Y-21245738D01*
X11307577Y-21202413D01*
X11417509Y-21154518D01*
X11535968Y-21103681D01*
X11659079Y-21051533D01*
X11782965Y-20999704D01*
X11903750Y-20949824D01*
X12017556Y-20903523D01*
X12120507Y-20862431D01*
X12208727Y-20828178D01*
X12278338Y-20802393D01*
X12325464Y-20786708D01*
X12346228Y-20782751D01*
X12346835Y-20783019D01*
X12366030Y-20801450D01*
X12396094Y-20840002D01*
X12430791Y-20890716D01*
X12441386Y-20906724D01*
X12541902Y-21028525D01*
X12661623Y-21129329D01*
X12795566Y-21206751D01*
X12938747Y-21258404D01*
X13086184Y-21281900D01*
X13232893Y-21274854D01*
X13363380Y-21246310D01*
X13495143Y-21195059D01*
X13612694Y-21120345D01*
X13724358Y-21017814D01*
X13760031Y-20977527D01*
X13847920Y-20847289D01*
X13907112Y-20706597D01*
X13938135Y-20559527D01*
X13941521Y-20410158D01*
X13917798Y-20262567D01*
X13867496Y-20120829D01*
X13791145Y-19989023D01*
X13689275Y-19871226D01*
X13562416Y-19771514D01*
X13531000Y-19752343D01*
X13387408Y-19687183D01*
X13237883Y-19652577D01*
X13086295Y-19647618D01*
X12936518Y-19671401D01*
X12792424Y-19723019D01*
X12657885Y-19801566D01*
X12536775Y-19906136D01*
X12432966Y-20035822D01*
X12430168Y-20040034D01*
X12394810Y-20090210D01*
X12364747Y-20127817D01*
X12346228Y-20144994D01*
X12331710Y-20142826D01*
X12289435Y-20129351D01*
X12223914Y-20105458D01*
X12139023Y-20072775D01*
X12038641Y-20032933D01*
X11926643Y-19987560D01*
X11806909Y-19938287D01*
X11683316Y-19886741D01*
X11559741Y-19834554D01*
X11440061Y-19783353D01*
X11328155Y-19734768D01*
X11227900Y-19690430D01*
X11143173Y-19651966D01*
X11077853Y-19621006D01*
X11035816Y-19599179D01*
X11020940Y-19588116D01*
X11022954Y-19578916D01*
X11037434Y-19542771D01*
X11062822Y-19489351D01*
X11095484Y-19426531D01*
X11170041Y-19288638D01*
X11058931Y-19124368D01*
X11026030Y-19075836D01*
X10964555Y-18985566D01*
X10902982Y-18895571D01*
X10850689Y-18819577D01*
X10822191Y-18777637D01*
X10786784Y-18723126D01*
X10762545Y-18682709D01*
X10753558Y-18662968D01*
X10757374Y-18654487D01*
X10780744Y-18623829D01*
X10821890Y-18576568D01*
X10876765Y-18516816D01*
X10941323Y-18448688D01*
X11011515Y-18376296D01*
X11083294Y-18303756D01*
X11152614Y-18235180D01*
X11215427Y-18174682D01*
X11267686Y-18126376D01*
X11305343Y-18094376D01*
X11324352Y-18082795D01*
X11327969Y-18083463D01*
X11357407Y-18097247D01*
X11408338Y-18126692D01*
X11476162Y-18168953D01*
X11556277Y-18221185D01*
X11644085Y-18280542D01*
X11668304Y-18297189D01*
X11753532Y-18355644D01*
X11828879Y-18407133D01*
X11889937Y-18448656D01*
X11932296Y-18477211D01*
X11951548Y-18489798D01*
X11952373Y-18490107D01*
X11975927Y-18486393D01*
X12023641Y-18472207D01*
X12089521Y-18449851D01*
X12167570Y-18421627D01*
X12251793Y-18389835D01*
X12336195Y-18356778D01*
X12414779Y-18324756D01*
X12481550Y-18296071D01*
X12530514Y-18273023D01*
X12555673Y-18257915D01*
X12557235Y-18256402D01*
X12565137Y-18245585D01*
X12573106Y-18227315D01*
X12581959Y-18197956D01*
X12592513Y-18153870D01*
X12605585Y-18091418D01*
X12621992Y-18006964D01*
X12642552Y-17896869D01*
X12668081Y-17757495D01*
X12673454Y-17728587D01*
X12690063Y-17645777D01*
X12705800Y-17576118D01*
X12719102Y-17526212D01*
X12728407Y-17502659D01*
X12736170Y-17498719D01*
X12773458Y-17492150D01*
X12835275Y-17486944D01*
X12915828Y-17483106D01*
X13009325Y-17480639D01*
X13109974Y-17479547D01*
X13211983Y-17479835D01*
G36*
X13211983Y-17479835D02*
G01*
X13309561Y-17481507D01*
X13396915Y-17484565D01*
X13468253Y-17489015D01*
X13517783Y-17494860D01*
X13539714Y-17502104D01*
X13542954Y-17509501D01*
X13553167Y-17546296D01*
X13567611Y-17608491D01*
X13585211Y-17691123D01*
X13604890Y-17789228D01*
X13625570Y-17897844D01*
X13636619Y-17957150D01*
X13655779Y-18058798D01*
X13672556Y-18146290D01*
X13686039Y-18214949D01*
X13695316Y-18260093D01*
X13699474Y-18277044D01*
X13700331Y-18277681D01*
X13722107Y-18288477D01*
X13767729Y-18309057D01*
X13831142Y-18336849D01*
X13906293Y-18369282D01*
X13987130Y-18403782D01*
X14067601Y-18437778D01*
X14141651Y-18468697D01*
X14203228Y-18493966D01*
X14246279Y-18511015D01*
X14264750Y-18517269D01*
X14271250Y-18514510D01*
X14302178Y-18496150D01*
X14354237Y-18462846D01*
X14423341Y-18417274D01*
X14505407Y-18362111D01*
X14596348Y-18300032D01*
X14646152Y-18265973D01*
X14733469Y-18207197D01*
X14810102Y-18156803D01*
X14871869Y-18117480D01*
X14914594Y-18091914D01*
X14934095Y-18082795D01*
X14944673Y-18089132D01*
X14976281Y-18115637D01*
X15024117Y-18159120D01*
X15084127Y-18215589D01*
X15152258Y-18281053D01*
X15224455Y-18351521D01*
X15296667Y-18423001D01*
X15364838Y-18491500D01*
X15424917Y-18553029D01*
X15472849Y-18603594D01*
X15504580Y-18639205D01*
X15516058Y-18655870D01*
X15511595Y-18665120D01*
X15490898Y-18699089D01*
X15455673Y-18753905D01*
X15408504Y-18825618D01*
X15351969Y-18910278D01*
X15288652Y-19003935D01*
X15061246Y-19338359D01*
X15291078Y-19895887D01*
X15691824Y-19971436D01*
X16092571Y-20046985D01*
X16092571Y-20881106D01*
X15691824Y-20956654D01*
X15291078Y-21032203D01*
X15176162Y-21310967D01*
X15061246Y-21589732D01*
X15288652Y-21924156D01*
X15333483Y-21990346D01*
X15392329Y-22078093D01*
X15442590Y-22154063D01*
X15481685Y-22214311D01*
X15507035Y-22254891D01*
X15516058Y-22271857D01*
X15509641Y-22282277D01*
X15482753Y-22313425D01*
X15438626Y-22360561D01*
X15381313Y-22419693D01*
X15314865Y-22486826D01*
X15243335Y-22557966D01*
X15170774Y-22629119D01*
X15101233Y-22696292D01*
X15038765Y-22755490D01*
X14987422Y-22802719D01*
X14951255Y-22833986D01*
X14934317Y-22845295D01*
X14927039Y-22842664D01*
X14894576Y-22824448D01*
X14841151Y-22791182D01*
X14770951Y-22745564D01*
X14688164Y-22690290D01*
X14596979Y-22628058D01*
X14547248Y-22593906D01*
X14460669Y-22535157D01*
X14385109Y-22484788D01*
X14324667Y-22445486D01*
X14283439Y-22419935D01*
X14265524Y-22410822D01*
X14264531Y-22410971D01*
X14241820Y-22419011D01*
X14195445Y-22437454D01*
X14131463Y-22463731D01*
X14055932Y-22495271D01*
X13974911Y-22529502D01*
X13894457Y-22563854D01*
X13820628Y-22595755D01*
X13759482Y-22622635D01*
X13717078Y-22641922D01*
X13699474Y-22651046D01*
X13697912Y-22656445D01*
X13690869Y-22689246D01*
X13679201Y-22747706D01*
X13663820Y-22827146D01*
X13645640Y-22922886D01*
X13625570Y-23030246D01*
X13614929Y-23086831D01*
X13594627Y-23190689D01*
X13575878Y-23281497D01*
X13559758Y-23354291D01*
X13547344Y-23404108D01*
X13539714Y-23425986D01*
X13532150Y-23429916D01*
X13495191Y-23436434D01*
X13433635Y-23441556D01*
X13353273Y-23445284D01*
X13259897Y-23447623D01*
X13159299Y-23448577D01*
X13057272Y-23448149D01*
X12959607Y-23446345D01*
X12872096Y-23443166D01*
X12800531Y-23438619D01*
X12750704Y-23432706D01*
X12728407Y-23425431D01*
X12725892Y-23421017D01*
X12715104Y-23388094D01*
X12700831Y-23330982D01*
X12684636Y-23256282D01*
X12668081Y-23170596D01*
X12662808Y-23141685D01*
X12638287Y-23008155D01*
X12618579Y-22903213D01*
X12602869Y-22823220D01*
X12590338Y-22764539D01*
X12580171Y-22723532D01*
X12571549Y-22696561D01*
X12563655Y-22679988D01*
X12555673Y-22670175D01*
X12554333Y-22669035D01*
X12526403Y-22652988D01*
X12475296Y-22629243D01*
X12407008Y-22600101D01*
X12327534Y-22567863D01*
X12242871Y-22534830D01*
X12159013Y-22503304D01*
X12081956Y-22475586D01*
X12017696Y-22453977D01*
X11972228Y-22440779D01*
X11951548Y-22438293D01*
X11948865Y-22439955D01*
X11922916Y-22457165D01*
X11875055Y-22489530D01*
X11809690Y-22534050D01*
X11731230Y-22587723D01*
X11644085Y-22647549D01*
X11620108Y-22663967D01*
X11534105Y-22721703D01*
X11457189Y-22771600D01*
X11393923Y-22810809D01*
X11348868Y-22836483D01*
X11326585Y-22845774D01*
X11320727Y-22843772D01*
X11291859Y-22822903D01*
X11244720Y-22781731D01*
X11182480Y-22723203D01*
X11108313Y-22650267D01*
X11025392Y-22565873D01*
X10978979Y-22517634D01*
X10906692Y-22441362D01*
X10844776Y-22374605D01*
X10796489Y-22320946D01*
X10765093Y-22283970D01*
X10753846Y-22267263D01*
X10758016Y-22255785D01*
X10777737Y-22220445D01*
X10809990Y-22169123D01*
X10850689Y-22108513D01*
X10880389Y-22065420D01*
X10939370Y-21979387D01*
X11002010Y-21887579D01*
X11058931Y-21803723D01*
X11170041Y-21639453D01*
X11095484Y-21501560D01*
X11078275Y-21469090D01*
X11048840Y-21410042D01*
X11028517Y-21364379D01*
X11020940Y-21339974D01*
X11030670Y-21331988D01*
X11067721Y-21312156D01*
X11128807Y-21282862D01*
X11210051Y-21245738D01*
X11307577Y-21202413D01*
X11417509Y-21154518D01*
X11535968Y-21103681D01*
X11659079Y-21051533D01*
X11782965Y-20999704D01*
X11903750Y-20949824D01*
X12017556Y-20903523D01*
X12120507Y-20862431D01*
X12208727Y-20828178D01*
X12278338Y-20802393D01*
X12325464Y-20786708D01*
X12346228Y-20782751D01*
X12346835Y-20783019D01*
X12366030Y-20801450D01*
X12396094Y-20840002D01*
X12430791Y-20890716D01*
X12441386Y-20906724D01*
X12541902Y-21028525D01*
X12661623Y-21129329D01*
X12795566Y-21206751D01*
X12938747Y-21258404D01*
X13086184Y-21281900D01*
X13232893Y-21274854D01*
X13363380Y-21246310D01*
X13495143Y-21195059D01*
X13612694Y-21120345D01*
X13724358Y-21017814D01*
X13760031Y-20977527D01*
X13847920Y-20847289D01*
X13907112Y-20706597D01*
X13938135Y-20559527D01*
X13941521Y-20410158D01*
X13917798Y-20262567D01*
X13867496Y-20120829D01*
X13791145Y-19989023D01*
X13689275Y-19871226D01*
X13562416Y-19771514D01*
X13531000Y-19752343D01*
X13387408Y-19687183D01*
X13237883Y-19652577D01*
X13086295Y-19647618D01*
X12936518Y-19671401D01*
X12792424Y-19723019D01*
X12657885Y-19801566D01*
X12536775Y-19906136D01*
X12432966Y-20035822D01*
X12430168Y-20040034D01*
X12394810Y-20090210D01*
X12364747Y-20127817D01*
X12346228Y-20144994D01*
X12331710Y-20142826D01*
X12289435Y-20129351D01*
X12223914Y-20105458D01*
X12139023Y-20072775D01*
X12038641Y-20032933D01*
X11926643Y-19987560D01*
X11806909Y-19938287D01*
X11683316Y-19886741D01*
X11559741Y-19834554D01*
X11440061Y-19783353D01*
X11328155Y-19734768D01*
X11227900Y-19690430D01*
X11143173Y-19651966D01*
X11077853Y-19621006D01*
X11035816Y-19599179D01*
X11020940Y-19588116D01*
X11022954Y-19578916D01*
X11037434Y-19542771D01*
X11062822Y-19489351D01*
X11095484Y-19426531D01*
X11170041Y-19288638D01*
X11058931Y-19124368D01*
X11026030Y-19075836D01*
X10964555Y-18985566D01*
X10902982Y-18895571D01*
X10850689Y-18819577D01*
X10822191Y-18777637D01*
X10786784Y-18723126D01*
X10762545Y-18682709D01*
X10753558Y-18662968D01*
X10757374Y-18654487D01*
X10780744Y-18623829D01*
X10821890Y-18576568D01*
X10876765Y-18516816D01*
X10941323Y-18448688D01*
X11011515Y-18376296D01*
X11083294Y-18303756D01*
X11152614Y-18235180D01*
X11215427Y-18174682D01*
X11267686Y-18126376D01*
X11305343Y-18094376D01*
X11324352Y-18082795D01*
X11327969Y-18083463D01*
X11357407Y-18097247D01*
X11408338Y-18126692D01*
X11476162Y-18168953D01*
X11556277Y-18221185D01*
X11644085Y-18280542D01*
X11668304Y-18297189D01*
X11753532Y-18355644D01*
X11828879Y-18407133D01*
X11889937Y-18448656D01*
X11932296Y-18477211D01*
X11951548Y-18489798D01*
X11952373Y-18490107D01*
X11975927Y-18486393D01*
X12023641Y-18472207D01*
X12089521Y-18449851D01*
X12167570Y-18421627D01*
X12251793Y-18389835D01*
X12336195Y-18356778D01*
X12414779Y-18324756D01*
X12481550Y-18296071D01*
X12530514Y-18273023D01*
X12555673Y-18257915D01*
X12557235Y-18256402D01*
X12565137Y-18245585D01*
X12573106Y-18227315D01*
X12581959Y-18197956D01*
X12592513Y-18153870D01*
X12605585Y-18091418D01*
X12621992Y-18006964D01*
X12642552Y-17896869D01*
X12668081Y-17757495D01*
X12673454Y-17728587D01*
X12690063Y-17645777D01*
X12705800Y-17576118D01*
X12719102Y-17526212D01*
X12728407Y-17502659D01*
X12736170Y-17498719D01*
X12773458Y-17492150D01*
X12835275Y-17486944D01*
X12915828Y-17483106D01*
X13009325Y-17480639D01*
X13109974Y-17479547D01*
X13211983Y-17479835D01*
G37*
%TD*%
%LPC*%
D16*
%TO.C,H1*%
X0Y0D03*
%TD*%
%TO.C,H2*%
X16051000Y0D03*
%TD*%
%TO.C,H3*%
X0Y-104000000D03*
%TD*%
%TO.C,H4*%
X23950400Y-104000000D03*
%TD*%
D17*
%TO.C,J1*%
X2396000Y-85824000D03*
D18*
X-144000Y-85824000D03*
X2396000Y-83284000D03*
X-144000Y-83284000D03*
X2396000Y-80744000D03*
X-144000Y-80744000D03*
X2396000Y-78204000D03*
X-144000Y-78204000D03*
X2396000Y-75664000D03*
X-144000Y-75664000D03*
X2396000Y-73124000D03*
X-144000Y-73124000D03*
X2396000Y-70584000D03*
X-144000Y-70584000D03*
X2396000Y-68044000D03*
X-144000Y-68044000D03*
X2396000Y-65504000D03*
X-144000Y-65504000D03*
X2396000Y-62964000D03*
X-144000Y-62964000D03*
X2396000Y-60424000D03*
X-144000Y-60424000D03*
X2396000Y-57884000D03*
X-144000Y-57884000D03*
X2396000Y-55344000D03*
X-144000Y-55344000D03*
X2396000Y-52804000D03*
X-144000Y-52804000D03*
X2396000Y-50264000D03*
X-144000Y-50264000D03*
X2396000Y-47724000D03*
X-144000Y-47724000D03*
X2396000Y-45184000D03*
X-144000Y-45184000D03*
X2396000Y-42644000D03*
X-144000Y-42644000D03*
X2396000Y-40104000D03*
X-144000Y-40104000D03*
X2396000Y-37564000D03*
X-144000Y-37564000D03*
X2396000Y-35024000D03*
X-144000Y-35024000D03*
X2396000Y-32484000D03*
X-144000Y-32484000D03*
X2396000Y-29944000D03*
X-144000Y-29944000D03*
X2396000Y-27404000D03*
X-144000Y-27404000D03*
X2396000Y-24864000D03*
X-144000Y-24864000D03*
X2396000Y-22324000D03*
X-144000Y-22324000D03*
X2396000Y-19784000D03*
X-144000Y-19784000D03*
X2396000Y-17244000D03*
X-144000Y-17244000D03*
X2396000Y-14704000D03*
X-144000Y-14704000D03*
X2396000Y-12164000D03*
X-144000Y-12164000D03*
%TD*%
D17*
%TO.C,J2*%
X23895800Y28000D03*
D18*
X23895800Y-2512000D03*
X23895800Y-5052000D03*
X23895800Y-7592000D03*
X23895800Y-10132000D03*
X23895800Y-12672000D03*
X23895800Y-15212000D03*
X23895800Y-17752000D03*
X23895800Y-20292000D03*
X23895800Y-22832000D03*
X23895800Y-25372000D03*
X23895800Y-27912000D03*
X23895800Y-30452000D03*
X23895800Y-32992000D03*
X23895800Y-35532000D03*
X23895800Y-38072000D03*
X23895800Y-40612000D03*
X23895800Y-43152000D03*
X23895800Y-45692000D03*
X23895800Y-48232000D03*
X23895800Y-50772000D03*
X23895800Y-53312000D03*
X23895800Y-55852000D03*
X23895800Y-58392000D03*
X23895800Y-60932000D03*
X23895800Y-63472000D03*
X23895800Y-66012000D03*
X23895800Y-68552000D03*
X23895800Y-71092000D03*
X23895800Y-73632000D03*
X23895800Y-76172000D03*
X23895800Y-78712000D03*
X23895800Y-81252000D03*
X23895800Y-83792000D03*
X23895800Y-86332000D03*
X23895800Y-88872000D03*
X23895800Y-91412000D03*
X23895800Y-93952000D03*
X23895800Y-96492000D03*
X23895800Y-99032000D03*
X21355800Y28000D03*
X21355800Y-2512000D03*
X21355800Y-5052000D03*
X21355800Y-7592000D03*
X21355800Y-10132000D03*
X21355800Y-12672000D03*
X21355800Y-15212000D03*
X21355800Y-17752000D03*
X21355800Y-20292000D03*
X21355800Y-22832000D03*
X21355800Y-25372000D03*
X21355800Y-27912000D03*
X21355800Y-30452000D03*
X21355800Y-32992000D03*
X21355800Y-35532000D03*
X21355800Y-38072000D03*
X21355800Y-40612000D03*
X21355800Y-43152000D03*
X21355800Y-45692000D03*
X21355800Y-48232000D03*
X21355800Y-50772000D03*
X21355800Y-53312000D03*
X21355800Y-55852000D03*
X21355800Y-58392000D03*
X21355800Y-60932000D03*
X21355800Y-63472000D03*
X21355800Y-66012000D03*
X21355800Y-68552000D03*
X21355800Y-71092000D03*
X21355800Y-73632000D03*
X21355800Y-76172000D03*
X21355800Y-78712000D03*
X21355800Y-81252000D03*
X21355800Y-83792000D03*
X21355800Y-86332000D03*
X21355800Y-88872000D03*
X21355800Y-91412000D03*
X21355800Y-93952000D03*
X21355800Y-96492000D03*
X21355800Y-99032000D03*
%TD*%
%LPD*%
M02*
