M48
; DRILL file {KiCad 8.0.4} date 2024-07-29T15:07:11-0700
; FORMAT={-:-/ absolute / inch / decimal}
; #@! TF.CreationDate,2024-07-29T15:07:11-07:00
; #@! TF.GenerationSoftware,Kicad,Pcbnew,8.0.4
; #@! TF.FileFunction,Plated,1,4,PTH
FMAT,2
INCH
; #@! TA.AperFunction,Plated,PTH,ViaDrill
T1C0.0118
; #@! TA.AperFunction,Plated,PTH,ViaDrill
T2C0.0157
; #@! TA.AperFunction,Plated,PTH,ComponentDrill
T3C0.0236
; #@! TA.AperFunction,Plated,PTH,ComponentDrill
T4C0.0315
; #@! TA.AperFunction,Plated,PTH,ComponentDrill
T5C0.0362
; #@! TA.AperFunction,Plated,PTH,ComponentDrill
T6C0.0390
; #@! TA.AperFunction,Plated,PTH,ComponentDrill
T7C0.0394
; #@! TA.AperFunction,Plated,PTH,ComponentDrill
T8C0.0472
; #@! TA.AperFunction,Plated,PTH,ComponentDrill
T9C0.0492
; #@! TA.AperFunction,Plated,PTH,ComponentDrill
T10C0.0512
; #@! TA.AperFunction,Plated,PTH,ComponentDrill
T11C0.0906
; #@! TA.AperFunction,Plated,PTH,ComponentDrill
T12C0.1260
%
G90
G05
T1
X-0.1037Y-3.0196
X-0.1037Y-3.1196
X-0.103Y-0.02
X-0.103Y-0.12
X-0.103Y-0.22
X-0.103Y-0.32
X-0.103Y-0.42
X-0.103Y-0.52
X-0.103Y-0.62
X-0.103Y-0.72
X-0.103Y-0.82
X-0.103Y-0.92
X-0.103Y-1.02
X-0.103Y-1.12
X-0.103Y-1.22
X-0.103Y-1.32
X-0.103Y-1.42
X-0.103Y-1.52
X-0.103Y-1.62
X-0.103Y-1.72
X-0.103Y-1.82
X-0.103Y-1.92
X-0.103Y-2.02
X-0.103Y-2.12
X-0.103Y-2.22
X-0.103Y-2.32
X-0.103Y-2.42
X-0.103Y-2.52
X-0.103Y-2.62
X-0.103Y-2.72
X-0.103Y-2.82
X-0.103Y-2.92
X-0.103Y-3.22
X-0.103Y-3.32
X-0.103Y-3.42
X-0.103Y-3.52
X-0.103Y-3.62
X-0.103Y-3.72
X-0.103Y-3.82
X-0.103Y-3.92
X-0.073Y0.065
X0.042Y0.085
X0.137Y-4.17
X0.142Y0.085
X0.192Y-4.035
X0.197Y-3.665
X0.202Y-3.475
X0.202Y-3.99
X0.242Y0.085
X0.302Y-3.61
X0.342Y0.085
X0.342Y-4.17
X0.347Y-1.76
X0.347Y-1.84
X0.347Y-2.025
X0.347Y-2.095
X0.347Y-2.165
X0.347Y-2.235
X0.347Y-2.305
X0.347Y-2.375
X0.347Y-2.445
X0.347Y-2.515
X0.347Y-2.585
X0.417Y-2.59
X0.517Y-4.17
X0.642Y0.08
X0.672Y-2.25
X0.692Y-4.17
X0.742Y0.08
X0.782Y-4.085
X0.792Y-4.17
X0.832Y0.08
X0.922Y-4.01
X0.942Y0.08
X1.032Y-2.61
X1.032Y-4.03
X1.042Y0.08
X1.042Y-0.78
X1.047Y-0.065
X1.067Y-4.17
X1.077Y-1.07
X1.112Y-2.06
X1.117Y-0.845
X1.122Y0.005
X1.1245Y-2.1225
X1.142Y0.08
X1.157Y-2.04
X1.167Y-4.17
X1.172Y-0.775
X1.187Y-4.055
X1.202Y-1.125
X1.207Y-2.055
X1.212Y-3.54
X1.217Y-3.425
X1.222Y-0.9883
X1.222Y-1.215
X1.227Y-1.08
X1.237Y-3.295
X1.242Y0.08
X1.242Y-2.15
X1.267Y-4.17
X1.272Y-4.055
X1.277Y-3.425
X1.282Y-2.215
X1.287Y-0.89
X1.287Y-1.31
X1.297Y-3.295
X1.2995Y-1.0325
X1.322Y-1.4
X1.332Y-1.5
X1.337Y-3.425
X1.357Y-3.295
X1.362Y-4.055
X1.367Y-4.17
X1.4024Y-4.0554
X1.412Y-1.3
X1.432Y-2.25
X1.442Y0.08
X1.447Y-1.938
X1.4495Y-3.05
X1.452Y-0.6325
X1.457Y-1.665
X1.467Y-4.17
X1.472Y-1.505
X1.472Y-1.918
X1.502Y-0.705
X1.517Y-1.82
X1.517Y-3.425
X1.5205Y-0.7715
X1.537Y-3.295
X1.5393Y-3.08
X1.542Y0.08
X1.542Y-1.2275
X1.567Y-0.6325
X1.567Y-4.17
X1.577Y-3.425
X1.587Y-0.7275
X1.587Y-0.985
X1.587Y-2.98
X1.587Y-3.295
X1.607Y-2.305
X1.612Y-2.935
X1.617Y-1.86
X1.627Y-0.6325
X1.627Y-3.155
X1.632Y-1.895
X1.632Y-1.99
X1.632Y-2.15
X1.632Y-2.21
X1.632Y-2.275
X1.642Y0.08
X1.667Y-4.17
X1.682Y-3.08
X1.682Y-3.12
X1.6845Y-3.2875
X1.687Y-0.6325
X1.687Y-3.235
X1.722Y-0.7225
X1.722Y-3.18
X1.727Y-1.8023
X1.732Y-1.945
X1.737Y-1.835
X1.742Y-2.02
X1.742Y-2.115
X1.742Y-2.18
X1.7445Y-0.63
X1.747Y-2.23
X1.757Y-3.275
X1.767Y-2.295
X1.767Y-4.17
X1.807Y-0.6275
X1.807Y-3.145
X1.822Y-3.265
X1.842Y0.08
X1.8645Y-3.0
X1.867Y-1.005
X1.867Y-4.17
X1.872Y-0.705
X1.877Y-3.28
X1.897Y-2.39
X1.917Y-1.27
X1.917Y-1.33
X1.927Y-1.365
X1.937Y-2.92
X1.9395Y-2.3875
X1.942Y0.08
X1.967Y-4.17
X1.982Y-1.24
X1.987Y-0.98
X1.987Y-2.39
X1.987Y-3.145
X2.022Y-2.1487
X2.022Y-2.86
X2.042Y0.08
X2.042Y-2.105
X2.042Y-2.395
X2.047Y-1.29
X2.047Y-3.0
X2.052Y-2.0228
X2.0608Y-1.8312
X2.0645Y-1.8775
X2.067Y-1.98
X2.067Y-4.17
X2.092Y-0.665
X2.097Y-1.005
X2.1195Y-2.935
X2.132Y-3.265
X2.137Y-1.285
X2.142Y0.08
X2.162Y-1.4
X2.167Y-4.17
X2.172Y-3.145
X2.207Y-0.98
X2.207Y-1.86
X2.2345Y-3.0
X2.242Y0.08
X2.267Y-4.17
X2.3001Y-2.9256
X2.327Y-1.82
X2.342Y0.08
X2.347Y-1.71
X2.347Y-1.77
X2.352Y-3.145
X2.362Y-2.825
X2.367Y-4.17
X2.372Y-1.09
X2.377Y-1.035
X2.412Y-2.38
X2.4195Y-3.0
X2.427Y-2.965
X2.442Y0.08
X2.467Y-4.17
X2.507Y-2.46
X2.512Y-3.105
X2.517Y-0.965
X2.517Y-1.09
X2.522Y-2.36
X2.542Y0.08
X2.542Y-0.835
X2.5495Y-2.965
X2.552Y-3.305
X2.557Y-2.635
X2.557Y-4.135
X2.5595Y-1.92
X2.562Y-2.51
X2.571Y-0.932
X2.572Y-3.235
X2.592Y-1.06
X2.6045Y-2.965
X2.612Y-1.675
X2.622Y-0.965
X2.622Y-1.495
X2.622Y-2.55
X2.627Y-2.635
X2.642Y0.08
X2.6495Y-1.0775
X2.652Y-3.285
X2.66Y-1.805
X2.6645Y-1.5325
X2.669Y-0.924
X2.672Y-1.675
X2.672Y-4.065
X2.687Y-2.21
X2.697Y-1.06
X2.702Y-4.17
X2.707Y-2.25
X2.712Y-0.965
X2.712Y-2.09
X2.7145Y-3.765
X2.717Y-2.335
X2.722Y-1.765
X2.722Y-1.845
X2.722Y-1.92
X2.722Y-2.615
X2.732Y-2.54
X2.7395Y-3.485
X2.742Y0.08
X2.747Y-3.42
X2.767Y-4.13
X2.777Y-3.015
X2.777Y-3.965
X2.827Y-2.39
X2.842Y0.08
X2.8475Y-2.445
X2.857Y-1.725
X2.857Y-4.125
X2.862Y-2.025
X2.862Y-2.79
X2.872Y-2.925
X2.874Y-2.256
X2.877Y-1.97
X2.8869Y-2.42
X2.887Y-4.095
X2.907Y-1.7
X2.915Y-0.894
X2.917Y-1.595
X2.922Y-0.965
X2.922Y-2.31
X2.927Y-2.42
X2.937Y-4.175
X2.942Y0.08
X2.947Y-3.485
X2.952Y-2.385
X2.9656Y-1.5936
X2.967Y-0.84
X2.967Y-0.93
X2.982Y-3.735
X2.997Y-0.965
X3.007Y-2.755
X3.0165Y-0.8945
X3.042Y0.08
X3.042Y-1.57
X3.042Y-2.735
X3.047Y-2.555
X3.052Y-3.445
X3.057Y-0.96
X3.062Y-1.7
X3.062Y-2.435
X3.0795Y-0.895
X3.087Y-3.74
X3.102Y-0.96
X3.107Y-0.575
X3.107Y-1.585
X3.107Y-1.7
X3.142Y0.08
X3.142Y-0.895
X3.147Y-3.485
X3.157Y-4.18
X3.172Y-0.575
X3.177Y-1.6
X3.182Y-1.7
X3.187Y-2.575
X3.197Y-2.78
X3.232Y-2.405
X3.234Y-1.734
X3.242Y0.08
X3.247Y-1.56
X3.247Y-3.595
X3.262Y-0.575
X3.262Y-0.705
X3.267Y-2.41
X3.272Y-2.78
X3.282Y-2.54
X3.297Y-2.44
X3.297Y-2.57
X3.307Y-4.18
X3.312Y-1.57
X3.312Y-2.775
X3.322Y-0.575
X3.322Y-0.705
X3.342Y0.08
X3.357Y-2.425
X3.357Y-3.305
X3.367Y-1.585
X3.367Y-1.705
X3.382Y-0.575
X3.382Y-0.705
X3.387Y-0.04
X3.429Y-1.573
X3.432Y-0.04
X3.432Y-2.41
X3.437Y-1.735
X3.442Y0.08
X3.457Y-1.7
X3.477Y-2.545
X3.494Y-1.543
X3.497Y-4.185
X3.512Y-2.05
X3.5168Y-2.445
X3.517Y-0.04
X3.517Y-1.94
X3.517Y-2.245
X3.517Y-2.32
X3.527Y-1.99
X3.527Y-3.615
X3.542Y0.08
X3.542Y-1.5275
X3.557Y-2.385
X3.557Y-3.315
X3.562Y-0.555
X3.562Y-0.705
X3.562Y-2.145
X3.562Y-2.18
X3.567Y-1.565
X3.567Y-2.24
X3.567Y-2.28
X3.577Y-2.49
X3.592Y-1.445
X3.597Y-3.665
X3.597Y-4.185
X3.607Y-0.04
X3.617Y-1.5
X3.622Y-0.555
X3.622Y-0.705
X3.642Y0.08
X3.642Y-1.535
X3.647Y-2.505
X3.657Y-2.1586
X3.672Y-1.93
X3.677Y-1.88
X3.677Y-2.005
X3.677Y-2.335
X3.6815Y-2.0405
X3.692Y-3.85
X3.697Y-4.185
X3.702Y-1.81
X3.702Y-3.245
X3.712Y-0.705
X3.712Y-3.29
X3.722Y-2.185
X3.727Y-2.1425
X3.732Y-3.85
X3.737Y-1.815
X3.737Y-3.25
X3.742Y0.08
X3.77Y-3.806
X3.7795Y-0.645
X3.7795Y-0.71
X3.792Y-3.625
X3.797Y-4.185
X3.802Y-3.665
X3.807Y-0.085
X3.837Y-2.635
X3.842Y0.08
X3.852Y-3.495
X3.857Y-1.92
X3.857Y-1.98
X3.877Y-2.995
X3.882Y-0.474
X3.882Y-3.03
X3.897Y-4.185
X3.912Y-3.806
X3.942Y0.08
X3.9445Y-0.71
X3.9445Y-2.5975
X3.967Y-2.135
X3.997Y-4.185
X4.012Y-1.905
X4.022Y-0.24
X4.037Y-0.7
X4.042Y0.08
X4.042Y-1.975
X4.062Y-0.24
X4.087Y-3.635
X4.097Y-3.125
X4.097Y-4.185
X4.142Y0.08
X4.142Y-3.665
X4.1426Y-2.97
X4.157Y-3.625
X4.182Y-0.476
X4.182Y-1.33
X4.197Y-1.0523
X4.197Y-4.185
X4.222Y-1.445
X4.222Y-3.01
X4.238Y-3.854
X4.242Y0.08
X4.257Y-1.445
X4.257Y-3.09
X4.267Y-1.41
X4.276Y-3.854
X4.302Y-4.185
X4.316Y-3.806
X4.347Y-0.305
X4.352Y-0.419
X4.352Y-0.479
X4.352Y-0.539
X4.352Y-3.63
X4.352Y-3.665
X4.357Y0.03
X4.392Y-0.715
X4.397Y-3.495
X4.402Y-4.185
X4.456Y-3.806
X4.457Y-0.65
X4.4917Y-0.3897
X4.492Y-3.665
X4.527Y-4.13
X4.532Y-0.54
X4.532Y-0.64
X4.532Y-0.69
X4.532Y-0.7397
X4.547Y-2.47
X4.592Y-2.43
X4.597Y-3.69
X4.622Y-3.635
X4.642Y-2.39
X4.647Y-0.975
X4.647Y-1.555
X4.677Y-4.135
X4.697Y-3.24
X4.772Y-0.975
X4.772Y-1.139
X4.807Y-1.81
X4.807Y-1.87
X4.807Y-1.93
X4.812Y-4.185
X4.862Y-3.7448
X4.912Y-4.185
X4.922Y-1.139
X4.932Y-3.7448
X4.942Y-1.875
X4.967Y-1.24
X4.967Y-1.73
X4.967Y-3.725
X4.9707Y-2.4112
X5.002Y-1.525
X5.002Y-3.7448
X5.0045Y-1.4525
X5.012Y-1.004
X5.012Y-1.139
X5.012Y-2.415
X5.012Y-4.185
X5.067Y-1.835
X5.0719Y-3.7448
X5.072Y-1.004
X5.072Y-1.139
X5.077Y-2.335
X5.107Y-3.685
X5.117Y-4.185
X5.132Y-1.004
X5.132Y-1.139
X5.142Y-3.745
X5.192Y-1.004
X5.192Y-1.139
X5.212Y-3.745
X5.217Y-4.185
X5.227Y-1.985
X5.252Y-1.14
X5.317Y-0.95
X5.317Y-1.145
X5.317Y-4.185
X5.322Y-1.93
X5.332Y-1.485
X5.367Y-0.34
X5.392Y-0.239
X5.392Y-0.289
X5.392Y-0.389
X5.392Y-0.439
X5.392Y-0.489
X5.392Y-0.539
X5.392Y-0.589
X5.392Y-0.639
X5.392Y-0.689
X5.392Y-0.739
X5.392Y-0.789
X5.392Y-0.839
X5.422Y-4.185
X5.442Y-0.96
X5.447Y-1.87
X5.447Y-1.93
X5.447Y-1.99
X5.447Y-2.65
X5.522Y-4.185
X5.537Y-0.36
X5.537Y-0.42
X5.537Y-0.48
X5.537Y-0.539
X5.537Y-0.599
X5.537Y-0.68
X5.537Y-0.74
X5.537Y-0.799
X5.587Y-1.46
X5.617Y-3.71
X5.622Y-4.185
X5.642Y0.08
X5.647Y-2.995
X5.647Y-3.105
X5.647Y-3.24
X5.652Y-3.745
X5.6581Y-0.1889
X5.667Y-1.665
X5.677Y-0.76
X5.677Y-1.46
X5.682Y-2.73
X5.707Y-1.27
X5.712Y-3.745
X5.717Y-2.69
X5.717Y-4.185
X5.772Y-3.745
X5.797Y-1.045
X5.802Y-1.885
X5.817Y-1.815
X5.817Y-4.185
X5.821Y-0.981
X5.832Y-3.745
X5.857Y-0.98
X5.857Y-1.815
X5.857Y-1.945
X5.867Y-1.11
X5.867Y-3.685
X5.897Y-1.815
X5.902Y-0.98
X5.902Y-3.745
X5.912Y-0.85
X5.912Y-1.685
X5.917Y-2.765
X5.917Y-3.035
X5.917Y-4.185
X5.922Y-3.28
X5.937Y-1.815
X5.937Y-3.74
X5.942Y-0.98
X5.967Y-2.72
X5.967Y-3.2
X5.9695Y-2.6775
X5.9695Y-2.9525
X5.9695Y-2.9975
X5.972Y-3.745
X5.977Y-1.015
X5.977Y-1.855
X5.992Y-4.185
X6.037Y-1.015
X6.037Y-1.855
X6.072Y0.075
X6.092Y-4.185
X6.107Y-2.945
X6.107Y-3.005
X6.137Y-1.895
X6.137Y-1.94
X6.137Y-1.98
X6.137Y-2.025
X6.137Y-2.07
X6.142Y-1.07
X6.142Y-1.12
X6.142Y-1.17
X6.142Y-1.22
X6.162Y0.045
X6.192Y-4.185
X6.222Y-1.27
X6.277Y-4.185
X6.327Y-3.87
X6.342Y0.08
X6.392Y-4.185
X6.397Y-3.89
X6.442Y0.08
X6.492Y-4.185
X6.502Y-0.505
X6.542Y0.08
X6.562Y-0.47
X6.592Y-4.185
X6.617Y-0.43
X6.642Y0.08
X6.662Y-0.395
X6.692Y-4.185
X6.7159Y-0.3661
X6.727Y-0.185
X6.762Y-0.335
X6.797Y-0.15
X6.912Y-3.97
X6.917Y-0.145
X6.917Y-0.245
X6.917Y-0.345
X6.917Y-0.445
X6.917Y-0.545
X6.917Y-0.645
X6.917Y-0.745
X6.917Y-0.845
X6.917Y-0.945
X6.917Y-1.045
X6.917Y-1.145
X6.917Y-1.245
X6.917Y-1.345
X6.917Y-1.445
X6.917Y-1.545
X6.917Y-1.645
X6.917Y-1.745
X6.917Y-1.845
X6.917Y-1.945
X6.917Y-2.045
X6.917Y-2.145
X6.917Y-2.245
X6.917Y-2.345
X6.917Y-2.445
X6.917Y-2.545
X6.917Y-2.645
X6.917Y-2.745
X6.917Y-2.845
X6.917Y-2.945
X6.917Y-3.045
X6.917Y-3.145
X6.917Y-3.245
X6.917Y-3.345
X6.917Y-3.445
X6.917Y-3.545
X6.917Y-3.645
X6.917Y-3.745
X6.917Y-3.845
T2
X0.197Y-1.6205
X0.197Y-1.6805
X0.327Y-1.62
X0.327Y-1.68
X0.732Y-1.6205
X0.732Y-1.681
X0.887Y-4.17
X1.017Y-1.6205
X1.017Y-1.6805
X1.052Y-4.085
X1.057Y-3.66
X1.232Y-0.105
X1.232Y-0.26
X1.232Y-4.055
X1.272Y-1.625
X1.317Y-4.055
X1.352Y-2.26
X1.392Y-1.905
X1.397Y-3.2955
X1.397Y-3.425
X1.457Y-3.2955
X1.457Y-3.425
X1.5115Y-2.11
X1.517Y-3.545
X1.557Y-2.825
X1.5715Y-2.11
X1.577Y-1.665
X1.632Y-2.055
X1.647Y-4.1
X1.652Y-3.655
X1.717Y-0.805
X1.717Y-0.945
X1.717Y-1.005
X1.752Y-2.07
X1.817Y-0.36
X1.872Y-1.1
X1.8817Y-0.575
X1.932Y-1.1
X1.962Y-3.3829
X1.972Y-0.67
X1.982Y-0.905
X2.012Y-3.3029
X2.017Y-3.4579
X2.032Y-0.67
X2.102Y-0.905
X2.102Y-0.955
X2.122Y-3.3079
X2.122Y-3.4579
X2.142Y-1.35
X2.152Y-0.725
X2.172Y-3.3829
X2.177Y-2.055
X2.1809Y-2.093
X2.2125Y-0.725
X2.227Y-3.2584
X2.237Y-0.81
X2.277Y-0.575
X2.307Y-3.2584
X2.322Y-2.095
X2.332Y-2.055
X2.367Y-0.855
X2.367Y-0.915
X2.367Y-0.9803
X2.387Y-3.2539
X2.412Y-1.68
X2.422Y-0.81
X2.422Y-0.87
X2.452Y-3.3
X2.462Y-3.845
X2.462Y-4.015
X2.4923Y-3.895
X2.502Y-0.84
X2.527Y-2.0
X2.527Y-2.06
X2.527Y-2.12
X2.527Y-2.18
X2.527Y-2.24
X2.527Y-2.3
X2.657Y-2.0
X2.657Y-2.06
X2.657Y-2.12
X2.657Y-2.3
X2.72Y-1.98
X2.72Y-2.14
X2.747Y-0.96
X2.747Y-3.59
X2.7745Y-3.6175
X2.824Y-2.0
X2.824Y-2.295
X2.827Y-0.785
X2.827Y-0.845
X2.827Y-0.905
X2.827Y-0.965
X2.832Y-2.1192
X2.832Y-2.16
X2.912Y-1.405
X2.912Y-1.536
X2.912Y-2.35
X2.917Y-1.815
X2.922Y-0.84
X2.922Y-2.604
X2.922Y-2.735
X2.972Y-1.405
X2.972Y-1.536
X2.987Y-1.702
X2.997Y-2.425
X2.997Y-2.56
X3.004Y-1.598
X3.032Y-1.405
X3.092Y-1.405
X3.092Y-1.97
X3.092Y-2.17
X3.102Y-2.604
X3.102Y-2.735
X3.117Y-0.045
X3.122Y-2.438
X3.132Y-2.542
X3.137Y-0.435
X3.152Y-0.96
X3.162Y-2.735
X3.167Y-2.17
X3.1795Y-3.9475
X3.214Y-1.97
X3.222Y-2.542
X3.222Y-2.735
X3.222Y-3.99
X3.232Y-0.545
X3.242Y-2.438
X3.262Y-1.702
X3.272Y-1.405
X3.272Y-1.536
X3.28Y-1.598
X3.282Y-2.735
X3.292Y-1.97
X3.292Y-2.0995
X3.294Y-2.041
X3.302Y-1.702
X3.332Y-1.405
X3.332Y-1.536
X3.34Y-2.604
X3.342Y-2.735
X3.392Y-1.405
X3.392Y-1.538
X3.402Y-2.604
X3.402Y-2.735
X3.442Y-0.575
X3.442Y-0.705
X3.458Y-2.44
X3.477Y-0.04
X3.487Y-3.29
X3.487Y-3.35
X3.492Y-1.705
X3.502Y-0.575
X3.502Y-0.705
X3.522Y-2.6
X3.522Y-2.735
X3.5365Y-2.5497
X3.547Y-3.84
X3.56Y-1.865
X3.56Y-1.925
X3.56Y-2.0
X3.56Y-2.315
X3.562Y-0.04
X3.582Y-2.604
X3.582Y-2.735
X3.592Y-3.7
X3.652Y-3.29
X3.657Y-3.345
X3.6608Y-1.7637
X3.6639Y-2.3959
X3.664Y-1.846
X3.712Y-0.95
X3.712Y-1.08
X3.712Y-1.14
X3.712Y-1.27
X3.717Y-2.2897
X3.726Y-1.69
X3.726Y-1.742
X3.726Y-1.86
X3.726Y-2.4
X3.726Y-2.458
X3.737Y-0.435
X3.752Y-3.315
X3.752Y-3.365
X3.762Y-0.08
X3.772Y-0.95
X3.772Y-1.08
X3.772Y-1.14
X3.772Y-1.27
X3.782Y0.085
X3.832Y-0.95
X3.832Y-1.08
X3.832Y-1.14
X3.832Y-1.27
X3.852Y-3.84
X3.857Y-1.68
X3.857Y-1.74
X3.857Y-1.86
X3.857Y-2.1
X3.857Y-2.16
X3.857Y-2.2631
X3.857Y-2.4
X3.857Y-2.46
X3.912Y-3.63
X3.917Y-3.305
X3.917Y-3.365
X3.922Y-0.245
X3.927Y-0.41
X3.957Y-1.17
X3.972Y-3.815
X3.978Y-0.482
X4.012Y-1.055
X4.012Y-1.17
X4.027Y-3.29
X4.027Y-3.35
X4.047Y-2.05
X4.062Y-1.17
X4.086Y-0.482
X4.087Y-2.075
X4.092Y-3.84
X4.102Y-0.935
X4.102Y-1.05
X4.109Y-2.034
X4.137Y-3.7
X4.152Y-0.97
X4.157Y-1.02
X4.182Y-0.245
X4.192Y-3.29
X4.192Y-3.34
X4.2315Y-0.9573
X4.252Y-2.22
X4.2915Y-0.9573
X4.292Y-1.515
X4.292Y-3.315
X4.292Y-3.365
X4.302Y-1.1323
X4.342Y-1.2677
X4.397Y-3.84
X4.4115Y-0.9573
X4.437Y-2.16
X4.437Y-2.295
X4.452Y-1.33
X4.452Y-1.39
X4.457Y-3.305
X4.457Y-3.365
X4.472Y-1.455
X4.472Y-1.585
X4.497Y-2.16
X4.497Y-2.295
X4.507Y-3.815
X4.5147Y-0.2
X4.517Y-0.26
X4.532Y-1.455
X4.532Y-1.585
X4.6367Y-4.06
X4.6519Y-3.93
X4.787Y-0.439
X4.787Y-0.494
X4.787Y-0.549
X4.802Y-3.7448
X4.837Y-0.394
X4.837Y-0.594
X4.892Y-0.394
X4.892Y-0.594
X4.942Y-0.394
X4.942Y-0.594
X4.992Y-0.439
X4.992Y-0.494
X4.992Y-0.549
X5.047Y-1.985
X5.277Y-1.8
X5.282Y-3.745
X5.342Y-3.745
X5.352Y-1.775
X5.3545Y-0.1925
X5.377Y-3.575
X5.377Y-3.63
X5.407Y-3.545
X5.412Y-1.775
X5.447Y-2.925
X5.447Y-2.985
X5.462Y-3.61
X5.472Y-2.785
X5.492Y-1.16
X5.492Y-1.225
X5.502Y-2.505
X5.55Y-0.8935
X5.5515Y-0.9535
X5.5635Y-3.643
X5.572Y0.025
X5.577Y-1.0503
X5.582Y-3.7448
X5.5944Y-1.8225
X5.632Y-1.33
X5.682Y-2.845
X5.717Y-1.05
X5.732Y-2.74
X5.732Y-3.015
X5.732Y-3.26
X5.762Y-2.565
X5.762Y-2.84
X5.762Y-2.91
X5.762Y-3.085
X5.762Y-3.155
X5.767Y-1.83
X5.802Y-1.13
X5.802Y-1.175
X5.802Y-1.22
X5.807Y-1.415
X5.807Y-1.96
X5.807Y-2.005
X5.807Y-2.05
X5.822Y-2.565
X5.822Y-2.84
X5.822Y-3.085
X5.822Y-3.565
X5.842Y-1.61
X5.852Y-3.365
X5.867Y-1.415
X5.882Y-2.5647
X5.882Y-2.84
X5.882Y-3.085
X5.897Y-3.31
X5.897Y-3.36
X5.897Y-3.405
X5.909Y-1.255
X5.909Y-1.3
X5.912Y-1.35
X5.912Y-1.405
X5.912Y-1.455
X5.952Y-1.255
X5.952Y-1.3
X5.975Y-1.721
X5.997Y-1.3
X6.032Y-0.27
X6.032Y-0.6133
X6.032Y-3.745
X6.035Y-1.721
X6.056Y-3.714
X6.067Y-2.6
X6.075Y-2.075
X6.077Y-1.61
X6.087Y-1.245
X6.093Y-1.721
X6.097Y-1.86
X6.102Y-1.03
X6.107Y-3.54
X6.112Y-3.13
X6.117Y-1.365
X6.137Y-1.82
X6.142Y-0.97
X6.167Y-0.4
X6.167Y-0.46
X6.172Y-0.6133
X6.187Y-1.67
X6.187Y-1.75
X6.202Y-2.6
X6.202Y-2.685
X6.237Y-3.05
X6.252Y0.06
X6.252Y-3.44
X6.262Y-3.71
X6.322Y-1.76
X6.322Y-1.83
X6.327Y-0.245
X6.602Y-0.2453
X6.847Y-3.935
T5
X1.932Y-3.5891
X1.932Y-3.6923
X2.0304Y-3.5891
X2.0304Y-3.6923
X2.1092Y-3.5891
X2.1092Y-3.6923
X2.2076Y-3.5891
X2.2076Y-3.6923
T6
X0.4348Y-4.122
X0.612Y-4.122
X5.7324Y0.0267
X5.9096Y0.0267
T7
X0.0001Y0.0
X0.0001Y-0.1
X0.0001Y-0.2
X0.0001Y-0.3
X0.0001Y-0.4
X0.0001Y-0.5
X0.0001Y-0.6
X0.0001Y-0.7
X0.0001Y-0.8
X0.0001Y-0.9
X0.0001Y-1.0
X0.0001Y-1.1
X0.0001Y-1.2
X0.0001Y-1.3
X0.0001Y-1.4
X0.0001Y-1.5
X0.0001Y-1.6
X0.0001Y-1.7
X0.0001Y-1.8
X0.0001Y-1.9
X0.0001Y-2.0
X0.0001Y-2.1
X0.0001Y-2.2
X0.0001Y-2.3
X0.0001Y-2.4
X0.0001Y-2.5
X0.0001Y-2.6
X0.0001Y-2.7
X0.0001Y-2.8
X0.0001Y-2.9
X0.0001Y-3.0
X0.0001Y-3.1
X0.0001Y-3.2
X0.0001Y-3.3
X0.0001Y-3.4
X0.0001Y-3.5
X0.0001Y-3.6
X0.0001Y-3.7
X0.0001Y-3.8
X0.0001Y-3.9
X0.1001Y0.0
X0.1001Y-0.1
X0.1001Y-0.2
X0.1001Y-0.3
X0.1001Y-0.4
X0.1001Y-0.5
X0.1001Y-0.6
X0.1001Y-0.7
X0.1001Y-0.8
X0.1001Y-0.9
X0.1001Y-1.0
X0.1001Y-1.1
X0.1001Y-1.2
X0.1001Y-1.3
X0.1001Y-1.4
X0.1001Y-1.5
X0.1001Y-1.6
X0.1001Y-1.7
X0.1001Y-1.8
X0.1001Y-1.9
X0.1001Y-2.0
X0.1001Y-2.1
X0.1001Y-2.2
X0.1001Y-2.3
X0.1001Y-2.4
X0.1001Y-2.5
X0.1001Y-2.6
X0.1001Y-2.7
X0.1001Y-2.8
X0.1001Y-2.9
X0.1001Y-3.0
X0.1001Y-3.1
X0.1001Y-3.2
X0.1001Y-3.3
X0.1001Y-3.4
X0.1001Y-3.5
X0.1001Y-3.6
X0.1001Y-3.7
X0.1001Y-3.8
X0.1001Y-3.9
X0.825Y0.0
X0.825Y-0.1
X0.825Y-0.2
X0.825Y-0.3
X0.825Y-0.4
X0.825Y-0.5
X0.825Y-0.6
X0.825Y-0.7
X0.825Y-0.8
X0.825Y-0.9
X0.825Y-1.0
X0.825Y-1.1
X0.825Y-1.2
X0.825Y-1.3
X0.825Y-1.4
X0.825Y-1.5
X0.825Y-1.6
X0.825Y-1.7
X0.825Y-1.8
X0.825Y-1.9
X0.825Y-2.0
X0.825Y-2.1
X0.825Y-2.2
X0.825Y-2.3
X0.825Y-2.4
X0.825Y-2.5
X0.825Y-2.6
X0.825Y-2.7
X0.825Y-2.8
X0.825Y-2.9
X0.825Y-3.0
X0.825Y-3.1
X0.825Y-3.2
X0.825Y-3.3
X0.825Y-3.4
X0.825Y-3.5
X0.825Y-3.6
X0.825Y-3.7
X0.825Y-3.8
X0.825Y-3.9
X0.925Y0.0
X0.925Y-0.1
X0.925Y-0.2
X0.925Y-0.3
X0.925Y-0.4
X0.925Y-0.5
X0.925Y-0.6
X0.925Y-0.7
X0.925Y-0.8
X0.925Y-0.9
X0.925Y-1.0
X0.925Y-1.1
X0.925Y-1.2
X0.925Y-1.3
X0.925Y-1.4
X0.925Y-1.5
X0.925Y-1.6
X0.925Y-1.7
X0.925Y-1.8
X0.925Y-1.9
X0.925Y-2.0
X0.925Y-2.1
X0.925Y-2.2
X0.925Y-2.3
X0.925Y-2.4
X0.925Y-2.5
X0.925Y-2.6
X0.925Y-2.7
X0.925Y-2.8
X0.925Y-2.9
X0.925Y-3.0
X0.925Y-3.1
X0.925Y-3.2
X0.925Y-3.3
X0.925Y-3.4
X0.925Y-3.5
X0.925Y-3.6
X0.925Y-3.7
X0.925Y-3.8
X0.925Y-3.9
X1.3522Y-0.4402
X1.3522Y-0.5402
X1.4522Y-0.4402
X1.4522Y-0.5402
X1.5522Y-0.4402
X1.5522Y-0.5402
X1.6522Y-0.4402
X1.6522Y-0.5402
X1.7522Y-0.4402
X1.7522Y-0.5402
X2.2506Y-0.332
X2.2955Y-0.232
X2.2955Y-0.432
X2.3404Y-0.332
X2.3853Y-0.232
X2.3853Y-0.432
X2.4302Y-0.332
X2.475Y-0.232
X2.475Y-0.432
X2.5199Y-0.332
X2.5648Y-0.232
X2.5648Y-0.432
X2.581Y-3.456
X2.581Y-3.556
X2.581Y-3.656
X2.581Y-3.756
X2.581Y-3.856
X2.581Y-3.956
X2.6097Y-0.332
X2.6546Y-0.232
X2.6546Y-0.432
X3.0268Y-2.9452
X3.0268Y-3.0452
X3.1268Y-2.9452
X3.1268Y-3.0452
X3.2268Y-2.9452
X3.2268Y-3.0452
X3.3268Y-2.9452
X3.3268Y-3.0452
X3.381Y-3.456
X3.381Y-3.556
X3.381Y-3.656
X3.381Y-3.756
X3.381Y-3.856
X3.381Y-3.956
X3.4268Y-2.9452
X3.4268Y-3.0452
X3.5268Y-2.9452
X3.5268Y-3.0452
X3.6268Y-2.9452
X3.6268Y-3.0452
X4.7568Y-1.2852
X4.7568Y-1.3852
X4.7568Y-1.4852
X4.7568Y-1.5852
X4.7568Y-1.6852
X4.7768Y-2.4848
X4.7768Y-2.5848
X4.7768Y-2.6848
X4.7768Y-2.7848
X4.7768Y-2.8848
X4.7768Y-2.9848
X4.7768Y-3.0848
X4.777Y-3.53
X4.777Y-3.63
X4.7772Y-3.2602
X4.7772Y-3.3602
X4.8568Y-1.2852
X4.8568Y-1.3852
X4.8568Y-1.4852
X4.8568Y-1.5852
X4.8568Y-1.6852
X4.8621Y-3.97
X4.8621Y-4.07
X4.8768Y-2.4848
X4.8768Y-2.5848
X4.8768Y-2.6848
X4.8768Y-2.7848
X4.8768Y-2.8848
X4.8768Y-2.9848
X4.8768Y-3.0848
X4.877Y-3.53
X4.877Y-3.63
X4.8772Y-3.2602
X4.8772Y-3.3602
X4.9621Y-3.97
X4.9621Y-4.07
X4.977Y-3.53
X4.977Y-3.63
X4.9772Y-3.2602
X4.9772Y-3.3602
X5.0621Y-3.97
X5.0621Y-4.07
X5.0768Y-1.2852
X5.0768Y-1.3852
X5.0768Y-1.4852
X5.0768Y-1.5852
X5.0768Y-1.6852
X5.077Y-2.4848
X5.077Y-2.5848
X5.077Y-2.6848
X5.077Y-2.7848
X5.077Y-2.8848
X5.077Y-2.9848
X5.077Y-3.0848
X5.077Y-3.53
X5.077Y-3.63
X5.0772Y-3.2602
X5.0772Y-3.3602
X5.1621Y-3.97
X5.1621Y-4.07
X5.1768Y-1.2852
X5.1768Y-1.3852
X5.1768Y-1.4852
X5.1768Y-1.5852
X5.1768Y-1.6852
X5.177Y-2.4848
X5.177Y-2.5848
X5.177Y-2.6848
X5.177Y-2.7848
X5.177Y-2.8848
X5.177Y-2.9848
X5.177Y-3.0848
X5.177Y-3.53
X5.177Y-3.63
X5.1772Y-3.2602
X5.1772Y-3.3602
X5.2621Y-3.97
X5.2621Y-4.07
X5.277Y-3.53
X5.277Y-3.63
X5.368Y-2.486
X5.368Y-2.586
X5.368Y-2.686
X5.368Y-2.786
X5.368Y-2.886
X5.368Y-2.986
X5.4469Y-3.97
X5.4469Y-4.07
X5.5469Y-3.97
X5.5469Y-4.07
X5.6469Y-3.97
X5.6469Y-4.07
X5.7469Y-3.97
X5.7469Y-4.07
X5.8469Y-3.97
X5.8469Y-4.07
X6.0318Y-3.97
X6.0318Y-4.07
X6.1318Y-3.97
X6.1318Y-4.07
X6.2318Y-3.97
X6.2318Y-4.07
X6.3318Y-3.97
X6.3318Y-4.07
X6.4318Y-3.97
X6.4318Y-4.07
X6.5318Y-3.97
X6.5318Y-4.07
X6.6318Y-3.97
X6.6318Y-4.07
T8
X0.387Y-3.6064
X0.387Y-3.7836
X0.6429Y-3.6064
X0.6429Y-3.7836
T9
X6.382Y-0.6261
X6.382Y-0.7835
X6.382Y-0.941
X6.382Y-1.1969
X6.382Y-1.3544
X6.382Y-1.5119
X6.382Y-1.6694
X6.382Y-2.4761
X6.382Y-2.6335
X6.382Y-2.791
X6.382Y-3.0469
X6.382Y-3.2044
X6.382Y-3.3619
X6.382Y-3.5194
T10
X0.3852Y-4.024
X0.6612Y-4.024
X5.6832Y-0.0713
X5.9592Y-0.0713
T11
X1.8111Y-3.5754
X1.8111Y-3.799
X2.3285Y-3.5754
X2.3285Y-3.799
T12
X1.9731Y-0.332
X2.9569Y-0.332
T3
G00X3.5319Y-3.9121
M15
G01X3.5319Y-3.9554
M16
G05
G00X3.5319Y-4.0865
M15
G01X3.5319Y-4.1101
M16
G05
G00X3.8721Y-3.9121
M15
G01X3.8721Y-3.9554
M16
G05
G00X3.8721Y-4.0865
M15
G01X3.8721Y-4.1101
M16
G05
G00X3.8819Y-0.0104
M15
G01X3.8819Y0.0132
M16
G05
G00X3.8819Y-0.1849
M15
G01X3.8819Y-0.1415
M16
G05
G00X4.0769Y-3.9121
M15
G01X4.0769Y-3.9554
M16
G05
G00X4.0769Y-4.0865
M15
G01X4.0769Y-4.1101
M16
G05
G00X4.2221Y-0.0104
M15
G01X4.2221Y0.0132
M16
G05
G00X4.2221Y-0.1849
M15
G01X4.2221Y-0.1415
M16
G05
G00X4.4171Y-3.9121
M15
G01X4.4171Y-3.9554
M16
G05
G00X4.4171Y-4.0865
M15
G01X4.4171Y-4.1101
M16
G05
G00X6.3019Y-0.0104
M15
G01X6.3019Y0.0132
M16
G05
G00X6.3019Y-0.1849
M15
G01X6.3019Y-0.1415
M16
G05
G00X6.6421Y-0.0104
M15
G01X6.6421Y0.0132
M16
G05
G00X6.6421Y-0.1849
M15
G01X6.6421Y-0.1415
M16
G05
T4
G00X1.3121Y-0.1951
M15
G01X1.3121Y-0.2227
M16
G05
G00X1.5228Y-0.0121
M15
G01X1.4952Y-0.0121
M16
G05
G00X1.7059Y-0.1951
M15
G01X1.7059Y-0.2227
M16
G05
M30
