%TF.GenerationSoftware,KiCad,Pcbnew,8.0.4*%
%TF.CreationDate,2024-07-29T15:07:11-07:00*%
%TF.ProjectId,PETER,50455445-522e-46b6-9963-61645f706362,0*%
%TF.SameCoordinates,Original*%
%TF.FileFunction,Soldermask,Top*%
%TF.FilePolarity,Negative*%
%FSLAX46Y46*%
G04 Gerber Fmt 4.6, Leading zero omitted, Abs format (unit mm)*
G04 Created by KiCad (PCBNEW 8.0.4) date 2024-07-29 15:07:11*
%MOMM*%
%LPD*%
G01*
G04 APERTURE LIST*
G04 Aperture macros list*
%AMRoundRect*
0 Rectangle with rounded corners*
0 $1 Rounding radius*
0 $2 $3 $4 $5 $6 $7 $8 $9 X,Y pos of 4 corners*
0 Add a 4 corners polygon primitive as box body*
4,1,4,$2,$3,$4,$5,$6,$7,$8,$9,$2,$3,0*
0 Add four circle primitives for the rounded corners*
1,1,$1+$1,$2,$3*
1,1,$1+$1,$4,$5*
1,1,$1+$1,$6,$7*
1,1,$1+$1,$8,$9*
0 Add four rect primitives between the rounded corners*
20,1,$1+$1,$2,$3,$4,$5,0*
20,1,$1+$1,$4,$5,$6,$7,0*
20,1,$1+$1,$6,$7,$8,$9,0*
20,1,$1+$1,$8,$9,$2,$3,0*%
G04 Aperture macros list end*
%ADD10C,2.802000*%
%ADD11RoundRect,0.225500X0.225500X0.300500X-0.225500X0.300500X-0.225500X-0.300500X0.225500X-0.300500X0*%
%ADD12RoundRect,0.188000X-0.643000X-0.188000X0.643000X-0.188000X0.643000X0.188000X-0.643000X0.188000X0*%
%ADD13RoundRect,0.175500X-0.538000X-0.175500X0.538000X-0.175500X0.538000X0.175500X-0.538000X0.175500X0*%
%ADD14RoundRect,0.250500X-0.250500X-0.275500X0.250500X-0.275500X0.250500X0.275500X-0.250500X0.275500X0*%
%ADD15RoundRect,0.225500X-0.300500X0.225500X-0.300500X-0.225500X0.300500X-0.225500X0.300500X0.225500X0*%
%ADD16RoundRect,0.244250X0.244250X0.406750X-0.244250X0.406750X-0.244250X-0.406750X0.244250X-0.406750X0*%
%ADD17RoundRect,0.051000X-0.850000X-0.850000X0.850000X-0.850000X0.850000X0.850000X-0.850000X0.850000X0*%
%ADD18O,1.802000X1.802000*%
%ADD19RoundRect,0.051000X0.850000X-0.850000X0.850000X0.850000X-0.850000X0.850000X-0.850000X-0.850000X0*%
%ADD20C,0.752000*%
%ADD21RoundRect,0.051000X-0.300000X-0.725000X0.300000X-0.725000X0.300000X0.725000X-0.300000X0.725000X0*%
%ADD22RoundRect,0.051000X-0.150000X-0.725000X0.150000X-0.725000X0.150000X0.725000X-0.150000X0.725000X0*%
%ADD23O,1.102000X2.202000*%
%ADD24O,1.102000X1.702000*%
%ADD25RoundRect,0.225500X-0.225500X-0.300500X0.225500X-0.300500X0.225500X0.300500X-0.225500X0.300500X0*%
%ADD26RoundRect,0.225500X0.300500X-0.225500X0.300500X0.225500X-0.300500X0.225500X-0.300500X-0.225500X0*%
%ADD27RoundRect,0.301000X0.351000X0.301000X-0.351000X0.301000X-0.351000X-0.301000X0.351000X-0.301000X0*%
%ADD28RoundRect,0.244250X-0.406750X0.244250X-0.406750X-0.244250X0.406750X-0.244250X0.406750X0.244250X0*%
%ADD29RoundRect,0.250500X0.250500X0.275500X-0.250500X0.275500X-0.250500X-0.275500X0.250500X-0.275500X0*%
%ADD30RoundRect,0.244250X0.406750X-0.244250X0.406750X0.244250X-0.406750X0.244250X-0.406750X-0.244250X0*%
%ADD31RoundRect,0.051000X-1.100000X-1.100000X1.100000X-1.100000X1.100000X1.100000X-1.100000X1.100000X0*%
%ADD32C,2.302000*%
%ADD33RoundRect,0.250500X-0.275500X0.250500X-0.275500X-0.250500X0.275500X-0.250500X0.275500X0.250500X0*%
%ADD34RoundRect,0.102000X-1.110000X0.620000X-1.110000X-0.620000X1.110000X-0.620000X1.110000X0.620000X0*%
%ADD35RoundRect,0.051000X-0.600000X-0.200000X0.600000X-0.200000X0.600000X0.200000X-0.600000X0.200000X0*%
%ADD36RoundRect,0.250500X0.275500X-0.250500X0.275500X0.250500X-0.275500X0.250500X-0.275500X-0.250500X0*%
%ADD37RoundRect,0.269616X0.656384X-0.431384X0.656384X0.431384X-0.656384X0.431384X-0.656384X-0.431384X0*%
%ADD38RoundRect,0.051000X-1.750000X0.900000X-1.750000X-0.900000X1.750000X-0.900000X1.750000X0.900000X0*%
%ADD39C,1.852000*%
%ADD40C,2.202000*%
%ADD41C,1.302000*%
%ADD42RoundRect,0.051000X-1.250000X0.900000X-1.250000X-0.900000X1.250000X-0.900000X1.250000X0.900000X0*%
%ADD43RoundRect,0.051000X-0.900000X1.250000X-0.900000X-1.250000X0.900000X-1.250000X0.900000X1.250000X0*%
%ADD44RoundRect,0.188000X0.188000X-0.863000X0.188000X0.863000X-0.188000X0.863000X-0.188000X-0.863000X0*%
%ADD45RoundRect,0.051000X-1.000000X1.750000X-1.000000X-1.750000X1.000000X-1.750000X1.000000X1.750000X0*%
%ADD46RoundRect,0.125500X0.125500X-0.663000X0.125500X0.663000X-0.125500X0.663000X-0.125500X-0.663000X0*%
%ADD47RoundRect,0.269616X-0.431384X-0.656384X0.431384X-0.656384X0.431384X0.656384X-0.431384X0.656384X0*%
%ADD48RoundRect,0.244250X-0.244250X-0.281750X0.244250X-0.281750X0.244250X0.281750X-0.244250X0.281750X0*%
%ADD49RoundRect,0.051000X-0.750000X-0.750000X0.750000X-0.750000X0.750000X0.750000X-0.750000X0.750000X0*%
%ADD50C,1.602000*%
%ADD51C,3.102000*%
%ADD52RoundRect,0.051000X0.300000X0.725000X-0.300000X0.725000X-0.300000X-0.725000X0.300000X-0.725000X0*%
%ADD53RoundRect,0.051000X0.150000X0.725000X-0.150000X0.725000X-0.150000X-0.725000X0.150000X-0.725000X0*%
%ADD54RoundRect,0.051000X-0.800000X0.200000X-0.800000X-0.200000X0.800000X-0.200000X0.800000X0.200000X0*%
%ADD55RoundRect,0.263000X0.275500X0.263000X-0.275500X0.263000X-0.275500X-0.263000X0.275500X-0.263000X0*%
%ADD56RoundRect,0.263000X-0.275500X-0.263000X0.275500X-0.263000X0.275500X0.263000X-0.275500X0.263000X0*%
%ADD57RoundRect,0.051000X0.850000X0.850000X-0.850000X0.850000X-0.850000X-0.850000X0.850000X-0.850000X0*%
%ADD58RoundRect,0.244250X0.244250X0.281750X-0.244250X0.281750X-0.244250X-0.281750X0.244250X-0.281750X0*%
%ADD59RoundRect,0.244250X0.281750X-0.244250X0.281750X0.244250X-0.281750X0.244250X-0.281750X-0.244250X0*%
%ADD60RoundRect,0.272174X0.353826X0.678826X-0.353826X0.678826X-0.353826X-0.678826X0.353826X-0.678826X0*%
%ADD61RoundRect,0.051000X0.754000X0.754000X-0.754000X0.754000X-0.754000X-0.754000X0.754000X-0.754000X0*%
%ADD62C,1.610000*%
%ADD63C,4.318000*%
%ADD64RoundRect,0.301000X-0.351000X-0.301000X0.351000X-0.301000X0.351000X0.301000X-0.351000X0.301000X0*%
%ADD65RoundRect,0.269616X-0.656384X0.431384X-0.656384X-0.431384X0.656384X-0.431384X0.656384X0.431384X0*%
%ADD66RoundRect,0.244250X-0.244250X-0.406750X0.244250X-0.406750X0.244250X0.406750X-0.244250X0.406750X0*%
%ADD67RoundRect,0.261087X-1.039913X-0.939913X1.039913X-0.939913X1.039913X0.939913X-1.039913X0.939913X0*%
%ADD68RoundRect,0.076200X0.350000X0.750000X-0.350000X0.750000X-0.350000X-0.750000X0.350000X-0.750000X0*%
%ADD69RoundRect,0.076200X0.450000X0.665000X-0.450000X0.665000X-0.450000X-0.665000X0.450000X-0.665000X0*%
%ADD70RoundRect,0.076200X0.525000X0.590000X-0.525000X0.590000X-0.525000X-0.590000X0.525000X-0.590000X0*%
%ADD71RoundRect,0.076200X0.670000X0.915000X-0.670000X0.915000X-0.670000X-0.915000X0.670000X-0.915000X0*%
%ADD72RoundRect,0.076200X0.530000X1.400000X-0.530000X1.400000X-0.530000X-1.400000X0.530000X-1.400000X0*%
%ADD73RoundRect,0.076200X0.450000X1.665000X-0.450000X1.665000X-0.450000X-1.665000X0.450000X-1.665000X0*%
%ADD74RoundRect,0.100500X0.100500X-0.688000X0.100500X0.688000X-0.100500X0.688000X-0.100500X-0.688000X0*%
%ADD75RoundRect,0.100500X0.688000X-0.100500X0.688000X0.100500X-0.688000X0.100500X-0.688000X-0.100500X0*%
%ADD76C,2.602000*%
%ADD77RoundRect,0.051000X-0.950000X-0.450000X0.950000X-0.450000X0.950000X0.450000X-0.950000X0.450000X0*%
%ADD78RoundRect,0.051000X0.450000X-0.950000X0.450000X0.950000X-0.450000X0.950000X-0.450000X-0.950000X0*%
%ADD79RoundRect,0.051000X0.950000X0.450000X-0.950000X0.450000X-0.950000X-0.450000X0.950000X-0.450000X0*%
%ADD80RoundRect,0.051000X0.450000X0.450000X-0.450000X0.450000X-0.450000X-0.450000X0.450000X-0.450000X0*%
%ADD81RoundRect,0.125500X-0.250500X-0.125500X0.250500X-0.125500X0.250500X0.125500X-0.250500X0.125500X0*%
%ADD82RoundRect,0.125500X-0.663000X-0.125500X0.663000X-0.125500X0.663000X0.125500X-0.663000X0.125500X0*%
%ADD83RoundRect,0.261087X0.939913X-1.039913X0.939913X1.039913X-0.939913X1.039913X-0.939913X-1.039913X0*%
%ADD84RoundRect,0.076200X-0.350000X-0.750000X0.350000X-0.750000X0.350000X0.750000X-0.350000X0.750000X0*%
%ADD85RoundRect,0.076200X-0.450000X-0.665000X0.450000X-0.665000X0.450000X0.665000X-0.450000X0.665000X0*%
%ADD86RoundRect,0.076200X-0.525000X-0.590000X0.525000X-0.590000X0.525000X0.590000X-0.525000X0.590000X0*%
%ADD87RoundRect,0.076200X-0.670000X-0.915000X0.670000X-0.915000X0.670000X0.915000X-0.670000X0.915000X0*%
%ADD88RoundRect,0.076200X-0.530000X-1.400000X0.530000X-1.400000X0.530000X1.400000X-0.530000X1.400000X0*%
%ADD89RoundRect,0.076200X-0.450000X-1.665000X0.450000X-1.665000X0.450000X1.665000X-0.450000X1.665000X0*%
%ADD90RoundRect,0.175500X-0.675500X-0.175500X0.675500X-0.175500X0.675500X0.175500X-0.675500X0.175500X0*%
%ADD91RoundRect,0.400500X-0.400500X0.650500X-0.400500X-0.650500X0.400500X-0.650500X0.400500X0.650500X0*%
%ADD92RoundRect,0.525500X-1.425500X0.525500X-1.425500X-0.525500X1.425500X-0.525500X1.425500X0.525500X0*%
%ADD93RoundRect,0.163000X-0.650500X-0.163000X0.650500X-0.163000X0.650500X0.163000X-0.650500X0.163000X0*%
%ADD94RoundRect,0.272666X-0.340834X-0.653334X0.340834X-0.653334X0.340834X0.653334X-0.340834X0.653334X0*%
G04 APERTURE END LIST*
D10*
%TO.C,H1*%
X12828800Y-28000D03*
%TD*%
%TO.C,H2*%
X173620800Y-28000D03*
%TD*%
%TO.C,H3*%
X-379200Y-104028000D03*
%TD*%
%TO.C,H4*%
X173620800Y-104028000D03*
%TD*%
D11*
%TO.C,R808*%
X52944800Y-74549000D03*
X51294800Y-74549000D03*
%TD*%
D12*
%TO.C,D1201*%
X101062800Y-9464000D03*
X101062800Y-10414000D03*
X101062800Y-11364000D03*
X103762800Y-11364000D03*
X103762800Y-10414000D03*
X103762800Y-9464000D03*
%TD*%
D13*
%TO.C,Q1202*%
X100195300Y-15433000D03*
X100195300Y-17333000D03*
X102470300Y-16383000D03*
%TD*%
D14*
%TO.C,C909*%
X147484800Y-36830000D03*
X149034800Y-36830000D03*
%TD*%
D15*
%TO.C,R205*%
X146671300Y-43752000D03*
X146671300Y-45402000D03*
%TD*%
D16*
%TO.C,FB201*%
X156307300Y-8509000D03*
X154182300Y-8509000D03*
%TD*%
D17*
%TO.C,J1102*%
X136346800Y-63144000D03*
D18*
X136346800Y-65684000D03*
X136346800Y-68224000D03*
X136346800Y-70764000D03*
X136346800Y-73304000D03*
X136346800Y-75844000D03*
%TD*%
D19*
%TO.C,J1108*%
X76880800Y-77348000D03*
D18*
X76880800Y-74808000D03*
X79420800Y-77348000D03*
X79420800Y-74808000D03*
X81960800Y-77348000D03*
X81960800Y-74808000D03*
X84500800Y-77348000D03*
X84500800Y-74808000D03*
X87040800Y-77348000D03*
X87040800Y-74808000D03*
X89580800Y-77348000D03*
X89580800Y-74808000D03*
X92120800Y-77348000D03*
X92120800Y-74808000D03*
%TD*%
D20*
%TO.C,J1005*%
X104983800Y-100447800D03*
X110763800Y-100447800D03*
D21*
X104623800Y-99002800D03*
X105423800Y-99002800D03*
D22*
X106623800Y-99002800D03*
X107623800Y-99002800D03*
X108123800Y-99002800D03*
X109123800Y-99002800D03*
D21*
X110323800Y-99002800D03*
X111123800Y-99002800D03*
X111123800Y-99002800D03*
X110323800Y-99002800D03*
D22*
X109623800Y-99002800D03*
X108623800Y-99002800D03*
X107123800Y-99002800D03*
X106123800Y-99002800D03*
D21*
X105423800Y-99002800D03*
X104623800Y-99002800D03*
D23*
X103553800Y-99917800D03*
D24*
X103553800Y-104097800D03*
D23*
X112193800Y-99917800D03*
D24*
X112193800Y-104097800D03*
%TD*%
D25*
%TO.C,R504*%
X66027800Y-74422000D03*
X67677800Y-74422000D03*
%TD*%
D26*
%TO.C,R206*%
X154228800Y-508000D03*
X154228800Y1142000D03*
%TD*%
%TO.C,R1010*%
X107111800Y-91249000D03*
X107111800Y-89599000D03*
%TD*%
D15*
%TO.C,R605*%
X107746800Y-26666000D03*
X107746800Y-28316000D03*
%TD*%
D25*
%TO.C,R601*%
X74917800Y-89408000D03*
X76567800Y-89408000D03*
%TD*%
%TO.C,R904*%
X152514800Y-81026000D03*
X154164800Y-81026000D03*
%TD*%
%TO.C,R1114*%
X138163800Y-17246600D03*
X139813800Y-17246600D03*
%TD*%
D17*
%TO.C,J1001*%
X121330800Y-63114000D03*
D18*
X123870800Y-63114000D03*
X121330800Y-65654000D03*
X123870800Y-65654000D03*
X121330800Y-68194000D03*
X123870800Y-68194000D03*
X121330800Y-70734000D03*
X123870800Y-70734000D03*
X121330800Y-73274000D03*
X123870800Y-73274000D03*
X121330800Y-75814000D03*
X123870800Y-75814000D03*
X121330800Y-78354000D03*
X123870800Y-78354000D03*
%TD*%
D19*
%TO.C,J303*%
X34345800Y-13721000D03*
D18*
X34345800Y-11181000D03*
X36885800Y-13721000D03*
X36885800Y-11181000D03*
X39425800Y-13721000D03*
X39425800Y-11181000D03*
X41965800Y-13721000D03*
X41965800Y-11181000D03*
X44505800Y-13721000D03*
X44505800Y-11181000D03*
%TD*%
D26*
%TO.C,R1119*%
X127050800Y-97594040D03*
X127050800Y-95944040D03*
%TD*%
D27*
%TO.C,D601*%
X72020800Y-105918000D03*
X70320800Y-105918000D03*
%TD*%
D11*
%TO.C,R606*%
X97141800Y-48768000D03*
X95491800Y-48768000D03*
%TD*%
%TO.C,R510*%
X106412800Y-57277000D03*
X104762800Y-57277000D03*
%TD*%
D25*
%TO.C,R803*%
X46596800Y-80010000D03*
X48246800Y-80010000D03*
%TD*%
D14*
%TO.C,C205*%
X95541800Y-60960000D03*
X97091800Y-60960000D03*
%TD*%
D26*
%TO.C,R211*%
X144195800Y-36181800D03*
X144195800Y-34531800D03*
%TD*%
D13*
%TO.C,Q804*%
X50919300Y-76266000D03*
X50919300Y-78166000D03*
X53194300Y-77216000D03*
%TD*%
D26*
%TO.C,R1201*%
X84378800Y-17081000D03*
X84378800Y-15431000D03*
%TD*%
D13*
%TO.C,Q601*%
X74605300Y-93030000D03*
X74605300Y-94930000D03*
X76880300Y-93980000D03*
%TD*%
D25*
%TO.C,R608*%
X69520800Y-89407500D03*
X71170800Y-89407500D03*
%TD*%
D28*
%TO.C,FB1201*%
X96062800Y1316500D03*
X96062800Y-808500D03*
%TD*%
D29*
%TO.C,C804*%
X59245800Y-20193000D03*
X57695800Y-20193000D03*
%TD*%
D30*
%TO.C,FB901*%
X152577800Y-90470500D03*
X152577800Y-88345500D03*
%TD*%
D26*
%TO.C,R1007*%
X110159800Y-91249000D03*
X110159800Y-89599000D03*
%TD*%
D29*
%TO.C,C215*%
X66611800Y-55372000D03*
X65061800Y-55372000D03*
%TD*%
D15*
%TO.C,R202*%
X146645900Y-22644600D03*
X146645900Y-24294600D03*
%TD*%
D31*
%TO.C,S601*%
X9829800Y-91603000D03*
D32*
X16329800Y-91603000D03*
X9829800Y-96103000D03*
X16329800Y-96103000D03*
%TD*%
D26*
%TO.C,R517*%
X87934800Y-68643000D03*
X87934800Y-66993000D03*
%TD*%
D33*
%TO.C,C236*%
X94284800Y-25006000D03*
X94284800Y-26556000D03*
%TD*%
D34*
%TO.C,L202*%
X152513300Y-48567000D03*
X152513300Y-50747000D03*
%TD*%
D33*
%TO.C,C203*%
X83362800Y-67043000D03*
X83362800Y-68593000D03*
%TD*%
D14*
%TO.C,C912*%
X146341800Y-66040000D03*
X147891800Y-66040000D03*
%TD*%
D15*
%TO.C,R1207*%
X106222800Y-9589000D03*
X106222800Y-11239000D03*
%TD*%
D33*
%TO.C,C706*%
X115112800Y-37833000D03*
X115112800Y-39383000D03*
%TD*%
D25*
%TO.C,R317*%
X38214800Y-16954000D03*
X39864800Y-16954000D03*
%TD*%
D35*
%TO.C,U1002*%
X105223000Y-82359500D03*
X105223000Y-82994500D03*
X105223000Y-83629500D03*
X105223000Y-84264500D03*
X105223000Y-84899500D03*
X105223000Y-85534500D03*
X105223000Y-86169500D03*
X105223000Y-86804500D03*
X110423000Y-86804500D03*
X110423000Y-86169500D03*
X110423000Y-85534500D03*
X110423000Y-84899500D03*
X110423000Y-84264500D03*
X110423000Y-83629500D03*
X110423000Y-82994500D03*
X110423000Y-82359500D03*
%TD*%
D36*
%TO.C,C801*%
X56565800Y-85303750D03*
X56565800Y-83753750D03*
%TD*%
D26*
%TO.C,R711*%
X74472800Y-17081000D03*
X74472800Y-15431000D03*
%TD*%
D37*
%TO.C,F1103*%
X139877800Y-97435000D03*
X139877800Y-94335000D03*
%TD*%
D26*
%TO.C,R712*%
X75996800Y-17081000D03*
X75996800Y-15431000D03*
%TD*%
D25*
%TO.C,R316*%
X44310800Y-16954000D03*
X45960800Y-16954000D03*
%TD*%
%TO.C,R302*%
X6337800Y-46736000D03*
X7987800Y-46736000D03*
%TD*%
%TO.C,R903*%
X152514800Y-76327000D03*
X154164800Y-76327000D03*
%TD*%
D26*
%TO.C,R1123*%
X128828800Y-97599000D03*
X128828800Y-95949000D03*
%TD*%
D29*
%TO.C,C401*%
X39928800Y-52705000D03*
X38378800Y-52705000D03*
%TD*%
D33*
%TO.C,C504*%
X90982800Y-67043000D03*
X90982800Y-68593000D03*
%TD*%
D26*
%TO.C,R1204*%
X91998800Y-17081000D03*
X91998800Y-15431000D03*
%TD*%
D14*
%TO.C,C812*%
X57695800Y-23241000D03*
X59245800Y-23241000D03*
%TD*%
D25*
%TO.C,R604*%
X80251800Y-97790000D03*
X81901800Y-97790000D03*
%TD*%
%TO.C,R807*%
X51295800Y-80010000D03*
X52945800Y-80010000D03*
%TD*%
D17*
%TO.C,J1004*%
X128955800Y-63114000D03*
D18*
X131495800Y-63114000D03*
X128955800Y-65654000D03*
X131495800Y-65654000D03*
X128955800Y-68194000D03*
X131495800Y-68194000D03*
X128955800Y-70734000D03*
X131495800Y-70734000D03*
X128955800Y-73274000D03*
X131495800Y-73274000D03*
X128955800Y-75814000D03*
X131495800Y-75814000D03*
X128955800Y-78354000D03*
X131495800Y-78354000D03*
%TD*%
D26*
%TO.C,R1222*%
X94284800Y-17081000D03*
X94284800Y-15431000D03*
%TD*%
D14*
%TO.C,C708*%
X95541800Y-42672000D03*
X97091800Y-42672000D03*
%TD*%
D27*
%TO.C,D603*%
X66686800Y-105918000D03*
X64986800Y-105918000D03*
%TD*%
%TO.C,D1005*%
X120534800Y-105918000D03*
X118834800Y-105918000D03*
%TD*%
D33*
%TO.C,C225*%
X143597900Y-22694600D03*
X143597900Y-24244600D03*
%TD*%
D26*
%TO.C,R908*%
X143433800Y-75120000D03*
X143433800Y-73470000D03*
%TD*%
D33*
%TO.C,C604*%
X112191800Y-33769000D03*
X112191800Y-35319000D03*
%TD*%
D38*
%TO.C,X701*%
X105150800Y-41669000D03*
X105150800Y-44209000D03*
X105150800Y-46749000D03*
X110850800Y-46749000D03*
X110850800Y-44209000D03*
X110850800Y-41669000D03*
%TD*%
D33*
%TO.C,C230*%
X153275300Y-44665600D03*
X153275300Y-46215600D03*
%TD*%
D14*
%TO.C,C228*%
X154215800Y-11684000D03*
X155765800Y-11684000D03*
%TD*%
D29*
%TO.C,C202*%
X66611800Y-53848000D03*
X65061800Y-53848000D03*
%TD*%
%TO.C,C226*%
X155765800Y-6858000D03*
X154215800Y-6858000D03*
%TD*%
D25*
%TO.C,R303*%
X6337800Y-56769000D03*
X7987800Y-56769000D03*
%TD*%
D39*
%TO.C,S201*%
X15544800Y-104698800D03*
X11044800Y-104698800D03*
D40*
X16794800Y-102208800D03*
X9784800Y-102208800D03*
%TD*%
D14*
%TO.C,C206*%
X95541800Y-47244000D03*
X97091800Y-47244000D03*
%TD*%
D15*
%TO.C,R519*%
X81584800Y-36513000D03*
X81584800Y-38163000D03*
%TD*%
D14*
%TO.C,C245*%
X151752000Y-52679600D03*
X153302000Y-52679600D03*
%TD*%
D25*
%TO.C,R603*%
X79997800Y-89408000D03*
X81647800Y-89408000D03*
%TD*%
D34*
%TO.C,L201*%
X152513300Y-27510400D03*
X152513300Y-29690400D03*
%TD*%
D25*
%TO.C,R307*%
X6337800Y-63881000D03*
X7987800Y-63881000D03*
%TD*%
D13*
%TO.C,Q803*%
X60317300Y-76266000D03*
X60317300Y-78166000D03*
X62592300Y-77216000D03*
%TD*%
D41*
%TO.C,CON801*%
X43328600Y2193600D03*
X33328600Y2193600D03*
X43328600Y-306400D03*
X33328600Y-306400D03*
X38328600Y-5306400D03*
D42*
X38328600Y-306400D03*
D43*
X33328600Y-5306400D03*
X43328600Y-5306400D03*
%TD*%
D14*
%TO.C,C605*%
X135927800Y-45974000D03*
X137477800Y-45974000D03*
%TD*%
D25*
%TO.C,R523*%
X65011800Y-62992000D03*
X66661800Y-62992000D03*
%TD*%
D37*
%TO.C,F801*%
X60629800Y-86993750D03*
X60629800Y-83893750D03*
%TD*%
D14*
%TO.C,C601*%
X95541800Y-57912000D03*
X97091800Y-57912000D03*
%TD*%
D11*
%TO.C,R809*%
X50151800Y-19431000D03*
X48501800Y-19431000D03*
%TD*%
D29*
%TO.C,C806*%
X53149800Y-17907000D03*
X51599800Y-17907000D03*
%TD*%
D36*
%TO.C,C201*%
X84632800Y-38113000D03*
X84632800Y-36563000D03*
%TD*%
D25*
%TO.C,R613*%
X122923800Y-47498000D03*
X124573800Y-47498000D03*
%TD*%
D13*
%TO.C,Q603*%
X68954300Y-93030000D03*
X68954300Y-94930000D03*
X71229300Y-93980000D03*
%TD*%
D25*
%TO.C,R312*%
X6337800Y-62103000D03*
X7987800Y-62103000D03*
%TD*%
%TO.C,R1219*%
X138163800Y-9118600D03*
X139813800Y-9118600D03*
%TD*%
D26*
%TO.C,R311*%
X6146800Y-89344000D03*
X6146800Y-87694000D03*
%TD*%
D36*
%TO.C,C304*%
X5892800Y-42698000D03*
X5892800Y-41148000D03*
%TD*%
D26*
%TO.C,R1002*%
X91744800Y-91249000D03*
X91744800Y-89599000D03*
%TD*%
D25*
%TO.C,R906*%
X152514800Y-74803000D03*
X154164800Y-74803000D03*
%TD*%
D14*
%TO.C,C244*%
X152056800Y-31623000D03*
X153606800Y-31623000D03*
%TD*%
D26*
%TO.C,R715*%
X80568800Y-17081000D03*
X80568800Y-15431000D03*
%TD*%
D11*
%TO.C,R1213*%
X113143800Y-13690600D03*
X111493800Y-13690600D03*
%TD*%
D26*
%TO.C,R1105*%
X146608800Y-97599000D03*
X146608800Y-95949000D03*
%TD*%
D33*
%TO.C,C214*%
X80314800Y-67043000D03*
X80314800Y-68593000D03*
%TD*%
D14*
%TO.C,C1106*%
X171487800Y-99949000D03*
X173037800Y-99949000D03*
%TD*%
D25*
%TO.C,R610*%
X122923800Y-45974000D03*
X124573800Y-45974000D03*
%TD*%
D33*
%TO.C,C1003*%
X103301800Y-83553000D03*
X103301800Y-85103000D03*
%TD*%
%TO.C,C221*%
X151776700Y-23456600D03*
X151776700Y-25006600D03*
%TD*%
D44*
%TO.C,U203*%
X148312100Y-47811000D03*
X149262100Y-47811000D03*
X150212100Y-47811000D03*
X150212100Y-44391000D03*
X149262100Y-44391000D03*
X148312100Y-44391000D03*
%TD*%
D13*
%TO.C,Q201*%
X21138300Y-101793000D03*
X21138300Y-103693000D03*
X23413300Y-102743000D03*
%TD*%
D26*
%TO.C,R1017*%
X97840800Y-94805000D03*
X97840800Y-93155000D03*
%TD*%
D45*
%TO.C,X501*%
X105900800Y-60250000D03*
X105900800Y-66750000D03*
X110100800Y-66750000D03*
X110100800Y-60250000D03*
%TD*%
D46*
%TO.C,U702*%
X74214800Y-25722500D03*
X74864800Y-25722500D03*
X75514800Y-25722500D03*
X76164800Y-25722500D03*
X76814800Y-25722500D03*
X77464800Y-25722500D03*
X78114800Y-25722500D03*
X78764800Y-25722500D03*
X79414800Y-25722500D03*
X80064800Y-25722500D03*
X80064800Y-19997500D03*
X79414800Y-19997500D03*
X78764800Y-19997500D03*
X78114800Y-19997500D03*
X77464800Y-19997500D03*
X76814800Y-19997500D03*
X76164800Y-19997500D03*
X75514800Y-19997500D03*
X74864800Y-19997500D03*
X74214800Y-19997500D03*
%TD*%
D11*
%TO.C,R503*%
X64692800Y-74422000D03*
X63042800Y-74422000D03*
%TD*%
%TO.C,R806*%
X61644800Y-74422000D03*
X59994800Y-74422000D03*
%TD*%
D25*
%TO.C,R305*%
X6337800Y-60325000D03*
X7987800Y-60325000D03*
%TD*%
D36*
%TO.C,C1203*%
X112064800Y-6617000D03*
X112064800Y-5067000D03*
%TD*%
D26*
%TO.C,R1203*%
X90474800Y-17081000D03*
X90474800Y-15431000D03*
%TD*%
D14*
%TO.C,C210*%
X95541800Y-62484000D03*
X97091800Y-62484000D03*
%TD*%
D33*
%TO.C,C501*%
X74218800Y-67043000D03*
X74218800Y-68593000D03*
%TD*%
D36*
%TO.C,C239*%
X97332800Y-31382000D03*
X97332800Y-29832000D03*
%TD*%
D47*
%TO.C,F901*%
X147344800Y-88519000D03*
X150444800Y-88519000D03*
%TD*%
D11*
%TO.C,R1208*%
X113524800Y-21463000D03*
X111874800Y-21463000D03*
%TD*%
D36*
%TO.C,C709*%
X83108800Y-38113000D03*
X83108800Y-36563000D03*
%TD*%
D29*
%TO.C,C1101*%
X140258800Y-92583000D03*
X138708800Y-92583000D03*
%TD*%
D26*
%TO.C,R1004*%
X93268800Y-91249000D03*
X93268800Y-89599000D03*
%TD*%
D36*
%TO.C,C1002*%
X98602800Y-85484000D03*
X98602800Y-83934000D03*
%TD*%
D33*
%TO.C,C234*%
X142099300Y-43802000D03*
X142099300Y-45352000D03*
%TD*%
D25*
%TO.C,R301*%
X6337800Y-54991000D03*
X7987800Y-54991000D03*
%TD*%
%TO.C,R521*%
X65011800Y-59944000D03*
X66661800Y-59944000D03*
%TD*%
D15*
%TO.C,R505*%
X40055800Y-84519000D03*
X40055800Y-86169000D03*
%TD*%
D26*
%TO.C,R516*%
X80060800Y-38163000D03*
X80060800Y-36513000D03*
%TD*%
D25*
%TO.C,R717*%
X109715800Y-49289000D03*
X111365800Y-49289000D03*
%TD*%
%TO.C,R511*%
X108953800Y-69850000D03*
X110603800Y-69850000D03*
%TD*%
D15*
%TO.C,R313*%
X6146800Y-91377000D03*
X6146800Y-93027000D03*
%TD*%
D29*
%TO.C,C902*%
X150939800Y-79248000D03*
X149389800Y-79248000D03*
%TD*%
D33*
%TO.C,C218*%
X81838800Y-67043000D03*
X81838800Y-68593000D03*
%TD*%
D46*
%TO.C,U701*%
X63927800Y-25722500D03*
X64577800Y-25722500D03*
X65227800Y-25722500D03*
X65877800Y-25722500D03*
X66527800Y-25722500D03*
X67177800Y-25722500D03*
X67827800Y-25722500D03*
X68477800Y-25722500D03*
X69127800Y-25722500D03*
X69777800Y-25722500D03*
X69777800Y-19997500D03*
X69127800Y-19997500D03*
X68477800Y-19997500D03*
X67827800Y-19997500D03*
X67177800Y-19997500D03*
X66527800Y-19997500D03*
X65877800Y-19997500D03*
X65227800Y-19997500D03*
X64577800Y-19997500D03*
X63927800Y-19997500D03*
%TD*%
D15*
%TO.C,R507*%
X33959800Y-84519000D03*
X33959800Y-86169000D03*
%TD*%
D11*
%TO.C,R209*%
X6209800Y-104394000D03*
X4559800Y-104394000D03*
%TD*%
D19*
%TO.C,J1003*%
X121340800Y-85349000D03*
D18*
X121340800Y-82809000D03*
X123880800Y-85349000D03*
X123880800Y-82809000D03*
X126420800Y-85349000D03*
X126420800Y-82809000D03*
X128960800Y-85349000D03*
X128960800Y-82809000D03*
X131500800Y-85349000D03*
X131500800Y-82809000D03*
%TD*%
D33*
%TO.C,C707*%
X113588800Y-37833000D03*
X113588800Y-39383000D03*
%TD*%
D25*
%TO.C,R1217*%
X138163800Y-12166600D03*
X139813800Y-12166600D03*
%TD*%
D15*
%TO.C,R1215*%
X125018800Y-26454600D03*
X125018800Y-28104600D03*
%TD*%
D48*
%TO.C,FB804*%
X44475300Y-27051000D03*
X46050300Y-27051000D03*
%TD*%
D19*
%TO.C,J1101*%
X138352450Y-103378420D03*
D18*
X138352450Y-100838420D03*
X140892450Y-103378420D03*
X140892450Y-100838420D03*
X143432450Y-103378420D03*
X143432450Y-100838420D03*
X145972450Y-103378420D03*
X145972450Y-100838420D03*
X148512450Y-103378420D03*
X148512450Y-100838420D03*
%TD*%
D11*
%TO.C,R611*%
X137527800Y-49022000D03*
X135877800Y-49022000D03*
%TD*%
%TO.C,R1212*%
X113143800Y-10642600D03*
X111493800Y-10642600D03*
%TD*%
D13*
%TO.C,Q502*%
X36822300Y-76266000D03*
X36822300Y-78166000D03*
X39097300Y-77216000D03*
%TD*%
D36*
%TO.C,C508*%
X73964800Y-38113000D03*
X73964800Y-36563000D03*
%TD*%
D49*
%TO.C,J801*%
X49072800Y-91164000D03*
D50*
X51572800Y-91164000D03*
X53572800Y-91164000D03*
X56072800Y-91164000D03*
X49072800Y-93784000D03*
X51572800Y-93784000D03*
X53572800Y-93784000D03*
X56072800Y-93784000D03*
D51*
X46002800Y-90814000D03*
X46002800Y-96494000D03*
X59142800Y-90814000D03*
X59142800Y-96494000D03*
%TD*%
D36*
%TO.C,C1107*%
X135686800Y-97549000D03*
X135686800Y-95999000D03*
%TD*%
D26*
%TO.C,R1210*%
X133400800Y-28104600D03*
X133400800Y-26454600D03*
%TD*%
D14*
%TO.C,C710*%
X95541800Y-44196000D03*
X97091800Y-44196000D03*
%TD*%
D26*
%TO.C,R705*%
X66852800Y-17081000D03*
X66852800Y-15431000D03*
%TD*%
D27*
%TO.C,D1006*%
X116724800Y-105918000D03*
X115024800Y-105918000D03*
%TD*%
%TO.C,D1002*%
X86752800Y-105918000D03*
X85052800Y-105918000D03*
%TD*%
D13*
%TO.C,Q503*%
X41521300Y-76266000D03*
X41521300Y-78166000D03*
X43796300Y-77216000D03*
%TD*%
D20*
%TO.C,J201*%
X167278800Y-3615292D03*
X161498800Y-3615292D03*
D52*
X167638800Y-5060292D03*
X166838800Y-5060292D03*
D53*
X165638800Y-5060292D03*
X164638800Y-5060292D03*
X164138800Y-5060292D03*
X163138800Y-5060292D03*
D52*
X161938800Y-5060292D03*
X161138800Y-5060292D03*
X161138800Y-5060292D03*
X161938800Y-5060292D03*
D53*
X162638800Y-5060292D03*
X163638800Y-5060292D03*
X165138800Y-5060292D03*
X166138800Y-5060292D03*
D52*
X166838800Y-5060292D03*
X167638800Y-5060292D03*
D23*
X168708800Y-4145292D03*
D24*
X168708800Y34708D03*
D23*
X160068800Y-4145292D03*
D24*
X160068800Y34708D03*
%TD*%
D33*
%TO.C,C701*%
X62407800Y-20561000D03*
X62407800Y-22111000D03*
%TD*%
%TO.C,C510*%
X112699800Y-55740000D03*
X112699800Y-57290000D03*
%TD*%
D15*
%TO.C,R1111*%
X130352800Y-26454600D03*
X130352800Y-28104600D03*
%TD*%
D33*
%TO.C,C1103*%
X139369800Y-74282000D03*
X139369800Y-75832000D03*
%TD*%
D14*
%TO.C,C906*%
X146341800Y-71247000D03*
X147891800Y-71247000D03*
%TD*%
D25*
%TO.C,R520*%
X65011800Y-61468000D03*
X66661800Y-61468000D03*
%TD*%
D54*
%TO.C,U901*%
X146940800Y-80813000D03*
X146940800Y-81463000D03*
X146940800Y-82113000D03*
X146940800Y-82763000D03*
X150340800Y-82763000D03*
X150340800Y-82113000D03*
X150340800Y-81463000D03*
X150340800Y-80813000D03*
%TD*%
D55*
%TO.C,R812*%
X59383300Y-27783000D03*
X57558300Y-27783000D03*
%TD*%
D25*
%TO.C,R801*%
X55994800Y-80010000D03*
X57644800Y-80010000D03*
%TD*%
D15*
%TO.C,R618*%
X126161800Y-32322000D03*
X126161800Y-33972000D03*
%TD*%
D47*
%TO.C,F902*%
X147725800Y-38862000D03*
X150825800Y-38862000D03*
%TD*%
D15*
%TO.C,R1206*%
X98602800Y-9589000D03*
X98602800Y-11239000D03*
%TD*%
D26*
%TO.C,R1001*%
X96316800Y-91249000D03*
X96316800Y-89599000D03*
%TD*%
D15*
%TO.C,R1211*%
X139115800Y-26353000D03*
X139115800Y-28003000D03*
%TD*%
D33*
%TO.C,C231*%
X151751300Y-44665600D03*
X151751300Y-46215600D03*
%TD*%
D11*
%TO.C,R615*%
X137527800Y-47498000D03*
X135877800Y-47498000D03*
%TD*%
D14*
%TO.C,C903*%
X147103800Y-86487000D03*
X148653800Y-86487000D03*
%TD*%
D26*
%TO.C,R707*%
X69900800Y-17081000D03*
X69900800Y-15431000D03*
%TD*%
D15*
%TO.C,R318*%
X41325800Y-16891000D03*
X41325800Y-18541000D03*
%TD*%
D26*
%TO.C,R704*%
X65328800Y-17081000D03*
X65328800Y-15431000D03*
%TD*%
D29*
%TO.C,C805*%
X56197800Y-19431000D03*
X54647800Y-19431000D03*
%TD*%
D36*
%TO.C,C1102*%
X141782800Y-97549000D03*
X141782800Y-95999000D03*
%TD*%
D19*
%TO.C,J1106*%
X123497300Y-103378040D03*
D18*
X123497300Y-100838040D03*
X126037300Y-103378040D03*
X126037300Y-100838040D03*
X128577300Y-103378040D03*
X128577300Y-100838040D03*
X131117300Y-103378040D03*
X131117300Y-100838040D03*
X133657300Y-103378040D03*
X133657300Y-100838040D03*
%TD*%
D36*
%TO.C,C303*%
X7416800Y-42685000D03*
X7416800Y-41135000D03*
%TD*%
D26*
%TO.C,R621*%
X126161800Y-37020000D03*
X126161800Y-35370000D03*
%TD*%
D29*
%TO.C,C506*%
X66611800Y-50800000D03*
X65061800Y-50800000D03*
%TD*%
%TO.C,C211*%
X66611800Y-56896000D03*
X65061800Y-56896000D03*
%TD*%
D56*
%TO.C,R403*%
X38254300Y-48641000D03*
X40079300Y-48641000D03*
%TD*%
D57*
%TO.C,J301*%
X2800Y0D03*
D18*
X2800Y-2540000D03*
X2800Y-5080000D03*
X2800Y-7620000D03*
X2800Y-10160000D03*
X2800Y-12700000D03*
X2800Y-15240000D03*
X2800Y-17780000D03*
X2800Y-20320000D03*
X2800Y-22860000D03*
X2800Y-25400000D03*
X2800Y-27940000D03*
X2800Y-30480000D03*
X2800Y-33020000D03*
X2800Y-35560000D03*
X2800Y-38100000D03*
X2800Y-40640000D03*
X2800Y-43180000D03*
X2800Y-45720000D03*
X2800Y-48260000D03*
X2800Y-50800000D03*
X2800Y-53340000D03*
X2800Y-55880000D03*
X2800Y-58420000D03*
X2800Y-60960000D03*
X2800Y-63500000D03*
X2800Y-66040000D03*
X2800Y-68580000D03*
X2800Y-71120000D03*
X2800Y-73660000D03*
X2800Y-76200000D03*
X2800Y-78740000D03*
X2800Y-81280000D03*
X2800Y-83820000D03*
X2800Y-86360000D03*
X2800Y-88900000D03*
X2800Y-91440000D03*
X2800Y-93980000D03*
X2800Y-96520000D03*
X2800Y-99060000D03*
X2542800Y0D03*
X2542800Y-2540000D03*
X2542800Y-5080000D03*
X2542800Y-7620000D03*
X2542800Y-10160000D03*
X2542800Y-12700000D03*
X2542800Y-15240000D03*
X2542800Y-17780000D03*
X2542800Y-20320000D03*
X2542800Y-22860000D03*
X2542800Y-25400000D03*
X2542800Y-27940000D03*
X2542800Y-30480000D03*
X2542800Y-33020000D03*
X2542800Y-35560000D03*
X2542800Y-38100000D03*
X2542800Y-40640000D03*
X2542800Y-43180000D03*
X2542800Y-45720000D03*
X2542800Y-48260000D03*
X2542800Y-50800000D03*
X2542800Y-53340000D03*
X2542800Y-55880000D03*
X2542800Y-58420000D03*
X2542800Y-60960000D03*
X2542800Y-63500000D03*
X2542800Y-66040000D03*
X2542800Y-68580000D03*
X2542800Y-71120000D03*
X2542800Y-73660000D03*
X2542800Y-76200000D03*
X2542800Y-78740000D03*
X2542800Y-81280000D03*
X2542800Y-83820000D03*
X2542800Y-86360000D03*
X2542800Y-88900000D03*
X2542800Y-91440000D03*
X2542800Y-93980000D03*
X2542800Y-96520000D03*
X2542800Y-99060000D03*
%TD*%
D26*
%TO.C,R512*%
X72440800Y-38163000D03*
X72440800Y-36513000D03*
%TD*%
D13*
%TO.C,Q801*%
X55618300Y-76266000D03*
X55618300Y-78166000D03*
X57893300Y-77216000D03*
%TD*%
D29*
%TO.C,C233*%
X150062500Y-51993800D03*
X148512500Y-51993800D03*
%TD*%
D58*
%TO.C,FB803*%
X59258300Y-18669000D03*
X57683300Y-18669000D03*
%TD*%
D33*
%TO.C,C515*%
X89458800Y-67043000D03*
X89458800Y-68593000D03*
%TD*%
D55*
%TO.C,R811*%
X59383300Y-26289000D03*
X57558300Y-26289000D03*
%TD*%
D29*
%TO.C,C232*%
X150062500Y-50469800D03*
X148512500Y-50469800D03*
%TD*%
D26*
%TO.C,R706*%
X68376800Y-17081000D03*
X68376800Y-15431000D03*
%TD*%
D54*
%TO.C,U902*%
X146940800Y-74590000D03*
X146940800Y-75240000D03*
X146940800Y-75890000D03*
X146940800Y-76540000D03*
X150340800Y-76540000D03*
X150340800Y-75890000D03*
X150340800Y-75240000D03*
X150340800Y-74590000D03*
%TD*%
D25*
%TO.C,R309*%
X6337800Y-51435000D03*
X7987800Y-51435000D03*
%TD*%
D29*
%TO.C,C904*%
X150431800Y-90551000D03*
X148881800Y-90551000D03*
%TD*%
D15*
%TO.C,R501*%
X77266800Y-66993000D03*
X77266800Y-68643000D03*
%TD*%
D39*
%TO.C,S1201*%
X145603800Y679100D03*
X150103800Y679100D03*
D40*
X144353800Y-1810900D03*
X151363800Y-1810900D03*
%TD*%
D59*
%TO.C,FB501*%
X111175800Y-57302500D03*
X111175800Y-55727500D03*
%TD*%
D36*
%TO.C,C207*%
X86156800Y-38113000D03*
X86156800Y-36563000D03*
%TD*%
D29*
%TO.C,C910*%
X150939800Y-40894000D03*
X149389800Y-40894000D03*
%TD*%
D26*
%TO.C,R1205*%
X82854800Y-17081000D03*
X82854800Y-15431000D03*
%TD*%
D60*
%TO.C,C702*%
X51817800Y-14605000D03*
X48867800Y-14605000D03*
%TD*%
D36*
%TO.C,C1204*%
X113588800Y-6617000D03*
X113588800Y-5067000D03*
%TD*%
D26*
%TO.C,R1118*%
X123494800Y-97594040D03*
X123494800Y-95944040D03*
%TD*%
D11*
%TO.C,R514*%
X66661800Y-48006000D03*
X65011800Y-48006000D03*
%TD*%
D13*
%TO.C,Q1201*%
X135057300Y-26519600D03*
X135057300Y-28419600D03*
X137332300Y-27469600D03*
%TD*%
D36*
%TO.C,C507*%
X75488800Y-38113000D03*
X75488800Y-36563000D03*
%TD*%
D33*
%TO.C,C905*%
X154228800Y-88379000D03*
X154228800Y-89929000D03*
%TD*%
D11*
%TO.C,R802*%
X57612800Y-74549000D03*
X55962800Y-74549000D03*
%TD*%
D26*
%TO.C,R1006*%
X89966800Y-94805000D03*
X89966800Y-93155000D03*
%TD*%
D14*
%TO.C,C602*%
X110514800Y-25205000D03*
X112064800Y-25205000D03*
%TD*%
D26*
%TO.C,R703*%
X63804800Y-17081000D03*
X63804800Y-15431000D03*
%TD*%
D15*
%TO.C,R1108*%
X128828800Y-26454600D03*
X128828800Y-28104600D03*
%TD*%
D12*
%TO.C,D902*%
X151354800Y-34737000D03*
X151354800Y-35687000D03*
X151354800Y-36637000D03*
X154054800Y-36637000D03*
X154054800Y-35687000D03*
X154054800Y-34737000D03*
%TD*%
D25*
%TO.C,R805*%
X60756800Y-80010000D03*
X62406800Y-80010000D03*
%TD*%
D15*
%TO.C,R1117*%
X139242800Y-65660000D03*
X139242800Y-67310000D03*
%TD*%
D29*
%TO.C,C908*%
X150939800Y-73025000D03*
X149389800Y-73025000D03*
%TD*%
D15*
%TO.C,R502*%
X75742800Y-66993000D03*
X75742800Y-68643000D03*
%TD*%
D61*
%TO.C,J701*%
X58306000Y-10972800D03*
D62*
X60586000Y-10972800D03*
X62866000Y-10972800D03*
X65146000Y-10972800D03*
X67426000Y-10972800D03*
X57166000Y-8432800D03*
X59446000Y-8432800D03*
X61726000Y-8432800D03*
X64006000Y-8432800D03*
X66286000Y-8432800D03*
X58306000Y-5892800D03*
X60586000Y-5892800D03*
X62866000Y-5892800D03*
X65146000Y-5892800D03*
X67426000Y-5892800D03*
D63*
X75106000Y-8432800D03*
X50116000Y-8432800D03*
%TD*%
D11*
%TO.C,R1209*%
X113524800Y-19939000D03*
X111874800Y-19939000D03*
%TD*%
D14*
%TO.C,C242*%
X142658800Y-26720800D03*
X144208800Y-26720800D03*
%TD*%
D29*
%TO.C,C505*%
X66611800Y-58420000D03*
X65061800Y-58420000D03*
%TD*%
D37*
%TO.C,F1104*%
X137591800Y-97435000D03*
X137591800Y-94335000D03*
%TD*%
D25*
%TO.C,R1112*%
X138163800Y-20294600D03*
X139813800Y-20294600D03*
%TD*%
D26*
%TO.C,R1106*%
X148132800Y-97599000D03*
X148132800Y-95949000D03*
%TD*%
D36*
%TO.C,C512*%
X35483800Y-86119000D03*
X35483800Y-84569000D03*
%TD*%
D14*
%TO.C,C803*%
X57695800Y-21717000D03*
X59245800Y-21717000D03*
%TD*%
D33*
%TO.C,C219*%
X153300700Y-23456600D03*
X153300700Y-25006600D03*
%TD*%
D36*
%TO.C,C1110*%
X121970800Y-97544040D03*
X121970800Y-95994040D03*
%TD*%
D11*
%TO.C,R716*%
X107047800Y-39383000D03*
X105397800Y-39383000D03*
%TD*%
D29*
%TO.C,C809*%
X46037800Y-24003000D03*
X44487800Y-24003000D03*
%TD*%
D64*
%TO.C,D1203*%
X109944800Y1778000D03*
X111644800Y1778000D03*
%TD*%
D13*
%TO.C,Q1203*%
X96004300Y-15433000D03*
X96004300Y-17333000D03*
X98279300Y-16383000D03*
%TD*%
D26*
%TO.C,R522*%
X72694800Y-68643000D03*
X72694800Y-66993000D03*
%TD*%
%TO.C,R1019*%
X111683800Y-94805000D03*
X111683800Y-93155000D03*
%TD*%
D33*
%TO.C,C204*%
X86410800Y-67043000D03*
X86410800Y-68593000D03*
%TD*%
D26*
%TO.C,R701*%
X60756800Y-17081000D03*
X60756800Y-15431000D03*
%TD*%
%TO.C,R708*%
X71424800Y-17081000D03*
X71424800Y-15431000D03*
%TD*%
D27*
%TO.C,D202*%
X6234800Y-105918000D03*
X4534800Y-105918000D03*
%TD*%
D12*
%TO.C,D1004*%
X106523800Y-93030000D03*
X106523800Y-93980000D03*
X106523800Y-94930000D03*
X109223800Y-94930000D03*
X109223800Y-93980000D03*
X109223800Y-93030000D03*
%TD*%
D26*
%TO.C,R619*%
X126161800Y-43116000D03*
X126161800Y-41466000D03*
%TD*%
D30*
%TO.C,FB902*%
X152704800Y-40559500D03*
X152704800Y-38434500D03*
%TD*%
D28*
%TO.C,FB202*%
X157657800Y1570500D03*
X157657800Y-554500D03*
%TD*%
D56*
%TO.C,R208*%
X144996800Y-42291000D03*
X146821800Y-42291000D03*
%TD*%
D65*
%TO.C,F1105*%
X120065800Y-99161000D03*
X120065800Y-102261000D03*
%TD*%
D17*
%TO.C,J601*%
X120822800Y-32644000D03*
D18*
X123362800Y-32644000D03*
X120822800Y-35184000D03*
X123362800Y-35184000D03*
X120822800Y-37724000D03*
X123362800Y-37724000D03*
X120822800Y-40264000D03*
X123362800Y-40264000D03*
X120822800Y-42804000D03*
X123362800Y-42804000D03*
%TD*%
D15*
%TO.C,R314*%
X42849800Y-16891000D03*
X42849800Y-18541000D03*
%TD*%
D56*
%TO.C,R203*%
X144971400Y-21183600D03*
X146796400Y-21183600D03*
%TD*%
D26*
%TO.C,R1202*%
X85902800Y-17081000D03*
X85902800Y-15431000D03*
%TD*%
D56*
%TO.C,R404*%
X38254300Y-50165000D03*
X40079300Y-50165000D03*
%TD*%
D14*
%TO.C,C901*%
X146341800Y-79248000D03*
X147891800Y-79248000D03*
%TD*%
%TO.C,C907*%
X146341800Y-73025000D03*
X147891800Y-73025000D03*
%TD*%
D25*
%TO.C,R1220*%
X138163800Y-13690600D03*
X139813800Y-13690600D03*
%TD*%
D29*
%TO.C,C814*%
X46037800Y-20447000D03*
X44487800Y-20447000D03*
%TD*%
D37*
%TO.C,F1101*%
X155117800Y-97435000D03*
X155117800Y-94335000D03*
%TD*%
D64*
%TO.C,D1202*%
X139789800Y1778000D03*
X141489800Y1778000D03*
%TD*%
D54*
%TO.C,U903*%
X146940800Y-67605000D03*
X146940800Y-68255000D03*
X146940800Y-68905000D03*
X146940800Y-69555000D03*
X150340800Y-69555000D03*
X150340800Y-68905000D03*
X150340800Y-68255000D03*
X150340800Y-67605000D03*
%TD*%
D26*
%TO.C,R1008*%
X105587800Y-91249000D03*
X105587800Y-89599000D03*
%TD*%
D27*
%TO.C,D602*%
X77354800Y-105918000D03*
X75654800Y-105918000D03*
%TD*%
D33*
%TO.C,C1202*%
X87426800Y-15481000D03*
X87426800Y-17031000D03*
%TD*%
D25*
%TO.C,R902*%
X152514800Y-69342000D03*
X154164800Y-69342000D03*
%TD*%
D66*
%TO.C,FB801*%
X56519300Y-86954750D03*
X58644300Y-86954750D03*
%TD*%
D44*
%TO.C,U202*%
X148286700Y-26652800D03*
X149236700Y-26652800D03*
X150186700Y-26652800D03*
X150186700Y-23232800D03*
X149236700Y-23232800D03*
X148286700Y-23232800D03*
%TD*%
D67*
%TO.C,Z201*%
X150681800Y-15621000D03*
X154981800Y-15621000D03*
%TD*%
D25*
%TO.C,R602*%
X74790800Y-97790000D03*
X76440800Y-97790000D03*
%TD*%
%TO.C,R616*%
X68885800Y-97790000D03*
X70535800Y-97790000D03*
%TD*%
D26*
%TO.C,R513*%
X70916800Y-38163000D03*
X70916800Y-36513000D03*
%TD*%
D44*
%TO.C,U602*%
X109336800Y-30725000D03*
X110286800Y-30725000D03*
X111236800Y-30725000D03*
X111236800Y-27305000D03*
X110286800Y-27305000D03*
X109336800Y-27305000D03*
%TD*%
D25*
%TO.C,R617*%
X108953800Y-36703000D03*
X110603800Y-36703000D03*
%TD*%
D15*
%TO.C,R1214*%
X123494800Y-26454600D03*
X123494800Y-28104600D03*
%TD*%
D12*
%TO.C,D1001*%
X92680800Y-93030000D03*
X92680800Y-93980000D03*
X92680800Y-94930000D03*
X95380800Y-94930000D03*
X95380800Y-93980000D03*
X95380800Y-93030000D03*
%TD*%
D29*
%TO.C,C913*%
X150939800Y-66040000D03*
X149389800Y-66040000D03*
%TD*%
D68*
%TO.C,J501*%
X36720800Y-104384550D03*
X35620800Y-104384550D03*
X34520800Y-104384550D03*
X33420800Y-104384550D03*
X32320800Y-104384550D03*
X31220800Y-104384550D03*
X30120800Y-104384550D03*
X29020800Y-104384550D03*
D69*
X38510800Y-91519550D03*
D70*
X34245800Y-91444550D03*
D71*
X40700800Y-104169550D03*
D72*
X27840800Y-103684550D03*
D73*
X40920800Y-92919550D03*
X27760800Y-92919550D03*
%TD*%
D35*
%TO.C,U1001*%
X91430800Y-82359500D03*
X91430800Y-82994500D03*
X91430800Y-83629500D03*
X91430800Y-84264500D03*
X91430800Y-84899500D03*
X91430800Y-85534500D03*
X91430800Y-86169500D03*
X91430800Y-86804500D03*
X96630800Y-86804500D03*
X96630800Y-86169500D03*
X96630800Y-85534500D03*
X96630800Y-84899500D03*
X96630800Y-84264500D03*
X96630800Y-83629500D03*
X96630800Y-82994500D03*
X96630800Y-82359500D03*
%TD*%
D14*
%TO.C,C811*%
X47535800Y-27051000D03*
X49085800Y-27051000D03*
%TD*%
D29*
%TO.C,C509*%
X109537800Y-57277000D03*
X107987800Y-57277000D03*
%TD*%
D13*
%TO.C,Q602*%
X79685300Y-93030000D03*
X79685300Y-94930000D03*
X81960300Y-93980000D03*
%TD*%
D19*
%TO.C,J1107*%
X121335800Y-92202000D03*
D18*
X121335800Y-89662000D03*
X123875800Y-92202000D03*
X123875800Y-89662000D03*
X126415800Y-92202000D03*
X126415800Y-89662000D03*
X128955800Y-92202000D03*
X128955800Y-89662000D03*
X131495800Y-92202000D03*
X131495800Y-89662000D03*
X134035800Y-92202000D03*
X134035800Y-89662000D03*
%TD*%
D29*
%TO.C,C603*%
X109016800Y-25205000D03*
X107466800Y-25205000D03*
%TD*%
D36*
%TO.C,C1108*%
X134162800Y-97549000D03*
X134162800Y-95999000D03*
%TD*%
D14*
%TO.C,C217*%
X95541800Y-54864000D03*
X97091800Y-54864000D03*
%TD*%
D74*
%TO.C,U201*%
X72326800Y-63240500D03*
X72826800Y-63240500D03*
X73326800Y-63240500D03*
X73826800Y-63240500D03*
X74326800Y-63240500D03*
X74826800Y-63240500D03*
X75326800Y-63240500D03*
X75826800Y-63240500D03*
X76326800Y-63240500D03*
X76826800Y-63240500D03*
X77326800Y-63240500D03*
X77826800Y-63240500D03*
X78326800Y-63240500D03*
X78826800Y-63240500D03*
X79326800Y-63240500D03*
X79826800Y-63240500D03*
X80326800Y-63240500D03*
X80826800Y-63240500D03*
X81326800Y-63240500D03*
X81826800Y-63240500D03*
X82326800Y-63240500D03*
X82826800Y-63240500D03*
X83326800Y-63240500D03*
X83826800Y-63240500D03*
X84326800Y-63240500D03*
X84826800Y-63240500D03*
X85326800Y-63240500D03*
X85826800Y-63240500D03*
X86326800Y-63240500D03*
X86826800Y-63240500D03*
X87326800Y-63240500D03*
X87826800Y-63240500D03*
X88326800Y-63240500D03*
X88826800Y-63240500D03*
X89326800Y-63240500D03*
X89826800Y-63240500D03*
D75*
X91739300Y-61328000D03*
X91739300Y-60828000D03*
X91739300Y-60328000D03*
X91739300Y-59828000D03*
X91739300Y-59328000D03*
X91739300Y-58828000D03*
X91739300Y-58328000D03*
X91739300Y-57828000D03*
X91739300Y-57328000D03*
X91739300Y-56828000D03*
X91739300Y-56328000D03*
X91739300Y-55828000D03*
X91739300Y-55328000D03*
X91739300Y-54828000D03*
X91739300Y-54328000D03*
X91739300Y-53828000D03*
X91739300Y-53328000D03*
X91739300Y-52828000D03*
X91739300Y-52328000D03*
X91739300Y-51828000D03*
X91739300Y-51328000D03*
X91739300Y-50828000D03*
X91739300Y-50328000D03*
X91739300Y-49828000D03*
X91739300Y-49328000D03*
X91739300Y-48828000D03*
X91739300Y-48328000D03*
X91739300Y-47828000D03*
X91739300Y-47328000D03*
X91739300Y-46828000D03*
X91739300Y-46328000D03*
X91739300Y-45828000D03*
X91739300Y-45328000D03*
X91739300Y-44828000D03*
X91739300Y-44328000D03*
X91739300Y-43828000D03*
D74*
X89826800Y-41915500D03*
X89326800Y-41915500D03*
X88826800Y-41915500D03*
X88326800Y-41915500D03*
X87826800Y-41915500D03*
X87326800Y-41915500D03*
X86826800Y-41915500D03*
X86326800Y-41915500D03*
X85826800Y-41915500D03*
X85326800Y-41915500D03*
X84826800Y-41915500D03*
X84326800Y-41915500D03*
X83826800Y-41915500D03*
X83326800Y-41915500D03*
X82826800Y-41915500D03*
X82326800Y-41915500D03*
X81826800Y-41915500D03*
X81326800Y-41915500D03*
X80826800Y-41915500D03*
X80326800Y-41915500D03*
X79826800Y-41915500D03*
X79326800Y-41915500D03*
X78826800Y-41915500D03*
X78326800Y-41915500D03*
X77826800Y-41915500D03*
X77326800Y-41915500D03*
X76826800Y-41915500D03*
X76326800Y-41915500D03*
X75826800Y-41915500D03*
X75326800Y-41915500D03*
X74826800Y-41915500D03*
X74326800Y-41915500D03*
X73826800Y-41915500D03*
X73326800Y-41915500D03*
X72826800Y-41915500D03*
X72326800Y-41915500D03*
D75*
X70414300Y-43828000D03*
X70414300Y-44328000D03*
X70414300Y-44828000D03*
X70414300Y-45328000D03*
X70414300Y-45828000D03*
X70414300Y-46328000D03*
X70414300Y-46828000D03*
X70414300Y-47328000D03*
X70414300Y-47828000D03*
X70414300Y-48328000D03*
X70414300Y-48828000D03*
X70414300Y-49328000D03*
X70414300Y-49828000D03*
X70414300Y-50328000D03*
X70414300Y-50828000D03*
X70414300Y-51328000D03*
X70414300Y-51828000D03*
X70414300Y-52328000D03*
X70414300Y-52828000D03*
X70414300Y-53328000D03*
X70414300Y-53828000D03*
X70414300Y-54328000D03*
X70414300Y-54828000D03*
X70414300Y-55328000D03*
X70414300Y-55828000D03*
X70414300Y-56328000D03*
X70414300Y-56828000D03*
X70414300Y-57328000D03*
X70414300Y-57828000D03*
X70414300Y-58328000D03*
X70414300Y-58828000D03*
X70414300Y-59328000D03*
X70414300Y-59828000D03*
X70414300Y-60328000D03*
X70414300Y-60828000D03*
X70414300Y-61328000D03*
%TD*%
D26*
%TO.C,R713*%
X77520800Y-17081000D03*
X77520800Y-15431000D03*
%TD*%
D11*
%TO.C,R804*%
X48245800Y-74549000D03*
X46595800Y-74549000D03*
%TD*%
D33*
%TO.C,C238*%
X97332800Y-25006000D03*
X97332800Y-26556000D03*
%TD*%
D14*
%TO.C,C807*%
X48551800Y-17907000D03*
X50101800Y-17907000D03*
%TD*%
D36*
%TO.C,C1104*%
X153212800Y-97549000D03*
X153212800Y-95999000D03*
%TD*%
%TO.C,C402*%
X58089800Y-53353000D03*
X58089800Y-51803000D03*
%TD*%
%TO.C,C802*%
X58597800Y-85303750D03*
X58597800Y-83753750D03*
%TD*%
D55*
%TO.C,R401*%
X58621300Y-43434000D03*
X56796300Y-43434000D03*
%TD*%
D26*
%TO.C,R1012*%
X103809800Y-94805000D03*
X103809800Y-93155000D03*
%TD*%
D36*
%TO.C,C1109*%
X118160800Y-102248000D03*
X118160800Y-100698000D03*
%TD*%
D17*
%TO.C,J602*%
X128950800Y-32644000D03*
D18*
X131490800Y-32644000D03*
X128950800Y-35184000D03*
X131490800Y-35184000D03*
X128950800Y-37724000D03*
X131490800Y-37724000D03*
X128950800Y-40264000D03*
X131490800Y-40264000D03*
X128950800Y-42804000D03*
X131490800Y-42804000D03*
%TD*%
D29*
%TO.C,C223*%
X150011700Y-30784800D03*
X148461700Y-30784800D03*
%TD*%
D25*
%TO.C,R810*%
X51549800Y-19431000D03*
X53199800Y-19431000D03*
%TD*%
D33*
%TO.C,C1205*%
X138226800Y-21831000D03*
X138226800Y-23381000D03*
%TD*%
D55*
%TO.C,R402*%
X58621300Y-44958000D03*
X56796300Y-44958000D03*
%TD*%
D76*
%TO.C,J901*%
X162102800Y-89391998D03*
X162102800Y-85391998D03*
X162102800Y-81391998D03*
X162102800Y-77391998D03*
X162102800Y-70891998D03*
X162102800Y-66891998D03*
X162102800Y-62891998D03*
%TD*%
D26*
%TO.C,R714*%
X79044800Y-17081000D03*
X79044800Y-15431000D03*
%TD*%
D15*
%TO.C,R201*%
X145121900Y-22644600D03*
X145121900Y-24294600D03*
%TD*%
D29*
%TO.C,C246*%
X67881800Y-43307000D03*
X66331800Y-43307000D03*
%TD*%
D26*
%TO.C,R1120*%
X130606800Y-97599000D03*
X130606800Y-95949000D03*
%TD*%
D33*
%TO.C,C237*%
X95808800Y-25006000D03*
X95808800Y-26556000D03*
%TD*%
D14*
%TO.C,C813*%
X57695800Y-24765000D03*
X59245800Y-24765000D03*
%TD*%
D25*
%TO.C,R518*%
X41897800Y-74549000D03*
X43547800Y-74549000D03*
%TD*%
D15*
%TO.C,R1109*%
X121208800Y-26454600D03*
X121208800Y-28104600D03*
%TD*%
D25*
%TO.C,R310*%
X6337800Y-58547000D03*
X7987800Y-58547000D03*
%TD*%
D33*
%TO.C,C704*%
X72694800Y-22974000D03*
X72694800Y-24524000D03*
%TD*%
D25*
%TO.C,R315*%
X35166800Y-16954000D03*
X36816800Y-16954000D03*
%TD*%
D57*
%TO.C,J1103*%
X85877800Y-100482800D03*
D18*
X85877800Y-97942800D03*
X85877800Y-95402800D03*
X85877800Y-92862800D03*
X85877800Y-90322800D03*
X85877800Y-87782800D03*
%TD*%
D33*
%TO.C,C1001*%
X89458800Y-83553000D03*
X89458800Y-85103000D03*
%TD*%
D26*
%TO.C,R1121*%
X132384800Y-97599000D03*
X132384800Y-95949000D03*
%TD*%
D25*
%TO.C,R306*%
X6337800Y-53213000D03*
X7987800Y-53213000D03*
%TD*%
D15*
%TO.C,R506*%
X38531800Y-84519000D03*
X38531800Y-86169000D03*
%TD*%
D36*
%TO.C,C241*%
X94284800Y-31382000D03*
X94284800Y-29832000D03*
%TD*%
D20*
%TO.C,J1002*%
X91140800Y-100447800D03*
X96920800Y-100447800D03*
D21*
X90780800Y-99002800D03*
X91580800Y-99002800D03*
D22*
X92780800Y-99002800D03*
X93780800Y-99002800D03*
X94280800Y-99002800D03*
X95280800Y-99002800D03*
D21*
X96480800Y-99002800D03*
X97280800Y-99002800D03*
X97280800Y-99002800D03*
X96480800Y-99002800D03*
D22*
X95780800Y-99002800D03*
X94780800Y-99002800D03*
X93280800Y-99002800D03*
X92280800Y-99002800D03*
D21*
X91580800Y-99002800D03*
X90780800Y-99002800D03*
D23*
X89710800Y-99917800D03*
D24*
X89710800Y-104097800D03*
D23*
X98350800Y-99917800D03*
D24*
X98350800Y-104097800D03*
%TD*%
D37*
%TO.C,F1102*%
X157530800Y-97435000D03*
X157530800Y-94335000D03*
%TD*%
D14*
%TO.C,C213*%
X95541800Y-53340000D03*
X97091800Y-53340000D03*
%TD*%
D26*
%TO.C,R1104*%
X145084800Y-97599000D03*
X145084800Y-95949000D03*
%TD*%
D15*
%TO.C,R508*%
X32435800Y-84519000D03*
X32435800Y-86169000D03*
%TD*%
D25*
%TO.C,R1216*%
X138163800Y-10642600D03*
X139813800Y-10642600D03*
%TD*%
D26*
%TO.C,R702*%
X62280800Y-17081000D03*
X62280800Y-15431000D03*
%TD*%
%TO.C,R710*%
X72948800Y-17081000D03*
X72948800Y-15431000D03*
%TD*%
D76*
%TO.C,J902*%
X162102800Y-42402000D03*
X162102800Y-38402000D03*
X162102800Y-34402000D03*
X162102800Y-30402000D03*
X162102800Y-23902000D03*
X162102800Y-19902000D03*
X162102800Y-15902000D03*
%TD*%
D26*
%TO.C,R1005*%
X99364800Y-94805000D03*
X99364800Y-93155000D03*
%TD*%
D33*
%TO.C,C220*%
X154824700Y-23456600D03*
X154824700Y-25006600D03*
%TD*%
D25*
%TO.C,R308*%
X6337800Y-65659000D03*
X7987800Y-65659000D03*
%TD*%
D33*
%TO.C,C1105*%
X62534800Y-99555000D03*
X62534800Y-101105000D03*
%TD*%
D17*
%TO.C,J302*%
X23495000Y0D03*
D18*
X23495000Y-2540000D03*
X23495000Y-5080000D03*
X23495000Y-7620000D03*
X23495000Y-10160000D03*
X23495000Y-12700000D03*
X23495000Y-15240000D03*
X23495000Y-17780000D03*
X23495000Y-20320000D03*
X23495000Y-22860000D03*
X23495000Y-25400000D03*
X23495000Y-27940000D03*
X23495000Y-30480000D03*
X23495000Y-33020000D03*
X23495000Y-35560000D03*
X23495000Y-38100000D03*
X23495000Y-40640000D03*
X23495000Y-43180000D03*
X23495000Y-45720000D03*
X23495000Y-48260000D03*
X23495000Y-50800000D03*
X23495000Y-53340000D03*
X23495000Y-55880000D03*
X23495000Y-58420000D03*
X23495000Y-60960000D03*
X23495000Y-63500000D03*
X23495000Y-66040000D03*
X23495000Y-68580000D03*
X23495000Y-71120000D03*
X23495000Y-73660000D03*
X23495000Y-76200000D03*
X23495000Y-78740000D03*
X23495000Y-81280000D03*
X23495000Y-83820000D03*
X23495000Y-86360000D03*
X23495000Y-88900000D03*
X23495000Y-91440000D03*
X23495000Y-93980000D03*
X23495000Y-96520000D03*
X23495000Y-99060000D03*
X20955000Y0D03*
X20955000Y-2540000D03*
X20955000Y-5080000D03*
X20955000Y-7620000D03*
X20955000Y-10160000D03*
X20955000Y-12700000D03*
X20955000Y-15240000D03*
X20955000Y-17780000D03*
X20955000Y-20320000D03*
X20955000Y-22860000D03*
X20955000Y-25400000D03*
X20955000Y-27940000D03*
X20955000Y-30480000D03*
X20955000Y-33020000D03*
X20955000Y-35560000D03*
X20955000Y-38100000D03*
X20955000Y-40640000D03*
X20955000Y-43180000D03*
X20955000Y-45720000D03*
X20955000Y-48260000D03*
X20955000Y-50800000D03*
X20955000Y-53340000D03*
X20955000Y-55880000D03*
X20955000Y-58420000D03*
X20955000Y-60960000D03*
X20955000Y-63500000D03*
X20955000Y-66040000D03*
X20955000Y-68580000D03*
X20955000Y-71120000D03*
X20955000Y-73660000D03*
X20955000Y-76200000D03*
X20955000Y-78740000D03*
X20955000Y-81280000D03*
X20955000Y-83820000D03*
X20955000Y-86360000D03*
X20955000Y-88900000D03*
X20955000Y-91440000D03*
X20955000Y-93980000D03*
X20955000Y-96520000D03*
X20955000Y-99060000D03*
%TD*%
D30*
%TO.C,FB802*%
X62534800Y-96566500D03*
X62534800Y-94441500D03*
%TD*%
D36*
%TO.C,C302*%
X26720800Y-42698000D03*
X26720800Y-41148000D03*
%TD*%
D14*
%TO.C,C227*%
X154215800Y-10160000D03*
X155765800Y-10160000D03*
%TD*%
D33*
%TO.C,C243*%
X140450300Y-29501800D03*
X140450300Y-31051800D03*
%TD*%
D36*
%TO.C,C301*%
X17703800Y-42698000D03*
X17703800Y-41148000D03*
%TD*%
D59*
%TO.C,FB701*%
X112090200Y-39395500D03*
X112090200Y-37820500D03*
%TD*%
D26*
%TO.C,R1116*%
X86156800Y-85026000D03*
X86156800Y-83376000D03*
%TD*%
D33*
%TO.C,C911*%
X154355800Y-38468000D03*
X154355800Y-40018000D03*
%TD*%
D15*
%TO.C,R509*%
X30911800Y-84519000D03*
X30911800Y-86169000D03*
%TD*%
D11*
%TO.C,R1115*%
X66407800Y-84836000D03*
X64757800Y-84836000D03*
%TD*%
D33*
%TO.C,C511*%
X114223800Y-55740000D03*
X114223800Y-57290000D03*
%TD*%
D26*
%TO.C,R515*%
X25196800Y-103949000D03*
X25196800Y-102299000D03*
%TD*%
D36*
%TO.C,C216*%
X78536800Y-38113000D03*
X78536800Y-36563000D03*
%TD*%
D25*
%TO.C,R901*%
X152514800Y-82550000D03*
X154164800Y-82550000D03*
%TD*%
D11*
%TO.C,R612*%
X137527800Y-50546000D03*
X135877800Y-50546000D03*
%TD*%
D44*
%TO.C,U205*%
X142102800Y-32190000D03*
X143052800Y-32190000D03*
X144002800Y-32190000D03*
X144002800Y-28770000D03*
X143052800Y-28770000D03*
X142102800Y-28770000D03*
%TD*%
D20*
%TO.C,J1202*%
X105810800Y-3615292D03*
X100030800Y-3615292D03*
D52*
X106170800Y-5060292D03*
X105370800Y-5060292D03*
D53*
X104170800Y-5060292D03*
X103170800Y-5060292D03*
X102670800Y-5060292D03*
X101670800Y-5060292D03*
D52*
X100470800Y-5060292D03*
X99670800Y-5060292D03*
X99670800Y-5060292D03*
X100470800Y-5060292D03*
D53*
X101170800Y-5060292D03*
X102170800Y-5060292D03*
X103670800Y-5060292D03*
X104670800Y-5060292D03*
D52*
X105370800Y-5060292D03*
X106170800Y-5060292D03*
D23*
X107240800Y-4145292D03*
D24*
X107240800Y34708D03*
D23*
X98600800Y-4145292D03*
D24*
X98600800Y34708D03*
%TD*%
D26*
%TO.C,R1102*%
X149910800Y-97599000D03*
X149910800Y-95949000D03*
%TD*%
D29*
%TO.C,C705*%
X110553800Y-39383000D03*
X109003800Y-39383000D03*
%TD*%
%TO.C,C208*%
X66611800Y-52324000D03*
X65061800Y-52324000D03*
%TD*%
D25*
%TO.C,R1218*%
X138163800Y-15214600D03*
X139813800Y-15214600D03*
%TD*%
D77*
%TO.C,U1201*%
X116729200Y-4819600D03*
X116729200Y-6089600D03*
X116729200Y-7359600D03*
X116729200Y-8629600D03*
X116729200Y-9899600D03*
X116729200Y-11169600D03*
X116729200Y-12439600D03*
X116729200Y-13709600D03*
X116729200Y-14979600D03*
X116729200Y-16249600D03*
X116729200Y-17519600D03*
X116729200Y-18789600D03*
X116729200Y-20059600D03*
X116729200Y-21329600D03*
D78*
X118694200Y-22779600D03*
X119964200Y-22779600D03*
X121234200Y-22779600D03*
X122504200Y-22779600D03*
X123774200Y-22779600D03*
X125044200Y-22779600D03*
X126314200Y-22779600D03*
X127584200Y-22779600D03*
X128854200Y-22779600D03*
X130124200Y-22779600D03*
X131394200Y-22779600D03*
X132664200Y-22779600D03*
D79*
X134629200Y-21329600D03*
X134629200Y-20059600D03*
X134629200Y-18789600D03*
X134629200Y-17519600D03*
X134629200Y-16249600D03*
X134629200Y-14979600D03*
X134629200Y-13709600D03*
X134629200Y-12439600D03*
X134629200Y-11169600D03*
X134629200Y-9899600D03*
X134629200Y-8629600D03*
X134629200Y-7359600D03*
X134629200Y-6089600D03*
X134629200Y-4819600D03*
D80*
X122779200Y-11139600D03*
X122779200Y-12539600D03*
X122779200Y-13939600D03*
X124179200Y-11139600D03*
X124179200Y-12539600D03*
X124179200Y-13939600D03*
X125579200Y-11139600D03*
X125579200Y-12539600D03*
X125579200Y-13939600D03*
%TD*%
D55*
%TO.C,R405*%
X36777300Y-50165000D03*
X34952300Y-50165000D03*
%TD*%
D11*
%TO.C,R609*%
X97141800Y-50292000D03*
X95491800Y-50292000D03*
%TD*%
D26*
%TO.C,R1003*%
X94792800Y-91249000D03*
X94792800Y-89599000D03*
%TD*%
%TO.C,R524*%
X71170800Y-68643000D03*
X71170800Y-66993000D03*
%TD*%
%TO.C,R207*%
X155752800Y-508000D03*
X155752800Y1142000D03*
%TD*%
D15*
%TO.C,R204*%
X145147300Y-43752000D03*
X145147300Y-45402000D03*
%TD*%
D81*
%TO.C,U601*%
X108828800Y-33817800D03*
X108828800Y-34467800D03*
X108828800Y-35117800D03*
X110728800Y-35117800D03*
X110728800Y-33817800D03*
%TD*%
D29*
%TO.C,C222*%
X150011700Y-29260800D03*
X148461700Y-29260800D03*
%TD*%
D19*
%TO.C,J1105*%
X153207800Y-103378000D03*
D18*
X153207800Y-100838000D03*
X155747800Y-103378000D03*
X155747800Y-100838000D03*
X158287800Y-103378000D03*
X158287800Y-100838000D03*
X160827800Y-103378000D03*
X160827800Y-100838000D03*
X163367800Y-103378000D03*
X163367800Y-100838000D03*
X165907800Y-103378000D03*
X165907800Y-100838000D03*
X168447800Y-103378000D03*
X168447800Y-100838000D03*
%TD*%
D82*
%TO.C,U801*%
X49004300Y-20966000D03*
X49004300Y-21616000D03*
X49004300Y-22266000D03*
X49004300Y-22916000D03*
X49004300Y-23566000D03*
X49004300Y-24216000D03*
X49004300Y-24866000D03*
X49004300Y-25516000D03*
X54729300Y-25516000D03*
X54729300Y-24866000D03*
X54729300Y-24216000D03*
X54729300Y-23566000D03*
X54729300Y-22916000D03*
X54729300Y-22266000D03*
X54729300Y-21616000D03*
X54729300Y-20966000D03*
%TD*%
D83*
%TO.C,D201*%
X150774400Y-11802000D03*
X150774400Y-7502000D03*
%TD*%
D26*
%TO.C,R1011*%
X113207800Y-94805000D03*
X113207800Y-93155000D03*
%TD*%
D84*
%TO.C,J1201*%
X84970600Y371550D03*
X86070600Y371550D03*
X87170600Y371550D03*
X88270600Y371550D03*
X89370600Y371550D03*
X90470600Y371550D03*
X91570600Y371550D03*
X92670600Y371550D03*
D85*
X83180600Y-12493450D03*
D86*
X87445600Y-12568450D03*
D87*
X80990600Y156550D03*
D88*
X93850600Y-328450D03*
D89*
X80770600Y-11093450D03*
X93930600Y-11093450D03*
%TD*%
D90*
%TO.C,U603*%
X126752800Y-46609000D03*
X126752800Y-47879000D03*
X126752800Y-49149000D03*
X126752800Y-50419000D03*
X133952800Y-50419000D03*
X133952800Y-49149000D03*
X133952800Y-47879000D03*
X133952800Y-46609000D03*
%TD*%
D11*
%TO.C,R607*%
X97141800Y-51816000D03*
X95491800Y-51816000D03*
%TD*%
D13*
%TO.C,Q604*%
X69779300Y-84267000D03*
X69779300Y-86167000D03*
X72054300Y-85217000D03*
%TD*%
D14*
%TO.C,C808*%
X44487800Y-21971000D03*
X46037800Y-21971000D03*
%TD*%
D36*
%TO.C,C1004*%
X112318800Y-85484000D03*
X112318800Y-83934000D03*
%TD*%
D15*
%TO.C,R1107*%
X131876800Y-26454600D03*
X131876800Y-28104600D03*
%TD*%
D36*
%TO.C,C513*%
X37007800Y-86119000D03*
X37007800Y-84569000D03*
%TD*%
D26*
%TO.C,R1103*%
X143560800Y-97599000D03*
X143560800Y-95949000D03*
%TD*%
D25*
%TO.C,R1113*%
X138163800Y-18770600D03*
X139813800Y-18770600D03*
%TD*%
D26*
%TO.C,R1009*%
X108635800Y-91249000D03*
X108635800Y-89599000D03*
%TD*%
D91*
%TO.C,U204*%
X104204800Y-25171000D03*
X101904800Y-25171000D03*
X99604800Y-25171000D03*
D92*
X101904800Y-31471000D03*
%TD*%
D33*
%TO.C,C229*%
X154824700Y-44665600D03*
X154824700Y-46215600D03*
%TD*%
D36*
%TO.C,C403*%
X56565800Y-53353000D03*
X56565800Y-51803000D03*
%TD*%
D11*
%TO.C,R1221*%
X113143800Y-12166600D03*
X111493800Y-12166600D03*
%TD*%
D33*
%TO.C,C224*%
X142073900Y-22694600D03*
X142073900Y-24244600D03*
%TD*%
D13*
%TO.C,Q802*%
X46220300Y-76266000D03*
X46220300Y-78166000D03*
X48495300Y-77216000D03*
%TD*%
%TO.C,Q501*%
X65016300Y-76266000D03*
X65016300Y-78166000D03*
X67291300Y-77216000D03*
%TD*%
D57*
%TO.C,J1104*%
X65557800Y-100482800D03*
D18*
X65557800Y-97942800D03*
X65557800Y-95402800D03*
X65557800Y-92862800D03*
X65557800Y-90322800D03*
X65557800Y-87782800D03*
%TD*%
D28*
%TO.C,FB1001*%
X100888800Y-97743500D03*
X100888800Y-99868500D03*
%TD*%
D12*
%TO.C,D801*%
X51151800Y-84975750D03*
X51151800Y-85925750D03*
X51151800Y-86875750D03*
X53851800Y-86875750D03*
X53851800Y-85925750D03*
X53851800Y-84975750D03*
%TD*%
D25*
%TO.C,R304*%
X6337800Y-44704000D03*
X7987800Y-44704000D03*
%TD*%
D27*
%TO.C,D501*%
X25284800Y-105918000D03*
X23584800Y-105918000D03*
%TD*%
D36*
%TO.C,C212*%
X77012800Y-38113000D03*
X77012800Y-36563000D03*
%TD*%
D26*
%TO.C,R1018*%
X97840800Y-91249000D03*
X97840800Y-89599000D03*
%TD*%
D27*
%TO.C,D1003*%
X82942800Y-105918000D03*
X81242800Y-105918000D03*
%TD*%
D26*
%TO.C,R210*%
X141909800Y-36181800D03*
X141909800Y-34531800D03*
%TD*%
D93*
%TO.C,U401*%
X42799500Y-44178000D03*
X42799500Y-44978000D03*
X42799500Y-45778000D03*
X42799500Y-46578000D03*
X42799500Y-47378000D03*
X42799500Y-48178000D03*
X42799500Y-48978000D03*
X42799500Y-49778000D03*
X42799500Y-50578000D03*
X42799500Y-51378000D03*
X42799500Y-52178000D03*
X42799500Y-52978000D03*
X42799500Y-53778000D03*
X42799500Y-54578000D03*
X42799500Y-55378000D03*
X42799500Y-56178000D03*
X42799500Y-56978000D03*
X42799500Y-57778000D03*
X42799500Y-58578000D03*
X42799500Y-59378000D03*
X42799500Y-60178000D03*
X42799500Y-60978000D03*
X53974500Y-60978000D03*
X53974500Y-60178000D03*
X53974500Y-59378000D03*
X53974500Y-58578000D03*
X53974500Y-57778000D03*
X53974500Y-56978000D03*
X53974500Y-56178000D03*
X53974500Y-55378000D03*
X53974500Y-54578000D03*
X53974500Y-53778000D03*
X53974500Y-52978000D03*
X53974500Y-52178000D03*
X53974500Y-51378000D03*
X53974500Y-50578000D03*
X53974500Y-49778000D03*
X53974500Y-48978000D03*
X53974500Y-48178000D03*
X53974500Y-47378000D03*
X53974500Y-46578000D03*
X53974500Y-45778000D03*
X53974500Y-44978000D03*
X53974500Y-44178000D03*
%TD*%
D26*
%TO.C,R1122*%
X125272800Y-97599000D03*
X125272800Y-95949000D03*
%TD*%
%TO.C,R907*%
X143433800Y-81343000D03*
X143433800Y-79693000D03*
%TD*%
D15*
%TO.C,R1110*%
X127304800Y-26454600D03*
X127304800Y-28104600D03*
%TD*%
D94*
%TO.C,R709*%
X53833300Y-14605000D03*
X56758300Y-14605000D03*
%TD*%
D12*
%TO.C,D901*%
X151100800Y-84394000D03*
X151100800Y-85344000D03*
X151100800Y-86294000D03*
X153800800Y-86294000D03*
X153800800Y-85344000D03*
X153800800Y-84394000D03*
%TD*%
D33*
%TO.C,C703*%
X72694800Y-19926000D03*
X72694800Y-21476000D03*
%TD*%
D25*
%TO.C,R1223*%
X111493800Y-15214600D03*
X113143800Y-15214600D03*
%TD*%
D26*
%TO.C,R1020*%
X111683800Y-91249000D03*
X111683800Y-89599000D03*
%TD*%
D33*
%TO.C,C1201*%
X88950800Y-15481000D03*
X88950800Y-17031000D03*
%TD*%
%TO.C,C235*%
X143623300Y-43802000D03*
X143623300Y-45352000D03*
%TD*%
%TO.C,C502*%
X78790800Y-67043000D03*
X78790800Y-68593000D03*
%TD*%
%TO.C,C209*%
X84886800Y-67043000D03*
X84886800Y-68593000D03*
%TD*%
D25*
%TO.C,R614*%
X122923800Y-49022000D03*
X124573800Y-49022000D03*
%TD*%
D36*
%TO.C,C240*%
X95808800Y-31382000D03*
X95808800Y-29832000D03*
%TD*%
D28*
%TO.C,FB1002*%
X114477800Y-97743500D03*
X114477800Y-99868500D03*
%TD*%
D26*
%TO.C,R1101*%
X151688800Y-97599000D03*
X151688800Y-95949000D03*
%TD*%
D25*
%TO.C,R905*%
X152514800Y-67818000D03*
X154164800Y-67818000D03*
%TD*%
D15*
%TO.C,R620*%
X126161800Y-38418000D03*
X126161800Y-40068000D03*
%TD*%
D26*
%TO.C,R622*%
X107238800Y-35369000D03*
X107238800Y-33719000D03*
%TD*%
D29*
%TO.C,C810*%
X46037800Y-25527000D03*
X44487800Y-25527000D03*
%TD*%
M02*
