%TF.GenerationSoftware,KiCad,Pcbnew,9.0.6*%
%TF.CreationDate,2026-01-20T15:10:11-08:00*%
%TF.ProjectId,BUTLER,4255544c-4552-42e6-9b69-6361645f7063,0*%
%TF.SameCoordinates,PXa8e0530PY39bce4a*%
%TF.FileFunction,Paste,Bot*%
%TF.FilePolarity,Positive*%
%FSLAX46Y46*%
G04 Gerber Fmt 4.6, Leading zero omitted, Abs format (unit mm)*
G04 Created by KiCad (PCBNEW 9.0.6) date 2026-01-20 15:10:11*
%MOMM*%
%LPD*%
G01*
G04 APERTURE LIST*
G04 Aperture macros list*
%AMRoundRect*
0 Rectangle with rounded corners*
0 $1 Rounding radius*
0 $2 $3 $4 $5 $6 $7 $8 $9 X,Y pos of 4 corners*
0 Add a 4 corners polygon primitive as box body*
4,1,4,$2,$3,$4,$5,$6,$7,$8,$9,$2,$3,0*
0 Add four circle primitives for the rounded corners*
1,1,$1+$1,$2,$3*
1,1,$1+$1,$4,$5*
1,1,$1+$1,$6,$7*
1,1,$1+$1,$8,$9*
0 Add four rect primitives between the rounded corners*
20,1,$1+$1,$2,$3,$4,$5,0*
20,1,$1+$1,$4,$5,$6,$7,0*
20,1,$1+$1,$6,$7,$8,$9,0*
20,1,$1+$1,$8,$9,$2,$3,0*%
G04 Aperture macros list end*
%ADD10RoundRect,0.100000X0.637500X0.100000X-0.637500X0.100000X-0.637500X-0.100000X0.637500X-0.100000X0*%
%ADD11RoundRect,0.225000X0.250000X-0.225000X0.250000X0.225000X-0.250000X0.225000X-0.250000X-0.225000X0*%
%ADD12RoundRect,0.225000X-0.250000X0.225000X-0.250000X-0.225000X0.250000X-0.225000X0.250000X0.225000X0*%
%ADD13RoundRect,0.225000X-0.225000X-0.250000X0.225000X-0.250000X0.225000X0.250000X-0.225000X0.250000X0*%
%ADD14RoundRect,0.375000X-0.625000X-0.375000X0.625000X-0.375000X0.625000X0.375000X-0.625000X0.375000X0*%
%ADD15RoundRect,0.500000X-0.500000X-1.400000X0.500000X-1.400000X0.500000X1.400000X-0.500000X1.400000X0*%
G04 APERTURE END LIST*
D10*
%TO.C,U301*%
X-32697500Y-62465000D03*
X-32697500Y-63115000D03*
X-32697500Y-63765000D03*
X-32697500Y-64415000D03*
X-32697500Y-65065000D03*
X-32697500Y-65715000D03*
X-32697500Y-66365000D03*
X-32697500Y-67015000D03*
X-32697500Y-67665000D03*
X-32697500Y-68315000D03*
X-32697500Y-68965000D03*
X-32697500Y-69615000D03*
X-38422500Y-69615000D03*
X-38422500Y-68965000D03*
X-38422500Y-68315000D03*
X-38422500Y-67665000D03*
X-38422500Y-67015000D03*
X-38422500Y-66365000D03*
X-38422500Y-65715000D03*
X-38422500Y-65065000D03*
X-38422500Y-64415000D03*
X-38422500Y-63765000D03*
X-38422500Y-63115000D03*
X-38422500Y-62465000D03*
%TD*%
D11*
%TO.C,C206*%
X-4445000Y-42685000D03*
X-4445000Y-41135000D03*
%TD*%
D12*
%TO.C,C520*%
X-42926000Y-44691000D03*
X-42926000Y-46241000D03*
%TD*%
D13*
%TO.C,C523*%
X-31496000Y-45466000D03*
X-29946000Y-45466000D03*
%TD*%
D12*
%TO.C,C519*%
X-44450000Y-44691000D03*
X-44450000Y-46241000D03*
%TD*%
D13*
%TO.C,C521*%
X-31496000Y-48514000D03*
X-29946000Y-48514000D03*
%TD*%
%TO.C,C301*%
X-39256000Y-60960000D03*
X-37706000Y-60960000D03*
%TD*%
%TO.C,C522*%
X-31496000Y-46990000D03*
X-29946000Y-46990000D03*
%TD*%
D14*
%TO.C,U506*%
X-40234000Y-49290000D03*
X-40234000Y-46990000D03*
X-40234000Y-44690000D03*
D15*
X-33934000Y-46990000D03*
%TD*%
M02*
