M48
; DRILL file {KiCad 9.0.6} date 2026-01-20T15:10:13-0800
; FORMAT={-:-/ absolute / metric / decimal}
; #@! TF.CreationDate,2026-01-20T15:10:13-08:00
; #@! TF.GenerationSoftware,Kicad,Pcbnew,9.0.6
; #@! TF.FileFunction,Plated,1,4,PTH
FMAT,2
METRIC
; #@! TA.AperFunction,Plated,PTH,ViaDrill
T1C0.300
; #@! TA.AperFunction,Plated,PTH,ViaDrill
T2C0.400
; #@! TA.AperFunction,Plated,PTH,ComponentDrill
T3C0.600
; #@! TA.AperFunction,Plated,PTH,ComponentDrill
T4C1.000
; #@! TA.AperFunction,Plated,PTH,ComponentDrill
T5C1.200
; #@! TA.AperFunction,Plated,PTH,ComponentDrill
T6C1.300
; #@! TA.AperFunction,Plated,PTH,ComponentDrill
T7C3.200
%
G90
G05
T1
X-97.409Y-20.955
X-97.282Y-40.64
X-97.282Y-43.18
X-97.282Y-45.72
X-97.282Y-48.26
X-97.282Y-50.8
X-97.282Y-53.34
X-97.282Y-55.88
X-97.282Y-58.42
X-97.282Y-60.96
X-97.155Y-7.239
X-97.155Y-23.495
X-97.155Y-63.5
X-97.155Y-66.04
X-97.155Y-68.58
X-97.155Y-71.12
X-97.155Y-73.66
X-97.155Y-76.2
X-97.155Y-78.74
X-97.155Y-81.28
X-97.155Y-83.693
X-97.155Y-86.233
X-97.155Y-88.9
X-97.155Y-91.44
X-97.155Y-93.98
X-97.155Y-96.52
X-97.155Y-98.679
X-95.631Y-7.239
X-92.71Y0.0
X-90.424Y-71.628
X-90.17Y0.0
X-89.916Y-77.724
X-87.63Y0.0
X-87.376Y-74.295
X-85.217Y-99.187
X-85.09Y0.0
X-85.09Y-66.04
X-85.09Y-68.58
X-85.09Y-71.12
X-85.09Y-73.66
X-85.09Y-76.2
X-85.09Y-78.74
X-85.09Y-81.28
X-85.09Y-83.82
X-85.09Y-86.36
X-82.55Y0.0
X-82.55Y-45.72
X-82.55Y-48.26
X-82.55Y-50.8
X-82.55Y-53.34
X-82.55Y-55.88
X-82.55Y-58.42
X-82.55Y-60.96
X-82.55Y-63.5
X-82.55Y-66.04
X-82.55Y-68.58
X-82.55Y-71.12
X-82.55Y-73.66
X-82.55Y-76.2
X-82.55Y-78.74
X-82.55Y-81.28
X-82.55Y-83.82
X-82.55Y-86.36
X-82.55Y-88.9
X-82.55Y-91.44
X-82.55Y-93.98
X-82.55Y-96.52
X-82.55Y-99.187
X-81.915Y-21.59
X-81.915Y-24.13
X-81.915Y-26.67
X-81.915Y-29.21
X-81.915Y-31.75
X-81.915Y-34.29
X-81.915Y-36.83
X-74.93Y0.0
X-74.93Y-2.54
X-74.93Y-5.08
X-74.93Y-7.62
X-74.93Y-10.16
X-74.93Y-12.7
X-74.93Y-15.24
X-74.93Y-17.78
X-74.93Y-20.32
X-74.93Y-22.86
X-74.93Y-25.4
X-74.93Y-27.94
X-74.93Y-30.48
X-74.93Y-33.02
X-74.93Y-35.56
X-74.93Y-37.465
X-74.93Y-45.085
X-74.93Y-46.355
X-74.93Y-48.26
X-74.93Y-50.8
X-74.93Y-53.34
X-74.93Y-55.88
X-74.93Y-58.42
X-74.93Y-60.96
X-74.93Y-63.5
X-74.93Y-66.04
X-74.93Y-68.58
X-74.93Y-71.12
X-74.93Y-73.66
X-74.93Y-76.2
X-74.93Y-78.74
X-74.93Y-81.28
X-74.93Y-83.82
X-74.93Y-86.36
X-74.93Y-88.9
X-74.93Y-91.44
X-74.93Y-93.98
X-74.93Y-96.52
X-74.93Y-99.06
X-72.39Y0.0
X-69.85Y0.0
X-67.31Y0.0
X-67.31Y-2.54
X-67.31Y-5.08
X-67.31Y-7.62
X-67.31Y-10.16
X-67.31Y-12.7
X-67.31Y-15.24
X-67.31Y-17.78
X-67.31Y-20.32
X-67.31Y-22.86
X-67.31Y-25.4
X-67.31Y-27.94
X-67.31Y-30.48
X-67.31Y-33.02
X-67.31Y-35.56
X-67.31Y-37.465
X-67.31Y-45.085
X-67.31Y-46.355
X-67.31Y-48.26
X-67.31Y-50.8
X-67.31Y-53.34
X-67.31Y-55.88
X-67.31Y-58.42
X-67.31Y-60.96
X-67.31Y-63.5
X-67.31Y-66.04
X-67.31Y-68.58
X-67.31Y-71.12
X-67.31Y-73.66
X-67.31Y-76.2
X-67.31Y-78.74
X-67.31Y-81.28
X-67.31Y-83.82
X-67.31Y-86.36
X-67.31Y-88.9
X-67.31Y-91.44
X-67.31Y-96.52
X-67.31Y-99.06
X-60.452Y-7.112
X-59.69Y0.0
X-59.69Y-2.54
X-59.69Y-4.445
X-59.69Y-13.97
X-59.69Y-22.86
X-59.69Y-25.4
X-59.69Y-27.94
X-59.69Y-30.48
X-59.69Y-33.02
X-59.69Y-34.925
X-59.69Y-37.465
X-59.69Y-45.085
X-59.69Y-46.355
X-59.69Y-48.26
X-59.69Y-50.8
X-59.69Y-53.34
X-59.69Y-55.88
X-59.69Y-58.42
X-59.69Y-60.96
X-59.69Y-63.5
X-59.69Y-66.04
X-59.69Y-68.58
X-59.69Y-71.12
X-59.69Y-73.66
X-59.69Y-75.819
X-59.69Y-85.09
X-59.69Y-93.345
X-59.69Y-94.615
X-59.69Y-96.52
X-59.69Y-99.06
X-57.15Y0.0
X-57.15Y-99.06
X-54.61Y0.0
X-54.61Y-99.06
X-52.07Y0.0
X-52.07Y-2.54
X-52.07Y-4.445
X-52.07Y-13.97
X-52.07Y-19.304
X-52.07Y-22.86
X-52.07Y-25.4
X-52.07Y-27.94
X-52.07Y-30.48
X-52.07Y-33.02
X-52.07Y-34.925
X-52.07Y-37.465
X-52.07Y-45.085
X-52.07Y-46.355
X-52.07Y-48.26
X-52.07Y-50.8
X-52.07Y-53.34
X-52.07Y-55.88
X-52.07Y-58.42
X-52.07Y-60.96
X-52.07Y-63.5
X-52.07Y-66.04
X-52.07Y-68.58
X-52.07Y-71.12
X-52.07Y-73.66
X-52.07Y-75.819
X-52.07Y-85.09
X-52.07Y-93.345
X-52.07Y-94.615
X-52.07Y-96.52
X-52.07Y-99.06
X-45.72Y-1.397
X-45.72Y-3.81
X-45.72Y-6.35
X-45.72Y-8.89
X-45.72Y-11.43
X-45.72Y-13.97
X-45.72Y-16.51
X-45.72Y-52.07
X-45.466Y-97.79
X-45.339Y-92.71
X-45.212Y-78.359
X-45.085Y-57.785
X-45.085Y-67.818
X-45.085Y-85.09
X-45.085Y-95.25
X-44.958Y-64.008
X-44.958Y-90.17
X-44.704Y-83.058
X-44.45Y0.0
X-44.069Y-61.849
X-43.18Y-97.155
X-42.418Y-82.677
X-42.037Y-29.21
X-41.91Y0.0
X-41.91Y-4.699
X-40.005Y-99.06
X-39.37Y0.0
X-38.227Y-82.581
X-37.719Y-4.572
X-37.719Y-10.414
X-37.719Y-20.066
X-37.719Y-25.908
X-37.719Y-32.512
X-37.719Y-38.354
X-37.719Y-50.8
X-37.719Y-71.374
X-37.719Y-77.216
X-37.338Y-63.119
X-37.266Y-87.035
X-37.211Y-94.361
X-37.084Y-56.134
X-37.084Y-57.785
X-36.83Y0.0
X-36.83Y-66.675
X-35.56Y-3.81
X-35.56Y-8.128
X-35.56Y-17.78
X-35.56Y-21.59
X-35.56Y-25.4
X-35.56Y-33.02
X-35.56Y-36.068
X-35.306Y-83.82
X-34.29Y0.0
X-33.909Y-69.596
X-33.782Y-56.896
X-33.655Y-97.79
X-33.528Y-32.258
X-33.528Y-70.993
X-33.401Y-5.207
X-33.401Y-19.812
X-33.401Y-20.701
X-33.401Y-33.147
X-33.401Y-50.546
X-33.401Y-51.435
X-33.401Y-72.009
X-32.639Y-87.249
X-32.004Y-3.937
X-31.75Y0.0
X-31.115Y-93.726
X-29.845Y-84.455
X-29.464Y-79.121
X-29.464Y-82.423
X-29.21Y0.0
X-29.21Y-99.06
X-28.702Y-96.647
X-28.194Y-29.464
X-27.94Y-60.96
X-27.305Y-19.05
X-27.051Y-84.201
X-26.797Y-85.09
X-26.67Y0.0
X-26.67Y-62.23
X-26.67Y-67.31
X-26.67Y-92.964
X-26.67Y-99.06
X-26.162Y-90.17
X-26.035Y-2.54
X-26.035Y-5.08
X-26.035Y-10.16
X-26.035Y-14.605
X-26.035Y-17.145
X-26.035Y-45.72
X-26.035Y-48.895
X-26.035Y-52.07
X-26.035Y-55.88
X-26.035Y-64.135
X-19.685Y-9.525
X-19.05Y0.0
X-19.05Y-2.54
X-19.05Y-4.445
X-19.05Y-13.97
X-19.05Y-19.05
X-19.05Y-20.955
X-19.05Y-22.86
X-19.05Y-25.4
X-19.05Y-27.94
X-19.05Y-30.48
X-19.05Y-33.02
X-19.05Y-35.56
X-19.05Y-37.465
X-19.05Y-46.355
X-19.05Y-48.26
X-19.05Y-50.8
X-19.05Y-53.34
X-19.05Y-55.88
X-19.05Y-58.42
X-19.05Y-60.96
X-19.05Y-63.5
X-19.05Y-66.04
X-19.05Y-68.58
X-19.05Y-71.12
X-19.05Y-73.66
X-19.05Y-76.2
X-19.05Y-78.105
X-19.05Y-80.01
X-19.05Y-85.09
X-19.05Y-96.52
X-19.05Y-99.06
X-18.415Y-90.805
X-18.415Y-93.345
X-18.415Y-94.615
X-16.51Y0.0
X-16.51Y-99.06
X-14.097Y-90.805
X-13.97Y0.0
X-13.97Y-99.06
X-11.43Y0.0
X-11.43Y-2.54
X-11.43Y-4.445
X-11.43Y-13.97
X-11.43Y-19.05
X-11.43Y-20.955
X-11.43Y-22.86
X-11.43Y-25.4
X-11.43Y-27.94
X-11.43Y-30.48
X-11.43Y-33.02
X-11.43Y-35.56
X-11.43Y-37.465
X-11.43Y-46.355
X-11.43Y-48.26
X-11.43Y-50.8
X-11.43Y-53.34
X-11.43Y-55.88
X-11.43Y-58.42
X-11.43Y-60.96
X-11.43Y-63.5
X-11.43Y-66.04
X-11.43Y-68.58
X-11.43Y-71.12
X-11.43Y-73.66
X-11.43Y-76.2
X-11.43Y-78.105
X-11.43Y-83.185
X-11.43Y-85.09
X-11.43Y-90.805
X-11.43Y-93.345
X-11.43Y-94.615
X-11.43Y-96.52
X-11.43Y-99.06
X-7.62Y-84.455
X2.139Y-1.933
X2.139Y-4.473
X2.139Y-7.013
X2.139Y-9.553
X2.139Y-12.093
X2.139Y-14.633
X2.139Y-17.173
X2.139Y-19.713
X2.139Y-22.253
X2.139Y-24.793
X2.139Y-27.333
X2.139Y-29.873
X2.139Y-32.413
X2.139Y-34.953
X2.139Y-37.493
X2.139Y-40.033
X2.139Y-42.573
X2.139Y-45.113
X2.139Y-47.653
X2.139Y-50.193
X2.139Y-52.733
X2.139Y-55.273
X2.139Y-57.813
X2.139Y-60.353
X2.139Y-62.893
X2.139Y-65.433
X2.139Y-67.973
X2.139Y-70.513
X2.139Y-73.053
X2.139Y-75.593
X2.139Y-78.133
X2.139Y-80.673
X2.139Y-83.213
X2.139Y-85.753
X2.139Y-88.293
X2.139Y-90.833
X2.139Y-93.373
X2.139Y-95.913
X2.139Y-98.453
T2
X-97.028Y-2.286
X-97.028Y-11.288
X-95.885Y-75.311
X-95.758Y-11.288
X-95.25Y-99.06
X-94.996Y-77.724
X-94.422Y-63.312
X-94.361Y-66.548
X-94.107Y-20.781
X-93.737Y-70.265
X-93.472Y-97.536
X-93.345Y-63.312
X-93.091Y-7.874
X-92.837Y-77.724
X-92.71Y-19.511
X-91.313Y-77.724
X-91.059Y-20.781
X-90.435Y-70.265
X-90.17Y-27.94
X-90.132Y-29.464
X-89.496Y-99.187
X-88.646Y-64.262
X-88.646Y-67.31
X-86.868Y-27.94
X-86.868Y-29.464
X-86.868Y-30.988
X-85.725Y-7.949
X-85.344Y-16.637
X-85.344Y-18.161
X-84.074Y-40.259
X-84.074Y-43.561
X-83.947Y-20.955
X-83.947Y-21.971
X-83.947Y-22.987
X-83.947Y-24.083
X-83.947Y-25.099
X-83.947Y-26.115
X-83.693Y-27.94
X-83.693Y-29.464
X-83.693Y-30.988
X-82.55Y-40.259
X-82.55Y-43.561
X-82.296Y-9.779
X-82.296Y-15.113
X-82.296Y-16.637
X-82.296Y-18.161
X-74.93Y-40.132
X-74.93Y-43.561
X-73.406Y-40.132
X-73.406Y-43.561
X-68.834Y-40.259
X-68.834Y-43.561
X-67.31Y-40.259
X-67.31Y-43.561
X-59.69Y-40.259
X-59.69Y-43.561
X-58.166Y-40.259
X-58.166Y-43.561
X-53.594Y-40.259
X-53.594Y-43.561
X-52.07Y-40.259
X-52.07Y-43.561
X-44.45Y-40.259
X-44.45Y-43.561
X-44.45Y-46.99
X-42.926Y-40.259
X-42.926Y-43.561
X-42.926Y-46.99
X-42.009Y-49.657
X-41.996Y-48.346
X-40.145Y-80.01
X-40.145Y-81.534
X-40.119Y-59.436
X-40.119Y-60.96
X-39.751Y-13.208
X-39.751Y-14.732
X-39.751Y-28.702
X-39.751Y-30.226
X-39.751Y-41.148
X-39.751Y-42.672
X-39.611Y-96.393
X-37.719Y-49.29
X-37.211Y-97.282
X-36.843Y-80.01
X-36.843Y-81.534
X-36.817Y-59.436
X-36.817Y-60.96
X-36.449Y-13.208
X-36.449Y-14.732
X-36.449Y-28.702
X-36.449Y-30.226
X-36.449Y-41.148
X-36.449Y-42.672
X-35.687Y-86.868
X-34.671Y-13.208
X-34.671Y-28.702
X-34.671Y-41.148
X-34.29Y-59.436
X-34.29Y-60.96
X-34.29Y-80.01
X-34.29Y-81.534
X-32.258Y-45.466
X-32.258Y-83.693
X-32.245Y-46.99
X-32.245Y-48.514
X-31.369Y-13.208
X-31.369Y-14.732
X-31.369Y-28.702
X-31.369Y-30.226
X-31.369Y-41.148
X-31.369Y-42.672
X-31.369Y-86.233
X-30.988Y-59.436
X-30.988Y-60.96
X-30.988Y-80.01
X-30.988Y-81.534
X-29.591Y-61.849
X-29.083Y-45.466
X-29.07Y-46.99
X-29.07Y-48.514
X-28.194Y-40.259
X-28.194Y-43.561
X-26.67Y-40.259
X-26.67Y-43.561
X-19.05Y-40.259
X-19.05Y-43.561
X-17.526Y-40.259
X-17.526Y-43.561
X-14.478Y-40.259
X-14.478Y-43.561
X-12.954Y-40.259
X-12.954Y-43.561
X-11.43Y-40.259
X-11.43Y-43.561
T4
X-80.01Y0.0
X-80.01Y-2.54
X-80.01Y-5.08
X-80.01Y-7.62
X-80.01Y-10.16
X-80.01Y-12.7
X-80.01Y-15.24
X-80.01Y-17.78
X-80.01Y-20.32
X-80.01Y-22.86
X-80.01Y-25.4
X-80.01Y-27.94
X-80.01Y-30.48
X-80.01Y-33.02
X-80.01Y-35.56
X-80.01Y-38.1
X-80.01Y-40.64
X-80.01Y-43.18
X-80.01Y-45.72
X-80.01Y-48.26
X-80.01Y-50.8
X-80.01Y-53.34
X-80.01Y-55.88
X-80.01Y-58.42
X-80.01Y-60.96
X-80.01Y-63.5
X-80.01Y-66.04
X-80.01Y-68.58
X-80.01Y-71.12
X-80.01Y-73.66
X-80.01Y-76.2
X-80.01Y-78.74
X-80.01Y-81.28
X-80.01Y-83.82
X-80.01Y-86.36
X-80.01Y-88.9
X-80.01Y-91.44
X-80.01Y-93.98
X-80.01Y-96.52
X-80.01Y-99.06
X-77.47Y0.0
X-77.47Y-2.54
X-77.47Y-5.08
X-77.47Y-7.62
X-77.47Y-10.16
X-77.47Y-12.7
X-77.47Y-15.24
X-77.47Y-17.78
X-77.47Y-20.32
X-77.47Y-22.86
X-77.47Y-25.4
X-77.47Y-27.94
X-77.47Y-30.48
X-77.47Y-33.02
X-77.47Y-35.56
X-77.47Y-38.1
X-77.47Y-40.64
X-77.47Y-43.18
X-77.47Y-45.72
X-77.47Y-48.26
X-77.47Y-50.8
X-77.47Y-53.34
X-77.47Y-55.88
X-77.47Y-58.42
X-77.47Y-60.96
X-77.47Y-63.5
X-77.47Y-66.04
X-77.47Y-68.58
X-77.47Y-71.12
X-77.47Y-73.66
X-77.47Y-76.2
X-77.47Y-78.74
X-77.47Y-81.28
X-77.47Y-83.82
X-77.47Y-86.36
X-77.47Y-88.9
X-77.47Y-91.44
X-77.47Y-93.98
X-77.47Y-96.52
X-77.47Y-99.06
X-64.77Y0.0
X-64.77Y-2.54
X-64.77Y-5.08
X-64.77Y-7.62
X-64.77Y-10.16
X-64.77Y-12.7
X-64.77Y-15.24
X-64.77Y-17.78
X-64.77Y-20.32
X-64.77Y-22.86
X-64.77Y-25.4
X-64.77Y-27.94
X-64.77Y-30.48
X-64.77Y-33.02
X-64.77Y-35.56
X-64.77Y-38.1
X-64.77Y-40.64
X-64.77Y-43.18
X-64.77Y-45.72
X-64.77Y-48.26
X-64.77Y-50.8
X-64.77Y-53.34
X-64.77Y-55.88
X-64.77Y-58.42
X-64.77Y-60.96
X-64.77Y-63.5
X-64.77Y-66.04
X-64.77Y-68.58
X-64.77Y-71.12
X-64.77Y-73.66
X-64.77Y-76.2
X-64.77Y-78.74
X-64.77Y-81.28
X-64.77Y-83.82
X-64.77Y-86.36
X-64.77Y-88.9
X-64.77Y-91.44
X-64.77Y-93.98
X-64.77Y-96.52
X-64.77Y-99.06
X-62.23Y0.0
X-62.23Y-2.54
X-62.23Y-5.08
X-62.23Y-7.62
X-62.23Y-10.16
X-62.23Y-12.7
X-62.23Y-15.24
X-62.23Y-17.78
X-62.23Y-20.32
X-62.23Y-22.86
X-62.23Y-25.4
X-62.23Y-27.94
X-62.23Y-30.48
X-62.23Y-33.02
X-62.23Y-35.56
X-62.23Y-38.1
X-62.23Y-40.64
X-62.23Y-43.18
X-62.23Y-45.72
X-62.23Y-48.26
X-62.23Y-50.8
X-62.23Y-53.34
X-62.23Y-55.88
X-62.23Y-58.42
X-62.23Y-60.96
X-62.23Y-63.5
X-62.23Y-66.04
X-62.23Y-68.58
X-62.23Y-71.12
X-62.23Y-73.66
X-62.23Y-76.2
X-62.23Y-78.74
X-62.23Y-81.28
X-62.23Y-83.82
X-62.23Y-86.36
X-62.23Y-88.9
X-62.23Y-91.44
X-62.23Y-93.98
X-62.23Y-96.52
X-62.23Y-99.06
X-49.53Y0.0
X-49.53Y-2.54
X-49.53Y-5.08
X-49.53Y-7.62
X-49.53Y-10.16
X-49.53Y-12.7
X-49.53Y-15.24
X-49.53Y-17.78
X-49.53Y-20.32
X-49.53Y-22.86
X-49.53Y-25.4
X-49.53Y-27.94
X-49.53Y-30.48
X-49.53Y-33.02
X-49.53Y-35.56
X-49.53Y-38.1
X-49.53Y-40.64
X-49.53Y-43.18
X-49.53Y-45.72
X-49.53Y-48.26
X-49.53Y-50.8
X-49.53Y-53.34
X-49.53Y-55.88
X-49.53Y-58.42
X-49.53Y-60.96
X-49.53Y-63.5
X-49.53Y-66.04
X-49.53Y-68.58
X-49.53Y-71.12
X-49.53Y-73.66
X-49.53Y-76.2
X-49.53Y-78.74
X-49.53Y-81.28
X-49.53Y-83.82
X-49.53Y-86.36
X-49.53Y-88.9
X-49.53Y-91.44
X-49.53Y-93.98
X-49.53Y-96.52
X-49.53Y-99.06
X-46.99Y0.0
X-46.99Y-2.54
X-46.99Y-5.08
X-46.99Y-7.62
X-46.99Y-10.16
X-46.99Y-12.7
X-46.99Y-15.24
X-46.99Y-17.78
X-46.99Y-20.32
X-46.99Y-22.86
X-46.99Y-25.4
X-46.99Y-27.94
X-46.99Y-30.48
X-46.99Y-33.02
X-46.99Y-35.56
X-46.99Y-38.1
X-46.99Y-40.64
X-46.99Y-43.18
X-46.99Y-45.72
X-46.99Y-48.26
X-46.99Y-50.8
X-46.99Y-53.34
X-46.99Y-55.88
X-46.99Y-58.42
X-46.99Y-60.96
X-46.99Y-63.5
X-46.99Y-66.04
X-46.99Y-68.58
X-46.99Y-71.12
X-46.99Y-73.66
X-46.99Y-76.2
X-46.99Y-78.74
X-46.99Y-81.28
X-46.99Y-83.82
X-46.99Y-86.36
X-46.99Y-88.9
X-46.99Y-91.44
X-46.99Y-93.98
X-46.99Y-96.52
X-46.99Y-99.06
X-24.13Y0.0
X-24.13Y-2.54
X-24.13Y-5.08
X-24.13Y-7.62
X-24.13Y-10.16
X-24.13Y-12.7
X-24.13Y-15.24
X-24.13Y-17.78
X-24.13Y-20.32
X-24.13Y-22.86
X-24.13Y-25.4
X-24.13Y-27.94
X-24.13Y-30.48
X-24.13Y-33.02
X-24.13Y-35.56
X-24.13Y-38.1
X-24.13Y-40.64
X-24.13Y-43.18
X-24.13Y-45.72
X-24.13Y-48.26
X-24.13Y-50.8
X-24.13Y-53.34
X-24.13Y-55.88
X-24.13Y-58.42
X-24.13Y-60.96
X-24.13Y-63.5
X-24.13Y-66.04
X-24.13Y-68.58
X-24.13Y-71.12
X-24.13Y-73.66
X-24.13Y-76.2
X-24.13Y-78.74
X-24.13Y-81.28
X-24.13Y-83.82
X-24.13Y-86.36
X-24.13Y-88.9
X-24.13Y-91.44
X-24.13Y-93.98
X-24.13Y-96.52
X-24.13Y-99.06
X-21.59Y0.0
X-21.59Y-2.54
X-21.59Y-5.08
X-21.59Y-7.62
X-21.59Y-10.16
X-21.59Y-12.7
X-21.59Y-15.24
X-21.59Y-17.78
X-21.59Y-20.32
X-21.59Y-22.86
X-21.59Y-25.4
X-21.59Y-27.94
X-21.59Y-30.48
X-21.59Y-33.02
X-21.59Y-35.56
X-21.59Y-38.1
X-21.59Y-40.64
X-21.59Y-43.18
X-21.59Y-45.72
X-21.59Y-48.26
X-21.59Y-50.8
X-21.59Y-53.34
X-21.59Y-55.88
X-21.59Y-58.42
X-21.59Y-60.96
X-21.59Y-63.5
X-21.59Y-66.04
X-21.59Y-68.58
X-21.59Y-71.12
X-21.59Y-73.66
X-21.59Y-76.2
X-21.59Y-78.74
X-21.59Y-81.28
X-21.59Y-83.82
X-21.59Y-86.36
X-21.59Y-88.9
X-21.59Y-91.44
X-21.59Y-93.98
X-21.59Y-96.52
X-21.59Y-99.06
X-8.89Y0.0
X-8.89Y-2.54
X-8.89Y-5.08
X-8.89Y-7.62
X-8.89Y-10.16
X-8.89Y-12.7
X-8.89Y-15.24
X-8.89Y-17.78
X-8.89Y-20.32
X-8.89Y-22.86
X-8.89Y-25.4
X-8.89Y-27.94
X-8.89Y-30.48
X-8.89Y-33.02
X-8.89Y-35.56
X-8.89Y-38.1
X-8.89Y-40.64
X-8.89Y-43.18
X-8.89Y-45.72
X-8.89Y-48.26
X-8.89Y-50.8
X-8.89Y-53.34
X-8.89Y-55.88
X-8.89Y-58.42
X-8.89Y-60.96
X-8.89Y-63.5
X-8.89Y-66.04
X-8.89Y-68.58
X-8.89Y-71.12
X-8.89Y-73.66
X-8.89Y-76.2
X-8.89Y-78.74
X-8.89Y-81.28
X-8.89Y-83.82
X-8.89Y-86.36
X-8.89Y-88.9
X-8.89Y-91.44
X-8.89Y-93.98
X-8.89Y-96.52
X-8.89Y-99.06
X-6.35Y0.0
X-6.35Y-2.54
X-6.35Y-5.08
X-6.35Y-7.62
X-6.35Y-10.16
X-6.35Y-12.7
X-6.35Y-15.24
X-6.35Y-17.78
X-6.35Y-20.32
X-6.35Y-22.86
X-6.35Y-25.4
X-6.35Y-27.94
X-6.35Y-30.48
X-6.35Y-33.02
X-6.35Y-35.56
X-6.35Y-38.1
X-6.35Y-40.64
X-6.35Y-43.18
X-6.35Y-45.72
X-6.35Y-48.26
X-6.35Y-50.8
X-6.35Y-53.34
X-6.35Y-55.88
X-6.35Y-58.42
X-6.35Y-60.96
X-6.35Y-63.5
X-6.35Y-66.04
X-6.35Y-68.58
X-6.35Y-71.12
X-6.35Y-73.66
X-6.35Y-76.2
X-6.35Y-78.74
X-6.35Y-81.28
X-6.35Y-83.82
X-6.35Y-86.36
X-6.35Y-88.9
X-6.35Y-91.44
X-6.35Y-93.98
X-6.35Y-96.52
X-6.35Y-99.06
X-2.54Y0.0
X-2.54Y-2.54
X-2.54Y-5.08
X-2.54Y-7.62
X-2.54Y-10.16
X-2.54Y-12.7
X-2.54Y-15.24
X-2.54Y-17.78
X-2.54Y-20.32
X-2.54Y-22.86
X-2.54Y-25.4
X-2.54Y-27.94
X-2.54Y-30.48
X-2.54Y-33.02
X-2.54Y-35.56
X-2.54Y-38.1
X-2.54Y-40.64
X-2.54Y-43.18
X-2.54Y-45.72
X-2.54Y-48.26
X-2.54Y-50.8
X-2.54Y-53.34
X-2.54Y-55.88
X-2.54Y-58.42
X-2.54Y-60.96
X-2.54Y-63.5
X-2.54Y-66.04
X-2.54Y-68.58
X-2.54Y-71.12
X-2.54Y-73.66
X-2.54Y-76.2
X-2.54Y-78.74
X-2.54Y-81.28
X-2.54Y-83.82
X-2.54Y-86.36
X-2.54Y-88.9
X-2.54Y-91.44
X-2.54Y-93.98
X-2.54Y-96.52
X-2.54Y-99.06
X0.0Y0.0
X0.0Y-2.54
X0.0Y-5.08
X0.0Y-7.62
X0.0Y-10.16
X0.0Y-12.7
X0.0Y-15.24
X0.0Y-17.78
X0.0Y-20.32
X0.0Y-22.86
X0.0Y-25.4
X0.0Y-27.94
X0.0Y-30.48
X0.0Y-33.02
X0.0Y-35.56
X0.0Y-38.1
X0.0Y-40.64
X0.0Y-43.18
X0.0Y-45.72
X0.0Y-48.26
X0.0Y-50.8
X0.0Y-53.34
X0.0Y-55.88
X0.0Y-58.42
X0.0Y-60.96
X0.0Y-63.5
X0.0Y-66.04
X0.0Y-68.58
X0.0Y-71.12
X0.0Y-73.66
X0.0Y-76.2
X0.0Y-78.74
X0.0Y-81.28
X0.0Y-83.82
X0.0Y-86.36
X0.0Y-88.9
X0.0Y-91.44
X0.0Y-93.98
X0.0Y-96.52
X0.0Y-99.06
T5
X-92.987Y-90.841
X-92.987Y-95.341
X-86.487Y-90.841
X-86.487Y-95.341
T6
X-94.271Y-40.045
X-94.271Y-45.045
T7
X-89.662Y-13.97
X-89.662Y-85.09
X-55.88Y-13.97
X-55.88Y-85.09
X-15.24Y-13.97
X-15.24Y-85.09
T3
X-93.601Y-1.917G85X-93.601Y-1.317
G05
X-93.601Y-6.347G85X-93.601Y-5.247
G05
X-84.961Y-1.917G85X-84.961Y-1.317
G05
X-84.961Y-6.347G85X-84.961Y-5.247
G05
T4
X-90.358Y-54.935G85X-90.358Y-52.935
G05
X-86.358Y-58.635G85X-88.358Y-58.635
G05
X-84.358Y-55.185G85X-84.358Y-52.685
G05
M30
