M48
; DRILL file KiCad 10.0.1 date 2026-04-26T15:09:50
; FORMAT={-:-/ absolute / metric / decimal}
; #@! TF.CreationDate,2026-04-26T15:09:50-07:00
; #@! TF.GenerationSoftware,Kicad,Pcbnew,10.0.1
; #@! TF.FileFunction,Plated,1,4,PTH
FMAT,2
METRIC
; #@! TA.AperFunction,Plated,PTH,ViaDrill
T1C0.300
; #@! TA.AperFunction,Plated,PTH,ViaDrill
T2C0.400
; #@! TA.AperFunction,Plated,PTH,ComponentDrill
T3C0.600
; #@! TA.AperFunction,Plated,PTH,ComponentDrill
T4C1.000
; #@! TA.AperFunction,Plated,PTH,ComponentDrill
T5C1.200
%
G90
G05
T1
X0.0Y43.18
X0.0Y40.64
X0.0Y38.1
X0.0Y35.56
X0.0Y33.02
X0.0Y30.48
X0.0Y27.94
X0.0Y25.4
X0.0Y22.86
X0.0Y20.32
X2.54Y10.16
X3.404Y14.072
X4.674Y14.072
X5.08Y10.16
X5.994Y14.072
X7.315Y14.072
X7.62Y10.16
X7.874Y69.469
X7.874Y66.548
X11.481Y7.264
X12.192Y9.347
X13.981Y10.813
X14.072Y14.173
X15.24Y73.66
X15.24Y50.8
X15.342Y14.173
X15.367Y62.611
X15.886Y10.813
X16.662Y14.173
X17.018Y38.202
X17.272Y6.172
X17.78Y73.66
X17.78Y48.26
X17.791Y10.813
X17.932Y14.173
X19.304Y4.826
X19.507Y45.517
X19.685Y6.985
X20.32Y73.66
X20.32Y50.8
X22.86Y73.66
X22.86Y53.34
X22.86Y10.795
X25.4Y73.66
X25.4Y55.88
X25.4Y10.795
X26.06Y42.52
X26.518Y49.784
X26.822Y37.592
X27.559Y44.704
X27.635Y52.527
X27.889Y39.726
X27.94Y73.66
X27.94Y58.42
X28.829Y15.494
X29.591Y5.207
X30.734Y7.239
X33.02Y73.66
X33.02Y10.795
X35.306Y56.083
X35.408Y53.746
X35.509Y51.308
X35.56Y47.092
X35.56Y43.739
X35.56Y41.148
X35.56Y35.56
X35.56Y10.795
X35.611Y38.71
X38.1Y33.02
X38.1Y30.48
X38.1Y27.94
X38.1Y25.4
X38.1Y10.795
X40.513Y4.826
X40.64Y73.66
X40.64Y71.12
X40.64Y10.795
X44.704Y4.953
X45.72Y73.66
X45.72Y60.96
X45.72Y55.88
X45.72Y50.8
X45.72Y45.72
X45.72Y40.64
X48.26Y73.66
X48.26Y38.1
X50.8Y73.66
X50.8Y35.56
X50.8Y10.16
X53.34Y73.66
X53.34Y35.56
X53.34Y33.02
X53.34Y30.48
X53.34Y27.94
X53.34Y25.4
X53.34Y10.16
X55.88Y73.66
X58.42Y73.66
X58.42Y55.88
X58.42Y50.8
X58.42Y45.72
X58.42Y40.64
X58.42Y10.16
X60.96Y10.16
X62.357Y6.223
X62.992Y8.382
X63.5Y10.16
X68.58Y10.16
X71.12Y10.16
X73.66Y10.16
X76.2Y73.66
X78.74Y73.66
X78.74Y58.42
X78.74Y53.34
X78.74Y48.26
X78.74Y43.18
X78.74Y38.1
X78.74Y10.16
X81.28Y73.66
X81.28Y70.485
X81.28Y35.56
X81.28Y10.16
X83.82Y73.66
X83.82Y33.02
X83.82Y30.48
X83.82Y27.94
X83.82Y25.4
X83.82Y22.86
X86.36Y73.66
X88.9Y58.42
X88.9Y53.34
X88.9Y48.26
X88.9Y43.18
X88.9Y38.1
X88.9Y10.16
X91.44Y10.16
X93.98Y10.16
X98.92Y7.575
X98.92Y5.035
X99.06Y66.04
X99.06Y63.5
X99.06Y60.96
X99.06Y58.42
X99.06Y55.88
X99.06Y53.34
X99.06Y50.8
X99.06Y48.26
X99.06Y45.72
X99.06Y43.18
X99.06Y40.64
X99.06Y38.1
X99.06Y35.56
X99.06Y33.02
X99.06Y30.48
X99.06Y27.94
X99.06Y25.4
X99.06Y22.86
X99.06Y20.32
X99.06Y17.78
X99.06Y15.24
T2
X-0.127Y52.553
X-0.127Y51.562
X-0.127Y48.26
X0.508Y60.325
X0.508Y57.023
X0.508Y13.97
X0.508Y10.668
X1.397Y52.553
X1.397Y51.562
X1.397Y48.26
X1.397Y9.144
X2.286Y14.732
X2.921Y48.26
X3.74Y61.779
X4.445Y48.26
X4.756Y61.779
X5.969Y48.26
X8.001Y64.77
X8.128Y71.755
X8.585Y7.315
X10.033Y5.461
X10.541Y13.97
X10.541Y10.668
X12.751Y11.887
X18.593Y7.366
X19.939Y13.843
X19.939Y10.541
X22.149Y11.887
X26.873Y70.358
X26.873Y67.107
X27.94Y7.315
X28.346Y70.358
X28.346Y67.107
X28.956Y13.843
X28.956Y10.541
X30.48Y13.843
X30.48Y10.541
X32.664Y61.824
X32.664Y11.887
X32.666Y65.075
X34.188Y61.824
X34.19Y65.075
X38.456Y7.264
X45.847Y13.843
X45.847Y10.541
X47.371Y13.843
X47.371Y10.541
X49.479Y11.887
X54.661Y6.147
X56.261Y13.843
X56.261Y10.541
X57.099Y70.764
X57.099Y67.462
X57.15Y9.017
X58.42Y11.887
X58.623Y70.764
X58.623Y67.462
X62.586Y65.176
X62.586Y61.925
X63.627Y6.147
X64.059Y61.925
X64.973Y64.364
X65.151Y13.843
X65.151Y10.541
X66.042Y9.035
X67.259Y11.887
X73.101Y7.315
X75.184Y13.843
X75.184Y10.541
X77.419Y11.887
X83.21Y7.297
X85.09Y13.843
X85.09Y10.541
X86.614Y13.843
X86.614Y10.541
X88.29Y70.612
X88.29Y67.361
X88.773Y11.887
X89.814Y70.612
X89.814Y67.361
X93.878Y65.024
X93.878Y61.722
X94.59Y7.264
X95.402Y65.024
X95.402Y61.722
X98.704Y71.272
T4
X-0.021Y2.561
X-0.021Y0.021
X2.519Y2.561
X2.519Y0.021
X5.059Y2.561
X5.059Y0.021
X7.599Y2.561
X7.599Y0.021
X10.139Y2.561
X10.139Y0.021
X12.679Y2.561
X12.679Y0.021
X12.7Y72.771
X12.7Y70.231
X12.7Y67.691
X12.7Y65.151
X12.7Y62.611
X12.7Y60.071
X12.7Y57.531
X12.7Y54.991
X12.7Y52.451
X12.7Y49.911
X12.7Y47.371
X12.7Y44.831
X12.7Y42.291
X12.7Y39.751
X12.7Y37.211
X12.7Y34.671
X12.7Y32.131
X12.7Y29.591
X12.7Y27.051
X12.7Y24.511
X15.219Y2.561
X15.219Y0.021
X17.759Y2.561
X17.759Y0.021
X20.299Y2.561
X20.299Y0.021
X22.839Y2.561
X22.839Y0.021
X25.379Y2.561
X25.379Y0.021
X27.919Y2.561
X27.919Y0.021
X30.459Y2.561
X30.459Y0.021
X30.48Y72.771
X30.48Y70.231
X30.48Y67.691
X30.48Y65.151
X30.48Y62.611
X30.48Y60.071
X30.48Y57.531
X30.48Y54.991
X30.48Y52.451
X30.48Y49.911
X30.48Y47.371
X30.48Y44.831
X30.48Y42.291
X30.48Y39.751
X30.48Y37.211
X30.48Y34.671
X30.48Y32.131
X30.48Y29.591
X30.48Y27.051
X30.48Y24.511
X32.999Y2.561
X32.999Y0.021
X34.925Y72.649
X34.925Y70.109
X35.539Y2.561
X35.539Y0.021
X38.079Y2.561
X38.079Y0.021
X38.481Y72.644
X38.481Y70.104
X40.619Y2.561
X40.619Y0.021
X43.002Y72.771
X43.002Y70.231
X43.002Y67.691
X43.002Y65.151
X43.002Y62.611
X43.002Y60.071
X43.002Y57.531
X43.002Y54.991
X43.002Y52.451
X43.002Y49.911
X43.002Y47.371
X43.002Y44.831
X43.002Y42.291
X43.002Y39.751
X43.002Y37.211
X43.002Y34.671
X43.002Y32.131
X43.002Y29.591
X43.002Y27.051
X43.002Y24.511
X43.159Y2.561
X43.159Y0.021
X45.699Y2.561
X45.699Y0.021
X48.239Y2.561
X48.239Y0.021
X50.779Y2.561
X50.779Y0.021
X53.319Y2.561
X53.319Y0.021
X55.859Y2.561
X55.859Y0.021
X58.399Y2.561
X58.399Y0.021
X60.782Y72.771
X60.782Y70.231
X60.782Y67.691
X60.782Y65.151
X60.782Y62.611
X60.782Y60.071
X60.782Y57.531
X60.782Y54.991
X60.782Y52.451
X60.782Y49.911
X60.782Y47.371
X60.782Y44.831
X60.782Y42.291
X60.782Y39.751
X60.782Y37.211
X60.782Y34.671
X60.782Y32.131
X60.782Y29.591
X60.782Y27.051
X60.782Y24.511
X60.939Y2.561
X60.939Y0.021
X63.479Y2.561
X63.479Y0.021
X66.019Y2.561
X66.019Y0.021
X68.559Y2.561
X68.559Y0.021
X71.099Y2.561
X71.099Y0.021
X73.639Y2.561
X73.639Y0.021
X74.168Y72.736
X74.168Y70.196
X74.168Y67.656
X74.168Y65.116
X74.168Y62.576
X74.168Y60.036
X74.168Y57.496
X74.168Y54.956
X74.168Y52.416
X74.168Y49.876
X74.168Y47.336
X74.168Y44.796
X74.168Y42.256
X74.168Y39.716
X74.168Y37.176
X74.168Y34.636
X74.168Y32.096
X74.168Y29.556
X74.168Y27.016
X74.168Y24.476
X76.179Y2.561
X76.179Y0.021
X78.719Y2.561
X78.719Y0.021
X81.259Y2.561
X81.259Y0.021
X83.799Y2.561
X83.799Y0.021
X86.339Y2.561
X86.339Y0.021
X88.879Y2.561
X88.879Y0.021
X91.419Y2.561
X91.419Y0.021
X91.948Y72.736
X91.948Y70.196
X91.948Y67.656
X91.948Y65.116
X91.948Y62.576
X91.948Y60.036
X91.948Y57.496
X91.948Y54.956
X91.948Y52.416
X91.948Y49.876
X91.948Y47.336
X91.948Y44.796
X91.948Y42.256
X91.948Y39.716
X91.948Y37.176
X91.948Y34.636
X91.948Y32.096
X91.948Y29.556
X91.948Y27.016
X91.948Y24.476
X93.959Y2.561
X93.959Y0.021
X96.457Y71.299
X96.457Y68.759
X96.499Y2.561
X96.499Y0.021
X99.039Y2.561
X99.039Y0.021
T5
X65.187Y72.973
X65.187Y66.473
X69.687Y72.973
X69.687Y66.473
T3
G00X1.988Y72.55
M15
G01X1.388Y72.55
M16
G05
G00X1.988Y63.91
M15
G01X1.388Y63.91
M16
G05
G00X6.418Y72.55
M15
G01X5.318Y72.55
M16
G05
G00X6.418Y63.91
M15
G01X5.318Y63.91
M16
G05
M30
