%TF.GenerationSoftware,KiCad,Pcbnew,10.0.1*%
%TF.CreationDate,2026-04-26T15:09:47-07:00*%
%TF.ProjectId,Analyzer,416e616c-797a-4657-922e-6b696361645f,0*%
%TF.SameCoordinates,PX76d3ec0PY771d2a0*%
%TF.FileFunction,Paste,Top*%
%TF.FilePolarity,Positive*%
%FSLAX46Y46*%
G04 Gerber Fmt 4.6, Leading zero omitted, Abs format (unit mm)*
G04 Created by KiCad (PCBNEW 10.0.1) date 2026-04-26 15:09:47*
%MOMM*%
%LPD*%
G01*
G04 APERTURE LIST*
G04 Aperture macros list*
%AMRoundRect*
0 Rectangle with rounded corners*
0 $1 Rounding radius*
0 $2 $3 $4 $5 $6 $7 $8 $9 X,Y pos of 4 corners*
0 Add a 4 corners polygon primitive as box body*
4,1,4,$2,$3,$4,$5,$6,$7,$8,$9,$2,$3,0*
0 Add four circle primitives for the rounded corners*
1,1,$1+$1,$2,$3*
1,1,$1+$1,$4,$5*
1,1,$1+$1,$6,$7*
1,1,$1+$1,$8,$9*
0 Add four rect primitives between the rounded corners*
20,1,$1+$1,$2,$3,$4,$5,0*
20,1,$1+$1,$4,$5,$6,$7,0*
20,1,$1+$1,$6,$7,$8,$9,0*
20,1,$1+$1,$8,$9,$2,$3,0*%
G04 Aperture macros list end*
%ADD10RoundRect,0.100000X0.100000X-0.637500X0.100000X0.637500X-0.100000X0.637500X-0.100000X-0.637500X0*%
%ADD11RoundRect,0.225000X0.225000X0.250000X-0.225000X0.250000X-0.225000X-0.250000X0.225000X-0.250000X0*%
%ADD12RoundRect,0.225000X-0.250000X0.225000X-0.250000X-0.225000X0.250000X-0.225000X0.250000X0.225000X0*%
%ADD13RoundRect,0.218750X-0.381250X0.218750X-0.381250X-0.218750X0.381250X-0.218750X0.381250X0.218750X0*%
%ADD14RoundRect,0.218750X0.218750X0.381250X-0.218750X0.381250X-0.218750X-0.381250X0.218750X-0.381250X0*%
%ADD15RoundRect,0.250000X1.000000X0.900000X-1.000000X0.900000X-1.000000X-0.900000X1.000000X-0.900000X0*%
%ADD16RoundRect,0.250000X-1.000000X-0.900000X1.000000X-0.900000X1.000000X0.900000X-1.000000X0.900000X0*%
%ADD17R,1.450000X0.600000*%
%ADD18R,1.450000X0.300000*%
%ADD19RoundRect,0.200000X0.275000X-0.200000X0.275000X0.200000X-0.275000X0.200000X-0.275000X-0.200000X0*%
G04 APERTURE END LIST*
D10*
%TO.C,U301*%
X2094216Y7330780D03*
X2744216Y7330780D03*
X3394216Y7330780D03*
X4044216Y7330780D03*
X4694216Y7330780D03*
X5344216Y7330780D03*
X5994216Y7330780D03*
X6644216Y7330780D03*
X7294216Y7330780D03*
X7944216Y7330780D03*
X7944216Y13055780D03*
X7294216Y13055780D03*
X6644216Y13055780D03*
X5994216Y13055780D03*
X5344216Y13055780D03*
X4694216Y13055780D03*
X4044216Y13055780D03*
X3394216Y13055780D03*
X2744216Y13055780D03*
X2094216Y13055780D03*
%TD*%
D11*
%TO.C,C201*%
X7182000Y61779000D03*
X5632000Y61779000D03*
%TD*%
D12*
%TO.C,C401*%
X10529835Y13103770D03*
X10529835Y11553770D03*
%TD*%
D13*
%TO.C,FB202*%
X7366000Y60244500D03*
X7366000Y58119500D03*
%TD*%
D12*
%TO.C,C404*%
X47371000Y12967000D03*
X47371000Y11417000D03*
%TD*%
D14*
%TO.C,FB201*%
X2897500Y61779000D03*
X772500Y61779000D03*
%TD*%
D10*
%TO.C,U503*%
X76758274Y7297500D03*
X77408274Y7297500D03*
X78058274Y7297500D03*
X78708274Y7297500D03*
X79358274Y7297500D03*
X80008274Y7297500D03*
X80658274Y7297500D03*
X81308274Y7297500D03*
X81958274Y7297500D03*
X82608274Y7297500D03*
X82608274Y13022500D03*
X81958274Y13022500D03*
X81308274Y13022500D03*
X80658274Y13022500D03*
X80008274Y13022500D03*
X79358274Y13022500D03*
X78708274Y13022500D03*
X78058274Y13022500D03*
X77408274Y13022500D03*
X76758274Y13022500D03*
%TD*%
%TO.C,U402*%
X48814800Y7297500D03*
X49464800Y7297500D03*
X50114800Y7297500D03*
X50764800Y7297500D03*
X51414800Y7297500D03*
X52064800Y7297500D03*
X52714800Y7297500D03*
X53364800Y7297500D03*
X54014800Y7297500D03*
X54664800Y7297500D03*
X54664800Y13022500D03*
X54014800Y13022500D03*
X53364800Y13022500D03*
X52714800Y13022500D03*
X52064800Y13022500D03*
X51414800Y13022500D03*
X50764800Y13022500D03*
X50114800Y13022500D03*
X49464800Y13022500D03*
X48814800Y13022500D03*
%TD*%
D15*
%TO.C,Z201*%
X4817000Y58674000D03*
X517000Y58674000D03*
%TD*%
D12*
%TO.C,C502*%
X85090000Y12967000D03*
X85090000Y11417000D03*
%TD*%
D10*
%TO.C,U502*%
X66615175Y7302455D03*
X67265175Y7302455D03*
X67915175Y7302455D03*
X68565175Y7302455D03*
X69215175Y7302455D03*
X69865175Y7302455D03*
X70515175Y7302455D03*
X71165175Y7302455D03*
X71815175Y7302455D03*
X72465175Y7302455D03*
X72465175Y13027455D03*
X71815175Y13027455D03*
X71165175Y13027455D03*
X70515175Y13027455D03*
X69865175Y13027455D03*
X69215175Y13027455D03*
X68565175Y13027455D03*
X67915175Y13027455D03*
X67265175Y13027455D03*
X66615175Y13027455D03*
%TD*%
D12*
%TO.C,C301*%
X533400Y13094000D03*
X533400Y11544000D03*
%TD*%
D10*
%TO.C,U302*%
X21484400Y7297500D03*
X22134400Y7297500D03*
X22784400Y7297500D03*
X23434400Y7297500D03*
X24084400Y7297500D03*
X24734400Y7297500D03*
X25384400Y7297500D03*
X26034400Y7297500D03*
X26684400Y7297500D03*
X27334400Y7297500D03*
X27334400Y13022500D03*
X26684400Y13022500D03*
X26034400Y13022500D03*
X25384400Y13022500D03*
X24734400Y13022500D03*
X24084400Y13022500D03*
X23434400Y13022500D03*
X22784400Y13022500D03*
X22134400Y13022500D03*
X21484400Y13022500D03*
%TD*%
D12*
%TO.C,C303*%
X30480000Y12967000D03*
X30480000Y11417000D03*
%TD*%
D10*
%TO.C,U303*%
X31986258Y7314248D03*
X32636258Y7314248D03*
X33286258Y7314248D03*
X33936258Y7314248D03*
X34586258Y7314248D03*
X35236258Y7314248D03*
X35886258Y7314248D03*
X36536258Y7314248D03*
X37186258Y7314248D03*
X37836258Y7314248D03*
X37836258Y13039248D03*
X37186258Y13039248D03*
X36536258Y13039248D03*
X35886258Y13039248D03*
X35236258Y13039248D03*
X34586258Y13039248D03*
X33936258Y13039248D03*
X33286258Y13039248D03*
X32636258Y13039248D03*
X31986258Y13039248D03*
%TD*%
D12*
%TO.C,C205*%
X1397000Y50686000D03*
X1397000Y49136000D03*
%TD*%
%TO.C,C302*%
X28956000Y12967000D03*
X28956000Y11417000D03*
%TD*%
%TO.C,C206*%
X2921000Y50686000D03*
X2921000Y49136000D03*
%TD*%
D10*
%TO.C,U401*%
X12111822Y7318149D03*
X12761822Y7318149D03*
X13411822Y7318149D03*
X14061822Y7318149D03*
X14711822Y7318149D03*
X15361822Y7318149D03*
X16011822Y7318149D03*
X16661822Y7318149D03*
X17311822Y7318149D03*
X17961822Y7318149D03*
X17961822Y13043149D03*
X17311822Y13043149D03*
X16661822Y13043149D03*
X16011822Y13043149D03*
X15361822Y13043149D03*
X14711822Y13043149D03*
X14061822Y13043149D03*
X13411822Y13043149D03*
X12761822Y13043149D03*
X12111822Y13043149D03*
%TD*%
D16*
%TO.C,D201*%
X517000Y54102000D03*
X4817000Y54102000D03*
%TD*%
D17*
%TO.C,J202*%
X6782813Y71479703D03*
X6782813Y70679703D03*
D18*
X6782813Y69479703D03*
X6782813Y68479703D03*
X6782813Y67979703D03*
X6782813Y66979703D03*
D17*
X6782813Y65779703D03*
X6782813Y64979703D03*
X6782813Y64979703D03*
X6782813Y65779703D03*
D18*
X6782813Y66479703D03*
X6782813Y67479703D03*
X6782813Y68979703D03*
X6782813Y69979703D03*
D17*
X6782813Y70679703D03*
X6782813Y71479703D03*
%TD*%
D19*
%TO.C,R401*%
X56261000Y7303000D03*
X56261000Y8953000D03*
%TD*%
%TO.C,R301*%
X508000Y7430000D03*
X508000Y9080000D03*
%TD*%
D10*
%TO.C,U504*%
X88110274Y7297500D03*
X88760274Y7297500D03*
X89410274Y7297500D03*
X90060274Y7297500D03*
X90710274Y7297500D03*
X91360274Y7297500D03*
X92010274Y7297500D03*
X92660274Y7297500D03*
X93310274Y7297500D03*
X93960274Y7297500D03*
X93960274Y13022500D03*
X93310274Y13022500D03*
X92660274Y13022500D03*
X92010274Y13022500D03*
X91360274Y13022500D03*
X90710274Y13022500D03*
X90060274Y13022500D03*
X89410274Y13022500D03*
X88760274Y13022500D03*
X88110274Y13022500D03*
%TD*%
D12*
%TO.C,C304*%
X19933417Y12972583D03*
X19933417Y11422583D03*
%TD*%
%TO.C,C203*%
X-127000Y50686000D03*
X-127000Y49136000D03*
%TD*%
%TO.C,C503*%
X86614000Y12967000D03*
X86614000Y11417000D03*
%TD*%
D10*
%TO.C,U403*%
X57781000Y7297500D03*
X58431000Y7297500D03*
X59081000Y7297500D03*
X59731000Y7297500D03*
X60381000Y7297500D03*
X61031000Y7297500D03*
X61681000Y7297500D03*
X62331000Y7297500D03*
X62981000Y7297500D03*
X63631000Y7297500D03*
X63631000Y13022500D03*
X62981000Y13022500D03*
X62331000Y13022500D03*
X61681000Y13022500D03*
X61031000Y13022500D03*
X60381000Y13022500D03*
X59731000Y13022500D03*
X59081000Y13022500D03*
X58431000Y13022500D03*
X57781000Y13022500D03*
%TD*%
D12*
%TO.C,C501*%
X65137043Y12973979D03*
X65137043Y11423979D03*
%TD*%
%TO.C,C202*%
X5969000Y50686000D03*
X5969000Y49136000D03*
%TD*%
%TO.C,C402*%
X45847000Y12967000D03*
X45847000Y11417000D03*
%TD*%
%TO.C,C403*%
X56261000Y12967000D03*
X56261000Y11417000D03*
%TD*%
%TO.C,C504*%
X75184000Y12967000D03*
X75184000Y11417000D03*
%TD*%
D19*
%TO.C,R502*%
X65153326Y7320700D03*
X65153326Y8970700D03*
%TD*%
D12*
%TO.C,C204*%
X4445000Y50686000D03*
X4445000Y49136000D03*
%TD*%
M02*
