%TF.GenerationSoftware,KiCad,Pcbnew,10.0.1*%
%TF.CreationDate,2026-04-26T15:09:47-07:00*%
%TF.ProjectId,Analyzer,416e616c-797a-4657-922e-6b696361645f,0*%
%TF.SameCoordinates,PX76d3ec0PY771d2a0*%
%TF.FileFunction,Soldermask,Bot*%
%TF.FilePolarity,Negative*%
%FSLAX46Y46*%
G04 Gerber Fmt 4.6, Leading zero omitted, Abs format (unit mm)*
G04 Created by KiCad (PCBNEW 10.0.1) date 2026-04-26 15:09:47*
%MOMM*%
%LPD*%
G01*
G04 APERTURE LIST*
G04 Aperture macros list*
%AMRoundRect*
0 Rectangle with rounded corners*
0 $1 Rounding radius*
0 $2 $3 $4 $5 $6 $7 $8 $9 X,Y pos of 4 corners*
0 Add a 4 corners polygon primitive as box body*
4,1,4,$2,$3,$4,$5,$6,$7,$8,$9,$2,$3,0*
0 Add four circle primitives for the rounded corners*
1,1,$1+$1,$2,$3*
1,1,$1+$1,$4,$5*
1,1,$1+$1,$6,$7*
1,1,$1+$1,$8,$9*
0 Add four rect primitives between the rounded corners*
20,1,$1+$1,$2,$3,$4,$5,0*
20,1,$1+$1,$4,$5,$6,$7,0*
20,1,$1+$1,$6,$7,$8,$9,0*
20,1,$1+$1,$8,$9,$2,$3,0*%
%AMFreePoly0*
4,1,61,0.609277,0.847157,0.639018,0.847157,0.658535,0.843275,0.730631,0.813412,0.747176,0.802356,0.802356,0.747176,0.813412,0.730631,0.843275,0.658535,0.847157,0.639018,0.847157,0.609277,0.851000,0.600000,0.851000,-0.600000,0.847157,-0.609277,0.847157,-0.639018,0.843275,-0.658535,0.813412,-0.730631,0.802356,-0.747176,0.747176,-0.802356,0.730631,-0.813412,0.658535,-0.843275,
0.639018,-0.847157,0.609277,-0.847157,0.600000,-0.851000,0.000000,-0.851000,-0.009299,-0.847148,-0.078414,-0.847148,-0.088364,-0.846168,-0.242178,-0.815572,-0.251745,-0.812670,-0.396634,-0.752655,-0.405451,-0.747942,-0.535849,-0.660813,-0.543577,-0.654470,-0.654470,-0.543577,-0.660813,-0.535849,-0.747942,-0.405451,-0.752655,-0.396634,-0.812670,-0.251745,-0.815572,-0.242178,-0.846168,-0.088364,
-0.847148,-0.078414,-0.847148,0.078414,-0.846168,0.088364,-0.815572,0.242178,-0.812670,0.251745,-0.752655,0.396634,-0.747942,0.405451,-0.660813,0.535849,-0.654470,0.543577,-0.543577,0.654470,-0.535849,0.660813,-0.405451,0.747942,-0.396634,0.752655,-0.251745,0.812670,-0.242178,0.815572,-0.088364,0.846168,-0.078414,0.847148,-0.009299,0.847148,0.000000,0.851000,0.600000,0.851000,
0.609277,0.847157,0.609277,0.847157,$1*%
%AMFreePoly1*
4,1,61,0.009299,0.847148,0.078414,0.847148,0.088364,0.846168,0.242178,0.815572,0.251745,0.812670,0.396634,0.752655,0.405451,0.747942,0.535849,0.660813,0.543577,0.654470,0.654470,0.543577,0.660813,0.535849,0.747942,0.405451,0.752655,0.396634,0.812670,0.251745,0.815572,0.242178,0.846168,0.088364,0.847148,0.078414,0.847148,-0.078414,0.846168,-0.088364,0.815572,-0.242178,
0.812670,-0.251745,0.752655,-0.396634,0.747942,-0.405451,0.660813,-0.535849,0.654470,-0.543577,0.543577,-0.654470,0.535849,-0.660813,0.405451,-0.747942,0.396634,-0.752655,0.251745,-0.812670,0.242178,-0.815572,0.088364,-0.846168,0.078414,-0.847148,0.009299,-0.847148,0.000000,-0.851000,-0.600000,-0.851000,-0.609277,-0.847157,-0.639018,-0.847157,-0.658535,-0.843275,-0.730631,-0.813412,
-0.747176,-0.802356,-0.802356,-0.747176,-0.813412,-0.730631,-0.843275,-0.658535,-0.847157,-0.639018,-0.847157,-0.609277,-0.851000,-0.600000,-0.851000,0.600000,-0.847157,0.609277,-0.847157,0.639018,-0.843275,0.658535,-0.813412,0.730631,-0.802356,0.747176,-0.747176,0.802356,-0.730631,0.813412,-0.658535,0.843275,-0.639018,0.847157,-0.609277,0.847157,-0.600000,0.851000,0.000000,0.851000,
0.009299,0.847148,0.009299,0.847148,$1*%
G04 Aperture macros list end*
%ADD10C,2.802000*%
%ADD11RoundRect,0.051000X1.100000X-1.100000X1.100000X1.100000X-1.100000X1.100000X-1.100000X-1.100000X0*%
%ADD12C,2.302000*%
%ADD13RoundRect,0.051000X-0.850000X-0.850000X0.850000X-0.850000X0.850000X0.850000X-0.850000X0.850000X0*%
%ADD14C,1.802000*%
%ADD15C,0.752000*%
%ADD16O,2.202000X1.102000*%
%ADD17O,1.702000X1.102000*%
%ADD18RoundRect,0.051000X-0.850000X0.850000X-0.850000X-0.850000X0.850000X-0.850000X0.850000X0.850000X0*%
%ADD19O,1.802000X1.802000*%
%ADD20RoundRect,0.212750X-0.638250X-0.638250X0.638250X-0.638250X0.638250X0.638250X-0.638250X0.638250X0*%
%ADD21C,1.702000*%
%ADD22FreePoly0,0.000000*%
%ADD23FreePoly1,0.000000*%
%ADD24RoundRect,0.250500X-0.275500X0.250500X-0.275500X-0.250500X0.275500X-0.250500X0.275500X0.250500X0*%
%ADD25RoundRect,0.225500X0.300500X-0.225500X0.300500X0.225500X-0.300500X0.225500X-0.300500X-0.225500X0*%
%ADD26RoundRect,0.250500X0.275500X-0.250500X0.275500X0.250500X-0.275500X0.250500X-0.275500X-0.250500X0*%
%ADD27RoundRect,0.225500X-0.225500X-0.300500X0.225500X-0.300500X0.225500X0.300500X-0.225500X0.300500X0*%
%ADD28RoundRect,0.225500X-0.300500X0.225500X-0.300500X-0.225500X0.300500X-0.225500X0.300500X0.225500X0*%
G04 APERTURE END LIST*
D10*
%TO.C,H4*%
X97278400Y10600000D03*
%TD*%
D11*
%TO.C,S201*%
X65187000Y66473000D03*
D12*
X65187000Y72973000D03*
X69687000Y66473000D03*
X69687000Y72973000D03*
%TD*%
D13*
%TO.C,J301*%
X34925000Y72649000D03*
D14*
X34925000Y70109000D03*
%TD*%
D13*
%TO.C,J401*%
X38481000Y72644000D03*
D14*
X38481000Y70104000D03*
%TD*%
D13*
%TO.C,J501*%
X96457197Y71299451D03*
D14*
X96457197Y68759451D03*
%TD*%
D15*
%TO.C,J202*%
X5337813Y71119703D03*
X5337813Y65339703D03*
D16*
X5867813Y72549703D03*
D17*
X1687813Y72549703D03*
D16*
X5867813Y63909703D03*
D17*
X1687813Y63909703D03*
%TD*%
D18*
%TO.C,J201*%
X-20620Y20900D03*
D19*
X2519380Y20900D03*
X5059380Y20900D03*
X7599380Y20900D03*
X10139380Y20900D03*
X12679380Y20900D03*
X15219380Y20900D03*
X17759380Y20900D03*
X20299380Y20900D03*
X22839380Y20900D03*
X25379380Y20900D03*
X27919380Y20900D03*
X30459380Y20900D03*
X32999380Y20900D03*
X35539380Y20900D03*
X38079380Y20900D03*
X40619380Y20900D03*
X43159380Y20900D03*
X45699380Y20900D03*
X48239380Y20900D03*
X50779380Y20900D03*
X53319380Y20900D03*
X55859380Y20900D03*
X58399380Y20900D03*
X60939380Y20900D03*
X63479380Y20900D03*
X66019380Y20900D03*
X68559380Y20900D03*
X71099380Y20900D03*
X73639380Y20900D03*
X76179380Y20900D03*
X78719380Y20900D03*
X81259380Y20900D03*
X83799380Y20900D03*
X86339380Y20900D03*
X88879380Y20900D03*
X91419380Y20900D03*
X93959380Y20900D03*
X96499380Y20900D03*
X99039380Y20900D03*
X-20620Y2560900D03*
X2519380Y2560900D03*
X5059380Y2560900D03*
X7599380Y2560900D03*
X10139380Y2560900D03*
X12679380Y2560900D03*
X15219380Y2560900D03*
X17759380Y2560900D03*
X20299380Y2560900D03*
X22839380Y2560900D03*
X25379380Y2560900D03*
X27919380Y2560900D03*
X30459380Y2560900D03*
X32999380Y2560900D03*
X35539380Y2560900D03*
X38079380Y2560900D03*
X40619380Y2560900D03*
X43159380Y2560900D03*
X45699380Y2560900D03*
X48239380Y2560900D03*
X50779380Y2560900D03*
X53319380Y2560900D03*
X55859380Y2560900D03*
X58399380Y2560900D03*
X60939380Y2560900D03*
X63479380Y2560900D03*
X66019380Y2560900D03*
X68559380Y2560900D03*
X71099380Y2560900D03*
X73639380Y2560900D03*
X76179380Y2560900D03*
X78719380Y2560900D03*
X81259380Y2560900D03*
X83799380Y2560900D03*
X86339380Y2560900D03*
X88879380Y2560900D03*
X91419380Y2560900D03*
X93959380Y2560900D03*
X96499380Y2560900D03*
X99039380Y2560900D03*
%TD*%
D20*
%TO.C,A501*%
X74168000Y72736110D03*
D21*
X74168000Y70196110D03*
D22*
X74168000Y67656110D03*
D21*
X74168000Y65116110D03*
X74168000Y62576110D03*
X74168000Y60036110D03*
X74168000Y57496110D03*
D22*
X74168000Y54956110D03*
D21*
X74168000Y52416110D03*
X74168000Y49876110D03*
X74168000Y47336110D03*
X74168000Y44796110D03*
D22*
X74168000Y42256110D03*
D21*
X74168000Y39716110D03*
X74168000Y37176110D03*
X74168000Y34636110D03*
X74168000Y32096110D03*
D22*
X74168000Y29556110D03*
D21*
X74168000Y27016110D03*
X74168000Y24476110D03*
X91948000Y24476110D03*
X91948000Y27016110D03*
D23*
X91948000Y29556110D03*
D21*
X91948000Y32096110D03*
X91948000Y34636110D03*
X91948000Y37176110D03*
X91948000Y39716110D03*
D23*
X91948000Y42256110D03*
D21*
X91948000Y44796110D03*
X91948000Y47336110D03*
X91948000Y49876110D03*
X91948000Y52416110D03*
D23*
X91948000Y54956110D03*
D21*
X91948000Y57496110D03*
X91948000Y60036110D03*
X91948000Y62576110D03*
X91948000Y65116110D03*
D23*
X91948000Y67656110D03*
D21*
X91948000Y70196110D03*
X91948000Y72736110D03*
%TD*%
D20*
%TO.C,A401*%
X43002200Y72770900D03*
D21*
X43002200Y70230900D03*
D22*
X43002200Y67690900D03*
D21*
X43002200Y65150900D03*
X43002200Y62610900D03*
X43002200Y60070900D03*
X43002200Y57530900D03*
D22*
X43002200Y54990900D03*
D21*
X43002200Y52450900D03*
X43002200Y49910900D03*
X43002200Y47370900D03*
X43002200Y44830900D03*
D22*
X43002200Y42290900D03*
D21*
X43002200Y39750900D03*
X43002200Y37210900D03*
X43002200Y34670900D03*
X43002200Y32130900D03*
D22*
X43002200Y29590900D03*
D21*
X43002200Y27050900D03*
X43002200Y24510900D03*
X60782200Y24510900D03*
X60782200Y27050900D03*
D23*
X60782200Y29590900D03*
D21*
X60782200Y32130900D03*
X60782200Y34670900D03*
X60782200Y37210900D03*
X60782200Y39750900D03*
D23*
X60782200Y42290900D03*
D21*
X60782200Y44830900D03*
X60782200Y47370900D03*
X60782200Y49910900D03*
X60782200Y52450900D03*
D23*
X60782200Y54990900D03*
D21*
X60782200Y57530900D03*
X60782200Y60070900D03*
X60782200Y62610900D03*
X60782200Y65150900D03*
D23*
X60782200Y67690900D03*
D21*
X60782200Y70230900D03*
X60782200Y72770900D03*
%TD*%
D20*
%TO.C,A301*%
X12700000Y72771000D03*
D21*
X12700000Y70231000D03*
D22*
X12700000Y67691000D03*
D21*
X12700000Y65151000D03*
X12700000Y62611000D03*
X12700000Y60071000D03*
X12700000Y57531000D03*
D22*
X12700000Y54991000D03*
D21*
X12700000Y52451000D03*
X12700000Y49911000D03*
X12700000Y47371000D03*
X12700000Y44831000D03*
D22*
X12700000Y42291000D03*
D21*
X12700000Y39751000D03*
X12700000Y37211000D03*
X12700000Y34671000D03*
X12700000Y32131000D03*
D22*
X12700000Y29591000D03*
D21*
X12700000Y27051000D03*
X12700000Y24511000D03*
X30480000Y24511000D03*
X30480000Y27051000D03*
D23*
X30480000Y29591000D03*
D21*
X30480000Y32131000D03*
X30480000Y34671000D03*
X30480000Y37211000D03*
X30480000Y39751000D03*
D23*
X30480000Y42291000D03*
D21*
X30480000Y44831000D03*
X30480000Y47371000D03*
X30480000Y49911000D03*
X30480000Y52451000D03*
D23*
X30480000Y54991000D03*
D21*
X30480000Y57531000D03*
X30480000Y60071000D03*
X30480000Y62611000D03*
X30480000Y65151000D03*
D23*
X30480000Y67691000D03*
D21*
X30480000Y70231000D03*
X30480000Y72771000D03*
%TD*%
D24*
%TO.C,C308*%
X28346400Y69507400D03*
X28346400Y67957400D03*
%TD*%
D25*
%TO.C,R203*%
X3930021Y69438099D03*
X3930021Y71088099D03*
%TD*%
D26*
%TO.C,C405*%
X64058800Y62775800D03*
X64058800Y64325800D03*
%TD*%
%TO.C,C406*%
X62585600Y62775800D03*
X62585600Y64325800D03*
%TD*%
D24*
%TO.C,C507*%
X88290400Y69761400D03*
X88290400Y68211400D03*
%TD*%
%TO.C,C408*%
X58623200Y69900800D03*
X58623200Y68350800D03*
%TD*%
%TO.C,C407*%
X57099200Y69900800D03*
X57099200Y68350800D03*
%TD*%
D26*
%TO.C,C305*%
X34188400Y62674200D03*
X34188400Y64224200D03*
%TD*%
%TO.C,C505*%
X95398412Y62580017D03*
X95398412Y64130017D03*
%TD*%
D25*
%TO.C,R302*%
X99009200Y68771000D03*
X99009200Y70421000D03*
%TD*%
D26*
%TO.C,C306*%
X32664400Y62674200D03*
X32664400Y64224200D03*
%TD*%
D27*
%TO.C,R201*%
X7557000Y4216400D03*
X9207000Y4216400D03*
%TD*%
D26*
%TO.C,C506*%
X93874412Y62580017D03*
X93874412Y64130017D03*
%TD*%
D24*
%TO.C,C307*%
X26857000Y69507400D03*
X26857000Y67957400D03*
%TD*%
D28*
%TO.C,R202*%
X3930021Y67024099D03*
X3930021Y65374099D03*
%TD*%
D24*
%TO.C,C508*%
X89814400Y69761400D03*
X89814400Y68211400D03*
%TD*%
M02*
