%TF.GenerationSoftware,KiCad,Pcbnew,10.0.1*%
%TF.CreationDate,2026-04-26T15:09:47-07:00*%
%TF.ProjectId,Analyzer,416e616c-797a-4657-922e-6b696361645f,0*%
%TF.SameCoordinates,PX76d3ec0PY771d2a0*%
%TF.FileFunction,Soldermask,Top*%
%TF.FilePolarity,Negative*%
%FSLAX46Y46*%
G04 Gerber Fmt 4.6, Leading zero omitted, Abs format (unit mm)*
G04 Created by KiCad (PCBNEW 10.0.1) date 2026-04-26 15:09:47*
%MOMM*%
%LPD*%
G01*
G04 APERTURE LIST*
G04 Aperture macros list*
%AMRoundRect*
0 Rectangle with rounded corners*
0 $1 Rounding radius*
0 $2 $3 $4 $5 $6 $7 $8 $9 X,Y pos of 4 corners*
0 Add a 4 corners polygon primitive as box body*
4,1,4,$2,$3,$4,$5,$6,$7,$8,$9,$2,$3,0*
0 Add four circle primitives for the rounded corners*
1,1,$1+$1,$2,$3*
1,1,$1+$1,$4,$5*
1,1,$1+$1,$6,$7*
1,1,$1+$1,$8,$9*
0 Add four rect primitives between the rounded corners*
20,1,$1+$1,$2,$3,$4,$5,0*
20,1,$1+$1,$4,$5,$6,$7,0*
20,1,$1+$1,$6,$7,$8,$9,0*
20,1,$1+$1,$8,$9,$2,$3,0*%
%AMFreePoly0*
4,1,61,0.609277,0.847157,0.639018,0.847157,0.658535,0.843275,0.730631,0.813412,0.747176,0.802356,0.802356,0.747176,0.813412,0.730631,0.843275,0.658535,0.847157,0.639018,0.847157,0.609277,0.851000,0.600000,0.851000,-0.600000,0.847157,-0.609277,0.847157,-0.639018,0.843275,-0.658535,0.813412,-0.730631,0.802356,-0.747176,0.747176,-0.802356,0.730631,-0.813412,0.658535,-0.843275,
0.639018,-0.847157,0.609277,-0.847157,0.600000,-0.851000,0.000000,-0.851000,-0.009299,-0.847148,-0.078414,-0.847148,-0.088364,-0.846168,-0.242178,-0.815572,-0.251745,-0.812670,-0.396634,-0.752655,-0.405451,-0.747942,-0.535849,-0.660813,-0.543577,-0.654470,-0.654470,-0.543577,-0.660813,-0.535849,-0.747942,-0.405451,-0.752655,-0.396634,-0.812670,-0.251745,-0.815572,-0.242178,-0.846168,-0.088364,
-0.847148,-0.078414,-0.847148,0.078414,-0.846168,0.088364,-0.815572,0.242178,-0.812670,0.251745,-0.752655,0.396634,-0.747942,0.405451,-0.660813,0.535849,-0.654470,0.543577,-0.543577,0.654470,-0.535849,0.660813,-0.405451,0.747942,-0.396634,0.752655,-0.251745,0.812670,-0.242178,0.815572,-0.088364,0.846168,-0.078414,0.847148,-0.009299,0.847148,0.000000,0.851000,0.600000,0.851000,
0.609277,0.847157,0.609277,0.847157,$1*%
%AMFreePoly1*
4,1,61,0.009299,0.847148,0.078414,0.847148,0.088364,0.846168,0.242178,0.815572,0.251745,0.812670,0.396634,0.752655,0.405451,0.747942,0.535849,0.660813,0.543577,0.654470,0.654470,0.543577,0.660813,0.535849,0.747942,0.405451,0.752655,0.396634,0.812670,0.251745,0.815572,0.242178,0.846168,0.088364,0.847148,0.078414,0.847148,-0.078414,0.846168,-0.088364,0.815572,-0.242178,
0.812670,-0.251745,0.752655,-0.396634,0.747942,-0.405451,0.660813,-0.535849,0.654470,-0.543577,0.543577,-0.654470,0.535849,-0.660813,0.405451,-0.747942,0.396634,-0.752655,0.251745,-0.812670,0.242178,-0.815572,0.088364,-0.846168,0.078414,-0.847148,0.009299,-0.847148,0.000000,-0.851000,-0.600000,-0.851000,-0.609277,-0.847157,-0.639018,-0.847157,-0.658535,-0.843275,-0.730631,-0.813412,
-0.747176,-0.802356,-0.802356,-0.747176,-0.813412,-0.730631,-0.843275,-0.658535,-0.847157,-0.639018,-0.847157,-0.609277,-0.851000,-0.600000,-0.851000,0.600000,-0.847157,0.609277,-0.847157,0.639018,-0.843275,0.658535,-0.813412,0.730631,-0.802356,0.747176,-0.747176,0.802356,-0.730631,0.813412,-0.658535,0.843275,-0.639018,0.847157,-0.609277,0.847157,-0.600000,0.851000,0.000000,0.851000,
0.009299,0.847148,0.009299,0.847148,$1*%
G04 Aperture macros list end*
%ADD10C,2.802000*%
%ADD11RoundRect,0.125500X0.125500X-0.663000X0.125500X0.663000X-0.125500X0.663000X-0.125500X-0.663000X0*%
%ADD12RoundRect,0.051000X1.100000X-1.100000X1.100000X1.100000X-1.100000X1.100000X-1.100000X-1.100000X0*%
%ADD13C,2.302000*%
%ADD14RoundRect,0.250500X0.250500X0.275500X-0.250500X0.275500X-0.250500X-0.275500X0.250500X-0.275500X0*%
%ADD15RoundRect,0.250500X-0.275500X0.250500X-0.275500X-0.250500X0.275500X-0.250500X0.275500X0.250500X0*%
%ADD16RoundRect,0.051000X-0.850000X-0.850000X0.850000X-0.850000X0.850000X0.850000X-0.850000X0.850000X0*%
%ADD17C,1.802000*%
%ADD18RoundRect,0.244250X-0.406750X0.244250X-0.406750X-0.244250X0.406750X-0.244250X0.406750X0.244250X0*%
%ADD19RoundRect,0.244250X0.244250X0.406750X-0.244250X0.406750X-0.244250X-0.406750X0.244250X-0.406750X0*%
%ADD20RoundRect,0.261087X1.039913X0.939913X-1.039913X0.939913X-1.039913X-0.939913X1.039913X-0.939913X0*%
%ADD21RoundRect,0.261087X-1.039913X-0.939913X1.039913X-0.939913X1.039913X0.939913X-1.039913X0.939913X0*%
%ADD22C,0.752000*%
%ADD23RoundRect,0.051000X-0.725000X0.300000X-0.725000X-0.300000X0.725000X-0.300000X0.725000X0.300000X0*%
%ADD24RoundRect,0.051000X-0.725000X0.150000X-0.725000X-0.150000X0.725000X-0.150000X0.725000X0.150000X0*%
%ADD25O,2.202000X1.102000*%
%ADD26O,1.702000X1.102000*%
%ADD27RoundRect,0.225500X0.300500X-0.225500X0.300500X0.225500X-0.300500X0.225500X-0.300500X-0.225500X0*%
%ADD28RoundRect,0.051000X-0.850000X0.850000X-0.850000X-0.850000X0.850000X-0.850000X0.850000X0.850000X0*%
%ADD29O,1.802000X1.802000*%
%ADD30RoundRect,0.212750X-0.638250X-0.638250X0.638250X-0.638250X0.638250X0.638250X-0.638250X0.638250X0*%
%ADD31C,1.702000*%
%ADD32FreePoly0,0.000000*%
%ADD33FreePoly1,0.000000*%
G04 APERTURE END LIST*
D10*
%TO.C,H4*%
X97278400Y10600000D03*
%TD*%
D11*
%TO.C,U301*%
X2094216Y7330780D03*
X2744216Y7330780D03*
X3394216Y7330780D03*
X4044216Y7330780D03*
X4694216Y7330780D03*
X5344216Y7330780D03*
X5994216Y7330780D03*
X6644216Y7330780D03*
X7294216Y7330780D03*
X7944216Y7330780D03*
X7944216Y13055780D03*
X7294216Y13055780D03*
X6644216Y13055780D03*
X5994216Y13055780D03*
X5344216Y13055780D03*
X4694216Y13055780D03*
X4044216Y13055780D03*
X3394216Y13055780D03*
X2744216Y13055780D03*
X2094216Y13055780D03*
%TD*%
D12*
%TO.C,S201*%
X65187000Y66473000D03*
D13*
X65187000Y72973000D03*
X69687000Y66473000D03*
X69687000Y72973000D03*
%TD*%
D14*
%TO.C,C201*%
X7182000Y61779000D03*
X5632000Y61779000D03*
%TD*%
D15*
%TO.C,C401*%
X10529835Y13103770D03*
X10529835Y11553770D03*
%TD*%
D16*
%TO.C,J301*%
X34925000Y72649000D03*
D17*
X34925000Y70109000D03*
%TD*%
D18*
%TO.C,FB202*%
X7366000Y60244500D03*
X7366000Y58119500D03*
%TD*%
D15*
%TO.C,C404*%
X47371000Y12967000D03*
X47371000Y11417000D03*
%TD*%
D19*
%TO.C,FB201*%
X2897500Y61779000D03*
X772500Y61779000D03*
%TD*%
D11*
%TO.C,U503*%
X76758274Y7297500D03*
X77408274Y7297500D03*
X78058274Y7297500D03*
X78708274Y7297500D03*
X79358274Y7297500D03*
X80008274Y7297500D03*
X80658274Y7297500D03*
X81308274Y7297500D03*
X81958274Y7297500D03*
X82608274Y7297500D03*
X82608274Y13022500D03*
X81958274Y13022500D03*
X81308274Y13022500D03*
X80658274Y13022500D03*
X80008274Y13022500D03*
X79358274Y13022500D03*
X78708274Y13022500D03*
X78058274Y13022500D03*
X77408274Y13022500D03*
X76758274Y13022500D03*
%TD*%
%TO.C,U402*%
X48814800Y7297500D03*
X49464800Y7297500D03*
X50114800Y7297500D03*
X50764800Y7297500D03*
X51414800Y7297500D03*
X52064800Y7297500D03*
X52714800Y7297500D03*
X53364800Y7297500D03*
X54014800Y7297500D03*
X54664800Y7297500D03*
X54664800Y13022500D03*
X54014800Y13022500D03*
X53364800Y13022500D03*
X52714800Y13022500D03*
X52064800Y13022500D03*
X51414800Y13022500D03*
X50764800Y13022500D03*
X50114800Y13022500D03*
X49464800Y13022500D03*
X48814800Y13022500D03*
%TD*%
D16*
%TO.C,J401*%
X38481000Y72644000D03*
D17*
X38481000Y70104000D03*
%TD*%
D20*
%TO.C,Z201*%
X4817000Y58674000D03*
X517000Y58674000D03*
%TD*%
D15*
%TO.C,C502*%
X85090000Y12967000D03*
X85090000Y11417000D03*
%TD*%
D11*
%TO.C,U502*%
X66615175Y7302455D03*
X67265175Y7302455D03*
X67915175Y7302455D03*
X68565175Y7302455D03*
X69215175Y7302455D03*
X69865175Y7302455D03*
X70515175Y7302455D03*
X71165175Y7302455D03*
X71815175Y7302455D03*
X72465175Y7302455D03*
X72465175Y13027455D03*
X71815175Y13027455D03*
X71165175Y13027455D03*
X70515175Y13027455D03*
X69865175Y13027455D03*
X69215175Y13027455D03*
X68565175Y13027455D03*
X67915175Y13027455D03*
X67265175Y13027455D03*
X66615175Y13027455D03*
%TD*%
D15*
%TO.C,C301*%
X533400Y13094000D03*
X533400Y11544000D03*
%TD*%
D11*
%TO.C,U302*%
X21484400Y7297500D03*
X22134400Y7297500D03*
X22784400Y7297500D03*
X23434400Y7297500D03*
X24084400Y7297500D03*
X24734400Y7297500D03*
X25384400Y7297500D03*
X26034400Y7297500D03*
X26684400Y7297500D03*
X27334400Y7297500D03*
X27334400Y13022500D03*
X26684400Y13022500D03*
X26034400Y13022500D03*
X25384400Y13022500D03*
X24734400Y13022500D03*
X24084400Y13022500D03*
X23434400Y13022500D03*
X22784400Y13022500D03*
X22134400Y13022500D03*
X21484400Y13022500D03*
%TD*%
D15*
%TO.C,C303*%
X30480000Y12967000D03*
X30480000Y11417000D03*
%TD*%
D11*
%TO.C,U303*%
X31986258Y7314248D03*
X32636258Y7314248D03*
X33286258Y7314248D03*
X33936258Y7314248D03*
X34586258Y7314248D03*
X35236258Y7314248D03*
X35886258Y7314248D03*
X36536258Y7314248D03*
X37186258Y7314248D03*
X37836258Y7314248D03*
X37836258Y13039248D03*
X37186258Y13039248D03*
X36536258Y13039248D03*
X35886258Y13039248D03*
X35236258Y13039248D03*
X34586258Y13039248D03*
X33936258Y13039248D03*
X33286258Y13039248D03*
X32636258Y13039248D03*
X31986258Y13039248D03*
%TD*%
D15*
%TO.C,C205*%
X1397000Y50686000D03*
X1397000Y49136000D03*
%TD*%
%TO.C,C302*%
X28956000Y12967000D03*
X28956000Y11417000D03*
%TD*%
D16*
%TO.C,J501*%
X96457197Y71299451D03*
D17*
X96457197Y68759451D03*
%TD*%
D15*
%TO.C,C206*%
X2921000Y50686000D03*
X2921000Y49136000D03*
%TD*%
D11*
%TO.C,U401*%
X12111822Y7318149D03*
X12761822Y7318149D03*
X13411822Y7318149D03*
X14061822Y7318149D03*
X14711822Y7318149D03*
X15361822Y7318149D03*
X16011822Y7318149D03*
X16661822Y7318149D03*
X17311822Y7318149D03*
X17961822Y7318149D03*
X17961822Y13043149D03*
X17311822Y13043149D03*
X16661822Y13043149D03*
X16011822Y13043149D03*
X15361822Y13043149D03*
X14711822Y13043149D03*
X14061822Y13043149D03*
X13411822Y13043149D03*
X12761822Y13043149D03*
X12111822Y13043149D03*
%TD*%
D21*
%TO.C,D201*%
X517000Y54102000D03*
X4817000Y54102000D03*
%TD*%
D22*
%TO.C,J202*%
X5337813Y71119703D03*
X5337813Y65339703D03*
D23*
X6782813Y71479703D03*
X6782813Y70679703D03*
D24*
X6782813Y69479703D03*
X6782813Y68479703D03*
X6782813Y67979703D03*
X6782813Y66979703D03*
D23*
X6782813Y65779703D03*
X6782813Y64979703D03*
X6782813Y64979703D03*
X6782813Y65779703D03*
D24*
X6782813Y66479703D03*
X6782813Y67479703D03*
X6782813Y68979703D03*
X6782813Y69979703D03*
D23*
X6782813Y70679703D03*
X6782813Y71479703D03*
D25*
X5867813Y72549703D03*
D26*
X1687813Y72549703D03*
D25*
X5867813Y63909703D03*
D26*
X1687813Y63909703D03*
%TD*%
D27*
%TO.C,R401*%
X56261000Y7303000D03*
X56261000Y8953000D03*
%TD*%
D28*
%TO.C,J201*%
X-20620Y20900D03*
D29*
X2519380Y20900D03*
X5059380Y20900D03*
X7599380Y20900D03*
X10139380Y20900D03*
X12679380Y20900D03*
X15219380Y20900D03*
X17759380Y20900D03*
X20299380Y20900D03*
X22839380Y20900D03*
X25379380Y20900D03*
X27919380Y20900D03*
X30459380Y20900D03*
X32999380Y20900D03*
X35539380Y20900D03*
X38079380Y20900D03*
X40619380Y20900D03*
X43159380Y20900D03*
X45699380Y20900D03*
X48239380Y20900D03*
X50779380Y20900D03*
X53319380Y20900D03*
X55859380Y20900D03*
X58399380Y20900D03*
X60939380Y20900D03*
X63479380Y20900D03*
X66019380Y20900D03*
X68559380Y20900D03*
X71099380Y20900D03*
X73639380Y20900D03*
X76179380Y20900D03*
X78719380Y20900D03*
X81259380Y20900D03*
X83799380Y20900D03*
X86339380Y20900D03*
X88879380Y20900D03*
X91419380Y20900D03*
X93959380Y20900D03*
X96499380Y20900D03*
X99039380Y20900D03*
X-20620Y2560900D03*
X2519380Y2560900D03*
X5059380Y2560900D03*
X7599380Y2560900D03*
X10139380Y2560900D03*
X12679380Y2560900D03*
X15219380Y2560900D03*
X17759380Y2560900D03*
X20299380Y2560900D03*
X22839380Y2560900D03*
X25379380Y2560900D03*
X27919380Y2560900D03*
X30459380Y2560900D03*
X32999380Y2560900D03*
X35539380Y2560900D03*
X38079380Y2560900D03*
X40619380Y2560900D03*
X43159380Y2560900D03*
X45699380Y2560900D03*
X48239380Y2560900D03*
X50779380Y2560900D03*
X53319380Y2560900D03*
X55859380Y2560900D03*
X58399380Y2560900D03*
X60939380Y2560900D03*
X63479380Y2560900D03*
X66019380Y2560900D03*
X68559380Y2560900D03*
X71099380Y2560900D03*
X73639380Y2560900D03*
X76179380Y2560900D03*
X78719380Y2560900D03*
X81259380Y2560900D03*
X83799380Y2560900D03*
X86339380Y2560900D03*
X88879380Y2560900D03*
X91419380Y2560900D03*
X93959380Y2560900D03*
X96499380Y2560900D03*
X99039380Y2560900D03*
%TD*%
D30*
%TO.C,A501*%
X74168000Y72736110D03*
D31*
X74168000Y70196110D03*
D32*
X74168000Y67656110D03*
D31*
X74168000Y65116110D03*
X74168000Y62576110D03*
X74168000Y60036110D03*
X74168000Y57496110D03*
D32*
X74168000Y54956110D03*
D31*
X74168000Y52416110D03*
X74168000Y49876110D03*
X74168000Y47336110D03*
X74168000Y44796110D03*
D32*
X74168000Y42256110D03*
D31*
X74168000Y39716110D03*
X74168000Y37176110D03*
X74168000Y34636110D03*
X74168000Y32096110D03*
D32*
X74168000Y29556110D03*
D31*
X74168000Y27016110D03*
X74168000Y24476110D03*
X91948000Y24476110D03*
X91948000Y27016110D03*
D33*
X91948000Y29556110D03*
D31*
X91948000Y32096110D03*
X91948000Y34636110D03*
X91948000Y37176110D03*
X91948000Y39716110D03*
D33*
X91948000Y42256110D03*
D31*
X91948000Y44796110D03*
X91948000Y47336110D03*
X91948000Y49876110D03*
X91948000Y52416110D03*
D33*
X91948000Y54956110D03*
D31*
X91948000Y57496110D03*
X91948000Y60036110D03*
X91948000Y62576110D03*
X91948000Y65116110D03*
D33*
X91948000Y67656110D03*
D31*
X91948000Y70196110D03*
X91948000Y72736110D03*
%TD*%
D27*
%TO.C,R301*%
X508000Y7430000D03*
X508000Y9080000D03*
%TD*%
D11*
%TO.C,U504*%
X88110274Y7297500D03*
X88760274Y7297500D03*
X89410274Y7297500D03*
X90060274Y7297500D03*
X90710274Y7297500D03*
X91360274Y7297500D03*
X92010274Y7297500D03*
X92660274Y7297500D03*
X93310274Y7297500D03*
X93960274Y7297500D03*
X93960274Y13022500D03*
X93310274Y13022500D03*
X92660274Y13022500D03*
X92010274Y13022500D03*
X91360274Y13022500D03*
X90710274Y13022500D03*
X90060274Y13022500D03*
X89410274Y13022500D03*
X88760274Y13022500D03*
X88110274Y13022500D03*
%TD*%
D15*
%TO.C,C304*%
X19933417Y12972583D03*
X19933417Y11422583D03*
%TD*%
%TO.C,C203*%
X-127000Y50686000D03*
X-127000Y49136000D03*
%TD*%
%TO.C,C503*%
X86614000Y12967000D03*
X86614000Y11417000D03*
%TD*%
D11*
%TO.C,U403*%
X57781000Y7297500D03*
X58431000Y7297500D03*
X59081000Y7297500D03*
X59731000Y7297500D03*
X60381000Y7297500D03*
X61031000Y7297500D03*
X61681000Y7297500D03*
X62331000Y7297500D03*
X62981000Y7297500D03*
X63631000Y7297500D03*
X63631000Y13022500D03*
X62981000Y13022500D03*
X62331000Y13022500D03*
X61681000Y13022500D03*
X61031000Y13022500D03*
X60381000Y13022500D03*
X59731000Y13022500D03*
X59081000Y13022500D03*
X58431000Y13022500D03*
X57781000Y13022500D03*
%TD*%
D15*
%TO.C,C501*%
X65137043Y12973979D03*
X65137043Y11423979D03*
%TD*%
%TO.C,C202*%
X5969000Y50686000D03*
X5969000Y49136000D03*
%TD*%
%TO.C,C402*%
X45847000Y12967000D03*
X45847000Y11417000D03*
%TD*%
%TO.C,C403*%
X56261000Y12967000D03*
X56261000Y11417000D03*
%TD*%
%TO.C,C504*%
X75184000Y12967000D03*
X75184000Y11417000D03*
%TD*%
D30*
%TO.C,A401*%
X43002200Y72770900D03*
D31*
X43002200Y70230900D03*
D32*
X43002200Y67690900D03*
D31*
X43002200Y65150900D03*
X43002200Y62610900D03*
X43002200Y60070900D03*
X43002200Y57530900D03*
D32*
X43002200Y54990900D03*
D31*
X43002200Y52450900D03*
X43002200Y49910900D03*
X43002200Y47370900D03*
X43002200Y44830900D03*
D32*
X43002200Y42290900D03*
D31*
X43002200Y39750900D03*
X43002200Y37210900D03*
X43002200Y34670900D03*
X43002200Y32130900D03*
D32*
X43002200Y29590900D03*
D31*
X43002200Y27050900D03*
X43002200Y24510900D03*
X60782200Y24510900D03*
X60782200Y27050900D03*
D33*
X60782200Y29590900D03*
D31*
X60782200Y32130900D03*
X60782200Y34670900D03*
X60782200Y37210900D03*
X60782200Y39750900D03*
D33*
X60782200Y42290900D03*
D31*
X60782200Y44830900D03*
X60782200Y47370900D03*
X60782200Y49910900D03*
X60782200Y52450900D03*
D33*
X60782200Y54990900D03*
D31*
X60782200Y57530900D03*
X60782200Y60070900D03*
X60782200Y62610900D03*
X60782200Y65150900D03*
D33*
X60782200Y67690900D03*
D31*
X60782200Y70230900D03*
X60782200Y72770900D03*
%TD*%
D30*
%TO.C,A301*%
X12700000Y72771000D03*
D31*
X12700000Y70231000D03*
D32*
X12700000Y67691000D03*
D31*
X12700000Y65151000D03*
X12700000Y62611000D03*
X12700000Y60071000D03*
X12700000Y57531000D03*
D32*
X12700000Y54991000D03*
D31*
X12700000Y52451000D03*
X12700000Y49911000D03*
X12700000Y47371000D03*
X12700000Y44831000D03*
D32*
X12700000Y42291000D03*
D31*
X12700000Y39751000D03*
X12700000Y37211000D03*
X12700000Y34671000D03*
X12700000Y32131000D03*
D32*
X12700000Y29591000D03*
D31*
X12700000Y27051000D03*
X12700000Y24511000D03*
X30480000Y24511000D03*
X30480000Y27051000D03*
D33*
X30480000Y29591000D03*
D31*
X30480000Y32131000D03*
X30480000Y34671000D03*
X30480000Y37211000D03*
X30480000Y39751000D03*
D33*
X30480000Y42291000D03*
D31*
X30480000Y44831000D03*
X30480000Y47371000D03*
X30480000Y49911000D03*
X30480000Y52451000D03*
D33*
X30480000Y54991000D03*
D31*
X30480000Y57531000D03*
X30480000Y60071000D03*
X30480000Y62611000D03*
X30480000Y65151000D03*
D33*
X30480000Y67691000D03*
D31*
X30480000Y70231000D03*
X30480000Y72771000D03*
%TD*%
D27*
%TO.C,R502*%
X65153326Y7320700D03*
X65153326Y8970700D03*
%TD*%
D15*
%TO.C,C204*%
X4445000Y50686000D03*
X4445000Y49136000D03*
%TD*%
M02*
