%TF.GenerationSoftware,KiCad,Pcbnew,8.0.4*%
%TF.CreationDate,2024-07-26T10:39:13-07:00*%
%TF.ProjectId,BALD,42414c44-2e6b-4696-9361-645f70636258,0*%
%TF.SameCoordinates,Original*%
%TF.FileFunction,Copper,L3,Inr*%
%TF.FilePolarity,Positive*%
%FSLAX46Y46*%
G04 Gerber Fmt 4.6, Leading zero omitted, Abs format (unit mm)*
G04 Created by KiCad (PCBNEW 8.0.4) date 2024-07-26 10:39:13*
%MOMM*%
%LPD*%
G01*
G04 APERTURE LIST*
%TA.AperFunction,ComponentPad*%
%ADD10R,1.700000X1.700000*%
%TD*%
%TA.AperFunction,ComponentPad*%
%ADD11O,1.700000X1.700000*%
%TD*%
%TA.AperFunction,ViaPad*%
%ADD12C,0.800000*%
%TD*%
%TA.AperFunction,ViaPad*%
%ADD13C,0.500000*%
%TD*%
G04 APERTURE END LIST*
D10*
%TO.N,unconnected-(J1-Pin_1-Pad1)*%
%TO.C,J1*%
X1803400Y1752600D03*
D11*
%TO.N,unconnected-(J1-Pin_2-Pad2)*%
X4343400Y1752600D03*
%TO.N,unconnected-(J1-Pin_3-Pad3)*%
X6883400Y1752600D03*
%TO.N,unconnected-(J1-Pin_4-Pad4)*%
X9423400Y1752600D03*
%TO.N,unconnected-(J1-Pin_5-Pad5)*%
X11963400Y1752600D03*
%TO.N,unconnected-(J1-Pin_6-Pad6)*%
X14503400Y1752600D03*
%TO.N,unconnected-(J1-Pin_7-Pad7)*%
X17043400Y1752600D03*
%TO.N,unconnected-(J1-Pin_8-Pad8)*%
X19583400Y1752600D03*
%TO.N,unconnected-(J1-Pin_9-Pad9)*%
X22123400Y1752600D03*
%TO.N,unconnected-(J1-Pin_10-Pad10)*%
X24663400Y1752600D03*
%TO.N,unconnected-(J1-Pin_11-Pad11)*%
X27203400Y1752600D03*
%TO.N,unconnected-(J1-Pin_12-Pad12)*%
X29743400Y1752600D03*
%TO.N,unconnected-(J1-Pin_13-Pad13)*%
X32283400Y1752600D03*
%TO.N,unconnected-(J1-Pin_14-Pad14)*%
X34823400Y1752600D03*
%TO.N,unconnected-(J1-Pin_15-Pad15)*%
X37363400Y1752600D03*
%TO.N,unconnected-(J1-Pin_16-Pad16)*%
X39903400Y1752600D03*
%TO.N,GND*%
X42443400Y1752600D03*
%TO.N,/5V_3V3_VIN*%
X44983400Y1752600D03*
%TO.N,unconnected-(J1-Pin_19-Pad19)*%
X47523400Y1752600D03*
%TO.N,/CPU_RESET_N*%
X50063400Y1752600D03*
%TO.N,unconnected-(J1-Pin_21-Pad21)*%
X52603400Y1752600D03*
%TO.N,/CPU_INT0_N*%
X55143400Y1752600D03*
%TO.N,/CPU_MREQ_N*%
X57683400Y1752600D03*
%TO.N,/CPU_WR_N*%
X60223400Y1752600D03*
%TO.N,/CPU_RD_N*%
X62763400Y1752600D03*
%TO.N,/CPU_IORQ_N*%
X65303400Y1752600D03*
%TO.N,unconnected-(J1-Pin_27-Pad27)*%
X67843400Y1752600D03*
%TO.N,unconnected-(J1-Pin_28-Pad28)*%
X70383400Y1752600D03*
%TO.N,unconnected-(J1-Pin_29-Pad29)*%
X72923400Y1752600D03*
%TO.N,unconnected-(J1-Pin_30-Pad30)*%
X75463400Y1752600D03*
%TO.N,unconnected-(J1-Pin_31-Pad31)*%
X78003400Y1752600D03*
%TO.N,unconnected-(J1-Pin_32-Pad32)*%
X80543400Y1752600D03*
%TO.N,unconnected-(J1-Pin_33-Pad33)*%
X83083400Y1752600D03*
%TO.N,unconnected-(J1-Pin_34-Pad34)*%
X85623400Y1752600D03*
%TO.N,unconnected-(J1-Pin_35-Pad35)*%
X88163400Y1752600D03*
%TO.N,unconnected-(J1-Pin_36-Pad36)*%
X90703400Y1752600D03*
%TO.N,/CPU_INT1_N*%
X93243400Y1752600D03*
%TO.N,unconnected-(J1-Pin_38-Pad38)*%
X95783400Y1752600D03*
%TO.N,unconnected-(J1-Pin_39-Pad39)*%
X98323400Y1752600D03*
%TO.N,unconnected-(J1-Pin_40-Pad40)*%
X100863400Y1752600D03*
%TO.N,/MEM_OE_N*%
X1803400Y4292600D03*
%TO.N,/MEM_CE_N*%
X4343400Y4292600D03*
%TO.N,/MEM_WE_N*%
X6883400Y4292600D03*
%TO.N,unconnected-(J1-Pin_44-Pad44)*%
X9423400Y4292600D03*
%TO.N,unconnected-(J1-Pin_45-Pad45)*%
X11963400Y4292600D03*
%TO.N,unconnected-(J1-Pin_46-Pad46)*%
X14503400Y4292600D03*
%TO.N,/CPU_DREQ1_N*%
X17043400Y4292600D03*
%TO.N,/CPU_TEND1_N*%
X19583400Y4292600D03*
%TO.N,unconnected-(J1-Pin_49-Pad49)*%
X22123400Y4292600D03*
%TO.N,unconnected-(J1-Pin_50-Pad50)*%
X24663400Y4292600D03*
%TO.N,unconnected-(J1-Pin_51-Pad51)*%
X27203400Y4292600D03*
%TO.N,unconnected-(J1-Pin_52-Pad52)*%
X29743400Y4292600D03*
%TO.N,unconnected-(J1-Pin_53-Pad53)*%
X32283400Y4292600D03*
%TO.N,unconnected-(J1-Pin_54-Pad54)*%
X34823400Y4292600D03*
%TO.N,unconnected-(J1-Pin_55-Pad55)*%
X37363400Y4292600D03*
%TO.N,unconnected-(J1-Pin_56-Pad56)*%
X39903400Y4292600D03*
%TO.N,GND*%
X42443400Y4292600D03*
%TO.N,/5V_3V3_VIN*%
X44983400Y4292600D03*
%TO.N,unconnected-(J1-Pin_59-Pad59)*%
X47523400Y4292600D03*
%TO.N,unconnected-(J1-Pin_60-Pad60)*%
X50063400Y4292600D03*
%TO.N,unconnected-(J1-Pin_61-Pad61)*%
X52603400Y4292600D03*
%TO.N,/CPU_BUSACK_N*%
X55143400Y4292600D03*
%TO.N,unconnected-(J1-Pin_63-Pad63)*%
X57683400Y4292600D03*
%TO.N,/CPU_BUSREQ_N*%
X60223400Y4292600D03*
%TO.N,/CPU_WAIT_N*%
X62763400Y4292600D03*
%TO.N,/CPU_NMI_N*%
X65303400Y4292600D03*
%TO.N,unconnected-(J1-Pin_67-Pad67)*%
X67843400Y4292600D03*
%TO.N,unconnected-(J1-Pin_68-Pad68)*%
X70383400Y4292600D03*
%TO.N,unconnected-(J1-Pin_69-Pad69)*%
X72923400Y4292600D03*
%TO.N,unconnected-(J1-Pin_70-Pad70)*%
X75463400Y4292600D03*
%TO.N,unconnected-(J1-Pin_71-Pad71)*%
X78003400Y4292600D03*
%TO.N,unconnected-(J1-Pin_72-Pad72)*%
X80543400Y4292600D03*
%TO.N,unconnected-(J1-Pin_73-Pad73)*%
X83083400Y4292600D03*
%TO.N,unconnected-(J1-Pin_74-Pad74)*%
X85623400Y4292600D03*
%TO.N,unconnected-(J1-Pin_75-Pad75)*%
X88163400Y4292600D03*
%TO.N,unconnected-(J1-Pin_76-Pad76)*%
X90703400Y4292600D03*
%TO.N,unconnected-(J1-Pin_77-Pad77)*%
X93243400Y4292600D03*
%TO.N,unconnected-(J1-Pin_78-Pad78)*%
X95783400Y4292600D03*
%TO.N,unconnected-(J1-Pin_79-Pad79)*%
X98323400Y4292600D03*
%TO.N,unconnected-(J1-Pin_80-Pad80)*%
X100863400Y4292600D03*
%TD*%
D12*
%TO.N,+3.3V*%
X75864720Y33921700D03*
D13*
X79674720Y25031700D03*
D12*
X45511720Y34683700D03*
D13*
X52369720Y27571700D03*
X31795720Y25031700D03*
D12*
X43479720Y14617700D03*
D13*
X79674720Y27571700D03*
X31795720Y27571700D03*
X79674720Y30111700D03*
D12*
X48559720Y33921700D03*
D13*
X59481720Y30111700D03*
D12*
X72816720Y34810700D03*
D13*
X59481720Y25031700D03*
X52369720Y22491700D03*
X79674720Y22491700D03*
X59481720Y32651700D03*
X52369720Y25031700D03*
X31795720Y32651700D03*
D12*
X45003720Y14617700D03*
D13*
X52369720Y30111700D03*
X59481720Y27571700D03*
X31795720Y30111700D03*
%TO.N,GND*%
X67228720Y37731700D03*
X79928720Y48526700D03*
X24048720Y48526700D03*
X69768720Y37731700D03*
X24048720Y30111700D03*
X101772720Y45859700D03*
X79928720Y37731700D03*
X65323720Y48780700D03*
X67863720Y30111700D03*
X101772720Y26809700D03*
X26588720Y35191700D03*
X33573720Y48780700D03*
X27223720Y48780700D03*
X40050720Y48780700D03*
X21508720Y48526700D03*
X61640720Y34429700D03*
X87548720Y48526700D03*
X82468720Y48526700D03*
D12*
X36748720Y9410700D03*
D13*
X92628720Y48526700D03*
X66339720Y15125700D03*
X101772720Y19189700D03*
X101772720Y34429700D03*
X8808720Y14871700D03*
D12*
X38653720Y21729700D03*
D13*
X60243720Y18681700D03*
X10459720Y11823700D03*
X52623720Y48780700D03*
X10713720Y43446700D03*
X82468720Y37731700D03*
X47162720Y32651700D03*
X18968720Y25031700D03*
D12*
X79674720Y33921700D03*
D13*
X5633720Y38366700D03*
X91358720Y45351700D03*
D12*
X52369720Y33921700D03*
D13*
X76118720Y42811700D03*
X26588720Y42811700D03*
D12*
X35351720Y7759700D03*
X45003720Y10807700D03*
D13*
X90088720Y48526700D03*
X65958720Y34683700D03*
X64053720Y26301700D03*
X26588720Y32651700D03*
D12*
X64434720Y22491700D03*
D13*
X77388720Y37731700D03*
X101772720Y38239700D03*
X101772720Y30619700D03*
X85008720Y37731700D03*
X77388720Y48526700D03*
X64053720Y9283700D03*
D12*
X43479720Y10807700D03*
D13*
X87548720Y40271700D03*
X1188720Y27571700D03*
X46273720Y48780700D03*
X1188720Y30111700D03*
X28620720Y28968700D03*
X1188720Y25031700D03*
X101772720Y42049700D03*
X58973720Y48780700D03*
X16428720Y22491700D03*
X85008720Y48526700D03*
X101772720Y22999700D03*
X72308720Y37731700D03*
X74848720Y37731700D03*
X43733720Y28841700D03*
X74213720Y32651700D03*
X26588720Y37731700D03*
X56433720Y21856700D03*
X54528720Y16776700D03*
X37256720Y33921700D03*
X31668720Y34556700D03*
X71673720Y48780700D03*
X21508720Y27571700D03*
X26588720Y45351700D03*
%TO.N,/CPU_DREQ1_N*%
X41638220Y22555200D03*
%TO.N,/CPU_TEND1_N*%
X42717720Y20840700D03*
%TO.N,/CPU_INT1_N*%
X61894720Y16141700D03*
X51607720Y17792700D03*
%TO.N,/CPU_BUSACK_N*%
X43987720Y27571700D03*
D12*
%TO.N,/CPU_INT0_N*%
X47798370Y10045050D03*
D13*
%TO.N,/CPU_WR_N*%
X62275720Y19189700D03*
%TO.N,/CPU_NMI_N*%
X53258720Y16141700D03*
X61069220Y14046200D03*
%TO.N,/MEM_WE_N*%
X64180720Y27571700D03*
%TO.N,/CPU_RESET_N*%
X75610720Y22491700D03*
X66720720Y20586700D03*
%TO.N,/CPU_WAIT_N*%
X37002720Y32651700D03*
%TO.N,/MEM_OE_N*%
X64180720Y30111700D03*
%TO.N,/CPU_BUSREQ_N*%
X44089320Y30111700D03*
%TO.N,/CPU_IORQ_N*%
X72181720Y19951700D03*
%TO.N,/MEM_CE_N*%
X63164720Y32651700D03*
%TO.N,/CPU_RD_N*%
X64180720Y25031700D03*
%TO.N,/LED_IORQ*%
X67482720Y26301700D03*
X99105720Y21983700D03*
%TO.N,/LED_WR*%
X99105720Y29603700D03*
X67482720Y31381700D03*
%TO.N,/LED_MREQ*%
X67482720Y28841700D03*
X99105720Y25793700D03*
%TO.N,/LED_RESET*%
X67482720Y23761700D03*
X99105720Y18173700D03*
%TD*%
%TA.AperFunction,Conductor*%
%TO.N,+3.3V*%
G36*
X27021626Y49539698D02*
G01*
X27068119Y49486042D01*
X27078223Y49415768D01*
X27048729Y49351188D01*
X27001722Y49317291D01*
X26930865Y49287943D01*
X26809559Y49194861D01*
X26716477Y49073555D01*
X26657967Y48932294D01*
X26638009Y48780701D01*
X26638009Y48780700D01*
X26657967Y48629107D01*
X26716477Y48487845D01*
X26809559Y48366540D01*
X26930864Y48273458D01*
X27019943Y48236562D01*
X27072127Y48214947D01*
X27223720Y48194989D01*
X27375313Y48214947D01*
X27464392Y48251845D01*
X27516575Y48273458D01*
X27637880Y48366540D01*
X27730962Y48487845D01*
X27752575Y48540028D01*
X27789473Y48629107D01*
X27809431Y48780700D01*
X27789473Y48932293D01*
X27767858Y48984476D01*
X27730962Y49073555D01*
X27637880Y49194861D01*
X27516574Y49287943D01*
X27445719Y49317291D01*
X27390438Y49361838D01*
X27368016Y49429202D01*
X27385574Y49497993D01*
X27437535Y49546372D01*
X27493936Y49559700D01*
X33303505Y49559700D01*
X33371626Y49539698D01*
X33418119Y49486042D01*
X33428223Y49415768D01*
X33398729Y49351188D01*
X33351722Y49317291D01*
X33280865Y49287943D01*
X33159559Y49194861D01*
X33066477Y49073555D01*
X33007967Y48932294D01*
X32988009Y48780701D01*
X32988009Y48780700D01*
X33007967Y48629107D01*
X33066477Y48487845D01*
X33159559Y48366540D01*
X33280864Y48273458D01*
X33369943Y48236562D01*
X33422127Y48214947D01*
X33573720Y48194989D01*
X33725313Y48214947D01*
X33814392Y48251845D01*
X33866575Y48273458D01*
X33987880Y48366540D01*
X34080962Y48487845D01*
X34102575Y48540028D01*
X34139473Y48629107D01*
X34159431Y48780700D01*
X34139473Y48932293D01*
X34117858Y48984476D01*
X34080962Y49073555D01*
X33987880Y49194861D01*
X33866574Y49287943D01*
X33795719Y49317291D01*
X33740438Y49361838D01*
X33718016Y49429202D01*
X33735574Y49497993D01*
X33787535Y49546372D01*
X33843936Y49559700D01*
X39780505Y49559700D01*
X39848626Y49539698D01*
X39895119Y49486042D01*
X39905223Y49415768D01*
X39875729Y49351188D01*
X39828722Y49317291D01*
X39757865Y49287943D01*
X39636559Y49194861D01*
X39543477Y49073555D01*
X39484967Y48932294D01*
X39465009Y48780701D01*
X39465009Y48780700D01*
X39484967Y48629107D01*
X39543477Y48487845D01*
X39636559Y48366540D01*
X39757864Y48273458D01*
X39846943Y48236562D01*
X39899127Y48214947D01*
X40050720Y48194989D01*
X40202313Y48214947D01*
X40291392Y48251845D01*
X40343575Y48273458D01*
X40464880Y48366540D01*
X40557962Y48487845D01*
X40579575Y48540028D01*
X40616473Y48629107D01*
X40636431Y48780700D01*
X40616473Y48932293D01*
X40594858Y48984476D01*
X40557962Y49073555D01*
X40464880Y49194861D01*
X40343574Y49287943D01*
X40272719Y49317291D01*
X40217438Y49361838D01*
X40195016Y49429202D01*
X40212574Y49497993D01*
X40264535Y49546372D01*
X40320936Y49559700D01*
X46003505Y49559700D01*
X46071626Y49539698D01*
X46118119Y49486042D01*
X46128223Y49415768D01*
X46098729Y49351188D01*
X46051722Y49317291D01*
X45980865Y49287943D01*
X45859559Y49194861D01*
X45766477Y49073555D01*
X45707967Y48932294D01*
X45688009Y48780701D01*
X45688009Y48780700D01*
X45707967Y48629107D01*
X45766477Y48487845D01*
X45859559Y48366540D01*
X45980864Y48273458D01*
X46069943Y48236562D01*
X46122127Y48214947D01*
X46273720Y48194989D01*
X46425313Y48214947D01*
X46514392Y48251845D01*
X46566575Y48273458D01*
X46687880Y48366540D01*
X46780962Y48487845D01*
X46802575Y48540028D01*
X46839473Y48629107D01*
X46859431Y48780700D01*
X46839473Y48932293D01*
X46817858Y48984476D01*
X46780962Y49073555D01*
X46687880Y49194861D01*
X46566574Y49287943D01*
X46495719Y49317291D01*
X46440438Y49361838D01*
X46418016Y49429202D01*
X46435574Y49497993D01*
X46487535Y49546372D01*
X46543936Y49559700D01*
X52353505Y49559700D01*
X52421626Y49539698D01*
X52468119Y49486042D01*
X52478223Y49415768D01*
X52448729Y49351188D01*
X52401722Y49317291D01*
X52330865Y49287943D01*
X52209559Y49194861D01*
X52116477Y49073555D01*
X52057967Y48932294D01*
X52038009Y48780701D01*
X52038009Y48780700D01*
X52057967Y48629107D01*
X52116477Y48487845D01*
X52209559Y48366540D01*
X52330864Y48273458D01*
X52419943Y48236562D01*
X52472127Y48214947D01*
X52623720Y48194989D01*
X52775313Y48214947D01*
X52864392Y48251845D01*
X52916575Y48273458D01*
X53037880Y48366540D01*
X53130962Y48487845D01*
X53152575Y48540028D01*
X53189473Y48629107D01*
X53209431Y48780700D01*
X53189473Y48932293D01*
X53167858Y48984476D01*
X53130962Y49073555D01*
X53037880Y49194861D01*
X52916574Y49287943D01*
X52845719Y49317291D01*
X52790438Y49361838D01*
X52768016Y49429202D01*
X52785574Y49497993D01*
X52837535Y49546372D01*
X52893936Y49559700D01*
X58703505Y49559700D01*
X58771626Y49539698D01*
X58818119Y49486042D01*
X58828223Y49415768D01*
X58798729Y49351188D01*
X58751722Y49317291D01*
X58680865Y49287943D01*
X58559559Y49194861D01*
X58466477Y49073555D01*
X58407967Y48932294D01*
X58388009Y48780701D01*
X58388009Y48780700D01*
X58407967Y48629107D01*
X58466477Y48487845D01*
X58559559Y48366540D01*
X58680864Y48273458D01*
X58769943Y48236562D01*
X58822127Y48214947D01*
X58973720Y48194989D01*
X59125313Y48214947D01*
X59214392Y48251845D01*
X59266575Y48273458D01*
X59387880Y48366540D01*
X59480962Y48487845D01*
X59502575Y48540028D01*
X59539473Y48629107D01*
X59559431Y48780700D01*
X59539473Y48932293D01*
X59517858Y48984476D01*
X59480962Y49073555D01*
X59387880Y49194861D01*
X59266574Y49287943D01*
X59195719Y49317291D01*
X59140438Y49361838D01*
X59118016Y49429202D01*
X59135574Y49497993D01*
X59187535Y49546372D01*
X59243936Y49559700D01*
X65053505Y49559700D01*
X65121626Y49539698D01*
X65168119Y49486042D01*
X65178223Y49415768D01*
X65148729Y49351188D01*
X65101722Y49317291D01*
X65030865Y49287943D01*
X64909559Y49194861D01*
X64816477Y49073555D01*
X64757967Y48932294D01*
X64738009Y48780701D01*
X64738009Y48780700D01*
X64757967Y48629107D01*
X64816477Y48487845D01*
X64909559Y48366540D01*
X65030864Y48273458D01*
X65119943Y48236562D01*
X65172127Y48214947D01*
X65323720Y48194989D01*
X65475313Y48214947D01*
X65564392Y48251845D01*
X65616575Y48273458D01*
X65737880Y48366540D01*
X65830962Y48487845D01*
X65852575Y48540028D01*
X65889473Y48629107D01*
X65909431Y48780700D01*
X65889473Y48932293D01*
X65867858Y48984476D01*
X65830962Y49073555D01*
X65737880Y49194861D01*
X65616574Y49287943D01*
X65545719Y49317291D01*
X65490438Y49361838D01*
X65468016Y49429202D01*
X65485574Y49497993D01*
X65537535Y49546372D01*
X65593936Y49559700D01*
X71403505Y49559700D01*
X71471626Y49539698D01*
X71518119Y49486042D01*
X71528223Y49415768D01*
X71498729Y49351188D01*
X71451722Y49317291D01*
X71380865Y49287943D01*
X71259559Y49194861D01*
X71166477Y49073555D01*
X71107967Y48932294D01*
X71088009Y48780701D01*
X71088009Y48780700D01*
X71107967Y48629107D01*
X71166477Y48487845D01*
X71259559Y48366540D01*
X71380864Y48273458D01*
X71469943Y48236562D01*
X71522127Y48214947D01*
X71673720Y48194989D01*
X71825313Y48214947D01*
X71914392Y48251845D01*
X71966575Y48273458D01*
X72087880Y48366540D01*
X72180962Y48487845D01*
X72197055Y48526701D01*
X76803009Y48526701D01*
X76803009Y48526700D01*
X76822967Y48375107D01*
X76881477Y48233845D01*
X76974559Y48112540D01*
X77095864Y48019458D01*
X77184943Y47982562D01*
X77237127Y47960947D01*
X77388720Y47940989D01*
X77540313Y47960947D01*
X77629392Y47997845D01*
X77681575Y48019458D01*
X77802880Y48112540D01*
X77895962Y48233845D01*
X77917575Y48286028D01*
X77954473Y48375107D01*
X77974431Y48526700D01*
X77974431Y48526701D01*
X79343009Y48526701D01*
X79343009Y48526700D01*
X79362967Y48375107D01*
X79421477Y48233845D01*
X79514559Y48112540D01*
X79635864Y48019458D01*
X79724943Y47982562D01*
X79777127Y47960947D01*
X79928720Y47940989D01*
X80080313Y47960947D01*
X80169392Y47997845D01*
X80221575Y48019458D01*
X80342880Y48112540D01*
X80435962Y48233845D01*
X80457575Y48286028D01*
X80494473Y48375107D01*
X80514431Y48526700D01*
X80514431Y48526701D01*
X81883009Y48526701D01*
X81883009Y48526700D01*
X81902967Y48375107D01*
X81961477Y48233845D01*
X82054559Y48112540D01*
X82175864Y48019458D01*
X82264943Y47982562D01*
X82317127Y47960947D01*
X82468720Y47940989D01*
X82620313Y47960947D01*
X82709392Y47997845D01*
X82761575Y48019458D01*
X82882880Y48112540D01*
X82975962Y48233845D01*
X82997575Y48286028D01*
X83034473Y48375107D01*
X83054431Y48526700D01*
X83054431Y48526701D01*
X84423009Y48526701D01*
X84423009Y48526700D01*
X84442967Y48375107D01*
X84501477Y48233845D01*
X84594559Y48112540D01*
X84715864Y48019458D01*
X84804943Y47982562D01*
X84857127Y47960947D01*
X85008720Y47940989D01*
X85160313Y47960947D01*
X85249392Y47997845D01*
X85301575Y48019458D01*
X85422880Y48112540D01*
X85515962Y48233845D01*
X85537575Y48286028D01*
X85574473Y48375107D01*
X85594431Y48526700D01*
X85594431Y48526701D01*
X86963009Y48526701D01*
X86963009Y48526700D01*
X86982967Y48375107D01*
X87041477Y48233845D01*
X87134559Y48112540D01*
X87255864Y48019458D01*
X87344943Y47982562D01*
X87397127Y47960947D01*
X87548720Y47940989D01*
X87700313Y47960947D01*
X87789392Y47997845D01*
X87841575Y48019458D01*
X87962880Y48112540D01*
X88055962Y48233845D01*
X88077575Y48286028D01*
X88114473Y48375107D01*
X88134431Y48526700D01*
X88134431Y48526701D01*
X89503009Y48526701D01*
X89503009Y48526700D01*
X89522967Y48375107D01*
X89581477Y48233845D01*
X89674559Y48112540D01*
X89795864Y48019458D01*
X89884943Y47982562D01*
X89937127Y47960947D01*
X90088720Y47940989D01*
X90240313Y47960947D01*
X90329392Y47997845D01*
X90381575Y48019458D01*
X90502880Y48112540D01*
X90595962Y48233845D01*
X90617575Y48286028D01*
X90654473Y48375107D01*
X90674431Y48526700D01*
X90674431Y48526701D01*
X92043009Y48526701D01*
X92043009Y48526700D01*
X92062967Y48375107D01*
X92121477Y48233845D01*
X92214559Y48112540D01*
X92335864Y48019458D01*
X92424943Y47982562D01*
X92477127Y47960947D01*
X92628720Y47940989D01*
X92780313Y47960947D01*
X92869392Y47997845D01*
X92921575Y48019458D01*
X93042880Y48112540D01*
X93135962Y48233845D01*
X93157575Y48286028D01*
X93194473Y48375107D01*
X93214431Y48526700D01*
X93194473Y48678293D01*
X93172858Y48730476D01*
X93135962Y48819555D01*
X93042880Y48940861D01*
X92921575Y49033943D01*
X92780313Y49092453D01*
X92628720Y49112411D01*
X92477126Y49092453D01*
X92335865Y49033943D01*
X92214559Y48940861D01*
X92121477Y48819555D01*
X92062967Y48678294D01*
X92043009Y48526701D01*
X90674431Y48526701D01*
X90654473Y48678293D01*
X90632858Y48730476D01*
X90595962Y48819555D01*
X90502880Y48940861D01*
X90381575Y49033943D01*
X90240313Y49092453D01*
X90088720Y49112411D01*
X89937126Y49092453D01*
X89795865Y49033943D01*
X89674559Y48940861D01*
X89581477Y48819555D01*
X89522967Y48678294D01*
X89503009Y48526701D01*
X88134431Y48526701D01*
X88114473Y48678293D01*
X88092858Y48730476D01*
X88055962Y48819555D01*
X87962880Y48940861D01*
X87841575Y49033943D01*
X87700313Y49092453D01*
X87548720Y49112411D01*
X87397126Y49092453D01*
X87255865Y49033943D01*
X87134559Y48940861D01*
X87041477Y48819555D01*
X86982967Y48678294D01*
X86963009Y48526701D01*
X85594431Y48526701D01*
X85574473Y48678293D01*
X85552858Y48730476D01*
X85515962Y48819555D01*
X85422880Y48940861D01*
X85301575Y49033943D01*
X85160313Y49092453D01*
X85008720Y49112411D01*
X84857126Y49092453D01*
X84715865Y49033943D01*
X84594559Y48940861D01*
X84501477Y48819555D01*
X84442967Y48678294D01*
X84423009Y48526701D01*
X83054431Y48526701D01*
X83034473Y48678293D01*
X83012858Y48730476D01*
X82975962Y48819555D01*
X82882880Y48940861D01*
X82761575Y49033943D01*
X82620313Y49092453D01*
X82468720Y49112411D01*
X82317126Y49092453D01*
X82175865Y49033943D01*
X82054559Y48940861D01*
X81961477Y48819555D01*
X81902967Y48678294D01*
X81883009Y48526701D01*
X80514431Y48526701D01*
X80494473Y48678293D01*
X80472858Y48730476D01*
X80435962Y48819555D01*
X80342880Y48940861D01*
X80221575Y49033943D01*
X80080313Y49092453D01*
X79928720Y49112411D01*
X79777126Y49092453D01*
X79635865Y49033943D01*
X79514559Y48940861D01*
X79421477Y48819555D01*
X79362967Y48678294D01*
X79343009Y48526701D01*
X77974431Y48526701D01*
X77954473Y48678293D01*
X77932858Y48730476D01*
X77895962Y48819555D01*
X77802880Y48940861D01*
X77681575Y49033943D01*
X77540313Y49092453D01*
X77388720Y49112411D01*
X77237126Y49092453D01*
X77095865Y49033943D01*
X76974559Y48940861D01*
X76881477Y48819555D01*
X76822967Y48678294D01*
X76803009Y48526701D01*
X72197055Y48526701D01*
X72202575Y48540028D01*
X72239473Y48629107D01*
X72259431Y48780700D01*
X72239473Y48932293D01*
X72217858Y48984476D01*
X72180962Y49073555D01*
X72087880Y49194861D01*
X71966574Y49287943D01*
X71895719Y49317291D01*
X71840438Y49361838D01*
X71818016Y49429202D01*
X71835574Y49497993D01*
X71887535Y49546372D01*
X71943936Y49559700D01*
X97682207Y49559700D01*
X97727055Y49559700D01*
X97732550Y49559580D01*
X98149581Y49541374D01*
X98160532Y49540416D01*
X98253475Y49528181D01*
X98571677Y49486289D01*
X98582485Y49484383D01*
X98987359Y49394626D01*
X98997940Y49391791D01*
X99393449Y49267089D01*
X99403769Y49263333D01*
X99786896Y49104638D01*
X99796858Y49099992D01*
X100164672Y48908521D01*
X100174191Y48903026D01*
X100523934Y48680217D01*
X100532938Y48673913D01*
X100853432Y48427990D01*
X100861935Y48421466D01*
X100870355Y48414400D01*
X101176079Y48134256D01*
X101183852Y48126483D01*
X101464017Y47820737D01*
X101471082Y47812317D01*
X101723517Y47483339D01*
X101729822Y47474335D01*
X101879925Y47238721D01*
X101952631Y47124597D01*
X101958127Y47115077D01*
X102149605Y46747252D01*
X102154251Y46737290D01*
X102241697Y46526177D01*
X102249286Y46455587D01*
X102217507Y46392100D01*
X102156449Y46355873D01*
X102085497Y46358407D01*
X102073259Y46363908D01*
X102073207Y46363781D01*
X101924313Y46425453D01*
X101772720Y46445411D01*
X101621126Y46425453D01*
X101479865Y46366943D01*
X101358559Y46273861D01*
X101265477Y46152555D01*
X101206967Y46011294D01*
X101187009Y45859701D01*
X101187009Y45859700D01*
X101206967Y45708107D01*
X101265477Y45566845D01*
X101358559Y45445540D01*
X101479864Y45352458D01*
X101568943Y45315562D01*
X101621127Y45293947D01*
X101772720Y45273989D01*
X101924313Y45293947D01*
X102013392Y45330845D01*
X102065575Y45352458D01*
X102186880Y45445540D01*
X102279961Y45566844D01*
X102287601Y45585290D01*
X102332146Y45640571D01*
X102399509Y45662995D01*
X102468301Y45645439D01*
X102516681Y45593479D01*
X102527024Y45564346D01*
X102533997Y45532892D01*
X102535906Y45522067D01*
X102590033Y45110932D01*
X102590991Y45099982D01*
X102609180Y44683407D01*
X102609300Y44677911D01*
X102609300Y44632604D01*
X102609348Y44632300D01*
X102610900Y44612587D01*
X102610900Y426500D01*
X102590898Y358379D01*
X102537242Y311886D01*
X102484900Y300500D01*
X426500Y300500D01*
X358379Y320502D01*
X311886Y374158D01*
X300500Y426500D01*
X300500Y4292605D01*
X617642Y4292605D01*
X617642Y4292596D01*
X637831Y4074722D01*
X637831Y4074719D01*
X637832Y4074718D01*
X697714Y3864255D01*
X795248Y3668379D01*
X795249Y3668378D01*
X795250Y3668376D01*
X927112Y3493761D01*
X1088819Y3346346D01*
X1274855Y3231157D01*
X1274856Y3231157D01*
X1274862Y3231153D01*
X1415187Y3176792D01*
X1471481Y3133532D01*
X1495452Y3066705D01*
X1479488Y2997526D01*
X1428657Y2947960D01*
X1369670Y2933300D01*
X914641Y2933300D01*
X866489Y2926961D01*
X760790Y2877673D01*
X678327Y2795210D01*
X629039Y2689511D01*
X622700Y2641359D01*
X622700Y863842D01*
X629039Y815690D01*
X678327Y709991D01*
X760790Y627528D01*
X760791Y627528D01*
X760792Y627527D01*
X866488Y578240D01*
X914646Y571900D01*
X914653Y571900D01*
X2692147Y571900D01*
X2692154Y571900D01*
X2740312Y578240D01*
X2846008Y627527D01*
X2928473Y709992D01*
X2977760Y815688D01*
X2984100Y863846D01*
X2984100Y1312352D01*
X3004102Y1380473D01*
X3057758Y1426966D01*
X3128032Y1437070D01*
X3192612Y1407576D01*
X3230996Y1347850D01*
X3231290Y1346833D01*
X3237711Y1324263D01*
X3237712Y1324261D01*
X3237714Y1324255D01*
X3335248Y1128379D01*
X3335249Y1128378D01*
X3335250Y1128376D01*
X3467112Y953761D01*
X3628819Y806346D01*
X3814855Y691157D01*
X3814856Y691157D01*
X3814862Y691153D01*
X4018902Y612108D01*
X4233992Y571900D01*
X4233996Y571900D01*
X4452804Y571900D01*
X4452808Y571900D01*
X4667898Y612108D01*
X4871938Y691153D01*
X5057979Y806345D01*
X5219686Y953760D01*
X5351552Y1128379D01*
X5449086Y1324255D01*
X5492210Y1475821D01*
X5530091Y1535867D01*
X5594421Y1565901D01*
X5664778Y1556388D01*
X5718822Y1510348D01*
X5734590Y1475820D01*
X5777711Y1324264D01*
X5777712Y1324261D01*
X5777714Y1324255D01*
X5875248Y1128379D01*
X5875249Y1128378D01*
X5875250Y1128376D01*
X6007112Y953761D01*
X6168819Y806346D01*
X6354855Y691157D01*
X6354856Y691157D01*
X6354862Y691153D01*
X6558902Y612108D01*
X6773992Y571900D01*
X6773996Y571900D01*
X6992804Y571900D01*
X6992808Y571900D01*
X7207898Y612108D01*
X7411938Y691153D01*
X7597979Y806345D01*
X7759686Y953760D01*
X7891552Y1128379D01*
X7989086Y1324255D01*
X8032210Y1475821D01*
X8070091Y1535867D01*
X8134421Y1565901D01*
X8204778Y1556388D01*
X8258822Y1510348D01*
X8274590Y1475820D01*
X8317711Y1324264D01*
X8317712Y1324261D01*
X8317714Y1324255D01*
X8415248Y1128379D01*
X8415249Y1128378D01*
X8415250Y1128376D01*
X8547112Y953761D01*
X8708819Y806346D01*
X8894855Y691157D01*
X8894856Y691157D01*
X8894862Y691153D01*
X9098902Y612108D01*
X9313992Y571900D01*
X9313996Y571900D01*
X9532804Y571900D01*
X9532808Y571900D01*
X9747898Y612108D01*
X9951938Y691153D01*
X10137979Y806345D01*
X10299686Y953760D01*
X10431552Y1128379D01*
X10529086Y1324255D01*
X10572210Y1475821D01*
X10610091Y1535867D01*
X10674421Y1565901D01*
X10744778Y1556388D01*
X10798822Y1510348D01*
X10814590Y1475820D01*
X10857711Y1324264D01*
X10857712Y1324261D01*
X10857714Y1324255D01*
X10955248Y1128379D01*
X10955249Y1128378D01*
X10955250Y1128376D01*
X11087112Y953761D01*
X11248819Y806346D01*
X11434855Y691157D01*
X11434856Y691157D01*
X11434862Y691153D01*
X11638902Y612108D01*
X11853992Y571900D01*
X11853996Y571900D01*
X12072804Y571900D01*
X12072808Y571900D01*
X12287898Y612108D01*
X12491938Y691153D01*
X12677979Y806345D01*
X12839686Y953760D01*
X12971552Y1128379D01*
X13069086Y1324255D01*
X13112210Y1475821D01*
X13150091Y1535867D01*
X13214421Y1565901D01*
X13284778Y1556388D01*
X13338822Y1510348D01*
X13354590Y1475820D01*
X13397711Y1324264D01*
X13397712Y1324261D01*
X13397714Y1324255D01*
X13495248Y1128379D01*
X13495249Y1128378D01*
X13495250Y1128376D01*
X13627112Y953761D01*
X13788819Y806346D01*
X13974855Y691157D01*
X13974856Y691157D01*
X13974862Y691153D01*
X14178902Y612108D01*
X14393992Y571900D01*
X14393996Y571900D01*
X14612804Y571900D01*
X14612808Y571900D01*
X14827898Y612108D01*
X15031938Y691153D01*
X15217979Y806345D01*
X15379686Y953760D01*
X15511552Y1128379D01*
X15609086Y1324255D01*
X15652210Y1475821D01*
X15690091Y1535867D01*
X15754421Y1565901D01*
X15824778Y1556388D01*
X15878822Y1510348D01*
X15894590Y1475820D01*
X15937711Y1324264D01*
X15937712Y1324261D01*
X15937714Y1324255D01*
X16035248Y1128379D01*
X16035249Y1128378D01*
X16035250Y1128376D01*
X16167112Y953761D01*
X16328819Y806346D01*
X16514855Y691157D01*
X16514856Y691157D01*
X16514862Y691153D01*
X16718902Y612108D01*
X16933992Y571900D01*
X16933996Y571900D01*
X17152804Y571900D01*
X17152808Y571900D01*
X17367898Y612108D01*
X17571938Y691153D01*
X17757979Y806345D01*
X17919686Y953760D01*
X18051552Y1128379D01*
X18149086Y1324255D01*
X18192210Y1475821D01*
X18230091Y1535867D01*
X18294421Y1565901D01*
X18364778Y1556388D01*
X18418822Y1510348D01*
X18434590Y1475820D01*
X18477711Y1324264D01*
X18477712Y1324261D01*
X18477714Y1324255D01*
X18575248Y1128379D01*
X18575249Y1128378D01*
X18575250Y1128376D01*
X18707112Y953761D01*
X18868819Y806346D01*
X19054855Y691157D01*
X19054856Y691157D01*
X19054862Y691153D01*
X19258902Y612108D01*
X19473992Y571900D01*
X19473996Y571900D01*
X19692804Y571900D01*
X19692808Y571900D01*
X19907898Y612108D01*
X20111938Y691153D01*
X20297979Y806345D01*
X20459686Y953760D01*
X20591552Y1128379D01*
X20689086Y1324255D01*
X20732210Y1475821D01*
X20770091Y1535867D01*
X20834421Y1565901D01*
X20904778Y1556388D01*
X20958822Y1510348D01*
X20974590Y1475820D01*
X21017711Y1324264D01*
X21017712Y1324261D01*
X21017714Y1324255D01*
X21115248Y1128379D01*
X21115249Y1128378D01*
X21115250Y1128376D01*
X21247112Y953761D01*
X21408819Y806346D01*
X21594855Y691157D01*
X21594856Y691157D01*
X21594862Y691153D01*
X21798902Y612108D01*
X22013992Y571900D01*
X22013996Y571900D01*
X22232804Y571900D01*
X22232808Y571900D01*
X22447898Y612108D01*
X22651938Y691153D01*
X22837979Y806345D01*
X22999686Y953760D01*
X23131552Y1128379D01*
X23229086Y1324255D01*
X23272210Y1475821D01*
X23310091Y1535867D01*
X23374421Y1565901D01*
X23444778Y1556388D01*
X23498822Y1510348D01*
X23514590Y1475820D01*
X23557711Y1324264D01*
X23557712Y1324261D01*
X23557714Y1324255D01*
X23655248Y1128379D01*
X23655249Y1128378D01*
X23655250Y1128376D01*
X23787112Y953761D01*
X23948819Y806346D01*
X24134855Y691157D01*
X24134856Y691157D01*
X24134862Y691153D01*
X24338902Y612108D01*
X24553992Y571900D01*
X24553996Y571900D01*
X24772804Y571900D01*
X24772808Y571900D01*
X24987898Y612108D01*
X25191938Y691153D01*
X25377979Y806345D01*
X25539686Y953760D01*
X25671552Y1128379D01*
X25769086Y1324255D01*
X25812210Y1475821D01*
X25850091Y1535867D01*
X25914421Y1565901D01*
X25984778Y1556388D01*
X26038822Y1510348D01*
X26054590Y1475820D01*
X26097711Y1324264D01*
X26097712Y1324261D01*
X26097714Y1324255D01*
X26195248Y1128379D01*
X26195249Y1128378D01*
X26195250Y1128376D01*
X26327112Y953761D01*
X26488819Y806346D01*
X26674855Y691157D01*
X26674856Y691157D01*
X26674862Y691153D01*
X26878902Y612108D01*
X27093992Y571900D01*
X27093996Y571900D01*
X27312804Y571900D01*
X27312808Y571900D01*
X27527898Y612108D01*
X27731938Y691153D01*
X27917979Y806345D01*
X28079686Y953760D01*
X28211552Y1128379D01*
X28309086Y1324255D01*
X28352210Y1475821D01*
X28390091Y1535867D01*
X28454421Y1565901D01*
X28524778Y1556388D01*
X28578822Y1510348D01*
X28594590Y1475820D01*
X28637711Y1324264D01*
X28637712Y1324261D01*
X28637714Y1324255D01*
X28735248Y1128379D01*
X28735249Y1128378D01*
X28735250Y1128376D01*
X28867112Y953761D01*
X29028819Y806346D01*
X29214855Y691157D01*
X29214856Y691157D01*
X29214862Y691153D01*
X29418902Y612108D01*
X29633992Y571900D01*
X29633996Y571900D01*
X29852804Y571900D01*
X29852808Y571900D01*
X30067898Y612108D01*
X30271938Y691153D01*
X30457979Y806345D01*
X30619686Y953760D01*
X30751552Y1128379D01*
X30849086Y1324255D01*
X30892210Y1475821D01*
X30930091Y1535867D01*
X30994421Y1565901D01*
X31064778Y1556388D01*
X31118822Y1510348D01*
X31134590Y1475820D01*
X31177711Y1324264D01*
X31177712Y1324261D01*
X31177714Y1324255D01*
X31275248Y1128379D01*
X31275249Y1128378D01*
X31275250Y1128376D01*
X31407112Y953761D01*
X31568819Y806346D01*
X31754855Y691157D01*
X31754856Y691157D01*
X31754862Y691153D01*
X31958902Y612108D01*
X32173992Y571900D01*
X32173996Y571900D01*
X32392804Y571900D01*
X32392808Y571900D01*
X32607898Y612108D01*
X32811938Y691153D01*
X32997979Y806345D01*
X33159686Y953760D01*
X33291552Y1128379D01*
X33389086Y1324255D01*
X33432210Y1475821D01*
X33470091Y1535867D01*
X33534421Y1565901D01*
X33604778Y1556388D01*
X33658822Y1510348D01*
X33674590Y1475820D01*
X33717711Y1324264D01*
X33717712Y1324261D01*
X33717714Y1324255D01*
X33815248Y1128379D01*
X33815249Y1128378D01*
X33815250Y1128376D01*
X33947112Y953761D01*
X34108819Y806346D01*
X34294855Y691157D01*
X34294856Y691157D01*
X34294862Y691153D01*
X34498902Y612108D01*
X34713992Y571900D01*
X34713996Y571900D01*
X34932804Y571900D01*
X34932808Y571900D01*
X35147898Y612108D01*
X35351938Y691153D01*
X35537979Y806345D01*
X35699686Y953760D01*
X35831552Y1128379D01*
X35929086Y1324255D01*
X35972210Y1475821D01*
X36010091Y1535867D01*
X36074421Y1565901D01*
X36144778Y1556388D01*
X36198822Y1510348D01*
X36214590Y1475820D01*
X36257711Y1324264D01*
X36257712Y1324261D01*
X36257714Y1324255D01*
X36355248Y1128379D01*
X36355249Y1128378D01*
X36355250Y1128376D01*
X36487112Y953761D01*
X36648819Y806346D01*
X36834855Y691157D01*
X36834856Y691157D01*
X36834862Y691153D01*
X37038902Y612108D01*
X37253992Y571900D01*
X37253996Y571900D01*
X37472804Y571900D01*
X37472808Y571900D01*
X37687898Y612108D01*
X37891938Y691153D01*
X38077979Y806345D01*
X38239686Y953760D01*
X38371552Y1128379D01*
X38469086Y1324255D01*
X38512210Y1475821D01*
X38550091Y1535867D01*
X38614421Y1565901D01*
X38684778Y1556388D01*
X38738822Y1510348D01*
X38754590Y1475820D01*
X38797711Y1324264D01*
X38797712Y1324261D01*
X38797714Y1324255D01*
X38895248Y1128379D01*
X38895249Y1128378D01*
X38895250Y1128376D01*
X39027112Y953761D01*
X39188819Y806346D01*
X39374855Y691157D01*
X39374856Y691157D01*
X39374862Y691153D01*
X39578902Y612108D01*
X39793992Y571900D01*
X39793996Y571900D01*
X40012804Y571900D01*
X40012808Y571900D01*
X40227898Y612108D01*
X40431938Y691153D01*
X40617979Y806345D01*
X40779686Y953760D01*
X40911552Y1128379D01*
X41009086Y1324255D01*
X41052210Y1475821D01*
X41090091Y1535867D01*
X41154421Y1565901D01*
X41224778Y1556388D01*
X41278822Y1510348D01*
X41294590Y1475820D01*
X41337711Y1324264D01*
X41337712Y1324261D01*
X41337714Y1324255D01*
X41435248Y1128379D01*
X41435249Y1128378D01*
X41435250Y1128376D01*
X41567112Y953761D01*
X41728819Y806346D01*
X41914855Y691157D01*
X41914856Y691157D01*
X41914862Y691153D01*
X42118902Y612108D01*
X42333992Y571900D01*
X42333996Y571900D01*
X42552804Y571900D01*
X42552808Y571900D01*
X42767898Y612108D01*
X42971938Y691153D01*
X43157979Y806345D01*
X43319686Y953760D01*
X43451552Y1128379D01*
X43549086Y1324255D01*
X43592210Y1475821D01*
X43630091Y1535867D01*
X43694421Y1565901D01*
X43764778Y1556388D01*
X43818822Y1510348D01*
X43834590Y1475820D01*
X43877711Y1324264D01*
X43877712Y1324261D01*
X43877714Y1324255D01*
X43975248Y1128379D01*
X43975249Y1128378D01*
X43975250Y1128376D01*
X44107112Y953761D01*
X44268819Y806346D01*
X44454855Y691157D01*
X44454856Y691157D01*
X44454862Y691153D01*
X44658902Y612108D01*
X44873992Y571900D01*
X44873996Y571900D01*
X45092804Y571900D01*
X45092808Y571900D01*
X45307898Y612108D01*
X45511938Y691153D01*
X45697979Y806345D01*
X45859686Y953760D01*
X45991552Y1128379D01*
X46089086Y1324255D01*
X46132210Y1475821D01*
X46170091Y1535867D01*
X46234421Y1565901D01*
X46304778Y1556388D01*
X46358822Y1510348D01*
X46374590Y1475820D01*
X46417711Y1324264D01*
X46417712Y1324261D01*
X46417714Y1324255D01*
X46515248Y1128379D01*
X46515249Y1128378D01*
X46515250Y1128376D01*
X46647112Y953761D01*
X46808819Y806346D01*
X46994855Y691157D01*
X46994856Y691157D01*
X46994862Y691153D01*
X47198902Y612108D01*
X47413992Y571900D01*
X47413996Y571900D01*
X47632804Y571900D01*
X47632808Y571900D01*
X47847898Y612108D01*
X48051938Y691153D01*
X48237979Y806345D01*
X48399686Y953760D01*
X48531552Y1128379D01*
X48629086Y1324255D01*
X48672210Y1475821D01*
X48710091Y1535867D01*
X48774421Y1565901D01*
X48844778Y1556388D01*
X48898822Y1510348D01*
X48914590Y1475820D01*
X48957711Y1324264D01*
X48957712Y1324261D01*
X48957714Y1324255D01*
X49055248Y1128379D01*
X49055249Y1128378D01*
X49055250Y1128376D01*
X49187112Y953761D01*
X49348819Y806346D01*
X49534855Y691157D01*
X49534856Y691157D01*
X49534862Y691153D01*
X49738902Y612108D01*
X49953992Y571900D01*
X49953996Y571900D01*
X50172804Y571900D01*
X50172808Y571900D01*
X50387898Y612108D01*
X50591938Y691153D01*
X50777979Y806345D01*
X50939686Y953760D01*
X51071552Y1128379D01*
X51169086Y1324255D01*
X51212210Y1475821D01*
X51250091Y1535867D01*
X51314421Y1565901D01*
X51384778Y1556388D01*
X51438822Y1510348D01*
X51454590Y1475820D01*
X51497711Y1324264D01*
X51497712Y1324261D01*
X51497714Y1324255D01*
X51595248Y1128379D01*
X51595249Y1128378D01*
X51595250Y1128376D01*
X51727112Y953761D01*
X51888819Y806346D01*
X52074855Y691157D01*
X52074856Y691157D01*
X52074862Y691153D01*
X52278902Y612108D01*
X52493992Y571900D01*
X52493996Y571900D01*
X52712804Y571900D01*
X52712808Y571900D01*
X52927898Y612108D01*
X53131938Y691153D01*
X53317979Y806345D01*
X53479686Y953760D01*
X53611552Y1128379D01*
X53709086Y1324255D01*
X53752210Y1475821D01*
X53790091Y1535867D01*
X53854421Y1565901D01*
X53924778Y1556388D01*
X53978822Y1510348D01*
X53994590Y1475820D01*
X54037711Y1324264D01*
X54037712Y1324261D01*
X54037714Y1324255D01*
X54135248Y1128379D01*
X54135249Y1128378D01*
X54135250Y1128376D01*
X54267112Y953761D01*
X54428819Y806346D01*
X54614855Y691157D01*
X54614856Y691157D01*
X54614862Y691153D01*
X54818902Y612108D01*
X55033992Y571900D01*
X55033996Y571900D01*
X55252804Y571900D01*
X55252808Y571900D01*
X55467898Y612108D01*
X55671938Y691153D01*
X55857979Y806345D01*
X56019686Y953760D01*
X56151552Y1128379D01*
X56249086Y1324255D01*
X56292210Y1475821D01*
X56330091Y1535867D01*
X56394421Y1565901D01*
X56464778Y1556388D01*
X56518822Y1510348D01*
X56534590Y1475820D01*
X56577711Y1324264D01*
X56577712Y1324261D01*
X56577714Y1324255D01*
X56675248Y1128379D01*
X56675249Y1128378D01*
X56675250Y1128376D01*
X56807112Y953761D01*
X56968819Y806346D01*
X57154855Y691157D01*
X57154856Y691157D01*
X57154862Y691153D01*
X57358902Y612108D01*
X57573992Y571900D01*
X57573996Y571900D01*
X57792804Y571900D01*
X57792808Y571900D01*
X58007898Y612108D01*
X58211938Y691153D01*
X58397979Y806345D01*
X58559686Y953760D01*
X58691552Y1128379D01*
X58789086Y1324255D01*
X58832210Y1475821D01*
X58870091Y1535867D01*
X58934421Y1565901D01*
X59004778Y1556388D01*
X59058822Y1510348D01*
X59074590Y1475820D01*
X59117711Y1324264D01*
X59117712Y1324261D01*
X59117714Y1324255D01*
X59215248Y1128379D01*
X59215249Y1128378D01*
X59215250Y1128376D01*
X59347112Y953761D01*
X59508819Y806346D01*
X59694855Y691157D01*
X59694856Y691157D01*
X59694862Y691153D01*
X59898902Y612108D01*
X60113992Y571900D01*
X60113996Y571900D01*
X60332804Y571900D01*
X60332808Y571900D01*
X60547898Y612108D01*
X60751938Y691153D01*
X60937979Y806345D01*
X61099686Y953760D01*
X61231552Y1128379D01*
X61329086Y1324255D01*
X61372210Y1475821D01*
X61410091Y1535867D01*
X61474421Y1565901D01*
X61544778Y1556388D01*
X61598822Y1510348D01*
X61614590Y1475820D01*
X61657711Y1324264D01*
X61657712Y1324261D01*
X61657714Y1324255D01*
X61755248Y1128379D01*
X61755249Y1128378D01*
X61755250Y1128376D01*
X61887112Y953761D01*
X62048819Y806346D01*
X62234855Y691157D01*
X62234856Y691157D01*
X62234862Y691153D01*
X62438902Y612108D01*
X62653992Y571900D01*
X62653996Y571900D01*
X62872804Y571900D01*
X62872808Y571900D01*
X63087898Y612108D01*
X63291938Y691153D01*
X63477979Y806345D01*
X63639686Y953760D01*
X63771552Y1128379D01*
X63869086Y1324255D01*
X63912210Y1475821D01*
X63950091Y1535867D01*
X64014421Y1565901D01*
X64084778Y1556388D01*
X64138822Y1510348D01*
X64154590Y1475820D01*
X64197711Y1324264D01*
X64197712Y1324261D01*
X64197714Y1324255D01*
X64295248Y1128379D01*
X64295249Y1128378D01*
X64295250Y1128376D01*
X64427112Y953761D01*
X64588819Y806346D01*
X64774855Y691157D01*
X64774856Y691157D01*
X64774862Y691153D01*
X64978902Y612108D01*
X65193992Y571900D01*
X65193996Y571900D01*
X65412804Y571900D01*
X65412808Y571900D01*
X65627898Y612108D01*
X65831938Y691153D01*
X66017979Y806345D01*
X66179686Y953760D01*
X66311552Y1128379D01*
X66409086Y1324255D01*
X66452210Y1475821D01*
X66490091Y1535867D01*
X66554421Y1565901D01*
X66624778Y1556388D01*
X66678822Y1510348D01*
X66694590Y1475820D01*
X66737711Y1324264D01*
X66737712Y1324261D01*
X66737714Y1324255D01*
X66835248Y1128379D01*
X66835249Y1128378D01*
X66835250Y1128376D01*
X66967112Y953761D01*
X67128819Y806346D01*
X67314855Y691157D01*
X67314856Y691157D01*
X67314862Y691153D01*
X67518902Y612108D01*
X67733992Y571900D01*
X67733996Y571900D01*
X67952804Y571900D01*
X67952808Y571900D01*
X68167898Y612108D01*
X68371938Y691153D01*
X68557979Y806345D01*
X68719686Y953760D01*
X68851552Y1128379D01*
X68949086Y1324255D01*
X68992210Y1475821D01*
X69030091Y1535867D01*
X69094421Y1565901D01*
X69164778Y1556388D01*
X69218822Y1510348D01*
X69234590Y1475820D01*
X69277711Y1324264D01*
X69277712Y1324261D01*
X69277714Y1324255D01*
X69375248Y1128379D01*
X69375249Y1128378D01*
X69375250Y1128376D01*
X69507112Y953761D01*
X69668819Y806346D01*
X69854855Y691157D01*
X69854856Y691157D01*
X69854862Y691153D01*
X70058902Y612108D01*
X70273992Y571900D01*
X70273996Y571900D01*
X70492804Y571900D01*
X70492808Y571900D01*
X70707898Y612108D01*
X70911938Y691153D01*
X71097979Y806345D01*
X71259686Y953760D01*
X71391552Y1128379D01*
X71489086Y1324255D01*
X71532210Y1475821D01*
X71570091Y1535867D01*
X71634421Y1565901D01*
X71704778Y1556388D01*
X71758822Y1510348D01*
X71774590Y1475820D01*
X71817711Y1324264D01*
X71817712Y1324261D01*
X71817714Y1324255D01*
X71915248Y1128379D01*
X71915249Y1128378D01*
X71915250Y1128376D01*
X72047112Y953761D01*
X72208819Y806346D01*
X72394855Y691157D01*
X72394856Y691157D01*
X72394862Y691153D01*
X72598902Y612108D01*
X72813992Y571900D01*
X72813996Y571900D01*
X73032804Y571900D01*
X73032808Y571900D01*
X73247898Y612108D01*
X73451938Y691153D01*
X73637979Y806345D01*
X73799686Y953760D01*
X73931552Y1128379D01*
X74029086Y1324255D01*
X74072210Y1475821D01*
X74110091Y1535867D01*
X74174421Y1565901D01*
X74244778Y1556388D01*
X74298822Y1510348D01*
X74314590Y1475820D01*
X74357711Y1324264D01*
X74357712Y1324261D01*
X74357714Y1324255D01*
X74455248Y1128379D01*
X74455249Y1128378D01*
X74455250Y1128376D01*
X74587112Y953761D01*
X74748819Y806346D01*
X74934855Y691157D01*
X74934856Y691157D01*
X74934862Y691153D01*
X75138902Y612108D01*
X75353992Y571900D01*
X75353996Y571900D01*
X75572804Y571900D01*
X75572808Y571900D01*
X75787898Y612108D01*
X75991938Y691153D01*
X76177979Y806345D01*
X76339686Y953760D01*
X76471552Y1128379D01*
X76569086Y1324255D01*
X76612210Y1475821D01*
X76650091Y1535867D01*
X76714421Y1565901D01*
X76784778Y1556388D01*
X76838822Y1510348D01*
X76854590Y1475820D01*
X76897711Y1324264D01*
X76897712Y1324261D01*
X76897714Y1324255D01*
X76995248Y1128379D01*
X76995249Y1128378D01*
X76995250Y1128376D01*
X77127112Y953761D01*
X77288819Y806346D01*
X77474855Y691157D01*
X77474856Y691157D01*
X77474862Y691153D01*
X77678902Y612108D01*
X77893992Y571900D01*
X77893996Y571900D01*
X78112804Y571900D01*
X78112808Y571900D01*
X78327898Y612108D01*
X78531938Y691153D01*
X78717979Y806345D01*
X78879686Y953760D01*
X79011552Y1128379D01*
X79109086Y1324255D01*
X79152210Y1475821D01*
X79190091Y1535867D01*
X79254421Y1565901D01*
X79324778Y1556388D01*
X79378822Y1510348D01*
X79394590Y1475820D01*
X79437711Y1324264D01*
X79437712Y1324261D01*
X79437714Y1324255D01*
X79535248Y1128379D01*
X79535249Y1128378D01*
X79535250Y1128376D01*
X79667112Y953761D01*
X79828819Y806346D01*
X80014855Y691157D01*
X80014856Y691157D01*
X80014862Y691153D01*
X80218902Y612108D01*
X80433992Y571900D01*
X80433996Y571900D01*
X80652804Y571900D01*
X80652808Y571900D01*
X80867898Y612108D01*
X81071938Y691153D01*
X81257979Y806345D01*
X81419686Y953760D01*
X81551552Y1128379D01*
X81649086Y1324255D01*
X81692210Y1475821D01*
X81730091Y1535867D01*
X81794421Y1565901D01*
X81864778Y1556388D01*
X81918822Y1510348D01*
X81934590Y1475820D01*
X81977711Y1324264D01*
X81977712Y1324261D01*
X81977714Y1324255D01*
X82075248Y1128379D01*
X82075249Y1128378D01*
X82075250Y1128376D01*
X82207112Y953761D01*
X82368819Y806346D01*
X82554855Y691157D01*
X82554856Y691157D01*
X82554862Y691153D01*
X82758902Y612108D01*
X82973992Y571900D01*
X82973996Y571900D01*
X83192804Y571900D01*
X83192808Y571900D01*
X83407898Y612108D01*
X83611938Y691153D01*
X83797979Y806345D01*
X83959686Y953760D01*
X84091552Y1128379D01*
X84189086Y1324255D01*
X84232210Y1475821D01*
X84270091Y1535867D01*
X84334421Y1565901D01*
X84404778Y1556388D01*
X84458822Y1510348D01*
X84474590Y1475820D01*
X84517711Y1324264D01*
X84517712Y1324261D01*
X84517714Y1324255D01*
X84615248Y1128379D01*
X84615249Y1128378D01*
X84615250Y1128376D01*
X84747112Y953761D01*
X84908819Y806346D01*
X85094855Y691157D01*
X85094856Y691157D01*
X85094862Y691153D01*
X85298902Y612108D01*
X85513992Y571900D01*
X85513996Y571900D01*
X85732804Y571900D01*
X85732808Y571900D01*
X85947898Y612108D01*
X86151938Y691153D01*
X86337979Y806345D01*
X86499686Y953760D01*
X86631552Y1128379D01*
X86729086Y1324255D01*
X86772210Y1475821D01*
X86810091Y1535867D01*
X86874421Y1565901D01*
X86944778Y1556388D01*
X86998822Y1510348D01*
X87014590Y1475820D01*
X87057711Y1324264D01*
X87057712Y1324261D01*
X87057714Y1324255D01*
X87155248Y1128379D01*
X87155249Y1128378D01*
X87155250Y1128376D01*
X87287112Y953761D01*
X87448819Y806346D01*
X87634855Y691157D01*
X87634856Y691157D01*
X87634862Y691153D01*
X87838902Y612108D01*
X88053992Y571900D01*
X88053996Y571900D01*
X88272804Y571900D01*
X88272808Y571900D01*
X88487898Y612108D01*
X88691938Y691153D01*
X88877979Y806345D01*
X89039686Y953760D01*
X89171552Y1128379D01*
X89269086Y1324255D01*
X89312210Y1475821D01*
X89350091Y1535867D01*
X89414421Y1565901D01*
X89484778Y1556388D01*
X89538822Y1510348D01*
X89554590Y1475820D01*
X89597711Y1324264D01*
X89597712Y1324261D01*
X89597714Y1324255D01*
X89695248Y1128379D01*
X89695249Y1128378D01*
X89695250Y1128376D01*
X89827112Y953761D01*
X89988819Y806346D01*
X90174855Y691157D01*
X90174856Y691157D01*
X90174862Y691153D01*
X90378902Y612108D01*
X90593992Y571900D01*
X90593996Y571900D01*
X90812804Y571900D01*
X90812808Y571900D01*
X91027898Y612108D01*
X91231938Y691153D01*
X91417979Y806345D01*
X91579686Y953760D01*
X91711552Y1128379D01*
X91809086Y1324255D01*
X91852210Y1475821D01*
X91890091Y1535867D01*
X91954421Y1565901D01*
X92024778Y1556388D01*
X92078822Y1510348D01*
X92094590Y1475820D01*
X92137711Y1324264D01*
X92137712Y1324261D01*
X92137714Y1324255D01*
X92235248Y1128379D01*
X92235249Y1128378D01*
X92235250Y1128376D01*
X92367112Y953761D01*
X92528819Y806346D01*
X92714855Y691157D01*
X92714856Y691157D01*
X92714862Y691153D01*
X92918902Y612108D01*
X93133992Y571900D01*
X93133996Y571900D01*
X93352804Y571900D01*
X93352808Y571900D01*
X93567898Y612108D01*
X93771938Y691153D01*
X93957979Y806345D01*
X94119686Y953760D01*
X94251552Y1128379D01*
X94349086Y1324255D01*
X94392210Y1475821D01*
X94430091Y1535867D01*
X94494421Y1565901D01*
X94564778Y1556388D01*
X94618822Y1510348D01*
X94634590Y1475820D01*
X94677711Y1324264D01*
X94677712Y1324261D01*
X94677714Y1324255D01*
X94775248Y1128379D01*
X94775249Y1128378D01*
X94775250Y1128376D01*
X94907112Y953761D01*
X95068819Y806346D01*
X95254855Y691157D01*
X95254856Y691157D01*
X95254862Y691153D01*
X95458902Y612108D01*
X95673992Y571900D01*
X95673996Y571900D01*
X95892804Y571900D01*
X95892808Y571900D01*
X96107898Y612108D01*
X96311938Y691153D01*
X96497979Y806345D01*
X96659686Y953760D01*
X96791552Y1128379D01*
X96889086Y1324255D01*
X96932210Y1475821D01*
X96970091Y1535867D01*
X97034421Y1565901D01*
X97104778Y1556388D01*
X97158822Y1510348D01*
X97174590Y1475820D01*
X97217711Y1324264D01*
X97217712Y1324261D01*
X97217714Y1324255D01*
X97315248Y1128379D01*
X97315249Y1128378D01*
X97315250Y1128376D01*
X97447112Y953761D01*
X97608819Y806346D01*
X97794855Y691157D01*
X97794856Y691157D01*
X97794862Y691153D01*
X97998902Y612108D01*
X98213992Y571900D01*
X98213996Y571900D01*
X98432804Y571900D01*
X98432808Y571900D01*
X98647898Y612108D01*
X98851938Y691153D01*
X99037979Y806345D01*
X99199686Y953760D01*
X99331552Y1128379D01*
X99429086Y1324255D01*
X99472210Y1475821D01*
X99510091Y1535867D01*
X99574421Y1565901D01*
X99644778Y1556388D01*
X99698822Y1510348D01*
X99714590Y1475820D01*
X99757711Y1324264D01*
X99757712Y1324261D01*
X99757714Y1324255D01*
X99855248Y1128379D01*
X99855249Y1128378D01*
X99855250Y1128376D01*
X99987112Y953761D01*
X100148819Y806346D01*
X100334855Y691157D01*
X100334856Y691157D01*
X100334862Y691153D01*
X100538902Y612108D01*
X100753992Y571900D01*
X100753996Y571900D01*
X100972804Y571900D01*
X100972808Y571900D01*
X101187898Y612108D01*
X101391938Y691153D01*
X101577979Y806345D01*
X101739686Y953760D01*
X101871552Y1128379D01*
X101969086Y1324255D01*
X102028968Y1534718D01*
X102049158Y1752600D01*
X102028968Y1970482D01*
X101969086Y2180945D01*
X101871552Y2376821D01*
X101871549Y2376825D01*
X101739687Y2551440D01*
X101577980Y2698855D01*
X101391944Y2814044D01*
X101391940Y2814046D01*
X101391938Y2814047D01*
X101266944Y2862470D01*
X101187899Y2893092D01*
X101181402Y2894307D01*
X101157651Y2898747D01*
X101094369Y2930924D01*
X101058527Y2992209D01*
X101061508Y3063143D01*
X101102366Y3121205D01*
X101157651Y3146454D01*
X101187898Y3152108D01*
X101391938Y3231153D01*
X101577979Y3346345D01*
X101739686Y3493760D01*
X101871552Y3668379D01*
X101969086Y3864255D01*
X102028968Y4074718D01*
X102049158Y4292600D01*
X102028968Y4510482D01*
X101969086Y4720945D01*
X101871552Y4916821D01*
X101871549Y4916825D01*
X101739687Y5091440D01*
X101577980Y5238855D01*
X101391944Y5354044D01*
X101391940Y5354046D01*
X101391938Y5354047D01*
X101266944Y5402470D01*
X101187899Y5433092D01*
X100972808Y5473300D01*
X100753992Y5473300D01*
X100753991Y5473300D01*
X100538900Y5433092D01*
X100380810Y5371848D01*
X100334862Y5354047D01*
X100334861Y5354047D01*
X100334860Y5354046D01*
X100334855Y5354044D01*
X100148819Y5238855D01*
X99987112Y5091440D01*
X99855250Y4916825D01*
X99757714Y4720945D01*
X99757712Y4720940D01*
X99714590Y4569380D01*
X99676709Y4509334D01*
X99612379Y4479300D01*
X99542022Y4488813D01*
X99487978Y4534853D01*
X99472210Y4569380D01*
X99429087Y4720940D01*
X99429086Y4720945D01*
X99331552Y4916821D01*
X99331549Y4916825D01*
X99199687Y5091440D01*
X99037980Y5238855D01*
X98851944Y5354044D01*
X98851940Y5354046D01*
X98851938Y5354047D01*
X98726944Y5402470D01*
X98647899Y5433092D01*
X98432808Y5473300D01*
X98213992Y5473300D01*
X98213991Y5473300D01*
X97998900Y5433092D01*
X97840810Y5371848D01*
X97794862Y5354047D01*
X97794861Y5354047D01*
X97794860Y5354046D01*
X97794855Y5354044D01*
X97608819Y5238855D01*
X97447112Y5091440D01*
X97315250Y4916825D01*
X97217714Y4720945D01*
X97217712Y4720940D01*
X97174590Y4569380D01*
X97136709Y4509334D01*
X97072379Y4479300D01*
X97002022Y4488813D01*
X96947978Y4534853D01*
X96932210Y4569380D01*
X96889087Y4720940D01*
X96889086Y4720945D01*
X96791552Y4916821D01*
X96791549Y4916825D01*
X96659687Y5091440D01*
X96497980Y5238855D01*
X96311944Y5354044D01*
X96311940Y5354046D01*
X96311938Y5354047D01*
X96186944Y5402470D01*
X96107899Y5433092D01*
X95892808Y5473300D01*
X95673992Y5473300D01*
X95673991Y5473300D01*
X95458900Y5433092D01*
X95300810Y5371848D01*
X95254862Y5354047D01*
X95254861Y5354047D01*
X95254860Y5354046D01*
X95254855Y5354044D01*
X95068819Y5238855D01*
X94907112Y5091440D01*
X94775250Y4916825D01*
X94677714Y4720945D01*
X94677712Y4720940D01*
X94634590Y4569380D01*
X94596709Y4509334D01*
X94532379Y4479300D01*
X94462022Y4488813D01*
X94407978Y4534853D01*
X94392210Y4569380D01*
X94349087Y4720940D01*
X94349086Y4720945D01*
X94251552Y4916821D01*
X94251549Y4916825D01*
X94119687Y5091440D01*
X93957980Y5238855D01*
X93771944Y5354044D01*
X93771940Y5354046D01*
X93771938Y5354047D01*
X93646944Y5402470D01*
X93567899Y5433092D01*
X93352808Y5473300D01*
X93133992Y5473300D01*
X93133991Y5473300D01*
X92918900Y5433092D01*
X92760810Y5371848D01*
X92714862Y5354047D01*
X92714861Y5354047D01*
X92714860Y5354046D01*
X92714855Y5354044D01*
X92528819Y5238855D01*
X92367112Y5091440D01*
X92235250Y4916825D01*
X92137714Y4720945D01*
X92137712Y4720940D01*
X92094590Y4569380D01*
X92056709Y4509334D01*
X91992379Y4479300D01*
X91922022Y4488813D01*
X91867978Y4534853D01*
X91852210Y4569380D01*
X91809087Y4720940D01*
X91809086Y4720945D01*
X91711552Y4916821D01*
X91711549Y4916825D01*
X91579687Y5091440D01*
X91417980Y5238855D01*
X91231944Y5354044D01*
X91231940Y5354046D01*
X91231938Y5354047D01*
X91106944Y5402470D01*
X91027899Y5433092D01*
X90812808Y5473300D01*
X90593992Y5473300D01*
X90593991Y5473300D01*
X90378900Y5433092D01*
X90220810Y5371848D01*
X90174862Y5354047D01*
X90174861Y5354047D01*
X90174860Y5354046D01*
X90174855Y5354044D01*
X89988819Y5238855D01*
X89827112Y5091440D01*
X89695250Y4916825D01*
X89597714Y4720945D01*
X89597712Y4720940D01*
X89554590Y4569380D01*
X89516709Y4509334D01*
X89452379Y4479300D01*
X89382022Y4488813D01*
X89327978Y4534853D01*
X89312210Y4569380D01*
X89269087Y4720940D01*
X89269086Y4720945D01*
X89171552Y4916821D01*
X89171549Y4916825D01*
X89039687Y5091440D01*
X88877980Y5238855D01*
X88691944Y5354044D01*
X88691940Y5354046D01*
X88691938Y5354047D01*
X88566944Y5402470D01*
X88487899Y5433092D01*
X88272808Y5473300D01*
X88053992Y5473300D01*
X88053991Y5473300D01*
X87838900Y5433092D01*
X87680810Y5371848D01*
X87634862Y5354047D01*
X87634861Y5354047D01*
X87634860Y5354046D01*
X87634855Y5354044D01*
X87448819Y5238855D01*
X87287112Y5091440D01*
X87155250Y4916825D01*
X87057714Y4720945D01*
X87057712Y4720940D01*
X87014590Y4569380D01*
X86976709Y4509334D01*
X86912379Y4479300D01*
X86842022Y4488813D01*
X86787978Y4534853D01*
X86772210Y4569380D01*
X86729087Y4720940D01*
X86729086Y4720945D01*
X86631552Y4916821D01*
X86631549Y4916825D01*
X86499687Y5091440D01*
X86337980Y5238855D01*
X86151944Y5354044D01*
X86151940Y5354046D01*
X86151938Y5354047D01*
X86026944Y5402470D01*
X85947899Y5433092D01*
X85732808Y5473300D01*
X85513992Y5473300D01*
X85513991Y5473300D01*
X85298900Y5433092D01*
X85140810Y5371848D01*
X85094862Y5354047D01*
X85094861Y5354047D01*
X85094860Y5354046D01*
X85094855Y5354044D01*
X84908819Y5238855D01*
X84747112Y5091440D01*
X84615250Y4916825D01*
X84517714Y4720945D01*
X84517712Y4720940D01*
X84474590Y4569380D01*
X84436709Y4509334D01*
X84372379Y4479300D01*
X84302022Y4488813D01*
X84247978Y4534853D01*
X84232210Y4569380D01*
X84189087Y4720940D01*
X84189086Y4720945D01*
X84091552Y4916821D01*
X84091549Y4916825D01*
X83959687Y5091440D01*
X83797980Y5238855D01*
X83611944Y5354044D01*
X83611940Y5354046D01*
X83611938Y5354047D01*
X83486944Y5402470D01*
X83407899Y5433092D01*
X83192808Y5473300D01*
X82973992Y5473300D01*
X82973991Y5473300D01*
X82758900Y5433092D01*
X82600810Y5371848D01*
X82554862Y5354047D01*
X82554861Y5354047D01*
X82554860Y5354046D01*
X82554855Y5354044D01*
X82368819Y5238855D01*
X82207112Y5091440D01*
X82075250Y4916825D01*
X81977714Y4720945D01*
X81977712Y4720940D01*
X81934590Y4569380D01*
X81896709Y4509334D01*
X81832379Y4479300D01*
X81762022Y4488813D01*
X81707978Y4534853D01*
X81692210Y4569380D01*
X81649087Y4720940D01*
X81649086Y4720945D01*
X81551552Y4916821D01*
X81551549Y4916825D01*
X81419687Y5091440D01*
X81257980Y5238855D01*
X81071944Y5354044D01*
X81071940Y5354046D01*
X81071938Y5354047D01*
X80946944Y5402470D01*
X80867899Y5433092D01*
X80652808Y5473300D01*
X80433992Y5473300D01*
X80433991Y5473300D01*
X80218900Y5433092D01*
X80060810Y5371848D01*
X80014862Y5354047D01*
X80014861Y5354047D01*
X80014860Y5354046D01*
X80014855Y5354044D01*
X79828819Y5238855D01*
X79667112Y5091440D01*
X79535250Y4916825D01*
X79437714Y4720945D01*
X79437712Y4720940D01*
X79394590Y4569380D01*
X79356709Y4509334D01*
X79292379Y4479300D01*
X79222022Y4488813D01*
X79167978Y4534853D01*
X79152210Y4569380D01*
X79109087Y4720940D01*
X79109086Y4720945D01*
X79011552Y4916821D01*
X79011549Y4916825D01*
X78879687Y5091440D01*
X78717980Y5238855D01*
X78531944Y5354044D01*
X78531940Y5354046D01*
X78531938Y5354047D01*
X78406944Y5402470D01*
X78327899Y5433092D01*
X78112808Y5473300D01*
X77893992Y5473300D01*
X77893991Y5473300D01*
X77678900Y5433092D01*
X77520810Y5371848D01*
X77474862Y5354047D01*
X77474861Y5354047D01*
X77474860Y5354046D01*
X77474855Y5354044D01*
X77288819Y5238855D01*
X77127112Y5091440D01*
X76995250Y4916825D01*
X76897714Y4720945D01*
X76897712Y4720940D01*
X76854590Y4569380D01*
X76816709Y4509334D01*
X76752379Y4479300D01*
X76682022Y4488813D01*
X76627978Y4534853D01*
X76612210Y4569380D01*
X76569087Y4720940D01*
X76569086Y4720945D01*
X76471552Y4916821D01*
X76471549Y4916825D01*
X76339687Y5091440D01*
X76177980Y5238855D01*
X75991944Y5354044D01*
X75991940Y5354046D01*
X75991938Y5354047D01*
X75866944Y5402470D01*
X75787899Y5433092D01*
X75572808Y5473300D01*
X75353992Y5473300D01*
X75353991Y5473300D01*
X75138900Y5433092D01*
X74980810Y5371848D01*
X74934862Y5354047D01*
X74934861Y5354047D01*
X74934860Y5354046D01*
X74934855Y5354044D01*
X74748819Y5238855D01*
X74587112Y5091440D01*
X74455250Y4916825D01*
X74357714Y4720945D01*
X74357712Y4720940D01*
X74314590Y4569380D01*
X74276709Y4509334D01*
X74212379Y4479300D01*
X74142022Y4488813D01*
X74087978Y4534853D01*
X74072210Y4569380D01*
X74029087Y4720940D01*
X74029086Y4720945D01*
X73931552Y4916821D01*
X73931549Y4916825D01*
X73799687Y5091440D01*
X73637980Y5238855D01*
X73451944Y5354044D01*
X73451940Y5354046D01*
X73451938Y5354047D01*
X73326944Y5402470D01*
X73247899Y5433092D01*
X73032808Y5473300D01*
X72813992Y5473300D01*
X72813991Y5473300D01*
X72598900Y5433092D01*
X72440810Y5371848D01*
X72394862Y5354047D01*
X72394861Y5354047D01*
X72394860Y5354046D01*
X72394855Y5354044D01*
X72208819Y5238855D01*
X72047112Y5091440D01*
X71915250Y4916825D01*
X71817714Y4720945D01*
X71817712Y4720940D01*
X71774590Y4569380D01*
X71736709Y4509334D01*
X71672379Y4479300D01*
X71602022Y4488813D01*
X71547978Y4534853D01*
X71532210Y4569380D01*
X71489087Y4720940D01*
X71489086Y4720945D01*
X71391552Y4916821D01*
X71391549Y4916825D01*
X71259687Y5091440D01*
X71097980Y5238855D01*
X70911944Y5354044D01*
X70911940Y5354046D01*
X70911938Y5354047D01*
X70786944Y5402470D01*
X70707899Y5433092D01*
X70492808Y5473300D01*
X70273992Y5473300D01*
X70273991Y5473300D01*
X70058900Y5433092D01*
X69900810Y5371848D01*
X69854862Y5354047D01*
X69854861Y5354047D01*
X69854860Y5354046D01*
X69854855Y5354044D01*
X69668819Y5238855D01*
X69507112Y5091440D01*
X69375250Y4916825D01*
X69277714Y4720945D01*
X69277712Y4720940D01*
X69234590Y4569380D01*
X69196709Y4509334D01*
X69132379Y4479300D01*
X69062022Y4488813D01*
X69007978Y4534853D01*
X68992210Y4569380D01*
X68949087Y4720940D01*
X68949086Y4720945D01*
X68851552Y4916821D01*
X68851549Y4916825D01*
X68719687Y5091440D01*
X68557980Y5238855D01*
X68371944Y5354044D01*
X68371940Y5354046D01*
X68371938Y5354047D01*
X68246944Y5402470D01*
X68167899Y5433092D01*
X67952808Y5473300D01*
X67733992Y5473300D01*
X67733991Y5473300D01*
X67518900Y5433092D01*
X67360810Y5371848D01*
X67314862Y5354047D01*
X67314861Y5354047D01*
X67314860Y5354046D01*
X67314855Y5354044D01*
X67128819Y5238855D01*
X66967112Y5091440D01*
X66835250Y4916825D01*
X66737714Y4720945D01*
X66737712Y4720940D01*
X66694590Y4569380D01*
X66656709Y4509334D01*
X66592379Y4479300D01*
X66522022Y4488813D01*
X66467978Y4534853D01*
X66452210Y4569380D01*
X66409087Y4720940D01*
X66409086Y4720945D01*
X66311552Y4916821D01*
X66311549Y4916825D01*
X66179687Y5091440D01*
X66017980Y5238855D01*
X65831944Y5354044D01*
X65831940Y5354046D01*
X65831938Y5354047D01*
X65706944Y5402470D01*
X65627899Y5433092D01*
X65412808Y5473300D01*
X65193992Y5473300D01*
X65193991Y5473300D01*
X64978900Y5433092D01*
X64820810Y5371848D01*
X64774862Y5354047D01*
X64774861Y5354047D01*
X64774860Y5354046D01*
X64774855Y5354044D01*
X64588819Y5238855D01*
X64427112Y5091440D01*
X64295250Y4916825D01*
X64197714Y4720945D01*
X64197712Y4720940D01*
X64154590Y4569380D01*
X64116709Y4509334D01*
X64052379Y4479300D01*
X63982022Y4488813D01*
X63927978Y4534853D01*
X63912210Y4569380D01*
X63869087Y4720940D01*
X63869086Y4720945D01*
X63771552Y4916821D01*
X63771549Y4916825D01*
X63639687Y5091440D01*
X63477980Y5238855D01*
X63291944Y5354044D01*
X63291940Y5354046D01*
X63291938Y5354047D01*
X63166944Y5402470D01*
X63087899Y5433092D01*
X62872808Y5473300D01*
X62653992Y5473300D01*
X62653991Y5473300D01*
X62438900Y5433092D01*
X62280810Y5371848D01*
X62234862Y5354047D01*
X62234861Y5354047D01*
X62234860Y5354046D01*
X62234855Y5354044D01*
X62048819Y5238855D01*
X61887112Y5091440D01*
X61755250Y4916825D01*
X61657714Y4720945D01*
X61657712Y4720940D01*
X61614590Y4569380D01*
X61576709Y4509334D01*
X61512379Y4479300D01*
X61442022Y4488813D01*
X61387978Y4534853D01*
X61372210Y4569380D01*
X61329087Y4720940D01*
X61329086Y4720945D01*
X61231552Y4916821D01*
X61231549Y4916825D01*
X61099687Y5091440D01*
X60937980Y5238855D01*
X60751944Y5354044D01*
X60751940Y5354046D01*
X60751938Y5354047D01*
X60626944Y5402470D01*
X60547899Y5433092D01*
X60332808Y5473300D01*
X60113992Y5473300D01*
X60113991Y5473300D01*
X59898900Y5433092D01*
X59740810Y5371848D01*
X59694862Y5354047D01*
X59694861Y5354047D01*
X59694860Y5354046D01*
X59694855Y5354044D01*
X59508819Y5238855D01*
X59347112Y5091440D01*
X59215250Y4916825D01*
X59117714Y4720945D01*
X59117712Y4720940D01*
X59074590Y4569380D01*
X59036709Y4509334D01*
X58972379Y4479300D01*
X58902022Y4488813D01*
X58847978Y4534853D01*
X58832210Y4569380D01*
X58789087Y4720940D01*
X58789086Y4720945D01*
X58691552Y4916821D01*
X58691549Y4916825D01*
X58559687Y5091440D01*
X58397980Y5238855D01*
X58211944Y5354044D01*
X58211940Y5354046D01*
X58211938Y5354047D01*
X58086944Y5402470D01*
X58007899Y5433092D01*
X57792808Y5473300D01*
X57573992Y5473300D01*
X57573991Y5473300D01*
X57358900Y5433092D01*
X57200810Y5371848D01*
X57154862Y5354047D01*
X57154861Y5354047D01*
X57154860Y5354046D01*
X57154855Y5354044D01*
X56968819Y5238855D01*
X56807112Y5091440D01*
X56675250Y4916825D01*
X56577714Y4720945D01*
X56577712Y4720940D01*
X56534590Y4569380D01*
X56496709Y4509334D01*
X56432379Y4479300D01*
X56362022Y4488813D01*
X56307978Y4534853D01*
X56292210Y4569380D01*
X56249087Y4720940D01*
X56249086Y4720945D01*
X56151552Y4916821D01*
X56151549Y4916825D01*
X56019687Y5091440D01*
X55857980Y5238855D01*
X55671944Y5354044D01*
X55671940Y5354046D01*
X55671938Y5354047D01*
X55546944Y5402470D01*
X55467899Y5433092D01*
X55252808Y5473300D01*
X55033992Y5473300D01*
X55033991Y5473300D01*
X54818900Y5433092D01*
X54660810Y5371848D01*
X54614862Y5354047D01*
X54614861Y5354047D01*
X54614860Y5354046D01*
X54614855Y5354044D01*
X54428819Y5238855D01*
X54267112Y5091440D01*
X54135250Y4916825D01*
X54037714Y4720945D01*
X54037712Y4720940D01*
X53994590Y4569380D01*
X53956709Y4509334D01*
X53892379Y4479300D01*
X53822022Y4488813D01*
X53767978Y4534853D01*
X53752210Y4569380D01*
X53709087Y4720940D01*
X53709086Y4720945D01*
X53611552Y4916821D01*
X53611549Y4916825D01*
X53479687Y5091440D01*
X53317980Y5238855D01*
X53131944Y5354044D01*
X53131940Y5354046D01*
X53131938Y5354047D01*
X53006944Y5402470D01*
X52927899Y5433092D01*
X52712808Y5473300D01*
X52493992Y5473300D01*
X52493991Y5473300D01*
X52278900Y5433092D01*
X52120810Y5371848D01*
X52074862Y5354047D01*
X52074861Y5354047D01*
X52074860Y5354046D01*
X52074855Y5354044D01*
X51888819Y5238855D01*
X51727112Y5091440D01*
X51595250Y4916825D01*
X51497714Y4720945D01*
X51497712Y4720940D01*
X51454590Y4569380D01*
X51416709Y4509334D01*
X51352379Y4479300D01*
X51282022Y4488813D01*
X51227978Y4534853D01*
X51212210Y4569380D01*
X51169087Y4720940D01*
X51169086Y4720945D01*
X51071552Y4916821D01*
X51071549Y4916825D01*
X50939687Y5091440D01*
X50777980Y5238855D01*
X50591944Y5354044D01*
X50591940Y5354046D01*
X50591938Y5354047D01*
X50466944Y5402470D01*
X50387899Y5433092D01*
X50172808Y5473300D01*
X49953992Y5473300D01*
X49953991Y5473300D01*
X49738900Y5433092D01*
X49580810Y5371848D01*
X49534862Y5354047D01*
X49534861Y5354047D01*
X49534860Y5354046D01*
X49534855Y5354044D01*
X49348819Y5238855D01*
X49187112Y5091440D01*
X49055250Y4916825D01*
X48957714Y4720945D01*
X48957712Y4720940D01*
X48914590Y4569380D01*
X48876709Y4509334D01*
X48812379Y4479300D01*
X48742022Y4488813D01*
X48687978Y4534853D01*
X48672210Y4569380D01*
X48629087Y4720940D01*
X48629086Y4720945D01*
X48531552Y4916821D01*
X48531549Y4916825D01*
X48399687Y5091440D01*
X48237980Y5238855D01*
X48051944Y5354044D01*
X48051940Y5354046D01*
X48051938Y5354047D01*
X47926944Y5402470D01*
X47847899Y5433092D01*
X47632808Y5473300D01*
X47413992Y5473300D01*
X47413991Y5473300D01*
X47198900Y5433092D01*
X47040810Y5371848D01*
X46994862Y5354047D01*
X46994861Y5354047D01*
X46994860Y5354046D01*
X46994855Y5354044D01*
X46808819Y5238855D01*
X46647112Y5091440D01*
X46515250Y4916825D01*
X46417714Y4720945D01*
X46417712Y4720940D01*
X46374590Y4569380D01*
X46336709Y4509334D01*
X46272379Y4479300D01*
X46202022Y4488813D01*
X46147978Y4534853D01*
X46132210Y4569380D01*
X46089087Y4720940D01*
X46089086Y4720945D01*
X45991552Y4916821D01*
X45991549Y4916825D01*
X45859687Y5091440D01*
X45697980Y5238855D01*
X45511944Y5354044D01*
X45511940Y5354046D01*
X45511938Y5354047D01*
X45386944Y5402470D01*
X45307899Y5433092D01*
X45092808Y5473300D01*
X44873992Y5473300D01*
X44873991Y5473300D01*
X44658900Y5433092D01*
X44500810Y5371848D01*
X44454862Y5354047D01*
X44454861Y5354047D01*
X44454860Y5354046D01*
X44454855Y5354044D01*
X44268819Y5238855D01*
X44107112Y5091440D01*
X43975250Y4916825D01*
X43877714Y4720945D01*
X43877712Y4720940D01*
X43834590Y4569380D01*
X43796709Y4509334D01*
X43732379Y4479300D01*
X43662022Y4488813D01*
X43607978Y4534853D01*
X43592210Y4569380D01*
X43549087Y4720940D01*
X43549086Y4720945D01*
X43451552Y4916821D01*
X43451549Y4916825D01*
X43319687Y5091440D01*
X43157980Y5238855D01*
X42971944Y5354044D01*
X42971940Y5354046D01*
X42971938Y5354047D01*
X42846944Y5402470D01*
X42767899Y5433092D01*
X42552808Y5473300D01*
X42333992Y5473300D01*
X42333991Y5473300D01*
X42118900Y5433092D01*
X41960810Y5371848D01*
X41914862Y5354047D01*
X41914861Y5354047D01*
X41914860Y5354046D01*
X41914855Y5354044D01*
X41728819Y5238855D01*
X41567112Y5091440D01*
X41435250Y4916825D01*
X41337714Y4720945D01*
X41337712Y4720940D01*
X41294590Y4569380D01*
X41256709Y4509334D01*
X41192379Y4479300D01*
X41122022Y4488813D01*
X41067978Y4534853D01*
X41052210Y4569380D01*
X41009087Y4720940D01*
X41009086Y4720945D01*
X40911552Y4916821D01*
X40911549Y4916825D01*
X40779687Y5091440D01*
X40617980Y5238855D01*
X40431944Y5354044D01*
X40431940Y5354046D01*
X40431938Y5354047D01*
X40306944Y5402470D01*
X40227899Y5433092D01*
X40012808Y5473300D01*
X39793992Y5473300D01*
X39793991Y5473300D01*
X39578900Y5433092D01*
X39420810Y5371848D01*
X39374862Y5354047D01*
X39374861Y5354047D01*
X39374860Y5354046D01*
X39374855Y5354044D01*
X39188819Y5238855D01*
X39027112Y5091440D01*
X38895250Y4916825D01*
X38797714Y4720945D01*
X38797712Y4720940D01*
X38754590Y4569380D01*
X38716709Y4509334D01*
X38652379Y4479300D01*
X38582022Y4488813D01*
X38527978Y4534853D01*
X38512210Y4569380D01*
X38469087Y4720940D01*
X38469086Y4720945D01*
X38371552Y4916821D01*
X38371549Y4916825D01*
X38239687Y5091440D01*
X38077980Y5238855D01*
X37891944Y5354044D01*
X37891940Y5354046D01*
X37891938Y5354047D01*
X37766944Y5402470D01*
X37687899Y5433092D01*
X37472808Y5473300D01*
X37253992Y5473300D01*
X37253991Y5473300D01*
X37038900Y5433092D01*
X36880810Y5371848D01*
X36834862Y5354047D01*
X36834861Y5354047D01*
X36834860Y5354046D01*
X36834855Y5354044D01*
X36648819Y5238855D01*
X36487112Y5091440D01*
X36355250Y4916825D01*
X36257714Y4720945D01*
X36257712Y4720940D01*
X36214590Y4569380D01*
X36176709Y4509334D01*
X36112379Y4479300D01*
X36042022Y4488813D01*
X35987978Y4534853D01*
X35972210Y4569380D01*
X35929087Y4720940D01*
X35929086Y4720945D01*
X35831552Y4916821D01*
X35831549Y4916825D01*
X35699687Y5091440D01*
X35537980Y5238855D01*
X35351944Y5354044D01*
X35351940Y5354046D01*
X35351938Y5354047D01*
X35226944Y5402470D01*
X35147899Y5433092D01*
X34932808Y5473300D01*
X34713992Y5473300D01*
X34713991Y5473300D01*
X34498900Y5433092D01*
X34340810Y5371848D01*
X34294862Y5354047D01*
X34294861Y5354047D01*
X34294860Y5354046D01*
X34294855Y5354044D01*
X34108819Y5238855D01*
X33947112Y5091440D01*
X33815250Y4916825D01*
X33717714Y4720945D01*
X33717712Y4720940D01*
X33674590Y4569380D01*
X33636709Y4509334D01*
X33572379Y4479300D01*
X33502022Y4488813D01*
X33447978Y4534853D01*
X33432210Y4569380D01*
X33389087Y4720940D01*
X33389086Y4720945D01*
X33291552Y4916821D01*
X33291549Y4916825D01*
X33159687Y5091440D01*
X32997980Y5238855D01*
X32811944Y5354044D01*
X32811940Y5354046D01*
X32811938Y5354047D01*
X32686944Y5402470D01*
X32607899Y5433092D01*
X32392808Y5473300D01*
X32173992Y5473300D01*
X32173991Y5473300D01*
X31958900Y5433092D01*
X31800810Y5371848D01*
X31754862Y5354047D01*
X31754861Y5354047D01*
X31754860Y5354046D01*
X31754855Y5354044D01*
X31568819Y5238855D01*
X31407112Y5091440D01*
X31275250Y4916825D01*
X31177714Y4720945D01*
X31177712Y4720940D01*
X31134590Y4569380D01*
X31096709Y4509334D01*
X31032379Y4479300D01*
X30962022Y4488813D01*
X30907978Y4534853D01*
X30892210Y4569380D01*
X30849087Y4720940D01*
X30849086Y4720945D01*
X30751552Y4916821D01*
X30751549Y4916825D01*
X30619687Y5091440D01*
X30457980Y5238855D01*
X30271944Y5354044D01*
X30271940Y5354046D01*
X30271938Y5354047D01*
X30146944Y5402470D01*
X30067899Y5433092D01*
X29852808Y5473300D01*
X29633992Y5473300D01*
X29633991Y5473300D01*
X29418900Y5433092D01*
X29260810Y5371848D01*
X29214862Y5354047D01*
X29214861Y5354047D01*
X29214860Y5354046D01*
X29214855Y5354044D01*
X29028819Y5238855D01*
X28867112Y5091440D01*
X28735250Y4916825D01*
X28637714Y4720945D01*
X28637712Y4720940D01*
X28594590Y4569380D01*
X28556709Y4509334D01*
X28492379Y4479300D01*
X28422022Y4488813D01*
X28367978Y4534853D01*
X28352210Y4569380D01*
X28309087Y4720940D01*
X28309086Y4720945D01*
X28211552Y4916821D01*
X28211549Y4916825D01*
X28079687Y5091440D01*
X27917980Y5238855D01*
X27731944Y5354044D01*
X27731940Y5354046D01*
X27731938Y5354047D01*
X27606944Y5402470D01*
X27527899Y5433092D01*
X27312808Y5473300D01*
X27093992Y5473300D01*
X27093991Y5473300D01*
X26878900Y5433092D01*
X26720810Y5371848D01*
X26674862Y5354047D01*
X26674861Y5354047D01*
X26674860Y5354046D01*
X26674855Y5354044D01*
X26488819Y5238855D01*
X26327112Y5091440D01*
X26195250Y4916825D01*
X26097714Y4720945D01*
X26097712Y4720940D01*
X26054590Y4569380D01*
X26016709Y4509334D01*
X25952379Y4479300D01*
X25882022Y4488813D01*
X25827978Y4534853D01*
X25812210Y4569380D01*
X25769087Y4720940D01*
X25769086Y4720945D01*
X25671552Y4916821D01*
X25671549Y4916825D01*
X25539687Y5091440D01*
X25377980Y5238855D01*
X25191944Y5354044D01*
X25191940Y5354046D01*
X25191938Y5354047D01*
X25066944Y5402470D01*
X24987899Y5433092D01*
X24772808Y5473300D01*
X24553992Y5473300D01*
X24553991Y5473300D01*
X24338900Y5433092D01*
X24180810Y5371848D01*
X24134862Y5354047D01*
X24134861Y5354047D01*
X24134860Y5354046D01*
X24134855Y5354044D01*
X23948819Y5238855D01*
X23787112Y5091440D01*
X23655250Y4916825D01*
X23557714Y4720945D01*
X23557712Y4720940D01*
X23514590Y4569380D01*
X23476709Y4509334D01*
X23412379Y4479300D01*
X23342022Y4488813D01*
X23287978Y4534853D01*
X23272210Y4569380D01*
X23229087Y4720940D01*
X23229086Y4720945D01*
X23131552Y4916821D01*
X23131549Y4916825D01*
X22999687Y5091440D01*
X22837980Y5238855D01*
X22651944Y5354044D01*
X22651940Y5354046D01*
X22651938Y5354047D01*
X22526944Y5402470D01*
X22447899Y5433092D01*
X22232808Y5473300D01*
X22013992Y5473300D01*
X22013991Y5473300D01*
X21798900Y5433092D01*
X21640810Y5371848D01*
X21594862Y5354047D01*
X21594861Y5354047D01*
X21594860Y5354046D01*
X21594855Y5354044D01*
X21408819Y5238855D01*
X21247112Y5091440D01*
X21115250Y4916825D01*
X21017714Y4720945D01*
X21017712Y4720940D01*
X20974590Y4569380D01*
X20936709Y4509334D01*
X20872379Y4479300D01*
X20802022Y4488813D01*
X20747978Y4534853D01*
X20732210Y4569380D01*
X20689087Y4720940D01*
X20689086Y4720945D01*
X20591552Y4916821D01*
X20591549Y4916825D01*
X20459687Y5091440D01*
X20297980Y5238855D01*
X20111944Y5354044D01*
X20111940Y5354046D01*
X20111938Y5354047D01*
X19986944Y5402470D01*
X19907899Y5433092D01*
X19692808Y5473300D01*
X19473992Y5473300D01*
X19473991Y5473300D01*
X19258900Y5433092D01*
X19100810Y5371848D01*
X19054862Y5354047D01*
X19054861Y5354047D01*
X19054860Y5354046D01*
X19054855Y5354044D01*
X18868819Y5238855D01*
X18707112Y5091440D01*
X18575250Y4916825D01*
X18477714Y4720945D01*
X18477712Y4720940D01*
X18434590Y4569380D01*
X18396709Y4509334D01*
X18332379Y4479300D01*
X18262022Y4488813D01*
X18207978Y4534853D01*
X18192210Y4569380D01*
X18149087Y4720940D01*
X18149086Y4720945D01*
X18051552Y4916821D01*
X18051549Y4916825D01*
X17919687Y5091440D01*
X17757980Y5238855D01*
X17571944Y5354044D01*
X17571940Y5354046D01*
X17571938Y5354047D01*
X17446944Y5402470D01*
X17367899Y5433092D01*
X17152808Y5473300D01*
X16933992Y5473300D01*
X16933991Y5473300D01*
X16718900Y5433092D01*
X16560810Y5371848D01*
X16514862Y5354047D01*
X16514861Y5354047D01*
X16514860Y5354046D01*
X16514855Y5354044D01*
X16328819Y5238855D01*
X16167112Y5091440D01*
X16035250Y4916825D01*
X15937714Y4720945D01*
X15937712Y4720940D01*
X15894590Y4569380D01*
X15856709Y4509334D01*
X15792379Y4479300D01*
X15722022Y4488813D01*
X15667978Y4534853D01*
X15652210Y4569380D01*
X15609087Y4720940D01*
X15609086Y4720945D01*
X15511552Y4916821D01*
X15511549Y4916825D01*
X15379687Y5091440D01*
X15217980Y5238855D01*
X15031944Y5354044D01*
X15031940Y5354046D01*
X15031938Y5354047D01*
X14906944Y5402470D01*
X14827899Y5433092D01*
X14612808Y5473300D01*
X14393992Y5473300D01*
X14393991Y5473300D01*
X14178900Y5433092D01*
X14020810Y5371848D01*
X13974862Y5354047D01*
X13974861Y5354047D01*
X13974860Y5354046D01*
X13974855Y5354044D01*
X13788819Y5238855D01*
X13627112Y5091440D01*
X13495250Y4916825D01*
X13397714Y4720945D01*
X13397712Y4720940D01*
X13354590Y4569380D01*
X13316709Y4509334D01*
X13252379Y4479300D01*
X13182022Y4488813D01*
X13127978Y4534853D01*
X13112210Y4569380D01*
X13069087Y4720940D01*
X13069086Y4720945D01*
X12971552Y4916821D01*
X12971549Y4916825D01*
X12839687Y5091440D01*
X12677980Y5238855D01*
X12491944Y5354044D01*
X12491940Y5354046D01*
X12491938Y5354047D01*
X12366944Y5402470D01*
X12287899Y5433092D01*
X12072808Y5473300D01*
X11853992Y5473300D01*
X11853991Y5473300D01*
X11638900Y5433092D01*
X11480810Y5371848D01*
X11434862Y5354047D01*
X11434861Y5354047D01*
X11434860Y5354046D01*
X11434855Y5354044D01*
X11248819Y5238855D01*
X11087112Y5091440D01*
X10955250Y4916825D01*
X10857714Y4720945D01*
X10857712Y4720940D01*
X10814590Y4569380D01*
X10776709Y4509334D01*
X10712379Y4479300D01*
X10642022Y4488813D01*
X10587978Y4534853D01*
X10572210Y4569380D01*
X10529087Y4720940D01*
X10529086Y4720945D01*
X10431552Y4916821D01*
X10431549Y4916825D01*
X10299687Y5091440D01*
X10137980Y5238855D01*
X9951944Y5354044D01*
X9951940Y5354046D01*
X9951938Y5354047D01*
X9826944Y5402470D01*
X9747899Y5433092D01*
X9532808Y5473300D01*
X9313992Y5473300D01*
X9313991Y5473300D01*
X9098900Y5433092D01*
X8940810Y5371848D01*
X8894862Y5354047D01*
X8894861Y5354047D01*
X8894860Y5354046D01*
X8894855Y5354044D01*
X8708819Y5238855D01*
X8547112Y5091440D01*
X8415250Y4916825D01*
X8317714Y4720945D01*
X8317712Y4720940D01*
X8274590Y4569380D01*
X8236709Y4509334D01*
X8172379Y4479300D01*
X8102022Y4488813D01*
X8047978Y4534853D01*
X8032210Y4569380D01*
X7989087Y4720940D01*
X7989086Y4720945D01*
X7891552Y4916821D01*
X7891549Y4916825D01*
X7759687Y5091440D01*
X7597980Y5238855D01*
X7411944Y5354044D01*
X7411940Y5354046D01*
X7411938Y5354047D01*
X7286944Y5402470D01*
X7207899Y5433092D01*
X6992808Y5473300D01*
X6773992Y5473300D01*
X6773991Y5473300D01*
X6558900Y5433092D01*
X6400810Y5371848D01*
X6354862Y5354047D01*
X6354861Y5354047D01*
X6354860Y5354046D01*
X6354855Y5354044D01*
X6168819Y5238855D01*
X6007112Y5091440D01*
X5875250Y4916825D01*
X5777714Y4720945D01*
X5777712Y4720940D01*
X5734590Y4569380D01*
X5696709Y4509334D01*
X5632379Y4479300D01*
X5562022Y4488813D01*
X5507978Y4534853D01*
X5492210Y4569380D01*
X5449087Y4720940D01*
X5449086Y4720945D01*
X5351552Y4916821D01*
X5351549Y4916825D01*
X5219687Y5091440D01*
X5057980Y5238855D01*
X4871944Y5354044D01*
X4871940Y5354046D01*
X4871938Y5354047D01*
X4746944Y5402470D01*
X4667899Y5433092D01*
X4452808Y5473300D01*
X4233992Y5473300D01*
X4233991Y5473300D01*
X4018900Y5433092D01*
X3860810Y5371848D01*
X3814862Y5354047D01*
X3814861Y5354047D01*
X3814860Y5354046D01*
X3814855Y5354044D01*
X3628819Y5238855D01*
X3467112Y5091440D01*
X3335250Y4916825D01*
X3237714Y4720945D01*
X3237712Y4720940D01*
X3194590Y4569380D01*
X3156709Y4509334D01*
X3092379Y4479300D01*
X3022022Y4488813D01*
X2967978Y4534853D01*
X2952210Y4569380D01*
X2909087Y4720940D01*
X2909086Y4720945D01*
X2811552Y4916821D01*
X2811549Y4916825D01*
X2679687Y5091440D01*
X2517980Y5238855D01*
X2331944Y5354044D01*
X2331940Y5354046D01*
X2331938Y5354047D01*
X2206944Y5402470D01*
X2127899Y5433092D01*
X1912808Y5473300D01*
X1693992Y5473300D01*
X1693991Y5473300D01*
X1478900Y5433092D01*
X1320810Y5371848D01*
X1274862Y5354047D01*
X1274861Y5354047D01*
X1274860Y5354046D01*
X1274855Y5354044D01*
X1088819Y5238855D01*
X927112Y5091440D01*
X795250Y4916825D01*
X697714Y4720945D01*
X697712Y4720940D01*
X637831Y4510479D01*
X617642Y4292605D01*
X300500Y4292605D01*
X300500Y7759700D01*
X34616396Y7759700D01*
X34634832Y7596075D01*
X34634833Y7596073D01*
X34689215Y7440656D01*
X34689216Y7440655D01*
X34776821Y7301233D01*
X34776824Y7301230D01*
X34776824Y7301229D01*
X34893248Y7184805D01*
X34893250Y7184804D01*
X34893253Y7184801D01*
X35032675Y7097196D01*
X35188095Y7042812D01*
X35351720Y7024376D01*
X35515345Y7042812D01*
X35670765Y7097196D01*
X35810187Y7184801D01*
X35926619Y7301233D01*
X36014224Y7440655D01*
X36068608Y7596075D01*
X36087044Y7759700D01*
X36068608Y7923325D01*
X36014224Y8078745D01*
X35926619Y8218167D01*
X35926615Y8218171D01*
X35926615Y8218172D01*
X35810191Y8334596D01*
X35810188Y8334598D01*
X35810187Y8334599D01*
X35731139Y8384269D01*
X35670764Y8422205D01*
X35564440Y8459409D01*
X35515345Y8476588D01*
X35351720Y8495024D01*
X35188095Y8476588D01*
X35188092Y8476588D01*
X35188092Y8476587D01*
X35032675Y8422205D01*
X34938887Y8363274D01*
X34893253Y8334599D01*
X34893251Y8334598D01*
X34893249Y8334596D01*
X34893248Y8334596D01*
X34776824Y8218172D01*
X34776824Y8218171D01*
X34689215Y8078745D01*
X34634833Y7923328D01*
X34634832Y7923325D01*
X34616396Y7759700D01*
X300500Y7759700D01*
X300500Y9410700D01*
X36013396Y9410700D01*
X36031832Y9247075D01*
X36031833Y9247073D01*
X36086215Y9091656D01*
X36086216Y9091655D01*
X36173821Y8952233D01*
X36173824Y8952230D01*
X36173824Y8952229D01*
X36290248Y8835805D01*
X36290250Y8835804D01*
X36290253Y8835801D01*
X36429675Y8748196D01*
X36585095Y8693812D01*
X36748720Y8675376D01*
X36912345Y8693812D01*
X37067765Y8748196D01*
X37207187Y8835801D01*
X37323619Y8952233D01*
X37411224Y9091655D01*
X37465608Y9247075D01*
X37469735Y9283701D01*
X63468009Y9283701D01*
X63468009Y9283700D01*
X63487967Y9132107D01*
X63546477Y8990845D01*
X63639559Y8869540D01*
X63760864Y8776458D01*
X63829098Y8748196D01*
X63902127Y8717947D01*
X64053720Y8697989D01*
X64205313Y8717947D01*
X64294392Y8754845D01*
X64346575Y8776458D01*
X64467880Y8869540D01*
X64560962Y8990845D01*
X64582575Y9043028D01*
X64619473Y9132107D01*
X64639431Y9283700D01*
X64619473Y9435293D01*
X64597858Y9487476D01*
X64560962Y9576555D01*
X64467880Y9697861D01*
X64346575Y9790943D01*
X64205313Y9849453D01*
X64053720Y9869411D01*
X63902126Y9849453D01*
X63760865Y9790943D01*
X63639559Y9697861D01*
X63546477Y9576555D01*
X63487967Y9435294D01*
X63468009Y9283701D01*
X37469735Y9283701D01*
X37484044Y9410700D01*
X37465608Y9574325D01*
X37411224Y9729745D01*
X37323619Y9869167D01*
X37323615Y9869171D01*
X37323615Y9869172D01*
X37207191Y9985596D01*
X37207188Y9985598D01*
X37207187Y9985599D01*
X37112572Y10045050D01*
X47063046Y10045050D01*
X47081482Y9881425D01*
X47081483Y9881423D01*
X47135865Y9726006D01*
X47135866Y9726005D01*
X47223471Y9586583D01*
X47223474Y9586580D01*
X47223474Y9586579D01*
X47339898Y9470155D01*
X47339900Y9470154D01*
X47339903Y9470151D01*
X47479325Y9382546D01*
X47634745Y9328162D01*
X47798370Y9309726D01*
X47961995Y9328162D01*
X48117415Y9382546D01*
X48256837Y9470151D01*
X48373269Y9586583D01*
X48460874Y9726005D01*
X48515258Y9881425D01*
X48533694Y10045050D01*
X48515258Y10208675D01*
X48460874Y10364095D01*
X48373269Y10503517D01*
X48373265Y10503521D01*
X48373265Y10503522D01*
X48256841Y10619946D01*
X48256838Y10619948D01*
X48256837Y10619949D01*
X48177789Y10669619D01*
X48117414Y10707555D01*
X48011090Y10744759D01*
X47961995Y10761938D01*
X47798370Y10780374D01*
X47634745Y10761938D01*
X47634742Y10761938D01*
X47634742Y10761937D01*
X47479325Y10707555D01*
X47385537Y10648624D01*
X47339903Y10619949D01*
X47339901Y10619948D01*
X47339899Y10619946D01*
X47339898Y10619946D01*
X47223474Y10503522D01*
X47223474Y10503521D01*
X47223472Y10503519D01*
X47223471Y10503517D01*
X47214133Y10488655D01*
X47135865Y10364095D01*
X47089925Y10232805D01*
X47081482Y10208675D01*
X47063046Y10045050D01*
X37112572Y10045050D01*
X37069083Y10072376D01*
X37067764Y10073205D01*
X36961440Y10110409D01*
X36912345Y10127588D01*
X36748720Y10146024D01*
X36585095Y10127588D01*
X36585092Y10127588D01*
X36585092Y10127587D01*
X36429675Y10073205D01*
X36384868Y10045050D01*
X36290253Y9985599D01*
X36290251Y9985598D01*
X36290249Y9985596D01*
X36290248Y9985596D01*
X36173824Y9869172D01*
X36173824Y9869171D01*
X36086215Y9729745D01*
X36036121Y9586583D01*
X36031832Y9574325D01*
X36013396Y9410700D01*
X300500Y9410700D01*
X300500Y12457977D01*
X1387620Y12457977D01*
X1387620Y12205423D01*
X1401696Y12116555D01*
X1427130Y11955975D01*
X1470108Y11823700D01*
X1505172Y11715786D01*
X1619829Y11490759D01*
X1768276Y11286439D01*
X1768278Y11286437D01*
X1768280Y11286434D01*
X1946853Y11107861D01*
X1946856Y11107859D01*
X1946859Y11107856D01*
X2151179Y10959409D01*
X2376206Y10844752D01*
X2616399Y10766709D01*
X2865843Y10727200D01*
X2865846Y10727200D01*
X3118394Y10727200D01*
X3118397Y10727200D01*
X3367841Y10766709D01*
X3493999Y10807700D01*
X42744396Y10807700D01*
X42762832Y10644075D01*
X42762833Y10644073D01*
X42817215Y10488656D01*
X42817216Y10488655D01*
X42904821Y10349233D01*
X42904824Y10349230D01*
X42904824Y10349229D01*
X43021248Y10232805D01*
X43021250Y10232804D01*
X43021253Y10232801D01*
X43160675Y10145196D01*
X43316095Y10090812D01*
X43479720Y10072376D01*
X43643345Y10090812D01*
X43798765Y10145196D01*
X43938187Y10232801D01*
X44054619Y10349233D01*
X44135033Y10477210D01*
X44188212Y10524248D01*
X44258379Y10535068D01*
X44323257Y10506235D01*
X44348407Y10477210D01*
X44428821Y10349233D01*
X44428824Y10349229D01*
X44545248Y10232805D01*
X44545250Y10232804D01*
X44545253Y10232801D01*
X44684675Y10145196D01*
X44840095Y10090812D01*
X45003720Y10072376D01*
X45167345Y10090812D01*
X45322765Y10145196D01*
X45462187Y10232801D01*
X45578619Y10349233D01*
X45666224Y10488655D01*
X45720608Y10644075D01*
X45739044Y10807700D01*
X45720608Y10971325D01*
X45666224Y11126745D01*
X45578619Y11266167D01*
X45578615Y11266171D01*
X45578615Y11266172D01*
X45462191Y11382596D01*
X45462188Y11382598D01*
X45462187Y11382599D01*
X45383139Y11432269D01*
X45322764Y11470205D01*
X45216440Y11507409D01*
X45167345Y11524588D01*
X45003720Y11543024D01*
X44840095Y11524588D01*
X44840092Y11524588D01*
X44840092Y11524587D01*
X44684675Y11470205D01*
X44590887Y11411274D01*
X44545253Y11382599D01*
X44545251Y11382598D01*
X44545249Y11382596D01*
X44545248Y11382596D01*
X44428823Y11266171D01*
X44348407Y11138190D01*
X44295228Y11091153D01*
X44225060Y11080333D01*
X44160182Y11109166D01*
X44135033Y11138190D01*
X44054616Y11266171D01*
X43938191Y11382596D01*
X43938188Y11382598D01*
X43938187Y11382599D01*
X43859139Y11432269D01*
X43798764Y11470205D01*
X43692440Y11507409D01*
X43643345Y11524588D01*
X43479720Y11543024D01*
X43316095Y11524588D01*
X43316092Y11524588D01*
X43316092Y11524587D01*
X43160675Y11470205D01*
X43066887Y11411274D01*
X43021253Y11382599D01*
X43021251Y11382598D01*
X43021249Y11382596D01*
X43021248Y11382596D01*
X42904824Y11266172D01*
X42904824Y11266171D01*
X42817215Y11126745D01*
X42762833Y10971328D01*
X42762832Y10971325D01*
X42744396Y10807700D01*
X3493999Y10807700D01*
X3608034Y10844752D01*
X3833061Y10959409D01*
X4037381Y11107856D01*
X4215964Y11286439D01*
X4364411Y11490759D01*
X4479068Y11715786D01*
X4514132Y11823701D01*
X9874009Y11823701D01*
X9874009Y11823700D01*
X9893967Y11672107D01*
X9952477Y11530845D01*
X10045559Y11409540D01*
X10166864Y11316458D01*
X10239352Y11286434D01*
X10308127Y11257947D01*
X10459720Y11237989D01*
X10611313Y11257947D01*
X10700392Y11294845D01*
X10752575Y11316458D01*
X10873880Y11409540D01*
X10966962Y11530845D01*
X10988575Y11583028D01*
X11025473Y11672107D01*
X11045431Y11823700D01*
X11025473Y11975293D01*
X11003858Y12027476D01*
X10966962Y12116555D01*
X10873880Y12237861D01*
X10752575Y12330943D01*
X10611313Y12389453D01*
X10459720Y12409411D01*
X10308126Y12389453D01*
X10166865Y12330943D01*
X10045559Y12237861D01*
X9952477Y12116555D01*
X9893967Y11975294D01*
X9874009Y11823701D01*
X4514132Y11823701D01*
X4557111Y11955979D01*
X4596620Y12205423D01*
X4596620Y12457977D01*
X98314020Y12457977D01*
X98314020Y12205423D01*
X98328096Y12116555D01*
X98353530Y11955975D01*
X98396508Y11823700D01*
X98431572Y11715786D01*
X98546229Y11490759D01*
X98694676Y11286439D01*
X98694678Y11286437D01*
X98694680Y11286434D01*
X98873253Y11107861D01*
X98873256Y11107859D01*
X98873259Y11107856D01*
X99077579Y10959409D01*
X99302606Y10844752D01*
X99542799Y10766709D01*
X99792243Y10727200D01*
X99792246Y10727200D01*
X100044794Y10727200D01*
X100044797Y10727200D01*
X100294241Y10766709D01*
X100534434Y10844752D01*
X100759461Y10959409D01*
X100963781Y11107856D01*
X101142364Y11286439D01*
X101290811Y11490759D01*
X101405468Y11715786D01*
X101483511Y11955979D01*
X101523020Y12205423D01*
X101523020Y12457977D01*
X101483511Y12707421D01*
X101405468Y12947614D01*
X101290811Y13172641D01*
X101142364Y13376961D01*
X101142361Y13376964D01*
X101142359Y13376967D01*
X100963786Y13555540D01*
X100963783Y13555542D01*
X100963781Y13555544D01*
X100759461Y13703991D01*
X100534434Y13818648D01*
X100534431Y13818649D01*
X100534429Y13818650D01*
X100294245Y13896690D01*
X100294243Y13896691D01*
X100294241Y13896691D01*
X100044797Y13936200D01*
X99792243Y13936200D01*
X99542799Y13896691D01*
X99542797Y13896691D01*
X99542794Y13896690D01*
X99302610Y13818650D01*
X99302604Y13818647D01*
X99077575Y13703989D01*
X98873256Y13555542D01*
X98873253Y13555540D01*
X98694680Y13376967D01*
X98694678Y13376964D01*
X98546231Y13172645D01*
X98431573Y12947616D01*
X98431570Y12947610D01*
X98353530Y12707426D01*
X98353529Y12707423D01*
X98353529Y12707421D01*
X98314020Y12457977D01*
X4596620Y12457977D01*
X4557111Y12707421D01*
X4479068Y12947614D01*
X4364411Y13172641D01*
X4215964Y13376961D01*
X4215961Y13376964D01*
X4215959Y13376967D01*
X4037386Y13555540D01*
X4037383Y13555542D01*
X4037381Y13555544D01*
X3833061Y13703991D01*
X3608034Y13818648D01*
X3608031Y13818649D01*
X3608029Y13818650D01*
X3367845Y13896690D01*
X3367843Y13896691D01*
X3367841Y13896691D01*
X3118397Y13936200D01*
X2865843Y13936200D01*
X2616399Y13896691D01*
X2616397Y13896691D01*
X2616394Y13896690D01*
X2376210Y13818650D01*
X2376204Y13818647D01*
X2151175Y13703989D01*
X1946856Y13555542D01*
X1946853Y13555540D01*
X1768280Y13376967D01*
X1768278Y13376964D01*
X1619831Y13172645D01*
X1505173Y12947616D01*
X1505170Y12947610D01*
X1427130Y12707426D01*
X1427129Y12707423D01*
X1427129Y12707421D01*
X1387620Y12457977D01*
X300500Y12457977D01*
X300500Y14046201D01*
X60483509Y14046201D01*
X60483509Y14046200D01*
X60503467Y13894607D01*
X60561977Y13753345D01*
X60655059Y13632040D01*
X60776364Y13538958D01*
X60865443Y13502062D01*
X60917627Y13480447D01*
X61069220Y13460489D01*
X61220813Y13480447D01*
X61309892Y13517345D01*
X61362075Y13538958D01*
X61483380Y13632040D01*
X61576462Y13753345D01*
X61603511Y13818650D01*
X61634973Y13894607D01*
X61654931Y14046200D01*
X61634973Y14197793D01*
X61613358Y14249976D01*
X61576462Y14339055D01*
X61483380Y14460361D01*
X61362075Y14553443D01*
X61220813Y14611953D01*
X61069220Y14631911D01*
X60917626Y14611953D01*
X60776365Y14553443D01*
X60655059Y14460361D01*
X60561977Y14339055D01*
X60503467Y14197794D01*
X60483509Y14046201D01*
X300500Y14046201D01*
X300500Y14871701D01*
X8223009Y14871701D01*
X8223009Y14871700D01*
X8242967Y14720107D01*
X8301477Y14578845D01*
X8394559Y14457540D01*
X8515864Y14364458D01*
X8604943Y14327562D01*
X8657127Y14305947D01*
X8808720Y14285989D01*
X8960313Y14305947D01*
X9049392Y14342845D01*
X9101575Y14364458D01*
X9222880Y14457540D01*
X9315962Y14578845D01*
X9370924Y14711540D01*
X9374473Y14720107D01*
X9394431Y14871700D01*
X9374473Y15023293D01*
X9352858Y15075476D01*
X9332055Y15125701D01*
X65754009Y15125701D01*
X65754009Y15125700D01*
X65773967Y14974107D01*
X65832477Y14832845D01*
X65925559Y14711540D01*
X66046864Y14618458D01*
X66135943Y14581562D01*
X66188127Y14559947D01*
X66339720Y14539989D01*
X66491313Y14559947D01*
X66580392Y14596845D01*
X66632575Y14618458D01*
X66753880Y14711540D01*
X66846962Y14832845D01*
X66868575Y14885028D01*
X66905473Y14974107D01*
X66925431Y15125700D01*
X66905473Y15277293D01*
X66883858Y15329476D01*
X66846962Y15418555D01*
X66753880Y15539861D01*
X66632575Y15632943D01*
X66491313Y15691453D01*
X66339720Y15711411D01*
X66188126Y15691453D01*
X66046865Y15632943D01*
X65925559Y15539861D01*
X65832477Y15418555D01*
X65773967Y15277294D01*
X65754009Y15125701D01*
X9332055Y15125701D01*
X9315962Y15164555D01*
X9222880Y15285861D01*
X9101575Y15378943D01*
X8960313Y15437453D01*
X8808720Y15457411D01*
X8657126Y15437453D01*
X8515865Y15378943D01*
X8394559Y15285861D01*
X8301477Y15164555D01*
X8242967Y15023294D01*
X8223009Y14871701D01*
X300500Y14871701D01*
X300500Y16141701D01*
X52673009Y16141701D01*
X52673009Y16141700D01*
X52692967Y15990107D01*
X52751477Y15848845D01*
X52844559Y15727540D01*
X52965864Y15634458D01*
X53054943Y15597562D01*
X53107127Y15575947D01*
X53258720Y15555989D01*
X53410313Y15575947D01*
X53499392Y15612845D01*
X53551575Y15634458D01*
X53672880Y15727540D01*
X53765962Y15848845D01*
X53787575Y15901028D01*
X53824473Y15990107D01*
X53844431Y16141700D01*
X53844431Y16141701D01*
X61309009Y16141701D01*
X61309009Y16141700D01*
X61328967Y15990107D01*
X61387477Y15848845D01*
X61480559Y15727540D01*
X61601864Y15634458D01*
X61690943Y15597562D01*
X61743127Y15575947D01*
X61894720Y15555989D01*
X62046313Y15575947D01*
X62135392Y15612845D01*
X62187575Y15634458D01*
X62308880Y15727540D01*
X62401962Y15848845D01*
X62423575Y15901028D01*
X62460473Y15990107D01*
X62480431Y16141700D01*
X62460473Y16293293D01*
X62431790Y16362540D01*
X62401962Y16434555D01*
X62308880Y16555861D01*
X62187575Y16648943D01*
X62046313Y16707453D01*
X61894720Y16727411D01*
X61743126Y16707453D01*
X61601865Y16648943D01*
X61480559Y16555861D01*
X61387477Y16434555D01*
X61328967Y16293294D01*
X61309009Y16141701D01*
X53844431Y16141701D01*
X53824473Y16293293D01*
X53795790Y16362540D01*
X53765962Y16434555D01*
X53672880Y16555861D01*
X53551575Y16648943D01*
X53410313Y16707453D01*
X53258720Y16727411D01*
X53107126Y16707453D01*
X52965865Y16648943D01*
X52844559Y16555861D01*
X52751477Y16434555D01*
X52692967Y16293294D01*
X52673009Y16141701D01*
X300500Y16141701D01*
X300500Y16776701D01*
X53943009Y16776701D01*
X53943009Y16776700D01*
X53962967Y16625107D01*
X54021477Y16483845D01*
X54114559Y16362540D01*
X54235864Y16269458D01*
X54324943Y16232562D01*
X54377127Y16210947D01*
X54528720Y16190989D01*
X54680313Y16210947D01*
X54769392Y16247845D01*
X54821575Y16269458D01*
X54942880Y16362540D01*
X55035962Y16483845D01*
X55065791Y16555861D01*
X55094473Y16625107D01*
X55114431Y16776700D01*
X55094473Y16928293D01*
X55072858Y16980476D01*
X55035962Y17069555D01*
X54942880Y17190861D01*
X54821575Y17283943D01*
X54680313Y17342453D01*
X54528720Y17362411D01*
X54377126Y17342453D01*
X54235865Y17283943D01*
X54114559Y17190861D01*
X54021477Y17069555D01*
X53962967Y16928294D01*
X53943009Y16776701D01*
X300500Y16776701D01*
X300500Y17792701D01*
X51022009Y17792701D01*
X51022009Y17792700D01*
X51041967Y17641107D01*
X51100477Y17499845D01*
X51193559Y17378540D01*
X51314864Y17285458D01*
X51403943Y17248562D01*
X51456127Y17226947D01*
X51607720Y17206989D01*
X51759313Y17226947D01*
X51848392Y17263845D01*
X51900575Y17285458D01*
X52021880Y17378540D01*
X52114962Y17499845D01*
X52151471Y17587989D01*
X52173473Y17641107D01*
X52193431Y17792700D01*
X52173473Y17944293D01*
X52141242Y18022107D01*
X52114962Y18085555D01*
X52021880Y18206861D01*
X51900575Y18299943D01*
X51759313Y18358453D01*
X51607720Y18378411D01*
X51456126Y18358453D01*
X51314865Y18299943D01*
X51193559Y18206861D01*
X51100477Y18085555D01*
X51041967Y17944294D01*
X51022009Y17792701D01*
X300500Y17792701D01*
X300500Y18681701D01*
X59658009Y18681701D01*
X59658009Y18681700D01*
X59677967Y18530107D01*
X59736477Y18388845D01*
X59829559Y18267540D01*
X59950864Y18174458D01*
X60039943Y18137562D01*
X60092127Y18115947D01*
X60243720Y18095989D01*
X60395313Y18115947D01*
X60484392Y18152845D01*
X60534747Y18173701D01*
X98520009Y18173701D01*
X98520009Y18173700D01*
X98539967Y18022107D01*
X98598477Y17880845D01*
X98691559Y17759540D01*
X98812864Y17666458D01*
X98901943Y17629562D01*
X98954127Y17607947D01*
X99105720Y17587989D01*
X99257313Y17607947D01*
X99346392Y17644845D01*
X99398575Y17666458D01*
X99519880Y17759540D01*
X99612962Y17880845D01*
X99639242Y17944294D01*
X99671473Y18022107D01*
X99691431Y18173700D01*
X99671473Y18325293D01*
X99645149Y18388845D01*
X99612962Y18466555D01*
X99519880Y18587861D01*
X99398575Y18680943D01*
X99257313Y18739453D01*
X99105720Y18759411D01*
X98954126Y18739453D01*
X98812865Y18680943D01*
X98691559Y18587861D01*
X98598477Y18466555D01*
X98539967Y18325294D01*
X98520009Y18173701D01*
X60534747Y18173701D01*
X60536575Y18174458D01*
X60657880Y18267540D01*
X60750962Y18388845D01*
X60783149Y18466555D01*
X60809473Y18530107D01*
X60829431Y18681700D01*
X60809473Y18833293D01*
X60783149Y18896845D01*
X60750962Y18974555D01*
X60657880Y19095861D01*
X60536575Y19188943D01*
X60534745Y19189701D01*
X61690009Y19189701D01*
X61690009Y19189700D01*
X61709967Y19038107D01*
X61768477Y18896845D01*
X61861559Y18775540D01*
X61982864Y18682458D01*
X62071943Y18645562D01*
X62124127Y18623947D01*
X62275720Y18603989D01*
X62427313Y18623947D01*
X62516392Y18660845D01*
X62568575Y18682458D01*
X62689880Y18775540D01*
X62782962Y18896845D01*
X62815149Y18974555D01*
X62841473Y19038107D01*
X62861431Y19189700D01*
X62861431Y19189701D01*
X101187009Y19189701D01*
X101187009Y19189700D01*
X101206967Y19038107D01*
X101265477Y18896845D01*
X101358559Y18775540D01*
X101479864Y18682458D01*
X101568943Y18645562D01*
X101621127Y18623947D01*
X101772720Y18603989D01*
X101924313Y18623947D01*
X102013392Y18660845D01*
X102065575Y18682458D01*
X102186880Y18775540D01*
X102279962Y18896845D01*
X102312149Y18974555D01*
X102338473Y19038107D01*
X102358431Y19189700D01*
X102338473Y19341293D01*
X102316858Y19393476D01*
X102279962Y19482555D01*
X102186880Y19603861D01*
X102065575Y19696943D01*
X101924313Y19755453D01*
X101772720Y19775411D01*
X101621126Y19755453D01*
X101479865Y19696943D01*
X101358559Y19603861D01*
X101265477Y19482555D01*
X101206967Y19341294D01*
X101187009Y19189701D01*
X62861431Y19189701D01*
X62841473Y19341293D01*
X62819858Y19393476D01*
X62782962Y19482555D01*
X62689880Y19603861D01*
X62568575Y19696943D01*
X62427313Y19755453D01*
X62275720Y19775411D01*
X62124126Y19755453D01*
X61982865Y19696943D01*
X61861559Y19603861D01*
X61768477Y19482555D01*
X61709967Y19341294D01*
X61690009Y19189701D01*
X60534745Y19189701D01*
X60395313Y19247453D01*
X60243720Y19267411D01*
X60092126Y19247453D01*
X59950865Y19188943D01*
X59829559Y19095861D01*
X59736477Y18974555D01*
X59677967Y18833294D01*
X59658009Y18681701D01*
X300500Y18681701D01*
X300500Y19951701D01*
X71596009Y19951701D01*
X71596009Y19951700D01*
X71615967Y19800107D01*
X71674477Y19658845D01*
X71767559Y19537540D01*
X71888864Y19444458D01*
X71977943Y19407562D01*
X72030127Y19385947D01*
X72181720Y19365989D01*
X72333313Y19385947D01*
X72422392Y19422845D01*
X72474575Y19444458D01*
X72595880Y19537540D01*
X72688962Y19658845D01*
X72728977Y19755453D01*
X72747473Y19800107D01*
X72767431Y19951700D01*
X72747473Y20103293D01*
X72718790Y20172540D01*
X72688962Y20244555D01*
X72595880Y20365861D01*
X72474575Y20458943D01*
X72333313Y20517453D01*
X72181720Y20537411D01*
X72030126Y20517453D01*
X71888865Y20458943D01*
X71767559Y20365861D01*
X71674477Y20244555D01*
X71615967Y20103294D01*
X71596009Y19951701D01*
X300500Y19951701D01*
X300500Y20840701D01*
X42132009Y20840701D01*
X42132009Y20840700D01*
X42151967Y20689107D01*
X42210477Y20547845D01*
X42303559Y20426540D01*
X42424864Y20333458D01*
X42513943Y20296562D01*
X42566127Y20274947D01*
X42717720Y20254989D01*
X42869313Y20274947D01*
X42958392Y20311845D01*
X43010575Y20333458D01*
X43131880Y20426540D01*
X43224962Y20547845D01*
X43241055Y20586701D01*
X66135009Y20586701D01*
X66135009Y20586700D01*
X66154967Y20435107D01*
X66213477Y20293845D01*
X66306559Y20172540D01*
X66427864Y20079458D01*
X66516943Y20042562D01*
X66569127Y20020947D01*
X66720720Y20000989D01*
X66872313Y20020947D01*
X66961392Y20057845D01*
X67013575Y20079458D01*
X67134880Y20172540D01*
X67227962Y20293845D01*
X67282924Y20426540D01*
X67286473Y20435107D01*
X67306431Y20586700D01*
X67286473Y20738293D01*
X67264858Y20790476D01*
X67227962Y20879555D01*
X67134880Y21000861D01*
X67013575Y21093943D01*
X66872313Y21152453D01*
X66720720Y21172411D01*
X66569126Y21152453D01*
X66427865Y21093943D01*
X66306559Y21000861D01*
X66213477Y20879555D01*
X66154967Y20738294D01*
X66135009Y20586701D01*
X43241055Y20586701D01*
X43246575Y20600028D01*
X43283473Y20689107D01*
X43303431Y20840700D01*
X43283473Y20992293D01*
X43261858Y21044476D01*
X43224962Y21133555D01*
X43131880Y21254861D01*
X43010575Y21347943D01*
X42869313Y21406453D01*
X42717720Y21426411D01*
X42566126Y21406453D01*
X42424865Y21347943D01*
X42303559Y21254861D01*
X42210477Y21133555D01*
X42151967Y20992294D01*
X42132009Y20840701D01*
X300500Y20840701D01*
X300500Y21729700D01*
X37918396Y21729700D01*
X37936832Y21566075D01*
X37937613Y21563844D01*
X37991215Y21410656D01*
X38013117Y21375800D01*
X38078821Y21271233D01*
X38078824Y21271230D01*
X38078824Y21271229D01*
X38195248Y21154805D01*
X38195250Y21154804D01*
X38195253Y21154801D01*
X38334675Y21067196D01*
X38490095Y21012812D01*
X38653720Y20994376D01*
X38817345Y21012812D01*
X38972765Y21067196D01*
X39112187Y21154801D01*
X39228619Y21271233D01*
X39316224Y21410655D01*
X39370608Y21566075D01*
X39389044Y21729700D01*
X39374735Y21856701D01*
X55848009Y21856701D01*
X55848009Y21856700D01*
X55867967Y21705107D01*
X55926477Y21563845D01*
X56019559Y21442540D01*
X56140864Y21349458D01*
X56229943Y21312562D01*
X56282127Y21290947D01*
X56433720Y21270989D01*
X56585313Y21290947D01*
X56674392Y21327845D01*
X56726575Y21349458D01*
X56847880Y21442540D01*
X56940962Y21563845D01*
X56962575Y21616028D01*
X56999473Y21705107D01*
X57019431Y21856700D01*
X56999473Y22008293D01*
X56970790Y22077540D01*
X56940962Y22149555D01*
X56847880Y22270861D01*
X56726575Y22363943D01*
X56585313Y22422453D01*
X56433720Y22442411D01*
X56282126Y22422453D01*
X56140865Y22363943D01*
X56019559Y22270861D01*
X55926477Y22149555D01*
X55867967Y22008294D01*
X55848009Y21856701D01*
X39374735Y21856701D01*
X39370608Y21893325D01*
X39316224Y22048745D01*
X39228619Y22188167D01*
X39228615Y22188171D01*
X39228615Y22188172D01*
X39112191Y22304596D01*
X39112188Y22304598D01*
X39112187Y22304599D01*
X39017742Y22363943D01*
X38972764Y22392205D01*
X38853468Y22433948D01*
X38817345Y22446588D01*
X38653720Y22465024D01*
X38490095Y22446588D01*
X38490092Y22446588D01*
X38490092Y22446587D01*
X38334675Y22392205D01*
X38251763Y22340107D01*
X38195253Y22304599D01*
X38195251Y22304598D01*
X38195249Y22304596D01*
X38195248Y22304596D01*
X38078824Y22188172D01*
X38078824Y22188171D01*
X37991215Y22048745D01*
X37941263Y21905989D01*
X37936832Y21893325D01*
X37918396Y21729700D01*
X300500Y21729700D01*
X300500Y22491701D01*
X15843009Y22491701D01*
X15843009Y22491700D01*
X15862967Y22340107D01*
X15921477Y22198845D01*
X16014559Y22077540D01*
X16135864Y21984458D01*
X16224943Y21947562D01*
X16277127Y21925947D01*
X16428720Y21905989D01*
X16580313Y21925947D01*
X16685435Y21969489D01*
X16721575Y21984458D01*
X16842880Y22077540D01*
X16935962Y22198845D01*
X16962263Y22262344D01*
X16994473Y22340107D01*
X17014431Y22491700D01*
X17006071Y22555201D01*
X41052509Y22555201D01*
X41052509Y22555200D01*
X41072467Y22403607D01*
X41130977Y22262345D01*
X41224059Y22141040D01*
X41345364Y22047958D01*
X41434443Y22011062D01*
X41486627Y21989447D01*
X41638220Y21969489D01*
X41789813Y21989447D01*
X41895514Y22033229D01*
X41931075Y22047958D01*
X42052380Y22141040D01*
X42145462Y22262345D01*
X42187543Y22363941D01*
X42203973Y22403607D01*
X42215571Y22491700D01*
X63699396Y22491700D01*
X63717832Y22328075D01*
X63717833Y22328073D01*
X63772215Y22172656D01*
X63772216Y22172655D01*
X63859821Y22033233D01*
X63859824Y22033230D01*
X63859824Y22033229D01*
X63976248Y21916805D01*
X63976250Y21916804D01*
X63976253Y21916801D01*
X64115675Y21829196D01*
X64271095Y21774812D01*
X64434720Y21756376D01*
X64598345Y21774812D01*
X64753765Y21829196D01*
X64893187Y21916801D01*
X65009619Y22033233D01*
X65097224Y22172655D01*
X65151608Y22328075D01*
X65170044Y22491700D01*
X65170044Y22491701D01*
X75025009Y22491701D01*
X75025009Y22491700D01*
X75044967Y22340107D01*
X75103477Y22198845D01*
X75196559Y22077540D01*
X75317864Y21984458D01*
X75406943Y21947562D01*
X75459127Y21925947D01*
X75610720Y21905989D01*
X75762313Y21925947D01*
X75867435Y21969489D01*
X75901747Y21983701D01*
X98520009Y21983701D01*
X98520009Y21983700D01*
X98539967Y21832107D01*
X98598477Y21690845D01*
X98691559Y21569540D01*
X98812864Y21476458D01*
X98894753Y21442540D01*
X98954127Y21417947D01*
X99105720Y21397989D01*
X99257313Y21417947D01*
X99346392Y21454845D01*
X99398575Y21476458D01*
X99519880Y21569540D01*
X99612962Y21690845D01*
X99647742Y21774814D01*
X99671473Y21832107D01*
X99691431Y21983700D01*
X99671473Y22135293D01*
X99645149Y22198845D01*
X99612962Y22276555D01*
X99519880Y22397861D01*
X99398575Y22490943D01*
X99257313Y22549453D01*
X99105720Y22569411D01*
X98954126Y22549453D01*
X98812865Y22490943D01*
X98691559Y22397861D01*
X98598477Y22276555D01*
X98539967Y22135294D01*
X98520009Y21983701D01*
X75901747Y21983701D01*
X75903575Y21984458D01*
X76024880Y22077540D01*
X76117962Y22198845D01*
X76144263Y22262344D01*
X76176473Y22340107D01*
X76196431Y22491700D01*
X76176473Y22643293D01*
X76150149Y22706845D01*
X76117962Y22784555D01*
X76024880Y22905861D01*
X75903575Y22998943D01*
X75901745Y22999701D01*
X101187009Y22999701D01*
X101187009Y22999700D01*
X101206967Y22848107D01*
X101265477Y22706845D01*
X101358559Y22585540D01*
X101479864Y22492458D01*
X101546099Y22465024D01*
X101621127Y22433947D01*
X101772720Y22413989D01*
X101924313Y22433947D01*
X102013392Y22470845D01*
X102065575Y22492458D01*
X102186880Y22585540D01*
X102279962Y22706845D01*
X102322997Y22810745D01*
X102338473Y22848107D01*
X102358431Y22999700D01*
X102338473Y23151293D01*
X102307105Y23227024D01*
X102279962Y23292555D01*
X102186880Y23413861D01*
X102065575Y23506943D01*
X101924313Y23565453D01*
X101772720Y23585411D01*
X101621126Y23565453D01*
X101479865Y23506943D01*
X101358559Y23413861D01*
X101265477Y23292555D01*
X101206967Y23151294D01*
X101187009Y22999701D01*
X75901745Y22999701D01*
X75762313Y23057453D01*
X75610720Y23077411D01*
X75459126Y23057453D01*
X75317865Y22998943D01*
X75196559Y22905861D01*
X75103477Y22784555D01*
X75044967Y22643294D01*
X75025009Y22491701D01*
X65170044Y22491701D01*
X65151608Y22655325D01*
X65097224Y22810745D01*
X65009619Y22950167D01*
X65009615Y22950171D01*
X65009615Y22950172D01*
X64893191Y23066596D01*
X64893188Y23066598D01*
X64893187Y23066599D01*
X64814139Y23116269D01*
X64753764Y23154205D01*
X64634468Y23195948D01*
X64598345Y23208588D01*
X64434720Y23227024D01*
X64271095Y23208588D01*
X64271092Y23208588D01*
X64271092Y23208587D01*
X64115675Y23154205D01*
X64021887Y23095274D01*
X63976253Y23066599D01*
X63976251Y23066598D01*
X63976249Y23066596D01*
X63976248Y23066596D01*
X63859824Y22950172D01*
X63859824Y22950171D01*
X63772215Y22810745D01*
X63735841Y22706793D01*
X63717832Y22655325D01*
X63699396Y22491700D01*
X42215571Y22491700D01*
X42223931Y22555200D01*
X42203973Y22706793D01*
X42182358Y22758976D01*
X42145462Y22848055D01*
X42052380Y22969361D01*
X41931075Y23062443D01*
X41789813Y23120953D01*
X41638220Y23140911D01*
X41486626Y23120953D01*
X41345365Y23062443D01*
X41224059Y22969361D01*
X41130977Y22848055D01*
X41072467Y22706794D01*
X41052509Y22555201D01*
X17006071Y22555201D01*
X16994473Y22643293D01*
X16968149Y22706845D01*
X16935962Y22784555D01*
X16842880Y22905861D01*
X16721575Y22998943D01*
X16580313Y23057453D01*
X16428720Y23077411D01*
X16277126Y23057453D01*
X16135865Y22998943D01*
X16014559Y22905861D01*
X15921477Y22784555D01*
X15862967Y22643294D01*
X15843009Y22491701D01*
X300500Y22491701D01*
X300500Y23761701D01*
X66897009Y23761701D01*
X66897009Y23761700D01*
X66916967Y23610107D01*
X66975477Y23468845D01*
X67068559Y23347540D01*
X67189864Y23254458D01*
X67256099Y23227024D01*
X67331127Y23195947D01*
X67482720Y23175989D01*
X67634313Y23195947D01*
X67723392Y23232845D01*
X67775575Y23254458D01*
X67896880Y23347540D01*
X67989962Y23468845D01*
X68029977Y23565453D01*
X68048473Y23610107D01*
X68068431Y23761700D01*
X68048473Y23913293D01*
X68026858Y23965476D01*
X67989962Y24054555D01*
X67896880Y24175861D01*
X67775575Y24268943D01*
X67634313Y24327453D01*
X67482720Y24347411D01*
X67331126Y24327453D01*
X67189865Y24268943D01*
X67068559Y24175861D01*
X66975477Y24054555D01*
X66916967Y23913294D01*
X66897009Y23761701D01*
X300500Y23761701D01*
X300500Y25031701D01*
X603009Y25031701D01*
X603009Y25031700D01*
X622967Y24880107D01*
X681477Y24738845D01*
X774559Y24617540D01*
X895864Y24524458D01*
X984943Y24487562D01*
X1037127Y24465947D01*
X1188720Y24445989D01*
X1340313Y24465947D01*
X1429392Y24502845D01*
X1481575Y24524458D01*
X1602880Y24617540D01*
X1695962Y24738845D01*
X1717575Y24791028D01*
X1754473Y24880107D01*
X1774431Y25031700D01*
X1774431Y25031701D01*
X18383009Y25031701D01*
X18383009Y25031700D01*
X18402967Y24880107D01*
X18461477Y24738845D01*
X18554559Y24617540D01*
X18675864Y24524458D01*
X18764943Y24487562D01*
X18817127Y24465947D01*
X18968720Y24445989D01*
X19120313Y24465947D01*
X19209392Y24502845D01*
X19261575Y24524458D01*
X19382880Y24617540D01*
X19475962Y24738845D01*
X19497575Y24791028D01*
X19534473Y24880107D01*
X19554431Y25031700D01*
X19534473Y25183293D01*
X19512858Y25235476D01*
X19475962Y25324555D01*
X19382880Y25445861D01*
X19261575Y25538943D01*
X19120313Y25597453D01*
X18968720Y25617411D01*
X18817126Y25597453D01*
X18675865Y25538943D01*
X18554559Y25445861D01*
X18461477Y25324555D01*
X18402967Y25183294D01*
X18383009Y25031701D01*
X1774431Y25031701D01*
X1754473Y25183293D01*
X1732858Y25235476D01*
X1695962Y25324555D01*
X1602880Y25445861D01*
X1481575Y25538943D01*
X1340313Y25597453D01*
X1188720Y25617411D01*
X1037126Y25597453D01*
X895865Y25538943D01*
X774559Y25445861D01*
X681477Y25324555D01*
X622967Y25183294D01*
X603009Y25031701D01*
X300500Y25031701D01*
X300500Y26301701D01*
X63468009Y26301701D01*
X63468009Y26301700D01*
X63487967Y26150107D01*
X63546477Y26008845D01*
X63639559Y25887540D01*
X63732640Y25816117D01*
X63760864Y25794459D01*
X63857975Y25754235D01*
X63913255Y25709689D01*
X63935677Y25642326D01*
X63918120Y25573535D01*
X63886462Y25537865D01*
X63766558Y25445859D01*
X63673477Y25324555D01*
X63614967Y25183294D01*
X63595009Y25031701D01*
X63595009Y25031700D01*
X63614967Y24880107D01*
X63673477Y24738845D01*
X63766559Y24617540D01*
X63887864Y24524458D01*
X63976943Y24487562D01*
X64029127Y24465947D01*
X64180720Y24445989D01*
X64332313Y24465947D01*
X64421392Y24502845D01*
X64473575Y24524458D01*
X64594880Y24617540D01*
X64687962Y24738845D01*
X64709575Y24791028D01*
X64746473Y24880107D01*
X64766431Y25031700D01*
X64746473Y25183293D01*
X64724858Y25235476D01*
X64687962Y25324555D01*
X64594880Y25445861D01*
X64473574Y25538943D01*
X64376466Y25579165D01*
X64321185Y25623712D01*
X64298763Y25691076D01*
X64316321Y25759867D01*
X64347977Y25795535D01*
X64467880Y25887540D01*
X64560961Y26008844D01*
X64560960Y26008844D01*
X64560962Y26008845D01*
X64593149Y26086555D01*
X64619473Y26150107D01*
X64639431Y26301700D01*
X64639431Y26301701D01*
X66897009Y26301701D01*
X66897009Y26301700D01*
X66916967Y26150107D01*
X66975477Y26008845D01*
X67068559Y25887540D01*
X67189864Y25794458D01*
X67273378Y25759867D01*
X67331127Y25735947D01*
X67482720Y25715989D01*
X67634313Y25735947D01*
X67723392Y25772845D01*
X67773747Y25793701D01*
X98520009Y25793701D01*
X98520009Y25793700D01*
X98539967Y25642107D01*
X98598477Y25500845D01*
X98691559Y25379540D01*
X98812864Y25286458D01*
X98901943Y25249562D01*
X98954127Y25227947D01*
X99105720Y25207989D01*
X99257313Y25227947D01*
X99346392Y25264845D01*
X99398575Y25286458D01*
X99519880Y25379540D01*
X99612962Y25500845D01*
X99652977Y25597453D01*
X99671473Y25642107D01*
X99691431Y25793700D01*
X99671473Y25945293D01*
X99645149Y26008845D01*
X99612962Y26086555D01*
X99519880Y26207861D01*
X99398575Y26300943D01*
X99257313Y26359453D01*
X99105720Y26379411D01*
X98954126Y26359453D01*
X98812865Y26300943D01*
X98691559Y26207861D01*
X98598477Y26086555D01*
X98539967Y25945294D01*
X98520009Y25793701D01*
X67773747Y25793701D01*
X67775575Y25794458D01*
X67896880Y25887540D01*
X67989962Y26008845D01*
X68022149Y26086555D01*
X68048473Y26150107D01*
X68068431Y26301700D01*
X68048473Y26453293D01*
X68022149Y26516845D01*
X67989962Y26594555D01*
X67896880Y26715861D01*
X67775575Y26808943D01*
X67773745Y26809701D01*
X101187009Y26809701D01*
X101187009Y26809700D01*
X101206967Y26658107D01*
X101265477Y26516845D01*
X101358559Y26395540D01*
X101479864Y26302458D01*
X101568943Y26265562D01*
X101621127Y26243947D01*
X101772720Y26223989D01*
X101924313Y26243947D01*
X102013392Y26280845D01*
X102065575Y26302458D01*
X102186880Y26395540D01*
X102279962Y26516845D01*
X102312149Y26594555D01*
X102338473Y26658107D01*
X102358431Y26809700D01*
X102338473Y26961293D01*
X102312401Y27024237D01*
X102279962Y27102555D01*
X102186880Y27223861D01*
X102065575Y27316943D01*
X101924313Y27375453D01*
X101772720Y27395411D01*
X101621126Y27375453D01*
X101479865Y27316943D01*
X101358559Y27223861D01*
X101265477Y27102555D01*
X101206967Y26961294D01*
X101187009Y26809701D01*
X67773745Y26809701D01*
X67634313Y26867453D01*
X67482720Y26887411D01*
X67331126Y26867453D01*
X67189865Y26808943D01*
X67068559Y26715861D01*
X66975477Y26594555D01*
X66916967Y26453294D01*
X66897009Y26301701D01*
X64639431Y26301701D01*
X64619473Y26453293D01*
X64593149Y26516845D01*
X64560962Y26594555D01*
X64467881Y26715859D01*
X64467878Y26715861D01*
X64347977Y26807866D01*
X64306111Y26865203D01*
X64301890Y26936074D01*
X64336655Y26997977D01*
X64376462Y27024234D01*
X64473576Y27064459D01*
X64594880Y27157540D01*
X64687961Y27278844D01*
X64687960Y27278844D01*
X64687962Y27278845D01*
X64727977Y27375453D01*
X64746473Y27420107D01*
X64766431Y27571700D01*
X64746473Y27723293D01*
X64724858Y27775476D01*
X64687962Y27864555D01*
X64594880Y27985861D01*
X64473575Y28078943D01*
X64332313Y28137453D01*
X64180720Y28157411D01*
X64029126Y28137453D01*
X63887865Y28078943D01*
X63766559Y27985861D01*
X63673477Y27864555D01*
X63614967Y27723294D01*
X63595009Y27571701D01*
X63595009Y27571700D01*
X63614967Y27420107D01*
X63673477Y27278845D01*
X63766559Y27157540D01*
X63886460Y27065536D01*
X63928327Y27008198D01*
X63932549Y26937327D01*
X63897785Y26875424D01*
X63857974Y26849165D01*
X63760864Y26808942D01*
X63639559Y26715861D01*
X63546477Y26594555D01*
X63487967Y26453294D01*
X63468009Y26301701D01*
X300500Y26301701D01*
X300500Y27571701D01*
X603009Y27571701D01*
X603009Y27571700D01*
X622967Y27420107D01*
X681477Y27278845D01*
X774559Y27157540D01*
X895864Y27064458D01*
X984943Y27027562D01*
X1037127Y27005947D01*
X1188720Y26985989D01*
X1340313Y27005947D01*
X1429392Y27042845D01*
X1481575Y27064458D01*
X1602880Y27157540D01*
X1695962Y27278845D01*
X1735977Y27375453D01*
X1754473Y27420107D01*
X1774431Y27571700D01*
X1774431Y27571701D01*
X20923009Y27571701D01*
X20923009Y27571700D01*
X20942967Y27420107D01*
X21001477Y27278845D01*
X21094559Y27157540D01*
X21215864Y27064458D01*
X21304943Y27027562D01*
X21357127Y27005947D01*
X21508720Y26985989D01*
X21660313Y27005947D01*
X21749392Y27042845D01*
X21801575Y27064458D01*
X21922880Y27157540D01*
X22015962Y27278845D01*
X22055977Y27375453D01*
X22074473Y27420107D01*
X22094431Y27571700D01*
X22074473Y27723293D01*
X22052858Y27775476D01*
X22015962Y27864555D01*
X21922880Y27985861D01*
X21801575Y28078943D01*
X21660313Y28137453D01*
X21508720Y28157411D01*
X21357126Y28137453D01*
X21215865Y28078943D01*
X21094559Y27985861D01*
X21001477Y27864555D01*
X20942967Y27723294D01*
X20923009Y27571701D01*
X1774431Y27571701D01*
X1754473Y27723293D01*
X1732858Y27775476D01*
X1695962Y27864555D01*
X1602880Y27985861D01*
X1481575Y28078943D01*
X1340313Y28137453D01*
X1188720Y28157411D01*
X1037126Y28137453D01*
X895865Y28078943D01*
X774559Y27985861D01*
X681477Y27864555D01*
X622967Y27723294D01*
X603009Y27571701D01*
X300500Y27571701D01*
X300500Y28968701D01*
X28035009Y28968701D01*
X28035009Y28968700D01*
X28054967Y28817107D01*
X28113477Y28675845D01*
X28206559Y28554540D01*
X28327864Y28461458D01*
X28409753Y28427540D01*
X28469127Y28402947D01*
X28620720Y28382989D01*
X28772313Y28402947D01*
X28861392Y28439845D01*
X28913575Y28461458D01*
X29034880Y28554540D01*
X29127962Y28675845D01*
X29149575Y28728028D01*
X29186473Y28817107D01*
X29189711Y28841701D01*
X43148009Y28841701D01*
X43148009Y28841700D01*
X43167967Y28690107D01*
X43226477Y28548845D01*
X43319559Y28427540D01*
X43440864Y28334458D01*
X43528282Y28298250D01*
X43582127Y28275947D01*
X43582126Y28275947D01*
X43587467Y28275244D01*
X43595907Y28274133D01*
X43660835Y28245413D01*
X43699928Y28186148D01*
X43700775Y28115157D01*
X43663106Y28054977D01*
X43656169Y28049249D01*
X43573558Y27985859D01*
X43480477Y27864555D01*
X43421967Y27723294D01*
X43402009Y27571701D01*
X43402009Y27571700D01*
X43421967Y27420107D01*
X43480477Y27278845D01*
X43573559Y27157540D01*
X43694864Y27064458D01*
X43783943Y27027562D01*
X43836127Y27005947D01*
X43987720Y26985989D01*
X44139313Y27005947D01*
X44228392Y27042845D01*
X44280575Y27064458D01*
X44401880Y27157540D01*
X44494962Y27278845D01*
X44534977Y27375453D01*
X44553473Y27420107D01*
X44573431Y27571700D01*
X44553473Y27723293D01*
X44531858Y27775476D01*
X44494962Y27864555D01*
X44401880Y27985861D01*
X44280575Y28078943D01*
X44139314Y28137453D01*
X44125527Y28139268D01*
X44060601Y28167992D01*
X44021510Y28227258D01*
X44020667Y28298250D01*
X44058338Y28358428D01*
X44065272Y28364152D01*
X44147880Y28427540D01*
X44240962Y28548845D01*
X44262575Y28601028D01*
X44299473Y28690107D01*
X44319431Y28841700D01*
X44299473Y28993293D01*
X44277858Y29045476D01*
X44240962Y29134555D01*
X44147881Y29255859D01*
X44147878Y29255861D01*
X44117815Y29278930D01*
X44080150Y29307832D01*
X44038283Y29365171D01*
X44034062Y29436042D01*
X44068827Y29497944D01*
X44131540Y29531225D01*
X44140385Y29532712D01*
X44240913Y29545947D01*
X44329992Y29582845D01*
X44382175Y29604458D01*
X44503480Y29697540D01*
X44596562Y29818845D01*
X44628749Y29896555D01*
X44655073Y29960107D01*
X44675031Y30111700D01*
X44675031Y30111701D01*
X63595009Y30111701D01*
X63595009Y30111700D01*
X63614967Y29960107D01*
X63673477Y29818845D01*
X63766559Y29697540D01*
X63887864Y29604458D01*
X63976943Y29567562D01*
X64029127Y29545947D01*
X64180720Y29525989D01*
X64332313Y29545947D01*
X64421392Y29582845D01*
X64473575Y29604458D01*
X64594880Y29697540D01*
X64687962Y29818845D01*
X64720149Y29896555D01*
X64746473Y29960107D01*
X64766431Y30111700D01*
X64746473Y30263293D01*
X64720149Y30326845D01*
X64687962Y30404555D01*
X64594880Y30525861D01*
X64473575Y30618943D01*
X64332313Y30677453D01*
X64180720Y30697411D01*
X64029126Y30677453D01*
X63887865Y30618943D01*
X63766559Y30525861D01*
X63673477Y30404555D01*
X63614967Y30263294D01*
X63595009Y30111701D01*
X44675031Y30111701D01*
X44655073Y30263293D01*
X44628749Y30326845D01*
X44596562Y30404555D01*
X44503480Y30525861D01*
X44382175Y30618943D01*
X44240913Y30677453D01*
X44089320Y30697411D01*
X43937726Y30677453D01*
X43796465Y30618943D01*
X43675159Y30525861D01*
X43582077Y30404555D01*
X43523567Y30263294D01*
X43503609Y30111701D01*
X43503609Y30111700D01*
X43523567Y29960107D01*
X43582077Y29818845D01*
X43675158Y29697542D01*
X43675160Y29697540D01*
X43735288Y29651402D01*
X43742889Y29645569D01*
X43784756Y29588231D01*
X43788977Y29517360D01*
X43754212Y29455457D01*
X43691499Y29422176D01*
X43682631Y29420685D01*
X43582126Y29407453D01*
X43440865Y29348943D01*
X43319559Y29255861D01*
X43226477Y29134555D01*
X43167967Y28993294D01*
X43148009Y28841701D01*
X29189711Y28841701D01*
X29206431Y28968700D01*
X29186473Y29120293D01*
X29157790Y29189540D01*
X29127962Y29261555D01*
X29034880Y29382861D01*
X28913575Y29475943D01*
X28772313Y29534453D01*
X28620720Y29554411D01*
X28469126Y29534453D01*
X28327865Y29475943D01*
X28206559Y29382861D01*
X28113477Y29261555D01*
X28054967Y29120294D01*
X28035009Y28968701D01*
X300500Y28968701D01*
X300500Y30111701D01*
X603009Y30111701D01*
X603009Y30111700D01*
X622967Y29960107D01*
X681477Y29818845D01*
X774559Y29697540D01*
X895864Y29604458D01*
X984943Y29567562D01*
X1037127Y29545947D01*
X1188720Y29525989D01*
X1340313Y29545947D01*
X1429392Y29582845D01*
X1481575Y29604458D01*
X1602880Y29697540D01*
X1695962Y29818845D01*
X1728149Y29896555D01*
X1754473Y29960107D01*
X1774431Y30111700D01*
X1774431Y30111701D01*
X23463009Y30111701D01*
X23463009Y30111700D01*
X23482967Y29960107D01*
X23541477Y29818845D01*
X23634559Y29697540D01*
X23755864Y29604458D01*
X23844943Y29567562D01*
X23897127Y29545947D01*
X24048720Y29525989D01*
X24200313Y29545947D01*
X24289392Y29582845D01*
X24341575Y29604458D01*
X24462880Y29697540D01*
X24555962Y29818845D01*
X24588149Y29896555D01*
X24614473Y29960107D01*
X24634431Y30111700D01*
X24614473Y30263293D01*
X24588149Y30326845D01*
X24555962Y30404555D01*
X24462880Y30525861D01*
X24341575Y30618943D01*
X24200313Y30677453D01*
X24048720Y30697411D01*
X23897126Y30677453D01*
X23755865Y30618943D01*
X23634559Y30525861D01*
X23541477Y30404555D01*
X23482967Y30263294D01*
X23463009Y30111701D01*
X1774431Y30111701D01*
X1754473Y30263293D01*
X1728149Y30326845D01*
X1695962Y30404555D01*
X1602880Y30525861D01*
X1481575Y30618943D01*
X1340313Y30677453D01*
X1188720Y30697411D01*
X1037126Y30677453D01*
X895865Y30618943D01*
X774559Y30525861D01*
X681477Y30404555D01*
X622967Y30263294D01*
X603009Y30111701D01*
X300500Y30111701D01*
X300500Y33255853D01*
X3169620Y33255853D01*
X3169620Y33012748D01*
X3201349Y32771737D01*
X3201350Y32771731D01*
X3201351Y32771729D01*
X3264270Y32536912D01*
X3357301Y32312316D01*
X3357302Y32312315D01*
X3357307Y32312304D01*
X3478848Y32101788D01*
X3478852Y32101782D01*
X3626834Y31908929D01*
X3626853Y31908908D01*
X3798727Y31737034D01*
X3798748Y31737015D01*
X3991601Y31589033D01*
X3991607Y31589029D01*
X4202123Y31467488D01*
X4202127Y31467487D01*
X4202136Y31467481D01*
X4426732Y31374450D01*
X4661549Y31311531D01*
X4661555Y31311531D01*
X4661556Y31311530D01*
X4689213Y31307889D01*
X4902570Y31279800D01*
X4902577Y31279800D01*
X5145663Y31279800D01*
X5145670Y31279800D01*
X5386691Y31311531D01*
X5621508Y31374450D01*
X5639013Y31381701D01*
X66897009Y31381701D01*
X66897009Y31381700D01*
X66916967Y31230107D01*
X66975477Y31088845D01*
X67068559Y30967540D01*
X67189864Y30874458D01*
X67278943Y30837562D01*
X67331127Y30815947D01*
X67453311Y30799861D01*
X67518239Y30771138D01*
X67557330Y30711873D01*
X67558175Y30640882D01*
X67520505Y30580703D01*
X67513570Y30574977D01*
X67449558Y30525859D01*
X67356477Y30404555D01*
X67297967Y30263294D01*
X67278009Y30111701D01*
X67278009Y30111700D01*
X67297967Y29960107D01*
X67356477Y29818845D01*
X67449559Y29697540D01*
X67513568Y29648424D01*
X67555435Y29591086D01*
X67559657Y29520215D01*
X67524893Y29458312D01*
X67462180Y29425031D01*
X67453312Y29423540D01*
X67331126Y29407453D01*
X67189865Y29348943D01*
X67068559Y29255861D01*
X66975477Y29134555D01*
X66916967Y28993294D01*
X66897009Y28841701D01*
X66897009Y28841700D01*
X66916967Y28690107D01*
X66975477Y28548845D01*
X67068559Y28427540D01*
X67189864Y28334458D01*
X67277282Y28298250D01*
X67331127Y28275947D01*
X67482720Y28255989D01*
X67634313Y28275947D01*
X67723392Y28312845D01*
X67775575Y28334458D01*
X67896880Y28427540D01*
X67989962Y28548845D01*
X68011575Y28601028D01*
X68048473Y28690107D01*
X68068431Y28841700D01*
X68048473Y28993293D01*
X68026858Y29045476D01*
X67989962Y29134555D01*
X67896881Y29255859D01*
X67896878Y29255861D01*
X67832869Y29304978D01*
X67791003Y29362315D01*
X67786782Y29433186D01*
X67821547Y29495089D01*
X67884259Y29528370D01*
X67893124Y29529861D01*
X68015313Y29545947D01*
X68104392Y29582845D01*
X68154747Y29603701D01*
X98520009Y29603701D01*
X98520009Y29603700D01*
X98539967Y29452107D01*
X98598477Y29310845D01*
X98691559Y29189540D01*
X98812864Y29096458D01*
X98901943Y29059562D01*
X98954127Y29037947D01*
X99105720Y29017989D01*
X99257313Y29037947D01*
X99346392Y29074845D01*
X99398575Y29096458D01*
X99519880Y29189540D01*
X99612962Y29310845D01*
X99652977Y29407453D01*
X99671473Y29452107D01*
X99691431Y29603700D01*
X99671473Y29755293D01*
X99645149Y29818845D01*
X99612962Y29896555D01*
X99519880Y30017861D01*
X99398575Y30110943D01*
X99257313Y30169453D01*
X99105720Y30189411D01*
X98954126Y30169453D01*
X98812865Y30110943D01*
X98691559Y30017861D01*
X98598477Y29896555D01*
X98539967Y29755294D01*
X98520009Y29603701D01*
X68154747Y29603701D01*
X68156575Y29604458D01*
X68277880Y29697540D01*
X68370962Y29818845D01*
X68403149Y29896555D01*
X68429473Y29960107D01*
X68449431Y30111700D01*
X68429473Y30263293D01*
X68403149Y30326845D01*
X68370962Y30404555D01*
X68277880Y30525861D01*
X68156575Y30618943D01*
X68154745Y30619701D01*
X101187009Y30619701D01*
X101187009Y30619700D01*
X101206967Y30468107D01*
X101265477Y30326845D01*
X101358559Y30205540D01*
X101479864Y30112458D01*
X101568943Y30075562D01*
X101621127Y30053947D01*
X101772720Y30033989D01*
X101924313Y30053947D01*
X102013392Y30090845D01*
X102065575Y30112458D01*
X102186880Y30205540D01*
X102279962Y30326845D01*
X102312149Y30404555D01*
X102338473Y30468107D01*
X102358431Y30619700D01*
X102338473Y30771293D01*
X102304828Y30852520D01*
X102279962Y30912555D01*
X102186880Y31033861D01*
X102065575Y31126943D01*
X101924313Y31185453D01*
X101772720Y31205411D01*
X101621126Y31185453D01*
X101479865Y31126943D01*
X101358559Y31033861D01*
X101265477Y30912555D01*
X101206967Y30771294D01*
X101187009Y30619701D01*
X68154745Y30619701D01*
X68015313Y30677453D01*
X67893128Y30693540D01*
X67828201Y30722263D01*
X67789110Y30781529D01*
X67788265Y30852520D01*
X67825936Y30912699D01*
X67832846Y30918405D01*
X67896880Y30967540D01*
X67989961Y31088844D01*
X67989960Y31088844D01*
X67989962Y31088845D01*
X68029977Y31185453D01*
X68048473Y31230107D01*
X68068431Y31381700D01*
X68048473Y31533293D01*
X68025385Y31589033D01*
X67989962Y31674555D01*
X67896880Y31795861D01*
X67775575Y31888943D01*
X67634313Y31947453D01*
X67482720Y31967411D01*
X67331126Y31947453D01*
X67189865Y31888943D01*
X67068559Y31795861D01*
X66975477Y31674555D01*
X66916967Y31533294D01*
X66897009Y31381701D01*
X5639013Y31381701D01*
X5846104Y31467481D01*
X6056636Y31589031D01*
X6249500Y31737022D01*
X6421398Y31908920D01*
X6569389Y32101784D01*
X6690939Y32312316D01*
X6783970Y32536912D01*
X6814728Y32651701D01*
X26003009Y32651701D01*
X26003009Y32651700D01*
X26022967Y32500107D01*
X26081477Y32358845D01*
X26174559Y32237540D01*
X26295864Y32144458D01*
X26384943Y32107562D01*
X26437127Y32085947D01*
X26588720Y32065989D01*
X26740313Y32085947D01*
X26829392Y32122845D01*
X26881575Y32144458D01*
X27002880Y32237540D01*
X27095962Y32358845D01*
X27117575Y32411028D01*
X27154473Y32500107D01*
X27174431Y32651700D01*
X27174431Y32651701D01*
X36417009Y32651701D01*
X36417009Y32651700D01*
X36436967Y32500107D01*
X36495477Y32358845D01*
X36588559Y32237540D01*
X36709864Y32144458D01*
X36798943Y32107562D01*
X36851127Y32085947D01*
X37002720Y32065989D01*
X37154313Y32085947D01*
X37243392Y32122845D01*
X37295575Y32144458D01*
X37416880Y32237540D01*
X37509962Y32358845D01*
X37531575Y32411028D01*
X37568473Y32500107D01*
X37588431Y32651700D01*
X37588431Y32651701D01*
X46577009Y32651701D01*
X46577009Y32651700D01*
X46596967Y32500107D01*
X46655477Y32358845D01*
X46748559Y32237540D01*
X46869864Y32144458D01*
X46958943Y32107562D01*
X47011127Y32085947D01*
X47162720Y32065989D01*
X47314313Y32085947D01*
X47403392Y32122845D01*
X47455575Y32144458D01*
X47576880Y32237540D01*
X47669962Y32358845D01*
X47691575Y32411028D01*
X47728473Y32500107D01*
X47748431Y32651700D01*
X47748431Y32651701D01*
X62579009Y32651701D01*
X62579009Y32651700D01*
X62598967Y32500107D01*
X62657477Y32358845D01*
X62750559Y32237540D01*
X62871864Y32144458D01*
X62960943Y32107562D01*
X63013127Y32085947D01*
X63164720Y32065989D01*
X63316313Y32085947D01*
X63405392Y32122845D01*
X63457575Y32144458D01*
X63578880Y32237540D01*
X63671962Y32358845D01*
X63693575Y32411028D01*
X63730473Y32500107D01*
X63750431Y32651700D01*
X63750431Y32651701D01*
X73628009Y32651701D01*
X73628009Y32651700D01*
X73647967Y32500107D01*
X73706477Y32358845D01*
X73799559Y32237540D01*
X73920864Y32144458D01*
X74009943Y32107562D01*
X74062127Y32085947D01*
X74213720Y32065989D01*
X74365313Y32085947D01*
X74454392Y32122845D01*
X74506575Y32144458D01*
X74627880Y32237540D01*
X74720962Y32358845D01*
X74742575Y32411028D01*
X74779473Y32500107D01*
X74799431Y32651700D01*
X74779473Y32803293D01*
X74757858Y32855476D01*
X74720962Y32944555D01*
X74627880Y33065861D01*
X74506575Y33158943D01*
X74365313Y33217453D01*
X74213720Y33237411D01*
X74062126Y33217453D01*
X73920865Y33158943D01*
X73799559Y33065861D01*
X73706477Y32944555D01*
X73647967Y32803294D01*
X73628009Y32651701D01*
X63750431Y32651701D01*
X63730473Y32803293D01*
X63708858Y32855476D01*
X63671962Y32944555D01*
X63578880Y33065861D01*
X63457575Y33158943D01*
X63316313Y33217453D01*
X63164720Y33237411D01*
X63013126Y33217453D01*
X62871865Y33158943D01*
X62750559Y33065861D01*
X62657477Y32944555D01*
X62598967Y32803294D01*
X62579009Y32651701D01*
X47748431Y32651701D01*
X47728473Y32803293D01*
X47706858Y32855476D01*
X47669962Y32944555D01*
X47576880Y33065861D01*
X47455575Y33158943D01*
X47314313Y33217453D01*
X47162720Y33237411D01*
X47011126Y33217453D01*
X46869865Y33158943D01*
X46748559Y33065861D01*
X46655477Y32944555D01*
X46596967Y32803294D01*
X46577009Y32651701D01*
X37588431Y32651701D01*
X37568473Y32803293D01*
X37546858Y32855476D01*
X37509962Y32944555D01*
X37416881Y33065859D01*
X37416878Y33065861D01*
X37334271Y33129249D01*
X37292404Y33186587D01*
X37288183Y33257458D01*
X37322948Y33319361D01*
X37385661Y33352642D01*
X37394527Y33354133D01*
X37408313Y33355947D01*
X37482834Y33386814D01*
X37549575Y33414458D01*
X37670880Y33507540D01*
X37763962Y33628845D01*
X37785575Y33681028D01*
X37822473Y33770107D01*
X37842431Y33921700D01*
X51634396Y33921700D01*
X51652832Y33758075D01*
X51652833Y33758073D01*
X51707215Y33602656D01*
X51707216Y33602655D01*
X51794821Y33463233D01*
X51794824Y33463230D01*
X51794824Y33463229D01*
X51911248Y33346805D01*
X51911250Y33346804D01*
X51911253Y33346801D01*
X52050675Y33259196D01*
X52206095Y33204812D01*
X52369720Y33186376D01*
X52533345Y33204812D01*
X52688765Y33259196D01*
X52828187Y33346801D01*
X52944619Y33463233D01*
X53032224Y33602655D01*
X53086608Y33758075D01*
X53105044Y33921700D01*
X53086608Y34085325D01*
X53032224Y34240745D01*
X52944619Y34380167D01*
X52944615Y34380171D01*
X52944615Y34380172D01*
X52895086Y34429701D01*
X61055009Y34429701D01*
X61055009Y34429700D01*
X61074967Y34278107D01*
X61133477Y34136845D01*
X61226559Y34015540D01*
X61347864Y33922458D01*
X61436943Y33885562D01*
X61489127Y33863947D01*
X61640720Y33843989D01*
X61792313Y33863947D01*
X61881392Y33900845D01*
X61931745Y33921700D01*
X78939396Y33921700D01*
X78957832Y33758075D01*
X78957833Y33758073D01*
X79012215Y33602656D01*
X79012216Y33602655D01*
X79099821Y33463233D01*
X79099824Y33463230D01*
X79099824Y33463229D01*
X79216248Y33346805D01*
X79216250Y33346804D01*
X79216253Y33346801D01*
X79355675Y33259196D01*
X79511095Y33204812D01*
X79674720Y33186376D01*
X79838345Y33204812D01*
X79993765Y33259196D01*
X80133187Y33346801D01*
X80249619Y33463233D01*
X80337224Y33602655D01*
X80391608Y33758075D01*
X80410044Y33921700D01*
X80391608Y34085325D01*
X80337224Y34240745D01*
X80249619Y34380167D01*
X80249615Y34380171D01*
X80249615Y34380172D01*
X80200086Y34429701D01*
X101187009Y34429701D01*
X101187009Y34429700D01*
X101206967Y34278107D01*
X101265477Y34136845D01*
X101358559Y34015540D01*
X101479864Y33922458D01*
X101568943Y33885562D01*
X101621127Y33863947D01*
X101772720Y33843989D01*
X101924313Y33863947D01*
X102013392Y33900845D01*
X102065575Y33922458D01*
X102186880Y34015540D01*
X102279962Y34136845D01*
X102322997Y34240745D01*
X102338473Y34278107D01*
X102358431Y34429700D01*
X102338473Y34581293D01*
X102297767Y34679568D01*
X102279962Y34722555D01*
X102186880Y34843861D01*
X102065575Y34936943D01*
X101924313Y34995453D01*
X101772720Y35015411D01*
X101621126Y34995453D01*
X101479865Y34936943D01*
X101358559Y34843861D01*
X101265477Y34722555D01*
X101206967Y34581294D01*
X101187009Y34429701D01*
X80200086Y34429701D01*
X80133191Y34496596D01*
X80133188Y34496598D01*
X80133187Y34496599D01*
X79998398Y34581293D01*
X79993764Y34584205D01*
X79874468Y34625948D01*
X79838345Y34638588D01*
X79674720Y34657024D01*
X79511095Y34638588D01*
X79511092Y34638588D01*
X79511092Y34638587D01*
X79355675Y34584205D01*
X79271904Y34531567D01*
X79216253Y34496599D01*
X79216251Y34496598D01*
X79216249Y34496596D01*
X79216248Y34496596D01*
X79099824Y34380172D01*
X79099824Y34380171D01*
X79099822Y34380169D01*
X79099821Y34380167D01*
X79086948Y34359680D01*
X79012215Y34240745D01*
X78975859Y34136844D01*
X78957832Y34085325D01*
X78939396Y33921700D01*
X61931745Y33921700D01*
X61933575Y33922458D01*
X62054880Y34015540D01*
X62147962Y34136845D01*
X62190997Y34240745D01*
X62206473Y34278107D01*
X62226431Y34429700D01*
X62206473Y34581293D01*
X62165767Y34679568D01*
X62164055Y34683701D01*
X65373009Y34683701D01*
X65373009Y34683700D01*
X65392967Y34532107D01*
X65451477Y34390845D01*
X65544559Y34269540D01*
X65665864Y34176458D01*
X65747753Y34142540D01*
X65807127Y34117947D01*
X65958720Y34097989D01*
X66110313Y34117947D01*
X66199392Y34154845D01*
X66251575Y34176458D01*
X66372880Y34269540D01*
X66465962Y34390845D01*
X66509765Y34496599D01*
X66524473Y34532107D01*
X66544431Y34683700D01*
X66524473Y34835293D01*
X66498149Y34898845D01*
X66465962Y34976555D01*
X66372880Y35097861D01*
X66251575Y35190943D01*
X66110313Y35249453D01*
X65958720Y35269411D01*
X65807126Y35249453D01*
X65665865Y35190943D01*
X65544559Y35097861D01*
X65451477Y34976555D01*
X65392967Y34835294D01*
X65373009Y34683701D01*
X62164055Y34683701D01*
X62147962Y34722555D01*
X62054880Y34843861D01*
X61933575Y34936943D01*
X61792313Y34995453D01*
X61640720Y35015411D01*
X61489126Y34995453D01*
X61347865Y34936943D01*
X61226559Y34843861D01*
X61133477Y34722555D01*
X61074967Y34581294D01*
X61055009Y34429701D01*
X52895086Y34429701D01*
X52828191Y34496596D01*
X52828188Y34496598D01*
X52828187Y34496599D01*
X52693398Y34581293D01*
X52688764Y34584205D01*
X52569468Y34625948D01*
X52533345Y34638588D01*
X52369720Y34657024D01*
X52206095Y34638588D01*
X52206092Y34638588D01*
X52206092Y34638587D01*
X52050675Y34584205D01*
X51966904Y34531567D01*
X51911253Y34496599D01*
X51911251Y34496598D01*
X51911249Y34496596D01*
X51911248Y34496596D01*
X51794824Y34380172D01*
X51794824Y34380171D01*
X51794822Y34380169D01*
X51794821Y34380167D01*
X51781948Y34359680D01*
X51707215Y34240745D01*
X51670859Y34136844D01*
X51652832Y34085325D01*
X51634396Y33921700D01*
X37842431Y33921700D01*
X37822473Y34073293D01*
X37793790Y34142540D01*
X37763962Y34214555D01*
X37670880Y34335861D01*
X37549575Y34428943D01*
X37408313Y34487453D01*
X37256720Y34507411D01*
X37105126Y34487453D01*
X36963865Y34428943D01*
X36842559Y34335861D01*
X36749477Y34214555D01*
X36690967Y34073294D01*
X36671009Y33921701D01*
X36671009Y33921700D01*
X36690967Y33770107D01*
X36749477Y33628845D01*
X36842558Y33507542D01*
X36842560Y33507540D01*
X36925168Y33444152D01*
X36967035Y33386814D01*
X36971256Y33315943D01*
X36936491Y33254040D01*
X36873778Y33220759D01*
X36864913Y33219268D01*
X36851125Y33217453D01*
X36709865Y33158943D01*
X36588559Y33065861D01*
X36495477Y32944555D01*
X36436967Y32803294D01*
X36417009Y32651701D01*
X27174431Y32651701D01*
X27154473Y32803293D01*
X27132858Y32855476D01*
X27095962Y32944555D01*
X27002880Y33065861D01*
X26881575Y33158943D01*
X26740313Y33217453D01*
X26588720Y33237411D01*
X26437126Y33217453D01*
X26295865Y33158943D01*
X26174559Y33065861D01*
X26081477Y32944555D01*
X26022967Y32803294D01*
X26003009Y32651701D01*
X6814728Y32651701D01*
X6846889Y32771729D01*
X6878620Y33012750D01*
X6878620Y33255850D01*
X6846889Y33496871D01*
X6783970Y33731688D01*
X6690939Y33956284D01*
X6690933Y33956293D01*
X6690932Y33956297D01*
X6569391Y34166813D01*
X6569387Y34166819D01*
X6421405Y34359672D01*
X6421386Y34359693D01*
X6249512Y34531567D01*
X6249491Y34531586D01*
X6216761Y34556701D01*
X31083009Y34556701D01*
X31083009Y34556700D01*
X31102967Y34405107D01*
X31161477Y34263845D01*
X31254559Y34142540D01*
X31375864Y34049458D01*
X31457753Y34015540D01*
X31517127Y33990947D01*
X31668720Y33970989D01*
X31820313Y33990947D01*
X31909392Y34027845D01*
X31961575Y34049458D01*
X32082880Y34142540D01*
X32175962Y34263845D01*
X32205791Y34335861D01*
X32234473Y34405107D01*
X32254431Y34556700D01*
X32234473Y34708293D01*
X32205790Y34777540D01*
X32175962Y34849555D01*
X32082880Y34970861D01*
X31961575Y35063943D01*
X31820313Y35122453D01*
X31668720Y35142411D01*
X31517126Y35122453D01*
X31375865Y35063943D01*
X31254559Y34970861D01*
X31161477Y34849555D01*
X31102967Y34708294D01*
X31083009Y34556701D01*
X6216761Y34556701D01*
X6056638Y34679568D01*
X6056632Y34679572D01*
X5846116Y34801113D01*
X5846108Y34801117D01*
X5846104Y34801119D01*
X5621508Y34894150D01*
X5386691Y34957069D01*
X5386689Y34957070D01*
X5386683Y34957071D01*
X5145672Y34988800D01*
X5145670Y34988800D01*
X4902570Y34988800D01*
X4902567Y34988800D01*
X4661556Y34957071D01*
X4586430Y34936941D01*
X4426732Y34894150D01*
X4284642Y34835294D01*
X4202134Y34801118D01*
X4202123Y34801113D01*
X3991607Y34679572D01*
X3991601Y34679568D01*
X3798748Y34531586D01*
X3798727Y34531567D01*
X3626853Y34359693D01*
X3626834Y34359672D01*
X3478852Y34166819D01*
X3478848Y34166813D01*
X3357307Y33956297D01*
X3357302Y33956286D01*
X3264270Y33731688D01*
X3201349Y33496864D01*
X3169620Y33255853D01*
X300500Y33255853D01*
X300500Y34672139D01*
X320502Y34740260D01*
X337405Y34761234D01*
X767872Y35191701D01*
X26003009Y35191701D01*
X26003009Y35191700D01*
X26022967Y35040107D01*
X26081477Y34898845D01*
X26174559Y34777540D01*
X26295864Y34684458D01*
X26362099Y34657024D01*
X26437127Y34625947D01*
X26588720Y34605989D01*
X26740313Y34625947D01*
X26829392Y34662845D01*
X26881575Y34684458D01*
X27002880Y34777540D01*
X27095962Y34898845D01*
X27135977Y34995453D01*
X27154473Y35040107D01*
X27174431Y35191700D01*
X27154473Y35343293D01*
X27132858Y35395476D01*
X27095962Y35484555D01*
X27002880Y35605861D01*
X26881575Y35698943D01*
X26740313Y35757453D01*
X26588720Y35777411D01*
X26437126Y35757453D01*
X26295865Y35698943D01*
X26174559Y35605861D01*
X26081477Y35484555D01*
X26022967Y35343294D01*
X26003009Y35191701D01*
X767872Y35191701D01*
X3307872Y37731701D01*
X26003009Y37731701D01*
X26003009Y37731700D01*
X26022967Y37580107D01*
X26081477Y37438845D01*
X26174559Y37317540D01*
X26295864Y37224458D01*
X26384943Y37187562D01*
X26437127Y37165947D01*
X26588720Y37145989D01*
X26740313Y37165947D01*
X26829392Y37202845D01*
X26881575Y37224458D01*
X27002880Y37317540D01*
X27095962Y37438845D01*
X27117575Y37491028D01*
X27154473Y37580107D01*
X27174431Y37731700D01*
X27174431Y37731701D01*
X66643009Y37731701D01*
X66643009Y37731700D01*
X66662967Y37580107D01*
X66721477Y37438845D01*
X66814559Y37317540D01*
X66935864Y37224458D01*
X67024943Y37187562D01*
X67077127Y37165947D01*
X67228720Y37145989D01*
X67380313Y37165947D01*
X67469392Y37202845D01*
X67521575Y37224458D01*
X67642880Y37317540D01*
X67735962Y37438845D01*
X67757575Y37491028D01*
X67794473Y37580107D01*
X67814431Y37731700D01*
X67814431Y37731701D01*
X69183009Y37731701D01*
X69183009Y37731700D01*
X69202967Y37580107D01*
X69261477Y37438845D01*
X69354559Y37317540D01*
X69475864Y37224458D01*
X69564943Y37187562D01*
X69617127Y37165947D01*
X69768720Y37145989D01*
X69920313Y37165947D01*
X70009392Y37202845D01*
X70061575Y37224458D01*
X70182880Y37317540D01*
X70275962Y37438845D01*
X70297575Y37491028D01*
X70334473Y37580107D01*
X70354431Y37731700D01*
X70354431Y37731701D01*
X71723009Y37731701D01*
X71723009Y37731700D01*
X71742967Y37580107D01*
X71801477Y37438845D01*
X71894559Y37317540D01*
X72015864Y37224458D01*
X72104943Y37187562D01*
X72157127Y37165947D01*
X72308720Y37145989D01*
X72460313Y37165947D01*
X72549392Y37202845D01*
X72601575Y37224458D01*
X72722880Y37317540D01*
X72815962Y37438845D01*
X72837575Y37491028D01*
X72874473Y37580107D01*
X72894431Y37731700D01*
X72894431Y37731701D01*
X74263009Y37731701D01*
X74263009Y37731700D01*
X74282967Y37580107D01*
X74341477Y37438845D01*
X74434559Y37317540D01*
X74555864Y37224458D01*
X74644943Y37187562D01*
X74697127Y37165947D01*
X74848720Y37145989D01*
X75000313Y37165947D01*
X75089392Y37202845D01*
X75141575Y37224458D01*
X75262880Y37317540D01*
X75355962Y37438845D01*
X75377575Y37491028D01*
X75414473Y37580107D01*
X75434431Y37731700D01*
X75434431Y37731701D01*
X76803009Y37731701D01*
X76803009Y37731700D01*
X76822967Y37580107D01*
X76881477Y37438845D01*
X76974559Y37317540D01*
X77095864Y37224458D01*
X77184943Y37187562D01*
X77237127Y37165947D01*
X77388720Y37145989D01*
X77540313Y37165947D01*
X77629392Y37202845D01*
X77681575Y37224458D01*
X77802880Y37317540D01*
X77895962Y37438845D01*
X77917575Y37491028D01*
X77954473Y37580107D01*
X77974431Y37731700D01*
X77974431Y37731701D01*
X79343009Y37731701D01*
X79343009Y37731700D01*
X79362967Y37580107D01*
X79421477Y37438845D01*
X79514559Y37317540D01*
X79635864Y37224458D01*
X79724943Y37187562D01*
X79777127Y37165947D01*
X79928720Y37145989D01*
X80080313Y37165947D01*
X80169392Y37202845D01*
X80221575Y37224458D01*
X80342880Y37317540D01*
X80435962Y37438845D01*
X80457575Y37491028D01*
X80494473Y37580107D01*
X80514431Y37731700D01*
X80514431Y37731701D01*
X81883009Y37731701D01*
X81883009Y37731700D01*
X81902967Y37580107D01*
X81961477Y37438845D01*
X82054559Y37317540D01*
X82175864Y37224458D01*
X82264943Y37187562D01*
X82317127Y37165947D01*
X82468720Y37145989D01*
X82620313Y37165947D01*
X82709392Y37202845D01*
X82761575Y37224458D01*
X82882880Y37317540D01*
X82975962Y37438845D01*
X82997575Y37491028D01*
X83034473Y37580107D01*
X83054431Y37731700D01*
X83054431Y37731701D01*
X84423009Y37731701D01*
X84423009Y37731700D01*
X84442967Y37580107D01*
X84501477Y37438845D01*
X84594559Y37317540D01*
X84715864Y37224458D01*
X84804943Y37187562D01*
X84857127Y37165947D01*
X85008720Y37145989D01*
X85160313Y37165947D01*
X85249392Y37202845D01*
X85301575Y37224458D01*
X85422880Y37317540D01*
X85515962Y37438845D01*
X85537575Y37491028D01*
X85574473Y37580107D01*
X85594431Y37731700D01*
X85574473Y37883293D01*
X85545790Y37952540D01*
X85515962Y38024555D01*
X85422880Y38145861D01*
X85301575Y38238943D01*
X85299745Y38239701D01*
X101187009Y38239701D01*
X101187009Y38239700D01*
X101206967Y38088107D01*
X101265477Y37946845D01*
X101358559Y37825540D01*
X101479864Y37732458D01*
X101568943Y37695562D01*
X101621127Y37673947D01*
X101772720Y37653989D01*
X101924313Y37673947D01*
X102013392Y37710845D01*
X102065575Y37732458D01*
X102186880Y37825540D01*
X102279962Y37946845D01*
X102312149Y38024555D01*
X102338473Y38088107D01*
X102358431Y38239700D01*
X102338473Y38391293D01*
X102316858Y38443476D01*
X102279962Y38532555D01*
X102186880Y38653861D01*
X102065575Y38746943D01*
X101924313Y38805453D01*
X101772720Y38825411D01*
X101621126Y38805453D01*
X101479865Y38746943D01*
X101358559Y38653861D01*
X101265477Y38532555D01*
X101206967Y38391294D01*
X101187009Y38239701D01*
X85299745Y38239701D01*
X85160313Y38297453D01*
X85008720Y38317411D01*
X84857126Y38297453D01*
X84715865Y38238943D01*
X84594559Y38145861D01*
X84501477Y38024555D01*
X84442967Y37883294D01*
X84423009Y37731701D01*
X83054431Y37731701D01*
X83034473Y37883293D01*
X83005790Y37952540D01*
X82975962Y38024555D01*
X82882880Y38145861D01*
X82761575Y38238943D01*
X82620313Y38297453D01*
X82468720Y38317411D01*
X82317126Y38297453D01*
X82175865Y38238943D01*
X82054559Y38145861D01*
X81961477Y38024555D01*
X81902967Y37883294D01*
X81883009Y37731701D01*
X80514431Y37731701D01*
X80494473Y37883293D01*
X80465790Y37952540D01*
X80435962Y38024555D01*
X80342880Y38145861D01*
X80221575Y38238943D01*
X80080313Y38297453D01*
X79928720Y38317411D01*
X79777126Y38297453D01*
X79635865Y38238943D01*
X79514559Y38145861D01*
X79421477Y38024555D01*
X79362967Y37883294D01*
X79343009Y37731701D01*
X77974431Y37731701D01*
X77954473Y37883293D01*
X77925790Y37952540D01*
X77895962Y38024555D01*
X77802880Y38145861D01*
X77681575Y38238943D01*
X77540313Y38297453D01*
X77388720Y38317411D01*
X77237126Y38297453D01*
X77095865Y38238943D01*
X76974559Y38145861D01*
X76881477Y38024555D01*
X76822967Y37883294D01*
X76803009Y37731701D01*
X75434431Y37731701D01*
X75414473Y37883293D01*
X75385790Y37952540D01*
X75355962Y38024555D01*
X75262880Y38145861D01*
X75141575Y38238943D01*
X75000313Y38297453D01*
X74848720Y38317411D01*
X74697126Y38297453D01*
X74555865Y38238943D01*
X74434559Y38145861D01*
X74341477Y38024555D01*
X74282967Y37883294D01*
X74263009Y37731701D01*
X72894431Y37731701D01*
X72874473Y37883293D01*
X72845790Y37952540D01*
X72815962Y38024555D01*
X72722880Y38145861D01*
X72601575Y38238943D01*
X72460313Y38297453D01*
X72308720Y38317411D01*
X72157126Y38297453D01*
X72015865Y38238943D01*
X71894559Y38145861D01*
X71801477Y38024555D01*
X71742967Y37883294D01*
X71723009Y37731701D01*
X70354431Y37731701D01*
X70334473Y37883293D01*
X70305790Y37952540D01*
X70275962Y38024555D01*
X70182880Y38145861D01*
X70061575Y38238943D01*
X69920313Y38297453D01*
X69768720Y38317411D01*
X69617126Y38297453D01*
X69475865Y38238943D01*
X69354559Y38145861D01*
X69261477Y38024555D01*
X69202967Y37883294D01*
X69183009Y37731701D01*
X67814431Y37731701D01*
X67794473Y37883293D01*
X67765790Y37952540D01*
X67735962Y38024555D01*
X67642880Y38145861D01*
X67521575Y38238943D01*
X67380313Y38297453D01*
X67228720Y38317411D01*
X67077126Y38297453D01*
X66935865Y38238943D01*
X66814559Y38145861D01*
X66721477Y38024555D01*
X66662967Y37883294D01*
X66643009Y37731701D01*
X27174431Y37731701D01*
X27154473Y37883293D01*
X27125790Y37952540D01*
X27095962Y38024555D01*
X27002880Y38145861D01*
X26881575Y38238943D01*
X26740313Y38297453D01*
X26588720Y38317411D01*
X26437126Y38297453D01*
X26295865Y38238943D01*
X26174559Y38145861D01*
X26081477Y38024555D01*
X26022967Y37883294D01*
X26003009Y37731701D01*
X3307872Y37731701D01*
X3942872Y38366701D01*
X5048009Y38366701D01*
X5048009Y38366700D01*
X5067967Y38215107D01*
X5126477Y38073845D01*
X5219559Y37952540D01*
X5340864Y37859458D01*
X5422753Y37825540D01*
X5482127Y37800947D01*
X5633720Y37780989D01*
X5785313Y37800947D01*
X5874392Y37837845D01*
X5926575Y37859458D01*
X6047880Y37952540D01*
X6140962Y38073845D01*
X6170791Y38145861D01*
X6199473Y38215107D01*
X6219431Y38366700D01*
X6199473Y38518293D01*
X6177858Y38570476D01*
X6140962Y38659555D01*
X6047880Y38780861D01*
X5926575Y38873943D01*
X5785313Y38932453D01*
X5633720Y38952411D01*
X5482126Y38932453D01*
X5340865Y38873943D01*
X5219559Y38780861D01*
X5126477Y38659555D01*
X5067967Y38518294D01*
X5048009Y38366701D01*
X3942872Y38366701D01*
X5847872Y40271701D01*
X86963009Y40271701D01*
X86963009Y40271700D01*
X86982967Y40120107D01*
X87041477Y39978845D01*
X87134559Y39857540D01*
X87255864Y39764458D01*
X87344943Y39727562D01*
X87397127Y39705947D01*
X87548720Y39685989D01*
X87700313Y39705947D01*
X87789392Y39742845D01*
X87841575Y39764458D01*
X87962880Y39857540D01*
X88055962Y39978845D01*
X88077575Y40031028D01*
X88114473Y40120107D01*
X88134431Y40271700D01*
X88114473Y40423293D01*
X88092858Y40475476D01*
X88055962Y40564555D01*
X87962880Y40685861D01*
X87841575Y40778943D01*
X87700313Y40837453D01*
X87548720Y40857411D01*
X87397126Y40837453D01*
X87255865Y40778943D01*
X87134559Y40685861D01*
X87041477Y40564555D01*
X86982967Y40423294D01*
X86963009Y40271701D01*
X5847872Y40271701D01*
X7625872Y42049701D01*
X101187009Y42049701D01*
X101187009Y42049700D01*
X101206967Y41898107D01*
X101265477Y41756845D01*
X101358559Y41635540D01*
X101479864Y41542458D01*
X101568943Y41505562D01*
X101621127Y41483947D01*
X101772720Y41463989D01*
X101924313Y41483947D01*
X102013392Y41520845D01*
X102065575Y41542458D01*
X102186880Y41635540D01*
X102279962Y41756845D01*
X102301575Y41809028D01*
X102338473Y41898107D01*
X102358431Y42049700D01*
X102338473Y42201293D01*
X102316858Y42253476D01*
X102279962Y42342555D01*
X102186880Y42463861D01*
X102065575Y42556943D01*
X101924313Y42615453D01*
X101772720Y42635411D01*
X101621126Y42615453D01*
X101479865Y42556943D01*
X101358559Y42463861D01*
X101265477Y42342555D01*
X101206967Y42201294D01*
X101187009Y42049701D01*
X7625872Y42049701D01*
X8387872Y42811701D01*
X26003009Y42811701D01*
X26003009Y42811700D01*
X26022967Y42660107D01*
X26081477Y42518845D01*
X26174559Y42397540D01*
X26295864Y42304458D01*
X26384943Y42267562D01*
X26437127Y42245947D01*
X26588720Y42225989D01*
X26740313Y42245947D01*
X26829392Y42282845D01*
X26881575Y42304458D01*
X27002880Y42397540D01*
X27095962Y42518845D01*
X27135977Y42615453D01*
X27154473Y42660107D01*
X27174431Y42811700D01*
X27174431Y42811701D01*
X75533009Y42811701D01*
X75533009Y42811700D01*
X75552967Y42660107D01*
X75611477Y42518845D01*
X75704559Y42397540D01*
X75825864Y42304458D01*
X75914943Y42267562D01*
X75967127Y42245947D01*
X76118720Y42225989D01*
X76270313Y42245947D01*
X76359392Y42282845D01*
X76411575Y42304458D01*
X76532880Y42397540D01*
X76625962Y42518845D01*
X76665977Y42615453D01*
X76684473Y42660107D01*
X76704431Y42811700D01*
X76684473Y42963293D01*
X76655790Y43032540D01*
X76625962Y43104555D01*
X76532880Y43225861D01*
X76411575Y43318943D01*
X76270313Y43377453D01*
X76118720Y43397411D01*
X75967126Y43377453D01*
X75825865Y43318943D01*
X75704559Y43225861D01*
X75611477Y43104555D01*
X75552967Y42963294D01*
X75533009Y42811701D01*
X27174431Y42811701D01*
X27154473Y42963293D01*
X27125790Y43032540D01*
X27095962Y43104555D01*
X27002880Y43225861D01*
X26881575Y43318943D01*
X26740313Y43377453D01*
X26588720Y43397411D01*
X26437126Y43377453D01*
X26295865Y43318943D01*
X26174559Y43225861D01*
X26081477Y43104555D01*
X26022967Y42963294D01*
X26003009Y42811701D01*
X8387872Y42811701D01*
X9022872Y43446701D01*
X10128009Y43446701D01*
X10128009Y43446700D01*
X10147967Y43295107D01*
X10206477Y43153845D01*
X10299559Y43032540D01*
X10420864Y42939458D01*
X10509943Y42902562D01*
X10562127Y42880947D01*
X10713720Y42860989D01*
X10865313Y42880947D01*
X10954392Y42917845D01*
X11006575Y42939458D01*
X11127880Y43032540D01*
X11220962Y43153845D01*
X11250791Y43225861D01*
X11279473Y43295107D01*
X11299431Y43446700D01*
X11279473Y43598293D01*
X11257858Y43650476D01*
X11220962Y43739555D01*
X11127880Y43860861D01*
X11006575Y43953943D01*
X10865313Y44012453D01*
X10713720Y44032411D01*
X10562126Y44012453D01*
X10420865Y43953943D01*
X10299559Y43860861D01*
X10206477Y43739555D01*
X10147967Y43598294D01*
X10128009Y43446701D01*
X9022872Y43446701D01*
X12565448Y46989277D01*
X14671820Y46989277D01*
X14671820Y46736723D01*
X14681737Y46674114D01*
X14711330Y46487275D01*
X14780672Y46273860D01*
X14789372Y46247086D01*
X14904029Y46022059D01*
X15052476Y45817739D01*
X15052478Y45817737D01*
X15052480Y45817734D01*
X15231053Y45639161D01*
X15231056Y45639159D01*
X15231059Y45639156D01*
X15435379Y45490709D01*
X15660406Y45376052D01*
X15900599Y45298009D01*
X16150043Y45258500D01*
X16150046Y45258500D01*
X16402594Y45258500D01*
X16402597Y45258500D01*
X16652041Y45298009D01*
X16817289Y45351701D01*
X26003009Y45351701D01*
X26003009Y45351700D01*
X26022967Y45200107D01*
X26081477Y45058845D01*
X26174559Y44937540D01*
X26295864Y44844458D01*
X26384943Y44807562D01*
X26437127Y44785947D01*
X26588720Y44765989D01*
X26740313Y44785947D01*
X26829392Y44822845D01*
X26881575Y44844458D01*
X27002880Y44937540D01*
X27095962Y45058845D01*
X27117575Y45111028D01*
X27154473Y45200107D01*
X27174431Y45351700D01*
X27174431Y45351701D01*
X90773009Y45351701D01*
X90773009Y45351700D01*
X90792967Y45200107D01*
X90851477Y45058845D01*
X90944559Y44937540D01*
X91065864Y44844458D01*
X91154943Y44807562D01*
X91207127Y44785947D01*
X91358720Y44765989D01*
X91510313Y44785947D01*
X91599392Y44822845D01*
X91651575Y44844458D01*
X91772880Y44937540D01*
X91865962Y45058845D01*
X91887575Y45111028D01*
X91924473Y45200107D01*
X91944431Y45351700D01*
X91924473Y45503293D01*
X91890510Y45585288D01*
X91865962Y45644555D01*
X91772880Y45765861D01*
X91651575Y45858943D01*
X91510313Y45917453D01*
X91358720Y45937411D01*
X91207126Y45917453D01*
X91065865Y45858943D01*
X90944559Y45765861D01*
X90851477Y45644555D01*
X90792967Y45503294D01*
X90773009Y45351701D01*
X27174431Y45351701D01*
X27154473Y45503293D01*
X27120510Y45585288D01*
X27095962Y45644555D01*
X27002880Y45765861D01*
X26881575Y45858943D01*
X26740313Y45917453D01*
X26588720Y45937411D01*
X26437126Y45917453D01*
X26295865Y45858943D01*
X26174559Y45765861D01*
X26081477Y45644555D01*
X26022967Y45503294D01*
X26003009Y45351701D01*
X16817289Y45351701D01*
X16892234Y45376052D01*
X17117261Y45490709D01*
X17321581Y45639156D01*
X17500164Y45817739D01*
X17648611Y46022059D01*
X17763268Y46247086D01*
X17841311Y46487279D01*
X17880820Y46736723D01*
X17880820Y46989277D01*
X96282020Y46989277D01*
X96282020Y46736723D01*
X96291937Y46674114D01*
X96321530Y46487275D01*
X96390872Y46273860D01*
X96399572Y46247086D01*
X96514229Y46022059D01*
X96662676Y45817739D01*
X96662678Y45817737D01*
X96662680Y45817734D01*
X96841253Y45639161D01*
X96841256Y45639159D01*
X96841259Y45639156D01*
X97045579Y45490709D01*
X97270606Y45376052D01*
X97510799Y45298009D01*
X97760243Y45258500D01*
X97760246Y45258500D01*
X98012794Y45258500D01*
X98012797Y45258500D01*
X98262241Y45298009D01*
X98502434Y45376052D01*
X98727461Y45490709D01*
X98931781Y45639156D01*
X99110364Y45817739D01*
X99258811Y46022059D01*
X99373468Y46247086D01*
X99451511Y46487279D01*
X99491020Y46736723D01*
X99491020Y46989277D01*
X99451511Y47238721D01*
X99373468Y47478914D01*
X99258811Y47703941D01*
X99110364Y47908261D01*
X99110361Y47908264D01*
X99110359Y47908267D01*
X98931786Y48086840D01*
X98931783Y48086842D01*
X98931781Y48086844D01*
X98755461Y48214948D01*
X98727464Y48235289D01*
X98727463Y48235290D01*
X98727461Y48235291D01*
X98502434Y48349948D01*
X98502431Y48349949D01*
X98502429Y48349950D01*
X98262245Y48427990D01*
X98262243Y48427991D01*
X98262241Y48427991D01*
X98012797Y48467500D01*
X97760243Y48467500D01*
X97510799Y48427991D01*
X97510797Y48427991D01*
X97510794Y48427990D01*
X97270610Y48349950D01*
X97270604Y48349947D01*
X97045575Y48235289D01*
X96841256Y48086842D01*
X96841253Y48086840D01*
X96662680Y47908267D01*
X96662678Y47908264D01*
X96514231Y47703945D01*
X96399573Y47478916D01*
X96399570Y47478910D01*
X96321530Y47238726D01*
X96321529Y47238723D01*
X96321529Y47238721D01*
X96282020Y46989277D01*
X17880820Y46989277D01*
X17841311Y47238721D01*
X17763268Y47478914D01*
X17648611Y47703941D01*
X17500164Y47908261D01*
X17500161Y47908264D01*
X17500159Y47908267D01*
X17321586Y48086840D01*
X17321583Y48086842D01*
X17321581Y48086844D01*
X17145261Y48214948D01*
X17117264Y48235289D01*
X17117263Y48235290D01*
X17117261Y48235291D01*
X16892234Y48349948D01*
X16892231Y48349949D01*
X16892229Y48349950D01*
X16652045Y48427990D01*
X16652043Y48427991D01*
X16652041Y48427991D01*
X16402597Y48467500D01*
X16150043Y48467500D01*
X15900599Y48427991D01*
X15900597Y48427991D01*
X15900594Y48427990D01*
X15660410Y48349950D01*
X15660404Y48349947D01*
X15435375Y48235289D01*
X15231056Y48086842D01*
X15231053Y48086840D01*
X15052480Y47908267D01*
X15052478Y47908264D01*
X14904031Y47703945D01*
X14789373Y47478916D01*
X14789370Y47478910D01*
X14711330Y47238726D01*
X14711329Y47238723D01*
X14711329Y47238721D01*
X14671820Y46989277D01*
X12565448Y46989277D01*
X14102872Y48526701D01*
X20923009Y48526701D01*
X20923009Y48526700D01*
X20942967Y48375107D01*
X21001477Y48233845D01*
X21094559Y48112540D01*
X21215864Y48019458D01*
X21304943Y47982562D01*
X21357127Y47960947D01*
X21508720Y47940989D01*
X21660313Y47960947D01*
X21749392Y47997845D01*
X21801575Y48019458D01*
X21922880Y48112540D01*
X22015962Y48233845D01*
X22037575Y48286028D01*
X22074473Y48375107D01*
X22094431Y48526700D01*
X22094431Y48526701D01*
X23463009Y48526701D01*
X23463009Y48526700D01*
X23482967Y48375107D01*
X23541477Y48233845D01*
X23634559Y48112540D01*
X23755864Y48019458D01*
X23844943Y47982562D01*
X23897127Y47960947D01*
X24048720Y47940989D01*
X24200313Y47960947D01*
X24289392Y47997845D01*
X24341575Y48019458D01*
X24462880Y48112540D01*
X24555962Y48233845D01*
X24577575Y48286028D01*
X24614473Y48375107D01*
X24634431Y48526700D01*
X24614473Y48678293D01*
X24592858Y48730476D01*
X24555962Y48819555D01*
X24462880Y48940861D01*
X24341575Y49033943D01*
X24200313Y49092453D01*
X24048720Y49112411D01*
X23897126Y49092453D01*
X23755865Y49033943D01*
X23634559Y48940861D01*
X23541477Y48819555D01*
X23482967Y48678294D01*
X23463009Y48526701D01*
X22094431Y48526701D01*
X22074473Y48678293D01*
X22052858Y48730476D01*
X22015962Y48819555D01*
X21922880Y48940861D01*
X21801575Y49033943D01*
X21660313Y49092453D01*
X21508720Y49112411D01*
X21357126Y49092453D01*
X21215865Y49033943D01*
X21094559Y48940861D01*
X21001477Y48819555D01*
X20942967Y48678294D01*
X20923009Y48526701D01*
X14102872Y48526701D01*
X15098966Y49522795D01*
X15161278Y49556821D01*
X15188061Y49559700D01*
X26953505Y49559700D01*
X27021626Y49539698D01*
G37*
%TD.AperFunction*%
%TD*%
M02*
