M48
; DRILL file {KiCad 8.0.4} date 2024-07-26T10:39:13-0700
; FORMAT={-:-/ absolute / inch / decimal}
; #@! TF.CreationDate,2024-07-26T10:39:13-07:00
; #@! TF.GenerationSoftware,Kicad,Pcbnew,8.0.4
; #@! TF.FileFunction,Plated,1,4,PTH
FMAT,2
INCH
; #@! TA.AperFunction,Plated,PTH,ViaDrill
T1C0.0118
; #@! TA.AperFunction,Plated,PTH,ViaDrill
T2C0.0157
; #@! TA.AperFunction,Plated,PTH,ComponentDrill
T3C0.0394
%
G90
G05
T1
X0.0468Y1.1855
X0.0468Y1.0855
X0.0468Y0.9855
X0.2218Y1.5105
X0.3468Y0.5855
X0.4118Y0.4655
X0.4218Y1.7105
X0.6468Y0.8855
X0.7468Y0.9855
X0.8468Y1.9105
X0.8468Y1.0855
X0.9468Y1.9105
X0.9468Y1.1855
X1.0468Y1.7855
X1.0468Y1.6855
X1.0468Y1.4855
X1.0468Y1.3855
X1.0468Y1.2855
X1.0718Y1.9205
X1.1268Y1.1405
X1.2468Y1.3605
X1.2518Y1.2855
X1.2518Y1.1855
X1.2518Y1.0855
X1.2518Y0.9855
X1.3218Y1.9205
X1.4568Y1.2855
X1.4668Y1.3355
X1.5768Y1.9205
X1.6393Y0.888
X1.6818Y0.8205
X1.7218Y1.1355
X1.7318Y1.0855
X1.7358Y1.1855
X1.8218Y1.9205
X1.8568Y1.2855
X2.0318Y0.7005
X2.0618Y1.1855
X2.0618Y1.0855
X2.0618Y0.9855
X2.0618Y0.8855
X2.0718Y1.9205
X2.0968Y0.6355
X2.1468Y0.6605
X2.2218Y0.8605
X2.3218Y1.9205
X2.3418Y1.2855
X2.3418Y1.1855
X2.3418Y1.0855
X2.3418Y0.9855
X2.3718Y0.7355
X2.4043Y0.553
X2.4268Y1.3555
X2.4368Y0.6355
X2.4518Y0.7555
X2.4868Y1.2855
X2.5218Y1.0355
X2.5218Y0.3655
X2.5268Y1.1855
X2.5268Y1.0855
X2.5268Y0.9855
X2.5718Y1.9205
X2.5968Y1.3655
X2.6118Y0.5955
X2.6268Y0.8105
X2.6468Y1.4855
X2.6568Y1.2355
X2.6568Y1.1355
X2.6568Y1.0355
X2.6568Y0.9355
X2.6718Y1.1855
X2.7468Y1.4855
X2.8218Y1.9205
X2.8418Y0.7855
X2.8468Y1.4855
X2.9218Y1.2855
X2.9468Y1.4855
X2.9768Y0.8855
X2.9968Y1.6855
X3.0468Y1.9105
X3.0468Y1.4855
X3.1368Y1.1855
X3.1368Y1.0855
X3.1368Y0.9855
X3.1368Y0.8855
X3.1468Y1.9105
X3.1468Y1.4855
X3.2468Y1.9105
X3.2468Y1.4855
X3.3468Y1.9105
X3.3468Y1.4855
X3.4468Y1.9105
X3.4468Y1.5855
X3.5468Y1.9105
X3.5968Y1.7855
X3.6468Y1.9105
X3.9018Y1.1655
X3.9018Y1.0155
X3.9018Y0.8655
X3.9018Y0.7155
X4.0068Y1.8055
X4.0068Y1.6555
X4.0068Y1.5055
X4.0068Y1.3555
X4.0068Y1.2055
X4.0068Y1.0555
X4.0068Y0.9055
X4.0068Y0.7555
T2
X1.3918Y0.3055
X1.4468Y0.3705
X1.5218Y0.8555
X1.7118Y0.5755
X1.7118Y0.4255
X1.7718Y0.5755
X1.7718Y0.4255
X1.7918Y1.3655
X1.8818Y0.3955
X1.9118Y1.3355
X2.0618Y1.3355
X2.5368Y0.8855
X2.8668Y1.3705
X2.9868Y1.3355
X3.1368Y1.3355
T3
X0.071Y0.169
X0.071Y0.069
X0.171Y0.169
X0.171Y0.069
X0.271Y0.169
X0.271Y0.069
X0.371Y0.169
X0.371Y0.069
X0.471Y0.169
X0.471Y0.069
X0.571Y0.169
X0.571Y0.069
X0.671Y0.169
X0.671Y0.069
X0.771Y0.169
X0.771Y0.069
X0.871Y0.169
X0.871Y0.069
X0.971Y0.169
X0.971Y0.069
X1.071Y0.169
X1.071Y0.069
X1.171Y0.169
X1.171Y0.069
X1.271Y0.169
X1.271Y0.069
X1.371Y0.169
X1.371Y0.069
X1.471Y0.169
X1.471Y0.069
X1.571Y0.169
X1.571Y0.069
X1.671Y0.169
X1.671Y0.069
X1.771Y0.169
X1.771Y0.069
X1.871Y0.169
X1.871Y0.069
X1.971Y0.169
X1.971Y0.069
X2.071Y0.169
X2.071Y0.069
X2.171Y0.169
X2.171Y0.069
X2.271Y0.169
X2.271Y0.069
X2.371Y0.169
X2.371Y0.069
X2.471Y0.169
X2.471Y0.069
X2.571Y0.169
X2.571Y0.069
X2.671Y0.169
X2.671Y0.069
X2.771Y0.169
X2.771Y0.069
X2.871Y0.169
X2.871Y0.069
X2.971Y0.169
X2.971Y0.069
X3.071Y0.169
X3.071Y0.069
X3.171Y0.169
X3.171Y0.069
X3.271Y0.169
X3.271Y0.069
X3.371Y0.169
X3.371Y0.069
X3.471Y0.169
X3.471Y0.069
X3.571Y0.169
X3.571Y0.069
X3.671Y0.169
X3.671Y0.069
X3.771Y0.169
X3.771Y0.069
X3.871Y0.169
X3.871Y0.069
X3.971Y0.169
X3.971Y0.069
M30
