M48
; DRILL file {KiCad 8.0.4} date 2024-07-26T11:17:42-0700
; FORMAT={-:-/ absolute / inch / decimal}
; #@! TF.CreationDate,2024-07-26T11:17:42-07:00
; #@! TF.GenerationSoftware,Kicad,Pcbnew,8.0.4
; #@! TF.FileFunction,Plated,1,4,PTH
FMAT,2
INCH
; #@! TA.AperFunction,Plated,PTH,ViaDrill
T1C0.0118
; #@! TA.AperFunction,Plated,PTH,ViaDrill
T2C0.0157
; #@! TA.AperFunction,Plated,PTH,ComponentDrill
T3C0.0394
%
G90
G05
T1
X0.0468Y1.1855
X0.0468Y1.0855
X0.0468Y0.9855
X0.0468Y0.8855
X0.0468Y0.7855
X0.0468Y0.6855
X0.0468Y0.5855
X0.0468Y0.3855
X0.0468Y0.2855
X0.1718Y1.4605
X0.2718Y1.5605
X0.3718Y1.6605
X0.4718Y1.7605
X0.8468Y1.9105
X0.9118Y0.2755
X0.9468Y1.9105
X0.9818Y1.4655
X0.9918Y1.5605
X1.0468Y1.9105
X1.0568Y1.6155
X1.0618Y0.4805
X1.0618Y0.4005
X1.0868Y0.5355
X1.1018Y0.6705
X1.1118Y0.7205
X1.1418Y0.3405
X1.1468Y1.9105
X1.1618Y0.6205
X1.1893Y1.598
X1.195Y0.32
X1.2093Y1.563
X1.2118Y0.8355
X1.225Y0.5705
X1.2468Y1.9105
X1.2493Y0.683
X1.25Y1.015
X1.25Y0.955
X1.25Y0.835
X1.25Y0.775
X1.3518Y0.4555
X1.3568Y0.6705
X1.371Y0.3805
X1.45Y0.6305
X1.471Y0.4147
X1.5218Y1.7005
X1.5518Y0.4881
X1.5618Y0.7055
X1.5818Y0.5105
X1.655Y1.6855
X1.7123Y0.7955
X1.72Y1.6855
X1.7438Y0.8255
X1.7753Y1.4705
X1.7753Y0.799
X1.7968Y1.6855
X1.8468Y0.5105
X1.8818Y0.6655
X1.8868Y0.9205
X1.9343Y0.943
X1.9568Y0.6305
X1.96Y1.695
X1.9868Y0.9555
X2.02Y0.5705
X2.0218Y0.9905
X2.0509Y1.7309
X2.0587Y1.0255
X2.09Y1.0605
X2.1033Y1.695
X2.12Y1.1005
X2.1218Y1.1605
X2.1518Y0.2755
X2.1818Y1.6855
X2.1818Y0.5705
X2.1847Y1.0405
X2.2162Y1.0855
X2.2468Y0.5355
X2.2477Y1.1305
X2.2618Y1.6855
X2.2818Y1.1755
X2.3168Y0.9555
X2.3168Y0.6005
X2.3868Y0.4505
X2.4043Y1.658
X2.4168Y0.2805
X2.4868Y0.7255
X2.4968Y1.6605
X2.5043Y1.098
X2.5068Y0.8355
X2.5168Y0.7655
X2.54Y0.87
X2.5468Y1.7105
X2.5768Y0.9018
X2.5768Y0.7955
X2.5918Y0.5655
X2.6218Y0.5055
X2.6468Y1.9105
X2.6618Y0.4155
X2.7168Y0.3855
X2.7468Y1.9105
X2.8468Y1.9105
X2.9468Y1.9105
X3.0468Y1.9105
X3.1468Y1.9105
X3.2468Y1.9105
X3.3468Y1.9105
X3.4468Y1.9105
X3.5468Y1.9105
X3.6468Y1.9105
X3.9968Y1.6855
X3.9968Y1.5855
X3.9968Y1.4855
X3.9968Y1.3855
X3.9968Y1.2855
X3.9968Y1.1855
X3.9968Y1.0855
X3.9968Y0.9855
X3.9968Y0.8855
X3.9968Y0.7855
X3.9968Y0.6855
T2
X1.345Y1.92
X1.345Y1.78
X1.415Y1.92
X1.415Y1.78
X1.455Y1.06
X1.59Y1.06
X1.6268Y0.3105
X1.8168Y0.3123
X1.9818Y0.6655
X2.3718Y1.1222
X2.5418Y1.0605
X2.5568Y1.1005
X2.7168Y1.1005
X2.7168Y1.0405
T3
X0.071Y0.169
X0.071Y0.069
X0.171Y0.169
X0.171Y0.069
X0.271Y0.169
X0.271Y0.069
X0.371Y0.169
X0.371Y0.069
X0.471Y0.4955
X0.471Y0.3955
X0.471Y0.169
X0.471Y0.069
X0.571Y0.4955
X0.571Y0.3955
X0.571Y0.169
X0.571Y0.069
X0.671Y0.4955
X0.671Y0.3955
X0.671Y0.169
X0.671Y0.069
X0.771Y0.4955
X0.771Y0.3955
X0.771Y0.169
X0.771Y0.069
X0.871Y0.169
X0.871Y0.069
X0.971Y0.169
X0.971Y0.069
X1.071Y0.169
X1.071Y0.069
X1.171Y0.169
X1.171Y0.069
X1.271Y0.169
X1.271Y0.069
X1.371Y0.169
X1.371Y0.069
X1.471Y0.169
X1.471Y0.069
X1.5302Y1.8976
X1.5302Y1.7976
X1.571Y0.169
X1.571Y0.069
X1.6302Y1.8976
X1.6302Y1.7976
X1.671Y0.169
X1.671Y0.069
X1.7302Y1.8976
X1.7302Y1.7976
X1.771Y0.169
X1.771Y0.069
X1.8302Y1.8976
X1.8302Y1.7976
X1.871Y0.169
X1.871Y0.069
X1.9302Y1.8976
X1.9302Y1.7976
X1.971Y0.169
X1.971Y0.069
X2.0302Y1.8976
X2.0302Y1.7976
X2.071Y0.169
X2.071Y0.069
X2.1302Y1.8976
X2.1302Y1.7976
X2.171Y0.169
X2.171Y0.069
X2.2302Y1.8976
X2.2302Y1.7976
X2.271Y0.169
X2.271Y0.069
X2.3302Y1.8976
X2.3302Y1.7976
X2.371Y0.169
X2.371Y0.069
X2.4302Y1.8976
X2.4302Y1.7976
X2.471Y0.169
X2.471Y0.069
X2.571Y0.169
X2.571Y0.069
X2.671Y0.169
X2.671Y0.069
X2.771Y0.169
X2.771Y0.069
X2.871Y0.169
X2.871Y0.069
X2.971Y0.169
X2.971Y0.069
X3.071Y0.169
X3.071Y0.069
X3.171Y0.169
X3.171Y0.069
X3.2418Y0.4955
X3.2418Y0.3955
X3.271Y0.169
X3.271Y0.069
X3.3418Y0.4955
X3.3418Y0.3955
X3.371Y0.169
X3.371Y0.069
X3.4418Y0.4955
X3.4418Y0.3955
X3.471Y0.169
X3.471Y0.069
X3.5418Y0.4955
X3.5418Y0.3955
X3.571Y0.169
X3.571Y0.069
X3.6418Y0.4955
X3.6418Y0.3955
X3.671Y0.169
X3.671Y0.069
X3.7418Y0.4955
X3.7418Y0.3955
X3.771Y0.169
X3.771Y0.069
X3.871Y0.169
X3.871Y0.069
X3.971Y0.169
X3.971Y0.069
M30
