%TF.GenerationSoftware,KiCad,Pcbnew,8.0.4*%
%TF.CreationDate,2024-07-26T11:17:42-07:00*%
%TF.ProjectId,ZORO,5a4f524f-2e6b-4696-9361-645f70636258,0*%
%TF.SameCoordinates,Original*%
%TF.FileFunction,Legend,Bot*%
%TF.FilePolarity,Positive*%
%FSLAX46Y46*%
G04 Gerber Fmt 4.6, Leading zero omitted, Abs format (unit mm)*
G04 Created by KiCad (PCBNEW 8.0.4) date 2024-07-26 11:17:42*
%MOMM*%
%LPD*%
G01*
G04 APERTURE LIST*
G04 Aperture macros list*
%AMRoundRect*
0 Rectangle with rounded corners*
0 $1 Rounding radius*
0 $2 $3 $4 $5 $6 $7 $8 $9 X,Y pos of 4 corners*
0 Add a 4 corners polygon primitive as box body*
4,1,4,$2,$3,$4,$5,$6,$7,$8,$9,$2,$3,0*
0 Add four circle primitives for the rounded corners*
1,1,$1+$1,$2,$3*
1,1,$1+$1,$4,$5*
1,1,$1+$1,$6,$7*
1,1,$1+$1,$8,$9*
0 Add four rect primitives between the rounded corners*
20,1,$1+$1,$2,$3,$4,$5,0*
20,1,$1+$1,$4,$5,$6,$7,0*
20,1,$1+$1,$6,$7,$8,$9,0*
20,1,$1+$1,$8,$9,$2,$3,0*%
G04 Aperture macros list end*
%ADD10C,0.120000*%
%ADD11C,0.254000*%
%ADD12C,0.635000*%
%ADD13C,0.300000*%
%ADD14C,0.317500*%
%ADD15C,0.010000*%
%ADD16C,3.302000*%
%ADD17C,2.802000*%
%ADD18RoundRect,0.051000X0.850000X-0.850000X0.850000X0.850000X-0.850000X0.850000X-0.850000X-0.850000X0*%
%ADD19O,1.802000X1.802000*%
%ADD20RoundRect,0.051000X-0.850000X0.850000X-0.850000X-0.850000X0.850000X-0.850000X0.850000X0.850000X0*%
G04 APERTURE END LIST*
D10*
X68499220Y44533700D02*
X74912220Y44533700D01*
X74912220Y41089700D01*
X68499220Y41089700D01*
X68499220Y44533700D01*
G36*
X68499220Y44533700D02*
G01*
X74912220Y44533700D01*
X74912220Y41089700D01*
X68499220Y41089700D01*
X68499220Y44533700D01*
G37*
D11*
X67228720Y45351700D02*
X94533720Y45351700D01*
X94533720Y37223700D01*
X67228720Y37223700D01*
X67228720Y45351700D01*
D12*
X93435599Y44336668D02*
X91742266Y44336668D01*
X91742266Y44336668D02*
X93435599Y41796668D01*
X93435599Y41796668D02*
X91742266Y41796668D01*
X90290837Y44336668D02*
X89807028Y44336668D01*
X89807028Y44336668D02*
X89565123Y44215716D01*
X89565123Y44215716D02*
X89323218Y43973811D01*
X89323218Y43973811D02*
X89202266Y43490001D01*
X89202266Y43490001D02*
X89202266Y42643335D01*
X89202266Y42643335D02*
X89323218Y42159525D01*
X89323218Y42159525D02*
X89565123Y41917620D01*
X89565123Y41917620D02*
X89807028Y41796668D01*
X89807028Y41796668D02*
X90290837Y41796668D01*
X90290837Y41796668D02*
X90532742Y41917620D01*
X90532742Y41917620D02*
X90774647Y42159525D01*
X90774647Y42159525D02*
X90895599Y42643335D01*
X90895599Y42643335D02*
X90895599Y43490001D01*
X90895599Y43490001D02*
X90774647Y43973811D01*
X90774647Y43973811D02*
X90532742Y44215716D01*
X90532742Y44215716D02*
X90290837Y44336668D01*
X86662266Y41796668D02*
X87508933Y43006192D01*
X88113695Y41796668D02*
X88113695Y44336668D01*
X88113695Y44336668D02*
X87146076Y44336668D01*
X87146076Y44336668D02*
X86904171Y44215716D01*
X86904171Y44215716D02*
X86783218Y44094763D01*
X86783218Y44094763D02*
X86662266Y43852859D01*
X86662266Y43852859D02*
X86662266Y43490001D01*
X86662266Y43490001D02*
X86783218Y43248097D01*
X86783218Y43248097D02*
X86904171Y43127144D01*
X86904171Y43127144D02*
X87146076Y43006192D01*
X87146076Y43006192D02*
X88113695Y43006192D01*
X85089885Y44336668D02*
X84606076Y44336668D01*
X84606076Y44336668D02*
X84364171Y44215716D01*
X84364171Y44215716D02*
X84122266Y43973811D01*
X84122266Y43973811D02*
X84001314Y43490001D01*
X84001314Y43490001D02*
X84001314Y42643335D01*
X84001314Y42643335D02*
X84122266Y42159525D01*
X84122266Y42159525D02*
X84364171Y41917620D01*
X84364171Y41917620D02*
X84606076Y41796668D01*
X84606076Y41796668D02*
X85089885Y41796668D01*
X85089885Y41796668D02*
X85331790Y41917620D01*
X85331790Y41917620D02*
X85573695Y42159525D01*
X85573695Y42159525D02*
X85694647Y42643335D01*
X85694647Y42643335D02*
X85694647Y43490001D01*
X85694647Y43490001D02*
X85573695Y43973811D01*
X85573695Y43973811D02*
X85331790Y44215716D01*
X85331790Y44215716D02*
X85089885Y44336668D01*
D13*
X76547891Y6647354D02*
X76547891Y7575926D01*
X76547891Y7575926D02*
X75976462Y7075926D01*
X75976462Y7075926D02*
X75976462Y7290211D01*
X75976462Y7290211D02*
X75905034Y7433068D01*
X75905034Y7433068D02*
X75833605Y7504497D01*
X75833605Y7504497D02*
X75690748Y7575926D01*
X75690748Y7575926D02*
X75333605Y7575926D01*
X75333605Y7575926D02*
X75190748Y7504497D01*
X75190748Y7504497D02*
X75119320Y7433068D01*
X75119320Y7433068D02*
X75047891Y7290211D01*
X75047891Y7290211D02*
X75047891Y6861640D01*
X75047891Y6861640D02*
X75119320Y6718783D01*
X75119320Y6718783D02*
X75190748Y6647354D01*
X76547891Y8504497D02*
X76547891Y8647354D01*
X76547891Y8647354D02*
X76476462Y8790211D01*
X76476462Y8790211D02*
X76405034Y8861639D01*
X76405034Y8861639D02*
X76262177Y8933068D01*
X76262177Y8933068D02*
X75976462Y9004497D01*
X75976462Y9004497D02*
X75619320Y9004497D01*
X75619320Y9004497D02*
X75333605Y8933068D01*
X75333605Y8933068D02*
X75190748Y8861639D01*
X75190748Y8861639D02*
X75119320Y8790211D01*
X75119320Y8790211D02*
X75047891Y8647354D01*
X75047891Y8647354D02*
X75047891Y8504497D01*
X75047891Y8504497D02*
X75119320Y8361639D01*
X75119320Y8361639D02*
X75190748Y8290211D01*
X75190748Y8290211D02*
X75333605Y8218782D01*
X75333605Y8218782D02*
X75619320Y8147354D01*
X75619320Y8147354D02*
X75976462Y8147354D01*
X75976462Y8147354D02*
X76262177Y8218782D01*
X76262177Y8218782D02*
X76405034Y8290211D01*
X76405034Y8290211D02*
X76476462Y8361639D01*
X76476462Y8361639D02*
X76547891Y8504497D01*
X76619320Y10718782D02*
X74690748Y9433068D01*
X76547891Y11075925D02*
X76547891Y12075925D01*
X76547891Y12075925D02*
X75047891Y11433068D01*
X76547891Y12933068D02*
X76547891Y13075925D01*
X76547891Y13075925D02*
X76476462Y13218782D01*
X76476462Y13218782D02*
X76405034Y13290210D01*
X76405034Y13290210D02*
X76262177Y13361639D01*
X76262177Y13361639D02*
X75976462Y13433068D01*
X75976462Y13433068D02*
X75619320Y13433068D01*
X75619320Y13433068D02*
X75333605Y13361639D01*
X75333605Y13361639D02*
X75190748Y13290210D01*
X75190748Y13290210D02*
X75119320Y13218782D01*
X75119320Y13218782D02*
X75047891Y13075925D01*
X75047891Y13075925D02*
X75047891Y12933068D01*
X75047891Y12933068D02*
X75119320Y12790210D01*
X75119320Y12790210D02*
X75190748Y12718782D01*
X75190748Y12718782D02*
X75333605Y12647353D01*
X75333605Y12647353D02*
X75619320Y12575925D01*
X75619320Y12575925D02*
X75976462Y12575925D01*
X75976462Y12575925D02*
X76262177Y12647353D01*
X76262177Y12647353D02*
X76405034Y12718782D01*
X76405034Y12718782D02*
X76476462Y12790210D01*
X76476462Y12790210D02*
X76547891Y12933068D01*
X1641891Y7575926D02*
X1641891Y6718783D01*
X1641891Y7147354D02*
X3141891Y7147354D01*
X3141891Y7147354D02*
X2927605Y7004497D01*
X2927605Y7004497D02*
X2784748Y6861640D01*
X2784748Y6861640D02*
X2713320Y6718783D01*
X3213320Y9290211D02*
X1284748Y8004497D01*
X2641891Y16147353D02*
X1641891Y16147353D01*
X3213320Y15790211D02*
X2141891Y15433068D01*
X2141891Y15433068D02*
X2141891Y16361639D01*
X1641891Y17718782D02*
X1641891Y16861639D01*
X1641891Y17290210D02*
X3141891Y17290210D01*
X3141891Y17290210D02*
X2927605Y17147353D01*
X2927605Y17147353D02*
X2784748Y17004496D01*
X2784748Y17004496D02*
X2713320Y16861639D01*
D14*
X93426767Y39837179D02*
X92495434Y39837179D01*
X92495434Y39837179D02*
X93426767Y38313179D01*
X93426767Y38313179D02*
X92495434Y38313179D01*
X91763672Y39184036D02*
X91896720Y39256608D01*
X91896720Y39256608D02*
X91963243Y39329179D01*
X91963243Y39329179D02*
X92029767Y39474322D01*
X92029767Y39474322D02*
X92029767Y39546893D01*
X92029767Y39546893D02*
X91963243Y39692036D01*
X91963243Y39692036D02*
X91896720Y39764608D01*
X91896720Y39764608D02*
X91763672Y39837179D01*
X91763672Y39837179D02*
X91497577Y39837179D01*
X91497577Y39837179D02*
X91364529Y39764608D01*
X91364529Y39764608D02*
X91298005Y39692036D01*
X91298005Y39692036D02*
X91231482Y39546893D01*
X91231482Y39546893D02*
X91231482Y39474322D01*
X91231482Y39474322D02*
X91298005Y39329179D01*
X91298005Y39329179D02*
X91364529Y39256608D01*
X91364529Y39256608D02*
X91497577Y39184036D01*
X91497577Y39184036D02*
X91763672Y39184036D01*
X91763672Y39184036D02*
X91896720Y39111465D01*
X91896720Y39111465D02*
X91963243Y39038893D01*
X91963243Y39038893D02*
X92029767Y38893750D01*
X92029767Y38893750D02*
X92029767Y38603465D01*
X92029767Y38603465D02*
X91963243Y38458322D01*
X91963243Y38458322D02*
X91896720Y38385750D01*
X91896720Y38385750D02*
X91763672Y38313179D01*
X91763672Y38313179D02*
X91497577Y38313179D01*
X91497577Y38313179D02*
X91364529Y38385750D01*
X91364529Y38385750D02*
X91298005Y38458322D01*
X91298005Y38458322D02*
X91231482Y38603465D01*
X91231482Y38603465D02*
X91231482Y38893750D01*
X91231482Y38893750D02*
X91298005Y39038893D01*
X91298005Y39038893D02*
X91364529Y39111465D01*
X91364529Y39111465D02*
X91497577Y39184036D01*
X90699291Y38385750D02*
X90499720Y38313179D01*
X90499720Y38313179D02*
X90167101Y38313179D01*
X90167101Y38313179D02*
X90034053Y38385750D01*
X90034053Y38385750D02*
X89967529Y38458322D01*
X89967529Y38458322D02*
X89901006Y38603465D01*
X89901006Y38603465D02*
X89901006Y38748608D01*
X89901006Y38748608D02*
X89967529Y38893750D01*
X89967529Y38893750D02*
X90034053Y38966322D01*
X90034053Y38966322D02*
X90167101Y39038893D01*
X90167101Y39038893D02*
X90433196Y39111465D01*
X90433196Y39111465D02*
X90566244Y39184036D01*
X90566244Y39184036D02*
X90632767Y39256608D01*
X90632767Y39256608D02*
X90699291Y39401750D01*
X90699291Y39401750D02*
X90699291Y39546893D01*
X90699291Y39546893D02*
X90632767Y39692036D01*
X90632767Y39692036D02*
X90566244Y39764608D01*
X90566244Y39764608D02*
X90433196Y39837179D01*
X90433196Y39837179D02*
X90100577Y39837179D01*
X90100577Y39837179D02*
X89901006Y39764608D01*
X88570530Y38313179D02*
X89368815Y38313179D01*
X88969672Y38313179D02*
X88969672Y39837179D01*
X88969672Y39837179D02*
X89102720Y39619465D01*
X89102720Y39619465D02*
X89235768Y39474322D01*
X89235768Y39474322D02*
X89368815Y39401750D01*
X87772244Y39184036D02*
X87905292Y39256608D01*
X87905292Y39256608D02*
X87971815Y39329179D01*
X87971815Y39329179D02*
X88038339Y39474322D01*
X88038339Y39474322D02*
X88038339Y39546893D01*
X88038339Y39546893D02*
X87971815Y39692036D01*
X87971815Y39692036D02*
X87905292Y39764608D01*
X87905292Y39764608D02*
X87772244Y39837179D01*
X87772244Y39837179D02*
X87506149Y39837179D01*
X87506149Y39837179D02*
X87373101Y39764608D01*
X87373101Y39764608D02*
X87306577Y39692036D01*
X87306577Y39692036D02*
X87240054Y39546893D01*
X87240054Y39546893D02*
X87240054Y39474322D01*
X87240054Y39474322D02*
X87306577Y39329179D01*
X87306577Y39329179D02*
X87373101Y39256608D01*
X87373101Y39256608D02*
X87506149Y39184036D01*
X87506149Y39184036D02*
X87772244Y39184036D01*
X87772244Y39184036D02*
X87905292Y39111465D01*
X87905292Y39111465D02*
X87971815Y39038893D01*
X87971815Y39038893D02*
X88038339Y38893750D01*
X88038339Y38893750D02*
X88038339Y38603465D01*
X88038339Y38603465D02*
X87971815Y38458322D01*
X87971815Y38458322D02*
X87905292Y38385750D01*
X87905292Y38385750D02*
X87772244Y38313179D01*
X87772244Y38313179D02*
X87506149Y38313179D01*
X87506149Y38313179D02*
X87373101Y38385750D01*
X87373101Y38385750D02*
X87306577Y38458322D01*
X87306577Y38458322D02*
X87240054Y38603465D01*
X87240054Y38603465D02*
X87240054Y38893750D01*
X87240054Y38893750D02*
X87306577Y39038893D01*
X87306577Y39038893D02*
X87373101Y39111465D01*
X87373101Y39111465D02*
X87506149Y39184036D01*
X86375244Y39837179D02*
X86242197Y39837179D01*
X86242197Y39837179D02*
X86109149Y39764608D01*
X86109149Y39764608D02*
X86042625Y39692036D01*
X86042625Y39692036D02*
X85976101Y39546893D01*
X85976101Y39546893D02*
X85909578Y39256608D01*
X85909578Y39256608D02*
X85909578Y38893750D01*
X85909578Y38893750D02*
X85976101Y38603465D01*
X85976101Y38603465D02*
X86042625Y38458322D01*
X86042625Y38458322D02*
X86109149Y38385750D01*
X86109149Y38385750D02*
X86242197Y38313179D01*
X86242197Y38313179D02*
X86375244Y38313179D01*
X86375244Y38313179D02*
X86508292Y38385750D01*
X86508292Y38385750D02*
X86574816Y38458322D01*
X86574816Y38458322D02*
X86641339Y38603465D01*
X86641339Y38603465D02*
X86707863Y38893750D01*
X86707863Y38893750D02*
X86707863Y39256608D01*
X86707863Y39256608D02*
X86641339Y39546893D01*
X86641339Y39546893D02*
X86574816Y39692036D01*
X86574816Y39692036D02*
X86508292Y39764608D01*
X86508292Y39764608D02*
X86375244Y39837179D01*
X83980387Y39837179D02*
X83714292Y39837179D01*
X83714292Y39837179D02*
X83581244Y39764608D01*
X83581244Y39764608D02*
X83448197Y39619465D01*
X83448197Y39619465D02*
X83381673Y39329179D01*
X83381673Y39329179D02*
X83381673Y38821179D01*
X83381673Y38821179D02*
X83448197Y38530893D01*
X83448197Y38530893D02*
X83581244Y38385750D01*
X83581244Y38385750D02*
X83714292Y38313179D01*
X83714292Y38313179D02*
X83980387Y38313179D01*
X83980387Y38313179D02*
X84113435Y38385750D01*
X84113435Y38385750D02*
X84246482Y38530893D01*
X84246482Y38530893D02*
X84313006Y38821179D01*
X84313006Y38821179D02*
X84313006Y39329179D01*
X84313006Y39329179D02*
X84246482Y39619465D01*
X84246482Y39619465D02*
X84113435Y39764608D01*
X84113435Y39764608D02*
X83980387Y39837179D01*
X82782958Y39329179D02*
X82782958Y38313179D01*
X82782958Y39184036D02*
X82716435Y39256608D01*
X82716435Y39256608D02*
X82583387Y39329179D01*
X82583387Y39329179D02*
X82383816Y39329179D01*
X82383816Y39329179D02*
X82250768Y39256608D01*
X82250768Y39256608D02*
X82184244Y39111465D01*
X82184244Y39111465D02*
X82184244Y38313179D01*
X79656340Y38313179D02*
X80122006Y39038893D01*
X80454625Y38313179D02*
X80454625Y39837179D01*
X80454625Y39837179D02*
X79922435Y39837179D01*
X79922435Y39837179D02*
X79789387Y39764608D01*
X79789387Y39764608D02*
X79722864Y39692036D01*
X79722864Y39692036D02*
X79656340Y39546893D01*
X79656340Y39546893D02*
X79656340Y39329179D01*
X79656340Y39329179D02*
X79722864Y39184036D01*
X79722864Y39184036D02*
X79789387Y39111465D01*
X79789387Y39111465D02*
X79922435Y39038893D01*
X79922435Y39038893D02*
X80454625Y39038893D01*
X78259340Y38458322D02*
X78325864Y38385750D01*
X78325864Y38385750D02*
X78525435Y38313179D01*
X78525435Y38313179D02*
X78658483Y38313179D01*
X78658483Y38313179D02*
X78858054Y38385750D01*
X78858054Y38385750D02*
X78991102Y38530893D01*
X78991102Y38530893D02*
X79057625Y38676036D01*
X79057625Y38676036D02*
X79124149Y38966322D01*
X79124149Y38966322D02*
X79124149Y39184036D01*
X79124149Y39184036D02*
X79057625Y39474322D01*
X79057625Y39474322D02*
X78991102Y39619465D01*
X78991102Y39619465D02*
X78858054Y39764608D01*
X78858054Y39764608D02*
X78658483Y39837179D01*
X78658483Y39837179D02*
X78525435Y39837179D01*
X78525435Y39837179D02*
X78325864Y39764608D01*
X78325864Y39764608D02*
X78259340Y39692036D01*
X77194959Y39111465D02*
X76995387Y39038893D01*
X76995387Y39038893D02*
X76928864Y38966322D01*
X76928864Y38966322D02*
X76862340Y38821179D01*
X76862340Y38821179D02*
X76862340Y38603465D01*
X76862340Y38603465D02*
X76928864Y38458322D01*
X76928864Y38458322D02*
X76995387Y38385750D01*
X76995387Y38385750D02*
X77128435Y38313179D01*
X77128435Y38313179D02*
X77660625Y38313179D01*
X77660625Y38313179D02*
X77660625Y39837179D01*
X77660625Y39837179D02*
X77194959Y39837179D01*
X77194959Y39837179D02*
X77061911Y39764608D01*
X77061911Y39764608D02*
X76995387Y39692036D01*
X76995387Y39692036D02*
X76928864Y39546893D01*
X76928864Y39546893D02*
X76928864Y39401750D01*
X76928864Y39401750D02*
X76995387Y39256608D01*
X76995387Y39256608D02*
X77061911Y39184036D01*
X77061911Y39184036D02*
X77194959Y39111465D01*
X77194959Y39111465D02*
X77660625Y39111465D01*
X76263625Y39837179D02*
X76263625Y38603465D01*
X76263625Y38603465D02*
X76197102Y38458322D01*
X76197102Y38458322D02*
X76130578Y38385750D01*
X76130578Y38385750D02*
X75997530Y38313179D01*
X75997530Y38313179D02*
X75731435Y38313179D01*
X75731435Y38313179D02*
X75598387Y38385750D01*
X75598387Y38385750D02*
X75531864Y38458322D01*
X75531864Y38458322D02*
X75465340Y38603465D01*
X75465340Y38603465D02*
X75465340Y39837179D01*
X74866625Y38385750D02*
X74667054Y38313179D01*
X74667054Y38313179D02*
X74334435Y38313179D01*
X74334435Y38313179D02*
X74201387Y38385750D01*
X74201387Y38385750D02*
X74134863Y38458322D01*
X74134863Y38458322D02*
X74068340Y38603465D01*
X74068340Y38603465D02*
X74068340Y38748608D01*
X74068340Y38748608D02*
X74134863Y38893750D01*
X74134863Y38893750D02*
X74201387Y38966322D01*
X74201387Y38966322D02*
X74334435Y39038893D01*
X74334435Y39038893D02*
X74600530Y39111465D01*
X74600530Y39111465D02*
X74733578Y39184036D01*
X74733578Y39184036D02*
X74800101Y39256608D01*
X74800101Y39256608D02*
X74866625Y39401750D01*
X74866625Y39401750D02*
X74866625Y39546893D01*
X74866625Y39546893D02*
X74800101Y39692036D01*
X74800101Y39692036D02*
X74733578Y39764608D01*
X74733578Y39764608D02*
X74600530Y39837179D01*
X74600530Y39837179D02*
X74267911Y39837179D01*
X74267911Y39837179D02*
X74068340Y39764608D01*
X72139149Y39837179D02*
X71873054Y39837179D01*
X71873054Y39837179D02*
X71740006Y39764608D01*
X71740006Y39764608D02*
X71606959Y39619465D01*
X71606959Y39619465D02*
X71540435Y39329179D01*
X71540435Y39329179D02*
X71540435Y38821179D01*
X71540435Y38821179D02*
X71606959Y38530893D01*
X71606959Y38530893D02*
X71740006Y38385750D01*
X71740006Y38385750D02*
X71873054Y38313179D01*
X71873054Y38313179D02*
X72139149Y38313179D01*
X72139149Y38313179D02*
X72272197Y38385750D01*
X72272197Y38385750D02*
X72405244Y38530893D01*
X72405244Y38530893D02*
X72471768Y38821179D01*
X72471768Y38821179D02*
X72471768Y39329179D01*
X72471768Y39329179D02*
X72405244Y39619465D01*
X72405244Y39619465D02*
X72272197Y39764608D01*
X72272197Y39764608D02*
X72139149Y39837179D01*
X70941720Y39329179D02*
X70941720Y38313179D01*
X70941720Y39184036D02*
X70875197Y39256608D01*
X70875197Y39256608D02*
X70742149Y39329179D01*
X70742149Y39329179D02*
X70542578Y39329179D01*
X70542578Y39329179D02*
X70409530Y39256608D01*
X70409530Y39256608D02*
X70343006Y39111465D01*
X70343006Y39111465D02*
X70343006Y38313179D01*
X69478197Y38313179D02*
X69611245Y38385750D01*
X69611245Y38385750D02*
X69677768Y38530893D01*
X69677768Y38530893D02*
X69677768Y39837179D01*
X69079054Y39329179D02*
X68746435Y38313179D01*
X68413816Y39329179D02*
X68746435Y38313179D01*
X68746435Y38313179D02*
X68879483Y37950322D01*
X68879483Y37950322D02*
X68946006Y37877750D01*
X68946006Y37877750D02*
X69079054Y37805179D01*
D13*
X24247891Y7575926D02*
X24247891Y6718783D01*
X24247891Y7147354D02*
X25747891Y7147354D01*
X25747891Y7147354D02*
X25533605Y7004497D01*
X25533605Y7004497D02*
X25390748Y6861640D01*
X25390748Y6861640D02*
X25319320Y6718783D01*
X25747891Y8504497D02*
X25747891Y8647354D01*
X25747891Y8647354D02*
X25676462Y8790211D01*
X25676462Y8790211D02*
X25605034Y8861639D01*
X25605034Y8861639D02*
X25462177Y8933068D01*
X25462177Y8933068D02*
X25176462Y9004497D01*
X25176462Y9004497D02*
X24819320Y9004497D01*
X24819320Y9004497D02*
X24533605Y8933068D01*
X24533605Y8933068D02*
X24390748Y8861639D01*
X24390748Y8861639D02*
X24319320Y8790211D01*
X24319320Y8790211D02*
X24247891Y8647354D01*
X24247891Y8647354D02*
X24247891Y8504497D01*
X24247891Y8504497D02*
X24319320Y8361639D01*
X24319320Y8361639D02*
X24390748Y8290211D01*
X24390748Y8290211D02*
X24533605Y8218782D01*
X24533605Y8218782D02*
X24819320Y8147354D01*
X24819320Y8147354D02*
X25176462Y8147354D01*
X25176462Y8147354D02*
X25462177Y8218782D01*
X25462177Y8218782D02*
X25605034Y8290211D01*
X25605034Y8290211D02*
X25676462Y8361639D01*
X25676462Y8361639D02*
X25747891Y8504497D01*
X25819320Y10718782D02*
X23890748Y9433068D01*
X25747891Y11933068D02*
X25747891Y11218782D01*
X25747891Y11218782D02*
X25033605Y11147354D01*
X25033605Y11147354D02*
X25105034Y11218782D01*
X25105034Y11218782D02*
X25176462Y11361639D01*
X25176462Y11361639D02*
X25176462Y11718782D01*
X25176462Y11718782D02*
X25105034Y11861639D01*
X25105034Y11861639D02*
X25033605Y11933068D01*
X25033605Y11933068D02*
X24890748Y12004497D01*
X24890748Y12004497D02*
X24533605Y12004497D01*
X24533605Y12004497D02*
X24390748Y11933068D01*
X24390748Y11933068D02*
X24319320Y11861639D01*
X24319320Y11861639D02*
X24247891Y11718782D01*
X24247891Y11718782D02*
X24247891Y11361639D01*
X24247891Y11361639D02*
X24319320Y11218782D01*
X24319320Y11218782D02*
X24390748Y11147354D01*
X25747891Y12933068D02*
X25747891Y13075925D01*
X25747891Y13075925D02*
X25676462Y13218782D01*
X25676462Y13218782D02*
X25605034Y13290210D01*
X25605034Y13290210D02*
X25462177Y13361639D01*
X25462177Y13361639D02*
X25176462Y13433068D01*
X25176462Y13433068D02*
X24819320Y13433068D01*
X24819320Y13433068D02*
X24533605Y13361639D01*
X24533605Y13361639D02*
X24390748Y13290210D01*
X24390748Y13290210D02*
X24319320Y13218782D01*
X24319320Y13218782D02*
X24247891Y13075925D01*
X24247891Y13075925D02*
X24247891Y12933068D01*
X24247891Y12933068D02*
X24319320Y12790210D01*
X24319320Y12790210D02*
X24390748Y12718782D01*
X24390748Y12718782D02*
X24533605Y12647353D01*
X24533605Y12647353D02*
X24819320Y12575925D01*
X24819320Y12575925D02*
X25176462Y12575925D01*
X25176462Y12575925D02*
X25462177Y12647353D01*
X25462177Y12647353D02*
X25605034Y12718782D01*
X25605034Y12718782D02*
X25676462Y12790210D01*
X25676462Y12790210D02*
X25747891Y12933068D01*
D14*
X88048619Y30495179D02*
X88048619Y32019179D01*
X88048619Y32019179D02*
X87716000Y32019179D01*
X87716000Y32019179D02*
X87516429Y31946608D01*
X87516429Y31946608D02*
X87383381Y31801465D01*
X87383381Y31801465D02*
X87316858Y31656322D01*
X87316858Y31656322D02*
X87250334Y31366036D01*
X87250334Y31366036D02*
X87250334Y31148322D01*
X87250334Y31148322D02*
X87316858Y30858036D01*
X87316858Y30858036D02*
X87383381Y30712893D01*
X87383381Y30712893D02*
X87516429Y30567750D01*
X87516429Y30567750D02*
X87716000Y30495179D01*
X87716000Y30495179D02*
X88048619Y30495179D01*
X86119429Y30567750D02*
X86252477Y30495179D01*
X86252477Y30495179D02*
X86518572Y30495179D01*
X86518572Y30495179D02*
X86651619Y30567750D01*
X86651619Y30567750D02*
X86718143Y30712893D01*
X86718143Y30712893D02*
X86718143Y31293465D01*
X86718143Y31293465D02*
X86651619Y31438608D01*
X86651619Y31438608D02*
X86518572Y31511179D01*
X86518572Y31511179D02*
X86252477Y31511179D01*
X86252477Y31511179D02*
X86119429Y31438608D01*
X86119429Y31438608D02*
X86052905Y31293465D01*
X86052905Y31293465D02*
X86052905Y31148322D01*
X86052905Y31148322D02*
X86718143Y31003179D01*
X85454190Y31511179D02*
X85454190Y30495179D01*
X85454190Y31366036D02*
X85387667Y31438608D01*
X85387667Y31438608D02*
X85254619Y31511179D01*
X85254619Y31511179D02*
X85055048Y31511179D01*
X85055048Y31511179D02*
X84922000Y31438608D01*
X84922000Y31438608D02*
X84855476Y31293465D01*
X84855476Y31293465D02*
X84855476Y30495179D01*
X84190238Y31511179D02*
X84190238Y30495179D01*
X84190238Y31366036D02*
X84123715Y31438608D01*
X84123715Y31438608D02*
X83990667Y31511179D01*
X83990667Y31511179D02*
X83791096Y31511179D01*
X83791096Y31511179D02*
X83658048Y31438608D01*
X83658048Y31438608D02*
X83591524Y31293465D01*
X83591524Y31293465D02*
X83591524Y30495179D01*
X82726715Y30495179D02*
X82859763Y30567750D01*
X82859763Y30567750D02*
X82926286Y30640322D01*
X82926286Y30640322D02*
X82992810Y30785465D01*
X82992810Y30785465D02*
X82992810Y31220893D01*
X82992810Y31220893D02*
X82926286Y31366036D01*
X82926286Y31366036D02*
X82859763Y31438608D01*
X82859763Y31438608D02*
X82726715Y31511179D01*
X82726715Y31511179D02*
X82527144Y31511179D01*
X82527144Y31511179D02*
X82394096Y31438608D01*
X82394096Y31438608D02*
X82327572Y31366036D01*
X82327572Y31366036D02*
X82261048Y31220893D01*
X82261048Y31220893D02*
X82261048Y30785465D01*
X82261048Y30785465D02*
X82327572Y30640322D01*
X82327572Y30640322D02*
X82394096Y30567750D01*
X82394096Y30567750D02*
X82527144Y30495179D01*
X82527144Y30495179D02*
X82726715Y30495179D01*
X80731001Y32019179D02*
X80398382Y30495179D01*
X80398382Y30495179D02*
X80132287Y31583750D01*
X80132287Y31583750D02*
X79866192Y30495179D01*
X79866192Y30495179D02*
X79533573Y32019179D01*
X79001382Y30495179D02*
X79001382Y31511179D01*
X79001382Y32019179D02*
X79067906Y31946608D01*
X79067906Y31946608D02*
X79001382Y31874036D01*
X79001382Y31874036D02*
X78934859Y31946608D01*
X78934859Y31946608D02*
X79001382Y32019179D01*
X79001382Y32019179D02*
X79001382Y31874036D01*
X77737430Y31511179D02*
X77737430Y30277465D01*
X77737430Y30277465D02*
X77803954Y30132322D01*
X77803954Y30132322D02*
X77870478Y30059750D01*
X77870478Y30059750D02*
X78003525Y29987179D01*
X78003525Y29987179D02*
X78203097Y29987179D01*
X78203097Y29987179D02*
X78336144Y30059750D01*
X77737430Y30567750D02*
X77870478Y30495179D01*
X77870478Y30495179D02*
X78136573Y30495179D01*
X78136573Y30495179D02*
X78269621Y30567750D01*
X78269621Y30567750D02*
X78336144Y30640322D01*
X78336144Y30640322D02*
X78402668Y30785465D01*
X78402668Y30785465D02*
X78402668Y31220893D01*
X78402668Y31220893D02*
X78336144Y31366036D01*
X78336144Y31366036D02*
X78269621Y31438608D01*
X78269621Y31438608D02*
X78136573Y31511179D01*
X78136573Y31511179D02*
X77870478Y31511179D01*
X77870478Y31511179D02*
X77737430Y31438608D01*
X76473478Y31511179D02*
X76473478Y30277465D01*
X76473478Y30277465D02*
X76540002Y30132322D01*
X76540002Y30132322D02*
X76606526Y30059750D01*
X76606526Y30059750D02*
X76739573Y29987179D01*
X76739573Y29987179D02*
X76939145Y29987179D01*
X76939145Y29987179D02*
X77072192Y30059750D01*
X76473478Y30567750D02*
X76606526Y30495179D01*
X76606526Y30495179D02*
X76872621Y30495179D01*
X76872621Y30495179D02*
X77005669Y30567750D01*
X77005669Y30567750D02*
X77072192Y30640322D01*
X77072192Y30640322D02*
X77138716Y30785465D01*
X77138716Y30785465D02*
X77138716Y31220893D01*
X77138716Y31220893D02*
X77072192Y31366036D01*
X77072192Y31366036D02*
X77005669Y31438608D01*
X77005669Y31438608D02*
X76872621Y31511179D01*
X76872621Y31511179D02*
X76606526Y31511179D01*
X76606526Y31511179D02*
X76473478Y31438608D01*
X75608669Y30495179D02*
X75741717Y30567750D01*
X75741717Y30567750D02*
X75808240Y30712893D01*
X75808240Y30712893D02*
X75808240Y32019179D01*
X74544288Y30567750D02*
X74677336Y30495179D01*
X74677336Y30495179D02*
X74943431Y30495179D01*
X74943431Y30495179D02*
X75076478Y30567750D01*
X75076478Y30567750D02*
X75143002Y30712893D01*
X75143002Y30712893D02*
X75143002Y31293465D01*
X75143002Y31293465D02*
X75076478Y31438608D01*
X75076478Y31438608D02*
X74943431Y31511179D01*
X74943431Y31511179D02*
X74677336Y31511179D01*
X74677336Y31511179D02*
X74544288Y31438608D01*
X74544288Y31438608D02*
X74477764Y31293465D01*
X74477764Y31293465D02*
X74477764Y31148322D01*
X74477764Y31148322D02*
X75143002Y31003179D01*
X89891934Y33866122D02*
X89958458Y33793550D01*
X89958458Y33793550D02*
X90158029Y33720979D01*
X90158029Y33720979D02*
X90291077Y33720979D01*
X90291077Y33720979D02*
X90490648Y33793550D01*
X90490648Y33793550D02*
X90623696Y33938693D01*
X90623696Y33938693D02*
X90690219Y34083836D01*
X90690219Y34083836D02*
X90756743Y34374122D01*
X90756743Y34374122D02*
X90756743Y34591836D01*
X90756743Y34591836D02*
X90690219Y34882122D01*
X90690219Y34882122D02*
X90623696Y35027265D01*
X90623696Y35027265D02*
X90490648Y35172408D01*
X90490648Y35172408D02*
X90291077Y35244979D01*
X90291077Y35244979D02*
X90158029Y35244979D01*
X90158029Y35244979D02*
X89958458Y35172408D01*
X89958458Y35172408D02*
X89891934Y35099836D01*
X89093648Y33720979D02*
X89226696Y33793550D01*
X89226696Y33793550D02*
X89293219Y33866122D01*
X89293219Y33866122D02*
X89359743Y34011265D01*
X89359743Y34011265D02*
X89359743Y34446693D01*
X89359743Y34446693D02*
X89293219Y34591836D01*
X89293219Y34591836D02*
X89226696Y34664408D01*
X89226696Y34664408D02*
X89093648Y34736979D01*
X89093648Y34736979D02*
X88894077Y34736979D01*
X88894077Y34736979D02*
X88761029Y34664408D01*
X88761029Y34664408D02*
X88694505Y34591836D01*
X88694505Y34591836D02*
X88627981Y34446693D01*
X88627981Y34446693D02*
X88627981Y34011265D01*
X88627981Y34011265D02*
X88694505Y33866122D01*
X88694505Y33866122D02*
X88761029Y33793550D01*
X88761029Y33793550D02*
X88894077Y33720979D01*
X88894077Y33720979D02*
X89093648Y33720979D01*
X88029267Y34736979D02*
X88029267Y33212979D01*
X88029267Y34664408D02*
X87896220Y34736979D01*
X87896220Y34736979D02*
X87630125Y34736979D01*
X87630125Y34736979D02*
X87497077Y34664408D01*
X87497077Y34664408D02*
X87430553Y34591836D01*
X87430553Y34591836D02*
X87364029Y34446693D01*
X87364029Y34446693D02*
X87364029Y34011265D01*
X87364029Y34011265D02*
X87430553Y33866122D01*
X87430553Y33866122D02*
X87497077Y33793550D01*
X87497077Y33793550D02*
X87630125Y33720979D01*
X87630125Y33720979D02*
X87896220Y33720979D01*
X87896220Y33720979D02*
X88029267Y33793550D01*
X86898363Y34736979D02*
X86565744Y33720979D01*
X86233125Y34736979D02*
X86565744Y33720979D01*
X86565744Y33720979D02*
X86698792Y33358122D01*
X86698792Y33358122D02*
X86765315Y33285550D01*
X86765315Y33285550D02*
X86898363Y33212979D01*
X85700934Y33720979D02*
X85700934Y34736979D01*
X85700934Y34446693D02*
X85634411Y34591836D01*
X85634411Y34591836D02*
X85567887Y34664408D01*
X85567887Y34664408D02*
X85434839Y34736979D01*
X85434839Y34736979D02*
X85301792Y34736979D01*
X84836124Y33720979D02*
X84836124Y34736979D01*
X84836124Y35244979D02*
X84902648Y35172408D01*
X84902648Y35172408D02*
X84836124Y35099836D01*
X84836124Y35099836D02*
X84769601Y35172408D01*
X84769601Y35172408D02*
X84836124Y35244979D01*
X84836124Y35244979D02*
X84836124Y35099836D01*
X83572172Y34736979D02*
X83572172Y33503265D01*
X83572172Y33503265D02*
X83638696Y33358122D01*
X83638696Y33358122D02*
X83705220Y33285550D01*
X83705220Y33285550D02*
X83838267Y33212979D01*
X83838267Y33212979D02*
X84037839Y33212979D01*
X84037839Y33212979D02*
X84170886Y33285550D01*
X83572172Y33793550D02*
X83705220Y33720979D01*
X83705220Y33720979D02*
X83971315Y33720979D01*
X83971315Y33720979D02*
X84104363Y33793550D01*
X84104363Y33793550D02*
X84170886Y33866122D01*
X84170886Y33866122D02*
X84237410Y34011265D01*
X84237410Y34011265D02*
X84237410Y34446693D01*
X84237410Y34446693D02*
X84170886Y34591836D01*
X84170886Y34591836D02*
X84104363Y34664408D01*
X84104363Y34664408D02*
X83971315Y34736979D01*
X83971315Y34736979D02*
X83705220Y34736979D01*
X83705220Y34736979D02*
X83572172Y34664408D01*
X82906934Y33720979D02*
X82906934Y35244979D01*
X82308220Y33720979D02*
X82308220Y34519265D01*
X82308220Y34519265D02*
X82374744Y34664408D01*
X82374744Y34664408D02*
X82507792Y34736979D01*
X82507792Y34736979D02*
X82707363Y34736979D01*
X82707363Y34736979D02*
X82840411Y34664408D01*
X82840411Y34664408D02*
X82906934Y34591836D01*
X81842554Y34736979D02*
X81310363Y34736979D01*
X81642982Y35244979D02*
X81642982Y33938693D01*
X81642982Y33938693D02*
X81576459Y33793550D01*
X81576459Y33793550D02*
X81443411Y33720979D01*
X81443411Y33720979D02*
X81310363Y33720979D01*
X78649411Y34882122D02*
X78782458Y34954693D01*
X78782458Y34954693D02*
X79048554Y34954693D01*
X79048554Y34954693D02*
X79181601Y34882122D01*
X79181601Y34882122D02*
X79314649Y34736979D01*
X79314649Y34736979D02*
X79381173Y34591836D01*
X79381173Y34591836D02*
X79381173Y34301550D01*
X79381173Y34301550D02*
X79314649Y34156408D01*
X79314649Y34156408D02*
X79181601Y34011265D01*
X79181601Y34011265D02*
X79048554Y33938693D01*
X79048554Y33938693D02*
X78782458Y33938693D01*
X78782458Y33938693D02*
X78649411Y34011265D01*
X78915506Y35462693D02*
X79248125Y35390122D01*
X79248125Y35390122D02*
X79580744Y35172408D01*
X79580744Y35172408D02*
X79780315Y34809550D01*
X79780315Y34809550D02*
X79846839Y34446693D01*
X79846839Y34446693D02*
X79780315Y34083836D01*
X79780315Y34083836D02*
X79580744Y33720979D01*
X79580744Y33720979D02*
X79248125Y33503265D01*
X79248125Y33503265D02*
X78915506Y33430693D01*
X78915506Y33430693D02*
X78582887Y33503265D01*
X78582887Y33503265D02*
X78250268Y33720979D01*
X78250268Y33720979D02*
X78050696Y34083836D01*
X78050696Y34083836D02*
X77984173Y34446693D01*
X77984173Y34446693D02*
X78050696Y34809550D01*
X78050696Y34809550D02*
X78250268Y35172408D01*
X78250268Y35172408D02*
X78582887Y35390122D01*
X78582887Y35390122D02*
X78915506Y35462693D01*
X76387601Y35099836D02*
X76321077Y35172408D01*
X76321077Y35172408D02*
X76188030Y35244979D01*
X76188030Y35244979D02*
X75855411Y35244979D01*
X75855411Y35244979D02*
X75722363Y35172408D01*
X75722363Y35172408D02*
X75655839Y35099836D01*
X75655839Y35099836D02*
X75589316Y34954693D01*
X75589316Y34954693D02*
X75589316Y34809550D01*
X75589316Y34809550D02*
X75655839Y34591836D01*
X75655839Y34591836D02*
X76454125Y33720979D01*
X76454125Y33720979D02*
X75589316Y33720979D01*
X74724506Y35244979D02*
X74591459Y35244979D01*
X74591459Y35244979D02*
X74458411Y35172408D01*
X74458411Y35172408D02*
X74391887Y35099836D01*
X74391887Y35099836D02*
X74325363Y34954693D01*
X74325363Y34954693D02*
X74258840Y34664408D01*
X74258840Y34664408D02*
X74258840Y34301550D01*
X74258840Y34301550D02*
X74325363Y34011265D01*
X74325363Y34011265D02*
X74391887Y33866122D01*
X74391887Y33866122D02*
X74458411Y33793550D01*
X74458411Y33793550D02*
X74591459Y33720979D01*
X74591459Y33720979D02*
X74724506Y33720979D01*
X74724506Y33720979D02*
X74857554Y33793550D01*
X74857554Y33793550D02*
X74924078Y33866122D01*
X74924078Y33866122D02*
X74990601Y34011265D01*
X74990601Y34011265D02*
X75057125Y34301550D01*
X75057125Y34301550D02*
X75057125Y34664408D01*
X75057125Y34664408D02*
X74990601Y34954693D01*
X74990601Y34954693D02*
X74924078Y35099836D01*
X74924078Y35099836D02*
X74857554Y35172408D01*
X74857554Y35172408D02*
X74724506Y35244979D01*
X73726649Y35099836D02*
X73660125Y35172408D01*
X73660125Y35172408D02*
X73527078Y35244979D01*
X73527078Y35244979D02*
X73194459Y35244979D01*
X73194459Y35244979D02*
X73061411Y35172408D01*
X73061411Y35172408D02*
X72994887Y35099836D01*
X72994887Y35099836D02*
X72928364Y34954693D01*
X72928364Y34954693D02*
X72928364Y34809550D01*
X72928364Y34809550D02*
X72994887Y34591836D01*
X72994887Y34591836D02*
X73793173Y33720979D01*
X73793173Y33720979D02*
X72928364Y33720979D01*
X71730935Y34736979D02*
X71730935Y33720979D01*
X72063554Y35317550D02*
X72396173Y34228979D01*
X72396173Y34228979D02*
X71531364Y34228979D01*
X80875434Y42067179D02*
X81341100Y42792893D01*
X81673719Y42067179D02*
X81673719Y43591179D01*
X81673719Y43591179D02*
X81141529Y43591179D01*
X81141529Y43591179D02*
X81008481Y43518608D01*
X81008481Y43518608D02*
X80941958Y43446036D01*
X80941958Y43446036D02*
X80875434Y43300893D01*
X80875434Y43300893D02*
X80875434Y43083179D01*
X80875434Y43083179D02*
X80941958Y42938036D01*
X80941958Y42938036D02*
X81008481Y42865465D01*
X81008481Y42865465D02*
X81141529Y42792893D01*
X81141529Y42792893D02*
X81673719Y42792893D01*
X79744529Y42139750D02*
X79877577Y42067179D01*
X79877577Y42067179D02*
X80143672Y42067179D01*
X80143672Y42067179D02*
X80276719Y42139750D01*
X80276719Y42139750D02*
X80343243Y42284893D01*
X80343243Y42284893D02*
X80343243Y42865465D01*
X80343243Y42865465D02*
X80276719Y43010608D01*
X80276719Y43010608D02*
X80143672Y43083179D01*
X80143672Y43083179D02*
X79877577Y43083179D01*
X79877577Y43083179D02*
X79744529Y43010608D01*
X79744529Y43010608D02*
X79678005Y42865465D01*
X79678005Y42865465D02*
X79678005Y42720322D01*
X79678005Y42720322D02*
X80343243Y42575179D01*
X79212338Y43083179D02*
X78879719Y42067179D01*
X78879719Y42067179D02*
X78547100Y43083179D01*
X76684433Y43591179D02*
X76551386Y43591179D01*
X76551386Y43591179D02*
X76418338Y43518608D01*
X76418338Y43518608D02*
X76351814Y43446036D01*
X76351814Y43446036D02*
X76285290Y43300893D01*
X76285290Y43300893D02*
X76218767Y43010608D01*
X76218767Y43010608D02*
X76218767Y42647750D01*
X76218767Y42647750D02*
X76285290Y42357465D01*
X76285290Y42357465D02*
X76351814Y42212322D01*
X76351814Y42212322D02*
X76418338Y42139750D01*
X76418338Y42139750D02*
X76551386Y42067179D01*
X76551386Y42067179D02*
X76684433Y42067179D01*
X76684433Y42067179D02*
X76817481Y42139750D01*
X76817481Y42139750D02*
X76884005Y42212322D01*
X76884005Y42212322D02*
X76950528Y42357465D01*
X76950528Y42357465D02*
X77017052Y42647750D01*
X77017052Y42647750D02*
X77017052Y43010608D01*
X77017052Y43010608D02*
X76950528Y43300893D01*
X76950528Y43300893D02*
X76884005Y43446036D01*
X76884005Y43446036D02*
X76817481Y43518608D01*
X76817481Y43518608D02*
X76684433Y43591179D01*
D13*
X51005034Y6718783D02*
X51076462Y6790211D01*
X51076462Y6790211D02*
X51147891Y6933068D01*
X51147891Y6933068D02*
X51147891Y7290211D01*
X51147891Y7290211D02*
X51076462Y7433068D01*
X51076462Y7433068D02*
X51005034Y7504497D01*
X51005034Y7504497D02*
X50862177Y7575926D01*
X50862177Y7575926D02*
X50719320Y7575926D01*
X50719320Y7575926D02*
X50505034Y7504497D01*
X50505034Y7504497D02*
X49647891Y6647354D01*
X49647891Y6647354D02*
X49647891Y7575926D01*
X51147891Y8504497D02*
X51147891Y8647354D01*
X51147891Y8647354D02*
X51076462Y8790211D01*
X51076462Y8790211D02*
X51005034Y8861639D01*
X51005034Y8861639D02*
X50862177Y8933068D01*
X50862177Y8933068D02*
X50576462Y9004497D01*
X50576462Y9004497D02*
X50219320Y9004497D01*
X50219320Y9004497D02*
X49933605Y8933068D01*
X49933605Y8933068D02*
X49790748Y8861639D01*
X49790748Y8861639D02*
X49719320Y8790211D01*
X49719320Y8790211D02*
X49647891Y8647354D01*
X49647891Y8647354D02*
X49647891Y8504497D01*
X49647891Y8504497D02*
X49719320Y8361639D01*
X49719320Y8361639D02*
X49790748Y8290211D01*
X49790748Y8290211D02*
X49933605Y8218782D01*
X49933605Y8218782D02*
X50219320Y8147354D01*
X50219320Y8147354D02*
X50576462Y8147354D01*
X50576462Y8147354D02*
X50862177Y8218782D01*
X50862177Y8218782D02*
X51005034Y8290211D01*
X51005034Y8290211D02*
X51076462Y8361639D01*
X51076462Y8361639D02*
X51147891Y8504497D01*
X51219320Y10718782D02*
X49290748Y9433068D01*
X51147891Y11861639D02*
X51147891Y11575925D01*
X51147891Y11575925D02*
X51076462Y11433068D01*
X51076462Y11433068D02*
X51005034Y11361639D01*
X51005034Y11361639D02*
X50790748Y11218782D01*
X50790748Y11218782D02*
X50505034Y11147354D01*
X50505034Y11147354D02*
X49933605Y11147354D01*
X49933605Y11147354D02*
X49790748Y11218782D01*
X49790748Y11218782D02*
X49719320Y11290211D01*
X49719320Y11290211D02*
X49647891Y11433068D01*
X49647891Y11433068D02*
X49647891Y11718782D01*
X49647891Y11718782D02*
X49719320Y11861639D01*
X49719320Y11861639D02*
X49790748Y11933068D01*
X49790748Y11933068D02*
X49933605Y12004497D01*
X49933605Y12004497D02*
X50290748Y12004497D01*
X50290748Y12004497D02*
X50433605Y11933068D01*
X50433605Y11933068D02*
X50505034Y11861639D01*
X50505034Y11861639D02*
X50576462Y11718782D01*
X50576462Y11718782D02*
X50576462Y11433068D01*
X50576462Y11433068D02*
X50505034Y11290211D01*
X50505034Y11290211D02*
X50433605Y11218782D01*
X50433605Y11218782D02*
X50290748Y11147354D01*
X51147891Y12933068D02*
X51147891Y13075925D01*
X51147891Y13075925D02*
X51076462Y13218782D01*
X51076462Y13218782D02*
X51005034Y13290210D01*
X51005034Y13290210D02*
X50862177Y13361639D01*
X50862177Y13361639D02*
X50576462Y13433068D01*
X50576462Y13433068D02*
X50219320Y13433068D01*
X50219320Y13433068D02*
X49933605Y13361639D01*
X49933605Y13361639D02*
X49790748Y13290210D01*
X49790748Y13290210D02*
X49719320Y13218782D01*
X49719320Y13218782D02*
X49647891Y13075925D01*
X49647891Y13075925D02*
X49647891Y12933068D01*
X49647891Y12933068D02*
X49719320Y12790210D01*
X49719320Y12790210D02*
X49790748Y12718782D01*
X49790748Y12718782D02*
X49933605Y12647353D01*
X49933605Y12647353D02*
X50219320Y12575925D01*
X50219320Y12575925D02*
X50576462Y12575925D01*
X50576462Y12575925D02*
X50862177Y12647353D01*
X50862177Y12647353D02*
X51005034Y12718782D01*
X51005034Y12718782D02*
X51076462Y12790210D01*
X51076462Y12790210D02*
X51147891Y12933068D01*
X101447891Y7433068D02*
X100447891Y7433068D01*
X102019320Y7075926D02*
X100947891Y6718783D01*
X100947891Y6718783D02*
X100947891Y7647354D01*
X101947891Y8504497D02*
X101947891Y8647354D01*
X101947891Y8647354D02*
X101876462Y8790211D01*
X101876462Y8790211D02*
X101805034Y8861639D01*
X101805034Y8861639D02*
X101662177Y8933068D01*
X101662177Y8933068D02*
X101376462Y9004497D01*
X101376462Y9004497D02*
X101019320Y9004497D01*
X101019320Y9004497D02*
X100733605Y8933068D01*
X100733605Y8933068D02*
X100590748Y8861639D01*
X100590748Y8861639D02*
X100519320Y8790211D01*
X100519320Y8790211D02*
X100447891Y8647354D01*
X100447891Y8647354D02*
X100447891Y8504497D01*
X100447891Y8504497D02*
X100519320Y8361639D01*
X100519320Y8361639D02*
X100590748Y8290211D01*
X100590748Y8290211D02*
X100733605Y8218782D01*
X100733605Y8218782D02*
X101019320Y8147354D01*
X101019320Y8147354D02*
X101376462Y8147354D01*
X101376462Y8147354D02*
X101662177Y8218782D01*
X101662177Y8218782D02*
X101805034Y8290211D01*
X101805034Y8290211D02*
X101876462Y8361639D01*
X101876462Y8361639D02*
X101947891Y8504497D01*
X102019320Y17575924D02*
X100090748Y16290210D01*
X101305034Y18290210D02*
X101376462Y18147353D01*
X101376462Y18147353D02*
X101447891Y18075924D01*
X101447891Y18075924D02*
X101590748Y18004496D01*
X101590748Y18004496D02*
X101662177Y18004496D01*
X101662177Y18004496D02*
X101805034Y18075924D01*
X101805034Y18075924D02*
X101876462Y18147353D01*
X101876462Y18147353D02*
X101947891Y18290210D01*
X101947891Y18290210D02*
X101947891Y18575924D01*
X101947891Y18575924D02*
X101876462Y18718781D01*
X101876462Y18718781D02*
X101805034Y18790210D01*
X101805034Y18790210D02*
X101662177Y18861639D01*
X101662177Y18861639D02*
X101590748Y18861639D01*
X101590748Y18861639D02*
X101447891Y18790210D01*
X101447891Y18790210D02*
X101376462Y18718781D01*
X101376462Y18718781D02*
X101305034Y18575924D01*
X101305034Y18575924D02*
X101305034Y18290210D01*
X101305034Y18290210D02*
X101233605Y18147353D01*
X101233605Y18147353D02*
X101162177Y18075924D01*
X101162177Y18075924D02*
X101019320Y18004496D01*
X101019320Y18004496D02*
X100733605Y18004496D01*
X100733605Y18004496D02*
X100590748Y18075924D01*
X100590748Y18075924D02*
X100519320Y18147353D01*
X100519320Y18147353D02*
X100447891Y18290210D01*
X100447891Y18290210D02*
X100447891Y18575924D01*
X100447891Y18575924D02*
X100519320Y18718781D01*
X100519320Y18718781D02*
X100590748Y18790210D01*
X100590748Y18790210D02*
X100733605Y18861639D01*
X100733605Y18861639D02*
X101019320Y18861639D01*
X101019320Y18861639D02*
X101162177Y18790210D01*
X101162177Y18790210D02*
X101233605Y18718781D01*
X101233605Y18718781D02*
X101305034Y18575924D01*
X101947891Y19790210D02*
X101947891Y19933067D01*
X101947891Y19933067D02*
X101876462Y20075924D01*
X101876462Y20075924D02*
X101805034Y20147352D01*
X101805034Y20147352D02*
X101662177Y20218781D01*
X101662177Y20218781D02*
X101376462Y20290210D01*
X101376462Y20290210D02*
X101019320Y20290210D01*
X101019320Y20290210D02*
X100733605Y20218781D01*
X100733605Y20218781D02*
X100590748Y20147352D01*
X100590748Y20147352D02*
X100519320Y20075924D01*
X100519320Y20075924D02*
X100447891Y19933067D01*
X100447891Y19933067D02*
X100447891Y19790210D01*
X100447891Y19790210D02*
X100519320Y19647352D01*
X100519320Y19647352D02*
X100590748Y19575924D01*
X100590748Y19575924D02*
X100733605Y19504495D01*
X100733605Y19504495D02*
X101019320Y19433067D01*
X101019320Y19433067D02*
X101376462Y19433067D01*
X101376462Y19433067D02*
X101662177Y19504495D01*
X101662177Y19504495D02*
X101805034Y19575924D01*
X101805034Y19575924D02*
X101876462Y19647352D01*
X101876462Y19647352D02*
X101947891Y19790210D01*
D15*
%TO.C,LOGO2*%
X78922404Y23607484D02*
X78963370Y23594695D01*
X79013819Y23573439D01*
X79038246Y23562016D01*
X79055875Y23559951D01*
X79059773Y23575784D01*
X79059777Y23576232D01*
X79068032Y23591349D01*
X79096501Y23599097D01*
X79151681Y23601279D01*
X79243589Y23601279D01*
X79243589Y22799174D01*
X79059773Y22799174D01*
X79059773Y23352217D01*
X79014078Y23394566D01*
X78999802Y23406602D01*
X78957278Y23427166D01*
X78904912Y23427990D01*
X78833609Y23409844D01*
X78809572Y23408695D01*
X78781376Y23426298D01*
X78743846Y23468138D01*
X78725641Y23491281D01*
X78704111Y23523958D01*
X78700793Y23544758D01*
X78712848Y23562305D01*
X78749855Y23584494D01*
X78807332Y23602055D01*
X78869692Y23610762D01*
X78922404Y23607484D01*
G36*
X78922404Y23607484D02*
G01*
X78963370Y23594695D01*
X79013819Y23573439D01*
X79038246Y23562016D01*
X79055875Y23559951D01*
X79059773Y23575784D01*
X79059777Y23576232D01*
X79068032Y23591349D01*
X79096501Y23599097D01*
X79151681Y23601279D01*
X79243589Y23601279D01*
X79243589Y22799174D01*
X79059773Y22799174D01*
X79059773Y23352217D01*
X79014078Y23394566D01*
X78999802Y23406602D01*
X78957278Y23427166D01*
X78904912Y23427990D01*
X78833609Y23409844D01*
X78809572Y23408695D01*
X78781376Y23426298D01*
X78743846Y23468138D01*
X78725641Y23491281D01*
X78704111Y23523958D01*
X78700793Y23544758D01*
X78712848Y23562305D01*
X78749855Y23584494D01*
X78807332Y23602055D01*
X78869692Y23610762D01*
X78922404Y23607484D01*
G37*
X79165783Y22336984D02*
X79216270Y22313356D01*
X79260299Y22278722D01*
X79260299Y22313356D01*
X79261396Y22326506D01*
X79271605Y22340448D01*
X79299213Y22346606D01*
X79352207Y22347990D01*
X79444115Y22347990D01*
X79444115Y21529174D01*
X79260299Y21529174D01*
X79260299Y21795756D01*
X79260277Y21811060D01*
X79258709Y21918640D01*
X79254861Y22006273D01*
X79249007Y22069476D01*
X79241421Y22103771D01*
X79234456Y22116718D01*
X79191580Y22157322D01*
X79133178Y22175296D01*
X79069406Y22166911D01*
X79053764Y22161228D01*
X79020441Y22151183D01*
X78997667Y22154302D01*
X78974751Y22174721D01*
X78941003Y22216573D01*
X78886267Y22285683D01*
X78924740Y22316836D01*
X78961312Y22335588D01*
X79025553Y22348253D01*
X79097960Y22348667D01*
X79165783Y22336984D01*
G36*
X79165783Y22336984D02*
G01*
X79216270Y22313356D01*
X79260299Y22278722D01*
X79260299Y22313356D01*
X79261396Y22326506D01*
X79271605Y22340448D01*
X79299213Y22346606D01*
X79352207Y22347990D01*
X79444115Y22347990D01*
X79444115Y21529174D01*
X79260299Y21529174D01*
X79260299Y21795756D01*
X79260277Y21811060D01*
X79258709Y21918640D01*
X79254861Y22006273D01*
X79249007Y22069476D01*
X79241421Y22103771D01*
X79234456Y22116718D01*
X79191580Y22157322D01*
X79133178Y22175296D01*
X79069406Y22166911D01*
X79053764Y22161228D01*
X79020441Y22151183D01*
X78997667Y22154302D01*
X78974751Y22174721D01*
X78941003Y22216573D01*
X78886267Y22285683D01*
X78924740Y22316836D01*
X78961312Y22335588D01*
X79025553Y22348253D01*
X79097960Y22348667D01*
X79165783Y22336984D01*
G37*
X82652536Y21529174D02*
X82485431Y21529174D01*
X82485431Y21787099D01*
X82485246Y21847095D01*
X82483346Y21946463D01*
X82478536Y22020027D01*
X82469772Y22072873D01*
X82456010Y22110086D01*
X82436207Y22136751D01*
X82409320Y22157954D01*
X82379968Y22173753D01*
X82345211Y22178233D01*
X82295778Y22168271D01*
X82279893Y22164124D01*
X82240240Y22157882D01*
X82211887Y22166825D01*
X82179026Y22194505D01*
X82172790Y22200525D01*
X82138314Y22237763D01*
X82116081Y22268040D01*
X82113031Y22275334D01*
X82119074Y22302268D01*
X82149718Y22323802D01*
X82198083Y22338914D01*
X82257286Y22346586D01*
X82320448Y22345796D01*
X82380687Y22335525D01*
X82431122Y22314752D01*
X82447108Y22305052D01*
X82474022Y22290855D01*
X82483984Y22294106D01*
X82485431Y22314814D01*
X82485770Y22322249D01*
X82493832Y22338718D01*
X82518839Y22346214D01*
X82568984Y22347990D01*
X82652536Y22347990D01*
X82652536Y21529174D01*
G36*
X82652536Y21529174D02*
G01*
X82485431Y21529174D01*
X82485431Y21787099D01*
X82485246Y21847095D01*
X82483346Y21946463D01*
X82478536Y22020027D01*
X82469772Y22072873D01*
X82456010Y22110086D01*
X82436207Y22136751D01*
X82409320Y22157954D01*
X82379968Y22173753D01*
X82345211Y22178233D01*
X82295778Y22168271D01*
X82279893Y22164124D01*
X82240240Y22157882D01*
X82211887Y22166825D01*
X82179026Y22194505D01*
X82172790Y22200525D01*
X82138314Y22237763D01*
X82116081Y22268040D01*
X82113031Y22275334D01*
X82119074Y22302268D01*
X82149718Y22323802D01*
X82198083Y22338914D01*
X82257286Y22346586D01*
X82320448Y22345796D01*
X82380687Y22335525D01*
X82431122Y22314752D01*
X82447108Y22305052D01*
X82474022Y22290855D01*
X82483984Y22294106D01*
X82485431Y22314814D01*
X82485770Y22322249D01*
X82493832Y22338718D01*
X82518839Y22346214D01*
X82568984Y22347990D01*
X82652536Y22347990D01*
X82652536Y21529174D01*
G37*
X79577799Y23341167D02*
X79579209Y23224150D01*
X79584727Y23129642D01*
X79595905Y23060949D01*
X79614292Y23014222D01*
X79641437Y22985611D01*
X79678888Y22971268D01*
X79728194Y22967342D01*
X79775272Y22970846D01*
X79813294Y22984561D01*
X79840930Y23012345D01*
X79859729Y23058049D01*
X79871239Y23125521D01*
X79877010Y23218611D01*
X79878589Y23341167D01*
X79878589Y23601279D01*
X80045694Y23601279D01*
X80045694Y23287696D01*
X80045408Y23203995D01*
X80043179Y23095757D01*
X80037589Y23013211D01*
X80027281Y22951632D01*
X80010903Y22906295D01*
X79987099Y22872474D01*
X79954516Y22845443D01*
X79911799Y22820479D01*
X79822097Y22788875D01*
X79728481Y22786813D01*
X79640216Y22815917D01*
X79601706Y22834783D01*
X79582600Y22837603D01*
X79577799Y22824272D01*
X79569829Y22809304D01*
X79541298Y22801419D01*
X79485892Y22799174D01*
X79393984Y22799174D01*
X79393984Y23601279D01*
X79577799Y23601279D01*
X79577799Y23341167D01*
G36*
X79577799Y23341167D02*
G01*
X79579209Y23224150D01*
X79584727Y23129642D01*
X79595905Y23060949D01*
X79614292Y23014222D01*
X79641437Y22985611D01*
X79678888Y22971268D01*
X79728194Y22967342D01*
X79775272Y22970846D01*
X79813294Y22984561D01*
X79840930Y23012345D01*
X79859729Y23058049D01*
X79871239Y23125521D01*
X79877010Y23218611D01*
X79878589Y23341167D01*
X79878589Y23601279D01*
X80045694Y23601279D01*
X80045694Y23287696D01*
X80045408Y23203995D01*
X80043179Y23095757D01*
X80037589Y23013211D01*
X80027281Y22951632D01*
X80010903Y22906295D01*
X79987099Y22872474D01*
X79954516Y22845443D01*
X79911799Y22820479D01*
X79822097Y22788875D01*
X79728481Y22786813D01*
X79640216Y22815917D01*
X79601706Y22834783D01*
X79582600Y22837603D01*
X79577799Y22824272D01*
X79569829Y22809304D01*
X79541298Y22801419D01*
X79485892Y22799174D01*
X79393984Y22799174D01*
X79393984Y23601279D01*
X79577799Y23601279D01*
X79577799Y23341167D01*
G37*
X82371657Y23602860D02*
X82447832Y23578927D01*
X82481419Y23562660D01*
X82498312Y23560980D01*
X82502142Y23575784D01*
X82502145Y23576232D01*
X82510400Y23591349D01*
X82538869Y23599097D01*
X82594049Y23601279D01*
X82685957Y23601279D01*
X82685957Y22799174D01*
X82502142Y22799174D01*
X82502142Y23075657D01*
X82502016Y23169020D01*
X82501156Y23245712D01*
X82498857Y23299378D01*
X82494410Y23335488D01*
X82487110Y23359509D01*
X82476250Y23376909D01*
X82461125Y23393157D01*
X82440521Y23410439D01*
X82381275Y23433658D01*
X82319086Y23426843D01*
X82262118Y23390119D01*
X82245835Y23373027D01*
X82234146Y23355729D01*
X82226306Y23332710D01*
X82221547Y23298429D01*
X82219099Y23247347D01*
X82218193Y23173923D01*
X82218063Y23072619D01*
X82218063Y22799174D01*
X82034247Y22799174D01*
X82034614Y23095786D01*
X82034639Y23108998D01*
X82036233Y23235165D01*
X82041128Y23333172D01*
X82050584Y23407785D01*
X82065859Y23463769D01*
X82088210Y23505891D01*
X82118895Y23538916D01*
X82159174Y23567610D01*
X82200763Y23587474D01*
X82284520Y23605522D01*
X82371657Y23602860D01*
G36*
X82371657Y23602860D02*
G01*
X82447832Y23578927D01*
X82481419Y23562660D01*
X82498312Y23560980D01*
X82502142Y23575784D01*
X82502145Y23576232D01*
X82510400Y23591349D01*
X82538869Y23599097D01*
X82594049Y23601279D01*
X82685957Y23601279D01*
X82685957Y22799174D01*
X82502142Y22799174D01*
X82502142Y23075657D01*
X82502016Y23169020D01*
X82501156Y23245712D01*
X82498857Y23299378D01*
X82494410Y23335488D01*
X82487110Y23359509D01*
X82476250Y23376909D01*
X82461125Y23393157D01*
X82440521Y23410439D01*
X82381275Y23433658D01*
X82319086Y23426843D01*
X82262118Y23390119D01*
X82245835Y23373027D01*
X82234146Y23355729D01*
X82226306Y23332710D01*
X82221547Y23298429D01*
X82219099Y23247347D01*
X82218193Y23173923D01*
X82218063Y23072619D01*
X82218063Y22799174D01*
X82034247Y22799174D01*
X82034614Y23095786D01*
X82034639Y23108998D01*
X82036233Y23235165D01*
X82041128Y23333172D01*
X82050584Y23407785D01*
X82065859Y23463769D01*
X82088210Y23505891D01*
X82118895Y23538916D01*
X82159174Y23567610D01*
X82200763Y23587474D01*
X82284520Y23605522D01*
X82371657Y23602860D01*
G37*
X78452330Y23597453D02*
X78543511Y23561929D01*
X78620627Y23503287D01*
X78677584Y23422744D01*
X78681430Y23414531D01*
X78705850Y23334433D01*
X78718050Y23238752D01*
X78717954Y23139131D01*
X78705484Y23047212D01*
X78680563Y22974634D01*
X78649793Y22924050D01*
X78582064Y22852390D01*
X78497377Y22806838D01*
X78424922Y22788418D01*
X78314595Y22786407D01*
X78209022Y22814187D01*
X78115402Y22870558D01*
X78054808Y22920504D01*
X78109384Y22976813D01*
X78143864Y23010170D01*
X78175052Y23028742D01*
X78203970Y23024653D01*
X78240957Y22999700D01*
X78255705Y22989932D01*
X78318011Y22969938D01*
X78389623Y22969951D01*
X78456670Y22990557D01*
X78481916Y23007105D01*
X78518948Y23055970D01*
X78537512Y23127742D01*
X78538707Y23225564D01*
X78538703Y23225619D01*
X78524891Y23313138D01*
X78494464Y23373819D01*
X78444396Y23411355D01*
X78371661Y23429439D01*
X78325857Y23431871D01*
X78285836Y23421911D01*
X78244790Y23393058D01*
X78191674Y23348364D01*
X78124408Y23402421D01*
X78099833Y23423130D01*
X78069136Y23452801D01*
X78057142Y23470287D01*
X78061389Y23478167D01*
X78085855Y23502360D01*
X78124830Y23533129D01*
X78155325Y23553151D01*
X78252144Y23594281D01*
X78353177Y23608643D01*
X78452330Y23597453D01*
G36*
X78452330Y23597453D02*
G01*
X78543511Y23561929D01*
X78620627Y23503287D01*
X78677584Y23422744D01*
X78681430Y23414531D01*
X78705850Y23334433D01*
X78718050Y23238752D01*
X78717954Y23139131D01*
X78705484Y23047212D01*
X78680563Y22974634D01*
X78649793Y22924050D01*
X78582064Y22852390D01*
X78497377Y22806838D01*
X78424922Y22788418D01*
X78314595Y22786407D01*
X78209022Y22814187D01*
X78115402Y22870558D01*
X78054808Y22920504D01*
X78109384Y22976813D01*
X78143864Y23010170D01*
X78175052Y23028742D01*
X78203970Y23024653D01*
X78240957Y22999700D01*
X78255705Y22989932D01*
X78318011Y22969938D01*
X78389623Y22969951D01*
X78456670Y22990557D01*
X78481916Y23007105D01*
X78518948Y23055970D01*
X78537512Y23127742D01*
X78538707Y23225564D01*
X78538703Y23225619D01*
X78524891Y23313138D01*
X78494464Y23373819D01*
X78444396Y23411355D01*
X78371661Y23429439D01*
X78325857Y23431871D01*
X78285836Y23421911D01*
X78244790Y23393058D01*
X78191674Y23348364D01*
X78124408Y23402421D01*
X78099833Y23423130D01*
X78069136Y23452801D01*
X78057142Y23470287D01*
X78061389Y23478167D01*
X78085855Y23502360D01*
X78124830Y23533129D01*
X78155325Y23553151D01*
X78252144Y23594281D01*
X78353177Y23608643D01*
X78452330Y23597453D01*
G37*
X80843702Y23142584D02*
X80839040Y23089699D01*
X80818434Y22988735D01*
X80781577Y22911693D01*
X80725481Y22853499D01*
X80647154Y22809083D01*
X80616743Y22798512D01*
X80537983Y22785323D01*
X80455104Y22785682D01*
X80385170Y22800169D01*
X80383796Y22800695D01*
X80327438Y22833848D01*
X80270500Y22885170D01*
X80223255Y22943860D01*
X80195975Y22999116D01*
X80187889Y23039507D01*
X80180966Y23115131D01*
X80179805Y23182539D01*
X80348162Y23182539D01*
X80358227Y23101686D01*
X80381871Y23035249D01*
X80417693Y22991838D01*
X80431271Y22984384D01*
X80483047Y22970836D01*
X80542933Y22968049D01*
X80593316Y22977463D01*
X80612980Y22990964D01*
X80640582Y23038177D01*
X80657950Y23112070D01*
X80663984Y23209037D01*
X80663887Y23236950D01*
X80661791Y23293510D01*
X80654820Y23330406D01*
X80640195Y23357669D01*
X80615138Y23385328D01*
X80567456Y23418851D01*
X80505383Y23432557D01*
X80445409Y23419503D01*
X80395611Y23381749D01*
X80364065Y23321351D01*
X80353078Y23269198D01*
X80348162Y23182539D01*
X80179805Y23182539D01*
X80179483Y23201258D01*
X80183198Y23286981D01*
X80191865Y23361395D01*
X80205242Y23413594D01*
X80236399Y23472694D01*
X80302528Y23545360D01*
X80387051Y23591390D01*
X80487454Y23609610D01*
X80601225Y23598842D01*
X80620155Y23594255D01*
X80708315Y23554700D01*
X80774748Y23489759D01*
X80819455Y23399429D01*
X80842438Y23283706D01*
X80843107Y23209037D01*
X80843702Y23142584D01*
G36*
X80843702Y23142584D02*
G01*
X80839040Y23089699D01*
X80818434Y22988735D01*
X80781577Y22911693D01*
X80725481Y22853499D01*
X80647154Y22809083D01*
X80616743Y22798512D01*
X80537983Y22785323D01*
X80455104Y22785682D01*
X80385170Y22800169D01*
X80383796Y22800695D01*
X80327438Y22833848D01*
X80270500Y22885170D01*
X80223255Y22943860D01*
X80195975Y22999116D01*
X80187889Y23039507D01*
X80180966Y23115131D01*
X80179805Y23182539D01*
X80348162Y23182539D01*
X80358227Y23101686D01*
X80381871Y23035249D01*
X80417693Y22991838D01*
X80431271Y22984384D01*
X80483047Y22970836D01*
X80542933Y22968049D01*
X80593316Y22977463D01*
X80612980Y22990964D01*
X80640582Y23038177D01*
X80657950Y23112070D01*
X80663984Y23209037D01*
X80663887Y23236950D01*
X80661791Y23293510D01*
X80654820Y23330406D01*
X80640195Y23357669D01*
X80615138Y23385328D01*
X80567456Y23418851D01*
X80505383Y23432557D01*
X80445409Y23419503D01*
X80395611Y23381749D01*
X80364065Y23321351D01*
X80353078Y23269198D01*
X80348162Y23182539D01*
X80179805Y23182539D01*
X80179483Y23201258D01*
X80183198Y23286981D01*
X80191865Y23361395D01*
X80205242Y23413594D01*
X80236399Y23472694D01*
X80302528Y23545360D01*
X80387051Y23591390D01*
X80487454Y23609610D01*
X80601225Y23598842D01*
X80620155Y23594255D01*
X80708315Y23554700D01*
X80774748Y23489759D01*
X80819455Y23399429D01*
X80842438Y23283706D01*
X80843107Y23209037D01*
X80843702Y23142584D01*
G37*
X80976783Y22085593D02*
X80999375Y22018190D01*
X81026099Y21943573D01*
X81048416Y21887046D01*
X81064479Y21853214D01*
X81072444Y21846684D01*
X81074366Y21852363D01*
X81084769Y21887193D01*
X81101339Y21945365D01*
X81122236Y22020367D01*
X81145620Y22105687D01*
X81209238Y22339634D01*
X81306375Y22344710D01*
X81314574Y22345116D01*
X81366955Y22345654D01*
X81392126Y22340277D01*
X81395332Y22327999D01*
X81391282Y22316008D01*
X81377961Y22274966D01*
X81357104Y22209964D01*
X81330199Y22125652D01*
X81298732Y22026678D01*
X81264189Y21917694D01*
X81141225Y21529174D01*
X80987409Y21529174D01*
X80914933Y21775654D01*
X80901550Y21820915D01*
X80876816Y21903198D01*
X80855682Y21971760D01*
X80840049Y22020475D01*
X80831822Y22043217D01*
X80829478Y22044913D01*
X80818071Y22030244D01*
X80801785Y21991452D01*
X80783326Y21934598D01*
X80782351Y21931259D01*
X80757637Y21847353D01*
X80729361Y21752349D01*
X80703450Y21666172D01*
X80661434Y21527447D01*
X80506470Y21537529D01*
X80434707Y21763121D01*
X80403200Y21862246D01*
X80367907Y21973419D01*
X80334113Y22079996D01*
X80306138Y22168351D01*
X80249333Y22347990D01*
X80439376Y22347990D01*
X80485440Y22176707D01*
X80497685Y22131449D01*
X80520845Y22047075D01*
X80542292Y21970316D01*
X80558596Y21913516D01*
X80585689Y21821608D01*
X80672094Y22080621D01*
X80758500Y22339634D01*
X80824590Y22344596D01*
X80890679Y22349557D01*
X80976783Y22085593D01*
G36*
X80976783Y22085593D02*
G01*
X80999375Y22018190D01*
X81026099Y21943573D01*
X81048416Y21887046D01*
X81064479Y21853214D01*
X81072444Y21846684D01*
X81074366Y21852363D01*
X81084769Y21887193D01*
X81101339Y21945365D01*
X81122236Y22020367D01*
X81145620Y22105687D01*
X81209238Y22339634D01*
X81306375Y22344710D01*
X81314574Y22345116D01*
X81366955Y22345654D01*
X81392126Y22340277D01*
X81395332Y22327999D01*
X81391282Y22316008D01*
X81377961Y22274966D01*
X81357104Y22209964D01*
X81330199Y22125652D01*
X81298732Y22026678D01*
X81264189Y21917694D01*
X81141225Y21529174D01*
X80987409Y21529174D01*
X80914933Y21775654D01*
X80901550Y21820915D01*
X80876816Y21903198D01*
X80855682Y21971760D01*
X80840049Y22020475D01*
X80831822Y22043217D01*
X80829478Y22044913D01*
X80818071Y22030244D01*
X80801785Y21991452D01*
X80783326Y21934598D01*
X80782351Y21931259D01*
X80757637Y21847353D01*
X80729361Y21752349D01*
X80703450Y21666172D01*
X80661434Y21527447D01*
X80506470Y21537529D01*
X80434707Y21763121D01*
X80403200Y21862246D01*
X80367907Y21973419D01*
X80334113Y22079996D01*
X80306138Y22168351D01*
X80249333Y22347990D01*
X80439376Y22347990D01*
X80485440Y22176707D01*
X80497685Y22131449D01*
X80520845Y22047075D01*
X80542292Y21970316D01*
X80558596Y21913516D01*
X80585689Y21821608D01*
X80672094Y22080621D01*
X80758500Y22339634D01*
X80824590Y22344596D01*
X80890679Y22349557D01*
X80976783Y22085593D01*
G37*
X82116706Y21876041D02*
X82114588Y21804599D01*
X82110328Y21754834D01*
X82109598Y21750273D01*
X82080926Y21668696D01*
X82028566Y21599535D01*
X81959878Y21552679D01*
X81886116Y21533284D01*
X81795388Y21534789D01*
X81711925Y21560794D01*
X81690185Y21571768D01*
X81662230Y21583526D01*
X81651592Y21579868D01*
X81649905Y21560794D01*
X81649130Y21551282D01*
X81639127Y21537215D01*
X81611343Y21530738D01*
X81557997Y21529174D01*
X81466089Y21529174D01*
X81466089Y21930372D01*
X81649905Y21930372D01*
X81651222Y21860868D01*
X81656568Y21814594D01*
X81667982Y21782893D01*
X81687503Y21756327D01*
X81739049Y21716827D01*
X81799370Y21703585D01*
X81857864Y21719960D01*
X81907130Y21765640D01*
X81920152Y21799066D01*
X81929771Y21858259D01*
X81934000Y21930074D01*
X81932668Y22003733D01*
X81925604Y22068461D01*
X81912637Y22113478D01*
X81908494Y22120860D01*
X81868560Y22157962D01*
X81814442Y22174399D01*
X81756320Y22170576D01*
X81704373Y22146898D01*
X81668783Y22103771D01*
X81667312Y22100144D01*
X81658487Y22059674D01*
X81652262Y21999201D01*
X81649905Y21930372D01*
X81466089Y21930372D01*
X81466089Y22665490D01*
X81649905Y22665490D01*
X81649905Y22275968D01*
X81683952Y22306780D01*
X81716734Y22325931D01*
X81778779Y22341940D01*
X81851309Y22347098D01*
X81922139Y22340765D01*
X81979088Y22322300D01*
X82019848Y22296034D01*
X82061833Y22251288D01*
X82090090Y22191112D01*
X82107075Y22109712D01*
X82115248Y22001295D01*
X82116449Y21957470D01*
X82116536Y21930074D01*
X82116706Y21876041D01*
G36*
X82116706Y21876041D02*
G01*
X82114588Y21804599D01*
X82110328Y21754834D01*
X82109598Y21750273D01*
X82080926Y21668696D01*
X82028566Y21599535D01*
X81959878Y21552679D01*
X81886116Y21533284D01*
X81795388Y21534789D01*
X81711925Y21560794D01*
X81690185Y21571768D01*
X81662230Y21583526D01*
X81651592Y21579868D01*
X81649905Y21560794D01*
X81649130Y21551282D01*
X81639127Y21537215D01*
X81611343Y21530738D01*
X81557997Y21529174D01*
X81466089Y21529174D01*
X81466089Y21930372D01*
X81649905Y21930372D01*
X81651222Y21860868D01*
X81656568Y21814594D01*
X81667982Y21782893D01*
X81687503Y21756327D01*
X81739049Y21716827D01*
X81799370Y21703585D01*
X81857864Y21719960D01*
X81907130Y21765640D01*
X81920152Y21799066D01*
X81929771Y21858259D01*
X81934000Y21930074D01*
X81932668Y22003733D01*
X81925604Y22068461D01*
X81912637Y22113478D01*
X81908494Y22120860D01*
X81868560Y22157962D01*
X81814442Y22174399D01*
X81756320Y22170576D01*
X81704373Y22146898D01*
X81668783Y22103771D01*
X81667312Y22100144D01*
X81658487Y22059674D01*
X81652262Y21999201D01*
X81649905Y21930372D01*
X81466089Y21930372D01*
X81466089Y22665490D01*
X81649905Y22665490D01*
X81649905Y22275968D01*
X81683952Y22306780D01*
X81716734Y22325931D01*
X81778779Y22341940D01*
X81851309Y22347098D01*
X81922139Y22340765D01*
X81979088Y22322300D01*
X82019848Y22296034D01*
X82061833Y22251288D01*
X82090090Y22191112D01*
X82107075Y22109712D01*
X82115248Y22001295D01*
X82116449Y21957470D01*
X82116536Y21930074D01*
X82116706Y21876041D01*
G37*
X85006151Y23154332D02*
X85003993Y23101999D01*
X84999096Y23038181D01*
X84990753Y22992948D01*
X84976976Y22957107D01*
X84955777Y22921464D01*
X84954874Y22920113D01*
X84902673Y22862365D01*
X84838803Y22818320D01*
X84764533Y22792183D01*
X84666830Y22783697D01*
X84571070Y22800384D01*
X84485475Y22840594D01*
X84418265Y22902678D01*
X84398970Y22932012D01*
X84362936Y23023204D01*
X84345064Y23135716D01*
X84345370Y23164176D01*
X84524969Y23164176D01*
X84525308Y23110950D01*
X84530951Y23075416D01*
X84543809Y23048111D01*
X84565792Y23019576D01*
X84596299Y22991260D01*
X84657312Y22965990D01*
X84722826Y22970684D01*
X84785439Y23005804D01*
X84803101Y23022578D01*
X84821959Y23051293D01*
X84832416Y23091654D01*
X84838344Y23154546D01*
X84839977Y23201790D01*
X84831031Y23298272D01*
X84803580Y23367348D01*
X84757501Y23409399D01*
X84703486Y23429535D01*
X84639069Y23427840D01*
X84579357Y23393845D01*
X84565081Y23380903D01*
X84547067Y23358260D01*
X84536379Y23328636D01*
X84530449Y23283218D01*
X84526708Y23213194D01*
X84524969Y23164176D01*
X84345370Y23164176D01*
X84346443Y23264076D01*
X84348202Y23282282D01*
X84372744Y23398888D01*
X84418150Y23489410D01*
X84484515Y23553946D01*
X84571936Y23592596D01*
X84680511Y23605457D01*
X84721531Y23604250D01*
X84805654Y23589480D01*
X84874442Y23554226D01*
X84938574Y23493872D01*
X84948830Y23481758D01*
X84976494Y23440963D01*
X84994675Y23394770D01*
X85004756Y23336232D01*
X85008121Y23258401D01*
X85007049Y23201790D01*
X85006151Y23154332D01*
G36*
X85006151Y23154332D02*
G01*
X85003993Y23101999D01*
X84999096Y23038181D01*
X84990753Y22992948D01*
X84976976Y22957107D01*
X84955777Y22921464D01*
X84954874Y22920113D01*
X84902673Y22862365D01*
X84838803Y22818320D01*
X84764533Y22792183D01*
X84666830Y22783697D01*
X84571070Y22800384D01*
X84485475Y22840594D01*
X84418265Y22902678D01*
X84398970Y22932012D01*
X84362936Y23023204D01*
X84345064Y23135716D01*
X84345370Y23164176D01*
X84524969Y23164176D01*
X84525308Y23110950D01*
X84530951Y23075416D01*
X84543809Y23048111D01*
X84565792Y23019576D01*
X84596299Y22991260D01*
X84657312Y22965990D01*
X84722826Y22970684D01*
X84785439Y23005804D01*
X84803101Y23022578D01*
X84821959Y23051293D01*
X84832416Y23091654D01*
X84838344Y23154546D01*
X84839977Y23201790D01*
X84831031Y23298272D01*
X84803580Y23367348D01*
X84757501Y23409399D01*
X84703486Y23429535D01*
X84639069Y23427840D01*
X84579357Y23393845D01*
X84565081Y23380903D01*
X84547067Y23358260D01*
X84536379Y23328636D01*
X84530449Y23283218D01*
X84526708Y23213194D01*
X84524969Y23164176D01*
X84345370Y23164176D01*
X84346443Y23264076D01*
X84348202Y23282282D01*
X84372744Y23398888D01*
X84418150Y23489410D01*
X84484515Y23553946D01*
X84571936Y23592596D01*
X84680511Y23605457D01*
X84721531Y23604250D01*
X84805654Y23589480D01*
X84874442Y23554226D01*
X84938574Y23493872D01*
X84948830Y23481758D01*
X84976494Y23440963D01*
X84994675Y23394770D01*
X85004756Y23336232D01*
X85008121Y23258401D01*
X85007049Y23201790D01*
X85006151Y23154332D01*
G37*
X78035087Y23254073D02*
X78032936Y23126171D01*
X78032656Y23123656D01*
X78008629Y23006295D01*
X77965219Y22915048D01*
X77901073Y22847909D01*
X77814839Y22802876D01*
X77799009Y22797726D01*
X77700893Y22782549D01*
X77599418Y22791012D01*
X77505079Y22821255D01*
X77428369Y22871415D01*
X77370910Y22924503D01*
X77431986Y22972796D01*
X77493061Y23021089D01*
X77566667Y22985329D01*
X77651835Y22956353D01*
X77727021Y22955485D01*
X77788536Y22982108D01*
X77832803Y23035545D01*
X77848672Y23067564D01*
X77857531Y23094929D01*
X77852405Y23113415D01*
X77829407Y23124762D01*
X77784651Y23130713D01*
X77714249Y23133007D01*
X77614313Y23133384D01*
X77372010Y23133384D01*
X77372010Y23249270D01*
X77373820Y23300145D01*
X77544426Y23300145D01*
X77552620Y23290788D01*
X77576880Y23285917D01*
X77622992Y23284070D01*
X77696739Y23283779D01*
X77736286Y23284243D01*
X77798691Y23287312D01*
X77841023Y23292687D01*
X77856615Y23299703D01*
X77852626Y23325592D01*
X77824508Y23375130D01*
X77777652Y23415825D01*
X77721794Y23440405D01*
X77666671Y23441595D01*
X77625178Y23421885D01*
X77578160Y23377032D01*
X77548265Y23321378D01*
X77546514Y23315455D01*
X77544426Y23300145D01*
X77373820Y23300145D01*
X77374191Y23310562D01*
X77380596Y23371204D01*
X77389745Y23412198D01*
X77396415Y23427848D01*
X77444963Y23497551D01*
X77515111Y23555687D01*
X77597146Y23593751D01*
X77639936Y23604146D01*
X77741890Y23608878D01*
X77832735Y23584807D01*
X77909973Y23534612D01*
X77971109Y23460973D01*
X78013646Y23366567D01*
X78026391Y23299703D01*
X78035087Y23254073D01*
G36*
X78035087Y23254073D02*
G01*
X78032936Y23126171D01*
X78032656Y23123656D01*
X78008629Y23006295D01*
X77965219Y22915048D01*
X77901073Y22847909D01*
X77814839Y22802876D01*
X77799009Y22797726D01*
X77700893Y22782549D01*
X77599418Y22791012D01*
X77505079Y22821255D01*
X77428369Y22871415D01*
X77370910Y22924503D01*
X77431986Y22972796D01*
X77493061Y23021089D01*
X77566667Y22985329D01*
X77651835Y22956353D01*
X77727021Y22955485D01*
X77788536Y22982108D01*
X77832803Y23035545D01*
X77848672Y23067564D01*
X77857531Y23094929D01*
X77852405Y23113415D01*
X77829407Y23124762D01*
X77784651Y23130713D01*
X77714249Y23133007D01*
X77614313Y23133384D01*
X77372010Y23133384D01*
X77372010Y23249270D01*
X77373820Y23300145D01*
X77544426Y23300145D01*
X77552620Y23290788D01*
X77576880Y23285917D01*
X77622992Y23284070D01*
X77696739Y23283779D01*
X77736286Y23284243D01*
X77798691Y23287312D01*
X77841023Y23292687D01*
X77856615Y23299703D01*
X77852626Y23325592D01*
X77824508Y23375130D01*
X77777652Y23415825D01*
X77721794Y23440405D01*
X77666671Y23441595D01*
X77625178Y23421885D01*
X77578160Y23377032D01*
X77548265Y23321378D01*
X77546514Y23315455D01*
X77544426Y23300145D01*
X77373820Y23300145D01*
X77374191Y23310562D01*
X77380596Y23371204D01*
X77389745Y23412198D01*
X77396415Y23427848D01*
X77444963Y23497551D01*
X77515111Y23555687D01*
X77597146Y23593751D01*
X77639936Y23604146D01*
X77741890Y23608878D01*
X77832735Y23584807D01*
X77909973Y23534612D01*
X77971109Y23460973D01*
X78013646Y23366567D01*
X78026391Y23299703D01*
X78035087Y23254073D01*
G37*
X81330119Y23601821D02*
X81426629Y23577632D01*
X81497131Y23532798D01*
X81542027Y23467019D01*
X81561719Y23379993D01*
X81557732Y23296677D01*
X81528955Y23226403D01*
X81473768Y23174446D01*
X81391068Y23139790D01*
X81279746Y23121421D01*
X81207412Y23111794D01*
X81141390Y23090963D01*
X81107303Y23060796D01*
X81105246Y23021348D01*
X81118963Y22996751D01*
X81161446Y22967599D01*
X81221837Y22953811D01*
X81292609Y22955696D01*
X81366232Y22973567D01*
X81435177Y23007733D01*
X81503917Y23053223D01*
X81624839Y22930865D01*
X81574707Y22889945D01*
X81555214Y22875727D01*
X81500370Y22843425D01*
X81441023Y22815591D01*
X81394055Y22799617D01*
X81325282Y22788046D01*
X81240497Y22787893D01*
X81136526Y22800633D01*
X81042865Y22832923D01*
X80976569Y22884214D01*
X80937480Y22954635D01*
X80925442Y23044313D01*
X80934156Y23123203D01*
X80962128Y23187793D01*
X81012488Y23234049D01*
X81088423Y23264812D01*
X81193120Y23282922D01*
X81205145Y23284233D01*
X81270331Y23292594D01*
X81323210Y23301343D01*
X81353293Y23308787D01*
X81363332Y23314780D01*
X81380304Y23345687D01*
X81377548Y23385250D01*
X81354866Y23419595D01*
X81342956Y23427085D01*
X81293326Y23439087D01*
X81229220Y23438280D01*
X81162373Y23425508D01*
X81104519Y23401614D01*
X81043728Y23365746D01*
X80996574Y23420848D01*
X80985132Y23434847D01*
X80959354Y23472347D01*
X80948742Y23497763D01*
X80959886Y23513347D01*
X80994364Y23537674D01*
X81044148Y23563852D01*
X81051163Y23567052D01*
X81116812Y23592152D01*
X81180092Y23604153D01*
X81258620Y23606563D01*
X81330119Y23601821D01*
G36*
X81330119Y23601821D02*
G01*
X81426629Y23577632D01*
X81497131Y23532798D01*
X81542027Y23467019D01*
X81561719Y23379993D01*
X81557732Y23296677D01*
X81528955Y23226403D01*
X81473768Y23174446D01*
X81391068Y23139790D01*
X81279746Y23121421D01*
X81207412Y23111794D01*
X81141390Y23090963D01*
X81107303Y23060796D01*
X81105246Y23021348D01*
X81118963Y22996751D01*
X81161446Y22967599D01*
X81221837Y22953811D01*
X81292609Y22955696D01*
X81366232Y22973567D01*
X81435177Y23007733D01*
X81503917Y23053223D01*
X81624839Y22930865D01*
X81574707Y22889945D01*
X81555214Y22875727D01*
X81500370Y22843425D01*
X81441023Y22815591D01*
X81394055Y22799617D01*
X81325282Y22788046D01*
X81240497Y22787893D01*
X81136526Y22800633D01*
X81042865Y22832923D01*
X80976569Y22884214D01*
X80937480Y22954635D01*
X80925442Y23044313D01*
X80934156Y23123203D01*
X80962128Y23187793D01*
X81012488Y23234049D01*
X81088423Y23264812D01*
X81193120Y23282922D01*
X81205145Y23284233D01*
X81270331Y23292594D01*
X81323210Y23301343D01*
X81353293Y23308787D01*
X81363332Y23314780D01*
X81380304Y23345687D01*
X81377548Y23385250D01*
X81354866Y23419595D01*
X81342956Y23427085D01*
X81293326Y23439087D01*
X81229220Y23438280D01*
X81162373Y23425508D01*
X81104519Y23401614D01*
X81043728Y23365746D01*
X80996574Y23420848D01*
X80985132Y23434847D01*
X80959354Y23472347D01*
X80948742Y23497763D01*
X80959886Y23513347D01*
X80994364Y23537674D01*
X81044148Y23563852D01*
X81051163Y23567052D01*
X81116812Y23592152D01*
X81180092Y23604153D01*
X81258620Y23606563D01*
X81330119Y23601821D01*
G37*
X78892138Y21938582D02*
X78889965Y21876202D01*
X78870175Y21756906D01*
X78829454Y21663102D01*
X78767444Y21594119D01*
X78683786Y21549288D01*
X78656757Y21541368D01*
X78560244Y21530305D01*
X78458335Y21539641D01*
X78366286Y21568454D01*
X78333858Y21584808D01*
X78287363Y21612822D01*
X78259185Y21635873D01*
X78255025Y21641140D01*
X78247242Y21660401D01*
X78258456Y21681339D01*
X78292606Y21713050D01*
X78309087Y21726855D01*
X78341552Y21752117D01*
X78358575Y21762442D01*
X78363452Y21761379D01*
X78391401Y21749881D01*
X78433128Y21729700D01*
X78446733Y21723062D01*
X78526991Y21698411D01*
X78596717Y21704765D01*
X78657860Y21742233D01*
X78664975Y21749156D01*
X78698988Y21792522D01*
X78718422Y21834141D01*
X78729186Y21880095D01*
X78224247Y21880095D01*
X78224340Y21967825D01*
X78224393Y21976550D01*
X78231210Y22046937D01*
X78408063Y22046937D01*
X78410151Y22032339D01*
X78420872Y22022278D01*
X78446427Y22016694D01*
X78493009Y22014292D01*
X78566813Y22013779D01*
X78607844Y22014311D01*
X78668408Y22017420D01*
X78710065Y22022688D01*
X78725563Y22029402D01*
X78712346Y22084667D01*
X78673650Y22136248D01*
X78617841Y22172034D01*
X78553371Y22184412D01*
X78505905Y22170458D01*
X78458458Y22136347D01*
X78422389Y22091904D01*
X78408063Y22046937D01*
X78231210Y22046937D01*
X78234847Y22084484D01*
X78265275Y22172287D01*
X78318369Y22247977D01*
X78350758Y22279995D01*
X78417652Y22322855D01*
X78497527Y22343622D01*
X78598420Y22345082D01*
X78647155Y22339357D01*
X78737116Y22309629D01*
X78805991Y22255522D01*
X78854384Y22176202D01*
X78882899Y22070834D01*
X78885794Y22029402D01*
X78892138Y21938582D01*
G36*
X78892138Y21938582D02*
G01*
X78889965Y21876202D01*
X78870175Y21756906D01*
X78829454Y21663102D01*
X78767444Y21594119D01*
X78683786Y21549288D01*
X78656757Y21541368D01*
X78560244Y21530305D01*
X78458335Y21539641D01*
X78366286Y21568454D01*
X78333858Y21584808D01*
X78287363Y21612822D01*
X78259185Y21635873D01*
X78255025Y21641140D01*
X78247242Y21660401D01*
X78258456Y21681339D01*
X78292606Y21713050D01*
X78309087Y21726855D01*
X78341552Y21752117D01*
X78358575Y21762442D01*
X78363452Y21761379D01*
X78391401Y21749881D01*
X78433128Y21729700D01*
X78446733Y21723062D01*
X78526991Y21698411D01*
X78596717Y21704765D01*
X78657860Y21742233D01*
X78664975Y21749156D01*
X78698988Y21792522D01*
X78718422Y21834141D01*
X78729186Y21880095D01*
X78224247Y21880095D01*
X78224340Y21967825D01*
X78224393Y21976550D01*
X78231210Y22046937D01*
X78408063Y22046937D01*
X78410151Y22032339D01*
X78420872Y22022278D01*
X78446427Y22016694D01*
X78493009Y22014292D01*
X78566813Y22013779D01*
X78607844Y22014311D01*
X78668408Y22017420D01*
X78710065Y22022688D01*
X78725563Y22029402D01*
X78712346Y22084667D01*
X78673650Y22136248D01*
X78617841Y22172034D01*
X78553371Y22184412D01*
X78505905Y22170458D01*
X78458458Y22136347D01*
X78422389Y22091904D01*
X78408063Y22046937D01*
X78231210Y22046937D01*
X78234847Y22084484D01*
X78265275Y22172287D01*
X78318369Y22247977D01*
X78350758Y22279995D01*
X78417652Y22322855D01*
X78497527Y22343622D01*
X78598420Y22345082D01*
X78647155Y22339357D01*
X78737116Y22309629D01*
X78805991Y22255522D01*
X78854384Y22176202D01*
X78882899Y22070834D01*
X78885794Y22029402D01*
X78892138Y21938582D01*
G37*
X83467263Y23300609D02*
X83473109Y23183562D01*
X83471648Y23132484D01*
X83455174Y23020857D01*
X83418871Y22932844D01*
X83360840Y22864816D01*
X83279181Y22813149D01*
X83199966Y22789030D01*
X83100591Y22784415D01*
X83000327Y22802163D01*
X82910892Y22841373D01*
X82877750Y22863185D01*
X82841235Y22891144D01*
X82824573Y22909542D01*
X82825518Y22917133D01*
X82844168Y22942997D01*
X82879218Y22974333D01*
X82939961Y23020664D01*
X83011138Y22985116D01*
X83030385Y22976317D01*
X83087043Y22957194D01*
X83134531Y22949569D01*
X83169548Y22955852D01*
X83224498Y22986109D01*
X83270687Y23033080D01*
X83297107Y23087430D01*
X83307870Y23133384D01*
X82802931Y23133384D01*
X82803024Y23221115D01*
X82803789Y23248919D01*
X82809369Y23308581D01*
X82986747Y23308581D01*
X82987072Y23305163D01*
X82996260Y23294519D01*
X83022224Y23287980D01*
X83070499Y23284686D01*
X83146623Y23283779D01*
X83171643Y23283790D01*
X83236622Y23284390D01*
X83275684Y23286985D01*
X83294623Y23293038D01*
X83299231Y23304014D01*
X83295301Y23321378D01*
X83294701Y23323347D01*
X83260847Y23383770D01*
X83207477Y23425371D01*
X83143835Y23440858D01*
X83120311Y23439620D01*
X83076648Y23424804D01*
X83034761Y23387121D01*
X83023478Y23373797D01*
X82997233Y23335744D01*
X82986747Y23308581D01*
X82809369Y23308581D01*
X82810086Y23316251D01*
X82820646Y23371966D01*
X82832221Y23403157D01*
X82872915Y23471000D01*
X82927415Y23532614D01*
X82985050Y23574834D01*
X83001702Y23582673D01*
X83098665Y23608679D01*
X83197680Y23605938D01*
X83290772Y23575608D01*
X83369964Y23518852D01*
X83412798Y23466510D01*
X83447821Y23392772D01*
X83466545Y23304014D01*
X83467263Y23300609D01*
G36*
X83467263Y23300609D02*
G01*
X83473109Y23183562D01*
X83471648Y23132484D01*
X83455174Y23020857D01*
X83418871Y22932844D01*
X83360840Y22864816D01*
X83279181Y22813149D01*
X83199966Y22789030D01*
X83100591Y22784415D01*
X83000327Y22802163D01*
X82910892Y22841373D01*
X82877750Y22863185D01*
X82841235Y22891144D01*
X82824573Y22909542D01*
X82825518Y22917133D01*
X82844168Y22942997D01*
X82879218Y22974333D01*
X82939961Y23020664D01*
X83011138Y22985116D01*
X83030385Y22976317D01*
X83087043Y22957194D01*
X83134531Y22949569D01*
X83169548Y22955852D01*
X83224498Y22986109D01*
X83270687Y23033080D01*
X83297107Y23087430D01*
X83307870Y23133384D01*
X82802931Y23133384D01*
X82803024Y23221115D01*
X82803789Y23248919D01*
X82809369Y23308581D01*
X82986747Y23308581D01*
X82987072Y23305163D01*
X82996260Y23294519D01*
X83022224Y23287980D01*
X83070499Y23284686D01*
X83146623Y23283779D01*
X83171643Y23283790D01*
X83236622Y23284390D01*
X83275684Y23286985D01*
X83294623Y23293038D01*
X83299231Y23304014D01*
X83295301Y23321378D01*
X83294701Y23323347D01*
X83260847Y23383770D01*
X83207477Y23425371D01*
X83143835Y23440858D01*
X83120311Y23439620D01*
X83076648Y23424804D01*
X83034761Y23387121D01*
X83023478Y23373797D01*
X82997233Y23335744D01*
X82986747Y23308581D01*
X82809369Y23308581D01*
X82810086Y23316251D01*
X82820646Y23371966D01*
X82832221Y23403157D01*
X82872915Y23471000D01*
X82927415Y23532614D01*
X82985050Y23574834D01*
X83001702Y23582673D01*
X83098665Y23608679D01*
X83197680Y23605938D01*
X83290772Y23575608D01*
X83369964Y23518852D01*
X83412798Y23466510D01*
X83447821Y23392772D01*
X83466545Y23304014D01*
X83467263Y23300609D01*
G37*
X80254388Y21749100D02*
X80234229Y21673236D01*
X80190418Y21608335D01*
X80123961Y21561649D01*
X80117439Y21558811D01*
X80044725Y21538370D01*
X79962791Y21530401D01*
X79884892Y21535273D01*
X79824280Y21553352D01*
X79800068Y21565146D01*
X79782300Y21567959D01*
X79778326Y21553249D01*
X79770798Y21539645D01*
X79741673Y21531544D01*
X79685140Y21529174D01*
X79591955Y21529174D01*
X79597410Y21850851D01*
X79597993Y21880095D01*
X79778326Y21880095D01*
X79778326Y21821608D01*
X79784620Y21777894D01*
X79811747Y21729700D01*
X79821760Y21720842D01*
X79862801Y21702206D01*
X79924543Y21697410D01*
X79961591Y21699283D01*
X80030915Y21713391D01*
X80073883Y21739676D01*
X80088375Y21776356D01*
X80072271Y21821648D01*
X80062874Y21833500D01*
X80020907Y21860087D01*
X79954486Y21875268D01*
X79859790Y21880095D01*
X79778326Y21880095D01*
X79597993Y21880095D01*
X79598892Y21925238D01*
X79602796Y22036601D01*
X79609377Y22121754D01*
X79619934Y22185340D01*
X79635768Y22232001D01*
X79658179Y22266379D01*
X79688467Y22293117D01*
X79727933Y22316856D01*
X79748293Y22325920D01*
X79818728Y22343027D01*
X79903679Y22350100D01*
X79991508Y22347268D01*
X80070577Y22334659D01*
X80129247Y22312403D01*
X80149655Y22299481D01*
X80196641Y22261181D01*
X80212544Y22229111D01*
X80208682Y22222914D01*
X80184614Y22201268D01*
X80145759Y22172392D01*
X80125894Y22158876D01*
X80092066Y22139726D01*
X80070083Y22137897D01*
X80049673Y22151115D01*
X79998806Y22177884D01*
X79930360Y22188892D01*
X79860414Y22180464D01*
X79859090Y22180082D01*
X79809756Y22158648D01*
X79785336Y22125097D01*
X79778582Y22069609D01*
X79778326Y22016821D01*
X79952730Y22011123D01*
X79980516Y22010185D01*
X80050568Y22006925D01*
X80097529Y22001803D01*
X80129272Y21992902D01*
X80153668Y21978303D01*
X80178589Y21956088D01*
X80219735Y21904705D01*
X80249891Y21828674D01*
X80252848Y21776356D01*
X80254388Y21749100D01*
G36*
X80254388Y21749100D02*
G01*
X80234229Y21673236D01*
X80190418Y21608335D01*
X80123961Y21561649D01*
X80117439Y21558811D01*
X80044725Y21538370D01*
X79962791Y21530401D01*
X79884892Y21535273D01*
X79824280Y21553352D01*
X79800068Y21565146D01*
X79782300Y21567959D01*
X79778326Y21553249D01*
X79770798Y21539645D01*
X79741673Y21531544D01*
X79685140Y21529174D01*
X79591955Y21529174D01*
X79597410Y21850851D01*
X79597993Y21880095D01*
X79778326Y21880095D01*
X79778326Y21821608D01*
X79784620Y21777894D01*
X79811747Y21729700D01*
X79821760Y21720842D01*
X79862801Y21702206D01*
X79924543Y21697410D01*
X79961591Y21699283D01*
X80030915Y21713391D01*
X80073883Y21739676D01*
X80088375Y21776356D01*
X80072271Y21821648D01*
X80062874Y21833500D01*
X80020907Y21860087D01*
X79954486Y21875268D01*
X79859790Y21880095D01*
X79778326Y21880095D01*
X79597993Y21880095D01*
X79598892Y21925238D01*
X79602796Y22036601D01*
X79609377Y22121754D01*
X79619934Y22185340D01*
X79635768Y22232001D01*
X79658179Y22266379D01*
X79688467Y22293117D01*
X79727933Y22316856D01*
X79748293Y22325920D01*
X79818728Y22343027D01*
X79903679Y22350100D01*
X79991508Y22347268D01*
X80070577Y22334659D01*
X80129247Y22312403D01*
X80149655Y22299481D01*
X80196641Y22261181D01*
X80212544Y22229111D01*
X80208682Y22222914D01*
X80184614Y22201268D01*
X80145759Y22172392D01*
X80125894Y22158876D01*
X80092066Y22139726D01*
X80070083Y22137897D01*
X80049673Y22151115D01*
X79998806Y22177884D01*
X79930360Y22188892D01*
X79860414Y22180464D01*
X79859090Y22180082D01*
X79809756Y22158648D01*
X79785336Y22125097D01*
X79778582Y22069609D01*
X79778326Y22016821D01*
X79952730Y22011123D01*
X79980516Y22010185D01*
X80050568Y22006925D01*
X80097529Y22001803D01*
X80129272Y21992902D01*
X80153668Y21978303D01*
X80178589Y21956088D01*
X80219735Y21904705D01*
X80249891Y21828674D01*
X80252848Y21776356D01*
X80254388Y21749100D01*
G37*
X83467632Y21751904D02*
X83467442Y21749700D01*
X83447080Y21663854D01*
X83401787Y21599288D01*
X83329313Y21552763D01*
X83291860Y21541444D01*
X83227710Y21532622D01*
X83157560Y21530515D01*
X83094268Y21535370D01*
X83050696Y21547432D01*
X83024232Y21557094D01*
X82998321Y21547432D01*
X82988843Y21541834D01*
X82951014Y21532757D01*
X82899852Y21529174D01*
X82819642Y21529174D01*
X82819642Y21852558D01*
X82819648Y21880095D01*
X83003457Y21880095D01*
X83003457Y21815843D01*
X83009635Y21766947D01*
X83034017Y21723935D01*
X83047969Y21714626D01*
X83097771Y21700117D01*
X83159945Y21696495D01*
X83220916Y21703855D01*
X83267108Y21722292D01*
X83290119Y21746670D01*
X83304247Y21789987D01*
X83291718Y21824324D01*
X83250302Y21854180D01*
X83183725Y21873334D01*
X83095902Y21880095D01*
X83003457Y21880095D01*
X82819648Y21880095D01*
X82819648Y21880524D01*
X82819952Y21985933D01*
X82821096Y22064299D01*
X82823597Y22120829D01*
X82827976Y22160730D01*
X82834752Y22189208D01*
X82844445Y22211470D01*
X82857573Y22232722D01*
X82899804Y22282520D01*
X82959650Y22320540D01*
X83038263Y22341516D01*
X83141856Y22347964D01*
X83145223Y22347957D01*
X83217233Y22344705D01*
X83281686Y22336597D01*
X83325672Y22325230D01*
X83337730Y22319534D01*
X83376111Y22295411D01*
X83410844Y22266740D01*
X83433697Y22240940D01*
X83436436Y22225427D01*
X83431090Y22221235D01*
X83372847Y22176482D01*
X83333901Y22150087D01*
X83308151Y22139438D01*
X83289492Y22141920D01*
X83271821Y22154918D01*
X83239210Y22171144D01*
X83184253Y22181963D01*
X83122140Y22184769D01*
X83065937Y22179058D01*
X83028704Y22164324D01*
X83026745Y22162531D01*
X83010014Y22128850D01*
X83003457Y22078575D01*
X83003457Y22013779D01*
X83158030Y22013717D01*
X83229034Y22012593D01*
X83288802Y22007704D01*
X83331557Y21997645D01*
X83366100Y21981035D01*
X83374139Y21975933D01*
X83432296Y21919853D01*
X83463230Y21845696D01*
X83465845Y21789987D01*
X83467632Y21751904D01*
G36*
X83467632Y21751904D02*
G01*
X83467442Y21749700D01*
X83447080Y21663854D01*
X83401787Y21599288D01*
X83329313Y21552763D01*
X83291860Y21541444D01*
X83227710Y21532622D01*
X83157560Y21530515D01*
X83094268Y21535370D01*
X83050696Y21547432D01*
X83024232Y21557094D01*
X82998321Y21547432D01*
X82988843Y21541834D01*
X82951014Y21532757D01*
X82899852Y21529174D01*
X82819642Y21529174D01*
X82819642Y21852558D01*
X82819648Y21880095D01*
X83003457Y21880095D01*
X83003457Y21815843D01*
X83009635Y21766947D01*
X83034017Y21723935D01*
X83047969Y21714626D01*
X83097771Y21700117D01*
X83159945Y21696495D01*
X83220916Y21703855D01*
X83267108Y21722292D01*
X83290119Y21746670D01*
X83304247Y21789987D01*
X83291718Y21824324D01*
X83250302Y21854180D01*
X83183725Y21873334D01*
X83095902Y21880095D01*
X83003457Y21880095D01*
X82819648Y21880095D01*
X82819648Y21880524D01*
X82819952Y21985933D01*
X82821096Y22064299D01*
X82823597Y22120829D01*
X82827976Y22160730D01*
X82834752Y22189208D01*
X82844445Y22211470D01*
X82857573Y22232722D01*
X82899804Y22282520D01*
X82959650Y22320540D01*
X83038263Y22341516D01*
X83141856Y22347964D01*
X83145223Y22347957D01*
X83217233Y22344705D01*
X83281686Y22336597D01*
X83325672Y22325230D01*
X83337730Y22319534D01*
X83376111Y22295411D01*
X83410844Y22266740D01*
X83433697Y22240940D01*
X83436436Y22225427D01*
X83431090Y22221235D01*
X83372847Y22176482D01*
X83333901Y22150087D01*
X83308151Y22139438D01*
X83289492Y22141920D01*
X83271821Y22154918D01*
X83239210Y22171144D01*
X83184253Y22181963D01*
X83122140Y22184769D01*
X83065937Y22179058D01*
X83028704Y22164324D01*
X83026745Y22162531D01*
X83010014Y22128850D01*
X83003457Y22078575D01*
X83003457Y22013779D01*
X83158030Y22013717D01*
X83229034Y22012593D01*
X83288802Y22007704D01*
X83331557Y21997645D01*
X83366100Y21981035D01*
X83374139Y21975933D01*
X83432296Y21919853D01*
X83463230Y21845696D01*
X83465845Y21789987D01*
X83467632Y21751904D01*
G37*
X84223326Y21527427D02*
X84135595Y21532478D01*
X84047865Y21537529D01*
X84043694Y21804898D01*
X84042460Y21869912D01*
X84038957Y21967589D01*
X84032944Y22039266D01*
X84023317Y22089760D01*
X84008969Y22123890D01*
X83988795Y22146473D01*
X83961690Y22162328D01*
X83910832Y22178520D01*
X83860254Y22172228D01*
X83806845Y22137623D01*
X83755431Y22094361D01*
X83755431Y21529174D01*
X83571615Y21529174D01*
X83571615Y21835690D01*
X83571792Y21931765D01*
X83572769Y22017138D01*
X83575119Y22079629D01*
X83579411Y22124906D01*
X83586215Y22158632D01*
X83596098Y22186473D01*
X83609630Y22214095D01*
X83612839Y22219959D01*
X83655512Y22277073D01*
X83705455Y22316986D01*
X83765668Y22337944D01*
X83845400Y22347273D01*
X83925247Y22342220D01*
X83990208Y22322495D01*
X84039510Y22297000D01*
X84039510Y22848769D01*
X83971957Y22813558D01*
X83943739Y22800766D01*
X83854670Y22782677D01*
X83766154Y22795179D01*
X83684101Y22836748D01*
X83614424Y22905857D01*
X83603509Y22922100D01*
X83593018Y22945910D01*
X83586175Y22978282D01*
X83582224Y23025429D01*
X83580408Y23093565D01*
X83580082Y23164558D01*
X83756611Y23164558D01*
X83756760Y23105269D01*
X83761293Y23065731D01*
X83771480Y23037511D01*
X83788592Y23012181D01*
X83810330Y22988631D01*
X83845092Y22970808D01*
X83897470Y22966279D01*
X83943740Y22970220D01*
X83989537Y22989941D01*
X84019032Y23029891D01*
X84034824Y23094100D01*
X84039510Y23186599D01*
X84038298Y23235806D01*
X84026201Y23328694D01*
X84001243Y23391504D01*
X83963564Y23423794D01*
X83925509Y23432878D01*
X83859233Y23428619D01*
X83803236Y23402248D01*
X83789834Y23390155D01*
X83775633Y23369233D01*
X83766853Y23338089D01*
X83761639Y23288990D01*
X83758136Y23214202D01*
X83756611Y23164558D01*
X83580082Y23164558D01*
X83579970Y23188903D01*
X83580120Y23232404D01*
X83582682Y23333589D01*
X83589817Y23409178D01*
X83603326Y23464883D01*
X83625014Y23506417D01*
X83656680Y23539494D01*
X83700128Y23569826D01*
X83735360Y23587232D01*
X83818893Y23606429D01*
X83906942Y23603813D01*
X83985201Y23578928D01*
X84018787Y23562661D01*
X84035680Y23560980D01*
X84039510Y23575784D01*
X84039514Y23576232D01*
X84047768Y23591349D01*
X84076237Y23599097D01*
X84131418Y23601279D01*
X84223326Y23601279D01*
X84223326Y23186599D01*
X84223326Y21527427D01*
G36*
X84223326Y21527427D02*
G01*
X84135595Y21532478D01*
X84047865Y21537529D01*
X84043694Y21804898D01*
X84042460Y21869912D01*
X84038957Y21967589D01*
X84032944Y22039266D01*
X84023317Y22089760D01*
X84008969Y22123890D01*
X83988795Y22146473D01*
X83961690Y22162328D01*
X83910832Y22178520D01*
X83860254Y22172228D01*
X83806845Y22137623D01*
X83755431Y22094361D01*
X83755431Y21529174D01*
X83571615Y21529174D01*
X83571615Y21835690D01*
X83571792Y21931765D01*
X83572769Y22017138D01*
X83575119Y22079629D01*
X83579411Y22124906D01*
X83586215Y22158632D01*
X83596098Y22186473D01*
X83609630Y22214095D01*
X83612839Y22219959D01*
X83655512Y22277073D01*
X83705455Y22316986D01*
X83765668Y22337944D01*
X83845400Y22347273D01*
X83925247Y22342220D01*
X83990208Y22322495D01*
X84039510Y22297000D01*
X84039510Y22848769D01*
X83971957Y22813558D01*
X83943739Y22800766D01*
X83854670Y22782677D01*
X83766154Y22795179D01*
X83684101Y22836748D01*
X83614424Y22905857D01*
X83603509Y22922100D01*
X83593018Y22945910D01*
X83586175Y22978282D01*
X83582224Y23025429D01*
X83580408Y23093565D01*
X83580082Y23164558D01*
X83756611Y23164558D01*
X83756760Y23105269D01*
X83761293Y23065731D01*
X83771480Y23037511D01*
X83788592Y23012181D01*
X83810330Y22988631D01*
X83845092Y22970808D01*
X83897470Y22966279D01*
X83943740Y22970220D01*
X83989537Y22989941D01*
X84019032Y23029891D01*
X84034824Y23094100D01*
X84039510Y23186599D01*
X84038298Y23235806D01*
X84026201Y23328694D01*
X84001243Y23391504D01*
X83963564Y23423794D01*
X83925509Y23432878D01*
X83859233Y23428619D01*
X83803236Y23402248D01*
X83789834Y23390155D01*
X83775633Y23369233D01*
X83766853Y23338089D01*
X83761639Y23288990D01*
X83758136Y23214202D01*
X83756611Y23164558D01*
X83580082Y23164558D01*
X83579970Y23188903D01*
X83580120Y23232404D01*
X83582682Y23333589D01*
X83589817Y23409178D01*
X83603326Y23464883D01*
X83625014Y23506417D01*
X83656680Y23539494D01*
X83700128Y23569826D01*
X83735360Y23587232D01*
X83818893Y23606429D01*
X83906942Y23603813D01*
X83985201Y23578928D01*
X84018787Y23562661D01*
X84035680Y23560980D01*
X84039510Y23575784D01*
X84039514Y23576232D01*
X84047768Y23591349D01*
X84076237Y23599097D01*
X84131418Y23601279D01*
X84223326Y23601279D01*
X84223326Y23186599D01*
X84223326Y21527427D01*
G37*
X81682974Y29141124D02*
X81758523Y28740378D01*
X82037287Y28625462D01*
X82316052Y28510546D01*
X82650476Y28737952D01*
X82716666Y28782783D01*
X82804413Y28841629D01*
X82880383Y28891890D01*
X82940631Y28930985D01*
X82981211Y28956335D01*
X82998177Y28965358D01*
X83008597Y28958941D01*
X83039745Y28932053D01*
X83086881Y28887926D01*
X83146013Y28830613D01*
X83213146Y28764165D01*
X83284286Y28692635D01*
X83355439Y28620074D01*
X83422612Y28550533D01*
X83481810Y28488065D01*
X83529039Y28436722D01*
X83560306Y28400555D01*
X83571615Y28383617D01*
X83568984Y28376339D01*
X83550768Y28343876D01*
X83517502Y28290451D01*
X83471884Y28220251D01*
X83416610Y28137464D01*
X83354378Y28046279D01*
X83320226Y27996548D01*
X83261477Y27909969D01*
X83211108Y27834409D01*
X83171806Y27773967D01*
X83146255Y27732739D01*
X83137142Y27714824D01*
X83137291Y27713831D01*
X83145331Y27691120D01*
X83163774Y27644745D01*
X83190051Y27580763D01*
X83221591Y27505232D01*
X83255822Y27424211D01*
X83290174Y27343757D01*
X83322075Y27269928D01*
X83348955Y27208782D01*
X83368242Y27166378D01*
X83377366Y27148774D01*
X83382765Y27147212D01*
X83415566Y27140169D01*
X83474026Y27128501D01*
X83553466Y27113120D01*
X83649206Y27094940D01*
X83756566Y27074870D01*
X83813151Y27064229D01*
X83917009Y27043927D01*
X84007817Y27025178D01*
X84080611Y27009058D01*
X84130428Y26996644D01*
X84152306Y26989014D01*
X84156236Y26981450D01*
X84162754Y26944491D01*
X84167876Y26882935D01*
X84171604Y26802573D01*
X84173943Y26709197D01*
X84174897Y26608599D01*
X84174469Y26506572D01*
X84172665Y26408907D01*
X84169486Y26321396D01*
X84164939Y26249831D01*
X84159026Y26200004D01*
X84151751Y26177707D01*
X84147337Y26175192D01*
X84114414Y26164404D01*
X84057302Y26150131D01*
X83982602Y26133936D01*
X83896916Y26117381D01*
X83868005Y26112108D01*
X83734475Y26087587D01*
X83629533Y26067879D01*
X83549540Y26052169D01*
X83490859Y26039638D01*
X83449852Y26029471D01*
X83422881Y26020849D01*
X83406308Y26012955D01*
X83396495Y26004973D01*
X83395355Y26003633D01*
X83379308Y25975703D01*
X83355563Y25924596D01*
X83326421Y25856308D01*
X83294183Y25776834D01*
X83261150Y25692171D01*
X83229624Y25608313D01*
X83201906Y25531256D01*
X83180297Y25466996D01*
X83167099Y25421528D01*
X83164613Y25400848D01*
X83166275Y25398165D01*
X83183485Y25372216D01*
X83215850Y25324355D01*
X83260370Y25258990D01*
X83314043Y25180530D01*
X83373869Y25093385D01*
X83390287Y25069408D01*
X83448023Y24983405D01*
X83497920Y24906489D01*
X83537129Y24843223D01*
X83562803Y24798168D01*
X83572094Y24775885D01*
X83570092Y24770027D01*
X83549223Y24741159D01*
X83508051Y24694020D01*
X83449523Y24631780D01*
X83376587Y24557613D01*
X83292193Y24474692D01*
X83243954Y24428279D01*
X83167682Y24355992D01*
X83100925Y24294076D01*
X83047266Y24245789D01*
X83010290Y24214393D01*
X82993583Y24203146D01*
X82982105Y24207316D01*
X82946765Y24227037D01*
X82895443Y24259290D01*
X82834833Y24299989D01*
X82791740Y24329689D01*
X82705707Y24388670D01*
X82613899Y24451310D01*
X82530043Y24508231D01*
X82365773Y24619341D01*
X82227880Y24544784D01*
X82195410Y24527575D01*
X82136362Y24498140D01*
X82090699Y24477817D01*
X82066294Y24470240D01*
X82058308Y24479970D01*
X82038476Y24517021D01*
X82009182Y24578107D01*
X81972058Y24659351D01*
X81928733Y24756877D01*
X81880838Y24866809D01*
X81830001Y24985268D01*
X81777853Y25108379D01*
X81726024Y25232265D01*
X81676144Y25353050D01*
X81629843Y25466856D01*
X81588751Y25569807D01*
X81554498Y25658027D01*
X81528713Y25727638D01*
X81513028Y25774764D01*
X81509071Y25795528D01*
X81509339Y25796135D01*
X81527770Y25815330D01*
X81566322Y25845394D01*
X81617036Y25880091D01*
X81633044Y25890686D01*
X81754845Y25991202D01*
X81855649Y26110923D01*
X81933071Y26244866D01*
X81984724Y26388047D01*
X82008220Y26535484D01*
X82001174Y26682193D01*
X81972630Y26812680D01*
X81921379Y26944443D01*
X81846665Y27061994D01*
X81744134Y27173658D01*
X81703847Y27209331D01*
X81573609Y27297220D01*
X81432917Y27356412D01*
X81285847Y27387435D01*
X81136478Y27390821D01*
X80988887Y27367098D01*
X80847149Y27316796D01*
X80715343Y27240445D01*
X80597546Y27138575D01*
X80497834Y27011716D01*
X80478663Y26980300D01*
X80413503Y26836708D01*
X80378897Y26687183D01*
X80373938Y26535595D01*
X80397721Y26385818D01*
X80449339Y26241724D01*
X80527886Y26107185D01*
X80632456Y25986075D01*
X80762142Y25882266D01*
X80766354Y25879468D01*
X80816530Y25844110D01*
X80854137Y25814047D01*
X80871314Y25795528D01*
X80869146Y25781010D01*
X80855671Y25738735D01*
X80831778Y25673214D01*
X80799095Y25588323D01*
X80759253Y25487941D01*
X80713880Y25375943D01*
X80664607Y25256209D01*
X80613061Y25132616D01*
X80560874Y25009041D01*
X80509673Y24889361D01*
X80461088Y24777455D01*
X80416750Y24677200D01*
X80378286Y24592473D01*
X80347326Y24527153D01*
X80325499Y24485116D01*
X80314436Y24470240D01*
X80305236Y24472254D01*
X80269091Y24486734D01*
X80215671Y24512122D01*
X80152851Y24544784D01*
X80014958Y24619341D01*
X79850688Y24508231D01*
X79802156Y24475330D01*
X79711886Y24413855D01*
X79621891Y24352282D01*
X79545897Y24299989D01*
X79503957Y24271491D01*
X79449446Y24236084D01*
X79409029Y24211845D01*
X79389288Y24202858D01*
X79380807Y24206674D01*
X79350149Y24230044D01*
X79302888Y24271190D01*
X79243136Y24326065D01*
X79175008Y24390623D01*
X79102616Y24460815D01*
X79030076Y24532594D01*
X78961500Y24601914D01*
X78901002Y24664727D01*
X78852696Y24716986D01*
X78820696Y24754643D01*
X78809115Y24773652D01*
X78809783Y24777269D01*
X78823567Y24806707D01*
X78853012Y24857638D01*
X78895273Y24925462D01*
X78947505Y25005577D01*
X79006862Y25093385D01*
X79023509Y25117604D01*
X79081964Y25202832D01*
X79133453Y25278179D01*
X79174976Y25339237D01*
X79203531Y25381596D01*
X79216118Y25400848D01*
X79216427Y25401673D01*
X79212713Y25425227D01*
X79198527Y25472941D01*
X79176171Y25538821D01*
X79147947Y25616870D01*
X79116155Y25701093D01*
X79083098Y25785495D01*
X79051076Y25864079D01*
X79022391Y25930850D01*
X78999343Y25979814D01*
X78984235Y26004973D01*
X78982722Y26006535D01*
X78971905Y26014437D01*
X78953635Y26022406D01*
X78924276Y26031259D01*
X78880190Y26041813D01*
X78817738Y26054885D01*
X78733284Y26071292D01*
X78623189Y26091852D01*
X78483815Y26117381D01*
X78454907Y26122754D01*
X78372097Y26139363D01*
X78302438Y26155100D01*
X78252532Y26168402D01*
X78228979Y26177707D01*
X78225039Y26185470D01*
X78218470Y26222758D01*
X78213264Y26284575D01*
X78209426Y26365128D01*
X78206959Y26458625D01*
X78205867Y26559274D01*
X78206155Y26661283D01*
X78207827Y26758861D01*
X78210885Y26846215D01*
X78215335Y26917553D01*
X78221180Y26967083D01*
X78228424Y26989014D01*
X78235821Y26992254D01*
X78272616Y27002467D01*
X78334811Y27016911D01*
X78417443Y27034511D01*
X78515548Y27054190D01*
X78624164Y27074870D01*
X78683470Y27085919D01*
X78785118Y27105079D01*
X78872610Y27121856D01*
X78941269Y27135339D01*
X78986413Y27144616D01*
X79003364Y27148774D01*
X79004001Y27149631D01*
X79014797Y27171407D01*
X79035377Y27217029D01*
X79063169Y27280442D01*
X79095602Y27355593D01*
X79130102Y27436430D01*
X79164098Y27516901D01*
X79195017Y27590951D01*
X79220286Y27652528D01*
X79237335Y27695579D01*
X79243589Y27714050D01*
X79240830Y27720550D01*
X79222470Y27751478D01*
X79189166Y27803537D01*
X79143594Y27872641D01*
X79088431Y27954707D01*
X79026352Y28045648D01*
X78992293Y28095452D01*
X78933517Y28182769D01*
X78883123Y28259402D01*
X78843800Y28321169D01*
X78818234Y28363894D01*
X78809115Y28383395D01*
X78815452Y28393973D01*
X78841957Y28425581D01*
X78885440Y28473417D01*
X78941909Y28533427D01*
X79007373Y28601558D01*
X79077841Y28673755D01*
X79149321Y28745967D01*
X79217820Y28814138D01*
X79279349Y28874217D01*
X79329914Y28922149D01*
X79365525Y28953880D01*
X79382190Y28965358D01*
X79391440Y28960895D01*
X79425409Y28940198D01*
X79480225Y28904973D01*
X79551938Y28857804D01*
X79636598Y28801269D01*
X79730255Y28737952D01*
X80064679Y28510546D01*
X80622207Y28740378D01*
X80697756Y29141124D01*
X80773305Y29541871D01*
X81607426Y29541871D01*
X81682974Y29141124D01*
G36*
X81682974Y29141124D02*
G01*
X81758523Y28740378D01*
X82037287Y28625462D01*
X82316052Y28510546D01*
X82650476Y28737952D01*
X82716666Y28782783D01*
X82804413Y28841629D01*
X82880383Y28891890D01*
X82940631Y28930985D01*
X82981211Y28956335D01*
X82998177Y28965358D01*
X83008597Y28958941D01*
X83039745Y28932053D01*
X83086881Y28887926D01*
X83146013Y28830613D01*
X83213146Y28764165D01*
X83284286Y28692635D01*
X83355439Y28620074D01*
X83422612Y28550533D01*
X83481810Y28488065D01*
X83529039Y28436722D01*
X83560306Y28400555D01*
X83571615Y28383617D01*
X83568984Y28376339D01*
X83550768Y28343876D01*
X83517502Y28290451D01*
X83471884Y28220251D01*
X83416610Y28137464D01*
X83354378Y28046279D01*
X83320226Y27996548D01*
X83261477Y27909969D01*
X83211108Y27834409D01*
X83171806Y27773967D01*
X83146255Y27732739D01*
X83137142Y27714824D01*
X83137291Y27713831D01*
X83145331Y27691120D01*
X83163774Y27644745D01*
X83190051Y27580763D01*
X83221591Y27505232D01*
X83255822Y27424211D01*
X83290174Y27343757D01*
X83322075Y27269928D01*
X83348955Y27208782D01*
X83368242Y27166378D01*
X83377366Y27148774D01*
X83382765Y27147212D01*
X83415566Y27140169D01*
X83474026Y27128501D01*
X83553466Y27113120D01*
X83649206Y27094940D01*
X83756566Y27074870D01*
X83813151Y27064229D01*
X83917009Y27043927D01*
X84007817Y27025178D01*
X84080611Y27009058D01*
X84130428Y26996644D01*
X84152306Y26989014D01*
X84156236Y26981450D01*
X84162754Y26944491D01*
X84167876Y26882935D01*
X84171604Y26802573D01*
X84173943Y26709197D01*
X84174897Y26608599D01*
X84174469Y26506572D01*
X84172665Y26408907D01*
X84169486Y26321396D01*
X84164939Y26249831D01*
X84159026Y26200004D01*
X84151751Y26177707D01*
X84147337Y26175192D01*
X84114414Y26164404D01*
X84057302Y26150131D01*
X83982602Y26133936D01*
X83896916Y26117381D01*
X83868005Y26112108D01*
X83734475Y26087587D01*
X83629533Y26067879D01*
X83549540Y26052169D01*
X83490859Y26039638D01*
X83449852Y26029471D01*
X83422881Y26020849D01*
X83406308Y26012955D01*
X83396495Y26004973D01*
X83395355Y26003633D01*
X83379308Y25975703D01*
X83355563Y25924596D01*
X83326421Y25856308D01*
X83294183Y25776834D01*
X83261150Y25692171D01*
X83229624Y25608313D01*
X83201906Y25531256D01*
X83180297Y25466996D01*
X83167099Y25421528D01*
X83164613Y25400848D01*
X83166275Y25398165D01*
X83183485Y25372216D01*
X83215850Y25324355D01*
X83260370Y25258990D01*
X83314043Y25180530D01*
X83373869Y25093385D01*
X83390287Y25069408D01*
X83448023Y24983405D01*
X83497920Y24906489D01*
X83537129Y24843223D01*
X83562803Y24798168D01*
X83572094Y24775885D01*
X83570092Y24770027D01*
X83549223Y24741159D01*
X83508051Y24694020D01*
X83449523Y24631780D01*
X83376587Y24557613D01*
X83292193Y24474692D01*
X83243954Y24428279D01*
X83167682Y24355992D01*
X83100925Y24294076D01*
X83047266Y24245789D01*
X83010290Y24214393D01*
X82993583Y24203146D01*
X82982105Y24207316D01*
X82946765Y24227037D01*
X82895443Y24259290D01*
X82834833Y24299989D01*
X82791740Y24329689D01*
X82705707Y24388670D01*
X82613899Y24451310D01*
X82530043Y24508231D01*
X82365773Y24619341D01*
X82227880Y24544784D01*
X82195410Y24527575D01*
X82136362Y24498140D01*
X82090699Y24477817D01*
X82066294Y24470240D01*
X82058308Y24479970D01*
X82038476Y24517021D01*
X82009182Y24578107D01*
X81972058Y24659351D01*
X81928733Y24756877D01*
X81880838Y24866809D01*
X81830001Y24985268D01*
X81777853Y25108379D01*
X81726024Y25232265D01*
X81676144Y25353050D01*
X81629843Y25466856D01*
X81588751Y25569807D01*
X81554498Y25658027D01*
X81528713Y25727638D01*
X81513028Y25774764D01*
X81509071Y25795528D01*
X81509339Y25796135D01*
X81527770Y25815330D01*
X81566322Y25845394D01*
X81617036Y25880091D01*
X81633044Y25890686D01*
X81754845Y25991202D01*
X81855649Y26110923D01*
X81933071Y26244866D01*
X81984724Y26388047D01*
X82008220Y26535484D01*
X82001174Y26682193D01*
X81972630Y26812680D01*
X81921379Y26944443D01*
X81846665Y27061994D01*
X81744134Y27173658D01*
X81703847Y27209331D01*
X81573609Y27297220D01*
X81432917Y27356412D01*
X81285847Y27387435D01*
X81136478Y27390821D01*
X80988887Y27367098D01*
X80847149Y27316796D01*
X80715343Y27240445D01*
X80597546Y27138575D01*
X80497834Y27011716D01*
X80478663Y26980300D01*
X80413503Y26836708D01*
X80378897Y26687183D01*
X80373938Y26535595D01*
X80397721Y26385818D01*
X80449339Y26241724D01*
X80527886Y26107185D01*
X80632456Y25986075D01*
X80762142Y25882266D01*
X80766354Y25879468D01*
X80816530Y25844110D01*
X80854137Y25814047D01*
X80871314Y25795528D01*
X80869146Y25781010D01*
X80855671Y25738735D01*
X80831778Y25673214D01*
X80799095Y25588323D01*
X80759253Y25487941D01*
X80713880Y25375943D01*
X80664607Y25256209D01*
X80613061Y25132616D01*
X80560874Y25009041D01*
X80509673Y24889361D01*
X80461088Y24777455D01*
X80416750Y24677200D01*
X80378286Y24592473D01*
X80347326Y24527153D01*
X80325499Y24485116D01*
X80314436Y24470240D01*
X80305236Y24472254D01*
X80269091Y24486734D01*
X80215671Y24512122D01*
X80152851Y24544784D01*
X80014958Y24619341D01*
X79850688Y24508231D01*
X79802156Y24475330D01*
X79711886Y24413855D01*
X79621891Y24352282D01*
X79545897Y24299989D01*
X79503957Y24271491D01*
X79449446Y24236084D01*
X79409029Y24211845D01*
X79389288Y24202858D01*
X79380807Y24206674D01*
X79350149Y24230044D01*
X79302888Y24271190D01*
X79243136Y24326065D01*
X79175008Y24390623D01*
X79102616Y24460815D01*
X79030076Y24532594D01*
X78961500Y24601914D01*
X78901002Y24664727D01*
X78852696Y24716986D01*
X78820696Y24754643D01*
X78809115Y24773652D01*
X78809783Y24777269D01*
X78823567Y24806707D01*
X78853012Y24857638D01*
X78895273Y24925462D01*
X78947505Y25005577D01*
X79006862Y25093385D01*
X79023509Y25117604D01*
X79081964Y25202832D01*
X79133453Y25278179D01*
X79174976Y25339237D01*
X79203531Y25381596D01*
X79216118Y25400848D01*
X79216427Y25401673D01*
X79212713Y25425227D01*
X79198527Y25472941D01*
X79176171Y25538821D01*
X79147947Y25616870D01*
X79116155Y25701093D01*
X79083098Y25785495D01*
X79051076Y25864079D01*
X79022391Y25930850D01*
X78999343Y25979814D01*
X78984235Y26004973D01*
X78982722Y26006535D01*
X78971905Y26014437D01*
X78953635Y26022406D01*
X78924276Y26031259D01*
X78880190Y26041813D01*
X78817738Y26054885D01*
X78733284Y26071292D01*
X78623189Y26091852D01*
X78483815Y26117381D01*
X78454907Y26122754D01*
X78372097Y26139363D01*
X78302438Y26155100D01*
X78252532Y26168402D01*
X78228979Y26177707D01*
X78225039Y26185470D01*
X78218470Y26222758D01*
X78213264Y26284575D01*
X78209426Y26365128D01*
X78206959Y26458625D01*
X78205867Y26559274D01*
X78206155Y26661283D01*
X78207827Y26758861D01*
X78210885Y26846215D01*
X78215335Y26917553D01*
X78221180Y26967083D01*
X78228424Y26989014D01*
X78235821Y26992254D01*
X78272616Y27002467D01*
X78334811Y27016911D01*
X78417443Y27034511D01*
X78515548Y27054190D01*
X78624164Y27074870D01*
X78683470Y27085919D01*
X78785118Y27105079D01*
X78872610Y27121856D01*
X78941269Y27135339D01*
X78986413Y27144616D01*
X79003364Y27148774D01*
X79004001Y27149631D01*
X79014797Y27171407D01*
X79035377Y27217029D01*
X79063169Y27280442D01*
X79095602Y27355593D01*
X79130102Y27436430D01*
X79164098Y27516901D01*
X79195017Y27590951D01*
X79220286Y27652528D01*
X79237335Y27695579D01*
X79243589Y27714050D01*
X79240830Y27720550D01*
X79222470Y27751478D01*
X79189166Y27803537D01*
X79143594Y27872641D01*
X79088431Y27954707D01*
X79026352Y28045648D01*
X78992293Y28095452D01*
X78933517Y28182769D01*
X78883123Y28259402D01*
X78843800Y28321169D01*
X78818234Y28363894D01*
X78809115Y28383395D01*
X78815452Y28393973D01*
X78841957Y28425581D01*
X78885440Y28473417D01*
X78941909Y28533427D01*
X79007373Y28601558D01*
X79077841Y28673755D01*
X79149321Y28745967D01*
X79217820Y28814138D01*
X79279349Y28874217D01*
X79329914Y28922149D01*
X79365525Y28953880D01*
X79382190Y28965358D01*
X79391440Y28960895D01*
X79425409Y28940198D01*
X79480225Y28904973D01*
X79551938Y28857804D01*
X79636598Y28801269D01*
X79730255Y28737952D01*
X80064679Y28510546D01*
X80622207Y28740378D01*
X80697756Y29141124D01*
X80773305Y29541871D01*
X81607426Y29541871D01*
X81682974Y29141124D01*
G37*
%TD*%
%LPC*%
D16*
%TO.C,H1*%
X5024120Y33134300D03*
%TD*%
D17*
%TO.C,H3*%
X97886520Y46863000D03*
%TD*%
%TO.C,H4*%
X99918520Y12331700D03*
%TD*%
%TO.C,H5*%
X2992120Y12331700D03*
%TD*%
D18*
%TO.C,J4*%
X82341720Y10045700D03*
D19*
X82341720Y12585700D03*
X84881720Y10045700D03*
X84881720Y12585700D03*
X87421720Y10045700D03*
X87421720Y12585700D03*
X89961720Y10045700D03*
X89961720Y12585700D03*
X92501720Y10045700D03*
X92501720Y12585700D03*
X95041720Y10045700D03*
X95041720Y12585700D03*
%TD*%
D18*
%TO.C,J5*%
X11963400Y10045700D03*
D19*
X11963400Y12585700D03*
X14503400Y10045700D03*
X14503400Y12585700D03*
X17043400Y10045700D03*
X17043400Y12585700D03*
X19583400Y10045700D03*
X19583400Y12585700D03*
%TD*%
D18*
%TO.C,J3*%
X38867000Y45658000D03*
D19*
X38867000Y48198000D03*
X41407000Y45658000D03*
X41407000Y48198000D03*
X43947000Y45658000D03*
X43947000Y48198000D03*
X46487000Y45658000D03*
X46487000Y48198000D03*
X49027000Y45658000D03*
X49027000Y48198000D03*
X51567000Y45658000D03*
X51567000Y48198000D03*
X54107000Y45658000D03*
X54107000Y48198000D03*
X56647000Y45658000D03*
X56647000Y48198000D03*
X59187000Y45658000D03*
X59187000Y48198000D03*
X61727000Y45658000D03*
X61727000Y48198000D03*
%TD*%
D17*
%TO.C,H2*%
X16276320Y46863000D03*
%TD*%
D20*
%TO.C,J2*%
X1803400Y1752600D03*
D19*
X4343400Y1752600D03*
X6883400Y1752600D03*
X9423400Y1752600D03*
X11963400Y1752600D03*
X14503400Y1752600D03*
X17043400Y1752600D03*
X19583400Y1752600D03*
X22123400Y1752600D03*
X24663400Y1752600D03*
X27203400Y1752600D03*
X29743400Y1752600D03*
X32283400Y1752600D03*
X34823400Y1752600D03*
X37363400Y1752600D03*
X39903400Y1752600D03*
X42443400Y1752600D03*
X44983400Y1752600D03*
X47523400Y1752600D03*
X50063400Y1752600D03*
X52603400Y1752600D03*
X55143400Y1752600D03*
X57683400Y1752600D03*
X60223400Y1752600D03*
X62763400Y1752600D03*
X65303400Y1752600D03*
X67843400Y1752600D03*
X70383400Y1752600D03*
X72923400Y1752600D03*
X75463400Y1752600D03*
X78003400Y1752600D03*
X80543400Y1752600D03*
X83083400Y1752600D03*
X85623400Y1752600D03*
X88163400Y1752600D03*
X90703400Y1752600D03*
X93243400Y1752600D03*
X95783400Y1752600D03*
X98323400Y1752600D03*
X100863400Y1752600D03*
X1803400Y4292600D03*
X4343400Y4292600D03*
X6883400Y4292600D03*
X9423400Y4292600D03*
X11963400Y4292600D03*
X14503400Y4292600D03*
X17043400Y4292600D03*
X19583400Y4292600D03*
X22123400Y4292600D03*
X24663400Y4292600D03*
X27203400Y4292600D03*
X29743400Y4292600D03*
X32283400Y4292600D03*
X34823400Y4292600D03*
X37363400Y4292600D03*
X39903400Y4292600D03*
X42443400Y4292600D03*
X44983400Y4292600D03*
X47523400Y4292600D03*
X50063400Y4292600D03*
X52603400Y4292600D03*
X55143400Y4292600D03*
X57683400Y4292600D03*
X60223400Y4292600D03*
X62763400Y4292600D03*
X65303400Y4292600D03*
X67843400Y4292600D03*
X70383400Y4292600D03*
X72923400Y4292600D03*
X75463400Y4292600D03*
X78003400Y4292600D03*
X80543400Y4292600D03*
X83083400Y4292600D03*
X85623400Y4292600D03*
X88163400Y4292600D03*
X90703400Y4292600D03*
X93243400Y4292600D03*
X95783400Y4292600D03*
X98323400Y4292600D03*
X100863400Y4292600D03*
%TD*%
%LPD*%
M02*
