%TF.GenerationSoftware,KiCad,Pcbnew,8.0.4*%
%TF.CreationDate,2024-07-26T11:17:42-07:00*%
%TF.ProjectId,ZORO,5a4f524f-2e6b-4696-9361-645f70636258,0*%
%TF.SameCoordinates,Original*%
%TF.FileFunction,Soldermask,Bot*%
%TF.FilePolarity,Negative*%
%FSLAX46Y46*%
G04 Gerber Fmt 4.6, Leading zero omitted, Abs format (unit mm)*
G04 Created by KiCad (PCBNEW 8.0.4) date 2024-07-26 11:17:42*
%MOMM*%
%LPD*%
G01*
G04 APERTURE LIST*
G04 Aperture macros list*
%AMRoundRect*
0 Rectangle with rounded corners*
0 $1 Rounding radius*
0 $2 $3 $4 $5 $6 $7 $8 $9 X,Y pos of 4 corners*
0 Add a 4 corners polygon primitive as box body*
4,1,4,$2,$3,$4,$5,$6,$7,$8,$9,$2,$3,0*
0 Add four circle primitives for the rounded corners*
1,1,$1+$1,$2,$3*
1,1,$1+$1,$4,$5*
1,1,$1+$1,$6,$7*
1,1,$1+$1,$8,$9*
0 Add four rect primitives between the rounded corners*
20,1,$1+$1,$2,$3,$4,$5,0*
20,1,$1+$1,$4,$5,$6,$7,0*
20,1,$1+$1,$6,$7,$8,$9,0*
20,1,$1+$1,$8,$9,$2,$3,0*%
G04 Aperture macros list end*
%ADD10C,3.302000*%
%ADD11C,2.802000*%
%ADD12RoundRect,0.051000X0.850000X-0.850000X0.850000X0.850000X-0.850000X0.850000X-0.850000X-0.850000X0*%
%ADD13O,1.802000X1.802000*%
%ADD14RoundRect,0.051000X-0.850000X0.850000X-0.850000X-0.850000X0.850000X-0.850000X0.850000X0.850000X0*%
G04 APERTURE END LIST*
D10*
%TO.C,H1*%
X5024120Y33134300D03*
%TD*%
D11*
%TO.C,H3*%
X97886520Y46863000D03*
%TD*%
%TO.C,H4*%
X99918520Y12331700D03*
%TD*%
%TO.C,H5*%
X2992120Y12331700D03*
%TD*%
D12*
%TO.C,J4*%
X82341720Y10045700D03*
D13*
X82341720Y12585700D03*
X84881720Y10045700D03*
X84881720Y12585700D03*
X87421720Y10045700D03*
X87421720Y12585700D03*
X89961720Y10045700D03*
X89961720Y12585700D03*
X92501720Y10045700D03*
X92501720Y12585700D03*
X95041720Y10045700D03*
X95041720Y12585700D03*
%TD*%
D12*
%TO.C,J5*%
X11963400Y10045700D03*
D13*
X11963400Y12585700D03*
X14503400Y10045700D03*
X14503400Y12585700D03*
X17043400Y10045700D03*
X17043400Y12585700D03*
X19583400Y10045700D03*
X19583400Y12585700D03*
%TD*%
D12*
%TO.C,J3*%
X38867000Y45658000D03*
D13*
X38867000Y48198000D03*
X41407000Y45658000D03*
X41407000Y48198000D03*
X43947000Y45658000D03*
X43947000Y48198000D03*
X46487000Y45658000D03*
X46487000Y48198000D03*
X49027000Y45658000D03*
X49027000Y48198000D03*
X51567000Y45658000D03*
X51567000Y48198000D03*
X54107000Y45658000D03*
X54107000Y48198000D03*
X56647000Y45658000D03*
X56647000Y48198000D03*
X59187000Y45658000D03*
X59187000Y48198000D03*
X61727000Y45658000D03*
X61727000Y48198000D03*
%TD*%
D11*
%TO.C,H2*%
X16276320Y46863000D03*
%TD*%
D14*
%TO.C,J2*%
X1803400Y1752600D03*
D13*
X4343400Y1752600D03*
X6883400Y1752600D03*
X9423400Y1752600D03*
X11963400Y1752600D03*
X14503400Y1752600D03*
X17043400Y1752600D03*
X19583400Y1752600D03*
X22123400Y1752600D03*
X24663400Y1752600D03*
X27203400Y1752600D03*
X29743400Y1752600D03*
X32283400Y1752600D03*
X34823400Y1752600D03*
X37363400Y1752600D03*
X39903400Y1752600D03*
X42443400Y1752600D03*
X44983400Y1752600D03*
X47523400Y1752600D03*
X50063400Y1752600D03*
X52603400Y1752600D03*
X55143400Y1752600D03*
X57683400Y1752600D03*
X60223400Y1752600D03*
X62763400Y1752600D03*
X65303400Y1752600D03*
X67843400Y1752600D03*
X70383400Y1752600D03*
X72923400Y1752600D03*
X75463400Y1752600D03*
X78003400Y1752600D03*
X80543400Y1752600D03*
X83083400Y1752600D03*
X85623400Y1752600D03*
X88163400Y1752600D03*
X90703400Y1752600D03*
X93243400Y1752600D03*
X95783400Y1752600D03*
X98323400Y1752600D03*
X100863400Y1752600D03*
X1803400Y4292600D03*
X4343400Y4292600D03*
X6883400Y4292600D03*
X9423400Y4292600D03*
X11963400Y4292600D03*
X14503400Y4292600D03*
X17043400Y4292600D03*
X19583400Y4292600D03*
X22123400Y4292600D03*
X24663400Y4292600D03*
X27203400Y4292600D03*
X29743400Y4292600D03*
X32283400Y4292600D03*
X34823400Y4292600D03*
X37363400Y4292600D03*
X39903400Y4292600D03*
X42443400Y4292600D03*
X44983400Y4292600D03*
X47523400Y4292600D03*
X50063400Y4292600D03*
X52603400Y4292600D03*
X55143400Y4292600D03*
X57683400Y4292600D03*
X60223400Y4292600D03*
X62763400Y4292600D03*
X65303400Y4292600D03*
X67843400Y4292600D03*
X70383400Y4292600D03*
X72923400Y4292600D03*
X75463400Y4292600D03*
X78003400Y4292600D03*
X80543400Y4292600D03*
X83083400Y4292600D03*
X85623400Y4292600D03*
X88163400Y4292600D03*
X90703400Y4292600D03*
X93243400Y4292600D03*
X95783400Y4292600D03*
X98323400Y4292600D03*
X100863400Y4292600D03*
%TD*%
M02*
