%TF.GenerationSoftware,KiCad,Pcbnew,8.0.4*%
%TF.CreationDate,2024-07-26T11:17:42-07:00*%
%TF.ProjectId,ZORO,5a4f524f-2e6b-4696-9361-645f70636258,0*%
%TF.SameCoordinates,Original*%
%TF.FileFunction,Paste,Top*%
%TF.FilePolarity,Positive*%
%FSLAX46Y46*%
G04 Gerber Fmt 4.6, Leading zero omitted, Abs format (unit mm)*
G04 Created by KiCad (PCBNEW 8.0.4) date 2024-07-26 11:17:42*
%MOMM*%
%LPD*%
G01*
G04 APERTURE LIST*
G04 Aperture macros list*
%AMRoundRect*
0 Rectangle with rounded corners*
0 $1 Rounding radius*
0 $2 $3 $4 $5 $6 $7 $8 $9 X,Y pos of 4 corners*
0 Add a 4 corners polygon primitive as box body*
4,1,4,$2,$3,$4,$5,$6,$7,$8,$9,$2,$3,0*
0 Add four circle primitives for the rounded corners*
1,1,$1+$1,$2,$3*
1,1,$1+$1,$4,$5*
1,1,$1+$1,$6,$7*
1,1,$1+$1,$8,$9*
0 Add four rect primitives between the rounded corners*
20,1,$1+$1,$2,$3,$4,$5,0*
20,1,$1+$1,$4,$5,$6,$7,0*
20,1,$1+$1,$6,$7,$8,$9,0*
20,1,$1+$1,$8,$9,$2,$3,0*%
G04 Aperture macros list end*
%ADD10RoundRect,0.237500X0.237500X-0.250000X0.237500X0.250000X-0.237500X0.250000X-0.237500X-0.250000X0*%
%ADD11RoundRect,0.237500X0.250000X0.237500X-0.250000X0.237500X-0.250000X-0.237500X0.250000X-0.237500X0*%
%ADD12RoundRect,0.237500X-0.237500X0.250000X-0.237500X-0.250000X0.237500X-0.250000X0.237500X0.250000X0*%
%ADD13RoundRect,0.237500X0.300000X0.237500X-0.300000X0.237500X-0.300000X-0.237500X0.300000X-0.237500X0*%
%ADD14RoundRect,0.237500X-0.300000X-0.237500X0.300000X-0.237500X0.300000X0.237500X-0.300000X0.237500X0*%
%ADD15R,0.500000X2.100000*%
%ADD16R,2.100000X0.500000*%
G04 APERTURE END LIST*
D10*
%TO.C,R14*%
X42037000Y40235500D03*
X42037000Y42060500D03*
%TD*%
D11*
%TO.C,R3*%
X34440500Y25781000D03*
X32615500Y25781000D03*
%TD*%
D12*
%TO.C,R15*%
X44323000Y15022200D03*
X44323000Y13197200D03*
%TD*%
D11*
%TO.C,R5*%
X34440500Y19685000D03*
X32615500Y19685000D03*
%TD*%
D13*
%TO.C,C1*%
X44550500Y8509000D03*
X42825500Y8509000D03*
%TD*%
D10*
%TO.C,R35*%
X55455000Y40235500D03*
X55455000Y42060500D03*
%TD*%
%TO.C,R31*%
X53423000Y40235500D03*
X53423000Y42060500D03*
%TD*%
%TO.C,R18*%
X43688000Y40235500D03*
X43688000Y42060500D03*
%TD*%
D13*
%TO.C,C2*%
X44550500Y6985000D03*
X42825500Y6985000D03*
%TD*%
D10*
%TO.C,R32*%
X49784000Y40235500D03*
X49784000Y42060500D03*
%TD*%
D11*
%TO.C,R2*%
X34440500Y33401000D03*
X32615500Y33401000D03*
%TD*%
%TO.C,R6*%
X34440500Y30353000D03*
X32615500Y30353000D03*
%TD*%
D10*
%TO.C,R33*%
X45720000Y40235500D03*
X45720000Y42060500D03*
%TD*%
D11*
%TO.C,R4*%
X34440500Y31877000D03*
X32615500Y31877000D03*
%TD*%
%TO.C,R9*%
X34440500Y24257000D03*
X32615500Y24257000D03*
%TD*%
D14*
%TO.C,C4*%
X66066500Y27940000D03*
X67791500Y27940000D03*
%TD*%
D12*
%TO.C,R13*%
X42799000Y15022200D03*
X42799000Y13197200D03*
%TD*%
D11*
%TO.C,R12*%
X34440500Y22733000D03*
X32615500Y22733000D03*
%TD*%
%TO.C,R8*%
X34440500Y28829000D03*
X32615500Y28829000D03*
%TD*%
%TO.C,R7*%
X34440500Y21209000D03*
X32615500Y21209000D03*
%TD*%
%TO.C,R10*%
X34440500Y27305000D03*
X32615500Y27305000D03*
%TD*%
D10*
%TO.C,R34*%
X57487000Y40235500D03*
X57487000Y42060500D03*
%TD*%
D14*
%TO.C,C3*%
X66066500Y26416000D03*
X67791500Y26416000D03*
%TD*%
D13*
%TO.C,C6*%
X35914500Y46253400D03*
X34189500Y46253400D03*
%TD*%
D12*
%TO.C,R17*%
X45892720Y15022200D03*
X45892720Y13197200D03*
%TD*%
D10*
%TO.C,R16*%
X40513000Y40235500D03*
X40513000Y42060500D03*
%TD*%
D12*
%TO.C,R11*%
X41275000Y15022200D03*
X41275000Y13197200D03*
%TD*%
D13*
%TO.C,C5*%
X35914500Y47777400D03*
X34189500Y47777400D03*
%TD*%
D15*
%TO.C,U1*%
X41092000Y18755000D03*
X41892000Y18755000D03*
X42692000Y18755000D03*
X43492000Y18755000D03*
X44292000Y18755000D03*
X45092000Y18755000D03*
X45892000Y18755000D03*
X46692000Y18755000D03*
X47492000Y18755000D03*
X48292000Y18755000D03*
X49092000Y18755000D03*
X49892000Y18755000D03*
X50692000Y18755000D03*
X51492000Y18755000D03*
X52292000Y18755000D03*
X53092000Y18755000D03*
X53892000Y18755000D03*
X54692000Y18755000D03*
X55492000Y18755000D03*
X56292000Y18755000D03*
X57092000Y18755000D03*
X57892000Y18755000D03*
X58692000Y18755000D03*
X59492000Y18755000D03*
D16*
X61842000Y21305000D03*
X61842000Y22105000D03*
X61842000Y22905000D03*
X61842000Y23705000D03*
X61842000Y24505000D03*
X61842000Y25305000D03*
X61842000Y26105000D03*
X61842000Y26905000D03*
X61842000Y27705000D03*
X61842000Y28505000D03*
X61842000Y29305000D03*
X61842000Y30105000D03*
X61842000Y30905000D03*
X61842000Y31705000D03*
X61842000Y32505000D03*
X61842000Y33305000D03*
D15*
X59492000Y35855000D03*
X58692000Y35855000D03*
X57892000Y35855000D03*
X57092000Y35855000D03*
X56292000Y35855000D03*
X55492000Y35855000D03*
X54692000Y35855000D03*
X53892000Y35855000D03*
X53092000Y35855000D03*
X52292000Y35855000D03*
X51492000Y35855000D03*
X50692000Y35855000D03*
X49892000Y35855000D03*
X49092000Y35855000D03*
X48292000Y35855000D03*
X47492000Y35855000D03*
X46692000Y35855000D03*
X45892000Y35855000D03*
X45092000Y35855000D03*
X44292000Y35855000D03*
X43492000Y35855000D03*
X42692000Y35855000D03*
X41892000Y35855000D03*
X41092000Y35855000D03*
D16*
X38742000Y33305000D03*
X38742000Y32505000D03*
X38742000Y31705000D03*
X38742000Y30905000D03*
X38742000Y30105000D03*
X38742000Y29305000D03*
X38742000Y28505000D03*
X38742000Y27705000D03*
X38742000Y26905000D03*
X38742000Y26105000D03*
X38742000Y25305000D03*
X38742000Y24505000D03*
X38742000Y23705000D03*
X38742000Y22905000D03*
X38742000Y22105000D03*
X38742000Y21305000D03*
%TD*%
D11*
%TO.C,R1*%
X34440500Y34925000D03*
X32615500Y34925000D03*
%TD*%
M02*
