%TF.GenerationSoftware,KiCad,Pcbnew,8.0.4*%
%TF.CreationDate,2024-07-26T11:17:42-07:00*%
%TF.ProjectId,ZORO,5a4f524f-2e6b-4696-9361-645f70636258,0*%
%TF.SameCoordinates,Original*%
%TF.FileFunction,Copper,L1,Top*%
%TF.FilePolarity,Positive*%
%FSLAX46Y46*%
G04 Gerber Fmt 4.6, Leading zero omitted, Abs format (unit mm)*
G04 Created by KiCad (PCBNEW 8.0.4) date 2024-07-26 11:17:42*
%MOMM*%
%LPD*%
G01*
G04 APERTURE LIST*
G04 Aperture macros list*
%AMRoundRect*
0 Rectangle with rounded corners*
0 $1 Rounding radius*
0 $2 $3 $4 $5 $6 $7 $8 $9 X,Y pos of 4 corners*
0 Add a 4 corners polygon primitive as box body*
4,1,4,$2,$3,$4,$5,$6,$7,$8,$9,$2,$3,0*
0 Add four circle primitives for the rounded corners*
1,1,$1+$1,$2,$3*
1,1,$1+$1,$4,$5*
1,1,$1+$1,$6,$7*
1,1,$1+$1,$8,$9*
0 Add four rect primitives between the rounded corners*
20,1,$1+$1,$2,$3,$4,$5,0*
20,1,$1+$1,$4,$5,$6,$7,0*
20,1,$1+$1,$6,$7,$8,$9,0*
20,1,$1+$1,$8,$9,$2,$3,0*%
G04 Aperture macros list end*
%TA.AperFunction,SMDPad,CuDef*%
%ADD10RoundRect,0.237500X0.237500X-0.250000X0.237500X0.250000X-0.237500X0.250000X-0.237500X-0.250000X0*%
%TD*%
%TA.AperFunction,SMDPad,CuDef*%
%ADD11RoundRect,0.237500X0.250000X0.237500X-0.250000X0.237500X-0.250000X-0.237500X0.250000X-0.237500X0*%
%TD*%
%TA.AperFunction,SMDPad,CuDef*%
%ADD12RoundRect,0.237500X-0.237500X0.250000X-0.237500X-0.250000X0.237500X-0.250000X0.237500X0.250000X0*%
%TD*%
%TA.AperFunction,SMDPad,CuDef*%
%ADD13RoundRect,0.237500X0.300000X0.237500X-0.300000X0.237500X-0.300000X-0.237500X0.300000X-0.237500X0*%
%TD*%
%TA.AperFunction,ComponentPad*%
%ADD14R,1.700000X1.700000*%
%TD*%
%TA.AperFunction,ComponentPad*%
%ADD15O,1.700000X1.700000*%
%TD*%
%TA.AperFunction,SMDPad,CuDef*%
%ADD16RoundRect,0.237500X-0.300000X-0.237500X0.300000X-0.237500X0.300000X0.237500X-0.300000X0.237500X0*%
%TD*%
%TA.AperFunction,SMDPad,CuDef*%
%ADD17R,0.500000X2.100000*%
%TD*%
%TA.AperFunction,SMDPad,CuDef*%
%ADD18R,2.100000X0.500000*%
%TD*%
%TA.AperFunction,ViaPad*%
%ADD19C,0.800000*%
%TD*%
%TA.AperFunction,ViaPad*%
%ADD20C,0.500000*%
%TD*%
%TA.AperFunction,Conductor*%
%ADD21C,0.330200*%
%TD*%
%TA.AperFunction,Conductor*%
%ADD22C,0.635000*%
%TD*%
%TA.AperFunction,Conductor*%
%ADD23C,0.304800*%
%TD*%
G04 APERTURE END LIST*
D10*
%TO.P,R14,1*%
%TO.N,/CPU_TEND1_N_S*%
X42037000Y40235500D03*
%TO.P,R14,2*%
%TO.N,/CPU_TEND1_N*%
X42037000Y42060500D03*
%TD*%
D11*
%TO.P,R3,1*%
%TO.N,/CPU_CLOCK_SRC*%
X34440500Y25781000D03*
%TO.P,R3,2*%
%TO.N,+3.3V*%
X32615500Y25781000D03*
%TD*%
D12*
%TO.P,R15,1*%
%TO.N,/CPU_INT1_N*%
X44323000Y15022200D03*
%TO.P,R15,2*%
%TO.N,+3.3V*%
X44323000Y13197200D03*
%TD*%
D11*
%TO.P,R5,1*%
%TO.N,/CPU_RESET_N*%
X34440500Y19685000D03*
%TO.P,R5,2*%
%TO.N,+3.3V*%
X32615500Y19685000D03*
%TD*%
D13*
%TO.P,C1,1*%
%TO.N,+3.3V*%
X44550500Y8509000D03*
%TO.P,C1,2*%
%TO.N,GND*%
X42825500Y8509000D03*
%TD*%
D10*
%TO.P,R35,1*%
%TO.N,/CPU_DCD0_N*%
X55455000Y40235500D03*
%TO.P,R35,2*%
%TO.N,+3.3V*%
X55455000Y42060500D03*
%TD*%
D14*
%TO.P,J4,1,Pin_1*%
%TO.N,/RCBUS_UART1_TX*%
X82341720Y10045700D03*
D15*
%TO.P,J4,2,Pin_2*%
%TO.N,/CPU_TXA0*%
X82341720Y12585700D03*
%TO.P,J4,3,Pin_3*%
%TO.N,/RCBUS_UART2_TX*%
X84881720Y10045700D03*
%TO.P,J4,4,Pin_4*%
%TO.N,/CPU_TXA1*%
X84881720Y12585700D03*
%TO.P,J4,5,Pin_5*%
%TO.N,/RCBUS_UART1_RX*%
X87421720Y10045700D03*
%TO.P,J4,6,Pin_6*%
%TO.N,/CPU_RXA0*%
X87421720Y12585700D03*
%TO.P,J4,7,Pin_7*%
%TO.N,/RCBUS_UART2_RX*%
X89961720Y10045700D03*
%TO.P,J4,8,Pin_8*%
%TO.N,/CPU_RXA1*%
X89961720Y12585700D03*
%TO.P,J4,9,Pin_9*%
%TO.N,/RCBUS_INT2_N*%
X92501720Y10045700D03*
%TO.P,J4,10,Pin_10*%
%TO.N,/CPU_INT2_N*%
X92501720Y12585700D03*
%TO.P,J4,11,Pin_11*%
%TO.N,/RCBUS_INT1_N*%
X95041720Y10045700D03*
%TO.P,J4,12,Pin_12*%
%TO.N,/CPU_INT1_N*%
X95041720Y12585700D03*
%TD*%
D10*
%TO.P,R31,1*%
%TO.N,/CPU_RXA0*%
X53423000Y40235500D03*
%TO.P,R31,2*%
%TO.N,+3.3V*%
X53423000Y42060500D03*
%TD*%
D14*
%TO.P,J5,1,Pin_1*%
%TO.N,/RCBUS_DREQ0_N*%
X11963400Y10045700D03*
D15*
%TO.P,J5,2,Pin_2*%
%TO.N,/CPU_CKA0*%
X11963400Y12585700D03*
%TO.P,J5,3,Pin_3*%
%TO.N,/RCBUS_TEND0_N*%
X14503400Y10045700D03*
%TO.P,J5,4,Pin_4*%
%TO.N,/CPU_CKA1*%
X14503400Y12585700D03*
%TO.P,J5,5,Pin_5*%
%TO.N,/RCBUS_DREQ1_N*%
X17043400Y10045700D03*
%TO.P,J5,6,Pin_6*%
%TO.N,/CPU_DREQ1_N*%
X17043400Y12585700D03*
%TO.P,J5,7,Pin_7*%
%TO.N,/RCBUS_TEND1_N*%
X19583400Y10045700D03*
%TO.P,J5,8,Pin_8*%
%TO.N,/CPU_TEND1_N*%
X19583400Y12585700D03*
%TD*%
D10*
%TO.P,R18,1*%
%TO.N,/CPU_DREQ1_N*%
X43688000Y40235500D03*
%TO.P,R18,2*%
%TO.N,+3.3V*%
X43688000Y42060500D03*
%TD*%
D13*
%TO.P,C2,1*%
%TO.N,+3.3V*%
X44550500Y6985000D03*
%TO.P,C2,2*%
%TO.N,GND*%
X42825500Y6985000D03*
%TD*%
D10*
%TO.P,R32,1*%
%TO.N,/CPU_RXA1*%
X49784000Y40235500D03*
%TO.P,R32,2*%
%TO.N,+3.3V*%
X49784000Y42060500D03*
%TD*%
D11*
%TO.P,R2,1*%
%TO.N,/CPU_MREQ_N_S*%
X34440500Y33401000D03*
%TO.P,R2,2*%
%TO.N,/CPU_MREQ_N*%
X32615500Y33401000D03*
%TD*%
D14*
%TO.P,J3,1,Pin_1*%
%TO.N,+3.3V*%
X38867000Y45658000D03*
D15*
%TO.P,J3,2,Pin_2*%
X38867000Y48198000D03*
%TO.P,J3,3,Pin_3*%
%TO.N,/CPU_CKS*%
X41407000Y45658000D03*
%TO.P,J3,4,Pin_4*%
%TO.N,/CPU_RXS*%
X41407000Y48198000D03*
%TO.P,J3,5,Pin_5*%
%TO.N,/CPU_TXS*%
X43947000Y45658000D03*
%TO.P,J3,6,Pin_6*%
%TO.N,GND*%
X43947000Y48198000D03*
%TO.P,J3,7,Pin_7*%
%TO.N,/CPU_CKA1*%
X46487000Y45658000D03*
%TO.P,J3,8,Pin_8*%
%TO.N,/CPU_CKA0*%
X46487000Y48198000D03*
%TO.P,J3,9,Pin_9*%
%TO.N,GND*%
X49027000Y45658000D03*
%TO.P,J3,10,Pin_10*%
X49027000Y48198000D03*
%TO.P,J3,11,Pin_11*%
%TO.N,/CPU_TXA1*%
X51567000Y45658000D03*
%TO.P,J3,12,Pin_12*%
%TO.N,/CPU_RXA1*%
X51567000Y48198000D03*
%TO.P,J3,13,Pin_13*%
%TO.N,/CPU_TXA0*%
X54107000Y45658000D03*
%TO.P,J3,14,Pin_14*%
%TO.N,/CPU_RXA0*%
X54107000Y48198000D03*
%TO.P,J3,15,Pin_15*%
%TO.N,/CPU_DCD0_N*%
X56647000Y45658000D03*
%TO.P,J3,16,Pin_16*%
%TO.N,/CPU_E*%
X56647000Y48198000D03*
%TO.P,J3,17,Pin_17*%
%TO.N,/CPU_RTS0_N*%
X59187000Y45658000D03*
%TO.P,J3,18,Pin_18*%
%TO.N,/CPU_CTS0_N*%
X59187000Y48198000D03*
%TO.P,J3,19,Pin_19*%
%TO.N,GND*%
X61727000Y45658000D03*
%TO.P,J3,20,Pin_20*%
X61727000Y48198000D03*
%TD*%
D11*
%TO.P,R6,1*%
%TO.N,/CPU_WR_N_S*%
X34440500Y30353000D03*
%TO.P,R6,2*%
%TO.N,/CPU_WR_N*%
X32615500Y30353000D03*
%TD*%
D10*
%TO.P,R33,1*%
%TO.N,/CPU_RXS*%
X45720000Y40235500D03*
%TO.P,R33,2*%
%TO.N,+3.3V*%
X45720000Y42060500D03*
%TD*%
D11*
%TO.P,R4,1*%
%TO.N,/CPU_M1_N_S*%
X34440500Y31877000D03*
%TO.P,R4,2*%
%TO.N,/CPU_M1_N*%
X32615500Y31877000D03*
%TD*%
%TO.P,R9,1*%
%TO.N,/CPU_WAIT_N*%
X34440500Y24257000D03*
%TO.P,R9,2*%
%TO.N,+3.3V*%
X32615500Y24257000D03*
%TD*%
D16*
%TO.P,C4,1*%
%TO.N,+3.3V*%
X66066500Y27940000D03*
%TO.P,C4,2*%
%TO.N,GND*%
X67791500Y27940000D03*
%TD*%
D14*
%TO.P,J2,1,Pin_1*%
%TO.N,/CPU_A15*%
X1803400Y1752600D03*
D15*
%TO.P,J2,2,Pin_2*%
%TO.N,/CPU_A14*%
X4343400Y1752600D03*
%TO.P,J2,3,Pin_3*%
%TO.N,/CPU_A13*%
X6883400Y1752600D03*
%TO.P,J2,4,Pin_4*%
%TO.N,/CPU_A12*%
X9423400Y1752600D03*
%TO.P,J2,5,Pin_5*%
%TO.N,/CPU_A11*%
X11963400Y1752600D03*
%TO.P,J2,6,Pin_6*%
%TO.N,/CPU_A10*%
X14503400Y1752600D03*
%TO.P,J2,7,Pin_7*%
%TO.N,/CPU_A9*%
X17043400Y1752600D03*
%TO.P,J2,8,Pin_8*%
%TO.N,/CPU_A8*%
X19583400Y1752600D03*
%TO.P,J2,9,Pin_9*%
%TO.N,/CPU_A7*%
X22123400Y1752600D03*
%TO.P,J2,10,Pin_10*%
%TO.N,/CPU_A6*%
X24663400Y1752600D03*
%TO.P,J2,11,Pin_11*%
%TO.N,/CPU_A5*%
X27203400Y1752600D03*
%TO.P,J2,12,Pin_12*%
%TO.N,/CPU_A4*%
X29743400Y1752600D03*
%TO.P,J2,13,Pin_13*%
%TO.N,/CPU_A3*%
X32283400Y1752600D03*
%TO.P,J2,14,Pin_14*%
%TO.N,/CPU_A2*%
X34823400Y1752600D03*
%TO.P,J2,15,Pin_15*%
%TO.N,/CPU_A1*%
X37363400Y1752600D03*
%TO.P,J2,16,Pin_16*%
%TO.N,/CPU_A0*%
X39903400Y1752600D03*
%TO.P,J2,17,Pin_17*%
%TO.N,GND*%
X42443400Y1752600D03*
%TO.P,J2,18,Pin_18*%
%TO.N,+3.3V*%
X44983400Y1752600D03*
%TO.P,J2,19,Pin_19*%
%TO.N,/CPU_M1_N*%
X47523400Y1752600D03*
%TO.P,J2,20,Pin_20*%
%TO.N,/CPU_RESET_N*%
X50063400Y1752600D03*
%TO.P,J2,21,Pin_21*%
%TO.N,/CPU_CLOCK_PHI*%
X52603400Y1752600D03*
%TO.P,J2,22,Pin_22*%
%TO.N,/CPU_INT0_N*%
X55143400Y1752600D03*
%TO.P,J2,23,Pin_23*%
%TO.N,/CPU_MREQ_N*%
X57683400Y1752600D03*
%TO.P,J2,24,Pin_24*%
%TO.N,/CPU_WR_N*%
X60223400Y1752600D03*
%TO.P,J2,25,Pin_25*%
%TO.N,/CPU_RD_N*%
X62763400Y1752600D03*
%TO.P,J2,26,Pin_26*%
%TO.N,/CPU_IORQ_N*%
X65303400Y1752600D03*
%TO.P,J2,27,Pin_27*%
%TO.N,/CPU_D0*%
X67843400Y1752600D03*
%TO.P,J2,28,Pin_28*%
%TO.N,/CPU_D1*%
X70383400Y1752600D03*
%TO.P,J2,29,Pin_29*%
%TO.N,/CPU_D2*%
X72923400Y1752600D03*
%TO.P,J2,30,Pin_30*%
%TO.N,/CPU_D3*%
X75463400Y1752600D03*
%TO.P,J2,31,Pin_31*%
%TO.N,/CPU_D4*%
X78003400Y1752600D03*
%TO.P,J2,32,Pin_32*%
%TO.N,/CPU_D5*%
X80543400Y1752600D03*
%TO.P,J2,33,Pin_33*%
%TO.N,/CPU_D6*%
X83083400Y1752600D03*
%TO.P,J2,34,Pin_34*%
%TO.N,/CPU_D7*%
X85623400Y1752600D03*
%TO.P,J2,35,Pin_35*%
%TO.N,/RCBUS_UART1_TX*%
X88163400Y1752600D03*
%TO.P,J2,36,Pin_36*%
%TO.N,/RCBUS_UART1_RX*%
X90703400Y1752600D03*
%TO.P,J2,37,Pin_37*%
%TO.N,/RCBUS_INT1_N*%
X93243400Y1752600D03*
%TO.P,J2,38,Pin_38*%
%TO.N,unconnected-(J2-Pin_38-Pad38)*%
X95783400Y1752600D03*
%TO.P,J2,39,Pin_39*%
%TO.N,unconnected-(J2-Pin_39-Pad39)*%
X98323400Y1752600D03*
%TO.P,J2,40,Pin_40*%
%TO.N,unconnected-(J2-Pin_40-Pad40)*%
X100863400Y1752600D03*
%TO.P,J2,41,Pin_41*%
%TO.N,unconnected-(J2-Pin_41-Pad41)*%
X1803400Y4292600D03*
%TO.P,J2,42,Pin_42*%
%TO.N,unconnected-(J2-Pin_42-Pad42)*%
X4343400Y4292600D03*
%TO.P,J2,43,Pin_43*%
%TO.N,unconnected-(J2-Pin_43-Pad43)*%
X6883400Y4292600D03*
%TO.P,J2,44,Pin_44*%
%TO.N,unconnected-(J2-Pin_44-Pad44)*%
X9423400Y4292600D03*
%TO.P,J2,45,Pin_45*%
%TO.N,/RCBUS_DREQ0_N*%
X11963400Y4292600D03*
%TO.P,J2,46,Pin_46*%
%TO.N,/RCBUS_TEND0_N*%
X14503400Y4292600D03*
%TO.P,J2,47,Pin_47*%
%TO.N,/RCBUS_DREQ1_N*%
X17043400Y4292600D03*
%TO.P,J2,48,Pin_48*%
%TO.N,/RCBUS_TEND1_N*%
X19583400Y4292600D03*
%TO.P,J2,49,Pin_49*%
%TO.N,unconnected-(J2-Pin_49-Pad49)*%
X22123400Y4292600D03*
%TO.P,J2,50,Pin_50*%
%TO.N,unconnected-(J2-Pin_50-Pad50)*%
X24663400Y4292600D03*
%TO.P,J2,51,Pin_51*%
%TO.N,unconnected-(J2-Pin_51-Pad51)*%
X27203400Y4292600D03*
%TO.P,J2,52,Pin_52*%
%TO.N,unconnected-(J2-Pin_52-Pad52)*%
X29743400Y4292600D03*
%TO.P,J2,53,Pin_53*%
%TO.N,/CPU_A19*%
X32283400Y4292600D03*
%TO.P,J2,54,Pin_54*%
%TO.N,/CPU_A18*%
X34823400Y4292600D03*
%TO.P,J2,55,Pin_55*%
%TO.N,/CPU_A17*%
X37363400Y4292600D03*
%TO.P,J2,56,Pin_56*%
%TO.N,/CPU_A16*%
X39903400Y4292600D03*
%TO.P,J2,57,Pin_57*%
%TO.N,GND*%
X42443400Y4292600D03*
%TO.P,J2,58,Pin_58*%
%TO.N,+3.3V*%
X44983400Y4292600D03*
%TO.P,J2,59,Pin_59*%
%TO.N,/CPU_RFSH_N*%
X47523400Y4292600D03*
%TO.P,J2,60,Pin_60*%
%TO.N,unconnected-(J2-Pin_60-Pad60)*%
X50063400Y4292600D03*
%TO.P,J2,61,Pin_61*%
%TO.N,/CPU_CLOCK_SRC*%
X52603400Y4292600D03*
%TO.P,J2,62,Pin_62*%
%TO.N,/CPU_BUSACK_N*%
X55143400Y4292600D03*
%TO.P,J2,63,Pin_63*%
%TO.N,/CPU_HALT_N*%
X57683400Y4292600D03*
%TO.P,J2,64,Pin_64*%
%TO.N,/CPU_BUSREQ_N*%
X60223400Y4292600D03*
%TO.P,J2,65,Pin_65*%
%TO.N,/CPU_WAIT_N*%
X62763400Y4292600D03*
%TO.P,J2,66,Pin_66*%
%TO.N,/CPU_NMI_N*%
X65303400Y4292600D03*
%TO.P,J2,67,Pin_67*%
%TO.N,unconnected-(J2-Pin_67-Pad67)*%
X67843400Y4292600D03*
%TO.P,J2,68,Pin_68*%
%TO.N,unconnected-(J2-Pin_68-Pad68)*%
X70383400Y4292600D03*
%TO.P,J2,69,Pin_69*%
%TO.N,unconnected-(J2-Pin_69-Pad69)*%
X72923400Y4292600D03*
%TO.P,J2,70,Pin_70*%
%TO.N,unconnected-(J2-Pin_70-Pad70)*%
X75463400Y4292600D03*
%TO.P,J2,71,Pin_71*%
%TO.N,unconnected-(J2-Pin_71-Pad71)*%
X78003400Y4292600D03*
%TO.P,J2,72,Pin_72*%
%TO.N,unconnected-(J2-Pin_72-Pad72)*%
X80543400Y4292600D03*
%TO.P,J2,73,Pin_73*%
%TO.N,unconnected-(J2-Pin_73-Pad73)*%
X83083400Y4292600D03*
%TO.P,J2,74,Pin_74*%
%TO.N,unconnected-(J2-Pin_74-Pad74)*%
X85623400Y4292600D03*
%TO.P,J2,75,Pin_75*%
%TO.N,/RCBUS_UART2_TX*%
X88163400Y4292600D03*
%TO.P,J2,76,Pin_76*%
%TO.N,/RCBUS_UART2_RX*%
X90703400Y4292600D03*
%TO.P,J2,77,Pin_77*%
%TO.N,/RCBUS_INT2_N*%
X93243400Y4292600D03*
%TO.P,J2,78,Pin_78*%
%TO.N,unconnected-(J2-Pin_78-Pad78)*%
X95783400Y4292600D03*
%TO.P,J2,79,Pin_79*%
%TO.N,unconnected-(J2-Pin_79-Pad79)*%
X98323400Y4292600D03*
%TO.P,J2,80,Pin_80*%
%TO.N,unconnected-(J2-Pin_80-Pad80)*%
X100863400Y4292600D03*
%TD*%
D12*
%TO.P,R13,1*%
%TO.N,/CPU_INT0_N*%
X42799000Y15022200D03*
%TO.P,R13,2*%
%TO.N,+3.3V*%
X42799000Y13197200D03*
%TD*%
D11*
%TO.P,R12,1*%
%TO.N,/CPU_BUSACK_N_S*%
X34440500Y22733000D03*
%TO.P,R12,2*%
%TO.N,/CPU_BUSACK_N*%
X32615500Y22733000D03*
%TD*%
%TO.P,R8,1*%
%TO.N,/CPU_RD_N_S*%
X34440500Y28829000D03*
%TO.P,R8,2*%
%TO.N,/CPU_RD_N*%
X32615500Y28829000D03*
%TD*%
%TO.P,R7,1*%
%TO.N,/CPU_BUSREQ_N*%
X34440500Y21209000D03*
%TO.P,R7,2*%
%TO.N,+3.3V*%
X32615500Y21209000D03*
%TD*%
%TO.P,R10,1*%
%TO.N,/CPU_PHI_S*%
X34440500Y27305000D03*
%TO.P,R10,2*%
%TO.N,/CPU_CLOCK_PHI*%
X32615500Y27305000D03*
%TD*%
D10*
%TO.P,R34,1*%
%TO.N,/CPU_CTS0_N*%
X57487000Y40235500D03*
%TO.P,R34,2*%
%TO.N,+3.3V*%
X57487000Y42060500D03*
%TD*%
D16*
%TO.P,C3,1*%
%TO.N,+3.3V*%
X66066500Y26416000D03*
%TO.P,C3,2*%
%TO.N,GND*%
X67791500Y26416000D03*
%TD*%
D13*
%TO.P,C6,1*%
%TO.N,+3.3V*%
X35914500Y46253400D03*
%TO.P,C6,2*%
%TO.N,GND*%
X34189500Y46253400D03*
%TD*%
D12*
%TO.P,R17,1*%
%TO.N,/CPU_INT2_N*%
X45892720Y15022200D03*
%TO.P,R17,2*%
%TO.N,+3.3V*%
X45892720Y13197200D03*
%TD*%
D10*
%TO.P,R16,1*%
%TO.N,/CPU_RFSH_N_S*%
X40513000Y40235500D03*
%TO.P,R16,2*%
%TO.N,/CPU_RFSH_N*%
X40513000Y42060500D03*
%TD*%
D12*
%TO.P,R11,1*%
%TO.N,/CPU_NMI_N*%
X41275000Y15022200D03*
%TO.P,R11,2*%
%TO.N,+3.3V*%
X41275000Y13197200D03*
%TD*%
D13*
%TO.P,C5,1*%
%TO.N,+3.3V*%
X35914500Y47777400D03*
%TO.P,C5,2*%
%TO.N,GND*%
X34189500Y47777400D03*
%TD*%
D17*
%TO.P,U1,1,~{NMI}*%
%TO.N,/CPU_NMI_N*%
X41092000Y18755000D03*
%TO.P,U1,2,NC*%
%TO.N,unconnected-(U1-NC-Pad2)*%
X41892000Y18755000D03*
%TO.P,U1,3,NC*%
%TO.N,unconnected-(U1-NC-Pad3)*%
X42692000Y18755000D03*
%TO.P,U1,4,~{INT0}*%
%TO.N,/CPU_INT0_N*%
X43492000Y18755000D03*
%TO.P,U1,5,~{INT1}*%
%TO.N,/CPU_INT1_N*%
X44292000Y18755000D03*
%TO.P,U1,6,~{INT2}*%
%TO.N,/CPU_INT2_N*%
X45092000Y18755000D03*
%TO.P,U1,7,ST*%
%TO.N,unconnected-(U1-ST-Pad7)*%
X45892000Y18755000D03*
%TO.P,U1,8,A0*%
%TO.N,/CPU_A0*%
X46692000Y18755000D03*
%TO.P,U1,9,A1*%
%TO.N,/CPU_A1*%
X47492000Y18755000D03*
%TO.P,U1,10,A2*%
%TO.N,/CPU_A2*%
X48292000Y18755000D03*
%TO.P,U1,11,A3*%
%TO.N,/CPU_A3*%
X49092000Y18755000D03*
%TO.P,U1,12,GND*%
%TO.N,GND*%
X49892000Y18755000D03*
%TO.P,U1,13,A4*%
%TO.N,/CPU_A4*%
X50692000Y18755000D03*
%TO.P,U1,14,NC*%
%TO.N,unconnected-(U1-NC-Pad14)*%
X51492000Y18755000D03*
%TO.P,U1,15,A5*%
%TO.N,/CPU_A5*%
X52292000Y18755000D03*
%TO.P,U1,16,A6*%
%TO.N,/CPU_A6*%
X53092000Y18755000D03*
%TO.P,U1,17,A7*%
%TO.N,/CPU_A7*%
X53892000Y18755000D03*
%TO.P,U1,18,A8*%
%TO.N,/CPU_A8*%
X54692000Y18755000D03*
%TO.P,U1,19,A9*%
%TO.N,/CPU_A9*%
X55492000Y18755000D03*
%TO.P,U1,20,A10*%
%TO.N,/CPU_A10*%
X56292000Y18755000D03*
%TO.P,U1,21,A11*%
%TO.N,/CPU_A11*%
X57092000Y18755000D03*
%TO.P,U1,22,NC*%
%TO.N,unconnected-(U1-NC-Pad22)*%
X57892000Y18755000D03*
%TO.P,U1,23,NC*%
%TO.N,unconnected-(U1-NC-Pad23)*%
X58692000Y18755000D03*
%TO.P,U1,24,A12*%
%TO.N,/CPU_A12*%
X59492000Y18755000D03*
D18*
%TO.P,U1,25,A13*%
%TO.N,/CPU_A13*%
X61842000Y21305000D03*
%TO.P,U1,26,A14*%
%TO.N,/CPU_A14*%
X61842000Y22105000D03*
%TO.P,U1,27,A15*%
%TO.N,/CPU_A15*%
X61842000Y22905000D03*
%TO.P,U1,28,A16*%
%TO.N,/CPU_A16*%
X61842000Y23705000D03*
%TO.P,U1,29,A17*%
%TO.N,/CPU_A17*%
X61842000Y24505000D03*
%TO.P,U1,30,NC*%
%TO.N,unconnected-(U1-NC-Pad30)*%
X61842000Y25305000D03*
%TO.P,U1,31,A18*%
%TO.N,/CPU_A18*%
X61842000Y26105000D03*
%TO.P,U1,32,VDD*%
%TO.N,+3.3V*%
X61842000Y26905000D03*
%TO.P,U1,33,A19*%
%TO.N,/CPU_A19*%
X61842000Y27705000D03*
%TO.P,U1,34,GND*%
%TO.N,GND*%
X61842000Y28505000D03*
%TO.P,U1,35,D0*%
%TO.N,/CPU_D0*%
X61842000Y29305000D03*
%TO.P,U1,36,D1*%
%TO.N,/CPU_D1*%
X61842000Y30105000D03*
%TO.P,U1,37,D2*%
%TO.N,/CPU_D2*%
X61842000Y30905000D03*
%TO.P,U1,38,D3*%
%TO.N,/CPU_D3*%
X61842000Y31705000D03*
%TO.P,U1,39,D4*%
%TO.N,/CPU_D4*%
X61842000Y32505000D03*
%TO.P,U1,40,D5*%
%TO.N,/CPU_D5*%
X61842000Y33305000D03*
D17*
%TO.P,U1,41,D6*%
%TO.N,/CPU_D6*%
X59492000Y35855000D03*
%TO.P,U1,42,NC*%
%TO.N,unconnected-(U1-NC-Pad42)*%
X58692000Y35855000D03*
%TO.P,U1,43,NC*%
%TO.N,unconnected-(U1-NC-Pad43)*%
X57892000Y35855000D03*
%TO.P,U1,44,D7*%
%TO.N,/CPU_D7*%
X57092000Y35855000D03*
%TO.P,U1,45,~{RTS0}*%
%TO.N,/CPU_RTS0_N*%
X56292000Y35855000D03*
%TO.P,U1,46,~{CTS0}*%
%TO.N,/CPU_CTS0_N*%
X55492000Y35855000D03*
%TO.P,U1,47,~{DCD0}*%
%TO.N,/CPU_DCD0_N*%
X54692000Y35855000D03*
%TO.P,U1,48,TXA0*%
%TO.N,/CPU_TXA0*%
X53892000Y35855000D03*
%TO.P,U1,49,RXA0*%
%TO.N,/CPU_RXA0*%
X53092000Y35855000D03*
%TO.P,U1,50,CKA0/~{DREQ0}*%
%TO.N,/CPU_CKA0*%
X52292000Y35855000D03*
%TO.P,U1,51,NC*%
%TO.N,unconnected-(U1-NC-Pad51)*%
X51492000Y35855000D03*
%TO.P,U1,52,TXA1*%
%TO.N,/CPU_TXA1*%
X50692000Y35855000D03*
%TO.P,U1,53,TEST*%
%TO.N,unconnected-(U1-TEST-Pad53)*%
X49892000Y35855000D03*
%TO.P,U1,54,RXA1*%
%TO.N,/CPU_RXA1*%
X49092000Y35855000D03*
%TO.P,U1,55,CKA1/~{TEND0}*%
%TO.N,/CPU_CKA1*%
X48292000Y35855000D03*
%TO.P,U1,56,TXS*%
%TO.N,/CPU_TXS*%
X47492000Y35855000D03*
%TO.P,U1,57,RXS/~{CTS1}*%
%TO.N,/CPU_RXS*%
X46692000Y35855000D03*
%TO.P,U1,58,CKS*%
%TO.N,/CPU_CKS*%
X45892000Y35855000D03*
%TO.P,U1,59,~{DREQ1}*%
%TO.N,/CPU_DREQ1_N*%
X45092000Y35855000D03*
%TO.P,U1,60,~{TEND1}*%
%TO.N,/CPU_TEND1_N_S*%
X44292000Y35855000D03*
%TO.P,U1,61,~{HALT}*%
%TO.N,/CPU_HALT_N*%
X43492000Y35855000D03*
%TO.P,U1,62,NC*%
%TO.N,unconnected-(U1-NC-Pad62)*%
X42692000Y35855000D03*
%TO.P,U1,63,NC*%
%TO.N,unconnected-(U1-NC-Pad63)*%
X41892000Y35855000D03*
%TO.P,U1,64,~{RFSH}*%
%TO.N,/CPU_RFSH_N_S*%
X41092000Y35855000D03*
D18*
%TO.P,U1,65,~{IORQ}*%
%TO.N,/CPU_IORQ_N_S*%
X38742000Y33305000D03*
%TO.P,U1,66,~{MREQ}*%
%TO.N,/CPU_MREQ_N_S*%
X38742000Y32505000D03*
%TO.P,U1,67,E*%
%TO.N,/CPU_E*%
X38742000Y31705000D03*
%TO.P,U1,68,~{M1}*%
%TO.N,/CPU_M1_N_S*%
X38742000Y30905000D03*
%TO.P,U1,69,~{WR}*%
%TO.N,/CPU_WR_N_S*%
X38742000Y30105000D03*
%TO.P,U1,70,~{RD}*%
%TO.N,/CPU_RD_N_S*%
X38742000Y29305000D03*
%TO.P,U1,71,PHI*%
%TO.N,/CPU_PHI_S*%
X38742000Y28505000D03*
%TO.P,U1,72,GND*%
%TO.N,GND*%
X38742000Y27705000D03*
%TO.P,U1,73,GND*%
X38742000Y26905000D03*
%TO.P,U1,74,XTAL*%
%TO.N,unconnected-(U1-XTAL-Pad74)*%
X38742000Y26105000D03*
%TO.P,U1,75,NC*%
%TO.N,unconnected-(U1-NC-Pad75)*%
X38742000Y25305000D03*
%TO.P,U1,76,EXTAL*%
%TO.N,/CPU_CLOCK_SRC*%
X38742000Y24505000D03*
%TO.P,U1,77,~{WAIT}*%
%TO.N,/CPU_WAIT_N*%
X38742000Y23705000D03*
%TO.P,U1,78,~{BUSACK}*%
%TO.N,/CPU_BUSACK_N_S*%
X38742000Y22905000D03*
%TO.P,U1,79,~{BUSREQ}*%
%TO.N,/CPU_BUSREQ_N*%
X38742000Y22105000D03*
%TO.P,U1,80,~{RESET}*%
%TO.N,/CPU_RESET_N*%
X38742000Y21305000D03*
%TD*%
D11*
%TO.P,R1,1*%
%TO.N,/CPU_IORQ_N_S*%
X34440500Y34925000D03*
%TO.P,R1,2*%
%TO.N,/CPU_IORQ_N*%
X32615500Y34925000D03*
%TD*%
D19*
%TO.N,+3.3V*%
X46146720Y7931200D03*
X64561720Y26936700D03*
X35941000Y48768000D03*
D20*
X46908720Y12966700D03*
X45638720Y42811700D03*
X31750000Y24257000D03*
D19*
X64942720Y27952700D03*
D20*
X31750000Y25781000D03*
X49784000Y43053000D03*
X55417720Y42811700D03*
X57449720Y42811700D03*
X53423000Y43053000D03*
X31750000Y19685000D03*
X40177720Y12966700D03*
X43688000Y42811700D03*
D19*
X35941000Y45212000D03*
D20*
X31750000Y21209000D03*
%TO.N,GND*%
X101518720Y42811700D03*
X101518720Y35191700D03*
D19*
X50337720Y16903700D03*
D20*
X1188720Y27571700D03*
X90088720Y48526700D03*
D19*
X69006720Y27952700D03*
D20*
X9443720Y42176700D03*
X79928720Y48526700D03*
X74848720Y48526700D03*
X1188720Y17411700D03*
X24048720Y48526700D03*
X101518720Y22491700D03*
X1188720Y25031700D03*
X101518720Y17411700D03*
X101518720Y30111700D03*
X69768720Y48526700D03*
X101518720Y32651700D03*
X101518720Y25031700D03*
X77388720Y48526700D03*
X101518720Y40271700D03*
X29509720Y15760700D03*
X29128720Y48526700D03*
D19*
X34163000Y48768000D03*
D20*
X87548720Y48526700D03*
X67228720Y48526700D03*
X61386720Y7124700D03*
D19*
X40386000Y26924000D03*
D20*
X101518720Y19951700D03*
X1188720Y30111700D03*
X21508720Y48526700D03*
X101518720Y27571700D03*
X82468720Y48526700D03*
X29001720Y8648700D03*
X26588720Y48526700D03*
D19*
X34163000Y45212000D03*
D20*
X54655720Y6997700D03*
X72308720Y48526700D03*
X31668720Y48526700D03*
D19*
X41320720Y7886700D03*
D20*
X23159720Y6997700D03*
X1188720Y7251700D03*
X92628720Y48526700D03*
D19*
X60243720Y28505000D03*
D20*
X1188720Y22491700D03*
X6903720Y39636700D03*
X1188720Y9791700D03*
D19*
X36957000Y26924000D03*
X69006720Y26428700D03*
D20*
X4363720Y37096700D03*
X1188720Y14871700D03*
X11983720Y44716700D03*
X1188720Y19951700D03*
X85008720Y48526700D03*
X101518720Y37731700D03*
%TO.N,/CPU_TXA0*%
X61069220Y42113200D03*
%TO.N,/CPU_TXA1*%
X63418720Y42176700D03*
%TO.N,/CPU_DREQ1_N*%
X24937720Y37223700D03*
X45092000Y37350700D03*
%TO.N,/CPU_CKA0*%
X26842720Y41033700D03*
X52092860Y43964860D03*
%TO.N,/CPU_TEND1_N*%
X30208220Y40589200D03*
X42037000Y42811700D03*
%TO.N,/CPU_CKA1*%
X25191720Y39636700D03*
%TO.N,/CPU_RXA0*%
X64688720Y43446700D03*
%TO.N,/CPU_INT2_N*%
X45092000Y20293980D03*
%TO.N,/CPU_INT1_N*%
X44292000Y20967700D03*
%TO.N,/CPU_BUSACK_N*%
X31732220Y17348200D03*
X55417720Y14490700D03*
%TO.N,/CPU_A19*%
X63609220Y27889200D03*
X30716220Y39700200D03*
%TO.N,/CPU_A11*%
X57092000Y28714700D03*
%TO.N,/CPU_A15*%
X65450720Y22905000D03*
%TO.N,/CPU_CLOCK_PHI*%
X31115000Y14490700D03*
X51308000Y14490700D03*
%TO.N,/CPU_A14*%
X64516000Y22098000D03*
%TO.N,/CPU_A4*%
X51353720Y25158700D03*
%TO.N,/CPU_A5*%
X52292000Y26047700D03*
%TO.N,/CPU_A6*%
X53086000Y26936700D03*
%TO.N,/CPU_INT0_N*%
X43492000Y20205700D03*
X58846720Y15252700D03*
%TO.N,/CPU_MREQ_N*%
X27604720Y13601700D03*
X57068720Y13601700D03*
%TO.N,/CPU_WR_N*%
X63164720Y18427700D03*
X27985720Y17030700D03*
%TO.N,/CPU_NMI_N*%
X39669720Y17919700D03*
X65831720Y14363700D03*
%TO.N,/CPU_RESET_N*%
X34462720Y17030700D03*
X47797720Y16903700D03*
%TO.N,/CPU_A8*%
X53893720Y29476700D03*
%TO.N,/CPU_CLOCK_SRC*%
X50464720Y24269700D03*
X58846720Y24269700D03*
%TO.N,/CPU_A17*%
X37363400Y10533380D03*
X67609720Y10553700D03*
%TO.N,/CPU_A13*%
X63672720Y21221700D03*
%TO.N,/CPU_WAIT_N*%
X49131220Y23952200D03*
X65450720Y20205700D03*
%TO.N,/CPU_A3*%
X47924720Y23380700D03*
X30779720Y21221700D03*
%TO.N,/CPU_BUSREQ_N*%
X60624720Y11442700D03*
X34335720Y11569700D03*
%TO.N,/CPU_A9*%
X55492000Y26428700D03*
%TO.N,/CPU_IORQ_N*%
X26969720Y12204700D03*
%TO.N,/CPU_RFSH_N*%
X26969720Y10172700D03*
%TO.N,/CPU_A2*%
X36830000Y16014700D03*
X49702720Y16014700D03*
%TO.N,/CPU_RD_N*%
X28239720Y18300700D03*
X63926720Y19443700D03*
%TO.N,/CPU_M1_N*%
X30353000Y8128000D03*
%TO.N,/CPU_A16*%
X39415720Y12397600D03*
X66593720Y12839700D03*
%TO.N,/CPU_A18*%
X69006720Y9791700D03*
X34823400Y9664700D03*
%TO.N,/CPU_A7*%
X53848000Y27952700D03*
%TO.N,/CPU_A10*%
X56292000Y27571700D03*
%TO.N,/CPU_A12*%
X57957720Y29857700D03*
%TO.N,/CPU_E*%
X38653720Y43192700D03*
%TD*%
D21*
%TO.N,+3.3V*%
X32615500Y19685000D02*
X31750000Y19685000D01*
D22*
X35914500Y45238500D02*
X35941000Y45212000D01*
D21*
X53423000Y43053000D02*
X53423000Y42060500D01*
D22*
X44550500Y8509000D02*
X45568920Y8509000D01*
D21*
X32615500Y24257000D02*
X31750000Y24257000D01*
D23*
X44550500Y6985000D02*
X44991020Y6985000D01*
D21*
X66053800Y27952700D02*
X66066500Y27940000D01*
D22*
X46146720Y7632700D02*
X45499020Y6985000D01*
X35914500Y46253400D02*
X35914500Y45238500D01*
X37527000Y45658000D02*
X38867000Y45658000D01*
D23*
X44991020Y6985000D02*
X45130720Y7124700D01*
D21*
X55455000Y42060500D02*
X55455000Y42774420D01*
D22*
X35914500Y47777400D02*
X35914500Y48741500D01*
X45568920Y8509000D02*
X46146720Y7931200D01*
X44550500Y8509000D02*
X44550500Y5931000D01*
D21*
X45720000Y42060500D02*
X45720000Y42730420D01*
X43688000Y42060500D02*
X43688000Y42811700D01*
D23*
X46678220Y13197200D02*
X46908720Y12966700D01*
X40177720Y12966700D02*
X40408220Y13197200D01*
D22*
X37109400Y47777400D02*
X37592000Y48260000D01*
X45499020Y6985000D02*
X44550500Y6985000D01*
D21*
X64535000Y26905000D02*
X65024000Y26416000D01*
X61842000Y26905000D02*
X64535000Y26905000D01*
D22*
X46146720Y7931200D02*
X46146720Y7632700D01*
X35914500Y48741500D02*
X35941000Y48768000D01*
D21*
X57487000Y42774420D02*
X57449720Y42811700D01*
X64942720Y27952700D02*
X66053800Y27952700D01*
X66066500Y27940000D02*
X66066500Y26416000D01*
D23*
X41275000Y13197200D02*
X42799000Y13197200D01*
D21*
X32615500Y25781000D02*
X31750000Y25781000D01*
D22*
X37592000Y48260000D02*
X38805000Y48260000D01*
D21*
X32615500Y21209000D02*
X31750000Y21209000D01*
D23*
X42799000Y13197200D02*
X46678220Y13197200D01*
D21*
X55455000Y42774420D02*
X55417720Y42811700D01*
X45720000Y42730420D02*
X45638720Y42811700D01*
D23*
X42799000Y13197200D02*
X44323000Y13197200D01*
D22*
X38805000Y48260000D02*
X38867000Y48198000D01*
X35914500Y47777400D02*
X37109400Y47777400D01*
X44983400Y4292600D02*
X44983400Y5498100D01*
X36931600Y46253400D02*
X37527000Y45658000D01*
D23*
X40408220Y13197200D02*
X41275000Y13197200D01*
D21*
X65024000Y26416000D02*
X66066500Y26416000D01*
X57487000Y42060500D02*
X57487000Y42774420D01*
D22*
X44983400Y5498100D02*
X44550500Y5931000D01*
X35914500Y46253400D02*
X36931600Y46253400D01*
D21*
X49784000Y42060500D02*
X49784000Y43053000D01*
%TO.N,GND*%
X60243720Y28505000D02*
X61842000Y28505000D01*
X38742000Y26905000D02*
X40367000Y26905000D01*
X67804200Y26428700D02*
X67791500Y26416000D01*
D22*
X34189500Y45238500D02*
X34163000Y45212000D01*
D21*
X69006720Y27952700D02*
X67804200Y27952700D01*
D22*
X41854120Y6985000D02*
X42825500Y6985000D01*
D21*
X67791500Y27940000D02*
X67791500Y26416000D01*
D23*
X50337720Y16903700D02*
X50083720Y17157700D01*
D21*
X36957000Y27305000D02*
X37357000Y27705000D01*
D22*
X42443400Y4292600D02*
X42443400Y5548900D01*
X34163000Y48641000D02*
X34189500Y48614500D01*
X42443400Y5548900D02*
X42825500Y5931000D01*
D23*
X50337720Y16903700D02*
X49892000Y17349420D01*
D22*
X34189500Y48614500D02*
X34189500Y47777400D01*
D21*
X36957000Y26924000D02*
X36957000Y27305000D01*
D23*
X49892000Y17349420D02*
X49892000Y18755000D01*
D22*
X41320720Y7518400D02*
X41854120Y6985000D01*
X42825500Y5931000D02*
X42825500Y8509000D01*
D21*
X67804200Y27952700D02*
X67791500Y27940000D01*
X69006720Y26428700D02*
X67804200Y26428700D01*
D22*
X41943020Y8509000D02*
X41320720Y7886700D01*
D21*
X40367000Y26905000D02*
X40386000Y26924000D01*
X37357000Y27705000D02*
X38742000Y27705000D01*
D22*
X34189500Y46253400D02*
X34189500Y45238500D01*
X41320720Y7886700D02*
X41320720Y7518400D01*
D21*
X67791500Y27940000D02*
X67749420Y27940000D01*
D22*
X42825500Y8509000D02*
X41943020Y8509000D01*
D21*
%TO.N,/RCBUS_UART2_RX*%
X90703400Y4292600D02*
X90703400Y8095943D01*
X89961720Y8837623D02*
X89961720Y10045700D01*
X90703400Y8095943D02*
X89961720Y8837623D01*
%TO.N,/RCBUS_INT2_N*%
X93243400Y6637020D02*
X92501720Y7378700D01*
X93243400Y4292600D02*
X93243400Y6637020D01*
X92501720Y7378700D02*
X92501720Y10045700D01*
%TO.N,/CPU_TXA0*%
X53892000Y35855000D02*
X53892000Y38398000D01*
X54483000Y43815000D02*
X54107000Y44191000D01*
X81833720Y14871700D02*
X82341720Y14363700D01*
X62275720Y40906700D02*
X73578720Y40906700D01*
X73578720Y40906700D02*
X81833720Y32651700D01*
X81833720Y32651700D02*
X81833720Y14871700D01*
X54107000Y44191000D02*
X54107000Y45658000D01*
X53892000Y38398000D02*
X54483000Y38989000D01*
X54483000Y38989000D02*
X54483000Y43815000D01*
X82341720Y14363700D02*
X82341720Y12585700D01*
X61069220Y42113200D02*
X62275720Y40906700D01*
%TO.N,/CPU_TXA1*%
X83230720Y33286700D02*
X83230720Y15252700D01*
X83865720Y13601700D02*
X84881720Y12585700D01*
X50800000Y38493700D02*
X50800000Y43815000D01*
X83230720Y15252700D02*
X83865720Y14617700D01*
X83865720Y14617700D02*
X83865720Y13601700D01*
X63418720Y42176700D02*
X74340720Y42176700D01*
X50692000Y35855000D02*
X50692000Y38385700D01*
X74340720Y42176700D02*
X83230720Y33286700D01*
X50800000Y43815000D02*
X51567000Y44582000D01*
X51567000Y44582000D02*
X51567000Y45658000D01*
X50692000Y38385700D02*
X50800000Y38493700D01*
%TO.N,/RCBUS_UART1_RX*%
X89453720Y8013700D02*
X87421720Y10045700D01*
X89453720Y3002280D02*
X89453720Y8013700D01*
X90703400Y1752600D02*
X89453720Y3002280D01*
%TO.N,/CPU_DREQ1_N*%
X24937720Y37223700D02*
X15920720Y28206700D01*
X43688000Y39047420D02*
X43688000Y40108500D01*
X15920720Y13708380D02*
X17043400Y12585700D01*
X45092000Y37350700D02*
X45092000Y35855000D01*
X45092000Y37643420D02*
X43688000Y39047420D01*
X45092000Y37350700D02*
X45092000Y37643420D01*
X15920720Y28206700D02*
X15920720Y13708380D01*
%TO.N,/CPU_CKA0*%
X52092860Y43964860D02*
X51562000Y43434000D01*
X11963400Y28313380D02*
X11963400Y12585700D01*
X51562000Y37973000D02*
X52292000Y37243000D01*
X51562000Y43434000D02*
X51562000Y37973000D01*
X24683720Y41033700D02*
X11963400Y28313380D01*
X26842720Y41033700D02*
X24683720Y41033700D01*
X52292000Y37243000D02*
X52292000Y35855000D01*
%TO.N,/CPU_TEND1_N*%
X42037000Y42060500D02*
X42037000Y42811700D01*
X17698720Y14470380D02*
X19583400Y12585700D01*
X17698720Y28079700D02*
X17698720Y14470380D01*
X30208220Y40589200D02*
X17698720Y28079700D01*
%TO.N,/CPU_RXA1*%
X49092000Y37662000D02*
X49784000Y38354000D01*
X52734500Y49365500D02*
X63214920Y49365500D01*
X50292000Y44577000D02*
X50292000Y46923000D01*
X67863720Y44716700D02*
X75864720Y44716700D01*
X75864720Y44716700D02*
X86024720Y34556700D01*
X49092000Y35855000D02*
X49092000Y37662000D01*
X49784000Y38354000D02*
X49784000Y40108500D01*
X49172500Y40235500D02*
X48641000Y40767000D01*
X48641000Y40767000D02*
X48641000Y42926000D01*
X51567000Y48198000D02*
X52734500Y49365500D01*
X86024720Y16522700D02*
X89961720Y12585700D01*
X63214920Y49365500D02*
X67863720Y44716700D01*
X86024720Y34556700D02*
X86024720Y16522700D01*
X49784000Y40235500D02*
X49172500Y40235500D01*
X50292000Y46923000D02*
X51567000Y48198000D01*
X48641000Y42926000D02*
X50292000Y44577000D01*
%TO.N,/RCBUS_INT1_N*%
X95041720Y7124700D02*
X95041720Y10045700D01*
X94508320Y6591300D02*
X95041720Y7124700D01*
X94508320Y3017520D02*
X94508320Y6591300D01*
X93243400Y1752600D02*
X94508320Y3017520D01*
%TO.N,/RCBUS_DREQ0_N*%
X11963400Y4292600D02*
X11963400Y10045700D01*
X11963400Y9352200D02*
X11922600Y9393000D01*
%TO.N,/RCBUS_TEND1_N*%
X19583400Y4292600D02*
X19583400Y10045700D01*
%TO.N,/CPU_CKA1*%
X48006000Y40063420D02*
X48006000Y44139000D01*
X14503400Y14257020D02*
X14015720Y14744700D01*
X25191720Y39636700D02*
X14015720Y28460700D01*
X48292000Y35855000D02*
X48292000Y39777420D01*
X14503400Y12585700D02*
X14503400Y14257020D01*
X48006000Y44139000D02*
X46487000Y45658000D01*
X48292000Y39777420D02*
X48006000Y40063420D01*
X14015720Y28460700D02*
X14015720Y14744700D01*
%TO.N,/RCBUS_UART1_TX*%
X86913720Y5346700D02*
X82341720Y9918700D01*
X88163400Y1752600D02*
X86913720Y3002280D01*
X86913720Y3002280D02*
X86913720Y5346700D01*
X82341720Y9918700D02*
X82341720Y10045700D01*
%TO.N,/CPU_RXA0*%
X52324000Y40593000D02*
X52324000Y43307000D01*
X53092000Y38868000D02*
X53423000Y39199000D01*
X52852320Y46943320D02*
X54107000Y48198000D01*
X52324000Y43307000D02*
X52852320Y43835320D01*
X53423000Y39326000D02*
X53423000Y40235500D01*
X53423000Y40235500D02*
X52705000Y40235500D01*
X84627720Y33985200D02*
X84627720Y15379700D01*
X84627720Y15379700D02*
X87421720Y12585700D01*
X53092000Y35855000D02*
X53092000Y38868000D01*
X52705000Y40235500D02*
X52347500Y40593000D01*
X52347500Y40593000D02*
X52324000Y40593000D01*
X52852320Y43835320D02*
X52852320Y46943320D01*
X75166220Y43446700D02*
X84627720Y33985200D01*
X64688720Y43446700D02*
X75166220Y43446700D01*
%TO.N,/RCBUS_DREQ1_N*%
X17043400Y9352200D02*
X17002600Y9393000D01*
X17043400Y4292600D02*
X17043400Y10045700D01*
%TO.N,/RCBUS_TEND0_N*%
X14503400Y4292600D02*
X14503400Y10045700D01*
X14503400Y9352200D02*
X14462600Y9393000D01*
%TO.N,/CPU_INT2_N*%
X45092000Y20293980D02*
X45130720Y20332700D01*
X45092000Y20293980D02*
X45092000Y18755000D01*
X45092000Y18755000D02*
X45092000Y17069420D01*
X45892720Y16268700D02*
X45892720Y15022200D01*
X45092000Y17069420D02*
X45892720Y16268700D01*
%TO.N,/RCBUS_UART2_TX*%
X88163400Y4292600D02*
X88163400Y6764020D01*
X88163400Y6764020D02*
X84881720Y10045700D01*
%TO.N,/CPU_INT1_N*%
X44323000Y15022200D02*
X44292000Y15053200D01*
X44323000Y18724000D02*
X44292000Y18755000D01*
X44292000Y20967700D02*
X44292000Y18755000D01*
X44323000Y15240000D02*
X44323000Y15022200D01*
X44292000Y15053200D02*
X44292000Y18755000D01*
%TO.N,/CPU_BUSACK_N*%
X31732220Y17348200D02*
X29763720Y19316700D01*
X55417720Y4566920D02*
X55143400Y4292600D01*
X29763720Y19316700D02*
X29763720Y21729700D01*
X29763720Y21729700D02*
X30767020Y22733000D01*
X32615500Y22733000D02*
X31750000Y22733000D01*
X55417720Y14490700D02*
X55417720Y4566920D01*
X30767020Y22733000D02*
X31750000Y22733000D01*
%TO.N,/CPU_A19*%
X28620720Y6235700D02*
X30340300Y6235700D01*
X19603720Y28587700D02*
X19603720Y15252700D01*
X19603720Y15252700D02*
X28620720Y6235700D01*
X63425020Y27705000D02*
X61842000Y27705000D01*
X30340300Y6235700D02*
X32283400Y4292600D01*
X30716220Y39700200D02*
X19603720Y28587700D01*
X63609220Y27889200D02*
X63425020Y27705000D01*
%TO.N,/CPU_D1*%
X71800720Y8681720D02*
X69133720Y6014720D01*
X69641720Y30873700D02*
X71800720Y28714700D01*
X67482720Y30873700D02*
X69641720Y30873700D01*
X69133720Y6014720D02*
X69133720Y3002280D01*
X71800720Y28714700D02*
X71800720Y8681720D01*
X69133720Y3002280D02*
X70383400Y1752600D01*
X66714020Y30105000D02*
X67482720Y30873700D01*
X61842000Y30105000D02*
X66714020Y30105000D01*
%TO.N,/CPU_A11*%
X57092000Y28714700D02*
X57092000Y18755000D01*
%TO.N,/CPU_D5*%
X79268320Y4932680D02*
X77642720Y6558280D01*
X65695570Y35445700D02*
X63554870Y33305000D01*
X63554870Y33305000D02*
X61842000Y33305000D01*
X80543400Y1752600D02*
X79268320Y3027680D01*
X77642720Y31000700D02*
X73197720Y35445700D01*
X73197720Y35445700D02*
X65695570Y35445700D01*
X79268320Y3027680D02*
X79268320Y4932680D01*
X77642720Y6558280D02*
X77642720Y31000700D01*
%TO.N,/CPU_A15*%
X65450720Y22905000D02*
X61842000Y22905000D01*
%TO.N,/CPU_CLOCK_PHI*%
X51328320Y14470380D02*
X51328320Y3027680D01*
X32615500Y27305000D02*
X31750000Y27305000D01*
X51308000Y14490700D02*
X51328320Y14470380D01*
X51328320Y3027680D02*
X52603400Y1752600D01*
X31115000Y16687624D02*
X28747720Y19054904D01*
X28747720Y24302720D02*
X31750000Y27305000D01*
X28747720Y19054904D02*
X28747720Y24302720D01*
X31115000Y14490700D02*
X31115000Y16687624D01*
%TO.N,/CPU_A14*%
X64516000Y22098000D02*
X64509000Y22105000D01*
X64509000Y22105000D02*
X61842000Y22105000D01*
%TO.N,/CPU_D4*%
X76118720Y30619700D02*
X76118720Y6184900D01*
X66212720Y34429700D02*
X72308720Y34429700D01*
X76728320Y5575300D02*
X76728320Y3027680D01*
X61842000Y32505000D02*
X63239000Y32505000D01*
X76118720Y6184900D02*
X76728320Y5575300D01*
X63246000Y32512000D02*
X64307720Y32512000D01*
X64307720Y32524700D02*
X66212720Y34429700D01*
X64307720Y32512000D02*
X64307720Y32524700D01*
X63239000Y32505000D02*
X63246000Y32512000D01*
X72308720Y34429700D02*
X76118720Y30619700D01*
X76728320Y3027680D02*
X78003400Y1752600D01*
%TO.N,/CPU_A4*%
X50692000Y20339000D02*
X50692000Y18755000D01*
X51353720Y25158700D02*
X51353720Y21000720D01*
X51353720Y21000720D02*
X50692000Y20339000D01*
%TO.N,/CPU_A5*%
X52292000Y26047700D02*
X52292000Y18755000D01*
%TO.N,/CPU_A6*%
X53092000Y26930700D02*
X53092000Y18755000D01*
X53086000Y26936700D02*
X53092000Y26930700D01*
%TO.N,/CPU_D7*%
X82214720Y7886700D02*
X81198720Y7886700D01*
X62783720Y39636700D02*
X60739020Y37592000D01*
X84373720Y5727700D02*
X82214720Y7886700D01*
X85623400Y1752600D02*
X84373720Y3002280D01*
X57092000Y37153000D02*
X57092000Y35855000D01*
X72880220Y39636700D02*
X62783720Y39636700D01*
X60739020Y37592000D02*
X57531000Y37592000D01*
X84373720Y3002280D02*
X84373720Y5727700D01*
X80436720Y32080200D02*
X72880220Y39636700D01*
X81198720Y7886700D02*
X80436720Y8648700D01*
X80436720Y8648700D02*
X80436720Y32080200D01*
X57531000Y37592000D02*
X57092000Y37153000D01*
%TO.N,/CPU_INT0_N*%
X54782720Y15252700D02*
X53868320Y14338300D01*
X53868320Y3027680D02*
X55143400Y1752600D01*
X43492000Y20205700D02*
X43492000Y18755000D01*
X43492000Y17042980D02*
X43492000Y18755000D01*
X42799000Y15022200D02*
X42799000Y16349980D01*
X58846720Y15252700D02*
X54782720Y15252700D01*
X42799000Y16349980D02*
X43492000Y17042980D01*
X53868320Y14338300D02*
X53868320Y3027680D01*
%TO.N,/CPU_MREQ_N*%
X24048720Y27698700D02*
X29751020Y33401000D01*
X27604720Y13601700D02*
X24048720Y17157700D01*
X29751020Y33401000D02*
X32615500Y33401000D01*
X57068720Y13601700D02*
X56408320Y12941300D01*
X56408320Y12941300D02*
X56408320Y3027680D01*
X24048720Y17157700D02*
X24048720Y27698700D01*
X56408320Y3027680D02*
X57683400Y1752600D01*
%TO.N,/CPU_WR_N*%
X27985720Y17030700D02*
X26461720Y18554700D01*
X26461720Y26555700D02*
X30259020Y30353000D01*
X30259020Y30353000D02*
X32615500Y30353000D01*
X59354720Y12204700D02*
X59354720Y6997700D01*
X58973720Y6616700D02*
X58973720Y3002280D01*
X63164720Y16014700D02*
X59354720Y12204700D01*
X59354720Y6997700D02*
X58973720Y6616700D01*
X26461720Y18554700D02*
X26461720Y26555700D01*
X63164720Y18427700D02*
X63164720Y16014700D01*
X58973720Y3002280D02*
X60223400Y1752600D01*
%TO.N,/CPU_A0*%
X46273720Y5981700D02*
X47670720Y7378700D01*
X47670720Y15363280D02*
X46692000Y16342000D01*
X47670720Y7378700D02*
X47670720Y15363280D01*
X46692000Y16342000D02*
X46692000Y18755000D01*
X46273720Y3467100D02*
X46273720Y5981700D01*
X45841920Y3035300D02*
X46273720Y3467100D01*
X41186100Y3035300D02*
X45841920Y3035300D01*
X39903400Y1752600D02*
X41186100Y3035300D01*
%TO.N,/CPU_NMI_N*%
X40505020Y18755000D02*
X41092000Y18755000D01*
X65831720Y14363700D02*
X65831720Y13855700D01*
X65831720Y13855700D02*
X65303400Y13327380D01*
X41092000Y16566000D02*
X41092000Y18755000D01*
X39669720Y17919700D02*
X40505020Y18755000D01*
X65303400Y13327380D02*
X65303400Y4292600D01*
X41275000Y15022200D02*
X41275000Y16383000D01*
X41275000Y16383000D02*
X41092000Y16566000D01*
%TO.N,/CPU_RESET_N*%
X38742000Y21305000D02*
X37180000Y21305000D01*
X34440500Y17052920D02*
X34440500Y19685000D01*
X47797720Y16903700D02*
X48788320Y15913100D01*
X48788320Y3027680D02*
X50063400Y1752600D01*
X48788320Y15913100D02*
X48788320Y3027680D01*
X35560000Y19685000D02*
X34440500Y19685000D01*
X34462720Y17030700D02*
X34440500Y17052920D01*
X37180000Y21305000D02*
X35560000Y19685000D01*
%TO.N,/CPU_A8*%
X54692000Y28678420D02*
X54692000Y18755000D01*
X53893720Y29476700D02*
X54692000Y28678420D01*
%TO.N,/CPU_CLOCK_SRC*%
X58846720Y24269700D02*
X58846720Y21544280D01*
X58846720Y21544280D02*
X60624720Y19766280D01*
X60624720Y17157700D02*
X59862720Y16395700D01*
X49194720Y25539700D02*
X42209720Y25539700D01*
X60624720Y19766280D02*
X60624720Y17157700D01*
X38742000Y24505000D02*
X36455000Y24505000D01*
X41175020Y24505000D02*
X42209720Y25539700D01*
X54592220Y16395700D02*
X52603400Y14406880D01*
X35179000Y25781000D02*
X34440500Y25781000D01*
X50464720Y24269700D02*
X49194720Y25539700D01*
X59862720Y16395700D02*
X54592220Y16395700D01*
X36455000Y24505000D02*
X35179000Y25781000D01*
X52603400Y14406880D02*
X52603400Y4292600D01*
X38742000Y24505000D02*
X41175020Y24505000D01*
%TO.N,/CPU_A17*%
X37363400Y10533380D02*
X37363400Y7874000D01*
X67609720Y23919990D02*
X67024710Y24505000D01*
X67609720Y10553700D02*
X67609720Y23919990D01*
X37363400Y4292600D02*
X37363400Y7874000D01*
X67024710Y24505000D02*
X61842000Y24505000D01*
%TO.N,/CPU_A13*%
X63589420Y21305000D02*
X61842000Y21305000D01*
X63672720Y21221700D02*
X63589420Y21305000D01*
%TO.N,/CPU_WAIT_N*%
X63799720Y13322125D02*
X63799720Y6616700D01*
X63799720Y6616700D02*
X62763400Y5580380D01*
X64815720Y14338125D02*
X63799720Y13322125D01*
X62763400Y5580380D02*
X62763400Y4292600D01*
X42280020Y23705000D02*
X38742000Y23705000D01*
X43352720Y24777700D02*
X42280020Y23705000D01*
X35179000Y24257000D02*
X34440500Y24257000D01*
X65450720Y20205700D02*
X64815720Y19570700D01*
X49131220Y23952200D02*
X48305720Y24777700D01*
X48305720Y24777700D02*
X43352720Y24777700D01*
X64815720Y19570700D02*
X64815720Y14338125D01*
X35731000Y23705000D02*
X35179000Y24257000D01*
X38742000Y23705000D02*
X35731000Y23705000D01*
%TO.N,/CPU_A3*%
X33573720Y3042920D02*
X32283400Y1752600D01*
X30779720Y21221700D02*
X30779720Y19850451D01*
X49067720Y18779280D02*
X49092000Y18755000D01*
X47924720Y23380700D02*
X49067720Y22237700D01*
X30779720Y19850451D02*
X33573720Y17056451D01*
X49067720Y22237700D02*
X49067720Y18779280D01*
X33573720Y17056451D02*
X33573720Y3042920D01*
%TO.N,/CPU_BUSREQ_N*%
X40379000Y22105000D02*
X38742000Y22105000D01*
X60223400Y6342380D02*
X60223400Y4292600D01*
X38747700Y20332700D02*
X39860220Y20332700D01*
X40640000Y21844000D02*
X40379000Y22105000D01*
X35560000Y12793980D02*
X35560000Y17145000D01*
X36964000Y22105000D02*
X36068000Y21209000D01*
X38742000Y22105000D02*
X36964000Y22105000D01*
X39860220Y20332700D02*
X40640000Y21112480D01*
X60688220Y6807200D02*
X60223400Y6342380D01*
X35560000Y17145000D02*
X38747700Y20332700D01*
X60688220Y6807200D02*
X60688220Y11379200D01*
X40640000Y21112480D02*
X40640000Y21844000D01*
X34335720Y11569700D02*
X35560000Y12793980D01*
X36068000Y21209000D02*
X34440500Y21209000D01*
X60688220Y11379200D02*
X60624720Y11442700D01*
%TO.N,/CPU_A9*%
X55492000Y26428700D02*
X55492000Y18755000D01*
%TO.N,/CPU_D2*%
X65863020Y30905000D02*
X61842000Y30905000D01*
X72923400Y1752600D02*
X71648320Y3027680D01*
X67228720Y32270700D02*
X65863020Y30905000D01*
X71648320Y5735320D02*
X73197720Y7284720D01*
X73197720Y29349700D02*
X70276720Y32270700D01*
X71648320Y3027680D02*
X71648320Y5735320D01*
X70276720Y32270700D02*
X67228720Y32270700D01*
X73197720Y7284720D02*
X73197720Y29349700D01*
%TO.N,/CPU_IORQ_N*%
X29243020Y34925000D02*
X32615500Y34925000D01*
X22778720Y16395700D02*
X22778720Y28460700D01*
X26969720Y12204700D02*
X22778720Y16395700D01*
X22778720Y28460700D02*
X29243020Y34925000D01*
%TO.N,/CPU_D3*%
X71165720Y33413700D02*
X74721720Y29857700D01*
X74721720Y29857700D02*
X74721720Y6235700D01*
X74188320Y5702300D02*
X74188320Y3027680D01*
X61842000Y31705000D02*
X64885020Y31705000D01*
X74721720Y6235700D02*
X74188320Y5702300D01*
X64885020Y31705000D02*
X66593720Y33413700D01*
X66593720Y33413700D02*
X71165720Y33413700D01*
X74188320Y3027680D02*
X75463400Y1752600D01*
%TO.N,/CPU_HALT_N*%
X60878720Y20332700D02*
X61640720Y20332700D01*
X44196000Y33020000D02*
X55684420Y33020000D01*
X57683400Y12438380D02*
X62275720Y17030700D01*
X62275720Y17030700D02*
X62275720Y17411700D01*
X59862720Y21348700D02*
X60878720Y20332700D01*
X55684420Y33020000D02*
X59226500Y29477920D01*
X62275720Y19697700D02*
X62275720Y17411700D01*
X61640720Y20332700D02*
X62275720Y19697700D01*
X59226500Y27826920D02*
X59862720Y27190700D01*
X57683400Y4292600D02*
X57683400Y12438380D01*
X43492000Y35855000D02*
X43492000Y33724000D01*
X43492000Y33724000D02*
X44196000Y33020000D01*
X59226500Y29477920D02*
X59226500Y27826920D01*
X59862720Y27190700D02*
X59862720Y21348700D01*
%TO.N,/CPU_RFSH_N*%
X37465000Y42926000D02*
X38354000Y43815000D01*
X21254720Y15887700D02*
X21254720Y28587700D01*
X39751000Y43815000D02*
X40513000Y43053000D01*
X30005020Y37338000D02*
X35674300Y37338000D01*
X26969720Y10172700D02*
X21254720Y15887700D01*
X21254720Y28587700D02*
X30005020Y37338000D01*
X40513000Y43053000D02*
X40513000Y42060500D01*
X35674300Y37338000D02*
X37465000Y39128700D01*
X38354000Y43815000D02*
X39751000Y43815000D01*
X37465000Y39128700D02*
X37465000Y42926000D01*
%TO.N,/CPU_A2*%
X36088320Y10655300D02*
X36088320Y3017520D01*
X49702720Y16014700D02*
X49702720Y16209280D01*
X36830000Y16014700D02*
X36830000Y11396980D01*
X49702720Y16209280D02*
X48292000Y17620000D01*
X36830000Y11396980D02*
X36088320Y10655300D01*
X48292000Y17620000D02*
X48292000Y18755000D01*
X36088320Y3017520D02*
X34823400Y1752600D01*
%TO.N,/CPU_RD_N*%
X27604720Y25873710D02*
X30560010Y28829000D01*
X62148720Y13093700D02*
X62148720Y6743700D01*
X63926720Y14871700D02*
X62148720Y13093700D01*
X61488320Y3027680D02*
X62763400Y1752600D01*
X62148720Y6743700D02*
X61488320Y6083300D01*
X61488320Y6083300D02*
X61488320Y3027680D01*
X28239720Y18300700D02*
X27604720Y18935700D01*
X30560010Y28829000D02*
X32615500Y28829000D01*
X27604720Y18935700D02*
X27604720Y25873710D01*
X63926720Y19443700D02*
X63926720Y14871700D01*
%TO.N,/CPU_A1*%
X37363400Y1752600D02*
X38628320Y3017520D01*
X38628320Y3017520D02*
X38628320Y18326100D01*
X38628320Y18326100D02*
X43174920Y22872700D01*
X47492000Y21752210D02*
X47492000Y18755000D01*
X46371510Y22872700D02*
X47492000Y21752210D01*
X43174920Y22872700D02*
X46371510Y22872700D01*
%TO.N,/CPU_D0*%
X66593720Y3002280D02*
X66593720Y5252720D01*
X66593720Y5252720D02*
X70403720Y9062720D01*
X69178420Y29305000D02*
X61842000Y29305000D01*
X70403720Y28079700D02*
X69178420Y29305000D01*
X67843400Y1752600D02*
X66593720Y3002280D01*
X70403720Y9062720D02*
X70403720Y28079700D01*
%TO.N,/CPU_M1_N*%
X30005020Y31877000D02*
X32615500Y31877000D01*
X30353000Y13266420D02*
X25318720Y18300700D01*
X30353000Y8128000D02*
X30353000Y13266420D01*
X25318720Y27190700D02*
X30005020Y31877000D01*
X25318720Y18300700D02*
X25318720Y27190700D01*
%TO.N,/CPU_A16*%
X66593720Y22999700D02*
X65888420Y23705000D01*
X39903400Y11909920D02*
X39903400Y4292600D01*
X66593720Y12839700D02*
X66593720Y22999700D01*
X39415720Y12397600D02*
X39903400Y11909920D01*
X65888420Y23705000D02*
X61842000Y23705000D01*
%TO.N,/CPU_D6*%
X81833720Y3002280D02*
X81833720Y5524500D01*
X81833720Y5524500D02*
X79039720Y8318500D01*
X72181720Y38366700D02*
X65323720Y38366700D01*
X83083400Y1752600D02*
X81833720Y3002280D01*
X79039720Y8318500D02*
X79039720Y31508700D01*
X65323720Y38366700D02*
X62812020Y35855000D01*
X62812020Y35855000D02*
X59492000Y35855000D01*
X79039720Y31508700D02*
X72181720Y38366700D01*
%TO.N,/CPU_A18*%
X64054200Y25273000D02*
X63222200Y26105000D01*
X63222200Y26105000D02*
X61842000Y26105000D01*
X34823400Y9664700D02*
X34823400Y4292600D01*
X69006720Y24142700D02*
X67876420Y25273000D01*
X67876420Y25273000D02*
X64054200Y25273000D01*
X69006720Y9791700D02*
X69006720Y24142700D01*
%TO.N,/CPU_A7*%
X53848000Y27952700D02*
X53892000Y27908700D01*
X53892000Y27908700D02*
X53892000Y18755000D01*
%TO.N,/CPU_A10*%
X56292000Y27571700D02*
X56292000Y18755000D01*
%TO.N,/CPU_A12*%
X57957720Y29857700D02*
X57957720Y21544280D01*
X59492000Y20010000D02*
X59492000Y18755000D01*
X57957720Y21544280D02*
X59492000Y20010000D01*
%TO.N,/CPU_DCD0_N*%
X55455000Y38818000D02*
X55455000Y40108500D01*
X56471000Y40513000D02*
X56471000Y44025000D01*
X55455000Y40235500D02*
X56193500Y40235500D01*
X56471000Y44025000D02*
X56647000Y44201000D01*
X54692000Y38055000D02*
X55455000Y38818000D01*
X56647000Y44201000D02*
X56647000Y45658000D01*
X56193500Y40235500D02*
X56471000Y40513000D01*
X54692000Y35855000D02*
X54692000Y38055000D01*
%TO.N,/CPU_E*%
X38653720Y35826700D02*
X38653720Y43192700D01*
X40812720Y32143700D02*
X40812720Y33667700D01*
X40812720Y33667700D02*
X38653720Y35826700D01*
X38742000Y31705000D02*
X40374020Y31705000D01*
X40374020Y31705000D02*
X40812720Y32143700D01*
%TO.N,/CPU_CKS*%
X45892000Y37928000D02*
X44704000Y39116000D01*
X43972129Y43573700D02*
X42209720Y43573700D01*
X44704000Y39243000D02*
X44704000Y42841829D01*
X42209720Y43573700D02*
X41407000Y44376420D01*
X45892000Y35855000D02*
X45892000Y37928000D01*
X44704000Y42841829D02*
X43972129Y43573700D01*
X41407000Y44376420D02*
X41407000Y45658000D01*
%TO.N,/CPU_RXS*%
X42672000Y46933000D02*
X42672000Y44660820D01*
X44470320Y44259500D02*
X45261530Y43468290D01*
X42672000Y44660820D02*
X43073320Y44259500D01*
X46692000Y35855000D02*
X46692000Y38271000D01*
X41407000Y48198000D02*
X42672000Y46933000D01*
X46736000Y42545000D02*
X46736000Y41251500D01*
X45261530Y43468290D02*
X45812710Y43468290D01*
X46692000Y38271000D02*
X45720000Y39243000D01*
X46736000Y41251500D02*
X45720000Y40235500D01*
X43073320Y44259500D02*
X44470320Y44259500D01*
X45812710Y43468290D02*
X46736000Y42545000D01*
X45720000Y39370000D02*
X45720000Y40235500D01*
%TO.N,/CPU_CTS0_N*%
X56896000Y38735000D02*
X57487000Y39326000D01*
X58630000Y43986000D02*
X57912000Y44704000D01*
X55492000Y35855000D02*
X55492000Y37712000D01*
X57912000Y46923000D02*
X59187000Y48198000D01*
X55492000Y37712000D02*
X56515000Y38735000D01*
X57912000Y44704000D02*
X57912000Y46923000D01*
X57487000Y40235500D02*
X58098500Y40235500D01*
X58098500Y40235500D02*
X58630000Y40767000D01*
X56515000Y38735000D02*
X56896000Y38735000D01*
X57487000Y39453000D02*
X57487000Y40235500D01*
X58630000Y40767000D02*
X58630000Y43986000D01*
%TO.N,/CPU_TXS*%
X47371000Y42799000D02*
X44512000Y45658000D01*
X44512000Y45658000D02*
X43947000Y45658000D01*
X47492000Y35855000D02*
X47371000Y35976000D01*
X47371000Y35976000D02*
X47371000Y42799000D01*
%TO.N,/CPU_RTS0_N*%
X56292000Y37369000D02*
X56292000Y35855000D01*
X59182000Y44450000D02*
X59563000Y44069000D01*
X57150000Y38227000D02*
X56292000Y37369000D01*
X57404000Y38227000D02*
X57150000Y38227000D01*
X59563000Y40386000D02*
X57404000Y38227000D01*
X59187000Y44455000D02*
X59182000Y44450000D01*
X59563000Y44069000D02*
X59563000Y40386000D01*
X59187000Y45658000D02*
X59187000Y44455000D01*
%TO.N,/CPU_IORQ_N_S*%
X38742000Y34029000D02*
X37846000Y34925000D01*
X37846000Y34925000D02*
X34440500Y34925000D01*
X38742000Y33305000D02*
X38742000Y34029000D01*
%TO.N,/CPU_MREQ_N_S*%
X36322000Y33401000D02*
X34440500Y33401000D01*
X38742000Y32505000D02*
X37218000Y32505000D01*
X37218000Y32505000D02*
X36322000Y33401000D01*
%TO.N,/CPU_M1_N_S*%
X38742000Y30905000D02*
X37040000Y30905000D01*
X37040000Y30905000D02*
X36068000Y31877000D01*
X36068000Y31877000D02*
X34440500Y31877000D01*
%TO.N,/CPU_WR_N_S*%
X38742000Y30105000D02*
X36443000Y30105000D01*
X36195000Y30353000D02*
X34440500Y30353000D01*
X36443000Y30105000D02*
X36195000Y30353000D01*
%TO.N,/CPU_RD_N_S*%
X35814000Y28829000D02*
X36290000Y29305000D01*
X36290000Y29305000D02*
X38742000Y29305000D01*
X34440500Y28829000D02*
X35814000Y28829000D01*
%TO.N,/CPU_PHI_S*%
X36887000Y28505000D02*
X38742000Y28505000D01*
X35687000Y27305000D02*
X36887000Y28505000D01*
X34440500Y27305000D02*
X35687000Y27305000D01*
%TO.N,/CPU_BUSACK_N_S*%
X36367000Y22905000D02*
X36195000Y22733000D01*
X36195000Y22733000D02*
X34440500Y22733000D01*
X38742000Y22905000D02*
X36367000Y22905000D01*
%TO.N,/CPU_TEND1_N_S*%
X43942000Y37719000D02*
X44292000Y37369000D01*
X43180000Y37719000D02*
X43942000Y37719000D01*
X44292000Y35855000D02*
X44292000Y37369000D01*
X42037000Y40108500D02*
X42037000Y38862000D01*
X42037000Y38862000D02*
X43180000Y37719000D01*
%TO.N,/CPU_RFSH_N_S*%
X40513000Y38735000D02*
X40513000Y40108500D01*
X41092000Y35855000D02*
X41092000Y38156000D01*
X41092000Y38156000D02*
X40513000Y38735000D01*
%TD*%
%TA.AperFunction,Conductor*%
%TO.N,GND*%
G36*
X35463264Y49539698D02*
G01*
X35509757Y49486042D01*
X35519861Y49415768D01*
X35490367Y49351188D01*
X35484238Y49344605D01*
X35366104Y49226472D01*
X35366104Y49226471D01*
X35278495Y49087045D01*
X35233435Y48958268D01*
X35224112Y48931625D01*
X35205676Y48768000D01*
X35223726Y48607797D01*
X35224112Y48604376D01*
X35224113Y48604371D01*
X35241867Y48553633D01*
X35245485Y48482728D01*
X35214186Y48426771D01*
X35214282Y48426697D01*
X35213778Y48426041D01*
X35212038Y48422929D01*
X35209254Y48420146D01*
X35118178Y48301454D01*
X35098401Y48253707D01*
X35053852Y48198427D01*
X34986489Y48176006D01*
X34917697Y48193565D01*
X34880612Y48227105D01*
X34804641Y48330042D01*
X34697747Y48408933D01*
X34572362Y48452807D01*
X34572357Y48452808D01*
X34542586Y48455600D01*
X34316500Y48455600D01*
X34316500Y47776400D01*
X34296498Y47708279D01*
X34242842Y47661786D01*
X34190500Y47650400D01*
X33448800Y47650400D01*
X33448800Y47486814D01*
X33451592Y47457043D01*
X33451593Y47457038D01*
X33495467Y47331653D01*
X33574358Y47224759D01*
X33681252Y47145868D01*
X33714227Y47134329D01*
X33771919Y47092951D01*
X33798081Y47026950D01*
X33784408Y46957283D01*
X33735241Y46906067D01*
X33714227Y46896471D01*
X33681252Y46884933D01*
X33574358Y46806042D01*
X33495467Y46699148D01*
X33451593Y46573763D01*
X33451592Y46573758D01*
X33448800Y46543987D01*
X33448800Y46380400D01*
X34190500Y46380400D01*
X34258621Y46360398D01*
X34305114Y46306742D01*
X34316500Y46254400D01*
X34316500Y45575200D01*
X34542581Y45575200D01*
X34542586Y45575201D01*
X34572357Y45577993D01*
X34572362Y45577994D01*
X34697747Y45621868D01*
X34804641Y45700759D01*
X34880612Y45803696D01*
X34937157Y45846628D01*
X35007936Y45852175D01*
X35070479Y45818575D01*
X35098401Y45777093D01*
X35118177Y45729348D01*
X35209254Y45610656D01*
X35213460Y45607428D01*
X35255326Y45550089D01*
X35259546Y45479218D01*
X35255684Y45465853D01*
X35224112Y45375626D01*
X35209755Y45248204D01*
X35205676Y45212000D01*
X35224112Y45048375D01*
X35237610Y45009801D01*
X35278495Y44892956D01*
X35278496Y44892955D01*
X35366101Y44753533D01*
X35366104Y44753530D01*
X35366104Y44753529D01*
X35482528Y44637105D01*
X35482530Y44637104D01*
X35482533Y44637101D01*
X35621955Y44549496D01*
X35777375Y44495112D01*
X35941000Y44476676D01*
X36104625Y44495112D01*
X36260045Y44549496D01*
X36399467Y44637101D01*
X36515899Y44753533D01*
X36603504Y44892955D01*
X36657888Y45048375D01*
X36676324Y45212000D01*
X36668390Y45282413D01*
X36680639Y45352342D01*
X36728752Y45404550D01*
X36797452Y45422459D01*
X36864929Y45400383D01*
X36882693Y45385613D01*
X37113791Y45154515D01*
X37113797Y45154510D01*
X37219962Y45083572D01*
X37302397Y45049427D01*
X37337927Y45034710D01*
X37463158Y45009800D01*
X37560300Y45009800D01*
X37628421Y44989798D01*
X37674914Y44936142D01*
X37686300Y44883800D01*
X37686300Y44769242D01*
X37692639Y44721090D01*
X37741927Y44615391D01*
X37824390Y44532928D01*
X37824391Y44532928D01*
X37824392Y44532927D01*
X37930088Y44483640D01*
X37978246Y44477300D01*
X37978253Y44477300D01*
X38039299Y44477300D01*
X38107420Y44457298D01*
X38153913Y44403642D01*
X38164017Y44333368D01*
X38134523Y44268788D01*
X38102298Y44242181D01*
X38076729Y44227418D01*
X38063150Y44219579D01*
X38049573Y44211740D01*
X38049565Y44211734D01*
X37068264Y43230434D01*
X37068258Y43230426D01*
X37041539Y43184144D01*
X37041538Y43184142D01*
X37002988Y43117373D01*
X37002986Y43117368D01*
X36992666Y43078849D01*
X36992666Y43078848D01*
X36972362Y43003072D01*
X36972361Y43003071D01*
X36969200Y42991275D01*
X36969200Y39386258D01*
X36949198Y39318137D01*
X36932295Y39297163D01*
X35505837Y37870705D01*
X35443525Y37836679D01*
X35416742Y37833800D01*
X30070294Y37833800D01*
X29939746Y37833800D01*
X29886154Y37819440D01*
X29876697Y37816906D01*
X29876690Y37816905D01*
X29862897Y37813210D01*
X29791921Y37814903D01*
X29733127Y37854700D01*
X29705183Y37919966D01*
X29716961Y37989979D01*
X29741195Y38024010D01*
X30822471Y39105286D01*
X30863346Y39132597D01*
X30867812Y39134447D01*
X30867813Y39134447D01*
X30946820Y39167172D01*
X31009075Y39192958D01*
X31130380Y39286040D01*
X31223462Y39407345D01*
X31245075Y39459528D01*
X31281973Y39548607D01*
X31301931Y39700200D01*
X31300945Y39707686D01*
X31296991Y39737724D01*
X31281973Y39851793D01*
X31260358Y39903976D01*
X31223462Y39993055D01*
X31130380Y40114361D01*
X31009075Y40207443D01*
X30867811Y40265954D01*
X30859835Y40268091D01*
X30860643Y40271108D01*
X30809266Y40293841D01*
X30770180Y40353110D01*
X30769341Y40424102D01*
X30773825Y40437058D01*
X30773972Y40437605D01*
X30773971Y40437605D01*
X30773973Y40437607D01*
X30793931Y40589200D01*
X30773973Y40740793D01*
X30739618Y40823735D01*
X30715462Y40882055D01*
X30622380Y41003361D01*
X30501075Y41096443D01*
X30359813Y41154953D01*
X30208220Y41174911D01*
X30056626Y41154953D01*
X29915365Y41096443D01*
X29794059Y41003361D01*
X29700978Y40882056D01*
X29640618Y40736330D01*
X29613304Y40695453D01*
X17301980Y28384129D01*
X17301979Y28384127D01*
X17294237Y28370716D01*
X17294235Y28370712D01*
X17236706Y28271070D01*
X17221181Y28213128D01*
X17209115Y28168093D01*
X17209114Y28168090D01*
X17209114Y28168088D01*
X17206253Y28157411D01*
X17202920Y28144973D01*
X17202920Y14405103D01*
X17210745Y14375902D01*
X17210745Y14375901D01*
X17210746Y14375901D01*
X17210746Y14375900D01*
X17234112Y14288699D01*
X17236708Y14279009D01*
X17236710Y14279004D01*
X17254090Y14248902D01*
X17254090Y14248901D01*
X17301978Y14165955D01*
X17301980Y14165953D01*
X17301981Y14165951D01*
X17555797Y13912135D01*
X17589821Y13849824D01*
X17584757Y13779009D01*
X17542210Y13722173D01*
X17475690Y13697362D01*
X17421186Y13705549D01*
X17367901Y13726191D01*
X17367900Y13726192D01*
X17367898Y13726192D01*
X17152808Y13766400D01*
X16933992Y13766400D01*
X16933991Y13766400D01*
X16718896Y13726191D01*
X16712683Y13723784D01*
X16641936Y13717834D01*
X16579203Y13751078D01*
X16578083Y13752185D01*
X16453425Y13876843D01*
X16419399Y13939155D01*
X16416520Y13965938D01*
X16416520Y27949144D01*
X16436522Y28017265D01*
X16453420Y28038234D01*
X25043971Y36628786D01*
X25084846Y36656097D01*
X25089312Y36657947D01*
X25089313Y36657947D01*
X25129496Y36674592D01*
X25230575Y36716458D01*
X25351880Y36809540D01*
X25444962Y36930845D01*
X25470256Y36991912D01*
X25503473Y37072107D01*
X25523431Y37223700D01*
X25503473Y37375293D01*
X25472199Y37450796D01*
X25444962Y37516555D01*
X25351880Y37637861D01*
X25230575Y37730943D01*
X25089313Y37789453D01*
X24937720Y37809411D01*
X24786126Y37789453D01*
X24644865Y37730943D01*
X24523559Y37637861D01*
X24430478Y37516556D01*
X24370118Y37370830D01*
X24342804Y37329953D01*
X15523984Y28511134D01*
X15523980Y28511128D01*
X15496803Y28464054D01*
X15496802Y28464053D01*
X15458710Y28398077D01*
X15458705Y28398065D01*
X15442273Y28336742D01*
X15442274Y28336741D01*
X15428117Y28283904D01*
X15427522Y28281682D01*
X15424920Y28271973D01*
X15424920Y28271971D01*
X15424920Y13634847D01*
X15423298Y13634847D01*
X15413822Y13574112D01*
X15366690Y13521017D01*
X15298334Y13501833D01*
X15230458Y13522650D01*
X15222773Y13528630D01*
X15222632Y13528442D01*
X15217981Y13531954D01*
X15058869Y13630473D01*
X15011482Y13683340D01*
X14999200Y13737600D01*
X14999200Y14322292D01*
X14998040Y14326621D01*
X14965412Y14448392D01*
X14920374Y14526400D01*
X14900141Y14561445D01*
X14900137Y14561450D01*
X14863330Y14598257D01*
X14807828Y14653759D01*
X14683727Y14777860D01*
X14548424Y14913164D01*
X14514399Y14975476D01*
X14511520Y15002259D01*
X14511520Y28203144D01*
X14531522Y28271265D01*
X14548420Y28292234D01*
X25297971Y39041786D01*
X25338846Y39069097D01*
X25343312Y39070947D01*
X25343313Y39070947D01*
X25396936Y39093158D01*
X25484575Y39129458D01*
X25605880Y39222540D01*
X25698962Y39343845D01*
X25725263Y39407344D01*
X25757473Y39485107D01*
X25777431Y39636700D01*
X25757473Y39788293D01*
X25722781Y39872048D01*
X25698962Y39929555D01*
X25605880Y40050861D01*
X25484575Y40143943D01*
X25343313Y40202453D01*
X25191720Y40222411D01*
X25040126Y40202453D01*
X24898865Y40143943D01*
X24777559Y40050861D01*
X24684478Y39929556D01*
X24624118Y39783830D01*
X24596804Y39742953D01*
X13618984Y28765134D01*
X13618980Y28765128D01*
X13607766Y28745703D01*
X13607764Y28745700D01*
X13553707Y28652072D01*
X13553708Y28652071D01*
X13520356Y28527599D01*
X13519920Y28525973D01*
X13519920Y14809974D01*
X13519920Y14679426D01*
X13534380Y14625461D01*
X13534379Y14625461D01*
X13553705Y14553336D01*
X13553710Y14553324D01*
X13569254Y14526402D01*
X13569254Y14526401D01*
X13618978Y14440275D01*
X13618980Y14440273D01*
X13618981Y14440271D01*
X13813100Y14246152D01*
X13970695Y14088558D01*
X14004720Y14026245D01*
X14007600Y13999462D01*
X14007600Y13737600D01*
X13987598Y13669479D01*
X13947931Y13630473D01*
X13788819Y13531955D01*
X13627112Y13384540D01*
X13495250Y13209925D01*
X13397714Y13014045D01*
X13397712Y13014040D01*
X13354590Y12862480D01*
X13316709Y12802434D01*
X13252379Y12772400D01*
X13182022Y12781913D01*
X13127978Y12827953D01*
X13112210Y12862480D01*
X13087987Y12947614D01*
X13069086Y13014045D01*
X12971552Y13209921D01*
X12934070Y13259555D01*
X12839687Y13384540D01*
X12677980Y13531955D01*
X12518869Y13630473D01*
X12471482Y13683340D01*
X12459200Y13737600D01*
X12459200Y28055823D01*
X12479202Y28123944D01*
X12496105Y28144918D01*
X24852182Y40500995D01*
X24914494Y40535021D01*
X24941277Y40537900D01*
X26497179Y40537900D01*
X26545396Y40528309D01*
X26623307Y40496039D01*
X26691127Y40467947D01*
X26842720Y40447989D01*
X26994313Y40467947D01*
X27095746Y40509961D01*
X27135575Y40526458D01*
X27256880Y40619540D01*
X27349962Y40740845D01*
X27371575Y40793028D01*
X27408473Y40882107D01*
X27428431Y41033700D01*
X27408473Y41185293D01*
X27382920Y41246984D01*
X27349962Y41326555D01*
X27256880Y41447861D01*
X27135575Y41540943D01*
X26994313Y41599453D01*
X26842720Y41619411D01*
X26691126Y41599453D01*
X26545397Y41539091D01*
X26497180Y41529500D01*
X24748994Y41529500D01*
X24618446Y41529500D01*
X24597726Y41523948D01*
X24562092Y41514400D01*
X24562091Y41514401D01*
X24492355Y41495715D01*
X24492343Y41495710D01*
X24379295Y41430442D01*
X24379291Y41430438D01*
X11566666Y28617816D01*
X11566659Y28617806D01*
X11558366Y28603441D01*
X11558365Y28603439D01*
X11501386Y28504750D01*
X11487290Y28452145D01*
X11487291Y28452144D01*
X11469303Y28385008D01*
X11469301Y28385001D01*
X11467600Y28378654D01*
X11467600Y13737600D01*
X11447598Y13669479D01*
X11407931Y13630473D01*
X11248819Y13531955D01*
X11087112Y13384540D01*
X10955250Y13209925D01*
X10857714Y13014045D01*
X10857712Y13014040D01*
X10797831Y12803579D01*
X10777642Y12585705D01*
X10777642Y12585696D01*
X10797831Y12367822D01*
X10849638Y12185737D01*
X10857714Y12157355D01*
X10955248Y11961479D01*
X10955249Y11961478D01*
X10955250Y11961476D01*
X11087112Y11786861D01*
X11248819Y11639446D01*
X11434855Y11524257D01*
X11434856Y11524257D01*
X11434862Y11524253D01*
X11575187Y11469892D01*
X11631481Y11426632D01*
X11655452Y11359805D01*
X11639488Y11290626D01*
X11588657Y11241060D01*
X11529670Y11226400D01*
X11074641Y11226400D01*
X11026489Y11220061D01*
X10920790Y11170773D01*
X10838327Y11088310D01*
X10789039Y10982611D01*
X10782700Y10934459D01*
X10782700Y9156942D01*
X10789039Y9108790D01*
X10838327Y9003091D01*
X10920790Y8920628D01*
X10920791Y8920628D01*
X10920792Y8920627D01*
X11026488Y8871340D01*
X11074646Y8865000D01*
X11341600Y8865000D01*
X11409721Y8844998D01*
X11456214Y8791342D01*
X11467600Y8739000D01*
X11467600Y5444500D01*
X11447598Y5376379D01*
X11407931Y5337373D01*
X11248819Y5238855D01*
X11087112Y5091440D01*
X10955250Y4916825D01*
X10857714Y4720945D01*
X10857712Y4720940D01*
X10814590Y4569380D01*
X10776709Y4509334D01*
X10712379Y4479300D01*
X10642022Y4488813D01*
X10587978Y4534853D01*
X10572210Y4569380D01*
X10563610Y4599607D01*
X10529086Y4720945D01*
X10431552Y4916821D01*
X10431549Y4916825D01*
X10299687Y5091440D01*
X10137980Y5238855D01*
X9951944Y5354044D01*
X9951940Y5354046D01*
X9951938Y5354047D01*
X9816819Y5406392D01*
X9747899Y5433092D01*
X9532808Y5473300D01*
X9313992Y5473300D01*
X9313991Y5473300D01*
X9098900Y5433092D01*
X8952508Y5376379D01*
X8894862Y5354047D01*
X8894861Y5354047D01*
X8894860Y5354046D01*
X8894855Y5354044D01*
X8708819Y5238855D01*
X8547112Y5091440D01*
X8415250Y4916825D01*
X8317714Y4720945D01*
X8317712Y4720940D01*
X8274590Y4569380D01*
X8236709Y4509334D01*
X8172379Y4479300D01*
X8102022Y4488813D01*
X8047978Y4534853D01*
X8032210Y4569380D01*
X8023610Y4599607D01*
X7989086Y4720945D01*
X7891552Y4916821D01*
X7891549Y4916825D01*
X7759687Y5091440D01*
X7597980Y5238855D01*
X7411944Y5354044D01*
X7411940Y5354046D01*
X7411938Y5354047D01*
X7276819Y5406392D01*
X7207899Y5433092D01*
X6992808Y5473300D01*
X6773992Y5473300D01*
X6773991Y5473300D01*
X6558900Y5433092D01*
X6412508Y5376379D01*
X6354862Y5354047D01*
X6354861Y5354047D01*
X6354860Y5354046D01*
X6354855Y5354044D01*
X6168819Y5238855D01*
X6007112Y5091440D01*
X5875250Y4916825D01*
X5777714Y4720945D01*
X5777712Y4720940D01*
X5734590Y4569380D01*
X5696709Y4509334D01*
X5632379Y4479300D01*
X5562022Y4488813D01*
X5507978Y4534853D01*
X5492210Y4569380D01*
X5483610Y4599607D01*
X5449086Y4720945D01*
X5351552Y4916821D01*
X5351549Y4916825D01*
X5219687Y5091440D01*
X5057980Y5238855D01*
X4871944Y5354044D01*
X4871940Y5354046D01*
X4871938Y5354047D01*
X4736819Y5406392D01*
X4667899Y5433092D01*
X4452808Y5473300D01*
X4233992Y5473300D01*
X4233991Y5473300D01*
X4018900Y5433092D01*
X3872508Y5376379D01*
X3814862Y5354047D01*
X3814861Y5354047D01*
X3814860Y5354046D01*
X3814855Y5354044D01*
X3628819Y5238855D01*
X3467112Y5091440D01*
X3335250Y4916825D01*
X3237714Y4720945D01*
X3237712Y4720940D01*
X3194590Y4569380D01*
X3156709Y4509334D01*
X3092379Y4479300D01*
X3022022Y4488813D01*
X2967978Y4534853D01*
X2952210Y4569380D01*
X2943610Y4599607D01*
X2909086Y4720945D01*
X2811552Y4916821D01*
X2811549Y4916825D01*
X2679687Y5091440D01*
X2517980Y5238855D01*
X2331944Y5354044D01*
X2331940Y5354046D01*
X2331938Y5354047D01*
X2196819Y5406392D01*
X2127899Y5433092D01*
X1912808Y5473300D01*
X1693992Y5473300D01*
X1693991Y5473300D01*
X1478900Y5433092D01*
X1332508Y5376379D01*
X1274862Y5354047D01*
X1274861Y5354047D01*
X1274860Y5354046D01*
X1274855Y5354044D01*
X1088819Y5238855D01*
X927112Y5091440D01*
X795250Y4916825D01*
X697714Y4720945D01*
X697712Y4720940D01*
X637831Y4510479D01*
X617642Y4292605D01*
X617642Y4292596D01*
X637831Y4074722D01*
X637831Y4074719D01*
X637832Y4074718D01*
X697714Y3864255D01*
X795248Y3668379D01*
X795249Y3668378D01*
X795250Y3668376D01*
X927112Y3493761D01*
X1088819Y3346346D01*
X1274855Y3231157D01*
X1274856Y3231157D01*
X1274862Y3231153D01*
X1415187Y3176792D01*
X1471481Y3133532D01*
X1495452Y3066705D01*
X1479488Y2997526D01*
X1428657Y2947960D01*
X1369670Y2933300D01*
X914641Y2933300D01*
X866489Y2926961D01*
X760790Y2877673D01*
X678327Y2795210D01*
X629039Y2689511D01*
X622700Y2641359D01*
X622700Y863842D01*
X629039Y815690D01*
X678327Y709991D01*
X760790Y627528D01*
X760791Y627528D01*
X760792Y627527D01*
X866488Y578240D01*
X914646Y571900D01*
X914653Y571900D01*
X2692147Y571900D01*
X2692154Y571900D01*
X2740312Y578240D01*
X2846008Y627527D01*
X2928473Y709992D01*
X2977760Y815688D01*
X2984100Y863846D01*
X2984100Y1312352D01*
X3004102Y1380473D01*
X3057758Y1426966D01*
X3128032Y1437070D01*
X3192612Y1407576D01*
X3230996Y1347850D01*
X3231290Y1346833D01*
X3237711Y1324263D01*
X3237712Y1324261D01*
X3237714Y1324255D01*
X3335248Y1128379D01*
X3335249Y1128378D01*
X3335250Y1128376D01*
X3467112Y953761D01*
X3628819Y806346D01*
X3814855Y691157D01*
X3814856Y691157D01*
X3814862Y691153D01*
X4018902Y612108D01*
X4233992Y571900D01*
X4233996Y571900D01*
X4452804Y571900D01*
X4452808Y571900D01*
X4667898Y612108D01*
X4871938Y691153D01*
X5057979Y806345D01*
X5219686Y953760D01*
X5351552Y1128379D01*
X5449086Y1324255D01*
X5492210Y1475821D01*
X5530091Y1535867D01*
X5594421Y1565901D01*
X5664778Y1556388D01*
X5718822Y1510348D01*
X5734590Y1475820D01*
X5777711Y1324264D01*
X5777712Y1324261D01*
X5777714Y1324255D01*
X5875248Y1128379D01*
X5875249Y1128378D01*
X5875250Y1128376D01*
X6007112Y953761D01*
X6168819Y806346D01*
X6354855Y691157D01*
X6354856Y691157D01*
X6354862Y691153D01*
X6558902Y612108D01*
X6773992Y571900D01*
X6773996Y571900D01*
X6992804Y571900D01*
X6992808Y571900D01*
X7207898Y612108D01*
X7411938Y691153D01*
X7597979Y806345D01*
X7759686Y953760D01*
X7891552Y1128379D01*
X7989086Y1324255D01*
X8032210Y1475821D01*
X8070091Y1535867D01*
X8134421Y1565901D01*
X8204778Y1556388D01*
X8258822Y1510348D01*
X8274590Y1475820D01*
X8317711Y1324264D01*
X8317712Y1324261D01*
X8317714Y1324255D01*
X8415248Y1128379D01*
X8415249Y1128378D01*
X8415250Y1128376D01*
X8547112Y953761D01*
X8708819Y806346D01*
X8894855Y691157D01*
X8894856Y691157D01*
X8894862Y691153D01*
X9098902Y612108D01*
X9313992Y571900D01*
X9313996Y571900D01*
X9532804Y571900D01*
X9532808Y571900D01*
X9747898Y612108D01*
X9951938Y691153D01*
X10137979Y806345D01*
X10299686Y953760D01*
X10431552Y1128379D01*
X10529086Y1324255D01*
X10572210Y1475821D01*
X10610091Y1535867D01*
X10674421Y1565901D01*
X10744778Y1556388D01*
X10798822Y1510348D01*
X10814590Y1475820D01*
X10857711Y1324264D01*
X10857712Y1324261D01*
X10857714Y1324255D01*
X10955248Y1128379D01*
X10955249Y1128378D01*
X10955250Y1128376D01*
X11087112Y953761D01*
X11248819Y806346D01*
X11434855Y691157D01*
X11434856Y691157D01*
X11434862Y691153D01*
X11638902Y612108D01*
X11853992Y571900D01*
X11853996Y571900D01*
X12072804Y571900D01*
X12072808Y571900D01*
X12287898Y612108D01*
X12491938Y691153D01*
X12677979Y806345D01*
X12839686Y953760D01*
X12971552Y1128379D01*
X13069086Y1324255D01*
X13112210Y1475821D01*
X13150091Y1535867D01*
X13214421Y1565901D01*
X13284778Y1556388D01*
X13338822Y1510348D01*
X13354590Y1475820D01*
X13397711Y1324264D01*
X13397712Y1324261D01*
X13397714Y1324255D01*
X13495248Y1128379D01*
X13495249Y1128378D01*
X13495250Y1128376D01*
X13627112Y953761D01*
X13788819Y806346D01*
X13974855Y691157D01*
X13974856Y691157D01*
X13974862Y691153D01*
X14178902Y612108D01*
X14393992Y571900D01*
X14393996Y571900D01*
X14612804Y571900D01*
X14612808Y571900D01*
X14827898Y612108D01*
X15031938Y691153D01*
X15217979Y806345D01*
X15379686Y953760D01*
X15511552Y1128379D01*
X15609086Y1324255D01*
X15652210Y1475821D01*
X15690091Y1535867D01*
X15754421Y1565901D01*
X15824778Y1556388D01*
X15878822Y1510348D01*
X15894590Y1475820D01*
X15937711Y1324264D01*
X15937712Y1324261D01*
X15937714Y1324255D01*
X16035248Y1128379D01*
X16035249Y1128378D01*
X16035250Y1128376D01*
X16167112Y953761D01*
X16328819Y806346D01*
X16514855Y691157D01*
X16514856Y691157D01*
X16514862Y691153D01*
X16718902Y612108D01*
X16933992Y571900D01*
X16933996Y571900D01*
X17152804Y571900D01*
X17152808Y571900D01*
X17367898Y612108D01*
X17571938Y691153D01*
X17757979Y806345D01*
X17919686Y953760D01*
X18051552Y1128379D01*
X18149086Y1324255D01*
X18192210Y1475821D01*
X18230091Y1535867D01*
X18294421Y1565901D01*
X18364778Y1556388D01*
X18418822Y1510348D01*
X18434590Y1475820D01*
X18477711Y1324264D01*
X18477712Y1324261D01*
X18477714Y1324255D01*
X18575248Y1128379D01*
X18575249Y1128378D01*
X18575250Y1128376D01*
X18707112Y953761D01*
X18868819Y806346D01*
X19054855Y691157D01*
X19054856Y691157D01*
X19054862Y691153D01*
X19258902Y612108D01*
X19473992Y571900D01*
X19473996Y571900D01*
X19692804Y571900D01*
X19692808Y571900D01*
X19907898Y612108D01*
X20111938Y691153D01*
X20297979Y806345D01*
X20459686Y953760D01*
X20591552Y1128379D01*
X20689086Y1324255D01*
X20732210Y1475821D01*
X20770091Y1535867D01*
X20834421Y1565901D01*
X20904778Y1556388D01*
X20958822Y1510348D01*
X20974590Y1475820D01*
X21017711Y1324264D01*
X21017712Y1324261D01*
X21017714Y1324255D01*
X21115248Y1128379D01*
X21115249Y1128378D01*
X21115250Y1128376D01*
X21247112Y953761D01*
X21408819Y806346D01*
X21594855Y691157D01*
X21594856Y691157D01*
X21594862Y691153D01*
X21798902Y612108D01*
X22013992Y571900D01*
X22013996Y571900D01*
X22232804Y571900D01*
X22232808Y571900D01*
X22447898Y612108D01*
X22651938Y691153D01*
X22837979Y806345D01*
X22999686Y953760D01*
X23131552Y1128379D01*
X23229086Y1324255D01*
X23272210Y1475821D01*
X23310091Y1535867D01*
X23374421Y1565901D01*
X23444778Y1556388D01*
X23498822Y1510348D01*
X23514590Y1475820D01*
X23557711Y1324264D01*
X23557712Y1324261D01*
X23557714Y1324255D01*
X23655248Y1128379D01*
X23655249Y1128378D01*
X23655250Y1128376D01*
X23787112Y953761D01*
X23948819Y806346D01*
X24134855Y691157D01*
X24134856Y691157D01*
X24134862Y691153D01*
X24338902Y612108D01*
X24553992Y571900D01*
X24553996Y571900D01*
X24772804Y571900D01*
X24772808Y571900D01*
X24987898Y612108D01*
X25191938Y691153D01*
X25377979Y806345D01*
X25539686Y953760D01*
X25671552Y1128379D01*
X25769086Y1324255D01*
X25812210Y1475821D01*
X25850091Y1535867D01*
X25914421Y1565901D01*
X25984778Y1556388D01*
X26038822Y1510348D01*
X26054590Y1475820D01*
X26097711Y1324264D01*
X26097712Y1324261D01*
X26097714Y1324255D01*
X26195248Y1128379D01*
X26195249Y1128378D01*
X26195250Y1128376D01*
X26327112Y953761D01*
X26488819Y806346D01*
X26674855Y691157D01*
X26674856Y691157D01*
X26674862Y691153D01*
X26878902Y612108D01*
X27093992Y571900D01*
X27093996Y571900D01*
X27312804Y571900D01*
X27312808Y571900D01*
X27527898Y612108D01*
X27731938Y691153D01*
X27917979Y806345D01*
X28079686Y953760D01*
X28211552Y1128379D01*
X28309086Y1324255D01*
X28352210Y1475821D01*
X28390091Y1535867D01*
X28454421Y1565901D01*
X28524778Y1556388D01*
X28578822Y1510348D01*
X28594590Y1475820D01*
X28637711Y1324264D01*
X28637712Y1324261D01*
X28637714Y1324255D01*
X28735248Y1128379D01*
X28735249Y1128378D01*
X28735250Y1128376D01*
X28867112Y953761D01*
X29028819Y806346D01*
X29214855Y691157D01*
X29214856Y691157D01*
X29214862Y691153D01*
X29418902Y612108D01*
X29633992Y571900D01*
X29633996Y571900D01*
X29852804Y571900D01*
X29852808Y571900D01*
X30067898Y612108D01*
X30271938Y691153D01*
X30457979Y806345D01*
X30619686Y953760D01*
X30751552Y1128379D01*
X30849086Y1324255D01*
X30892210Y1475821D01*
X30930091Y1535867D01*
X30994421Y1565901D01*
X31064778Y1556388D01*
X31118822Y1510348D01*
X31134590Y1475820D01*
X31177711Y1324264D01*
X31177712Y1324261D01*
X31177714Y1324255D01*
X31275248Y1128379D01*
X31275249Y1128378D01*
X31275250Y1128376D01*
X31407112Y953761D01*
X31568819Y806346D01*
X31754855Y691157D01*
X31754856Y691157D01*
X31754862Y691153D01*
X31958902Y612108D01*
X32173992Y571900D01*
X32173996Y571900D01*
X32392804Y571900D01*
X32392808Y571900D01*
X32607898Y612108D01*
X32811938Y691153D01*
X32997979Y806345D01*
X33159686Y953760D01*
X33291552Y1128379D01*
X33389086Y1324255D01*
X33432210Y1475821D01*
X33470091Y1535867D01*
X33534421Y1565901D01*
X33604778Y1556388D01*
X33658822Y1510348D01*
X33674590Y1475820D01*
X33717711Y1324264D01*
X33717712Y1324261D01*
X33717714Y1324255D01*
X33815248Y1128379D01*
X33815249Y1128378D01*
X33815250Y1128376D01*
X33947112Y953761D01*
X34108819Y806346D01*
X34294855Y691157D01*
X34294856Y691157D01*
X34294862Y691153D01*
X34498902Y612108D01*
X34713992Y571900D01*
X34713996Y571900D01*
X34932804Y571900D01*
X34932808Y571900D01*
X35147898Y612108D01*
X35351938Y691153D01*
X35537979Y806345D01*
X35699686Y953760D01*
X35831552Y1128379D01*
X35929086Y1324255D01*
X35972210Y1475821D01*
X36010091Y1535867D01*
X36074421Y1565901D01*
X36144778Y1556388D01*
X36198822Y1510348D01*
X36214590Y1475820D01*
X36257711Y1324264D01*
X36257712Y1324261D01*
X36257714Y1324255D01*
X36355248Y1128379D01*
X36355249Y1128378D01*
X36355250Y1128376D01*
X36487112Y953761D01*
X36648819Y806346D01*
X36834855Y691157D01*
X36834856Y691157D01*
X36834862Y691153D01*
X37038902Y612108D01*
X37253992Y571900D01*
X37253996Y571900D01*
X37472804Y571900D01*
X37472808Y571900D01*
X37687898Y612108D01*
X37891938Y691153D01*
X38077979Y806345D01*
X38239686Y953760D01*
X38371552Y1128379D01*
X38469086Y1324255D01*
X38512210Y1475821D01*
X38550091Y1535867D01*
X38614421Y1565901D01*
X38684778Y1556388D01*
X38738822Y1510348D01*
X38754590Y1475820D01*
X38797711Y1324264D01*
X38797712Y1324261D01*
X38797714Y1324255D01*
X38895248Y1128379D01*
X38895249Y1128378D01*
X38895250Y1128376D01*
X39027112Y953761D01*
X39188819Y806346D01*
X39374855Y691157D01*
X39374856Y691157D01*
X39374862Y691153D01*
X39578902Y612108D01*
X39793992Y571900D01*
X39793996Y571900D01*
X40012804Y571900D01*
X40012808Y571900D01*
X40227898Y612108D01*
X40431938Y691153D01*
X40617979Y806345D01*
X40779686Y953760D01*
X40911552Y1128379D01*
X41009086Y1324255D01*
X41068968Y1534718D01*
X41089158Y1752600D01*
X41077389Y1879601D01*
X41068968Y1970479D01*
X41068968Y1970482D01*
X41034626Y2091181D01*
X41035222Y2162172D01*
X41066719Y2214754D01*
X41354563Y2502596D01*
X41416875Y2536621D01*
X41443658Y2539500D01*
X41460658Y2539500D01*
X41528779Y2519498D01*
X41575272Y2465842D01*
X41585376Y2395568D01*
X41565427Y2343503D01*
X41563457Y2340556D01*
X41465662Y2157593D01*
X41405437Y1959056D01*
X41397612Y1879601D01*
X41397613Y1879600D01*
X41959792Y1879600D01*
X41943400Y1818426D01*
X41943400Y1686774D01*
X41959792Y1625600D01*
X41397613Y1625600D01*
X41405437Y1546145D01*
X41465662Y1347608D01*
X41563459Y1164642D01*
X41695072Y1004273D01*
X41855441Y872660D01*
X42038407Y774863D01*
X42236944Y714638D01*
X42316399Y706813D01*
X42316400Y706814D01*
X42316400Y1268992D01*
X42377574Y1252600D01*
X42509226Y1252600D01*
X42570400Y1268992D01*
X42570400Y706813D01*
X42649855Y714638D01*
X42848392Y774863D01*
X43031358Y872660D01*
X43191727Y1004273D01*
X43323340Y1164642D01*
X43421137Y1347608D01*
X43481362Y1546145D01*
X43489187Y1625600D01*
X42927008Y1625600D01*
X42943400Y1686774D01*
X42943400Y1818426D01*
X42927008Y1879600D01*
X43489187Y1879600D01*
X43489187Y1879601D01*
X43481362Y1959056D01*
X43421137Y2157593D01*
X43323342Y2340556D01*
X43321373Y2343503D01*
X43320816Y2345282D01*
X43320423Y2346017D01*
X43320562Y2346092D01*
X43300162Y2411257D01*
X43318948Y2479723D01*
X43371768Y2527164D01*
X43426142Y2539500D01*
X43852756Y2539500D01*
X43920877Y2519498D01*
X43967370Y2465842D01*
X43977474Y2395568D01*
X43965548Y2357342D01*
X43883115Y2191791D01*
X43877714Y2180945D01*
X43877712Y2180940D01*
X43817831Y1970479D01*
X43797642Y1752605D01*
X43797642Y1752596D01*
X43817831Y1534722D01*
X43877711Y1324263D01*
X43877714Y1324255D01*
X43975248Y1128379D01*
X43975249Y1128378D01*
X43975250Y1128376D01*
X44107112Y953761D01*
X44268819Y806346D01*
X44454855Y691157D01*
X44454856Y691157D01*
X44454862Y691153D01*
X44658902Y612108D01*
X44873992Y571900D01*
X44873996Y571900D01*
X45092804Y571900D01*
X45092808Y571900D01*
X45307898Y612108D01*
X45511938Y691153D01*
X45697979Y806345D01*
X45859686Y953760D01*
X45991552Y1128379D01*
X46089086Y1324255D01*
X46132210Y1475821D01*
X46170091Y1535867D01*
X46234421Y1565901D01*
X46304778Y1556388D01*
X46358822Y1510348D01*
X46374590Y1475820D01*
X46417711Y1324264D01*
X46417712Y1324261D01*
X46417714Y1324255D01*
X46515248Y1128379D01*
X46515249Y1128378D01*
X46515250Y1128376D01*
X46647112Y953761D01*
X46808819Y806346D01*
X46994855Y691157D01*
X46994856Y691157D01*
X46994862Y691153D01*
X47198902Y612108D01*
X47413992Y571900D01*
X47413996Y571900D01*
X47632804Y571900D01*
X47632808Y571900D01*
X47847898Y612108D01*
X48051938Y691153D01*
X48237979Y806345D01*
X48399686Y953760D01*
X48531552Y1128379D01*
X48629086Y1324255D01*
X48672210Y1475821D01*
X48710091Y1535867D01*
X48774421Y1565901D01*
X48844778Y1556388D01*
X48898822Y1510348D01*
X48914590Y1475820D01*
X48957711Y1324264D01*
X48957712Y1324261D01*
X48957714Y1324255D01*
X49055248Y1128379D01*
X49055249Y1128378D01*
X49055250Y1128376D01*
X49187112Y953761D01*
X49348819Y806346D01*
X49534855Y691157D01*
X49534856Y691157D01*
X49534862Y691153D01*
X49738902Y612108D01*
X49953992Y571900D01*
X49953996Y571900D01*
X50172804Y571900D01*
X50172808Y571900D01*
X50387898Y612108D01*
X50591938Y691153D01*
X50777979Y806345D01*
X50939686Y953760D01*
X51071552Y1128379D01*
X51169086Y1324255D01*
X51212210Y1475821D01*
X51250091Y1535867D01*
X51314421Y1565901D01*
X51384778Y1556388D01*
X51438822Y1510348D01*
X51454590Y1475820D01*
X51497711Y1324264D01*
X51497712Y1324261D01*
X51497714Y1324255D01*
X51595248Y1128379D01*
X51595249Y1128378D01*
X51595250Y1128376D01*
X51727112Y953761D01*
X51888819Y806346D01*
X52074855Y691157D01*
X52074856Y691157D01*
X52074862Y691153D01*
X52278902Y612108D01*
X52493992Y571900D01*
X52493996Y571900D01*
X52712804Y571900D01*
X52712808Y571900D01*
X52927898Y612108D01*
X53131938Y691153D01*
X53317979Y806345D01*
X53479686Y953760D01*
X53611552Y1128379D01*
X53709086Y1324255D01*
X53752210Y1475821D01*
X53790091Y1535867D01*
X53854421Y1565901D01*
X53924778Y1556388D01*
X53978822Y1510348D01*
X53994590Y1475820D01*
X54037711Y1324264D01*
X54037712Y1324261D01*
X54037714Y1324255D01*
X54135248Y1128379D01*
X54135249Y1128378D01*
X54135250Y1128376D01*
X54267112Y953761D01*
X54428819Y806346D01*
X54614855Y691157D01*
X54614856Y691157D01*
X54614862Y691153D01*
X54818902Y612108D01*
X55033992Y571900D01*
X55033996Y571900D01*
X55252804Y571900D01*
X55252808Y571900D01*
X55467898Y612108D01*
X55671938Y691153D01*
X55857979Y806345D01*
X56019686Y953760D01*
X56151552Y1128379D01*
X56249086Y1324255D01*
X56292210Y1475821D01*
X56330091Y1535867D01*
X56394421Y1565901D01*
X56464778Y1556388D01*
X56518822Y1510348D01*
X56534590Y1475820D01*
X56577711Y1324264D01*
X56577712Y1324261D01*
X56577714Y1324255D01*
X56675248Y1128379D01*
X56675249Y1128378D01*
X56675250Y1128376D01*
X56807112Y953761D01*
X56968819Y806346D01*
X57154855Y691157D01*
X57154856Y691157D01*
X57154862Y691153D01*
X57358902Y612108D01*
X57573992Y571900D01*
X57573996Y571900D01*
X57792804Y571900D01*
X57792808Y571900D01*
X58007898Y612108D01*
X58211938Y691153D01*
X58397979Y806345D01*
X58559686Y953760D01*
X58691552Y1128379D01*
X58789086Y1324255D01*
X58832210Y1475821D01*
X58870091Y1535867D01*
X58934421Y1565901D01*
X59004778Y1556388D01*
X59058822Y1510348D01*
X59074590Y1475820D01*
X59117711Y1324264D01*
X59117712Y1324261D01*
X59117714Y1324255D01*
X59215248Y1128379D01*
X59215249Y1128378D01*
X59215250Y1128376D01*
X59347112Y953761D01*
X59508819Y806346D01*
X59694855Y691157D01*
X59694856Y691157D01*
X59694862Y691153D01*
X59898902Y612108D01*
X60113992Y571900D01*
X60113996Y571900D01*
X60332804Y571900D01*
X60332808Y571900D01*
X60547898Y612108D01*
X60751938Y691153D01*
X60937979Y806345D01*
X61099686Y953760D01*
X61231552Y1128379D01*
X61329086Y1324255D01*
X61372210Y1475821D01*
X61410091Y1535867D01*
X61474421Y1565901D01*
X61544778Y1556388D01*
X61598822Y1510348D01*
X61614590Y1475820D01*
X61657711Y1324264D01*
X61657712Y1324261D01*
X61657714Y1324255D01*
X61755248Y1128379D01*
X61755249Y1128378D01*
X61755250Y1128376D01*
X61887112Y953761D01*
X62048819Y806346D01*
X62234855Y691157D01*
X62234856Y691157D01*
X62234862Y691153D01*
X62438902Y612108D01*
X62653992Y571900D01*
X62653996Y571900D01*
X62872804Y571900D01*
X62872808Y571900D01*
X63087898Y612108D01*
X63291938Y691153D01*
X63477979Y806345D01*
X63639686Y953760D01*
X63771552Y1128379D01*
X63869086Y1324255D01*
X63912210Y1475821D01*
X63950091Y1535867D01*
X64014421Y1565901D01*
X64084778Y1556388D01*
X64138822Y1510348D01*
X64154590Y1475820D01*
X64197711Y1324264D01*
X64197712Y1324261D01*
X64197714Y1324255D01*
X64295248Y1128379D01*
X64295249Y1128378D01*
X64295250Y1128376D01*
X64427112Y953761D01*
X64588819Y806346D01*
X64774855Y691157D01*
X64774856Y691157D01*
X64774862Y691153D01*
X64978902Y612108D01*
X65193992Y571900D01*
X65193996Y571900D01*
X65412804Y571900D01*
X65412808Y571900D01*
X65627898Y612108D01*
X65831938Y691153D01*
X66017979Y806345D01*
X66179686Y953760D01*
X66311552Y1128379D01*
X66409086Y1324255D01*
X66452210Y1475821D01*
X66490091Y1535867D01*
X66554421Y1565901D01*
X66624778Y1556388D01*
X66678822Y1510348D01*
X66694590Y1475820D01*
X66737711Y1324264D01*
X66737712Y1324261D01*
X66737714Y1324255D01*
X66835248Y1128379D01*
X66835249Y1128378D01*
X66835250Y1128376D01*
X66967112Y953761D01*
X67128819Y806346D01*
X67314855Y691157D01*
X67314856Y691157D01*
X67314862Y691153D01*
X67518902Y612108D01*
X67733992Y571900D01*
X67733996Y571900D01*
X67952804Y571900D01*
X67952808Y571900D01*
X68167898Y612108D01*
X68371938Y691153D01*
X68557979Y806345D01*
X68719686Y953760D01*
X68851552Y1128379D01*
X68949086Y1324255D01*
X68992210Y1475821D01*
X69030091Y1535867D01*
X69094421Y1565901D01*
X69164778Y1556388D01*
X69218822Y1510348D01*
X69234590Y1475820D01*
X69277711Y1324264D01*
X69277712Y1324261D01*
X69277714Y1324255D01*
X69375248Y1128379D01*
X69375249Y1128378D01*
X69375250Y1128376D01*
X69507112Y953761D01*
X69668819Y806346D01*
X69854855Y691157D01*
X69854856Y691157D01*
X69854862Y691153D01*
X70058902Y612108D01*
X70273992Y571900D01*
X70273996Y571900D01*
X70492804Y571900D01*
X70492808Y571900D01*
X70707898Y612108D01*
X70911938Y691153D01*
X71097979Y806345D01*
X71259686Y953760D01*
X71391552Y1128379D01*
X71489086Y1324255D01*
X71532210Y1475821D01*
X71570091Y1535867D01*
X71634421Y1565901D01*
X71704778Y1556388D01*
X71758822Y1510348D01*
X71774590Y1475820D01*
X71817711Y1324264D01*
X71817712Y1324261D01*
X71817714Y1324255D01*
X71915248Y1128379D01*
X71915249Y1128378D01*
X71915250Y1128376D01*
X72047112Y953761D01*
X72208819Y806346D01*
X72394855Y691157D01*
X72394856Y691157D01*
X72394862Y691153D01*
X72598902Y612108D01*
X72813992Y571900D01*
X72813996Y571900D01*
X73032804Y571900D01*
X73032808Y571900D01*
X73247898Y612108D01*
X73451938Y691153D01*
X73637979Y806345D01*
X73799686Y953760D01*
X73931552Y1128379D01*
X74029086Y1324255D01*
X74072210Y1475821D01*
X74110091Y1535867D01*
X74174421Y1565901D01*
X74244778Y1556388D01*
X74298822Y1510348D01*
X74314590Y1475820D01*
X74357711Y1324264D01*
X74357712Y1324261D01*
X74357714Y1324255D01*
X74455248Y1128379D01*
X74455249Y1128378D01*
X74455250Y1128376D01*
X74587112Y953761D01*
X74748819Y806346D01*
X74934855Y691157D01*
X74934856Y691157D01*
X74934862Y691153D01*
X75138902Y612108D01*
X75353992Y571900D01*
X75353996Y571900D01*
X75572804Y571900D01*
X75572808Y571900D01*
X75787898Y612108D01*
X75991938Y691153D01*
X76177979Y806345D01*
X76339686Y953760D01*
X76471552Y1128379D01*
X76569086Y1324255D01*
X76612210Y1475821D01*
X76650091Y1535867D01*
X76714421Y1565901D01*
X76784778Y1556388D01*
X76838822Y1510348D01*
X76854590Y1475820D01*
X76897711Y1324264D01*
X76897712Y1324261D01*
X76897714Y1324255D01*
X76995248Y1128379D01*
X76995249Y1128378D01*
X76995250Y1128376D01*
X77127112Y953761D01*
X77288819Y806346D01*
X77474855Y691157D01*
X77474856Y691157D01*
X77474862Y691153D01*
X77678902Y612108D01*
X77893992Y571900D01*
X77893996Y571900D01*
X78112804Y571900D01*
X78112808Y571900D01*
X78327898Y612108D01*
X78531938Y691153D01*
X78717979Y806345D01*
X78879686Y953760D01*
X79011552Y1128379D01*
X79109086Y1324255D01*
X79152210Y1475821D01*
X79190091Y1535867D01*
X79254421Y1565901D01*
X79324778Y1556388D01*
X79378822Y1510348D01*
X79394590Y1475820D01*
X79437711Y1324264D01*
X79437712Y1324261D01*
X79437714Y1324255D01*
X79535248Y1128379D01*
X79535249Y1128378D01*
X79535250Y1128376D01*
X79667112Y953761D01*
X79828819Y806346D01*
X80014855Y691157D01*
X80014856Y691157D01*
X80014862Y691153D01*
X80218902Y612108D01*
X80433992Y571900D01*
X80433996Y571900D01*
X80652804Y571900D01*
X80652808Y571900D01*
X80867898Y612108D01*
X81071938Y691153D01*
X81257979Y806345D01*
X81419686Y953760D01*
X81551552Y1128379D01*
X81649086Y1324255D01*
X81692210Y1475821D01*
X81730091Y1535867D01*
X81794421Y1565901D01*
X81864778Y1556388D01*
X81918822Y1510348D01*
X81934590Y1475820D01*
X81977711Y1324264D01*
X81977712Y1324261D01*
X81977714Y1324255D01*
X82075248Y1128379D01*
X82075249Y1128378D01*
X82075250Y1128376D01*
X82207112Y953761D01*
X82368819Y806346D01*
X82554855Y691157D01*
X82554856Y691157D01*
X82554862Y691153D01*
X82758902Y612108D01*
X82973992Y571900D01*
X82973996Y571900D01*
X83192804Y571900D01*
X83192808Y571900D01*
X83407898Y612108D01*
X83611938Y691153D01*
X83797979Y806345D01*
X83959686Y953760D01*
X84091552Y1128379D01*
X84189086Y1324255D01*
X84232210Y1475821D01*
X84270091Y1535867D01*
X84334421Y1565901D01*
X84404778Y1556388D01*
X84458822Y1510348D01*
X84474590Y1475820D01*
X84517711Y1324264D01*
X84517712Y1324261D01*
X84517714Y1324255D01*
X84615248Y1128379D01*
X84615249Y1128378D01*
X84615250Y1128376D01*
X84747112Y953761D01*
X84908819Y806346D01*
X85094855Y691157D01*
X85094856Y691157D01*
X85094862Y691153D01*
X85298902Y612108D01*
X85513992Y571900D01*
X85513996Y571900D01*
X85732804Y571900D01*
X85732808Y571900D01*
X85947898Y612108D01*
X86151938Y691153D01*
X86337979Y806345D01*
X86499686Y953760D01*
X86631552Y1128379D01*
X86729086Y1324255D01*
X86772210Y1475821D01*
X86810091Y1535867D01*
X86874421Y1565901D01*
X86944778Y1556388D01*
X86998822Y1510348D01*
X87014590Y1475820D01*
X87057711Y1324264D01*
X87057712Y1324261D01*
X87057714Y1324255D01*
X87155248Y1128379D01*
X87155249Y1128378D01*
X87155250Y1128376D01*
X87287112Y953761D01*
X87448819Y806346D01*
X87634855Y691157D01*
X87634856Y691157D01*
X87634862Y691153D01*
X87838902Y612108D01*
X88053992Y571900D01*
X88053996Y571900D01*
X88272804Y571900D01*
X88272808Y571900D01*
X88487898Y612108D01*
X88691938Y691153D01*
X88877979Y806345D01*
X89039686Y953760D01*
X89171552Y1128379D01*
X89269086Y1324255D01*
X89312210Y1475821D01*
X89350091Y1535867D01*
X89414421Y1565901D01*
X89484778Y1556388D01*
X89538822Y1510348D01*
X89554590Y1475820D01*
X89597711Y1324264D01*
X89597712Y1324261D01*
X89597714Y1324255D01*
X89695248Y1128379D01*
X89695249Y1128378D01*
X89695250Y1128376D01*
X89827112Y953761D01*
X89988819Y806346D01*
X90174855Y691157D01*
X90174856Y691157D01*
X90174862Y691153D01*
X90378902Y612108D01*
X90593992Y571900D01*
X90593996Y571900D01*
X90812804Y571900D01*
X90812808Y571900D01*
X91027898Y612108D01*
X91231938Y691153D01*
X91417979Y806345D01*
X91579686Y953760D01*
X91711552Y1128379D01*
X91809086Y1324255D01*
X91852210Y1475821D01*
X91890091Y1535867D01*
X91954421Y1565901D01*
X92024778Y1556388D01*
X92078822Y1510348D01*
X92094590Y1475820D01*
X92137711Y1324264D01*
X92137712Y1324261D01*
X92137714Y1324255D01*
X92235248Y1128379D01*
X92235249Y1128378D01*
X92235250Y1128376D01*
X92367112Y953761D01*
X92528819Y806346D01*
X92714855Y691157D01*
X92714856Y691157D01*
X92714862Y691153D01*
X92918902Y612108D01*
X93133992Y571900D01*
X93133996Y571900D01*
X93352804Y571900D01*
X93352808Y571900D01*
X93567898Y612108D01*
X93771938Y691153D01*
X93957979Y806345D01*
X94119686Y953760D01*
X94251552Y1128379D01*
X94349086Y1324255D01*
X94392210Y1475821D01*
X94430091Y1535867D01*
X94494421Y1565901D01*
X94564778Y1556388D01*
X94618822Y1510348D01*
X94634590Y1475820D01*
X94677711Y1324264D01*
X94677712Y1324261D01*
X94677714Y1324255D01*
X94775248Y1128379D01*
X94775249Y1128378D01*
X94775250Y1128376D01*
X94907112Y953761D01*
X95068819Y806346D01*
X95254855Y691157D01*
X95254856Y691157D01*
X95254862Y691153D01*
X95458902Y612108D01*
X95673992Y571900D01*
X95673996Y571900D01*
X95892804Y571900D01*
X95892808Y571900D01*
X96107898Y612108D01*
X96311938Y691153D01*
X96497979Y806345D01*
X96659686Y953760D01*
X96791552Y1128379D01*
X96889086Y1324255D01*
X96932210Y1475821D01*
X96970091Y1535867D01*
X97034421Y1565901D01*
X97104778Y1556388D01*
X97158822Y1510348D01*
X97174590Y1475820D01*
X97217711Y1324264D01*
X97217712Y1324261D01*
X97217714Y1324255D01*
X97315248Y1128379D01*
X97315249Y1128378D01*
X97315250Y1128376D01*
X97447112Y953761D01*
X97608819Y806346D01*
X97794855Y691157D01*
X97794856Y691157D01*
X97794862Y691153D01*
X97998902Y612108D01*
X98213992Y571900D01*
X98213996Y571900D01*
X98432804Y571900D01*
X98432808Y571900D01*
X98647898Y612108D01*
X98851938Y691153D01*
X99037979Y806345D01*
X99199686Y953760D01*
X99331552Y1128379D01*
X99429086Y1324255D01*
X99472210Y1475821D01*
X99510091Y1535867D01*
X99574421Y1565901D01*
X99644778Y1556388D01*
X99698822Y1510348D01*
X99714590Y1475820D01*
X99757711Y1324264D01*
X99757712Y1324261D01*
X99757714Y1324255D01*
X99855248Y1128379D01*
X99855249Y1128378D01*
X99855250Y1128376D01*
X99987112Y953761D01*
X100148819Y806346D01*
X100334855Y691157D01*
X100334856Y691157D01*
X100334862Y691153D01*
X100538902Y612108D01*
X100753992Y571900D01*
X100753996Y571900D01*
X100972804Y571900D01*
X100972808Y571900D01*
X101187898Y612108D01*
X101391938Y691153D01*
X101577979Y806345D01*
X101739686Y953760D01*
X101871552Y1128379D01*
X101969086Y1324255D01*
X102028968Y1534718D01*
X102049158Y1752600D01*
X102037389Y1879601D01*
X102028968Y1970479D01*
X102028968Y1970482D01*
X101969086Y2180945D01*
X101871552Y2376821D01*
X101804327Y2465842D01*
X101739687Y2551440D01*
X101577980Y2698855D01*
X101391944Y2814044D01*
X101391940Y2814046D01*
X101391938Y2814047D01*
X101266944Y2862470D01*
X101187899Y2893092D01*
X101181402Y2894307D01*
X101157651Y2898747D01*
X101094369Y2930924D01*
X101058527Y2992209D01*
X101061508Y3063143D01*
X101102366Y3121205D01*
X101157651Y3146454D01*
X101187898Y3152108D01*
X101391938Y3231153D01*
X101577979Y3346345D01*
X101739686Y3493760D01*
X101742369Y3497312D01*
X101805335Y3580694D01*
X101871552Y3668379D01*
X101969086Y3864255D01*
X102028968Y4074718D01*
X102049158Y4292600D01*
X102037389Y4419601D01*
X102028968Y4510479D01*
X102028968Y4510482D01*
X101969086Y4720945D01*
X101871552Y4916821D01*
X101871549Y4916825D01*
X101739687Y5091440D01*
X101577980Y5238855D01*
X101391944Y5354044D01*
X101391940Y5354046D01*
X101391938Y5354047D01*
X101256819Y5406392D01*
X101187899Y5433092D01*
X100972808Y5473300D01*
X100753992Y5473300D01*
X100753991Y5473300D01*
X100538900Y5433092D01*
X100392508Y5376379D01*
X100334862Y5354047D01*
X100334861Y5354047D01*
X100334860Y5354046D01*
X100334855Y5354044D01*
X100148819Y5238855D01*
X99987112Y5091440D01*
X99855250Y4916825D01*
X99757714Y4720945D01*
X99757712Y4720940D01*
X99714590Y4569380D01*
X99676709Y4509334D01*
X99612379Y4479300D01*
X99542022Y4488813D01*
X99487978Y4534853D01*
X99472210Y4569380D01*
X99463610Y4599607D01*
X99429086Y4720945D01*
X99331552Y4916821D01*
X99331549Y4916825D01*
X99199687Y5091440D01*
X99037980Y5238855D01*
X98851944Y5354044D01*
X98851940Y5354046D01*
X98851938Y5354047D01*
X98716819Y5406392D01*
X98647899Y5433092D01*
X98432808Y5473300D01*
X98213992Y5473300D01*
X98213991Y5473300D01*
X97998900Y5433092D01*
X97852508Y5376379D01*
X97794862Y5354047D01*
X97794861Y5354047D01*
X97794860Y5354046D01*
X97794855Y5354044D01*
X97608819Y5238855D01*
X97447112Y5091440D01*
X97315250Y4916825D01*
X97217714Y4720945D01*
X97217712Y4720940D01*
X97174590Y4569380D01*
X97136709Y4509334D01*
X97072379Y4479300D01*
X97002022Y4488813D01*
X96947978Y4534853D01*
X96932210Y4569380D01*
X96923610Y4599607D01*
X96889086Y4720945D01*
X96791552Y4916821D01*
X96791549Y4916825D01*
X96659687Y5091440D01*
X96497980Y5238855D01*
X96311944Y5354044D01*
X96311940Y5354046D01*
X96311938Y5354047D01*
X96176819Y5406392D01*
X96107899Y5433092D01*
X95892808Y5473300D01*
X95673992Y5473300D01*
X95673991Y5473300D01*
X95458900Y5433092D01*
X95312508Y5376379D01*
X95254862Y5354047D01*
X95254861Y5354047D01*
X95254860Y5354046D01*
X95254858Y5354045D01*
X95196450Y5317880D01*
X95128003Y5299026D01*
X95060228Y5320170D01*
X95014643Y5374599D01*
X95004120Y5425008D01*
X95004120Y6333743D01*
X95024122Y6401864D01*
X95041020Y6422834D01*
X95438459Y6820272D01*
X95503733Y6933329D01*
X95537520Y7059427D01*
X95537520Y7189974D01*
X95537520Y8893802D01*
X95557522Y8961923D01*
X95597186Y9000927D01*
X95756299Y9099445D01*
X95918006Y9246860D01*
X96049872Y9421479D01*
X96147406Y9617355D01*
X96207288Y9827818D01*
X96220277Y9967989D01*
X96227478Y10045696D01*
X96227478Y10045705D01*
X96209537Y10239312D01*
X96207288Y10263582D01*
X96147406Y10474045D01*
X96049872Y10669921D01*
X96025095Y10702731D01*
X95918007Y10844540D01*
X95756300Y10991955D01*
X95570264Y11107144D01*
X95570260Y11107146D01*
X95570258Y11107147D01*
X95431515Y11160896D01*
X95366219Y11186192D01*
X95359722Y11187407D01*
X95335971Y11191847D01*
X95272689Y11224024D01*
X95236847Y11285309D01*
X95239828Y11356243D01*
X95280686Y11414305D01*
X95335971Y11439554D01*
X95366218Y11445208D01*
X95570258Y11524253D01*
X95756299Y11639445D01*
X95918006Y11786860D01*
X96049872Y11961479D01*
X96147406Y12157355D01*
X96207288Y12367818D01*
X96215642Y12457977D01*
X98314020Y12457977D01*
X98314020Y12205423D01*
X98353529Y11955979D01*
X98353530Y11955975D01*
X98425148Y11735555D01*
X98431572Y11715786D01*
X98546229Y11490759D01*
X98694676Y11286439D01*
X98694678Y11286437D01*
X98694680Y11286434D01*
X98873253Y11107861D01*
X98873256Y11107859D01*
X98873259Y11107856D01*
X99077579Y10959409D01*
X99302606Y10844752D01*
X99542799Y10766709D01*
X99792243Y10727200D01*
X99792246Y10727200D01*
X100044794Y10727200D01*
X100044797Y10727200D01*
X100294241Y10766709D01*
X100534434Y10844752D01*
X100759461Y10959409D01*
X100963781Y11107856D01*
X101142364Y11286439D01*
X101290811Y11490759D01*
X101405468Y11715786D01*
X101483511Y11955979D01*
X101523020Y12205423D01*
X101523020Y12457977D01*
X101483511Y12707421D01*
X101405468Y12947614D01*
X101290811Y13172641D01*
X101142364Y13376961D01*
X101142361Y13376964D01*
X101142359Y13376967D01*
X100963786Y13555540D01*
X100963783Y13555542D01*
X100963781Y13555544D01*
X100787885Y13683340D01*
X100759464Y13703989D01*
X100759463Y13703990D01*
X100759461Y13703991D01*
X100534434Y13818648D01*
X100534431Y13818649D01*
X100534429Y13818650D01*
X100294245Y13896690D01*
X100294243Y13896691D01*
X100294241Y13896691D01*
X100044797Y13936200D01*
X99792243Y13936200D01*
X99542799Y13896691D01*
X99542797Y13896691D01*
X99542794Y13896690D01*
X99302610Y13818650D01*
X99302604Y13818647D01*
X99077575Y13703989D01*
X98873256Y13555542D01*
X98873253Y13555540D01*
X98694680Y13376967D01*
X98694678Y13376964D01*
X98546231Y13172645D01*
X98431573Y12947616D01*
X98431570Y12947610D01*
X98353530Y12707426D01*
X98353529Y12707423D01*
X98353529Y12707421D01*
X98314020Y12457977D01*
X96215642Y12457977D01*
X96219896Y12503880D01*
X96227478Y12585696D01*
X96227478Y12585705D01*
X96212920Y12742805D01*
X96207288Y12803582D01*
X96147406Y13014045D01*
X96049872Y13209921D01*
X96012390Y13259555D01*
X95918007Y13384540D01*
X95756300Y13531955D01*
X95570264Y13647144D01*
X95570260Y13647146D01*
X95570258Y13647147D01*
X95411430Y13708677D01*
X95366219Y13726192D01*
X95151128Y13766400D01*
X94932312Y13766400D01*
X94932311Y13766400D01*
X94717220Y13726192D01*
X94598760Y13680300D01*
X94513182Y13647147D01*
X94513181Y13647147D01*
X94513180Y13647146D01*
X94513175Y13647144D01*
X94327139Y13531955D01*
X94165432Y13384540D01*
X94033570Y13209925D01*
X93936034Y13014045D01*
X93936032Y13014040D01*
X93892910Y12862480D01*
X93855029Y12802434D01*
X93790699Y12772400D01*
X93720342Y12781913D01*
X93666298Y12827953D01*
X93650530Y12862480D01*
X93626307Y12947614D01*
X93607406Y13014045D01*
X93509872Y13209921D01*
X93472390Y13259555D01*
X93378007Y13384540D01*
X93216300Y13531955D01*
X93030264Y13647144D01*
X93030260Y13647146D01*
X93030258Y13647147D01*
X92871430Y13708677D01*
X92826219Y13726192D01*
X92611128Y13766400D01*
X92392312Y13766400D01*
X92392311Y13766400D01*
X92177220Y13726192D01*
X92058760Y13680300D01*
X91973182Y13647147D01*
X91973181Y13647147D01*
X91973180Y13647146D01*
X91973175Y13647144D01*
X91787139Y13531955D01*
X91625432Y13384540D01*
X91493570Y13209925D01*
X91396034Y13014045D01*
X91396032Y13014040D01*
X91352910Y12862480D01*
X91315029Y12802434D01*
X91250699Y12772400D01*
X91180342Y12781913D01*
X91126298Y12827953D01*
X91110530Y12862480D01*
X91086307Y12947614D01*
X91067406Y13014045D01*
X90969872Y13209921D01*
X90932390Y13259555D01*
X90838007Y13384540D01*
X90676300Y13531955D01*
X90490264Y13647144D01*
X90490260Y13647146D01*
X90490258Y13647147D01*
X90331430Y13708677D01*
X90286219Y13726192D01*
X90071128Y13766400D01*
X89852312Y13766400D01*
X89852309Y13766400D01*
X89852301Y13766399D01*
X89637225Y13726193D01*
X89637221Y13726192D01*
X89631008Y13723785D01*
X89560261Y13717832D01*
X89497527Y13751073D01*
X89496403Y13752184D01*
X86557425Y16691163D01*
X86523399Y16753475D01*
X86520520Y16780258D01*
X86520520Y34621972D01*
X86507078Y34672139D01*
X86486732Y34748072D01*
X86441487Y34826439D01*
X86421461Y34861125D01*
X86421457Y34861130D01*
X86376230Y34906357D01*
X86329148Y34953439D01*
X83810023Y37472564D01*
X76169156Y45113433D01*
X76169150Y45113438D01*
X76169149Y45113439D01*
X76169146Y45113441D01*
X76094356Y45156621D01*
X76094356Y45156620D01*
X76056094Y45178711D01*
X76056093Y45178712D01*
X76056092Y45178712D01*
X75977390Y45199800D01*
X75977389Y45199801D01*
X75977388Y45199801D01*
X75929997Y45212500D01*
X75929994Y45212500D01*
X75929993Y45212500D01*
X68121278Y45212500D01*
X68053157Y45232502D01*
X68032183Y45249405D01*
X66292311Y46989277D01*
X96282020Y46989277D01*
X96282020Y46736723D01*
X96321529Y46487279D01*
X96321530Y46487275D01*
X96397195Y46254400D01*
X96399572Y46247086D01*
X96514229Y46022059D01*
X96662676Y45817739D01*
X96662678Y45817737D01*
X96662680Y45817734D01*
X96841253Y45639161D01*
X96841256Y45639159D01*
X96841259Y45639156D01*
X97045579Y45490709D01*
X97270606Y45376052D01*
X97510799Y45298009D01*
X97760243Y45258500D01*
X97760246Y45258500D01*
X98012794Y45258500D01*
X98012797Y45258500D01*
X98262241Y45298009D01*
X98502434Y45376052D01*
X98727461Y45490709D01*
X98931781Y45639156D01*
X99110364Y45817739D01*
X99258811Y46022059D01*
X99373468Y46247086D01*
X99451511Y46487279D01*
X99491020Y46736723D01*
X99491020Y46989277D01*
X99451511Y47238721D01*
X99373468Y47478914D01*
X99258811Y47703941D01*
X99110364Y47908261D01*
X99110361Y47908264D01*
X99110359Y47908267D01*
X98931786Y48086840D01*
X98931783Y48086842D01*
X98931781Y48086844D01*
X98777978Y48198588D01*
X98727464Y48235289D01*
X98727463Y48235290D01*
X98727461Y48235291D01*
X98502434Y48349948D01*
X98502431Y48349949D01*
X98502429Y48349950D01*
X98262245Y48427990D01*
X98262243Y48427991D01*
X98262241Y48427991D01*
X98012797Y48467500D01*
X97760243Y48467500D01*
X97510799Y48427991D01*
X97510797Y48427991D01*
X97510794Y48427990D01*
X97270610Y48349950D01*
X97270604Y48349947D01*
X97045575Y48235289D01*
X96841256Y48086842D01*
X96841253Y48086840D01*
X96662680Y47908267D01*
X96662678Y47908264D01*
X96514231Y47703945D01*
X96399573Y47478916D01*
X96399570Y47478910D01*
X96321530Y47238726D01*
X96321529Y47238723D01*
X96321529Y47238721D01*
X96282020Y46989277D01*
X66292311Y46989277D01*
X63936983Y49344605D01*
X63902957Y49406917D01*
X63908022Y49477732D01*
X63950569Y49534568D01*
X64017089Y49559379D01*
X64026078Y49559700D01*
X97682207Y49559700D01*
X97727055Y49559700D01*
X97732550Y49559580D01*
X98149581Y49541374D01*
X98160532Y49540416D01*
X98204953Y49534568D01*
X98571677Y49486289D01*
X98582485Y49484383D01*
X98987359Y49394626D01*
X98997940Y49391791D01*
X99393449Y49267089D01*
X99403766Y49263334D01*
X99492772Y49226467D01*
X99786896Y49104638D01*
X99796858Y49099992D01*
X100164672Y48908521D01*
X100174191Y48903026D01*
X100257900Y48849698D01*
X100517518Y48684304D01*
X100523934Y48680217D01*
X100532938Y48673913D01*
X100855972Y48426041D01*
X100861935Y48421466D01*
X100870355Y48414400D01*
X101176079Y48134256D01*
X101183852Y48126483D01*
X101464017Y47820737D01*
X101471082Y47812317D01*
X101723517Y47483339D01*
X101729822Y47474335D01*
X101760363Y47426395D01*
X101950017Y47128699D01*
X101952631Y47124597D01*
X101958127Y47115077D01*
X102149605Y46747252D01*
X102154251Y46737290D01*
X102312945Y46354169D01*
X102316704Y46343840D01*
X102441399Y45948357D01*
X102444244Y45937740D01*
X102533997Y45532893D01*
X102535906Y45522067D01*
X102590033Y45110932D01*
X102590991Y45099982D01*
X102609180Y44683407D01*
X102609300Y44677911D01*
X102609300Y44632604D01*
X102609348Y44632300D01*
X102610900Y44612587D01*
X102610900Y426500D01*
X102590898Y358379D01*
X102537242Y311886D01*
X102484900Y300500D01*
X426500Y300500D01*
X358379Y320502D01*
X311886Y374158D01*
X300500Y426500D01*
X300500Y12457977D01*
X1387620Y12457977D01*
X1387620Y12205423D01*
X1427129Y11955979D01*
X1427130Y11955975D01*
X1498748Y11735555D01*
X1505172Y11715786D01*
X1619829Y11490759D01*
X1768276Y11286439D01*
X1768278Y11286437D01*
X1768280Y11286434D01*
X1946853Y11107861D01*
X1946856Y11107859D01*
X1946859Y11107856D01*
X2151179Y10959409D01*
X2376206Y10844752D01*
X2616399Y10766709D01*
X2865843Y10727200D01*
X2865846Y10727200D01*
X3118394Y10727200D01*
X3118397Y10727200D01*
X3367841Y10766709D01*
X3608034Y10844752D01*
X3833061Y10959409D01*
X4037381Y11107856D01*
X4215964Y11286439D01*
X4364411Y11490759D01*
X4479068Y11715786D01*
X4557111Y11955979D01*
X4596620Y12205423D01*
X4596620Y12457977D01*
X4557111Y12707421D01*
X4479068Y12947614D01*
X4364411Y13172641D01*
X4215964Y13376961D01*
X4215961Y13376964D01*
X4215959Y13376967D01*
X4037386Y13555540D01*
X4037383Y13555542D01*
X4037381Y13555544D01*
X3861485Y13683340D01*
X3833064Y13703989D01*
X3833063Y13703990D01*
X3833061Y13703991D01*
X3608034Y13818648D01*
X3608031Y13818649D01*
X3608029Y13818650D01*
X3367845Y13896690D01*
X3367843Y13896691D01*
X3367841Y13896691D01*
X3118397Y13936200D01*
X2865843Y13936200D01*
X2616399Y13896691D01*
X2616397Y13896691D01*
X2616394Y13896690D01*
X2376210Y13818650D01*
X2376204Y13818647D01*
X2151175Y13703989D01*
X1946856Y13555542D01*
X1946853Y13555540D01*
X1768280Y13376967D01*
X1768278Y13376964D01*
X1619831Y13172645D01*
X1505173Y12947616D01*
X1505170Y12947610D01*
X1427130Y12707426D01*
X1427129Y12707423D01*
X1427129Y12707421D01*
X1387620Y12457977D01*
X300500Y12457977D01*
X300500Y33255853D01*
X3169620Y33255853D01*
X3169620Y33012748D01*
X3201349Y32771737D01*
X3201350Y32771731D01*
X3201351Y32771729D01*
X3264270Y32536912D01*
X3357301Y32312316D01*
X3357302Y32312315D01*
X3357307Y32312304D01*
X3478848Y32101788D01*
X3478852Y32101782D01*
X3626834Y31908929D01*
X3626853Y31908908D01*
X3798727Y31737034D01*
X3798748Y31737015D01*
X3991601Y31589033D01*
X3991607Y31589029D01*
X4202123Y31467488D01*
X4202127Y31467487D01*
X4202136Y31467481D01*
X4426732Y31374450D01*
X4661549Y31311531D01*
X4661555Y31311531D01*
X4661556Y31311530D01*
X4686387Y31308261D01*
X4902570Y31279800D01*
X4902577Y31279800D01*
X5145663Y31279800D01*
X5145670Y31279800D01*
X5386691Y31311531D01*
X5621508Y31374450D01*
X5846104Y31467481D01*
X6056636Y31589031D01*
X6249500Y31737022D01*
X6421398Y31908920D01*
X6569389Y32101784D01*
X6690939Y32312316D01*
X6783970Y32536912D01*
X6846889Y32771729D01*
X6878620Y33012750D01*
X6878620Y33255850D01*
X6846889Y33496871D01*
X6783970Y33731688D01*
X6690939Y33956284D01*
X6690933Y33956293D01*
X6690932Y33956297D01*
X6569391Y34166813D01*
X6569387Y34166819D01*
X6421405Y34359672D01*
X6421386Y34359693D01*
X6249512Y34531567D01*
X6249491Y34531586D01*
X6056638Y34679568D01*
X6056632Y34679572D01*
X5846116Y34801113D01*
X5846108Y34801117D01*
X5846104Y34801119D01*
X5621508Y34894150D01*
X5386691Y34957069D01*
X5386689Y34957070D01*
X5386683Y34957071D01*
X5145672Y34988800D01*
X5145670Y34988800D01*
X4902570Y34988800D01*
X4902567Y34988800D01*
X4661556Y34957071D01*
X4472289Y34906357D01*
X4426732Y34894150D01*
X4319566Y34849760D01*
X4202134Y34801118D01*
X4202123Y34801113D01*
X3991607Y34679572D01*
X3991601Y34679568D01*
X3798748Y34531586D01*
X3798727Y34531567D01*
X3626853Y34359693D01*
X3626834Y34359672D01*
X3478852Y34166819D01*
X3478848Y34166813D01*
X3357307Y33956297D01*
X3357302Y33956286D01*
X3357301Y33956284D01*
X3317034Y33859072D01*
X3264270Y33731688D01*
X3201349Y33496864D01*
X3169620Y33255853D01*
X300500Y33255853D01*
X300500Y34672139D01*
X320502Y34740260D01*
X337405Y34761234D01*
X12565448Y46989277D01*
X14671820Y46989277D01*
X14671820Y46736723D01*
X14711329Y46487279D01*
X14711330Y46487275D01*
X14786995Y46254400D01*
X14789372Y46247086D01*
X14904029Y46022059D01*
X15052476Y45817739D01*
X15052478Y45817737D01*
X15052480Y45817734D01*
X15231053Y45639161D01*
X15231056Y45639159D01*
X15231059Y45639156D01*
X15435379Y45490709D01*
X15660406Y45376052D01*
X15900599Y45298009D01*
X16150043Y45258500D01*
X16150046Y45258500D01*
X16402594Y45258500D01*
X16402597Y45258500D01*
X16652041Y45298009D01*
X16892234Y45376052D01*
X17117261Y45490709D01*
X17321581Y45639156D01*
X17500164Y45817739D01*
X17605567Y45962814D01*
X33448800Y45962814D01*
X33451592Y45933043D01*
X33451593Y45933038D01*
X33495467Y45807653D01*
X33574358Y45700759D01*
X33681252Y45621868D01*
X33806637Y45577994D01*
X33806642Y45577993D01*
X33836413Y45575201D01*
X33836419Y45575200D01*
X34062500Y45575200D01*
X34062500Y46126400D01*
X33448800Y46126400D01*
X33448800Y45962814D01*
X17605567Y45962814D01*
X17648611Y46022059D01*
X17763268Y46247086D01*
X17841311Y46487279D01*
X17880820Y46736723D01*
X17880820Y46989277D01*
X17841311Y47238721D01*
X17763268Y47478914D01*
X17648611Y47703941D01*
X17500164Y47908261D01*
X17500161Y47908264D01*
X17500159Y47908267D01*
X17340439Y48067987D01*
X33448800Y48067987D01*
X33448800Y47904400D01*
X34062500Y47904400D01*
X34062500Y48455600D01*
X33836413Y48455600D01*
X33806642Y48452808D01*
X33806637Y48452807D01*
X33681252Y48408933D01*
X33574358Y48330042D01*
X33495467Y48223148D01*
X33451593Y48097763D01*
X33451592Y48097758D01*
X33448800Y48067987D01*
X17340439Y48067987D01*
X17321586Y48086840D01*
X17321583Y48086842D01*
X17321581Y48086844D01*
X17167778Y48198588D01*
X17117264Y48235289D01*
X17117263Y48235290D01*
X17117261Y48235291D01*
X16892234Y48349948D01*
X16892231Y48349949D01*
X16892229Y48349950D01*
X16652045Y48427990D01*
X16652043Y48427991D01*
X16652041Y48427991D01*
X16402597Y48467500D01*
X16150043Y48467500D01*
X15900599Y48427991D01*
X15900597Y48427991D01*
X15900594Y48427990D01*
X15660410Y48349950D01*
X15660404Y48349947D01*
X15435375Y48235289D01*
X15231056Y48086842D01*
X15231053Y48086840D01*
X15052480Y47908267D01*
X15052478Y47908264D01*
X14904031Y47703945D01*
X14789373Y47478916D01*
X14789370Y47478910D01*
X14711330Y47238726D01*
X14711329Y47238723D01*
X14711329Y47238721D01*
X14671820Y46989277D01*
X12565448Y46989277D01*
X15098966Y49522795D01*
X15161278Y49556821D01*
X15188061Y49559700D01*
X35395143Y49559700D01*
X35463264Y49539698D01*
G37*
%TD.AperFunction*%
%TA.AperFunction,Conductor*%
G36*
X45198009Y12608214D02*
G01*
X45207822Y12596889D01*
X45249974Y12541955D01*
X45368669Y12450877D01*
X45405924Y12435446D01*
X45506890Y12393625D01*
X45617978Y12379000D01*
X45617985Y12379000D01*
X46167455Y12379000D01*
X46167462Y12379000D01*
X46278550Y12393625D01*
X46416772Y12450878D01*
X46445203Y12472695D01*
X46511421Y12498297D01*
X46580970Y12484034D01*
X46598610Y12472699D01*
X46615864Y12459459D01*
X46615867Y12459457D01*
X46695519Y12426466D01*
X46757127Y12400947D01*
X46908720Y12380989D01*
X47032473Y12397282D01*
X47102622Y12386343D01*
X47155721Y12339215D01*
X47174920Y12272360D01*
X47174920Y7636259D01*
X47154918Y7568138D01*
X47138015Y7547164D01*
X46998049Y7407198D01*
X46935737Y7373172D01*
X46864922Y7378237D01*
X46808086Y7420784D01*
X46783275Y7487304D01*
X46785374Y7520869D01*
X46794920Y7568857D01*
X46794920Y7568859D01*
X46796128Y7574931D01*
X46797489Y7574661D01*
X46806291Y7606068D01*
X46809218Y7612147D01*
X46809224Y7612155D01*
X46863608Y7767575D01*
X46882044Y7931200D01*
X46863608Y8094825D01*
X46809224Y8250245D01*
X46721619Y8389667D01*
X46721615Y8389671D01*
X46721615Y8389672D01*
X46605191Y8506096D01*
X46605188Y8506098D01*
X46605187Y8506099D01*
X46465765Y8593704D01*
X46400765Y8616449D01*
X46393141Y8619117D01*
X46345664Y8648950D01*
X45982124Y9012490D01*
X45951350Y9033052D01*
X45875958Y9083427D01*
X45837287Y9099445D01*
X45757994Y9132290D01*
X45632765Y9157200D01*
X45632763Y9157200D01*
X45632762Y9157200D01*
X45291407Y9157200D01*
X45223286Y9177202D01*
X45214712Y9183231D01*
X45137052Y9242822D01*
X45137051Y9242823D01*
X45137048Y9242825D01*
X44998830Y9300075D01*
X44887744Y9314700D01*
X44887742Y9314700D01*
X44213258Y9314700D01*
X44213255Y9314700D01*
X44102169Y9300075D01*
X43963949Y9242824D01*
X43845254Y9151746D01*
X43754178Y9033054D01*
X43734401Y8985307D01*
X43689852Y8930027D01*
X43622489Y8907606D01*
X43553697Y8925165D01*
X43516612Y8958705D01*
X43440641Y9061642D01*
X43333747Y9140533D01*
X43208362Y9184407D01*
X43208357Y9184408D01*
X43178586Y9187200D01*
X42952500Y9187200D01*
X42952500Y8508000D01*
X42932498Y8439879D01*
X42878842Y8393386D01*
X42826500Y8382000D01*
X42084800Y8382000D01*
X42084800Y8218414D01*
X42087592Y8188643D01*
X42087593Y8188638D01*
X42131467Y8063253D01*
X42210358Y7956359D01*
X42317252Y7877468D01*
X42350227Y7865929D01*
X42407919Y7824551D01*
X42434081Y7758550D01*
X42420408Y7688883D01*
X42371241Y7637667D01*
X42350227Y7628071D01*
X42317252Y7616533D01*
X42210358Y7537642D01*
X42131467Y7430748D01*
X42087593Y7305363D01*
X42087592Y7305358D01*
X42084800Y7275587D01*
X42084800Y7112000D01*
X42826500Y7112000D01*
X42894621Y7091998D01*
X42941114Y7038342D01*
X42952500Y6986000D01*
X42952500Y6306800D01*
X43178581Y6306800D01*
X43178586Y6306801D01*
X43208357Y6309593D01*
X43208362Y6309594D01*
X43333747Y6353468D01*
X43440641Y6432359D01*
X43516612Y6535296D01*
X43573157Y6578228D01*
X43643936Y6583775D01*
X43706479Y6550175D01*
X43734401Y6508693D01*
X43754177Y6460948D01*
X43845253Y6342257D01*
X43845255Y6342255D01*
X43853002Y6336310D01*
X43894870Y6278974D01*
X43902300Y6236347D01*
X43902300Y5867157D01*
X43922108Y5767573D01*
X43927210Y5741927D01*
X43938003Y5715870D01*
X43976073Y5623962D01*
X44043978Y5522333D01*
X44047010Y5517796D01*
X44205397Y5359409D01*
X44239421Y5297099D01*
X44234357Y5226283D01*
X44201187Y5177200D01*
X44107112Y5091440D01*
X43975250Y4916825D01*
X43877714Y4720945D01*
X43877712Y4720940D01*
X43817831Y4510479D01*
X43797642Y4292605D01*
X43797642Y4292596D01*
X43817831Y4074722D01*
X43817831Y4074719D01*
X43817832Y4074718D01*
X43877714Y3864255D01*
X43913394Y3792600D01*
X43952899Y3713263D01*
X43965357Y3643368D01*
X43938050Y3577833D01*
X43879647Y3537464D01*
X43840108Y3531100D01*
X43440799Y3531100D01*
X43372678Y3551102D01*
X43326185Y3604758D01*
X43316081Y3675032D01*
X43329677Y3716496D01*
X43421137Y3887608D01*
X43481362Y4086145D01*
X43489187Y4165600D01*
X42927008Y4165600D01*
X42943400Y4226774D01*
X42943400Y4358426D01*
X42927008Y4419600D01*
X43489187Y4419600D01*
X43489187Y4419601D01*
X43481362Y4499056D01*
X43421137Y4697593D01*
X43323340Y4880559D01*
X43191727Y5040928D01*
X43031358Y5172541D01*
X42848393Y5270338D01*
X42649860Y5330561D01*
X42570400Y5338388D01*
X42570400Y4776209D01*
X42509226Y4792600D01*
X42377574Y4792600D01*
X42316400Y4776209D01*
X42316400Y5338388D01*
X42236939Y5330561D01*
X42038406Y5270338D01*
X41855441Y5172541D01*
X41695072Y5040928D01*
X41563459Y4880559D01*
X41465662Y4697593D01*
X41405437Y4499056D01*
X41397612Y4419601D01*
X41397613Y4419600D01*
X41959792Y4419600D01*
X41943400Y4358426D01*
X41943400Y4226774D01*
X41959792Y4165600D01*
X41397613Y4165600D01*
X41405437Y4086145D01*
X41465662Y3887608D01*
X41557123Y3716496D01*
X41571595Y3646990D01*
X41546191Y3580694D01*
X41488978Y3538656D01*
X41446001Y3531100D01*
X41120824Y3531100D01*
X41070441Y3517600D01*
X40999464Y3519290D01*
X40940669Y3559085D01*
X40912722Y3624350D01*
X40924496Y3694363D01*
X40924986Y3695359D01*
X41009086Y3864255D01*
X41068968Y4074718D01*
X41089158Y4292600D01*
X41077389Y4419601D01*
X41068968Y4510479D01*
X41068968Y4510482D01*
X41009086Y4720945D01*
X40911552Y4916821D01*
X40911549Y4916825D01*
X40779687Y5091440D01*
X40617980Y5238855D01*
X40458869Y5337373D01*
X40411482Y5390240D01*
X40399200Y5444500D01*
X40399200Y6694414D01*
X42084800Y6694414D01*
X42087592Y6664643D01*
X42087593Y6664638D01*
X42131467Y6539253D01*
X42210358Y6432359D01*
X42317252Y6353468D01*
X42442637Y6309594D01*
X42442642Y6309593D01*
X42472413Y6306801D01*
X42472419Y6306800D01*
X42698500Y6306800D01*
X42698500Y6858000D01*
X42084800Y6858000D01*
X42084800Y6694414D01*
X40399200Y6694414D01*
X40399200Y8799587D01*
X42084800Y8799587D01*
X42084800Y8636000D01*
X42698500Y8636000D01*
X42698500Y9187200D01*
X42472413Y9187200D01*
X42442642Y9184408D01*
X42442637Y9184407D01*
X42317252Y9140533D01*
X42210358Y9061642D01*
X42131467Y8954748D01*
X42087593Y8829363D01*
X42087592Y8829358D01*
X42084800Y8799587D01*
X40399200Y8799587D01*
X40399200Y11975193D01*
X40392731Y11999333D01*
X40389483Y12011456D01*
X40365412Y12101291D01*
X40365412Y12101292D01*
X40300139Y12214348D01*
X40300138Y12214350D01*
X40298489Y12216499D01*
X40297661Y12218640D01*
X40296010Y12221500D01*
X40296455Y12221758D01*
X40272887Y12282719D01*
X40287151Y12352268D01*
X40336751Y12403064D01*
X40350214Y12409605D01*
X40470576Y12459459D01*
X40528466Y12503881D01*
X40594685Y12529481D01*
X40664234Y12515217D01*
X40681874Y12503880D01*
X40750948Y12450877D01*
X40835016Y12416056D01*
X40889170Y12393625D01*
X41000258Y12379000D01*
X41000265Y12379000D01*
X41549735Y12379000D01*
X41549742Y12379000D01*
X41660830Y12393625D01*
X41799052Y12450878D01*
X41917745Y12541955D01*
X41937037Y12567098D01*
X41994374Y12608965D01*
X42065245Y12613187D01*
X42127149Y12578424D01*
X42136963Y12567097D01*
X42156255Y12541955D01*
X42274949Y12450877D01*
X42312204Y12435446D01*
X42413170Y12393625D01*
X42524258Y12379000D01*
X42524265Y12379000D01*
X43073735Y12379000D01*
X43073742Y12379000D01*
X43184830Y12393625D01*
X43323052Y12450878D01*
X43441745Y12541955D01*
X43461037Y12567098D01*
X43518374Y12608965D01*
X43589245Y12613187D01*
X43651149Y12578424D01*
X43660963Y12567097D01*
X43680255Y12541955D01*
X43798949Y12450877D01*
X43836204Y12435446D01*
X43937170Y12393625D01*
X44048258Y12379000D01*
X44048265Y12379000D01*
X44597735Y12379000D01*
X44597742Y12379000D01*
X44708830Y12393625D01*
X44847052Y12450878D01*
X44965745Y12541955D01*
X45007898Y12596889D01*
X45065236Y12638756D01*
X45136107Y12642978D01*
X45198009Y12608214D01*
G37*
%TD.AperFunction*%
%TA.AperFunction,Conductor*%
G36*
X20769970Y13383368D02*
G01*
X20783954Y13371298D01*
X24514303Y9640950D01*
X28223981Y5931272D01*
X28316292Y5838961D01*
X28316293Y5838960D01*
X28316295Y5838959D01*
X28395758Y5793081D01*
X28429348Y5773688D01*
X28447523Y5768818D01*
X28455535Y5766671D01*
X28455536Y5766671D01*
X28555446Y5739900D01*
X28555447Y5739900D01*
X30082742Y5739900D01*
X30150863Y5719898D01*
X30171837Y5702995D01*
X30255797Y5619035D01*
X30289823Y5556723D01*
X30284758Y5485908D01*
X30242211Y5429072D01*
X30175691Y5404261D01*
X30121187Y5412448D01*
X30100090Y5420621D01*
X30067899Y5433092D01*
X29852808Y5473300D01*
X29633992Y5473300D01*
X29633991Y5473300D01*
X29418900Y5433092D01*
X29272508Y5376379D01*
X29214862Y5354047D01*
X29214861Y5354047D01*
X29214860Y5354046D01*
X29214855Y5354044D01*
X29028819Y5238855D01*
X28867112Y5091440D01*
X28735250Y4916825D01*
X28637714Y4720945D01*
X28637712Y4720940D01*
X28594590Y4569380D01*
X28556709Y4509334D01*
X28492379Y4479300D01*
X28422022Y4488813D01*
X28367978Y4534853D01*
X28352210Y4569380D01*
X28343610Y4599607D01*
X28309086Y4720945D01*
X28211552Y4916821D01*
X28211549Y4916825D01*
X28079687Y5091440D01*
X27917980Y5238855D01*
X27731944Y5354044D01*
X27731940Y5354046D01*
X27731938Y5354047D01*
X27596819Y5406392D01*
X27527899Y5433092D01*
X27312808Y5473300D01*
X27093992Y5473300D01*
X27093991Y5473300D01*
X26878900Y5433092D01*
X26732508Y5376379D01*
X26674862Y5354047D01*
X26674861Y5354047D01*
X26674860Y5354046D01*
X26674855Y5354044D01*
X26488819Y5238855D01*
X26327112Y5091440D01*
X26195250Y4916825D01*
X26097714Y4720945D01*
X26097712Y4720940D01*
X26054590Y4569380D01*
X26016709Y4509334D01*
X25952379Y4479300D01*
X25882022Y4488813D01*
X25827978Y4534853D01*
X25812210Y4569380D01*
X25803610Y4599607D01*
X25769086Y4720945D01*
X25671552Y4916821D01*
X25671549Y4916825D01*
X25539687Y5091440D01*
X25377980Y5238855D01*
X25191944Y5354044D01*
X25191940Y5354046D01*
X25191938Y5354047D01*
X25056819Y5406392D01*
X24987899Y5433092D01*
X24772808Y5473300D01*
X24553992Y5473300D01*
X24553991Y5473300D01*
X24338900Y5433092D01*
X24192508Y5376379D01*
X24134862Y5354047D01*
X24134861Y5354047D01*
X24134860Y5354046D01*
X24134855Y5354044D01*
X23948819Y5238855D01*
X23787112Y5091440D01*
X23655250Y4916825D01*
X23557714Y4720945D01*
X23557712Y4720940D01*
X23514590Y4569380D01*
X23476709Y4509334D01*
X23412379Y4479300D01*
X23342022Y4488813D01*
X23287978Y4534853D01*
X23272210Y4569380D01*
X23263610Y4599607D01*
X23229086Y4720945D01*
X23131552Y4916821D01*
X23131549Y4916825D01*
X22999687Y5091440D01*
X22837980Y5238855D01*
X22651944Y5354044D01*
X22651940Y5354046D01*
X22651938Y5354047D01*
X22516819Y5406392D01*
X22447899Y5433092D01*
X22232808Y5473300D01*
X22013992Y5473300D01*
X22013991Y5473300D01*
X21798900Y5433092D01*
X21652508Y5376379D01*
X21594862Y5354047D01*
X21594861Y5354047D01*
X21594860Y5354046D01*
X21594855Y5354044D01*
X21408819Y5238855D01*
X21247112Y5091440D01*
X21115250Y4916825D01*
X21017714Y4720945D01*
X21017712Y4720940D01*
X20974590Y4569380D01*
X20936709Y4509334D01*
X20872379Y4479300D01*
X20802022Y4488813D01*
X20747978Y4534853D01*
X20732210Y4569380D01*
X20723610Y4599607D01*
X20689086Y4720945D01*
X20591552Y4916821D01*
X20591549Y4916825D01*
X20459687Y5091440D01*
X20297980Y5238855D01*
X20138869Y5337373D01*
X20091482Y5390240D01*
X20079200Y5444500D01*
X20079200Y8893802D01*
X20099202Y8961923D01*
X20138866Y9000927D01*
X20297979Y9099445D01*
X20459686Y9246860D01*
X20591552Y9421479D01*
X20689086Y9617355D01*
X20748968Y9827818D01*
X20761957Y9967989D01*
X20769158Y10045696D01*
X20769158Y10045705D01*
X20751217Y10239312D01*
X20748968Y10263582D01*
X20689086Y10474045D01*
X20591552Y10669921D01*
X20566775Y10702731D01*
X20459687Y10844540D01*
X20297980Y10991955D01*
X20111944Y11107144D01*
X20111940Y11107146D01*
X20111938Y11107147D01*
X19973195Y11160896D01*
X19907899Y11186192D01*
X19901402Y11187407D01*
X19877651Y11191847D01*
X19814369Y11224024D01*
X19778527Y11285309D01*
X19781508Y11356243D01*
X19822366Y11414305D01*
X19877651Y11439554D01*
X19907898Y11445208D01*
X20111938Y11524253D01*
X20297979Y11639445D01*
X20459686Y11786860D01*
X20591552Y11961479D01*
X20689086Y12157355D01*
X20748968Y12367818D01*
X20761576Y12503880D01*
X20769158Y12585696D01*
X20769158Y12585705D01*
X20754600Y12742805D01*
X20748968Y12803582D01*
X20689086Y13014045D01*
X20591552Y13209921D01*
X20591549Y13209925D01*
X20591548Y13209928D01*
X20588483Y13214878D01*
X20590563Y13216167D01*
X20569216Y13272719D01*
X20584034Y13342152D01*
X20634039Y13392552D01*
X20703353Y13407916D01*
X20769970Y13383368D01*
G37*
%TD.AperFunction*%
%TA.AperFunction,Conductor*%
G36*
X71992283Y37850898D02*
G01*
X72013257Y37833995D01*
X78507015Y31340238D01*
X78541041Y31277926D01*
X78543920Y31251143D01*
X78543920Y8253224D01*
X78549001Y8234264D01*
X78549001Y8234258D01*
X78549003Y8234258D01*
X78577707Y8127131D01*
X78577710Y8127124D01*
X78595796Y8095799D01*
X78595796Y8095798D01*
X78642978Y8014075D01*
X78642986Y8014065D01*
X81026774Y5630279D01*
X81060799Y5567967D01*
X81055735Y5497152D01*
X81013188Y5440316D01*
X80946668Y5415505D01*
X80892165Y5423692D01*
X80867903Y5433091D01*
X80867710Y5433127D01*
X80652808Y5473300D01*
X80433992Y5473300D01*
X80433991Y5473300D01*
X80218900Y5433092D01*
X80072508Y5376379D01*
X80014862Y5354047D01*
X80014861Y5354047D01*
X80014860Y5354046D01*
X80014855Y5354044D01*
X79828825Y5238858D01*
X79824175Y5235346D01*
X79822948Y5236971D01*
X79767289Y5209861D01*
X79696785Y5218215D01*
X79657169Y5244999D01*
X78175425Y6726743D01*
X78141399Y6789055D01*
X78138520Y6815838D01*
X78138520Y31065973D01*
X78138519Y31065975D01*
X78136804Y31072374D01*
X78122891Y31124300D01*
X78104732Y31192072D01*
X78094711Y31209429D01*
X78041415Y31301740D01*
X78039461Y31305125D01*
X78039457Y31305130D01*
X77993985Y31350602D01*
X77947148Y31397439D01*
X76840389Y32504198D01*
X73502155Y35842434D01*
X73502145Y35842442D01*
X73389093Y35907712D01*
X73389090Y35907713D01*
X73326041Y35924607D01*
X73326040Y35924607D01*
X73262997Y35941500D01*
X73262994Y35941500D01*
X73262993Y35941500D01*
X65760844Y35941500D01*
X65630296Y35941500D01*
X65567247Y35924606D01*
X65567246Y35924607D01*
X65504199Y35907713D01*
X65504196Y35907712D01*
X65391144Y35842442D01*
X65391134Y35842434D01*
X63386407Y33837705D01*
X63324095Y33803680D01*
X63297312Y33800800D01*
X63166072Y33800800D01*
X63097951Y33820802D01*
X63093873Y33824089D01*
X63093637Y33823751D01*
X63084609Y33830073D01*
X62978910Y33879361D01*
X62930758Y33885700D01*
X62930754Y33885700D01*
X60753246Y33885700D01*
X60753241Y33885700D01*
X60705089Y33879361D01*
X60599390Y33830073D01*
X60516927Y33747610D01*
X60467639Y33641911D01*
X60461300Y33593759D01*
X60461300Y33016242D01*
X60467639Y32968091D01*
X60467641Y32968084D01*
X60472228Y32958247D01*
X60482887Y32888055D01*
X60472228Y32851753D01*
X60467641Y32841917D01*
X60467639Y32841910D01*
X60461300Y32793759D01*
X60461300Y32216242D01*
X60467639Y32168091D01*
X60467640Y32168087D01*
X60472228Y32158247D01*
X60482887Y32088055D01*
X60472228Y32051753D01*
X60467641Y32041917D01*
X60467639Y32041910D01*
X60461300Y31993759D01*
X60461300Y31416242D01*
X60467639Y31368091D01*
X60467641Y31368084D01*
X60472228Y31358247D01*
X60482887Y31288055D01*
X60472228Y31251753D01*
X60467641Y31241917D01*
X60467639Y31241910D01*
X60461300Y31193759D01*
X60461300Y30616242D01*
X60467639Y30568091D01*
X60467641Y30568084D01*
X60472228Y30558247D01*
X60482887Y30488055D01*
X60472228Y30451753D01*
X60467641Y30441917D01*
X60467639Y30441910D01*
X60461300Y30393759D01*
X60461300Y29816242D01*
X60467639Y29768091D01*
X60467641Y29768084D01*
X60472228Y29758247D01*
X60482887Y29688055D01*
X60472228Y29651753D01*
X60467641Y29641917D01*
X60467639Y29641910D01*
X60461300Y29593759D01*
X60461300Y29016242D01*
X60467639Y28968090D01*
X60516927Y28862391D01*
X60551894Y28827425D01*
X60585920Y28765114D01*
X60588800Y28738329D01*
X60588800Y28632000D01*
X63095200Y28632000D01*
X63095200Y28683200D01*
X63115202Y28751321D01*
X63168858Y28797814D01*
X63221200Y28809200D01*
X64495062Y28809200D01*
X64563183Y28789198D01*
X64609676Y28735542D01*
X64619780Y28665268D01*
X64590286Y28600688D01*
X64562099Y28576513D01*
X64484249Y28527597D01*
X64367824Y28411172D01*
X64367824Y28411171D01*
X64367822Y28411169D01*
X64367821Y28411167D01*
X64349703Y28382332D01*
X64280210Y28271737D01*
X64279369Y28269989D01*
X64278526Y28269056D01*
X64276451Y28265753D01*
X64275872Y28266117D01*
X64231788Y28217296D01*
X64163272Y28198692D01*
X64095575Y28220085D01*
X64065889Y28247962D01*
X64023380Y28303361D01*
X63902075Y28396443D01*
X63760813Y28454953D01*
X63609220Y28474911D01*
X63457626Y28454953D01*
X63316366Y28396443D01*
X63268453Y28359678D01*
X63202232Y28334078D01*
X63132684Y28348343D01*
X63102655Y28370546D01*
X63095201Y28378000D01*
X60588800Y28378000D01*
X60588800Y28271673D01*
X60568798Y28203552D01*
X60551896Y28182579D01*
X60516928Y28147611D01*
X60467639Y28041911D01*
X60461300Y27993759D01*
X60461300Y27597479D01*
X60441298Y27529358D01*
X60387642Y27482865D01*
X60317368Y27472761D01*
X60252788Y27502255D01*
X60246205Y27508384D01*
X59759205Y27995384D01*
X59725179Y28057696D01*
X59722300Y28084479D01*
X59722300Y29543191D01*
X59722299Y29543198D01*
X59717281Y29561925D01*
X59688513Y29669291D01*
X59632094Y29767011D01*
X59623241Y29782345D01*
X59623233Y29782355D01*
X55988855Y33416734D01*
X55988845Y33416742D01*
X55875793Y33482012D01*
X55875790Y33482013D01*
X55812741Y33498907D01*
X55812740Y33498907D01*
X55749697Y33515800D01*
X55749694Y33515800D01*
X55749693Y33515800D01*
X44453558Y33515800D01*
X44385437Y33535802D01*
X44364462Y33552705D01*
X44024704Y33892464D01*
X43990679Y33954776D01*
X43987800Y33981559D01*
X43987800Y34348300D01*
X44007802Y34416421D01*
X44061458Y34462914D01*
X44113800Y34474300D01*
X44580747Y34474300D01*
X44580754Y34474300D01*
X44628912Y34480640D01*
X44638746Y34485227D01*
X44708937Y34495889D01*
X44745252Y34485227D01*
X44755088Y34480640D01*
X44803246Y34474300D01*
X44803253Y34474300D01*
X45380747Y34474300D01*
X45380754Y34474300D01*
X45428912Y34480640D01*
X45438746Y34485227D01*
X45508937Y34495889D01*
X45545252Y34485227D01*
X45555088Y34480640D01*
X45603246Y34474300D01*
X45603253Y34474300D01*
X46180747Y34474300D01*
X46180754Y34474300D01*
X46228912Y34480640D01*
X46238746Y34485227D01*
X46308937Y34495889D01*
X46345252Y34485227D01*
X46355088Y34480640D01*
X46403246Y34474300D01*
X46403253Y34474300D01*
X46980747Y34474300D01*
X46980754Y34474300D01*
X47028912Y34480640D01*
X47038746Y34485227D01*
X47108937Y34495889D01*
X47145252Y34485227D01*
X47155088Y34480640D01*
X47203246Y34474300D01*
X47203253Y34474300D01*
X47780747Y34474300D01*
X47780754Y34474300D01*
X47828912Y34480640D01*
X47838746Y34485227D01*
X47908937Y34495889D01*
X47945252Y34485227D01*
X47955088Y34480640D01*
X48003246Y34474300D01*
X48003253Y34474300D01*
X48580747Y34474300D01*
X48580754Y34474300D01*
X48628912Y34480640D01*
X48638746Y34485227D01*
X48708937Y34495889D01*
X48745252Y34485227D01*
X48755088Y34480640D01*
X48803246Y34474300D01*
X48803253Y34474300D01*
X49380747Y34474300D01*
X49380754Y34474300D01*
X49428912Y34480640D01*
X49438746Y34485227D01*
X49508937Y34495889D01*
X49545252Y34485227D01*
X49555088Y34480640D01*
X49603246Y34474300D01*
X49603253Y34474300D01*
X50180747Y34474300D01*
X50180754Y34474300D01*
X50228912Y34480640D01*
X50238746Y34485227D01*
X50308937Y34495889D01*
X50345252Y34485227D01*
X50355088Y34480640D01*
X50403246Y34474300D01*
X50403253Y34474300D01*
X50980747Y34474300D01*
X50980754Y34474300D01*
X51028912Y34480640D01*
X51038746Y34485227D01*
X51108937Y34495889D01*
X51145252Y34485227D01*
X51155088Y34480640D01*
X51203246Y34474300D01*
X51203253Y34474300D01*
X51780747Y34474300D01*
X51780754Y34474300D01*
X51828912Y34480640D01*
X51838746Y34485227D01*
X51908937Y34495889D01*
X51945252Y34485227D01*
X51955088Y34480640D01*
X52003246Y34474300D01*
X52003253Y34474300D01*
X52580747Y34474300D01*
X52580754Y34474300D01*
X52628912Y34480640D01*
X52638746Y34485227D01*
X52708937Y34495889D01*
X52745252Y34485227D01*
X52755088Y34480640D01*
X52803246Y34474300D01*
X52803253Y34474300D01*
X53380747Y34474300D01*
X53380754Y34474300D01*
X53428912Y34480640D01*
X53438746Y34485227D01*
X53508937Y34495889D01*
X53545252Y34485227D01*
X53555088Y34480640D01*
X53603246Y34474300D01*
X53603253Y34474300D01*
X54180747Y34474300D01*
X54180754Y34474300D01*
X54228912Y34480640D01*
X54238746Y34485227D01*
X54308937Y34495889D01*
X54345252Y34485227D01*
X54355088Y34480640D01*
X54403246Y34474300D01*
X54403253Y34474300D01*
X54980747Y34474300D01*
X54980754Y34474300D01*
X55028912Y34480640D01*
X55038746Y34485227D01*
X55108937Y34495889D01*
X55145252Y34485227D01*
X55155088Y34480640D01*
X55203246Y34474300D01*
X55203253Y34474300D01*
X55780747Y34474300D01*
X55780754Y34474300D01*
X55828912Y34480640D01*
X55838746Y34485227D01*
X55908937Y34495889D01*
X55945252Y34485227D01*
X55955088Y34480640D01*
X56003246Y34474300D01*
X56003253Y34474300D01*
X56580747Y34474300D01*
X56580754Y34474300D01*
X56628912Y34480640D01*
X56638746Y34485227D01*
X56708937Y34495889D01*
X56745252Y34485227D01*
X56755088Y34480640D01*
X56803246Y34474300D01*
X56803253Y34474300D01*
X57380747Y34474300D01*
X57380754Y34474300D01*
X57428912Y34480640D01*
X57438746Y34485227D01*
X57508937Y34495889D01*
X57545252Y34485227D01*
X57555088Y34480640D01*
X57603246Y34474300D01*
X57603253Y34474300D01*
X58180747Y34474300D01*
X58180754Y34474300D01*
X58228912Y34480640D01*
X58238746Y34485227D01*
X58308937Y34495889D01*
X58345252Y34485227D01*
X58355088Y34480640D01*
X58403246Y34474300D01*
X58403253Y34474300D01*
X58980747Y34474300D01*
X58980754Y34474300D01*
X59028912Y34480640D01*
X59038746Y34485227D01*
X59108937Y34495889D01*
X59145252Y34485227D01*
X59155088Y34480640D01*
X59203246Y34474300D01*
X59203253Y34474300D01*
X59780747Y34474300D01*
X59780754Y34474300D01*
X59828912Y34480640D01*
X59934608Y34529927D01*
X60017073Y34612392D01*
X60066360Y34718088D01*
X60072700Y34766246D01*
X60072700Y35233200D01*
X60092702Y35301321D01*
X60146358Y35347814D01*
X60198700Y35359200D01*
X62877292Y35359200D01*
X62877294Y35359200D01*
X62956510Y35380426D01*
X63003392Y35392988D01*
X63100498Y35449052D01*
X63116449Y35458261D01*
X65492182Y37833996D01*
X65554494Y37868020D01*
X65581277Y37870900D01*
X71924162Y37870900D01*
X71992283Y37850898D01*
G37*
%TD.AperFunction*%
%TA.AperFunction,Conductor*%
G36*
X68988982Y28789198D02*
G01*
X69009956Y28772296D01*
X69871015Y27911238D01*
X69905040Y27848925D01*
X69907920Y27822142D01*
X69907920Y9320279D01*
X69887918Y9252158D01*
X69871015Y9231184D01*
X66196987Y5557157D01*
X66196982Y5557151D01*
X66196981Y5557149D01*
X66191097Y5546958D01*
X66174261Y5517796D01*
X66131707Y5444092D01*
X66131708Y5444091D01*
X66112240Y5371436D01*
X66075288Y5310813D01*
X66011427Y5279792D01*
X65940933Y5288220D01*
X65924202Y5296920D01*
X65858869Y5337373D01*
X65811482Y5390240D01*
X65799200Y5444500D01*
X65799200Y12606955D01*
X65819202Y12675076D01*
X65872858Y12721569D01*
X65943132Y12731673D01*
X66007712Y12702179D01*
X66041609Y12655172D01*
X66086477Y12546845D01*
X66179559Y12425540D01*
X66300864Y12332458D01*
X66389943Y12295562D01*
X66442127Y12273947D01*
X66593720Y12253989D01*
X66745313Y12273947D01*
X66850480Y12317509D01*
X66886572Y12332457D01*
X66886572Y12332458D01*
X66886576Y12332459D01*
X66911216Y12351367D01*
X66977435Y12376967D01*
X67046984Y12362703D01*
X67097780Y12313102D01*
X67113920Y12251404D01*
X67113920Y10899240D01*
X67104329Y10851023D01*
X67043967Y10705294D01*
X67024009Y10553701D01*
X67024009Y10553700D01*
X67043967Y10402107D01*
X67102477Y10260845D01*
X67195559Y10139540D01*
X67316864Y10046458D01*
X67405943Y10009562D01*
X67458127Y9987947D01*
X67609720Y9967989D01*
X67761313Y9987947D01*
X67852149Y10025572D01*
X67902575Y10046458D01*
X68023880Y10139540D01*
X68116962Y10260845D01*
X68143242Y10324294D01*
X68175473Y10402107D01*
X68195431Y10553700D01*
X68175473Y10705293D01*
X68125378Y10826235D01*
X68115111Y10851023D01*
X68105520Y10899240D01*
X68105520Y23985262D01*
X68105520Y23985263D01*
X68096383Y24019363D01*
X68098073Y24090337D01*
X68137867Y24149133D01*
X68203131Y24177081D01*
X68273145Y24165308D01*
X68307185Y24141067D01*
X68474015Y23974237D01*
X68508041Y23911925D01*
X68510920Y23885142D01*
X68510920Y10137240D01*
X68501329Y10089023D01*
X68440967Y9943294D01*
X68421009Y9791701D01*
X68421009Y9791700D01*
X68440967Y9640107D01*
X68499477Y9498845D01*
X68592559Y9377540D01*
X68713864Y9284458D01*
X68791847Y9252158D01*
X68855127Y9225947D01*
X69006720Y9205989D01*
X69158313Y9225947D01*
X69247392Y9262845D01*
X69299575Y9284458D01*
X69420880Y9377540D01*
X69513962Y9498845D01*
X69550471Y9586989D01*
X69572473Y9640107D01*
X69592431Y9791700D01*
X69572473Y9943293D01*
X69529741Y10046459D01*
X69512111Y10089023D01*
X69502520Y10137240D01*
X69502520Y24207972D01*
X69502520Y24207973D01*
X69489483Y24256629D01*
X69468733Y24334071D01*
X69441060Y24382002D01*
X69403461Y24447125D01*
X69403453Y24447135D01*
X68267622Y25582967D01*
X68233596Y25645279D01*
X68238661Y25716095D01*
X68281208Y25772930D01*
X68297845Y25783463D01*
X68299753Y25784472D01*
X68406641Y25863359D01*
X68485532Y25970253D01*
X68529406Y26095638D01*
X68529407Y26095643D01*
X68532199Y26125414D01*
X68532200Y26125420D01*
X68532200Y26289000D01*
X67790500Y26289000D01*
X67722379Y26309002D01*
X67675886Y26362658D01*
X67664500Y26415000D01*
X67664500Y26417000D01*
X67684502Y26485121D01*
X67738158Y26531614D01*
X67790500Y26543000D01*
X68532200Y26543000D01*
X68532200Y26706581D01*
X68532199Y26706587D01*
X68529407Y26736358D01*
X68529406Y26736363D01*
X68485532Y26861748D01*
X68406641Y26968642D01*
X68299749Y27047532D01*
X68266773Y27059070D01*
X68209081Y27100449D01*
X68182918Y27166449D01*
X68196590Y27236116D01*
X68245758Y27287332D01*
X68266773Y27296930D01*
X68299749Y27308469D01*
X68406641Y27387359D01*
X68485532Y27494253D01*
X68529406Y27619638D01*
X68529407Y27619643D01*
X68532199Y27649414D01*
X68532200Y27649420D01*
X68532200Y27813000D01*
X67790500Y27813000D01*
X67722379Y27833002D01*
X67675886Y27886658D01*
X67664500Y27939000D01*
X67664500Y27941000D01*
X67684502Y28009121D01*
X67738158Y28055614D01*
X67790500Y28067000D01*
X68532200Y28067000D01*
X68532200Y28230581D01*
X68532199Y28230587D01*
X68529407Y28260358D01*
X68529406Y28260363D01*
X68485532Y28385748D01*
X68406641Y28492642D01*
X68299748Y28571533D01*
X68299236Y28571803D01*
X68298779Y28572247D01*
X68292154Y28577137D01*
X68292823Y28578044D01*
X68248357Y28621320D01*
X68232326Y28690483D01*
X68256232Y28757333D01*
X68312485Y28800647D01*
X68358115Y28809200D01*
X68920861Y28809200D01*
X68988982Y28789198D01*
G37*
%TD.AperFunction*%
%TA.AperFunction,Conductor*%
G36*
X31853484Y34409198D02*
G01*
X31885325Y34379904D01*
X31960253Y34282257D01*
X31960255Y34282255D01*
X31985397Y34262963D01*
X31985398Y34262962D01*
X32027265Y34205624D01*
X32031486Y34134753D01*
X31996721Y34072850D01*
X31985398Y34063038D01*
X31960253Y34043744D01*
X31885325Y33946096D01*
X31827987Y33904229D01*
X31785363Y33896800D01*
X29685746Y33896800D01*
X29644320Y33885700D01*
X29644319Y33885701D01*
X29559649Y33863013D01*
X29559646Y33863012D01*
X29446594Y33797742D01*
X29446584Y33797734D01*
X23651986Y28003136D01*
X23651981Y28003129D01*
X23622866Y27952700D01*
X23614569Y27938329D01*
X23586707Y27890072D01*
X23585997Y27887420D01*
X23566369Y27814163D01*
X23566368Y27814159D01*
X23552920Y27763975D01*
X23552920Y27763973D01*
X23552920Y17092427D01*
X23569460Y17030700D01*
X23586707Y16966331D01*
X23586709Y16966326D01*
X23615824Y16915898D01*
X23623584Y16902457D01*
X23651980Y16853272D01*
X23651984Y16853267D01*
X27009803Y13495450D01*
X27037117Y13454572D01*
X27097477Y13308846D01*
X27190559Y13187540D01*
X27311864Y13094458D01*
X27400943Y13057562D01*
X27453127Y13035947D01*
X27604720Y13015989D01*
X27756313Y13035947D01*
X27845392Y13072845D01*
X27897575Y13094458D01*
X28018880Y13187540D01*
X28111962Y13308845D01*
X28141791Y13380861D01*
X28170473Y13450107D01*
X28190431Y13601700D01*
X28170473Y13753293D01*
X28143403Y13818647D01*
X28111962Y13894555D01*
X28018880Y14015861D01*
X27897574Y14108943D01*
X27751848Y14169303D01*
X27710970Y14196617D01*
X24581425Y17326163D01*
X24547399Y17388475D01*
X24544520Y17415258D01*
X24544520Y27441142D01*
X24564522Y27509263D01*
X24581425Y27530237D01*
X29919483Y32868295D01*
X29981795Y32902321D01*
X30008578Y32905200D01*
X31785363Y32905200D01*
X31853484Y32885198D01*
X31885325Y32855904D01*
X31953928Y32766500D01*
X31960255Y32758255D01*
X31985397Y32738963D01*
X31985398Y32738962D01*
X32027265Y32681624D01*
X32031486Y32610753D01*
X31996721Y32548850D01*
X31985398Y32539038D01*
X31960253Y32519744D01*
X31885325Y32422096D01*
X31827987Y32380229D01*
X31785363Y32372800D01*
X30070294Y32372800D01*
X29939746Y32372800D01*
X29876697Y32355906D01*
X29876696Y32355907D01*
X29813655Y32339015D01*
X29813645Y32339011D01*
X29769682Y32313628D01*
X29769681Y32313629D01*
X29700593Y32273741D01*
X29700583Y32273733D01*
X24921984Y27495134D01*
X24921980Y27495128D01*
X24892579Y27444202D01*
X24892578Y27444201D01*
X24856710Y27382077D01*
X24856707Y27382070D01*
X24854814Y27375004D01*
X24843677Y27333439D01*
X24837167Y27309142D01*
X24832418Y27291419D01*
X24822920Y27255975D01*
X24822920Y18235423D01*
X24839813Y18172380D01*
X24839813Y18172379D01*
X24856705Y18109336D01*
X24856710Y18109324D01*
X24872478Y18082014D01*
X24872478Y18082013D01*
X24921978Y17996275D01*
X24921986Y17996265D01*
X29820295Y13097958D01*
X29854320Y13035646D01*
X29857200Y13008863D01*
X29857200Y8473540D01*
X29847609Y8425323D01*
X29787247Y8279594D01*
X29767289Y8128001D01*
X29767289Y8128000D01*
X29787247Y7976407D01*
X29845757Y7835145D01*
X29938839Y7713840D01*
X30060144Y7620758D01*
X30149223Y7583862D01*
X30201407Y7562247D01*
X30353000Y7542289D01*
X30504593Y7562247D01*
X30593672Y7599145D01*
X30645855Y7620758D01*
X30767160Y7713840D01*
X30860242Y7835145D01*
X30898487Y7927480D01*
X30918753Y7976407D01*
X30938711Y8128000D01*
X30918753Y8279593D01*
X30890123Y8348712D01*
X30858391Y8425323D01*
X30848800Y8473540D01*
X30848800Y13331694D01*
X30844714Y13346941D01*
X30844713Y13346944D01*
X30841241Y13359900D01*
X30820556Y13437100D01*
X30815012Y13457792D01*
X30805688Y13473941D01*
X30749741Y13570845D01*
X30749737Y13570850D01*
X30718886Y13601701D01*
X30657428Y13663159D01*
X28069074Y16251514D01*
X28035050Y16313823D01*
X28040115Y16384638D01*
X28082662Y16441474D01*
X28129897Y16460711D01*
X28129335Y16462809D01*
X28137309Y16464947D01*
X28137313Y16464947D01*
X28224762Y16501169D01*
X28278575Y16523458D01*
X28399880Y16616540D01*
X28492962Y16737845D01*
X28535671Y16840958D01*
X28551473Y16879107D01*
X28571431Y17030700D01*
X28551473Y17182293D01*
X28524132Y17248300D01*
X28492962Y17323555D01*
X28399881Y17444859D01*
X28395631Y17448120D01*
X28317271Y17508249D01*
X28275404Y17565587D01*
X28271183Y17636458D01*
X28305948Y17698361D01*
X28368661Y17731642D01*
X28377527Y17733133D01*
X28391313Y17734947D01*
X28457495Y17762360D01*
X28532575Y17793458D01*
X28653880Y17886540D01*
X28746961Y18007844D01*
X28776329Y18078747D01*
X28820876Y18134027D01*
X28888239Y18156449D01*
X28957030Y18138892D01*
X28981828Y18119628D01*
X29721117Y17380340D01*
X30582295Y16519162D01*
X30616321Y16456850D01*
X30619200Y16430067D01*
X30619200Y14836240D01*
X30609609Y14788023D01*
X30549247Y14642294D01*
X30529289Y14490701D01*
X30529289Y14490700D01*
X30549247Y14339107D01*
X30607757Y14197845D01*
X30700839Y14076540D01*
X30822144Y13983458D01*
X30911223Y13946562D01*
X30963407Y13924947D01*
X31115000Y13904989D01*
X31266593Y13924947D01*
X31365556Y13965938D01*
X31407855Y13983458D01*
X31529160Y14076540D01*
X31622242Y14197845D01*
X31647878Y14259738D01*
X31680753Y14339107D01*
X31700711Y14490700D01*
X31680753Y14642293D01*
X31645278Y14727938D01*
X31620391Y14788023D01*
X31610800Y14836240D01*
X31610800Y16636489D01*
X31630802Y16704610D01*
X31684458Y16751103D01*
X31724249Y16759759D01*
X31724032Y16761411D01*
X31732220Y16762489D01*
X31883813Y16782447D01*
X31983066Y16823558D01*
X32025075Y16840958D01*
X32146380Y16934040D01*
X32239462Y17055345D01*
X32282480Y17159204D01*
X32297973Y17196607D01*
X32315163Y17327177D01*
X32343886Y17392103D01*
X32403151Y17431194D01*
X32474143Y17432039D01*
X32529180Y17399824D01*
X33041015Y16887989D01*
X33075041Y16825677D01*
X33077920Y16798894D01*
X33077920Y5415572D01*
X33057918Y5347451D01*
X33004262Y5300958D01*
X32933988Y5290854D01*
X32885590Y5308444D01*
X32811941Y5354045D01*
X32811942Y5354045D01*
X32811938Y5354047D01*
X32676819Y5406392D01*
X32607899Y5433092D01*
X32392808Y5473300D01*
X32173992Y5473300D01*
X32173991Y5473300D01*
X31958896Y5433091D01*
X31952683Y5430684D01*
X31881936Y5424734D01*
X31819203Y5457978D01*
X31818083Y5459085D01*
X30644735Y6632434D01*
X30644728Y6632440D01*
X30619839Y6646809D01*
X30565880Y6677962D01*
X30565075Y6678427D01*
X30531676Y6697710D01*
X30531674Y6697711D01*
X30531672Y6697712D01*
X30531669Y6697713D01*
X30531664Y6697715D01*
X30468621Y6714607D01*
X30468620Y6714607D01*
X30405577Y6731500D01*
X30405574Y6731500D01*
X30405573Y6731500D01*
X28878277Y6731500D01*
X28810156Y6751502D01*
X28789182Y6768405D01*
X20136425Y15421163D01*
X20102399Y15483475D01*
X20099520Y15510258D01*
X20099520Y28330144D01*
X20119522Y28398265D01*
X20136420Y28419234D01*
X20568710Y28851524D01*
X20631020Y28885548D01*
X20701835Y28880483D01*
X20758671Y28837936D01*
X20783482Y28771416D01*
X20779510Y28729817D01*
X20762215Y28665268D01*
X20758920Y28652972D01*
X20758920Y15822423D01*
X20763136Y15806689D01*
X20792707Y15696329D01*
X20792708Y15696328D01*
X20820797Y15647676D01*
X20857981Y15583271D01*
X20857982Y15583270D01*
X20857986Y15583265D01*
X26374803Y10066450D01*
X26402117Y10025572D01*
X26462477Y9879846D01*
X26555559Y9758540D01*
X26676864Y9665458D01*
X26765943Y9628562D01*
X26818127Y9606947D01*
X26969720Y9586989D01*
X27121313Y9606947D01*
X27210392Y9643845D01*
X27262575Y9665458D01*
X27383880Y9758540D01*
X27476962Y9879845D01*
X27509149Y9957555D01*
X27535473Y10021107D01*
X27555431Y10172700D01*
X27535473Y10324293D01*
X27513039Y10378455D01*
X27476962Y10465555D01*
X27383880Y10586861D01*
X27262574Y10679943D01*
X27116848Y10740303D01*
X27075970Y10767617D01*
X21787425Y16056163D01*
X21753399Y16118475D01*
X21750520Y16145258D01*
X21750520Y28330142D01*
X21770522Y28398263D01*
X21787419Y28419232D01*
X22092710Y28724523D01*
X22155019Y28758545D01*
X22225834Y28753481D01*
X22282670Y28710934D01*
X22307481Y28644414D01*
X22303509Y28602815D01*
X22283362Y28527622D01*
X22283357Y28527603D01*
X22282920Y28525974D01*
X22282920Y16330423D01*
X22297308Y16276729D01*
X22297308Y16276728D01*
X22297309Y16276728D01*
X22297309Y16276727D01*
X22313972Y16214538D01*
X22316709Y16204326D01*
X22316710Y16204323D01*
X22324037Y16191634D01*
X22324038Y16191630D01*
X22324039Y16191630D01*
X22381978Y16091275D01*
X22381986Y16091265D01*
X26374803Y12098450D01*
X26402117Y12057572D01*
X26462477Y11911846D01*
X26555559Y11790540D01*
X26676864Y11697458D01*
X26765943Y11660562D01*
X26818127Y11638947D01*
X26969720Y11618989D01*
X27121313Y11638947D01*
X27218364Y11679146D01*
X27262575Y11697458D01*
X27383880Y11790540D01*
X27476962Y11911845D01*
X27498575Y11964028D01*
X27535473Y12053107D01*
X27555431Y12204700D01*
X27535473Y12356293D01*
X27497314Y12448418D01*
X27476962Y12497555D01*
X27383880Y12618861D01*
X27262574Y12711943D01*
X27116848Y12772303D01*
X27075970Y12799617D01*
X23311425Y16564163D01*
X23277399Y16626475D01*
X23274520Y16653258D01*
X23274520Y28203143D01*
X23294522Y28271264D01*
X23311425Y28292238D01*
X29411482Y34392295D01*
X29473794Y34426321D01*
X29500577Y34429200D01*
X31785363Y34429200D01*
X31853484Y34409198D01*
G37*
%TD.AperFunction*%
%TA.AperFunction,Conductor*%
G36*
X49935188Y24012549D02*
G01*
X49953135Y23983878D01*
X49953347Y23983999D01*
X49956766Y23978078D01*
X49957361Y23977127D01*
X49957477Y23976846D01*
X50050559Y23855540D01*
X50171864Y23762458D01*
X50260943Y23725562D01*
X50313127Y23703947D01*
X50464720Y23683989D01*
X50616313Y23703947D01*
X50666200Y23724611D01*
X50683703Y23731860D01*
X50754293Y23739449D01*
X50817780Y23707669D01*
X50854006Y23646610D01*
X50857920Y23615451D01*
X50857920Y21258278D01*
X50837918Y21190157D01*
X50821015Y21169183D01*
X50295260Y20643429D01*
X50281656Y20619863D01*
X50281654Y20619860D01*
X50229990Y20530377D01*
X50229987Y20530370D01*
X50215217Y20475245D01*
X50200099Y20418822D01*
X50196200Y20404272D01*
X50196200Y20134200D01*
X50176198Y20066079D01*
X50122542Y20019586D01*
X50070200Y20008200D01*
X50019000Y20008200D01*
X50019000Y17501800D01*
X50125329Y17501800D01*
X50193450Y17481798D01*
X50214425Y17464894D01*
X50249390Y17429928D01*
X50249391Y17429928D01*
X50249392Y17429927D01*
X50355088Y17380640D01*
X50403246Y17374300D01*
X50403253Y17374300D01*
X50980747Y17374300D01*
X50980754Y17374300D01*
X51028912Y17380640D01*
X51038746Y17385227D01*
X51108937Y17395889D01*
X51145252Y17385227D01*
X51155088Y17380640D01*
X51203246Y17374300D01*
X51203253Y17374300D01*
X51780747Y17374300D01*
X51780754Y17374300D01*
X51828912Y17380640D01*
X51838746Y17385227D01*
X51908937Y17395889D01*
X51945252Y17385227D01*
X51955088Y17380640D01*
X52003246Y17374300D01*
X52003253Y17374300D01*
X52580747Y17374300D01*
X52580754Y17374300D01*
X52628912Y17380640D01*
X52638746Y17385227D01*
X52708937Y17395889D01*
X52745252Y17385227D01*
X52755088Y17380640D01*
X52803246Y17374300D01*
X52803253Y17374300D01*
X53380747Y17374300D01*
X53380754Y17374300D01*
X53428912Y17380640D01*
X53438746Y17385227D01*
X53508937Y17395889D01*
X53545252Y17385227D01*
X53555088Y17380640D01*
X53603246Y17374300D01*
X53603253Y17374300D01*
X54180747Y17374300D01*
X54180754Y17374300D01*
X54228912Y17380640D01*
X54238746Y17385227D01*
X54308937Y17395889D01*
X54345252Y17385227D01*
X54355088Y17380640D01*
X54403246Y17374300D01*
X54403253Y17374300D01*
X54980747Y17374300D01*
X54980754Y17374300D01*
X55028912Y17380640D01*
X55038746Y17385227D01*
X55108937Y17395889D01*
X55145252Y17385227D01*
X55155088Y17380640D01*
X55203246Y17374300D01*
X55203253Y17374300D01*
X55780747Y17374300D01*
X55780754Y17374300D01*
X55828912Y17380640D01*
X55838746Y17385227D01*
X55908937Y17395889D01*
X55945252Y17385227D01*
X55955088Y17380640D01*
X56003246Y17374300D01*
X56003253Y17374300D01*
X56580747Y17374300D01*
X56580754Y17374300D01*
X56628912Y17380640D01*
X56638746Y17385227D01*
X56708937Y17395889D01*
X56745252Y17385227D01*
X56755088Y17380640D01*
X56803246Y17374300D01*
X56803253Y17374300D01*
X57380747Y17374300D01*
X57380754Y17374300D01*
X57428912Y17380640D01*
X57438746Y17385227D01*
X57508937Y17395889D01*
X57545252Y17385227D01*
X57555088Y17380640D01*
X57603246Y17374300D01*
X57603253Y17374300D01*
X58180747Y17374300D01*
X58180754Y17374300D01*
X58228912Y17380640D01*
X58238746Y17385227D01*
X58308937Y17395889D01*
X58345252Y17385227D01*
X58355088Y17380640D01*
X58403246Y17374300D01*
X58403253Y17374300D01*
X58980747Y17374300D01*
X58980754Y17374300D01*
X59028912Y17380640D01*
X59038746Y17385227D01*
X59108937Y17395889D01*
X59145252Y17385227D01*
X59155088Y17380640D01*
X59203246Y17374300D01*
X59203253Y17374300D01*
X59780747Y17374300D01*
X59780754Y17374300D01*
X59818545Y17379276D01*
X59826634Y17380340D01*
X59896782Y17369400D01*
X59949881Y17322272D01*
X59969070Y17253918D01*
X59948258Y17186040D01*
X59932175Y17166323D01*
X59694255Y16928404D01*
X59631945Y16894380D01*
X59605162Y16891500D01*
X54657494Y16891500D01*
X54526946Y16891500D01*
X54437377Y16867500D01*
X54437376Y16867501D01*
X54400854Y16857714D01*
X54400849Y16857713D01*
X54400848Y16857712D01*
X54400847Y16857712D01*
X54400843Y16857710D01*
X54287795Y16792442D01*
X54287791Y16792438D01*
X52206667Y14711317D01*
X52206662Y14711311D01*
X52206661Y14711309D01*
X52181732Y14668130D01*
X52181731Y14668128D01*
X52141390Y14598257D01*
X52141385Y14598245D01*
X52129817Y14555071D01*
X52129685Y14554581D01*
X52129630Y14554379D01*
X52092434Y14493906D01*
X52028449Y14463142D01*
X51957989Y14471855D01*
X51903425Y14517279D01*
X51883134Y14571035D01*
X51880481Y14591188D01*
X51873753Y14642293D01*
X51845167Y14711307D01*
X51815242Y14783555D01*
X51722160Y14904861D01*
X51600855Y14997943D01*
X51459593Y15056453D01*
X51308000Y15076411D01*
X51156406Y15056453D01*
X51015145Y14997943D01*
X50893839Y14904861D01*
X50800757Y14783555D01*
X50742247Y14642294D01*
X50722289Y14490701D01*
X50722289Y14490700D01*
X50742247Y14339107D01*
X50800758Y14197845D01*
X50806480Y14190388D01*
X50832083Y14124169D01*
X50832520Y14113681D01*
X50832520Y5431299D01*
X50812518Y5363178D01*
X50758862Y5316685D01*
X50688588Y5306581D01*
X50640190Y5324171D01*
X50591941Y5354045D01*
X50591942Y5354045D01*
X50591938Y5354047D01*
X50456819Y5406392D01*
X50387899Y5433092D01*
X50172808Y5473300D01*
X49953992Y5473300D01*
X49953991Y5473300D01*
X49738900Y5433092D01*
X49592508Y5376379D01*
X49534862Y5354047D01*
X49534861Y5354047D01*
X49534860Y5354046D01*
X49534858Y5354045D01*
X49476450Y5317880D01*
X49408003Y5299026D01*
X49340228Y5320170D01*
X49294643Y5374599D01*
X49284120Y5425008D01*
X49284120Y15370972D01*
X49304122Y15439093D01*
X49357778Y15485586D01*
X49428052Y15495690D01*
X49458337Y15487381D01*
X49480739Y15478102D01*
X49551127Y15448947D01*
X49702720Y15428989D01*
X49854313Y15448947D01*
X49947103Y15487381D01*
X49995575Y15507458D01*
X50116880Y15600540D01*
X50209962Y15721845D01*
X50245104Y15806689D01*
X50268473Y15863107D01*
X50288431Y16014700D01*
X50268473Y16166293D01*
X50209961Y16307555D01*
X50194049Y16328291D01*
X50172306Y16372382D01*
X50164732Y16400652D01*
X50156302Y16415253D01*
X50156300Y16415257D01*
X50099463Y16513702D01*
X50099457Y16513710D01*
X50065799Y16547368D01*
X50007148Y16606019D01*
X50007146Y16606021D01*
X50007145Y16606023D01*
X49422222Y17190946D01*
X49388196Y17253258D01*
X49393261Y17324073D01*
X49435808Y17380909D01*
X49458065Y17394235D01*
X49534608Y17429927D01*
X49569575Y17464894D01*
X49631886Y17498920D01*
X49658671Y17501800D01*
X49765000Y17501800D01*
X49765000Y20008200D01*
X49689520Y20008200D01*
X49621399Y20028202D01*
X49574906Y20081858D01*
X49563520Y20134200D01*
X49563520Y22302974D01*
X49557805Y22324300D01*
X49557804Y22324304D01*
X49536871Y22402430D01*
X49536871Y22402431D01*
X49533526Y22414913D01*
X49529732Y22429072D01*
X49464459Y22542128D01*
X49372148Y22634439D01*
X48813856Y23192731D01*
X48779830Y23255043D01*
X48784895Y23325858D01*
X48827442Y23382694D01*
X48893962Y23407505D01*
X48951166Y23398236D01*
X48979627Y23386447D01*
X49131220Y23366489D01*
X49282813Y23386447D01*
X49371892Y23423345D01*
X49424075Y23444958D01*
X49545380Y23538040D01*
X49638462Y23659345D01*
X49661358Y23714623D01*
X49696973Y23800607D01*
X49716030Y23945358D01*
X49744753Y24010284D01*
X49804018Y24049375D01*
X49875010Y24050220D01*
X49935188Y24012549D01*
G37*
%TD.AperFunction*%
%TA.AperFunction,Conductor*%
G36*
X54771657Y14436305D02*
G01*
X54828493Y14393758D01*
X54847735Y14346525D01*
X54849829Y14347085D01*
X54851966Y14339109D01*
X54912329Y14193376D01*
X54921920Y14145159D01*
X54921920Y5556979D01*
X54901918Y5488858D01*
X54848262Y5442365D01*
X54824463Y5434830D01*
X54824504Y5434686D01*
X54819630Y5433300D01*
X54819086Y5433127D01*
X54818906Y5433094D01*
X54682875Y5380396D01*
X54614862Y5354047D01*
X54614861Y5354047D01*
X54614860Y5354046D01*
X54614858Y5354045D01*
X54556450Y5317880D01*
X54488003Y5299026D01*
X54420228Y5320170D01*
X54374643Y5374599D01*
X54364120Y5425008D01*
X54364120Y14080743D01*
X54384122Y14148864D01*
X54401019Y14169833D01*
X54638533Y14407347D01*
X54700842Y14441369D01*
X54771657Y14436305D01*
G37*
%TD.AperFunction*%
%TA.AperFunction,Conductor*%
G36*
X63348952Y15393599D02*
G01*
X63405788Y15351052D01*
X63430599Y15284532D01*
X63430920Y15275543D01*
X63430920Y15129259D01*
X63410918Y15061138D01*
X63394015Y15040164D01*
X61751984Y13398134D01*
X61751980Y13398128D01*
X61742013Y13380863D01*
X61742011Y13380860D01*
X61686709Y13285077D01*
X61676166Y13245729D01*
X61656583Y13172641D01*
X61652920Y13158972D01*
X61652920Y7001259D01*
X61632918Y6933138D01*
X61616015Y6912164D01*
X61399115Y6695264D01*
X61336803Y6661238D01*
X61265988Y6666303D01*
X61209152Y6708850D01*
X61184341Y6775370D01*
X61184020Y6784359D01*
X61184020Y11250466D01*
X61190418Y11282573D01*
X61188336Y11283131D01*
X61190472Y11291105D01*
X61190471Y11291105D01*
X61190473Y11291107D01*
X61210431Y11442700D01*
X61190473Y11594293D01*
X61159900Y11668104D01*
X61131962Y11735555D01*
X61038880Y11856861D01*
X60917575Y11949943D01*
X60776313Y12008453D01*
X60624720Y12028411D01*
X60473126Y12008453D01*
X60331865Y11949943D01*
X60210559Y11856861D01*
X60117477Y11735555D01*
X60092929Y11676287D01*
X60048381Y11621005D01*
X59981018Y11598584D01*
X59912227Y11616142D01*
X59863848Y11668104D01*
X59850520Y11724504D01*
X59850520Y11947143D01*
X59870522Y12015264D01*
X59887425Y12036238D01*
X63215825Y15364638D01*
X63278137Y15398664D01*
X63348952Y15393599D01*
G37*
%TD.AperFunction*%
%TA.AperFunction,Conductor*%
G36*
X60749723Y48849698D02*
G01*
X60796216Y48796042D01*
X60806320Y48725768D01*
X60792724Y48684304D01*
X60749262Y48602993D01*
X60689037Y48404456D01*
X60681212Y48325001D01*
X60681213Y48325000D01*
X61243392Y48325000D01*
X61227000Y48263826D01*
X61227000Y48132174D01*
X61243392Y48071000D01*
X60681213Y48071000D01*
X60689037Y47991545D01*
X60749262Y47793008D01*
X60847059Y47610042D01*
X60978672Y47449673D01*
X61139041Y47318060D01*
X61322007Y47220263D01*
X61520544Y47160038D01*
X61599999Y47152213D01*
X61600000Y47152214D01*
X61600000Y47714392D01*
X61661174Y47698000D01*
X61792826Y47698000D01*
X61854000Y47714392D01*
X61854000Y47152213D01*
X61933455Y47160038D01*
X62131992Y47220263D01*
X62314958Y47318060D01*
X62475327Y47449673D01*
X62606940Y47610042D01*
X62704737Y47793008D01*
X62764962Y47991545D01*
X62772787Y48071000D01*
X62210608Y48071000D01*
X62227000Y48132174D01*
X62227000Y48263826D01*
X62210608Y48325000D01*
X62772787Y48325000D01*
X62772787Y48325001D01*
X62764962Y48404456D01*
X62704737Y48602993D01*
X62661276Y48684304D01*
X62646804Y48753810D01*
X62672208Y48820106D01*
X62729421Y48862144D01*
X62772398Y48869700D01*
X62957362Y48869700D01*
X63025483Y48849698D01*
X63046457Y48832795D01*
X67559286Y44319965D01*
X67559289Y44319963D01*
X67559291Y44319961D01*
X67615817Y44287327D01*
X67615819Y44287325D01*
X67672342Y44254691D01*
X67672344Y44254690D01*
X67672348Y44254688D01*
X67672351Y44254688D01*
X67672354Y44254686D01*
X67719744Y44241988D01*
X67719745Y44241988D01*
X67798446Y44220900D01*
X67798447Y44220900D01*
X75607162Y44220900D01*
X75675283Y44200898D01*
X75696257Y44183995D01*
X85492015Y34388238D01*
X85526041Y34325926D01*
X85528920Y34299143D01*
X85528920Y16587974D01*
X85528920Y16457426D01*
X85531373Y16448273D01*
X85561591Y16335495D01*
X85562709Y16331326D01*
X85593925Y16277258D01*
X85627978Y16218275D01*
X85627986Y16218265D01*
X87934117Y13912135D01*
X87968142Y13849823D01*
X87963078Y13779008D01*
X87920531Y13722172D01*
X87854011Y13697361D01*
X87799507Y13705548D01*
X87767793Y13717834D01*
X87746219Y13726192D01*
X87531128Y13766400D01*
X87312312Y13766400D01*
X87312311Y13766400D01*
X87097216Y13726191D01*
X87091003Y13723784D01*
X87020256Y13717834D01*
X86957523Y13751078D01*
X86956403Y13752185D01*
X85160425Y15548163D01*
X85126399Y15610475D01*
X85123520Y15637258D01*
X85123520Y34050472D01*
X85123520Y34050473D01*
X85105078Y34119300D01*
X85104692Y34120739D01*
X85089734Y34176567D01*
X85089733Y34176571D01*
X85024459Y34289628D01*
X85024456Y34289631D01*
X85024453Y34289635D01*
X75470655Y43843434D01*
X75470645Y43843442D01*
X75395940Y43886572D01*
X75395939Y43886572D01*
X75395937Y43886573D01*
X75358436Y43908225D01*
X75357596Y43908710D01*
X75357594Y43908711D01*
X75357592Y43908712D01*
X75357589Y43908713D01*
X75357584Y43908715D01*
X75277019Y43930303D01*
X75277019Y43930302D01*
X75231494Y43942500D01*
X75231493Y43942500D01*
X65034261Y43942500D01*
X64986044Y43952091D01*
X64840313Y44012453D01*
X64688720Y44032411D01*
X64537126Y44012453D01*
X64395865Y43953943D01*
X64274559Y43860861D01*
X64181477Y43739555D01*
X64122967Y43598294D01*
X64103009Y43446701D01*
X64103009Y43446700D01*
X64122967Y43295107D01*
X64181477Y43153845D01*
X64274559Y43032540D01*
X64395864Y42939458D01*
X64455133Y42914909D01*
X64510414Y42870362D01*
X64532836Y42802999D01*
X64515279Y42734207D01*
X64463317Y42685828D01*
X64406916Y42672500D01*
X63764261Y42672500D01*
X63716044Y42682091D01*
X63570313Y42742453D01*
X63418720Y42762411D01*
X63267126Y42742453D01*
X63125865Y42683943D01*
X63004559Y42590861D01*
X62911477Y42469555D01*
X62852967Y42328294D01*
X62833009Y42176701D01*
X62833009Y42176700D01*
X62852967Y42025107D01*
X62911477Y41883845D01*
X63004559Y41762540D01*
X63125864Y41669458D01*
X63185133Y41644909D01*
X63240414Y41600362D01*
X63262836Y41532999D01*
X63245279Y41464207D01*
X63193317Y41415828D01*
X63136916Y41402500D01*
X62533277Y41402500D01*
X62465156Y41422502D01*
X62444182Y41439405D01*
X61664137Y42219450D01*
X61636823Y42260328D01*
X61576462Y42406054D01*
X61483380Y42527361D01*
X61362075Y42620443D01*
X61220813Y42678953D01*
X61069220Y42698911D01*
X60917626Y42678953D01*
X60776365Y42620443D01*
X60655059Y42527361D01*
X60561977Y42406055D01*
X60503467Y42264794D01*
X60483509Y42113201D01*
X60483509Y42113200D01*
X60503467Y41961607D01*
X60561977Y41820345D01*
X60655059Y41699040D01*
X60776364Y41605958D01*
X60922091Y41545598D01*
X60962969Y41518284D01*
X61878981Y40602272D01*
X61971292Y40509961D01*
X61971293Y40509960D01*
X61971295Y40509959D01*
X62032821Y40474437D01*
X62084348Y40444688D01*
X62210447Y40410900D01*
X62340994Y40410900D01*
X73321162Y40410900D01*
X73389283Y40390898D01*
X73410257Y40373995D01*
X81301015Y32483237D01*
X81335041Y32420925D01*
X81337920Y32394142D01*
X81337920Y14806423D01*
X81352283Y14752822D01*
X81352283Y14752821D01*
X81352284Y14752821D01*
X81352284Y14752820D01*
X81371000Y14682973D01*
X81371708Y14680329D01*
X81371710Y14680324D01*
X81393516Y14642556D01*
X81393516Y14642555D01*
X81436978Y14567275D01*
X81436980Y14567273D01*
X81436981Y14567271D01*
X81637297Y14366955D01*
X81809015Y14195238D01*
X81843040Y14132925D01*
X81845920Y14106142D01*
X81845920Y13737600D01*
X81825918Y13669479D01*
X81786251Y13630473D01*
X81627139Y13531955D01*
X81465432Y13384540D01*
X81333570Y13209925D01*
X81236034Y13014045D01*
X81236032Y13014040D01*
X81179710Y12816087D01*
X81141829Y12756041D01*
X81077499Y12726007D01*
X81007142Y12735520D01*
X80953098Y12781560D01*
X80932524Y12849511D01*
X80932520Y12850569D01*
X80932520Y32145473D01*
X80926460Y32168087D01*
X80926459Y32168091D01*
X80915505Y32208973D01*
X80898732Y32271572D01*
X80859796Y32339011D01*
X80833461Y32384625D01*
X80833457Y32384630D01*
X80795991Y32422096D01*
X80741148Y32476939D01*
X78858394Y34359693D01*
X73184655Y40033434D01*
X73184645Y40033442D01*
X73100800Y40081849D01*
X73100799Y40081849D01*
X73100608Y40081959D01*
X73091064Y40087470D01*
X73071596Y40098710D01*
X73071594Y40098711D01*
X73071592Y40098712D01*
X73071589Y40098713D01*
X73071584Y40098715D01*
X73001848Y40117401D01*
X73001848Y40117400D01*
X72973670Y40124950D01*
X72945494Y40132500D01*
X72945493Y40132500D01*
X62848993Y40132500D01*
X62718446Y40132500D01*
X62650747Y40114360D01*
X62650746Y40114361D01*
X62592355Y40098715D01*
X62592343Y40098710D01*
X62479295Y40033442D01*
X62479291Y40033438D01*
X60570557Y38124705D01*
X60508245Y38090679D01*
X60481462Y38087800D01*
X58270158Y38087800D01*
X58202037Y38107802D01*
X58155544Y38161458D01*
X58145440Y38231732D01*
X58174934Y38296312D01*
X58181063Y38302895D01*
X59959732Y40081565D01*
X59959731Y40081565D01*
X59959738Y40081571D01*
X59959962Y40081959D01*
X60025012Y40194628D01*
X60053212Y40299872D01*
X60058800Y40320726D01*
X60058800Y40451274D01*
X60058800Y44134273D01*
X60058410Y44135727D01*
X60025012Y44260372D01*
X60015405Y44277012D01*
X60005651Y44293906D01*
X59959741Y44373425D01*
X59959737Y44373430D01*
X59923664Y44409503D01*
X59867428Y44465739D01*
X59841035Y44492132D01*
X59807009Y44554444D01*
X59812074Y44625259D01*
X59854621Y44682095D01*
X59863779Y44688341D01*
X59901579Y44711745D01*
X60063286Y44859160D01*
X60195152Y45033779D01*
X60292686Y45229655D01*
X60352568Y45440118D01*
X60365085Y45575200D01*
X60372758Y45657996D01*
X60372758Y45658005D01*
X60360989Y45785001D01*
X60681212Y45785001D01*
X60681213Y45785000D01*
X61243392Y45785000D01*
X61227000Y45723826D01*
X61227000Y45592174D01*
X61243392Y45531000D01*
X60681213Y45531000D01*
X60689037Y45451545D01*
X60749262Y45253008D01*
X60847059Y45070042D01*
X60978672Y44909673D01*
X61139041Y44778060D01*
X61322007Y44680263D01*
X61520544Y44620038D01*
X61599999Y44612213D01*
X61600000Y44612214D01*
X61600000Y45174392D01*
X61661174Y45158000D01*
X61792826Y45158000D01*
X61854000Y45174392D01*
X61854000Y44612213D01*
X61933455Y44620038D01*
X62131992Y44680263D01*
X62314958Y44778060D01*
X62475327Y44909673D01*
X62606940Y45070042D01*
X62704737Y45253008D01*
X62764962Y45451545D01*
X62772787Y45531000D01*
X62210608Y45531000D01*
X62227000Y45592174D01*
X62227000Y45723826D01*
X62210608Y45785000D01*
X62772787Y45785000D01*
X62772787Y45785001D01*
X62764962Y45864456D01*
X62704737Y46062993D01*
X62606940Y46245959D01*
X62475327Y46406328D01*
X62314958Y46537941D01*
X62131993Y46635738D01*
X61933460Y46695961D01*
X61854000Y46703788D01*
X61854000Y46141609D01*
X61792826Y46158000D01*
X61661174Y46158000D01*
X61600000Y46141609D01*
X61600000Y46703788D01*
X61520539Y46695961D01*
X61322006Y46635738D01*
X61139041Y46537941D01*
X60978672Y46406328D01*
X60847059Y46245959D01*
X60749262Y46062993D01*
X60689037Y45864456D01*
X60681212Y45785001D01*
X60360989Y45785001D01*
X60357878Y45818575D01*
X60352568Y45875882D01*
X60292686Y46086345D01*
X60195152Y46282221D01*
X60148620Y46343840D01*
X60063287Y46456840D01*
X59901580Y46604255D01*
X59715544Y46719444D01*
X59715540Y46719446D01*
X59715538Y46719447D01*
X59565804Y46777454D01*
X59511499Y46798492D01*
X59505002Y46799707D01*
X59481251Y46804147D01*
X59417969Y46836324D01*
X59382127Y46897609D01*
X59385108Y46968543D01*
X59425966Y47026605D01*
X59481251Y47051854D01*
X59511498Y47057508D01*
X59715538Y47136553D01*
X59901579Y47251745D01*
X60063286Y47399160D01*
X60086933Y47430473D01*
X60123515Y47478916D01*
X60195152Y47573779D01*
X60292686Y47769655D01*
X60352568Y47980118D01*
X60372758Y48198000D01*
X60372718Y48198427D01*
X60352568Y48415879D01*
X60352568Y48415882D01*
X60292686Y48626345D01*
X60262215Y48687538D01*
X60249756Y48757431D01*
X60277063Y48822967D01*
X60335466Y48863335D01*
X60375006Y48869700D01*
X60681602Y48869700D01*
X60749723Y48849698D01*
G37*
%TD.AperFunction*%
%TA.AperFunction,Conductor*%
G36*
X42345252Y34485227D02*
G01*
X42355088Y34480640D01*
X42403246Y34474300D01*
X42403253Y34474300D01*
X42870200Y34474300D01*
X42938321Y34454298D01*
X42984814Y34400642D01*
X42996200Y34348300D01*
X42996200Y33658726D01*
X43003290Y33632263D01*
X43029985Y33532636D01*
X43029987Y33532631D01*
X43029988Y33532628D01*
X43050636Y33496864D01*
X43050920Y33496373D01*
X43050920Y33496372D01*
X43095258Y33419575D01*
X43095260Y33419573D01*
X43095261Y33419571D01*
X43799261Y32715572D01*
X43891572Y32623261D01*
X43891573Y32623260D01*
X43891575Y32623259D01*
X43974939Y32575129D01*
X44004628Y32557988D01*
X44130726Y32524200D01*
X44130727Y32524200D01*
X55426862Y32524200D01*
X55494983Y32504198D01*
X55515957Y32487295D01*
X57548380Y30454872D01*
X57582406Y30392560D01*
X57577341Y30321745D01*
X57548385Y30276686D01*
X57543559Y30271861D01*
X57450477Y30150555D01*
X57391967Y30009294D01*
X57372009Y29857701D01*
X57372009Y29857700D01*
X57391967Y29706107D01*
X57452329Y29560376D01*
X57461920Y29512159D01*
X57461920Y29378592D01*
X57441918Y29310471D01*
X57388262Y29263978D01*
X57317988Y29253874D01*
X57287704Y29262182D01*
X57243591Y29280454D01*
X57092000Y29300411D01*
X56940406Y29280453D01*
X56799145Y29221943D01*
X56677839Y29128861D01*
X56584757Y29007555D01*
X56526247Y28866294D01*
X56506289Y28714701D01*
X56506289Y28714700D01*
X56526247Y28563107D01*
X56586609Y28417376D01*
X56596200Y28369159D01*
X56596200Y28260769D01*
X56576198Y28192648D01*
X56522542Y28146155D01*
X56452268Y28136051D01*
X56448725Y28136778D01*
X56292000Y28157411D01*
X56140406Y28137453D01*
X55999145Y28078943D01*
X55877839Y27985861D01*
X55784757Y27864555D01*
X55726247Y27723294D01*
X55706289Y27571701D01*
X55706289Y27571700D01*
X55726247Y27420107D01*
X55786609Y27274376D01*
X55796200Y27226159D01*
X55796200Y27117769D01*
X55776198Y27049648D01*
X55722542Y27003155D01*
X55652268Y26993051D01*
X55648725Y26993778D01*
X55492000Y27014411D01*
X55340407Y26994453D01*
X55340406Y26994453D01*
X55332220Y26993375D01*
X55331821Y26996403D01*
X55275397Y26997764D01*
X55216614Y27037577D01*
X55188686Y27102850D01*
X55187800Y27117769D01*
X55187800Y28743693D01*
X55182056Y28765129D01*
X55179306Y28775392D01*
X55154012Y28869792D01*
X55130251Y28910947D01*
X55123906Y28921937D01*
X55088741Y28982845D01*
X55088737Y28982850D01*
X55052457Y29019130D01*
X54996428Y29075159D01*
X54488637Y29582950D01*
X54461323Y29623828D01*
X54400962Y29769554D01*
X54307880Y29890861D01*
X54186575Y29983943D01*
X54045313Y30042453D01*
X53893720Y30062411D01*
X53742126Y30042453D01*
X53600865Y29983943D01*
X53479559Y29890861D01*
X53386477Y29769555D01*
X53327967Y29628294D01*
X53308009Y29476701D01*
X53308009Y29476700D01*
X53327967Y29325107D01*
X53386477Y29183845D01*
X53479559Y29062540D01*
X53600864Y28969458D01*
X53746591Y28909098D01*
X53787469Y28881784D01*
X53917269Y28751984D01*
X53951295Y28689672D01*
X53946230Y28618857D01*
X53903683Y28562021D01*
X53844621Y28537967D01*
X53696406Y28518453D01*
X53555145Y28459943D01*
X53433839Y28366861D01*
X53340757Y28245555D01*
X53282247Y28104294D01*
X53264177Y27967037D01*
X53262289Y27952700D01*
X53263829Y27941000D01*
X53282246Y27801109D01*
X53332147Y27680634D01*
X53339735Y27610045D01*
X53307954Y27546558D01*
X53246896Y27510331D01*
X53199291Y27507496D01*
X53086001Y27522411D01*
X53086000Y27522411D01*
X52934406Y27502453D01*
X52793145Y27443943D01*
X52671839Y27350861D01*
X52578757Y27229555D01*
X52520247Y27088294D01*
X52500289Y26936701D01*
X52500289Y26936700D01*
X52520247Y26785107D01*
X52521921Y26778859D01*
X52520229Y26707883D01*
X52480433Y26649088D01*
X52415167Y26621143D01*
X52383767Y26621330D01*
X52292001Y26633411D01*
X52292000Y26633411D01*
X52140406Y26613453D01*
X51999145Y26554943D01*
X51877839Y26461861D01*
X51784757Y26340555D01*
X51726247Y26199294D01*
X51706289Y26047701D01*
X51706289Y26047700D01*
X51726246Y25896109D01*
X51741422Y25859470D01*
X51749010Y25788880D01*
X51717229Y25725393D01*
X51656170Y25689167D01*
X51585219Y25691703D01*
X51576795Y25694845D01*
X51505313Y25724453D01*
X51353720Y25744411D01*
X51202126Y25724453D01*
X51060865Y25665943D01*
X50939559Y25572861D01*
X50846477Y25451555D01*
X50787967Y25310294D01*
X50768009Y25158701D01*
X50768009Y25158700D01*
X50787966Y25007109D01*
X50787967Y25007107D01*
X50790579Y25000800D01*
X50792937Y24995109D01*
X50800525Y24924519D01*
X50768744Y24861033D01*
X50707686Y24824806D01*
X50636734Y24827342D01*
X50628305Y24830486D01*
X50611844Y24837305D01*
X50570971Y24864617D01*
X49499156Y25936433D01*
X49499150Y25936438D01*
X49499149Y25936439D01*
X49471266Y25952537D01*
X49436909Y25972373D01*
X49436908Y25972373D01*
X49386096Y26001710D01*
X49386094Y26001711D01*
X49386092Y26001712D01*
X49386089Y26001713D01*
X49386084Y26001715D01*
X49320595Y26019263D01*
X49320595Y26019262D01*
X49279885Y26030170D01*
X49259994Y26035500D01*
X49259993Y26035500D01*
X42274994Y26035500D01*
X42144446Y26035500D01*
X42124555Y26030170D01*
X42083845Y26019262D01*
X42083844Y26019263D01*
X42018355Y26001715D01*
X42018343Y26001710D01*
X41935688Y25953988D01*
X41933175Y25952537D01*
X41905293Y25936440D01*
X41905289Y25936437D01*
X41006556Y25037704D01*
X40944244Y25003679D01*
X40917461Y25000800D01*
X40248700Y25000800D01*
X40180579Y25020802D01*
X40134086Y25074458D01*
X40122700Y25126800D01*
X40122700Y25593747D01*
X40122700Y25593754D01*
X40116360Y25641912D01*
X40111773Y25651747D01*
X40101111Y25721937D01*
X40111774Y25758254D01*
X40116360Y25768088D01*
X40116360Y25768090D01*
X40116360Y25768091D01*
X40122700Y25816246D01*
X40122700Y26393754D01*
X40116360Y26441912D01*
X40067073Y26547608D01*
X40067072Y26547609D01*
X40067072Y26547610D01*
X40032105Y26582577D01*
X39998079Y26644889D01*
X39995200Y26671672D01*
X39995200Y26778000D01*
X37488800Y26778000D01*
X37488800Y26671673D01*
X37468798Y26603552D01*
X37451896Y26582579D01*
X37416928Y26547611D01*
X37367639Y26441911D01*
X37361300Y26393759D01*
X37361300Y25816242D01*
X37367639Y25768091D01*
X37367641Y25768084D01*
X37372228Y25758247D01*
X37382887Y25688055D01*
X37372228Y25651753D01*
X37367641Y25641917D01*
X37367639Y25641910D01*
X37361300Y25593759D01*
X37361300Y25126800D01*
X37341298Y25058679D01*
X37287642Y25012186D01*
X37235300Y25000800D01*
X36712557Y25000800D01*
X36644436Y25020802D01*
X36623466Y25037701D01*
X35483429Y26177739D01*
X35483427Y26177740D01*
X35483425Y26177742D01*
X35370373Y26243012D01*
X35370370Y26243013D01*
X35300626Y26261701D01*
X35300625Y26261702D01*
X35240554Y26277798D01*
X35179931Y26314749D01*
X35173204Y26322800D01*
X35095745Y26423745D01*
X35070602Y26443038D01*
X35028735Y26500374D01*
X35024513Y26571245D01*
X35059276Y26633149D01*
X35070603Y26642963D01*
X35078586Y26649088D01*
X35095745Y26662255D01*
X35102972Y26671673D01*
X35170675Y26759904D01*
X35228013Y26801771D01*
X35270637Y26809200D01*
X35752273Y26809200D01*
X35752274Y26809200D01*
X35815322Y26826094D01*
X35815324Y26826094D01*
X35878357Y26842984D01*
X35878372Y26842988D01*
X35939035Y26878012D01*
X35991429Y26908261D01*
X36518153Y27434986D01*
X37488800Y27434986D01*
X37500590Y27375713D01*
X37500591Y27375711D01*
X37501068Y27374997D01*
X37501629Y27373205D01*
X37505339Y27364248D01*
X37504537Y27363916D01*
X37522280Y27307244D01*
X37503494Y27238778D01*
X37501068Y27235003D01*
X37500591Y27234290D01*
X37500590Y27234288D01*
X37488800Y27175015D01*
X37488800Y27032000D01*
X38615000Y27032000D01*
X38869000Y27032000D01*
X39995200Y27032000D01*
X39995200Y27175010D01*
X39995199Y27175015D01*
X39983410Y27234285D01*
X39982935Y27234996D01*
X39982373Y27236789D01*
X39978661Y27245752D01*
X39979462Y27246085D01*
X39961719Y27302748D01*
X39980501Y27371216D01*
X39982935Y27375004D01*
X39983410Y27375716D01*
X39995199Y27434986D01*
X39995200Y27434991D01*
X39995200Y27578000D01*
X38869000Y27578000D01*
X38869000Y27032000D01*
X38615000Y27032000D01*
X38615000Y27578000D01*
X37488800Y27578000D01*
X37488800Y27434986D01*
X36518153Y27434986D01*
X37055463Y27972297D01*
X37117774Y28006320D01*
X37144557Y28009200D01*
X37362800Y28009200D01*
X37430921Y27989198D01*
X37477414Y27935542D01*
X37488800Y27883200D01*
X37488800Y27832000D01*
X39995200Y27832000D01*
X39995200Y27938329D01*
X40015202Y28006450D01*
X40032106Y28027425D01*
X40067072Y28062391D01*
X40067073Y28062392D01*
X40116360Y28168088D01*
X40122700Y28216246D01*
X40122700Y28793754D01*
X40116360Y28841912D01*
X40115858Y28842988D01*
X40113330Y28848408D01*
X40111773Y28851747D01*
X40101111Y28921937D01*
X40111774Y28958254D01*
X40116360Y28968088D01*
X40116360Y28968090D01*
X40116540Y28969459D01*
X40122700Y29016246D01*
X40122700Y29593754D01*
X40116360Y29641912D01*
X40116270Y29642104D01*
X40111774Y29651746D01*
X40101111Y29721937D01*
X40111774Y29758254D01*
X40112649Y29760129D01*
X40116360Y29768088D01*
X40122700Y29816246D01*
X40122700Y30393754D01*
X40116360Y30441912D01*
X40111773Y30451747D01*
X40101111Y30521937D01*
X40111774Y30558254D01*
X40116360Y30568088D01*
X40116360Y30568090D01*
X40116360Y30568091D01*
X40122700Y30616246D01*
X40122700Y31083200D01*
X40142702Y31151321D01*
X40196358Y31197814D01*
X40248700Y31209200D01*
X40439293Y31209200D01*
X40439294Y31209200D01*
X40502342Y31226094D01*
X40502344Y31226094D01*
X40544375Y31237357D01*
X40565392Y31242988D01*
X40667152Y31301739D01*
X40678449Y31308261D01*
X41209458Y31839271D01*
X41220517Y31858426D01*
X41229489Y31873963D01*
X41259650Y31926206D01*
X41274732Y31952328D01*
X41285832Y31993754D01*
X41308520Y32078426D01*
X41308520Y32208973D01*
X41308520Y33732973D01*
X41274732Y33859072D01*
X41218607Y33956284D01*
X41209461Y33972125D01*
X41209457Y33972130D01*
X41169887Y34011700D01*
X41117148Y34064439D01*
X41117146Y34064441D01*
X41117145Y34064443D01*
X40922383Y34259205D01*
X40888357Y34321517D01*
X40893422Y34392332D01*
X40935969Y34449168D01*
X41002489Y34473979D01*
X41011478Y34474300D01*
X41380747Y34474300D01*
X41380754Y34474300D01*
X41428912Y34480640D01*
X41438746Y34485227D01*
X41508937Y34495889D01*
X41545252Y34485227D01*
X41555088Y34480640D01*
X41603246Y34474300D01*
X41603253Y34474300D01*
X42180747Y34474300D01*
X42180754Y34474300D01*
X42228912Y34480640D01*
X42238746Y34485227D01*
X42308937Y34495889D01*
X42345252Y34485227D01*
G37*
%TD.AperFunction*%
%TA.AperFunction,Conductor*%
G36*
X51207586Y49539698D02*
G01*
X51254079Y49486042D01*
X51264183Y49415768D01*
X51234689Y49351188D01*
X51184982Y49316209D01*
X51038462Y49259447D01*
X51038461Y49259447D01*
X51038460Y49259446D01*
X51038455Y49259444D01*
X50852419Y49144255D01*
X50690712Y48996840D01*
X50558850Y48822225D01*
X50558848Y48822222D01*
X50558848Y48822221D01*
X50540792Y48785959D01*
X50461314Y48626345D01*
X50461312Y48626340D01*
X50401431Y48415879D01*
X50381242Y48198005D01*
X50381242Y48197996D01*
X50401431Y47980120D01*
X50435772Y47859422D01*
X50435175Y47788428D01*
X50403677Y47735846D01*
X50022911Y47355080D01*
X49960599Y47321054D01*
X49911974Y47324532D01*
X49919034Y47297870D01*
X49898719Y47234966D01*
X49899389Y47234579D01*
X49897587Y47231458D01*
X49897216Y47230309D01*
X49895766Y47228306D01*
X49881140Y47202973D01*
X49881141Y47202972D01*
X49829989Y47114375D01*
X49829987Y47114370D01*
X49811272Y47044522D01*
X49798880Y46998273D01*
X49796200Y46988272D01*
X49796200Y46651284D01*
X49776198Y46583163D01*
X49722542Y46536670D01*
X49652268Y46526566D01*
X49610804Y46540162D01*
X49431993Y46635738D01*
X49233460Y46695961D01*
X49154000Y46703788D01*
X49154000Y46141609D01*
X49092826Y46158000D01*
X48961174Y46158000D01*
X48900000Y46141609D01*
X48900000Y46703788D01*
X48820539Y46695961D01*
X48622006Y46635738D01*
X48439041Y46537941D01*
X48278672Y46406328D01*
X48147059Y46245959D01*
X48049262Y46062993D01*
X47989037Y45864456D01*
X47981212Y45785001D01*
X47981213Y45785000D01*
X48543392Y45785000D01*
X48527000Y45723826D01*
X48527000Y45592174D01*
X48543392Y45531000D01*
X47981213Y45531000D01*
X47989037Y45451545D01*
X48049262Y45253008D01*
X48147059Y45070042D01*
X48217590Y44984100D01*
X48245344Y44918753D01*
X48236398Y44866511D01*
X48264176Y44876871D01*
X48333550Y44861780D01*
X48353099Y44848591D01*
X48439041Y44778060D01*
X48622007Y44680263D01*
X48820544Y44620038D01*
X48899999Y44612213D01*
X48900000Y44612214D01*
X48900000Y45174392D01*
X48961174Y45158000D01*
X49092826Y45158000D01*
X49154000Y45174392D01*
X49154000Y44612213D01*
X49233459Y44620038D01*
X49326863Y44648372D01*
X49397856Y44649006D01*
X49457923Y44611157D01*
X49487991Y44546842D01*
X49478515Y44476481D01*
X49452535Y44438703D01*
X48716893Y43703062D01*
X48654583Y43669038D01*
X48583768Y43674102D01*
X48526932Y43716649D01*
X48502121Y43783169D01*
X48501800Y43792158D01*
X48501800Y44204271D01*
X48501799Y44204276D01*
X48499798Y44211743D01*
X48499797Y44211747D01*
X48491642Y44242181D01*
X48468012Y44330372D01*
X48449984Y44361598D01*
X48402739Y44443428D01*
X48310428Y44535739D01*
X48184070Y44662097D01*
X48150044Y44724409D01*
X48154607Y44788217D01*
X48116818Y44778211D01*
X48049257Y44800030D01*
X48031096Y44815071D01*
X47650321Y45195846D01*
X47616295Y45258158D01*
X47618225Y45319420D01*
X47652568Y45440118D01*
X47652675Y45441267D01*
X47672758Y45657996D01*
X47672758Y45658005D01*
X47657878Y45818575D01*
X47652568Y45875882D01*
X47592686Y46086345D01*
X47495152Y46282221D01*
X47448620Y46343840D01*
X47363287Y46456840D01*
X47201580Y46604255D01*
X47015544Y46719444D01*
X47015540Y46719446D01*
X47015538Y46719447D01*
X46865804Y46777454D01*
X46811499Y46798492D01*
X46805002Y46799707D01*
X46781251Y46804147D01*
X46717969Y46836324D01*
X46682127Y46897609D01*
X46685108Y46968543D01*
X46725966Y47026605D01*
X46781251Y47051854D01*
X46811498Y47057508D01*
X47015538Y47136553D01*
X47201579Y47251745D01*
X47363286Y47399160D01*
X47386933Y47430473D01*
X47423515Y47478916D01*
X47495152Y47573779D01*
X47592686Y47769655D01*
X47652568Y47980118D01*
X47672758Y48198000D01*
X47672718Y48198427D01*
X47660989Y48325001D01*
X47981212Y48325001D01*
X47981213Y48325000D01*
X48543392Y48325000D01*
X48527000Y48263826D01*
X48527000Y48132174D01*
X48543392Y48071000D01*
X47981213Y48071000D01*
X47989037Y47991545D01*
X48049262Y47793008D01*
X48147059Y47610042D01*
X48278672Y47449673D01*
X48439041Y47318060D01*
X48622007Y47220263D01*
X48820544Y47160038D01*
X48899999Y47152213D01*
X48900000Y47152214D01*
X48900000Y47714392D01*
X48961174Y47698000D01*
X49092826Y47698000D01*
X49154000Y47714392D01*
X49154000Y47152213D01*
X49233455Y47160038D01*
X49431992Y47220263D01*
X49614958Y47318060D01*
X49713144Y47398640D01*
X49778491Y47426395D01*
X49813661Y47420374D01*
X49808137Y47435186D01*
X49823228Y47504560D01*
X49836417Y47524109D01*
X49906940Y47610042D01*
X50004737Y47793008D01*
X50064962Y47991545D01*
X50072787Y48071000D01*
X49510608Y48071000D01*
X49527000Y48132174D01*
X49527000Y48263826D01*
X49510608Y48325000D01*
X50072787Y48325000D01*
X50072787Y48325001D01*
X50064962Y48404456D01*
X50004737Y48602993D01*
X49906940Y48785959D01*
X49775327Y48946328D01*
X49614958Y49077941D01*
X49431993Y49175738D01*
X49233460Y49235961D01*
X49154000Y49243788D01*
X49154000Y48681609D01*
X49092826Y48698000D01*
X48961174Y48698000D01*
X48900000Y48681609D01*
X48900000Y49243788D01*
X48820539Y49235961D01*
X48622006Y49175738D01*
X48439041Y49077941D01*
X48278672Y48946328D01*
X48147059Y48785959D01*
X48049262Y48602993D01*
X47989037Y48404456D01*
X47981212Y48325001D01*
X47660989Y48325001D01*
X47652568Y48415879D01*
X47652568Y48415882D01*
X47592686Y48626345D01*
X47495152Y48822221D01*
X47485935Y48834426D01*
X47363287Y48996840D01*
X47201580Y49144255D01*
X47015544Y49259444D01*
X47015540Y49259446D01*
X47015538Y49259447D01*
X46869017Y49316209D01*
X46812723Y49359468D01*
X46788753Y49426295D01*
X46804717Y49495474D01*
X46855548Y49545040D01*
X46914535Y49559700D01*
X51139465Y49559700D01*
X51207586Y49539698D01*
G37*
%TD.AperFunction*%
%TA.AperFunction,Conductor*%
G36*
X46127586Y49539698D02*
G01*
X46174079Y49486042D01*
X46184183Y49415768D01*
X46154689Y49351188D01*
X46104982Y49316209D01*
X45958462Y49259447D01*
X45958461Y49259447D01*
X45958460Y49259446D01*
X45958455Y49259444D01*
X45772419Y49144255D01*
X45610712Y48996840D01*
X45478850Y48822225D01*
X45478848Y48822222D01*
X45478848Y48822221D01*
X45460792Y48785959D01*
X45381314Y48626345D01*
X45381312Y48626340D01*
X45321431Y48415879D01*
X45301242Y48198005D01*
X45301242Y48197996D01*
X45321431Y47980122D01*
X45375972Y47788428D01*
X45381314Y47769655D01*
X45478848Y47573779D01*
X45478849Y47573778D01*
X45478850Y47573776D01*
X45610712Y47399161D01*
X45772419Y47251746D01*
X45958455Y47136557D01*
X45958456Y47136557D01*
X45958462Y47136553D01*
X46162502Y47057508D01*
X46162505Y47057507D01*
X46192745Y47051854D01*
X46256030Y47019675D01*
X46291872Y46958390D01*
X46288891Y46887456D01*
X46248033Y46829395D01*
X46192745Y46804146D01*
X46162505Y46798494D01*
X46055106Y46756887D01*
X45958462Y46719447D01*
X45958461Y46719447D01*
X45958460Y46719446D01*
X45958455Y46719444D01*
X45772419Y46604255D01*
X45610712Y46456840D01*
X45478850Y46282225D01*
X45381314Y46086345D01*
X45381312Y46086340D01*
X45338189Y45934780D01*
X45300308Y45874733D01*
X45235977Y45844699D01*
X45165621Y45854213D01*
X45111577Y45900254D01*
X45095811Y45934777D01*
X45052686Y46086345D01*
X44955152Y46282221D01*
X44908620Y46343840D01*
X44823287Y46456840D01*
X44661580Y46604255D01*
X44475544Y46719444D01*
X44475540Y46719446D01*
X44475538Y46719447D01*
X44325804Y46777454D01*
X44271499Y46798492D01*
X44056408Y46838700D01*
X43837592Y46838700D01*
X43837591Y46838700D01*
X43622500Y46798492D01*
X43515114Y46756890D01*
X43418462Y46719447D01*
X43418461Y46719447D01*
X43418460Y46719446D01*
X43418453Y46719443D01*
X43360129Y46683330D01*
X43291682Y46664476D01*
X43223907Y46685620D01*
X43178323Y46740050D01*
X43167800Y46790458D01*
X43167800Y46998272D01*
X43166306Y47003849D01*
X43134012Y47124372D01*
X43068739Y47237428D01*
X43065089Y47243750D01*
X43048351Y47312745D01*
X43051596Y47322124D01*
X43036818Y47318211D01*
X42969257Y47340030D01*
X42951096Y47355071D01*
X42570321Y47735846D01*
X42536295Y47798158D01*
X42538225Y47859420D01*
X42572568Y47980118D01*
X42572675Y47981267D01*
X42592758Y48197996D01*
X42592758Y48198005D01*
X42580990Y48325001D01*
X42901212Y48325001D01*
X42901213Y48325000D01*
X43463392Y48325000D01*
X43447000Y48263826D01*
X43447000Y48132174D01*
X43463392Y48071000D01*
X42901213Y48071000D01*
X42909037Y47991545D01*
X42969262Y47793008D01*
X43067059Y47610042D01*
X43137590Y47524100D01*
X43165344Y47458753D01*
X43159877Y47426828D01*
X43198054Y47430473D01*
X43254142Y47404149D01*
X43359041Y47318060D01*
X43542007Y47220263D01*
X43740544Y47160038D01*
X43819999Y47152213D01*
X43820000Y47152214D01*
X43820000Y47714392D01*
X43881174Y47698000D01*
X44012826Y47698000D01*
X44074000Y47714392D01*
X44074000Y47152213D01*
X44153455Y47160038D01*
X44351992Y47220263D01*
X44534958Y47318060D01*
X44695327Y47449673D01*
X44826940Y47610042D01*
X44924737Y47793008D01*
X44984962Y47991545D01*
X44992787Y48071000D01*
X44430608Y48071000D01*
X44447000Y48132174D01*
X44447000Y48263826D01*
X44430608Y48325000D01*
X44992787Y48325000D01*
X44992787Y48325001D01*
X44984962Y48404456D01*
X44924737Y48602993D01*
X44826940Y48785959D01*
X44695327Y48946328D01*
X44534958Y49077941D01*
X44351993Y49175738D01*
X44153460Y49235961D01*
X44074000Y49243788D01*
X44074000Y48681609D01*
X44012826Y48698000D01*
X43881174Y48698000D01*
X43820000Y48681609D01*
X43820000Y49243788D01*
X43740539Y49235961D01*
X43542006Y49175738D01*
X43359041Y49077941D01*
X43198672Y48946328D01*
X43067059Y48785959D01*
X42969262Y48602993D01*
X42909037Y48404456D01*
X42901212Y48325001D01*
X42580990Y48325001D01*
X42572568Y48415879D01*
X42572568Y48415882D01*
X42512686Y48626345D01*
X42415152Y48822221D01*
X42405935Y48834426D01*
X42283287Y48996840D01*
X42121580Y49144255D01*
X41935544Y49259444D01*
X41935540Y49259446D01*
X41935538Y49259447D01*
X41789017Y49316209D01*
X41732723Y49359468D01*
X41708753Y49426295D01*
X41724717Y49495474D01*
X41775548Y49545040D01*
X41834535Y49559700D01*
X46059465Y49559700D01*
X46127586Y49539698D01*
G37*
%TD.AperFunction*%
%TD*%
M02*
