%TF.GenerationSoftware,KiCad,Pcbnew,8.0.4*%
%TF.CreationDate,2024-08-16T16:49:31-07:00*%
%TF.ProjectId,SEWER,53455745-522e-46b6-9963-61645f706362,0*%
%TF.SameCoordinates,Original*%
%TF.FileFunction,Soldermask,Bot*%
%TF.FilePolarity,Negative*%
%FSLAX46Y46*%
G04 Gerber Fmt 4.6, Leading zero omitted, Abs format (unit mm)*
G04 Created by KiCad (PCBNEW 8.0.4) date 2024-08-16 16:49:31*
%MOMM*%
%LPD*%
G01*
G04 APERTURE LIST*
G04 Aperture macros list*
%AMRoundRect*
0 Rectangle with rounded corners*
0 $1 Rounding radius*
0 $2 $3 $4 $5 $6 $7 $8 $9 X,Y pos of 4 corners*
0 Add a 4 corners polygon primitive as box body*
4,1,4,$2,$3,$4,$5,$6,$7,$8,$9,$2,$3,0*
0 Add four circle primitives for the rounded corners*
1,1,$1+$1,$2,$3*
1,1,$1+$1,$4,$5*
1,1,$1+$1,$6,$7*
1,1,$1+$1,$8,$9*
0 Add four rect primitives between the rounded corners*
20,1,$1+$1,$2,$3,$4,$5,0*
20,1,$1+$1,$4,$5,$6,$7,0*
20,1,$1+$1,$6,$7,$8,$9,0*
20,1,$1+$1,$8,$9,$2,$3,0*%
G04 Aperture macros list end*
%ADD10C,3.302000*%
%ADD11C,2.802000*%
%ADD12RoundRect,0.051000X-0.850000X0.850000X-0.850000X-0.850000X0.850000X-0.850000X0.850000X0.850000X0*%
%ADD13O,1.802000X1.802000*%
%ADD14RoundRect,0.051000X0.850000X-0.850000X0.850000X0.850000X-0.850000X0.850000X-0.850000X-0.850000X0*%
%ADD15RoundRect,0.051000X-0.850000X-0.850000X0.850000X-0.850000X0.850000X0.850000X-0.850000X0.850000X0*%
%ADD16C,1.854000*%
G04 APERTURE END LIST*
D10*
%TO.C,H1*%
X5024120Y33134300D03*
%TD*%
D11*
%TO.C,H3*%
X94886520Y46863000D03*
%TD*%
%TO.C,H4*%
X96918520Y12331700D03*
%TD*%
%TO.C,H5*%
X2992120Y12331700D03*
%TD*%
D12*
%TO.C,J204*%
X15702520Y37990700D03*
D13*
X15702520Y35450700D03*
X13162520Y37990700D03*
X13162520Y35450700D03*
X10622520Y37990700D03*
X10622520Y35450700D03*
%TD*%
D14*
%TO.C,J601*%
X67487720Y43765700D03*
D13*
X67487720Y46305700D03*
X70027720Y43765700D03*
X70027720Y46305700D03*
X72567720Y43765700D03*
X72567720Y46305700D03*
X75107720Y43765700D03*
X75107720Y46305700D03*
X77647720Y43765700D03*
X77647720Y46305700D03*
X80187720Y43765700D03*
X80187720Y46305700D03*
X82727720Y43765700D03*
X82727720Y46305700D03*
X85267720Y43765700D03*
X85267720Y46305700D03*
X87807720Y43765700D03*
X87807720Y46305700D03*
X90347720Y43765700D03*
X90347720Y46305700D03*
%TD*%
D11*
%TO.C,H2*%
X16276320Y46863000D03*
%TD*%
D15*
%TO.C,J203*%
X89067720Y17020700D03*
D13*
X91607720Y17020700D03*
X89067720Y14480700D03*
X91607720Y14480700D03*
X89067720Y11940700D03*
X91607720Y11940700D03*
X89067720Y9400700D03*
X91607720Y9400700D03*
%TD*%
D12*
%TO.C,J201*%
X1803400Y1752600D03*
D13*
X4343400Y1752600D03*
X6883400Y1752600D03*
X9423400Y1752600D03*
X11963400Y1752600D03*
X14503400Y1752600D03*
X17043400Y1752600D03*
X19583400Y1752600D03*
X22123400Y1752600D03*
X24663400Y1752600D03*
X27203400Y1752600D03*
X29743400Y1752600D03*
X32283400Y1752600D03*
X34823400Y1752600D03*
X37363400Y1752600D03*
X39903400Y1752600D03*
X42443400Y1752600D03*
X44983400Y1752600D03*
X47523400Y1752600D03*
X50063400Y1752600D03*
X52603400Y1752600D03*
X55143400Y1752600D03*
X57683400Y1752600D03*
X60223400Y1752600D03*
X62763400Y1752600D03*
X65303400Y1752600D03*
X67843400Y1752600D03*
X70383400Y1752600D03*
X72923400Y1752600D03*
X75463400Y1752600D03*
X78003400Y1752600D03*
X80543400Y1752600D03*
X83083400Y1752600D03*
X85623400Y1752600D03*
X88163400Y1752600D03*
X90703400Y1752600D03*
X93243400Y1752600D03*
X95783400Y1752600D03*
X98323400Y1752600D03*
X100863400Y1752600D03*
X1803400Y4292600D03*
X4343400Y4292600D03*
X6883400Y4292600D03*
X9423400Y4292600D03*
X11963400Y4292600D03*
X14503400Y4292600D03*
X17043400Y4292600D03*
X19583400Y4292600D03*
X22123400Y4292600D03*
X24663400Y4292600D03*
X27203400Y4292600D03*
X29743400Y4292600D03*
X32283400Y4292600D03*
X34823400Y4292600D03*
X37363400Y4292600D03*
X39903400Y4292600D03*
X42443400Y4292600D03*
X44983400Y4292600D03*
X47523400Y4292600D03*
X50063400Y4292600D03*
X52603400Y4292600D03*
X55143400Y4292600D03*
X57683400Y4292600D03*
X60223400Y4292600D03*
X62763400Y4292600D03*
X65303400Y4292600D03*
X67843400Y4292600D03*
X70383400Y4292600D03*
X72923400Y4292600D03*
X75463400Y4292600D03*
X78003400Y4292600D03*
X80543400Y4292600D03*
X83083400Y4292600D03*
X85623400Y4292600D03*
X88163400Y4292600D03*
X90703400Y4292600D03*
X93243400Y4292600D03*
X95783400Y4292600D03*
X98323400Y4292600D03*
X100863400Y4292600D03*
%TD*%
D15*
%TO.C,J202*%
X81442720Y17010700D03*
D13*
X83982720Y17010700D03*
X81442720Y14470700D03*
X83982720Y14470700D03*
X81442720Y11930700D03*
X83982720Y11930700D03*
X81442720Y9390700D03*
X83982720Y9390700D03*
%TD*%
D16*
%TO.C,J301*%
X25064720Y43065700D03*
X25064720Y45605700D03*
X27604720Y43065700D03*
X27604720Y45605700D03*
X30144720Y43065700D03*
X30144720Y45605700D03*
%TD*%
M02*
