M48
; DRILL file {KiCad 8.0.4} date 2024-08-16T16:49:31-0700
; FORMAT={-:-/ absolute / inch / decimal}
; #@! TF.CreationDate,2024-08-16T16:49:31-07:00
; #@! TF.GenerationSoftware,Kicad,Pcbnew,8.0.4
; #@! TF.FileFunction,Plated,1,4,PTH
FMAT,2
INCH
; #@! TA.AperFunction,Plated,PTH,ViaDrill
T1C0.0118
; #@! TA.AperFunction,Plated,PTH,ViaDrill
T2C0.0157
; #@! TA.AperFunction,Plated,PTH,ComponentDrill
T3C0.0394
; #@! TA.AperFunction,Plated,PTH,ComponentDrill
T4C0.0433
%
G90
G05
T1
X0.0468Y1.3605
X0.0468Y1.1855
X0.0468Y1.0855
X0.0468Y0.9855
X0.0468Y0.8855
X0.0468Y0.7855
X0.0468Y0.6855
X0.0468Y0.5855
X0.0468Y0.3855
X0.0468Y0.2855
X0.1718Y1.4605
X0.2718Y1.5605
X0.3318Y0.4255
X0.3718Y1.6605
X0.4318Y0.4005
X0.4718Y1.7605
X0.4868Y0.4555
X0.5168Y0.4955
X0.5708Y0.6255
X0.5718Y1.1905
X0.5868Y0.5855
X0.5968Y0.3355
X0.6168Y0.6555
X0.6468Y0.7305
X0.6468Y0.2955
X0.6568Y0.6855
X0.6968Y0.7605
X0.7368Y0.8505
X0.7568Y1.0105
X0.7768Y0.9455
X0.7818Y0.2605
X0.8268Y1.0555
X0.8468Y1.9105
X0.8718Y1.3055
X0.8718Y1.1455
X0.9118Y1.2355
X0.9218Y0.5605
X0.9468Y1.9105
X0.9518Y1.3205
X0.9718Y0.6655
X0.9968Y1.4205
X1.0218Y0.7705
X1.0318Y1.4555
X1.0468Y1.9105
X1.0618Y1.4955
X1.0718Y0.8655
X1.0918Y1.5455
X1.1218Y0.9255
X1.1418Y1.5755
X1.1468Y1.9105
X1.1668Y1.4205
X1.1718Y1.0105
X1.2218Y1.0655
X1.2368Y1.4205
X1.2468Y1.9105
X1.2818Y0.7005
X1.2868Y0.7905
X1.2918Y0.8355
X1.3018Y0.7455
X1.3018Y0.5655
X1.3468Y1.9105
X1.4318Y1.0355
X1.4318Y0.8055
X1.4468Y1.9105
X1.4468Y1.3555
X1.4468Y1.1755
X1.4568Y0.9655
X1.4718Y1.5505
X1.4768Y1.4705
X1.4768Y1.3955
X1.4768Y1.3155
X1.4768Y1.2355
X1.4768Y1.1955
X1.4768Y1.0005
X1.4785Y1.0772
X1.5268Y1.5505
X1.5468Y1.9105
X1.5768Y1.4905
X1.5768Y1.3355
X1.5768Y1.1755
X1.5768Y1.0155
X1.5768Y0.9605
X1.6018Y1.6555
X1.6168Y1.4505
X1.6168Y1.3705
X1.6168Y1.2955
X1.6168Y1.2155
X1.6168Y1.1355
X1.6168Y1.0555
X1.6418Y0.8855
X1.6418Y0.7255
X1.6468Y1.9105
X1.6768Y0.8605
X1.7018Y0.8105
X1.7218Y0.8605
X1.7418Y0.8105
X1.7468Y1.9105
X1.7608Y1.6515
X1.7618Y0.7205
X1.8218Y0.8655
X1.8418Y0.7205
X1.8468Y1.9105
X1.8568Y1.6515
X1.8668Y0.5405
X1.8768Y0.4755
X1.9268Y0.5405
X1.9468Y1.9105
X1.9748Y1.5555
X1.9768Y0.6755
X1.9868Y0.5405
X1.9968Y1.6535
X1.9968Y0.8605
X2.0118Y0.3455
X2.0418Y0.4105
X2.0468Y1.9105
X2.0468Y0.5405
X2.0518Y0.8805
X2.0568Y0.6755
X2.0568Y0.3455
X2.0968Y0.8605
X2.1068Y0.5455
X2.1218Y1.5205
X2.1468Y1.9105
X2.1568Y0.7205
X2.1668Y0.5405
X2.1918Y0.8105
X2.2268Y0.2805
X2.2318Y0.8105
X2.2468Y1.9355
X2.2718Y1.5605
X2.2768Y0.5405
X2.2918Y1.8305
X2.3018Y1.6605
X2.3168Y1.4105
X2.3168Y1.2105
X2.3368Y0.5405
X2.3468Y1.9355
X2.3918Y1.7555
X2.4118Y1.1755
X2.4168Y1.3655
X2.4468Y1.9355
X2.4718Y0.5555
X2.4968Y0.2605
X2.5118Y0.5055
X2.5468Y1.9355
X2.5468Y0.4655
X2.5818Y0.4255
X2.5918Y1.5105
X2.5918Y1.4405
X2.5918Y1.3705
X2.5918Y1.0855
X2.6168Y0.3805
X2.6468Y1.9355
X2.6518Y0.3405
X2.6668Y1.3005
X2.6868Y0.2805
X2.7318Y1.5405
X2.7468Y1.9355
X2.7568Y0.7755
X2.7868Y1.6055
X2.7868Y1.4605
X2.8468Y1.9355
X2.8468Y1.6055
X2.8468Y1.4605
X2.8468Y1.3855
X2.8468Y0.8555
X2.8868Y0.8805
X2.9068Y1.6055
X2.9068Y1.4605
X2.9318Y1.1905
X2.9468Y1.9355
X2.9668Y1.6055
X2.9668Y1.4605
X3.0068Y0.9105
X3.0268Y1.6055
X3.0268Y1.4605
X3.0468Y1.9355
X3.0568Y1.2305
X3.0868Y1.6055
X3.0868Y1.4605
X3.1118Y1.4055
X3.1468Y1.9355
X3.1468Y1.6055
X3.1468Y1.4605
X3.1568Y1.4155
X3.2068Y1.4605
X3.2368Y1.3005
X3.2468Y1.9355
X3.2668Y1.4605
X3.3268Y1.4605
X3.3468Y1.9355
X3.3568Y1.4105
X3.3868Y1.6055
X3.3868Y1.4605
X3.4388Y1.3535
X3.4418Y1.6055
X3.4468Y1.9355
X3.4468Y1.4605
X3.4718Y0.7405
X3.4918Y1.6455
X3.5068Y1.5005
X3.5118Y1.3855
X3.5468Y1.9355
X3.5668Y1.5005
X3.6268Y1.6455
X3.6268Y1.5005
X3.6468Y1.9355
X3.8968Y1.8105
X3.8968Y1.7105
X3.8968Y1.6405
X3.8968Y1.5105
X3.8968Y0.6355
X3.8968Y0.3555
T2
X0.0818Y0.7605
X0.1318Y0.8255
X0.1318Y0.6955
X0.1868Y0.9455
X0.1868Y0.8905
X0.2218Y0.8255
X0.2568Y0.9455
X0.2568Y0.8905
X0.2968Y0.6905
X0.3368Y0.6905
X0.3668Y0.9855
X0.3668Y0.9255
X0.3668Y0.8455
X0.3718Y0.7205
X0.4018Y1.0205
X0.4068Y0.8855
X0.4068Y0.7505
X0.4268Y0.2805
X0.4618Y1.0205
X0.4618Y0.8855
X0.4668Y0.7505
X0.5018Y0.8455
X0.5218Y1.0205
X0.5568Y0.9855
X0.5568Y0.9255
X0.7168Y1.6955
X0.7168Y1.5655
X1.3018Y1.4255
X1.3018Y1.2655
X1.3018Y1.1055
X1.3018Y0.9255
X1.4318Y1.4255
X1.4318Y1.2655
X1.4318Y1.1055
X1.4318Y0.9255
X1.5568Y0.6705
X1.5568Y0.5405
X1.5768Y1.4105
X1.5768Y1.2555
X1.5768Y1.0955
X1.5768Y0.9205
X1.6018Y1.8305
X1.6168Y0.6705
X1.6168Y0.5405
X1.6218Y0.8155
X1.6768Y0.2405
X1.7368Y0.2405
X1.7868Y0.8255
X1.8018Y1.5555
X1.8068Y1.8305
X1.8068Y1.7005
X1.8335Y0.8255
X1.9668Y1.8305
X1.9668Y1.7005
X2.0168Y1.5555
X2.0218Y0.8255
X2.0268Y1.8305
X2.0268Y1.7005
X2.0468Y0.4705
X2.0668Y0.8255
X2.1068Y0.4705
X2.1468Y0.8205
X2.2118Y1.5555
X2.2318Y1.8305
X2.2318Y1.7005
X2.3161Y1.0056
X2.3168Y1.3555
X2.3168Y1.1555
X2.3168Y0.7655
X2.3668Y1.5555
X2.4268Y1.0555
X2.4618Y1.3105
X2.4618Y1.2055
X2.4618Y1.1455
X2.4618Y1.0155
X2.4668Y0.8155
X2.4868Y1.8305
X2.4868Y1.7005
X2.5468Y1.8305
X2.5468Y1.7005
X2.5918Y1.3105
X2.5918Y1.2055
X2.5918Y1.1455
X2.5918Y1.0055
X2.5918Y0.7855
X3.2368Y0.2705
X3.6868Y1.6305
X3.6868Y1.5005
X3.8568Y1.4055
X3.8568Y0.8005
T3
X0.071Y0.169
X0.071Y0.069
X0.171Y0.169
X0.171Y0.069
X0.271Y0.169
X0.271Y0.069
X0.371Y0.169
X0.371Y0.069
X0.4182Y1.4957
X0.4182Y1.3957
X0.471Y0.169
X0.471Y0.069
X0.5182Y1.4957
X0.5182Y1.3957
X0.571Y0.169
X0.571Y0.069
X0.6182Y1.4957
X0.6182Y1.3957
X0.671Y0.169
X0.671Y0.069
X0.771Y0.169
X0.771Y0.069
X0.871Y0.169
X0.871Y0.069
X0.971Y0.169
X0.971Y0.069
X1.071Y0.169
X1.071Y0.069
X1.171Y0.169
X1.171Y0.069
X1.271Y0.169
X1.271Y0.069
X1.371Y0.169
X1.371Y0.069
X1.471Y0.169
X1.471Y0.069
X1.571Y0.169
X1.571Y0.069
X1.671Y0.169
X1.671Y0.069
X1.771Y0.169
X1.771Y0.069
X1.871Y0.169
X1.871Y0.069
X1.971Y0.169
X1.971Y0.069
X2.071Y0.169
X2.071Y0.069
X2.171Y0.169
X2.171Y0.069
X2.271Y0.169
X2.271Y0.069
X2.371Y0.169
X2.371Y0.069
X2.471Y0.169
X2.471Y0.069
X2.571Y0.169
X2.571Y0.069
X2.657Y1.8231
X2.657Y1.7231
X2.671Y0.169
X2.671Y0.069
X2.757Y1.8231
X2.757Y1.7231
X2.771Y0.169
X2.771Y0.069
X2.857Y1.8231
X2.857Y1.7231
X2.871Y0.169
X2.871Y0.069
X2.957Y1.8231
X2.957Y1.7231
X2.971Y0.169
X2.971Y0.069
X3.057Y1.8231
X3.057Y1.7231
X3.071Y0.169
X3.071Y0.069
X3.157Y1.8231
X3.157Y1.7231
X3.171Y0.169
X3.171Y0.069
X3.2064Y0.6697
X3.2064Y0.5697
X3.2064Y0.4697
X3.2064Y0.3697
X3.257Y1.8231
X3.257Y1.7231
X3.271Y0.169
X3.271Y0.069
X3.3064Y0.6697
X3.3064Y0.5697
X3.3064Y0.4697
X3.3064Y0.3697
X3.357Y1.8231
X3.357Y1.7231
X3.371Y0.169
X3.371Y0.069
X3.457Y1.8231
X3.457Y1.7231
X3.471Y0.169
X3.471Y0.069
X3.5066Y0.6701
X3.5066Y0.5701
X3.5066Y0.4701
X3.5066Y0.3701
X3.557Y1.8231
X3.557Y1.7231
X3.571Y0.169
X3.571Y0.069
X3.6066Y0.6701
X3.6066Y0.5701
X3.6066Y0.4701
X3.6066Y0.3701
X3.671Y0.169
X3.671Y0.069
X3.771Y0.169
X3.771Y0.069
X3.871Y0.169
X3.871Y0.069
X3.971Y0.169
X3.971Y0.069
T4
X0.9868Y1.7955
X0.9868Y1.6955
X1.0868Y1.7955
X1.0868Y1.6955
X1.1868Y1.7955
X1.1868Y1.6955
M30
