%TF.GenerationSoftware,KiCad,Pcbnew,8.0.4*%
%TF.CreationDate,2024-08-16T16:49:31-07:00*%
%TF.ProjectId,SEWER,53455745-522e-46b6-9963-61645f706362,0*%
%TF.SameCoordinates,Original*%
%TF.FileFunction,Soldermask,Top*%
%TF.FilePolarity,Negative*%
%FSLAX46Y46*%
G04 Gerber Fmt 4.6, Leading zero omitted, Abs format (unit mm)*
G04 Created by KiCad (PCBNEW 8.0.4) date 2024-08-16 16:49:31*
%MOMM*%
%LPD*%
G01*
G04 APERTURE LIST*
G04 Aperture macros list*
%AMRoundRect*
0 Rectangle with rounded corners*
0 $1 Rounding radius*
0 $2 $3 $4 $5 $6 $7 $8 $9 X,Y pos of 4 corners*
0 Add a 4 corners polygon primitive as box body*
4,1,4,$2,$3,$4,$5,$6,$7,$8,$9,$2,$3,0*
0 Add four circle primitives for the rounded corners*
1,1,$1+$1,$2,$3*
1,1,$1+$1,$4,$5*
1,1,$1+$1,$6,$7*
1,1,$1+$1,$8,$9*
0 Add four rect primitives between the rounded corners*
20,1,$1+$1,$2,$3,$4,$5,0*
20,1,$1+$1,$4,$5,$6,$7,0*
20,1,$1+$1,$6,$7,$8,$9,0*
20,1,$1+$1,$8,$9,$2,$3,0*%
G04 Aperture macros list end*
%ADD10C,3.302000*%
%ADD11C,2.802000*%
%ADD12RoundRect,0.250500X0.250500X0.275500X-0.250500X0.275500X-0.250500X-0.275500X0.250500X-0.275500X0*%
%ADD13RoundRect,0.250500X0.275500X-0.250500X0.275500X0.250500X-0.275500X0.250500X-0.275500X-0.250500X0*%
%ADD14RoundRect,0.225500X-0.300500X0.225500X-0.300500X-0.225500X0.300500X-0.225500X0.300500X0.225500X0*%
%ADD15RoundRect,0.225500X0.225500X0.300500X-0.225500X0.300500X-0.225500X-0.300500X0.225500X-0.300500X0*%
%ADD16RoundRect,0.250500X-0.275500X0.250500X-0.275500X-0.250500X0.275500X-0.250500X0.275500X0.250500X0*%
%ADD17RoundRect,0.263000X0.263000X-0.275500X0.263000X0.275500X-0.263000X0.275500X-0.263000X-0.275500X0*%
%ADD18RoundRect,0.250500X-0.250500X-0.275500X0.250500X-0.275500X0.250500X0.275500X-0.250500X0.275500X0*%
%ADD19RoundRect,0.051000X-0.850000X0.850000X-0.850000X-0.850000X0.850000X-0.850000X0.850000X0.850000X0*%
%ADD20O,1.802000X1.802000*%
%ADD21RoundRect,0.051000X-0.875000X-0.900000X0.875000X-0.900000X0.875000X0.900000X-0.875000X0.900000X0*%
%ADD22RoundRect,0.225500X0.300500X-0.225500X0.300500X0.225500X-0.300500X0.225500X-0.300500X-0.225500X0*%
%ADD23RoundRect,0.225500X-0.225500X-0.300500X0.225500X-0.300500X0.225500X0.300500X-0.225500X0.300500X0*%
%ADD24RoundRect,0.263000X-0.275500X-0.263000X0.275500X-0.263000X0.275500X0.263000X-0.275500X0.263000X0*%
%ADD25RoundRect,0.051000X2.552700X-1.244600X2.552700X1.244600X-2.552700X1.244600X-2.552700X-1.244600X0*%
%ADD26C,10.312800*%
%ADD27RoundRect,0.051000X0.850000X-0.850000X0.850000X0.850000X-0.850000X0.850000X-0.850000X-0.850000X0*%
%ADD28RoundRect,0.051000X-0.850000X-0.850000X0.850000X-0.850000X0.850000X0.850000X-0.850000X0.850000X0*%
%ADD29RoundRect,0.263000X0.275500X0.263000X-0.275500X0.263000X-0.275500X-0.263000X0.275500X-0.263000X0*%
%ADD30RoundRect,0.100500X-0.688000X-0.100500X0.688000X-0.100500X0.688000X0.100500X-0.688000X0.100500X0*%
%ADD31RoundRect,0.100500X-0.100500X-0.688000X0.100500X-0.688000X0.100500X0.688000X-0.100500X0.688000X0*%
%ADD32RoundRect,0.400500X0.400500X-0.650500X0.400500X0.650500X-0.400500X0.650500X-0.400500X-0.650500X0*%
%ADD33RoundRect,0.525500X1.425500X-0.525500X1.425500X0.525500X-1.425500X0.525500X-1.425500X-0.525500X0*%
%ADD34C,1.854000*%
G04 APERTURE END LIST*
D10*
%TO.C,H1*%
X5024120Y33134300D03*
%TD*%
D11*
%TO.C,H3*%
X94886520Y46863000D03*
%TD*%
%TO.C,H4*%
X96918520Y12331700D03*
%TD*%
%TO.C,H5*%
X2992120Y12331700D03*
%TD*%
D12*
%TO.C,C602*%
X60891720Y12839700D03*
X59341720Y12839700D03*
%TD*%
D13*
%TO.C,C320*%
X11856720Y19866700D03*
X11856720Y21416700D03*
%TD*%
%TO.C,C317*%
X51480720Y44068700D03*
X51480720Y45618700D03*
%TD*%
D14*
%TO.C,R411*%
X53512720Y16204700D03*
X53512720Y14554700D03*
%TD*%
D15*
%TO.C,R405*%
X35541720Y15887700D03*
X33891720Y15887700D03*
%TD*%
D16*
%TO.C,C322*%
X11783720Y25044700D03*
X11783720Y23494700D03*
%TD*%
D17*
%TO.C,R206*%
X9951720Y12435200D03*
X9951720Y14260200D03*
%TD*%
D14*
%TO.C,R611*%
X75356720Y39572700D03*
X75356720Y37922700D03*
%TD*%
D18*
%TO.C,C312*%
X63405720Y29095700D03*
X64955720Y29095700D03*
%TD*%
D14*
%TO.C,R605*%
X89072720Y40588700D03*
X89072720Y38938700D03*
%TD*%
D18*
%TO.C,C309*%
X51975720Y12839700D03*
X53525720Y12839700D03*
%TD*%
D15*
%TO.C,R418*%
X35541720Y18935700D03*
X33891720Y18935700D03*
%TD*%
%TO.C,R408*%
X35541720Y21983700D03*
X33891720Y21983700D03*
%TD*%
D19*
%TO.C,J204*%
X15702520Y37990700D03*
D20*
X15702520Y35450700D03*
X13162520Y37990700D03*
X13162520Y35450700D03*
X10622520Y37990700D03*
X10622520Y35450700D03*
%TD*%
D12*
%TO.C,C304*%
X35491720Y28079700D03*
X33941720Y28079700D03*
%TD*%
D16*
%TO.C,C306*%
X39542720Y16154700D03*
X39542720Y14604700D03*
%TD*%
D12*
%TO.C,C201*%
X44127720Y8553700D03*
X42577720Y8553700D03*
%TD*%
D14*
%TO.C,R616*%
X72308720Y39572700D03*
X72308720Y37922700D03*
%TD*%
D18*
%TO.C,C311*%
X63405720Y33286700D03*
X64955720Y33286700D03*
%TD*%
D14*
%TO.C,R410*%
X50464720Y16204700D03*
X50464720Y14554700D03*
%TD*%
D17*
%TO.C,R205*%
X6903720Y12435200D03*
X6903720Y14260200D03*
%TD*%
D14*
%TO.C,R402*%
X45892720Y16204700D03*
X45892720Y14554700D03*
%TD*%
%TO.C,R604*%
X86024720Y39572700D03*
X86024720Y37922700D03*
%TD*%
%TO.C,R609*%
X81452720Y39572700D03*
X81452720Y37922700D03*
%TD*%
D21*
%TO.C,Y601*%
X56967720Y15379700D03*
X60217720Y15379700D03*
%TD*%
D22*
%TO.C,R305*%
X40685720Y44018700D03*
X40685720Y45668700D03*
%TD*%
D18*
%TO.C,C601*%
X56293720Y12839700D03*
X57843720Y12839700D03*
%TD*%
D23*
%TO.C,R619*%
X63355720Y38366700D03*
X65005720Y38366700D03*
%TD*%
D24*
%TO.C,R201*%
X8150220Y7124700D03*
X9975220Y7124700D03*
%TD*%
D12*
%TO.C,C305*%
X35491720Y23507700D03*
X33941720Y23507700D03*
%TD*%
D16*
%TO.C,C323*%
X13253720Y25044700D03*
X13253720Y23494700D03*
%TD*%
D14*
%TO.C,R404*%
X55036720Y16204700D03*
X55036720Y14554700D03*
%TD*%
D15*
%TO.C,R406*%
X35541720Y17411700D03*
X33891720Y17411700D03*
%TD*%
D12*
%TO.C,C202*%
X44127720Y7029700D03*
X42577720Y7029700D03*
%TD*%
D25*
%TO.C,B601*%
X93825921Y20429700D03*
X93825921Y35729700D03*
D26*
X93825921Y28079700D03*
%TD*%
D13*
%TO.C,C318*%
X56687720Y44068700D03*
X56687720Y45618700D03*
%TD*%
D22*
%TO.C,R301*%
X29636720Y36906700D03*
X29636720Y38556700D03*
%TD*%
D27*
%TO.C,J601*%
X67487720Y43765700D03*
D20*
X67487720Y46305700D03*
X70027720Y43765700D03*
X70027720Y46305700D03*
X72567720Y43765700D03*
X72567720Y46305700D03*
X75107720Y43765700D03*
X75107720Y46305700D03*
X77647720Y43765700D03*
X77647720Y46305700D03*
X80187720Y43765700D03*
X80187720Y46305700D03*
X82727720Y43765700D03*
X82727720Y46305700D03*
X85267720Y43765700D03*
X85267720Y46305700D03*
X87807720Y43765700D03*
X87807720Y46305700D03*
X90347720Y43765700D03*
X90347720Y46305700D03*
%TD*%
D13*
%TO.C,C315*%
X49956720Y44068700D03*
X49956720Y45618700D03*
%TD*%
D12*
%TO.C,C303*%
X35491720Y32143700D03*
X33941720Y32143700D03*
%TD*%
D17*
%TO.C,R204*%
X11475720Y12435200D03*
X11475720Y14260200D03*
%TD*%
D14*
%TO.C,R413*%
X51988720Y16204700D03*
X51988720Y14554700D03*
%TD*%
%TO.C,R606*%
X90596720Y40588700D03*
X90596720Y38938700D03*
%TD*%
D16*
%TO.C,C603*%
X63164720Y45618700D03*
X63164720Y44068700D03*
%TD*%
D14*
%TO.C,R412*%
X48940720Y16204700D03*
X48940720Y14554700D03*
%TD*%
D18*
%TO.C,C310*%
X63405720Y30619700D03*
X64955720Y30619700D03*
%TD*%
D14*
%TO.C,R401*%
X47416720Y16204700D03*
X47416720Y14554700D03*
%TD*%
D15*
%TO.C,R407*%
X35541720Y20459700D03*
X33891720Y20459700D03*
%TD*%
D14*
%TO.C,R602*%
X79928720Y39572700D03*
X79928720Y37922700D03*
%TD*%
D16*
%TO.C,C314*%
X18206720Y42189700D03*
X18206720Y40639700D03*
%TD*%
D22*
%TO.C,R304*%
X58192720Y44025700D03*
X58192720Y45675700D03*
%TD*%
D11*
%TO.C,H2*%
X16276320Y46863000D03*
%TD*%
D28*
%TO.C,J203*%
X89067720Y17020700D03*
D20*
X91607720Y17020700D03*
X89067720Y14480700D03*
X91607720Y14480700D03*
X89067720Y11940700D03*
X91607720Y11940700D03*
X89067720Y9400700D03*
X91607720Y9400700D03*
%TD*%
D19*
%TO.C,J201*%
X1803400Y1752600D03*
D20*
X4343400Y1752600D03*
X6883400Y1752600D03*
X9423400Y1752600D03*
X11963400Y1752600D03*
X14503400Y1752600D03*
X17043400Y1752600D03*
X19583400Y1752600D03*
X22123400Y1752600D03*
X24663400Y1752600D03*
X27203400Y1752600D03*
X29743400Y1752600D03*
X32283400Y1752600D03*
X34823400Y1752600D03*
X37363400Y1752600D03*
X39903400Y1752600D03*
X42443400Y1752600D03*
X44983400Y1752600D03*
X47523400Y1752600D03*
X50063400Y1752600D03*
X52603400Y1752600D03*
X55143400Y1752600D03*
X57683400Y1752600D03*
X60223400Y1752600D03*
X62763400Y1752600D03*
X65303400Y1752600D03*
X67843400Y1752600D03*
X70383400Y1752600D03*
X72923400Y1752600D03*
X75463400Y1752600D03*
X78003400Y1752600D03*
X80543400Y1752600D03*
X83083400Y1752600D03*
X85623400Y1752600D03*
X88163400Y1752600D03*
X90703400Y1752600D03*
X93243400Y1752600D03*
X95783400Y1752600D03*
X98323400Y1752600D03*
X100863400Y1752600D03*
X1803400Y4292600D03*
X4343400Y4292600D03*
X6883400Y4292600D03*
X9423400Y4292600D03*
X11963400Y4292600D03*
X14503400Y4292600D03*
X17043400Y4292600D03*
X19583400Y4292600D03*
X22123400Y4292600D03*
X24663400Y4292600D03*
X27203400Y4292600D03*
X29743400Y4292600D03*
X32283400Y4292600D03*
X34823400Y4292600D03*
X37363400Y4292600D03*
X39903400Y4292600D03*
X42443400Y4292600D03*
X44983400Y4292600D03*
X47523400Y4292600D03*
X50063400Y4292600D03*
X52603400Y4292600D03*
X55143400Y4292600D03*
X57683400Y4292600D03*
X60223400Y4292600D03*
X62763400Y4292600D03*
X65303400Y4292600D03*
X67843400Y4292600D03*
X70383400Y4292600D03*
X72923400Y4292600D03*
X75463400Y4292600D03*
X78003400Y4292600D03*
X80543400Y4292600D03*
X83083400Y4292600D03*
X85623400Y4292600D03*
X88163400Y4292600D03*
X90703400Y4292600D03*
X93243400Y4292600D03*
X95783400Y4292600D03*
X98323400Y4292600D03*
X100863400Y4292600D03*
%TD*%
D23*
%TO.C,R618*%
X63355720Y36588700D03*
X65005720Y36588700D03*
%TD*%
D14*
%TO.C,R610*%
X84500720Y39572700D03*
X84500720Y37922700D03*
%TD*%
D29*
%TO.C,R202*%
X85032220Y6870700D03*
X83207220Y6870700D03*
%TD*%
D14*
%TO.C,R603*%
X82976720Y39572700D03*
X82976720Y37922700D03*
%TD*%
%TO.C,R403*%
X44368720Y16204700D03*
X44368720Y14554700D03*
%TD*%
D28*
%TO.C,J202*%
X81442720Y17010700D03*
D20*
X83982720Y17010700D03*
X81442720Y14470700D03*
X83982720Y14470700D03*
X81442720Y11930700D03*
X83982720Y11930700D03*
X81442720Y9390700D03*
X83982720Y9390700D03*
%TD*%
D30*
%TO.C,U301*%
X38786220Y38861700D03*
X38786220Y38361700D03*
X38786220Y37861700D03*
X38786220Y37361700D03*
X38786220Y36861700D03*
X38786220Y36361700D03*
X38786220Y35861700D03*
X38786220Y35361700D03*
X38786220Y34861700D03*
X38786220Y34361700D03*
X38786220Y33861700D03*
X38786220Y33361700D03*
X38786220Y32861700D03*
X38786220Y32361700D03*
X38786220Y31861700D03*
X38786220Y31361700D03*
X38786220Y30861700D03*
X38786220Y30361700D03*
X38786220Y29861700D03*
X38786220Y29361700D03*
X38786220Y28861700D03*
X38786220Y28361700D03*
X38786220Y27861700D03*
X38786220Y27361700D03*
X38786220Y26861700D03*
X38786220Y26361700D03*
X38786220Y25861700D03*
X38786220Y25361700D03*
X38786220Y24861700D03*
X38786220Y24361700D03*
X38786220Y23861700D03*
X38786220Y23361700D03*
X38786220Y22861700D03*
X38786220Y22361700D03*
X38786220Y21861700D03*
X38786220Y21361700D03*
D31*
X40698720Y19449200D03*
X41198720Y19449200D03*
X41698720Y19449200D03*
X42198720Y19449200D03*
X42698720Y19449200D03*
X43198720Y19449200D03*
X43698720Y19449200D03*
X44198720Y19449200D03*
X44698720Y19449200D03*
X45198720Y19449200D03*
X45698720Y19449200D03*
X46198720Y19449200D03*
X46698720Y19449200D03*
X47198720Y19449200D03*
X47698720Y19449200D03*
X48198720Y19449200D03*
X48698720Y19449200D03*
X49198720Y19449200D03*
X49698720Y19449200D03*
X50198720Y19449200D03*
X50698720Y19449200D03*
X51198720Y19449200D03*
X51698720Y19449200D03*
X52198720Y19449200D03*
X52698720Y19449200D03*
X53198720Y19449200D03*
X53698720Y19449200D03*
X54198720Y19449200D03*
X54698720Y19449200D03*
X55198720Y19449200D03*
X55698720Y19449200D03*
X56198720Y19449200D03*
X56698720Y19449200D03*
X57198720Y19449200D03*
X57698720Y19449200D03*
X58198720Y19449200D03*
D30*
X60111220Y21361700D03*
X60111220Y21861700D03*
X60111220Y22361700D03*
X60111220Y22861700D03*
X60111220Y23361700D03*
X60111220Y23861700D03*
X60111220Y24361700D03*
X60111220Y24861700D03*
X60111220Y25361700D03*
X60111220Y25861700D03*
X60111220Y26361700D03*
X60111220Y26861700D03*
X60111220Y27361700D03*
X60111220Y27861700D03*
X60111220Y28361700D03*
X60111220Y28861700D03*
X60111220Y29361700D03*
X60111220Y29861700D03*
X60111220Y30361700D03*
X60111220Y30861700D03*
X60111220Y31361700D03*
X60111220Y31861700D03*
X60111220Y32361700D03*
X60111220Y32861700D03*
X60111220Y33361700D03*
X60111220Y33861700D03*
X60111220Y34361700D03*
X60111220Y34861700D03*
X60111220Y35361700D03*
X60111220Y35861700D03*
X60111220Y36361700D03*
X60111220Y36861700D03*
X60111220Y37361700D03*
X60111220Y37861700D03*
X60111220Y38361700D03*
X60111220Y38861700D03*
D31*
X58198720Y40774200D03*
X57698720Y40774200D03*
X57198720Y40774200D03*
X56698720Y40774200D03*
X56198720Y40774200D03*
X55698720Y40774200D03*
X55198720Y40774200D03*
X54698720Y40774200D03*
X54198720Y40774200D03*
X53698720Y40774200D03*
X53198720Y40774200D03*
X52698720Y40774200D03*
X52198720Y40774200D03*
X51698720Y40774200D03*
X51198720Y40774200D03*
X50698720Y40774200D03*
X50198720Y40774200D03*
X49698720Y40774200D03*
X49198720Y40774200D03*
X48698720Y40774200D03*
X48198720Y40774200D03*
X47698720Y40774200D03*
X47198720Y40774200D03*
X46698720Y40774200D03*
X46198720Y40774200D03*
X45698720Y40774200D03*
X45198720Y40774200D03*
X44698720Y40774200D03*
X44198720Y40774200D03*
X43698720Y40774200D03*
X43198720Y40774200D03*
X42698720Y40774200D03*
X42198720Y40774200D03*
X41698720Y40774200D03*
X41198720Y40774200D03*
X40698720Y40774200D03*
%TD*%
D13*
%TO.C,C316*%
X45892720Y44068700D03*
X45892720Y45618700D03*
%TD*%
D14*
%TO.C,R613*%
X73832720Y39572700D03*
X73832720Y37922700D03*
%TD*%
D15*
%TO.C,R417*%
X35541720Y14363700D03*
X33891720Y14363700D03*
%TD*%
D14*
%TO.C,R614*%
X76880720Y39572700D03*
X76880720Y37922700D03*
%TD*%
D13*
%TO.C,C319*%
X10259720Y19866700D03*
X10259720Y21416700D03*
%TD*%
D12*
%TO.C,C302*%
X35491720Y36207700D03*
X33941720Y36207700D03*
%TD*%
D15*
%TO.C,R303*%
X65005720Y27571700D03*
X63355720Y27571700D03*
%TD*%
D14*
%TO.C,R607*%
X87548720Y39572700D03*
X87548720Y37922700D03*
%TD*%
D16*
%TO.C,C308*%
X41066720Y16154700D03*
X41066720Y14604700D03*
%TD*%
D12*
%TO.C,C301*%
X35491720Y30619700D03*
X33941720Y30619700D03*
%TD*%
D16*
%TO.C,C321*%
X10259720Y25044700D03*
X10259720Y23494700D03*
%TD*%
D32*
%TO.C,U302*%
X3387720Y19341700D03*
X5687720Y19341700D03*
X7987720Y19341700D03*
D33*
X5687720Y25641700D03*
%TD*%
D16*
%TO.C,C604*%
X64688720Y45618700D03*
X64688720Y44068700D03*
%TD*%
D14*
%TO.C,R615*%
X70784720Y39572700D03*
X70784720Y37922700D03*
%TD*%
D23*
%TO.C,R617*%
X63355720Y34810700D03*
X65005720Y34810700D03*
%TD*%
D18*
%TO.C,C307*%
X63405720Y19951700D03*
X64955720Y19951700D03*
%TD*%
D17*
%TO.C,R203*%
X8427720Y12435200D03*
X8427720Y14260200D03*
%TD*%
D18*
%TO.C,C313*%
X63405720Y25539700D03*
X64955720Y25539700D03*
%TD*%
D14*
%TO.C,R608*%
X92120720Y40588700D03*
X92120720Y38938700D03*
%TD*%
D22*
%TO.C,R302*%
X31414720Y36906700D03*
X31414720Y38556700D03*
%TD*%
D34*
%TO.C,J301*%
X25064720Y43065700D03*
X25064720Y45605700D03*
X27604720Y43065700D03*
X27604720Y45605700D03*
X30144720Y43065700D03*
X30144720Y45605700D03*
%TD*%
D13*
%TO.C,C605*%
X93644720Y38988700D03*
X93644720Y40538700D03*
%TD*%
D14*
%TO.C,R612*%
X78404720Y39572700D03*
X78404720Y37922700D03*
%TD*%
M02*
