%TF.GenerationSoftware,KiCad,Pcbnew,8.0.4*%
%TF.CreationDate,2024-08-16T16:49:31-07:00*%
%TF.ProjectId,SEWER,53455745-522e-46b6-9963-61645f706362,0*%
%TF.SameCoordinates,Original*%
%TF.FileFunction,Legend,Bot*%
%TF.FilePolarity,Positive*%
%FSLAX46Y46*%
G04 Gerber Fmt 4.6, Leading zero omitted, Abs format (unit mm)*
G04 Created by KiCad (PCBNEW 8.0.4) date 2024-08-16 16:49:31*
%MOMM*%
%LPD*%
G01*
G04 APERTURE LIST*
G04 Aperture macros list*
%AMRoundRect*
0 Rectangle with rounded corners*
0 $1 Rounding radius*
0 $2 $3 $4 $5 $6 $7 $8 $9 X,Y pos of 4 corners*
0 Add a 4 corners polygon primitive as box body*
4,1,4,$2,$3,$4,$5,$6,$7,$8,$9,$2,$3,0*
0 Add four circle primitives for the rounded corners*
1,1,$1+$1,$2,$3*
1,1,$1+$1,$4,$5*
1,1,$1+$1,$6,$7*
1,1,$1+$1,$8,$9*
0 Add four rect primitives between the rounded corners*
20,1,$1+$1,$2,$3,$4,$5,0*
20,1,$1+$1,$4,$5,$6,$7,0*
20,1,$1+$1,$6,$7,$8,$9,0*
20,1,$1+$1,$8,$9,$2,$3,0*%
G04 Aperture macros list end*
%ADD10C,0.120000*%
%ADD11C,0.254000*%
%ADD12C,0.635000*%
%ADD13C,0.300000*%
%ADD14C,0.317500*%
%ADD15C,0.010000*%
%ADD16C,3.302000*%
%ADD17C,2.802000*%
%ADD18RoundRect,0.051000X-0.850000X0.850000X-0.850000X-0.850000X0.850000X-0.850000X0.850000X0.850000X0*%
%ADD19O,1.802000X1.802000*%
%ADD20RoundRect,0.051000X0.850000X-0.850000X0.850000X0.850000X-0.850000X0.850000X-0.850000X-0.850000X0*%
%ADD21RoundRect,0.051000X-0.850000X-0.850000X0.850000X-0.850000X0.850000X0.850000X-0.850000X0.850000X0*%
%ADD22C,1.854000*%
G04 APERTURE END LIST*
D10*
X71547220Y30309700D02*
X77960220Y30309700D01*
X77960220Y26865700D01*
X71547220Y26865700D01*
X71547220Y30309700D01*
G36*
X71547220Y30309700D02*
G01*
X77960220Y30309700D01*
X77960220Y26865700D01*
X71547220Y26865700D01*
X71547220Y30309700D01*
G37*
D11*
X70276720Y34810700D02*
X97581720Y34810700D01*
X97581720Y25158700D01*
X70276720Y25158700D01*
X70276720Y34810700D01*
D12*
X96362647Y31376620D02*
X95999790Y31255668D01*
X95999790Y31255668D02*
X95395028Y31255668D01*
X95395028Y31255668D02*
X95153123Y31376620D01*
X95153123Y31376620D02*
X95032171Y31497573D01*
X95032171Y31497573D02*
X94911218Y31739478D01*
X94911218Y31739478D02*
X94911218Y31981382D01*
X94911218Y31981382D02*
X95032171Y32223287D01*
X95032171Y32223287D02*
X95153123Y32344240D01*
X95153123Y32344240D02*
X95395028Y32465192D01*
X95395028Y32465192D02*
X95878837Y32586144D01*
X95878837Y32586144D02*
X96120742Y32707097D01*
X96120742Y32707097D02*
X96241695Y32828049D01*
X96241695Y32828049D02*
X96362647Y33069954D01*
X96362647Y33069954D02*
X96362647Y33311859D01*
X96362647Y33311859D02*
X96241695Y33553763D01*
X96241695Y33553763D02*
X96120742Y33674716D01*
X96120742Y33674716D02*
X95878837Y33795668D01*
X95878837Y33795668D02*
X95274076Y33795668D01*
X95274076Y33795668D02*
X94911218Y33674716D01*
X93822647Y32586144D02*
X92975980Y32586144D01*
X92613123Y31255668D02*
X93822647Y31255668D01*
X93822647Y31255668D02*
X93822647Y33795668D01*
X93822647Y33795668D02*
X92613123Y33795668D01*
X91766456Y33795668D02*
X91161694Y31255668D01*
X91161694Y31255668D02*
X90677885Y33069954D01*
X90677885Y33069954D02*
X90194075Y31255668D01*
X90194075Y31255668D02*
X89589314Y33795668D01*
X88621695Y32586144D02*
X87775028Y32586144D01*
X87412171Y31255668D02*
X88621695Y31255668D01*
X88621695Y31255668D02*
X88621695Y33795668D01*
X88621695Y33795668D02*
X87412171Y33795668D01*
X84872171Y31255668D02*
X85718838Y32465192D01*
X86323600Y31255668D02*
X86323600Y33795668D01*
X86323600Y33795668D02*
X85355981Y33795668D01*
X85355981Y33795668D02*
X85114076Y33674716D01*
X85114076Y33674716D02*
X84993123Y33553763D01*
X84993123Y33553763D02*
X84872171Y33311859D01*
X84872171Y33311859D02*
X84872171Y32949001D01*
X84872171Y32949001D02*
X84993123Y32707097D01*
X84993123Y32707097D02*
X85114076Y32586144D01*
X85114076Y32586144D02*
X85355981Y32465192D01*
X85355981Y32465192D02*
X86323600Y32465192D01*
D13*
X76166891Y6647354D02*
X76166891Y7575926D01*
X76166891Y7575926D02*
X75595462Y7075926D01*
X75595462Y7075926D02*
X75595462Y7290211D01*
X75595462Y7290211D02*
X75524034Y7433068D01*
X75524034Y7433068D02*
X75452605Y7504497D01*
X75452605Y7504497D02*
X75309748Y7575926D01*
X75309748Y7575926D02*
X74952605Y7575926D01*
X74952605Y7575926D02*
X74809748Y7504497D01*
X74809748Y7504497D02*
X74738320Y7433068D01*
X74738320Y7433068D02*
X74666891Y7290211D01*
X74666891Y7290211D02*
X74666891Y6861640D01*
X74666891Y6861640D02*
X74738320Y6718783D01*
X74738320Y6718783D02*
X74809748Y6647354D01*
X76166891Y8504497D02*
X76166891Y8647354D01*
X76166891Y8647354D02*
X76095462Y8790211D01*
X76095462Y8790211D02*
X76024034Y8861639D01*
X76024034Y8861639D02*
X75881177Y8933068D01*
X75881177Y8933068D02*
X75595462Y9004497D01*
X75595462Y9004497D02*
X75238320Y9004497D01*
X75238320Y9004497D02*
X74952605Y8933068D01*
X74952605Y8933068D02*
X74809748Y8861639D01*
X74809748Y8861639D02*
X74738320Y8790211D01*
X74738320Y8790211D02*
X74666891Y8647354D01*
X74666891Y8647354D02*
X74666891Y8504497D01*
X74666891Y8504497D02*
X74738320Y8361639D01*
X74738320Y8361639D02*
X74809748Y8290211D01*
X74809748Y8290211D02*
X74952605Y8218782D01*
X74952605Y8218782D02*
X75238320Y8147354D01*
X75238320Y8147354D02*
X75595462Y8147354D01*
X75595462Y8147354D02*
X75881177Y8218782D01*
X75881177Y8218782D02*
X76024034Y8290211D01*
X76024034Y8290211D02*
X76095462Y8361639D01*
X76095462Y8361639D02*
X76166891Y8504497D01*
X76238320Y10718782D02*
X74309748Y9433068D01*
X76166891Y11075925D02*
X76166891Y12075925D01*
X76166891Y12075925D02*
X74666891Y11433068D01*
X76166891Y12933068D02*
X76166891Y13075925D01*
X76166891Y13075925D02*
X76095462Y13218782D01*
X76095462Y13218782D02*
X76024034Y13290210D01*
X76024034Y13290210D02*
X75881177Y13361639D01*
X75881177Y13361639D02*
X75595462Y13433068D01*
X75595462Y13433068D02*
X75238320Y13433068D01*
X75238320Y13433068D02*
X74952605Y13361639D01*
X74952605Y13361639D02*
X74809748Y13290210D01*
X74809748Y13290210D02*
X74738320Y13218782D01*
X74738320Y13218782D02*
X74666891Y13075925D01*
X74666891Y13075925D02*
X74666891Y12933068D01*
X74666891Y12933068D02*
X74738320Y12790210D01*
X74738320Y12790210D02*
X74809748Y12718782D01*
X74809748Y12718782D02*
X74952605Y12647353D01*
X74952605Y12647353D02*
X75238320Y12575925D01*
X75238320Y12575925D02*
X75595462Y12575925D01*
X75595462Y12575925D02*
X75881177Y12647353D01*
X75881177Y12647353D02*
X76024034Y12718782D01*
X76024034Y12718782D02*
X76095462Y12790210D01*
X76095462Y12790210D02*
X76166891Y12933068D01*
X1641891Y7575926D02*
X1641891Y6718783D01*
X1641891Y7147354D02*
X3141891Y7147354D01*
X3141891Y7147354D02*
X2927605Y7004497D01*
X2927605Y7004497D02*
X2784748Y6861640D01*
X2784748Y6861640D02*
X2713320Y6718783D01*
X3213320Y9290211D02*
X1284748Y8004497D01*
X2641891Y16147353D02*
X1641891Y16147353D01*
X3213320Y15790211D02*
X2141891Y15433068D01*
X2141891Y15433068D02*
X2141891Y16361639D01*
X1641891Y17718782D02*
X1641891Y16861639D01*
X1641891Y17290210D02*
X3141891Y17290210D01*
X3141891Y17290210D02*
X2927605Y17147353D01*
X2927605Y17147353D02*
X2784748Y17004496D01*
X2784748Y17004496D02*
X2713320Y16861639D01*
D14*
X96408243Y28690527D02*
X96208672Y28617956D01*
X96208672Y28617956D02*
X95876053Y28617956D01*
X95876053Y28617956D02*
X95743005Y28690527D01*
X95743005Y28690527D02*
X95676481Y28763099D01*
X95676481Y28763099D02*
X95609958Y28908242D01*
X95609958Y28908242D02*
X95609958Y29053385D01*
X95609958Y29053385D02*
X95676481Y29198527D01*
X95676481Y29198527D02*
X95743005Y29271099D01*
X95743005Y29271099D02*
X95876053Y29343670D01*
X95876053Y29343670D02*
X96142148Y29416242D01*
X96142148Y29416242D02*
X96275196Y29488813D01*
X96275196Y29488813D02*
X96341719Y29561385D01*
X96341719Y29561385D02*
X96408243Y29706527D01*
X96408243Y29706527D02*
X96408243Y29851670D01*
X96408243Y29851670D02*
X96341719Y29996813D01*
X96341719Y29996813D02*
X96275196Y30069385D01*
X96275196Y30069385D02*
X96142148Y30141956D01*
X96142148Y30141956D02*
X95809529Y30141956D01*
X95809529Y30141956D02*
X95609958Y30069385D01*
X95011243Y28617956D02*
X95011243Y29633956D01*
X95011243Y30141956D02*
X95077767Y30069385D01*
X95077767Y30069385D02*
X95011243Y29996813D01*
X95011243Y29996813D02*
X94944720Y30069385D01*
X94944720Y30069385D02*
X95011243Y30141956D01*
X95011243Y30141956D02*
X95011243Y29996813D01*
X94346005Y28617956D02*
X94346005Y29633956D01*
X94346005Y29488813D02*
X94279482Y29561385D01*
X94279482Y29561385D02*
X94146434Y29633956D01*
X94146434Y29633956D02*
X93946863Y29633956D01*
X93946863Y29633956D02*
X93813815Y29561385D01*
X93813815Y29561385D02*
X93747291Y29416242D01*
X93747291Y29416242D02*
X93747291Y28617956D01*
X93747291Y29416242D02*
X93680767Y29561385D01*
X93680767Y29561385D02*
X93547720Y29633956D01*
X93547720Y29633956D02*
X93348148Y29633956D01*
X93348148Y29633956D02*
X93215101Y29561385D01*
X93215101Y29561385D02*
X93148577Y29416242D01*
X93148577Y29416242D02*
X93148577Y28617956D01*
X92483338Y29633956D02*
X92483338Y28109956D01*
X92483338Y29561385D02*
X92350291Y29633956D01*
X92350291Y29633956D02*
X92084196Y29633956D01*
X92084196Y29633956D02*
X91951148Y29561385D01*
X91951148Y29561385D02*
X91884624Y29488813D01*
X91884624Y29488813D02*
X91818100Y29343670D01*
X91818100Y29343670D02*
X91818100Y28908242D01*
X91818100Y28908242D02*
X91884624Y28763099D01*
X91884624Y28763099D02*
X91951148Y28690527D01*
X91951148Y28690527D02*
X92084196Y28617956D01*
X92084196Y28617956D02*
X92350291Y28617956D01*
X92350291Y28617956D02*
X92483338Y28690527D01*
X91019815Y28617956D02*
X91152863Y28690527D01*
X91152863Y28690527D02*
X91219386Y28835670D01*
X91219386Y28835670D02*
X91219386Y30141956D01*
X89955434Y28690527D02*
X90088482Y28617956D01*
X90088482Y28617956D02*
X90354577Y28617956D01*
X90354577Y28617956D02*
X90487624Y28690527D01*
X90487624Y28690527D02*
X90554148Y28835670D01*
X90554148Y28835670D02*
X90554148Y29416242D01*
X90554148Y29416242D02*
X90487624Y29561385D01*
X90487624Y29561385D02*
X90354577Y29633956D01*
X90354577Y29633956D02*
X90088482Y29633956D01*
X90088482Y29633956D02*
X89955434Y29561385D01*
X89955434Y29561385D02*
X89888910Y29416242D01*
X89888910Y29416242D02*
X89888910Y29271099D01*
X89888910Y29271099D02*
X90554148Y29125956D01*
X88225814Y29416242D02*
X87760148Y29416242D01*
X87560576Y28617956D02*
X88225814Y28617956D01*
X88225814Y28617956D02*
X88225814Y30141956D01*
X88225814Y30141956D02*
X87560576Y30141956D01*
X87094910Y29633956D02*
X86762291Y28617956D01*
X86762291Y28617956D02*
X86429672Y29633956D01*
X85298767Y28617956D02*
X85298767Y29416242D01*
X85298767Y29416242D02*
X85365291Y29561385D01*
X85365291Y29561385D02*
X85498339Y29633956D01*
X85498339Y29633956D02*
X85764434Y29633956D01*
X85764434Y29633956D02*
X85897481Y29561385D01*
X85298767Y28690527D02*
X85431815Y28617956D01*
X85431815Y28617956D02*
X85764434Y28617956D01*
X85764434Y28617956D02*
X85897481Y28690527D01*
X85897481Y28690527D02*
X85964005Y28835670D01*
X85964005Y28835670D02*
X85964005Y28980813D01*
X85964005Y28980813D02*
X85897481Y29125956D01*
X85897481Y29125956D02*
X85764434Y29198527D01*
X85764434Y29198527D02*
X85431815Y29198527D01*
X85431815Y29198527D02*
X85298767Y29271099D01*
X84433958Y28617956D02*
X84567006Y28690527D01*
X84567006Y28690527D02*
X84633529Y28835670D01*
X84633529Y28835670D02*
X84633529Y30141956D01*
X82970434Y30141956D02*
X82637815Y28617956D01*
X82637815Y28617956D02*
X82371720Y29706527D01*
X82371720Y29706527D02*
X82105625Y28617956D01*
X82105625Y28617956D02*
X81773006Y30141956D01*
X81240815Y28617956D02*
X81240815Y29633956D01*
X81240815Y30141956D02*
X81307339Y30069385D01*
X81307339Y30069385D02*
X81240815Y29996813D01*
X81240815Y29996813D02*
X81174292Y30069385D01*
X81174292Y30069385D02*
X81240815Y30141956D01*
X81240815Y30141956D02*
X81240815Y29996813D01*
X80775149Y29633956D02*
X80242958Y29633956D01*
X80575577Y30141956D02*
X80575577Y28835670D01*
X80575577Y28835670D02*
X80509054Y28690527D01*
X80509054Y28690527D02*
X80376006Y28617956D01*
X80376006Y28617956D02*
X80242958Y28617956D01*
X79777291Y28617956D02*
X79777291Y30141956D01*
X79178577Y28617956D02*
X79178577Y29416242D01*
X79178577Y29416242D02*
X79245101Y29561385D01*
X79245101Y29561385D02*
X79378149Y29633956D01*
X79378149Y29633956D02*
X79577720Y29633956D01*
X79577720Y29633956D02*
X79710768Y29561385D01*
X79710768Y29561385D02*
X79777291Y29488813D01*
X96341719Y26962687D02*
X95876053Y26962687D01*
X95676481Y26164401D02*
X96341719Y26164401D01*
X96341719Y26164401D02*
X96341719Y27688401D01*
X96341719Y27688401D02*
X95676481Y27688401D01*
X95210815Y27688401D02*
X94279482Y27688401D01*
X94279482Y27688401D02*
X95210815Y26164401D01*
X95210815Y26164401D02*
X94279482Y26164401D01*
X93547720Y27035258D02*
X93680768Y27107830D01*
X93680768Y27107830D02*
X93747291Y27180401D01*
X93747291Y27180401D02*
X93813815Y27325544D01*
X93813815Y27325544D02*
X93813815Y27398115D01*
X93813815Y27398115D02*
X93747291Y27543258D01*
X93747291Y27543258D02*
X93680768Y27615830D01*
X93680768Y27615830D02*
X93547720Y27688401D01*
X93547720Y27688401D02*
X93281625Y27688401D01*
X93281625Y27688401D02*
X93148577Y27615830D01*
X93148577Y27615830D02*
X93082053Y27543258D01*
X93082053Y27543258D02*
X93015530Y27398115D01*
X93015530Y27398115D02*
X93015530Y27325544D01*
X93015530Y27325544D02*
X93082053Y27180401D01*
X93082053Y27180401D02*
X93148577Y27107830D01*
X93148577Y27107830D02*
X93281625Y27035258D01*
X93281625Y27035258D02*
X93547720Y27035258D01*
X93547720Y27035258D02*
X93680768Y26962687D01*
X93680768Y26962687D02*
X93747291Y26890115D01*
X93747291Y26890115D02*
X93813815Y26744972D01*
X93813815Y26744972D02*
X93813815Y26454687D01*
X93813815Y26454687D02*
X93747291Y26309544D01*
X93747291Y26309544D02*
X93680768Y26236972D01*
X93680768Y26236972D02*
X93547720Y26164401D01*
X93547720Y26164401D02*
X93281625Y26164401D01*
X93281625Y26164401D02*
X93148577Y26236972D01*
X93148577Y26236972D02*
X93082053Y26309544D01*
X93082053Y26309544D02*
X93015530Y26454687D01*
X93015530Y26454687D02*
X93015530Y26744972D01*
X93015530Y26744972D02*
X93082053Y26890115D01*
X93082053Y26890115D02*
X93148577Y26962687D01*
X93148577Y26962687D02*
X93281625Y27035258D01*
X92150720Y27688401D02*
X92017673Y27688401D01*
X92017673Y27688401D02*
X91884625Y27615830D01*
X91884625Y27615830D02*
X91818101Y27543258D01*
X91818101Y27543258D02*
X91751577Y27398115D01*
X91751577Y27398115D02*
X91685054Y27107830D01*
X91685054Y27107830D02*
X91685054Y26744972D01*
X91685054Y26744972D02*
X91751577Y26454687D01*
X91751577Y26454687D02*
X91818101Y26309544D01*
X91818101Y26309544D02*
X91884625Y26236972D01*
X91884625Y26236972D02*
X92017673Y26164401D01*
X92017673Y26164401D02*
X92150720Y26164401D01*
X92150720Y26164401D02*
X92283768Y26236972D01*
X92283768Y26236972D02*
X92350292Y26309544D01*
X92350292Y26309544D02*
X92416815Y26454687D01*
X92416815Y26454687D02*
X92483339Y26744972D01*
X92483339Y26744972D02*
X92483339Y27107830D01*
X92483339Y27107830D02*
X92416815Y27398115D01*
X92416815Y27398115D02*
X92350292Y27543258D01*
X92350292Y27543258D02*
X92283768Y27615830D01*
X92283768Y27615830D02*
X92150720Y27688401D01*
X89822387Y26164401D02*
X89955435Y26236972D01*
X89955435Y26236972D02*
X90021958Y26309544D01*
X90021958Y26309544D02*
X90088482Y26454687D01*
X90088482Y26454687D02*
X90088482Y26890115D01*
X90088482Y26890115D02*
X90021958Y27035258D01*
X90021958Y27035258D02*
X89955435Y27107830D01*
X89955435Y27107830D02*
X89822387Y27180401D01*
X89822387Y27180401D02*
X89622816Y27180401D01*
X89622816Y27180401D02*
X89489768Y27107830D01*
X89489768Y27107830D02*
X89423244Y27035258D01*
X89423244Y27035258D02*
X89356720Y26890115D01*
X89356720Y26890115D02*
X89356720Y26454687D01*
X89356720Y26454687D02*
X89423244Y26309544D01*
X89423244Y26309544D02*
X89489768Y26236972D01*
X89489768Y26236972D02*
X89622816Y26164401D01*
X89622816Y26164401D02*
X89822387Y26164401D01*
X88758006Y27180401D02*
X88758006Y26164401D01*
X88758006Y27035258D02*
X88691483Y27107830D01*
X88691483Y27107830D02*
X88558435Y27180401D01*
X88558435Y27180401D02*
X88358864Y27180401D01*
X88358864Y27180401D02*
X88225816Y27107830D01*
X88225816Y27107830D02*
X88159292Y26962687D01*
X88159292Y26962687D02*
X88159292Y26164401D01*
X85631388Y26164401D02*
X86097054Y26890115D01*
X86429673Y26164401D02*
X86429673Y27688401D01*
X86429673Y27688401D02*
X85897483Y27688401D01*
X85897483Y27688401D02*
X85764435Y27615830D01*
X85764435Y27615830D02*
X85697912Y27543258D01*
X85697912Y27543258D02*
X85631388Y27398115D01*
X85631388Y27398115D02*
X85631388Y27180401D01*
X85631388Y27180401D02*
X85697912Y27035258D01*
X85697912Y27035258D02*
X85764435Y26962687D01*
X85764435Y26962687D02*
X85897483Y26890115D01*
X85897483Y26890115D02*
X86429673Y26890115D01*
X84234388Y26309544D02*
X84300912Y26236972D01*
X84300912Y26236972D02*
X84500483Y26164401D01*
X84500483Y26164401D02*
X84633531Y26164401D01*
X84633531Y26164401D02*
X84833102Y26236972D01*
X84833102Y26236972D02*
X84966150Y26382115D01*
X84966150Y26382115D02*
X85032673Y26527258D01*
X85032673Y26527258D02*
X85099197Y26817544D01*
X85099197Y26817544D02*
X85099197Y27035258D01*
X85099197Y27035258D02*
X85032673Y27325544D01*
X85032673Y27325544D02*
X84966150Y27470687D01*
X84966150Y27470687D02*
X84833102Y27615830D01*
X84833102Y27615830D02*
X84633531Y27688401D01*
X84633531Y27688401D02*
X84500483Y27688401D01*
X84500483Y27688401D02*
X84300912Y27615830D01*
X84300912Y27615830D02*
X84234388Y27543258D01*
X83170007Y26962687D02*
X82970435Y26890115D01*
X82970435Y26890115D02*
X82903912Y26817544D01*
X82903912Y26817544D02*
X82837388Y26672401D01*
X82837388Y26672401D02*
X82837388Y26454687D01*
X82837388Y26454687D02*
X82903912Y26309544D01*
X82903912Y26309544D02*
X82970435Y26236972D01*
X82970435Y26236972D02*
X83103483Y26164401D01*
X83103483Y26164401D02*
X83635673Y26164401D01*
X83635673Y26164401D02*
X83635673Y27688401D01*
X83635673Y27688401D02*
X83170007Y27688401D01*
X83170007Y27688401D02*
X83036959Y27615830D01*
X83036959Y27615830D02*
X82970435Y27543258D01*
X82970435Y27543258D02*
X82903912Y27398115D01*
X82903912Y27398115D02*
X82903912Y27252972D01*
X82903912Y27252972D02*
X82970435Y27107830D01*
X82970435Y27107830D02*
X83036959Y27035258D01*
X83036959Y27035258D02*
X83170007Y26962687D01*
X83170007Y26962687D02*
X83635673Y26962687D01*
X82238673Y27688401D02*
X82238673Y26454687D01*
X82238673Y26454687D02*
X82172150Y26309544D01*
X82172150Y26309544D02*
X82105626Y26236972D01*
X82105626Y26236972D02*
X81972578Y26164401D01*
X81972578Y26164401D02*
X81706483Y26164401D01*
X81706483Y26164401D02*
X81573435Y26236972D01*
X81573435Y26236972D02*
X81506912Y26309544D01*
X81506912Y26309544D02*
X81440388Y26454687D01*
X81440388Y26454687D02*
X81440388Y27688401D01*
X80841673Y26236972D02*
X80642102Y26164401D01*
X80642102Y26164401D02*
X80309483Y26164401D01*
X80309483Y26164401D02*
X80176435Y26236972D01*
X80176435Y26236972D02*
X80109911Y26309544D01*
X80109911Y26309544D02*
X80043388Y26454687D01*
X80043388Y26454687D02*
X80043388Y26599830D01*
X80043388Y26599830D02*
X80109911Y26744972D01*
X80109911Y26744972D02*
X80176435Y26817544D01*
X80176435Y26817544D02*
X80309483Y26890115D01*
X80309483Y26890115D02*
X80575578Y26962687D01*
X80575578Y26962687D02*
X80708626Y27035258D01*
X80708626Y27035258D02*
X80775149Y27107830D01*
X80775149Y27107830D02*
X80841673Y27252972D01*
X80841673Y27252972D02*
X80841673Y27398115D01*
X80841673Y27398115D02*
X80775149Y27543258D01*
X80775149Y27543258D02*
X80708626Y27615830D01*
X80708626Y27615830D02*
X80575578Y27688401D01*
X80575578Y27688401D02*
X80242959Y27688401D01*
X80242959Y27688401D02*
X80043388Y27615830D01*
D13*
X23993891Y7575926D02*
X23993891Y6718783D01*
X23993891Y7147354D02*
X25493891Y7147354D01*
X25493891Y7147354D02*
X25279605Y7004497D01*
X25279605Y7004497D02*
X25136748Y6861640D01*
X25136748Y6861640D02*
X25065320Y6718783D01*
X25493891Y8504497D02*
X25493891Y8647354D01*
X25493891Y8647354D02*
X25422462Y8790211D01*
X25422462Y8790211D02*
X25351034Y8861639D01*
X25351034Y8861639D02*
X25208177Y8933068D01*
X25208177Y8933068D02*
X24922462Y9004497D01*
X24922462Y9004497D02*
X24565320Y9004497D01*
X24565320Y9004497D02*
X24279605Y8933068D01*
X24279605Y8933068D02*
X24136748Y8861639D01*
X24136748Y8861639D02*
X24065320Y8790211D01*
X24065320Y8790211D02*
X23993891Y8647354D01*
X23993891Y8647354D02*
X23993891Y8504497D01*
X23993891Y8504497D02*
X24065320Y8361639D01*
X24065320Y8361639D02*
X24136748Y8290211D01*
X24136748Y8290211D02*
X24279605Y8218782D01*
X24279605Y8218782D02*
X24565320Y8147354D01*
X24565320Y8147354D02*
X24922462Y8147354D01*
X24922462Y8147354D02*
X25208177Y8218782D01*
X25208177Y8218782D02*
X25351034Y8290211D01*
X25351034Y8290211D02*
X25422462Y8361639D01*
X25422462Y8361639D02*
X25493891Y8504497D01*
X25565320Y10718782D02*
X23636748Y9433068D01*
X25493891Y11933068D02*
X25493891Y11218782D01*
X25493891Y11218782D02*
X24779605Y11147354D01*
X24779605Y11147354D02*
X24851034Y11218782D01*
X24851034Y11218782D02*
X24922462Y11361639D01*
X24922462Y11361639D02*
X24922462Y11718782D01*
X24922462Y11718782D02*
X24851034Y11861639D01*
X24851034Y11861639D02*
X24779605Y11933068D01*
X24779605Y11933068D02*
X24636748Y12004497D01*
X24636748Y12004497D02*
X24279605Y12004497D01*
X24279605Y12004497D02*
X24136748Y11933068D01*
X24136748Y11933068D02*
X24065320Y11861639D01*
X24065320Y11861639D02*
X23993891Y11718782D01*
X23993891Y11718782D02*
X23993891Y11361639D01*
X23993891Y11361639D02*
X24065320Y11218782D01*
X24065320Y11218782D02*
X24136748Y11147354D01*
X25493891Y12933068D02*
X25493891Y13075925D01*
X25493891Y13075925D02*
X25422462Y13218782D01*
X25422462Y13218782D02*
X25351034Y13290210D01*
X25351034Y13290210D02*
X25208177Y13361639D01*
X25208177Y13361639D02*
X24922462Y13433068D01*
X24922462Y13433068D02*
X24565320Y13433068D01*
X24565320Y13433068D02*
X24279605Y13361639D01*
X24279605Y13361639D02*
X24136748Y13290210D01*
X24136748Y13290210D02*
X24065320Y13218782D01*
X24065320Y13218782D02*
X23993891Y13075925D01*
X23993891Y13075925D02*
X23993891Y12933068D01*
X23993891Y12933068D02*
X24065320Y12790210D01*
X24065320Y12790210D02*
X24136748Y12718782D01*
X24136748Y12718782D02*
X24279605Y12647353D01*
X24279605Y12647353D02*
X24565320Y12575925D01*
X24565320Y12575925D02*
X24922462Y12575925D01*
X24922462Y12575925D02*
X25208177Y12647353D01*
X25208177Y12647353D02*
X25351034Y12718782D01*
X25351034Y12718782D02*
X25422462Y12790210D01*
X25422462Y12790210D02*
X25493891Y12933068D01*
D14*
X28104619Y27955179D02*
X28104619Y29479179D01*
X28104619Y29479179D02*
X27772000Y29479179D01*
X27772000Y29479179D02*
X27572429Y29406608D01*
X27572429Y29406608D02*
X27439381Y29261465D01*
X27439381Y29261465D02*
X27372858Y29116322D01*
X27372858Y29116322D02*
X27306334Y28826036D01*
X27306334Y28826036D02*
X27306334Y28608322D01*
X27306334Y28608322D02*
X27372858Y28318036D01*
X27372858Y28318036D02*
X27439381Y28172893D01*
X27439381Y28172893D02*
X27572429Y28027750D01*
X27572429Y28027750D02*
X27772000Y27955179D01*
X27772000Y27955179D02*
X28104619Y27955179D01*
X26175429Y28027750D02*
X26308477Y27955179D01*
X26308477Y27955179D02*
X26574572Y27955179D01*
X26574572Y27955179D02*
X26707619Y28027750D01*
X26707619Y28027750D02*
X26774143Y28172893D01*
X26774143Y28172893D02*
X26774143Y28753465D01*
X26774143Y28753465D02*
X26707619Y28898608D01*
X26707619Y28898608D02*
X26574572Y28971179D01*
X26574572Y28971179D02*
X26308477Y28971179D01*
X26308477Y28971179D02*
X26175429Y28898608D01*
X26175429Y28898608D02*
X26108905Y28753465D01*
X26108905Y28753465D02*
X26108905Y28608322D01*
X26108905Y28608322D02*
X26774143Y28463179D01*
X25510190Y28971179D02*
X25510190Y27955179D01*
X25510190Y28826036D02*
X25443667Y28898608D01*
X25443667Y28898608D02*
X25310619Y28971179D01*
X25310619Y28971179D02*
X25111048Y28971179D01*
X25111048Y28971179D02*
X24978000Y28898608D01*
X24978000Y28898608D02*
X24911476Y28753465D01*
X24911476Y28753465D02*
X24911476Y27955179D01*
X24246238Y28971179D02*
X24246238Y27955179D01*
X24246238Y28826036D02*
X24179715Y28898608D01*
X24179715Y28898608D02*
X24046667Y28971179D01*
X24046667Y28971179D02*
X23847096Y28971179D01*
X23847096Y28971179D02*
X23714048Y28898608D01*
X23714048Y28898608D02*
X23647524Y28753465D01*
X23647524Y28753465D02*
X23647524Y27955179D01*
X22782715Y27955179D02*
X22915763Y28027750D01*
X22915763Y28027750D02*
X22982286Y28100322D01*
X22982286Y28100322D02*
X23048810Y28245465D01*
X23048810Y28245465D02*
X23048810Y28680893D01*
X23048810Y28680893D02*
X22982286Y28826036D01*
X22982286Y28826036D02*
X22915763Y28898608D01*
X22915763Y28898608D02*
X22782715Y28971179D01*
X22782715Y28971179D02*
X22583144Y28971179D01*
X22583144Y28971179D02*
X22450096Y28898608D01*
X22450096Y28898608D02*
X22383572Y28826036D01*
X22383572Y28826036D02*
X22317048Y28680893D01*
X22317048Y28680893D02*
X22317048Y28245465D01*
X22317048Y28245465D02*
X22383572Y28100322D01*
X22383572Y28100322D02*
X22450096Y28027750D01*
X22450096Y28027750D02*
X22583144Y27955179D01*
X22583144Y27955179D02*
X22782715Y27955179D01*
X20787001Y29479179D02*
X20454382Y27955179D01*
X20454382Y27955179D02*
X20188287Y29043750D01*
X20188287Y29043750D02*
X19922192Y27955179D01*
X19922192Y27955179D02*
X19589573Y29479179D01*
X19057382Y27955179D02*
X19057382Y28971179D01*
X19057382Y29479179D02*
X19123906Y29406608D01*
X19123906Y29406608D02*
X19057382Y29334036D01*
X19057382Y29334036D02*
X18990859Y29406608D01*
X18990859Y29406608D02*
X19057382Y29479179D01*
X19057382Y29479179D02*
X19057382Y29334036D01*
X17793430Y28971179D02*
X17793430Y27737465D01*
X17793430Y27737465D02*
X17859954Y27592322D01*
X17859954Y27592322D02*
X17926478Y27519750D01*
X17926478Y27519750D02*
X18059525Y27447179D01*
X18059525Y27447179D02*
X18259097Y27447179D01*
X18259097Y27447179D02*
X18392144Y27519750D01*
X17793430Y28027750D02*
X17926478Y27955179D01*
X17926478Y27955179D02*
X18192573Y27955179D01*
X18192573Y27955179D02*
X18325621Y28027750D01*
X18325621Y28027750D02*
X18392144Y28100322D01*
X18392144Y28100322D02*
X18458668Y28245465D01*
X18458668Y28245465D02*
X18458668Y28680893D01*
X18458668Y28680893D02*
X18392144Y28826036D01*
X18392144Y28826036D02*
X18325621Y28898608D01*
X18325621Y28898608D02*
X18192573Y28971179D01*
X18192573Y28971179D02*
X17926478Y28971179D01*
X17926478Y28971179D02*
X17793430Y28898608D01*
X16529478Y28971179D02*
X16529478Y27737465D01*
X16529478Y27737465D02*
X16596002Y27592322D01*
X16596002Y27592322D02*
X16662526Y27519750D01*
X16662526Y27519750D02*
X16795573Y27447179D01*
X16795573Y27447179D02*
X16995145Y27447179D01*
X16995145Y27447179D02*
X17128192Y27519750D01*
X16529478Y28027750D02*
X16662526Y27955179D01*
X16662526Y27955179D02*
X16928621Y27955179D01*
X16928621Y27955179D02*
X17061669Y28027750D01*
X17061669Y28027750D02*
X17128192Y28100322D01*
X17128192Y28100322D02*
X17194716Y28245465D01*
X17194716Y28245465D02*
X17194716Y28680893D01*
X17194716Y28680893D02*
X17128192Y28826036D01*
X17128192Y28826036D02*
X17061669Y28898608D01*
X17061669Y28898608D02*
X16928621Y28971179D01*
X16928621Y28971179D02*
X16662526Y28971179D01*
X16662526Y28971179D02*
X16529478Y28898608D01*
X15664669Y27955179D02*
X15797717Y28027750D01*
X15797717Y28027750D02*
X15864240Y28172893D01*
X15864240Y28172893D02*
X15864240Y29479179D01*
X14600288Y28027750D02*
X14733336Y27955179D01*
X14733336Y27955179D02*
X14999431Y27955179D01*
X14999431Y27955179D02*
X15132478Y28027750D01*
X15132478Y28027750D02*
X15199002Y28172893D01*
X15199002Y28172893D02*
X15199002Y28753465D01*
X15199002Y28753465D02*
X15132478Y28898608D01*
X15132478Y28898608D02*
X14999431Y28971179D01*
X14999431Y28971179D02*
X14733336Y28971179D01*
X14733336Y28971179D02*
X14600288Y28898608D01*
X14600288Y28898608D02*
X14533764Y28753465D01*
X14533764Y28753465D02*
X14533764Y28608322D01*
X14533764Y28608322D02*
X15199002Y28463179D01*
X29947934Y31326122D02*
X30014458Y31253550D01*
X30014458Y31253550D02*
X30214029Y31180979D01*
X30214029Y31180979D02*
X30347077Y31180979D01*
X30347077Y31180979D02*
X30546648Y31253550D01*
X30546648Y31253550D02*
X30679696Y31398693D01*
X30679696Y31398693D02*
X30746219Y31543836D01*
X30746219Y31543836D02*
X30812743Y31834122D01*
X30812743Y31834122D02*
X30812743Y32051836D01*
X30812743Y32051836D02*
X30746219Y32342122D01*
X30746219Y32342122D02*
X30679696Y32487265D01*
X30679696Y32487265D02*
X30546648Y32632408D01*
X30546648Y32632408D02*
X30347077Y32704979D01*
X30347077Y32704979D02*
X30214029Y32704979D01*
X30214029Y32704979D02*
X30014458Y32632408D01*
X30014458Y32632408D02*
X29947934Y32559836D01*
X29149648Y31180979D02*
X29282696Y31253550D01*
X29282696Y31253550D02*
X29349219Y31326122D01*
X29349219Y31326122D02*
X29415743Y31471265D01*
X29415743Y31471265D02*
X29415743Y31906693D01*
X29415743Y31906693D02*
X29349219Y32051836D01*
X29349219Y32051836D02*
X29282696Y32124408D01*
X29282696Y32124408D02*
X29149648Y32196979D01*
X29149648Y32196979D02*
X28950077Y32196979D01*
X28950077Y32196979D02*
X28817029Y32124408D01*
X28817029Y32124408D02*
X28750505Y32051836D01*
X28750505Y32051836D02*
X28683981Y31906693D01*
X28683981Y31906693D02*
X28683981Y31471265D01*
X28683981Y31471265D02*
X28750505Y31326122D01*
X28750505Y31326122D02*
X28817029Y31253550D01*
X28817029Y31253550D02*
X28950077Y31180979D01*
X28950077Y31180979D02*
X29149648Y31180979D01*
X28085267Y32196979D02*
X28085267Y30672979D01*
X28085267Y32124408D02*
X27952220Y32196979D01*
X27952220Y32196979D02*
X27686125Y32196979D01*
X27686125Y32196979D02*
X27553077Y32124408D01*
X27553077Y32124408D02*
X27486553Y32051836D01*
X27486553Y32051836D02*
X27420029Y31906693D01*
X27420029Y31906693D02*
X27420029Y31471265D01*
X27420029Y31471265D02*
X27486553Y31326122D01*
X27486553Y31326122D02*
X27553077Y31253550D01*
X27553077Y31253550D02*
X27686125Y31180979D01*
X27686125Y31180979D02*
X27952220Y31180979D01*
X27952220Y31180979D02*
X28085267Y31253550D01*
X26954363Y32196979D02*
X26621744Y31180979D01*
X26289125Y32196979D02*
X26621744Y31180979D01*
X26621744Y31180979D02*
X26754792Y30818122D01*
X26754792Y30818122D02*
X26821315Y30745550D01*
X26821315Y30745550D02*
X26954363Y30672979D01*
X25756934Y31180979D02*
X25756934Y32196979D01*
X25756934Y31906693D02*
X25690411Y32051836D01*
X25690411Y32051836D02*
X25623887Y32124408D01*
X25623887Y32124408D02*
X25490839Y32196979D01*
X25490839Y32196979D02*
X25357792Y32196979D01*
X24892124Y31180979D02*
X24892124Y32196979D01*
X24892124Y32704979D02*
X24958648Y32632408D01*
X24958648Y32632408D02*
X24892124Y32559836D01*
X24892124Y32559836D02*
X24825601Y32632408D01*
X24825601Y32632408D02*
X24892124Y32704979D01*
X24892124Y32704979D02*
X24892124Y32559836D01*
X23628172Y32196979D02*
X23628172Y30963265D01*
X23628172Y30963265D02*
X23694696Y30818122D01*
X23694696Y30818122D02*
X23761220Y30745550D01*
X23761220Y30745550D02*
X23894267Y30672979D01*
X23894267Y30672979D02*
X24093839Y30672979D01*
X24093839Y30672979D02*
X24226886Y30745550D01*
X23628172Y31253550D02*
X23761220Y31180979D01*
X23761220Y31180979D02*
X24027315Y31180979D01*
X24027315Y31180979D02*
X24160363Y31253550D01*
X24160363Y31253550D02*
X24226886Y31326122D01*
X24226886Y31326122D02*
X24293410Y31471265D01*
X24293410Y31471265D02*
X24293410Y31906693D01*
X24293410Y31906693D02*
X24226886Y32051836D01*
X24226886Y32051836D02*
X24160363Y32124408D01*
X24160363Y32124408D02*
X24027315Y32196979D01*
X24027315Y32196979D02*
X23761220Y32196979D01*
X23761220Y32196979D02*
X23628172Y32124408D01*
X22962934Y31180979D02*
X22962934Y32704979D01*
X22364220Y31180979D02*
X22364220Y31979265D01*
X22364220Y31979265D02*
X22430744Y32124408D01*
X22430744Y32124408D02*
X22563792Y32196979D01*
X22563792Y32196979D02*
X22763363Y32196979D01*
X22763363Y32196979D02*
X22896411Y32124408D01*
X22896411Y32124408D02*
X22962934Y32051836D01*
X21898554Y32196979D02*
X21366363Y32196979D01*
X21698982Y32704979D02*
X21698982Y31398693D01*
X21698982Y31398693D02*
X21632459Y31253550D01*
X21632459Y31253550D02*
X21499411Y31180979D01*
X21499411Y31180979D02*
X21366363Y31180979D01*
X18705411Y32342122D02*
X18838458Y32414693D01*
X18838458Y32414693D02*
X19104554Y32414693D01*
X19104554Y32414693D02*
X19237601Y32342122D01*
X19237601Y32342122D02*
X19370649Y32196979D01*
X19370649Y32196979D02*
X19437173Y32051836D01*
X19437173Y32051836D02*
X19437173Y31761550D01*
X19437173Y31761550D02*
X19370649Y31616408D01*
X19370649Y31616408D02*
X19237601Y31471265D01*
X19237601Y31471265D02*
X19104554Y31398693D01*
X19104554Y31398693D02*
X18838458Y31398693D01*
X18838458Y31398693D02*
X18705411Y31471265D01*
X18971506Y32922693D02*
X19304125Y32850122D01*
X19304125Y32850122D02*
X19636744Y32632408D01*
X19636744Y32632408D02*
X19836315Y32269550D01*
X19836315Y32269550D02*
X19902839Y31906693D01*
X19902839Y31906693D02*
X19836315Y31543836D01*
X19836315Y31543836D02*
X19636744Y31180979D01*
X19636744Y31180979D02*
X19304125Y30963265D01*
X19304125Y30963265D02*
X18971506Y30890693D01*
X18971506Y30890693D02*
X18638887Y30963265D01*
X18638887Y30963265D02*
X18306268Y31180979D01*
X18306268Y31180979D02*
X18106696Y31543836D01*
X18106696Y31543836D02*
X18040173Y31906693D01*
X18040173Y31906693D02*
X18106696Y32269550D01*
X18106696Y32269550D02*
X18306268Y32632408D01*
X18306268Y32632408D02*
X18638887Y32850122D01*
X18638887Y32850122D02*
X18971506Y32922693D01*
X16443601Y32559836D02*
X16377077Y32632408D01*
X16377077Y32632408D02*
X16244030Y32704979D01*
X16244030Y32704979D02*
X15911411Y32704979D01*
X15911411Y32704979D02*
X15778363Y32632408D01*
X15778363Y32632408D02*
X15711839Y32559836D01*
X15711839Y32559836D02*
X15645316Y32414693D01*
X15645316Y32414693D02*
X15645316Y32269550D01*
X15645316Y32269550D02*
X15711839Y32051836D01*
X15711839Y32051836D02*
X16510125Y31180979D01*
X16510125Y31180979D02*
X15645316Y31180979D01*
X14780506Y32704979D02*
X14647459Y32704979D01*
X14647459Y32704979D02*
X14514411Y32632408D01*
X14514411Y32632408D02*
X14447887Y32559836D01*
X14447887Y32559836D02*
X14381363Y32414693D01*
X14381363Y32414693D02*
X14314840Y32124408D01*
X14314840Y32124408D02*
X14314840Y31761550D01*
X14314840Y31761550D02*
X14381363Y31471265D01*
X14381363Y31471265D02*
X14447887Y31326122D01*
X14447887Y31326122D02*
X14514411Y31253550D01*
X14514411Y31253550D02*
X14647459Y31180979D01*
X14647459Y31180979D02*
X14780506Y31180979D01*
X14780506Y31180979D02*
X14913554Y31253550D01*
X14913554Y31253550D02*
X14980078Y31326122D01*
X14980078Y31326122D02*
X15046601Y31471265D01*
X15046601Y31471265D02*
X15113125Y31761550D01*
X15113125Y31761550D02*
X15113125Y32124408D01*
X15113125Y32124408D02*
X15046601Y32414693D01*
X15046601Y32414693D02*
X14980078Y32559836D01*
X14980078Y32559836D02*
X14913554Y32632408D01*
X14913554Y32632408D02*
X14780506Y32704979D01*
X13782649Y32559836D02*
X13716125Y32632408D01*
X13716125Y32632408D02*
X13583078Y32704979D01*
X13583078Y32704979D02*
X13250459Y32704979D01*
X13250459Y32704979D02*
X13117411Y32632408D01*
X13117411Y32632408D02*
X13050887Y32559836D01*
X13050887Y32559836D02*
X12984364Y32414693D01*
X12984364Y32414693D02*
X12984364Y32269550D01*
X12984364Y32269550D02*
X13050887Y32051836D01*
X13050887Y32051836D02*
X13849173Y31180979D01*
X13849173Y31180979D02*
X12984364Y31180979D01*
X11786935Y32196979D02*
X11786935Y31180979D01*
X12119554Y32777550D02*
X12452173Y31688979D01*
X12452173Y31688979D02*
X11587364Y31688979D01*
X76620434Y31836179D02*
X77086100Y32561893D01*
X77418719Y31836179D02*
X77418719Y33360179D01*
X77418719Y33360179D02*
X76886529Y33360179D01*
X76886529Y33360179D02*
X76753481Y33287608D01*
X76753481Y33287608D02*
X76686958Y33215036D01*
X76686958Y33215036D02*
X76620434Y33069893D01*
X76620434Y33069893D02*
X76620434Y32852179D01*
X76620434Y32852179D02*
X76686958Y32707036D01*
X76686958Y32707036D02*
X76753481Y32634465D01*
X76753481Y32634465D02*
X76886529Y32561893D01*
X76886529Y32561893D02*
X77418719Y32561893D01*
X75489529Y31908750D02*
X75622577Y31836179D01*
X75622577Y31836179D02*
X75888672Y31836179D01*
X75888672Y31836179D02*
X76021719Y31908750D01*
X76021719Y31908750D02*
X76088243Y32053893D01*
X76088243Y32053893D02*
X76088243Y32634465D01*
X76088243Y32634465D02*
X76021719Y32779608D01*
X76021719Y32779608D02*
X75888672Y32852179D01*
X75888672Y32852179D02*
X75622577Y32852179D01*
X75622577Y32852179D02*
X75489529Y32779608D01*
X75489529Y32779608D02*
X75423005Y32634465D01*
X75423005Y32634465D02*
X75423005Y32489322D01*
X75423005Y32489322D02*
X76088243Y32344179D01*
X74957338Y32852179D02*
X74624719Y31836179D01*
X74624719Y31836179D02*
X74292100Y32852179D01*
X72429433Y33360179D02*
X72296386Y33360179D01*
X72296386Y33360179D02*
X72163338Y33287608D01*
X72163338Y33287608D02*
X72096814Y33215036D01*
X72096814Y33215036D02*
X72030290Y33069893D01*
X72030290Y33069893D02*
X71963767Y32779608D01*
X71963767Y32779608D02*
X71963767Y32416750D01*
X71963767Y32416750D02*
X72030290Y32126465D01*
X72030290Y32126465D02*
X72096814Y31981322D01*
X72096814Y31981322D02*
X72163338Y31908750D01*
X72163338Y31908750D02*
X72296386Y31836179D01*
X72296386Y31836179D02*
X72429433Y31836179D01*
X72429433Y31836179D02*
X72562481Y31908750D01*
X72562481Y31908750D02*
X72629005Y31981322D01*
X72629005Y31981322D02*
X72695528Y32126465D01*
X72695528Y32126465D02*
X72762052Y32416750D01*
X72762052Y32416750D02*
X72762052Y32779608D01*
X72762052Y32779608D02*
X72695528Y33069893D01*
X72695528Y33069893D02*
X72629005Y33215036D01*
X72629005Y33215036D02*
X72562481Y33287608D01*
X72562481Y33287608D02*
X72429433Y33360179D01*
D13*
X50624034Y6718783D02*
X50695462Y6790211D01*
X50695462Y6790211D02*
X50766891Y6933068D01*
X50766891Y6933068D02*
X50766891Y7290211D01*
X50766891Y7290211D02*
X50695462Y7433068D01*
X50695462Y7433068D02*
X50624034Y7504497D01*
X50624034Y7504497D02*
X50481177Y7575926D01*
X50481177Y7575926D02*
X50338320Y7575926D01*
X50338320Y7575926D02*
X50124034Y7504497D01*
X50124034Y7504497D02*
X49266891Y6647354D01*
X49266891Y6647354D02*
X49266891Y7575926D01*
X50766891Y8504497D02*
X50766891Y8647354D01*
X50766891Y8647354D02*
X50695462Y8790211D01*
X50695462Y8790211D02*
X50624034Y8861639D01*
X50624034Y8861639D02*
X50481177Y8933068D01*
X50481177Y8933068D02*
X50195462Y9004497D01*
X50195462Y9004497D02*
X49838320Y9004497D01*
X49838320Y9004497D02*
X49552605Y8933068D01*
X49552605Y8933068D02*
X49409748Y8861639D01*
X49409748Y8861639D02*
X49338320Y8790211D01*
X49338320Y8790211D02*
X49266891Y8647354D01*
X49266891Y8647354D02*
X49266891Y8504497D01*
X49266891Y8504497D02*
X49338320Y8361639D01*
X49338320Y8361639D02*
X49409748Y8290211D01*
X49409748Y8290211D02*
X49552605Y8218782D01*
X49552605Y8218782D02*
X49838320Y8147354D01*
X49838320Y8147354D02*
X50195462Y8147354D01*
X50195462Y8147354D02*
X50481177Y8218782D01*
X50481177Y8218782D02*
X50624034Y8290211D01*
X50624034Y8290211D02*
X50695462Y8361639D01*
X50695462Y8361639D02*
X50766891Y8504497D01*
X50838320Y10718782D02*
X48909748Y9433068D01*
X50766891Y11861639D02*
X50766891Y11575925D01*
X50766891Y11575925D02*
X50695462Y11433068D01*
X50695462Y11433068D02*
X50624034Y11361639D01*
X50624034Y11361639D02*
X50409748Y11218782D01*
X50409748Y11218782D02*
X50124034Y11147354D01*
X50124034Y11147354D02*
X49552605Y11147354D01*
X49552605Y11147354D02*
X49409748Y11218782D01*
X49409748Y11218782D02*
X49338320Y11290211D01*
X49338320Y11290211D02*
X49266891Y11433068D01*
X49266891Y11433068D02*
X49266891Y11718782D01*
X49266891Y11718782D02*
X49338320Y11861639D01*
X49338320Y11861639D02*
X49409748Y11933068D01*
X49409748Y11933068D02*
X49552605Y12004497D01*
X49552605Y12004497D02*
X49909748Y12004497D01*
X49909748Y12004497D02*
X50052605Y11933068D01*
X50052605Y11933068D02*
X50124034Y11861639D01*
X50124034Y11861639D02*
X50195462Y11718782D01*
X50195462Y11718782D02*
X50195462Y11433068D01*
X50195462Y11433068D02*
X50124034Y11290211D01*
X50124034Y11290211D02*
X50052605Y11218782D01*
X50052605Y11218782D02*
X49909748Y11147354D01*
X50766891Y12933068D02*
X50766891Y13075925D01*
X50766891Y13075925D02*
X50695462Y13218782D01*
X50695462Y13218782D02*
X50624034Y13290210D01*
X50624034Y13290210D02*
X50481177Y13361639D01*
X50481177Y13361639D02*
X50195462Y13433068D01*
X50195462Y13433068D02*
X49838320Y13433068D01*
X49838320Y13433068D02*
X49552605Y13361639D01*
X49552605Y13361639D02*
X49409748Y13290210D01*
X49409748Y13290210D02*
X49338320Y13218782D01*
X49338320Y13218782D02*
X49266891Y13075925D01*
X49266891Y13075925D02*
X49266891Y12933068D01*
X49266891Y12933068D02*
X49338320Y12790210D01*
X49338320Y12790210D02*
X49409748Y12718782D01*
X49409748Y12718782D02*
X49552605Y12647353D01*
X49552605Y12647353D02*
X49838320Y12575925D01*
X49838320Y12575925D02*
X50195462Y12575925D01*
X50195462Y12575925D02*
X50481177Y12647353D01*
X50481177Y12647353D02*
X50624034Y12718782D01*
X50624034Y12718782D02*
X50695462Y12790210D01*
X50695462Y12790210D02*
X50766891Y12933068D01*
X99026891Y6139354D02*
X99026891Y7067926D01*
X99026891Y7067926D02*
X98455462Y6567926D01*
X98455462Y6567926D02*
X98455462Y6782211D01*
X98455462Y6782211D02*
X98384034Y6925068D01*
X98384034Y6925068D02*
X98312605Y6996497D01*
X98312605Y6996497D02*
X98169748Y7067926D01*
X98169748Y7067926D02*
X97812605Y7067926D01*
X97812605Y7067926D02*
X97669748Y6996497D01*
X97669748Y6996497D02*
X97598320Y6925068D01*
X97598320Y6925068D02*
X97526891Y6782211D01*
X97526891Y6782211D02*
X97526891Y6353640D01*
X97526891Y6353640D02*
X97598320Y6210783D01*
X97598320Y6210783D02*
X97669748Y6139354D01*
X97526891Y7782211D02*
X97526891Y8067925D01*
X97526891Y8067925D02*
X97598320Y8210782D01*
X97598320Y8210782D02*
X97669748Y8282211D01*
X97669748Y8282211D02*
X97884034Y8425068D01*
X97884034Y8425068D02*
X98169748Y8496497D01*
X98169748Y8496497D02*
X98741177Y8496497D01*
X98741177Y8496497D02*
X98884034Y8425068D01*
X98884034Y8425068D02*
X98955462Y8353639D01*
X98955462Y8353639D02*
X99026891Y8210782D01*
X99026891Y8210782D02*
X99026891Y7925068D01*
X99026891Y7925068D02*
X98955462Y7782211D01*
X98955462Y7782211D02*
X98884034Y7710782D01*
X98884034Y7710782D02*
X98741177Y7639354D01*
X98741177Y7639354D02*
X98384034Y7639354D01*
X98384034Y7639354D02*
X98241177Y7710782D01*
X98241177Y7710782D02*
X98169748Y7782211D01*
X98169748Y7782211D02*
X98098320Y7925068D01*
X98098320Y7925068D02*
X98098320Y8210782D01*
X98098320Y8210782D02*
X98169748Y8353639D01*
X98169748Y8353639D02*
X98241177Y8425068D01*
X98241177Y8425068D02*
X98384034Y8496497D01*
X99098320Y17067924D02*
X97169748Y15782210D01*
X99026891Y17425067D02*
X99026891Y18425067D01*
X99026891Y18425067D02*
X97526891Y17782210D01*
X97526891Y19067924D02*
X97526891Y19353638D01*
X97526891Y19353638D02*
X97598320Y19496495D01*
X97598320Y19496495D02*
X97669748Y19567924D01*
X97669748Y19567924D02*
X97884034Y19710781D01*
X97884034Y19710781D02*
X98169748Y19782210D01*
X98169748Y19782210D02*
X98741177Y19782210D01*
X98741177Y19782210D02*
X98884034Y19710781D01*
X98884034Y19710781D02*
X98955462Y19639352D01*
X98955462Y19639352D02*
X99026891Y19496495D01*
X99026891Y19496495D02*
X99026891Y19210781D01*
X99026891Y19210781D02*
X98955462Y19067924D01*
X98955462Y19067924D02*
X98884034Y18996495D01*
X98884034Y18996495D02*
X98741177Y18925067D01*
X98741177Y18925067D02*
X98384034Y18925067D01*
X98384034Y18925067D02*
X98241177Y18996495D01*
X98241177Y18996495D02*
X98169748Y19067924D01*
X98169748Y19067924D02*
X98098320Y19210781D01*
X98098320Y19210781D02*
X98098320Y19496495D01*
X98098320Y19496495D02*
X98169748Y19639352D01*
X98169748Y19639352D02*
X98241177Y19710781D01*
X98241177Y19710781D02*
X98384034Y19782210D01*
D15*
%TO.C,LOGO2*%
X18978404Y21067484D02*
X19019370Y21054695D01*
X19069819Y21033439D01*
X19094246Y21022016D01*
X19111875Y21019951D01*
X19115773Y21035784D01*
X19115777Y21036232D01*
X19124032Y21051349D01*
X19152501Y21059097D01*
X19207681Y21061279D01*
X19299589Y21061279D01*
X19299589Y20259174D01*
X19115773Y20259174D01*
X19115773Y20812217D01*
X19070078Y20854566D01*
X19055802Y20866602D01*
X19013278Y20887166D01*
X18960912Y20887990D01*
X18889609Y20869844D01*
X18865572Y20868695D01*
X18837376Y20886298D01*
X18799846Y20928138D01*
X18781641Y20951281D01*
X18760111Y20983958D01*
X18756793Y21004758D01*
X18768848Y21022305D01*
X18805855Y21044494D01*
X18863332Y21062055D01*
X18925692Y21070762D01*
X18978404Y21067484D01*
G36*
X18978404Y21067484D02*
G01*
X19019370Y21054695D01*
X19069819Y21033439D01*
X19094246Y21022016D01*
X19111875Y21019951D01*
X19115773Y21035784D01*
X19115777Y21036232D01*
X19124032Y21051349D01*
X19152501Y21059097D01*
X19207681Y21061279D01*
X19299589Y21061279D01*
X19299589Y20259174D01*
X19115773Y20259174D01*
X19115773Y20812217D01*
X19070078Y20854566D01*
X19055802Y20866602D01*
X19013278Y20887166D01*
X18960912Y20887990D01*
X18889609Y20869844D01*
X18865572Y20868695D01*
X18837376Y20886298D01*
X18799846Y20928138D01*
X18781641Y20951281D01*
X18760111Y20983958D01*
X18756793Y21004758D01*
X18768848Y21022305D01*
X18805855Y21044494D01*
X18863332Y21062055D01*
X18925692Y21070762D01*
X18978404Y21067484D01*
G37*
X19221783Y19796984D02*
X19272270Y19773356D01*
X19316299Y19738722D01*
X19316299Y19773356D01*
X19317396Y19786506D01*
X19327605Y19800448D01*
X19355213Y19806606D01*
X19408207Y19807990D01*
X19500115Y19807990D01*
X19500115Y18989174D01*
X19316299Y18989174D01*
X19316299Y19255756D01*
X19316277Y19271060D01*
X19314709Y19378640D01*
X19310861Y19466273D01*
X19305007Y19529476D01*
X19297421Y19563771D01*
X19290456Y19576718D01*
X19247580Y19617322D01*
X19189178Y19635296D01*
X19125406Y19626911D01*
X19109764Y19621228D01*
X19076441Y19611183D01*
X19053667Y19614302D01*
X19030751Y19634721D01*
X18997003Y19676573D01*
X18942267Y19745683D01*
X18980740Y19776836D01*
X19017312Y19795588D01*
X19081553Y19808253D01*
X19153960Y19808667D01*
X19221783Y19796984D01*
G36*
X19221783Y19796984D02*
G01*
X19272270Y19773356D01*
X19316299Y19738722D01*
X19316299Y19773356D01*
X19317396Y19786506D01*
X19327605Y19800448D01*
X19355213Y19806606D01*
X19408207Y19807990D01*
X19500115Y19807990D01*
X19500115Y18989174D01*
X19316299Y18989174D01*
X19316299Y19255756D01*
X19316277Y19271060D01*
X19314709Y19378640D01*
X19310861Y19466273D01*
X19305007Y19529476D01*
X19297421Y19563771D01*
X19290456Y19576718D01*
X19247580Y19617322D01*
X19189178Y19635296D01*
X19125406Y19626911D01*
X19109764Y19621228D01*
X19076441Y19611183D01*
X19053667Y19614302D01*
X19030751Y19634721D01*
X18997003Y19676573D01*
X18942267Y19745683D01*
X18980740Y19776836D01*
X19017312Y19795588D01*
X19081553Y19808253D01*
X19153960Y19808667D01*
X19221783Y19796984D01*
G37*
X22708536Y18989174D02*
X22541431Y18989174D01*
X22541431Y19247099D01*
X22541246Y19307095D01*
X22539346Y19406463D01*
X22534536Y19480027D01*
X22525772Y19532873D01*
X22512010Y19570086D01*
X22492207Y19596751D01*
X22465320Y19617954D01*
X22435968Y19633753D01*
X22401211Y19638233D01*
X22351778Y19628271D01*
X22335893Y19624124D01*
X22296240Y19617882D01*
X22267887Y19626825D01*
X22235026Y19654505D01*
X22228790Y19660525D01*
X22194314Y19697763D01*
X22172081Y19728040D01*
X22169031Y19735334D01*
X22175074Y19762268D01*
X22205718Y19783802D01*
X22254083Y19798914D01*
X22313286Y19806586D01*
X22376448Y19805796D01*
X22436687Y19795525D01*
X22487122Y19774752D01*
X22503108Y19765052D01*
X22530022Y19750855D01*
X22539984Y19754106D01*
X22541431Y19774814D01*
X22541770Y19782249D01*
X22549832Y19798718D01*
X22574839Y19806214D01*
X22624984Y19807990D01*
X22708536Y19807990D01*
X22708536Y18989174D01*
G36*
X22708536Y18989174D02*
G01*
X22541431Y18989174D01*
X22541431Y19247099D01*
X22541246Y19307095D01*
X22539346Y19406463D01*
X22534536Y19480027D01*
X22525772Y19532873D01*
X22512010Y19570086D01*
X22492207Y19596751D01*
X22465320Y19617954D01*
X22435968Y19633753D01*
X22401211Y19638233D01*
X22351778Y19628271D01*
X22335893Y19624124D01*
X22296240Y19617882D01*
X22267887Y19626825D01*
X22235026Y19654505D01*
X22228790Y19660525D01*
X22194314Y19697763D01*
X22172081Y19728040D01*
X22169031Y19735334D01*
X22175074Y19762268D01*
X22205718Y19783802D01*
X22254083Y19798914D01*
X22313286Y19806586D01*
X22376448Y19805796D01*
X22436687Y19795525D01*
X22487122Y19774752D01*
X22503108Y19765052D01*
X22530022Y19750855D01*
X22539984Y19754106D01*
X22541431Y19774814D01*
X22541770Y19782249D01*
X22549832Y19798718D01*
X22574839Y19806214D01*
X22624984Y19807990D01*
X22708536Y19807990D01*
X22708536Y18989174D01*
G37*
X19633799Y20801167D02*
X19635209Y20684150D01*
X19640727Y20589642D01*
X19651905Y20520949D01*
X19670292Y20474222D01*
X19697437Y20445611D01*
X19734888Y20431268D01*
X19784194Y20427342D01*
X19831272Y20430846D01*
X19869294Y20444561D01*
X19896930Y20472345D01*
X19915729Y20518049D01*
X19927239Y20585521D01*
X19933010Y20678611D01*
X19934589Y20801167D01*
X19934589Y21061279D01*
X20101694Y21061279D01*
X20101694Y20747696D01*
X20101408Y20663995D01*
X20099179Y20555757D01*
X20093589Y20473211D01*
X20083281Y20411632D01*
X20066903Y20366295D01*
X20043099Y20332474D01*
X20010516Y20305443D01*
X19967799Y20280479D01*
X19878097Y20248875D01*
X19784481Y20246813D01*
X19696216Y20275917D01*
X19657706Y20294783D01*
X19638600Y20297603D01*
X19633799Y20284272D01*
X19625829Y20269304D01*
X19597298Y20261419D01*
X19541892Y20259174D01*
X19449984Y20259174D01*
X19449984Y21061279D01*
X19633799Y21061279D01*
X19633799Y20801167D01*
G36*
X19633799Y20801167D02*
G01*
X19635209Y20684150D01*
X19640727Y20589642D01*
X19651905Y20520949D01*
X19670292Y20474222D01*
X19697437Y20445611D01*
X19734888Y20431268D01*
X19784194Y20427342D01*
X19831272Y20430846D01*
X19869294Y20444561D01*
X19896930Y20472345D01*
X19915729Y20518049D01*
X19927239Y20585521D01*
X19933010Y20678611D01*
X19934589Y20801167D01*
X19934589Y21061279D01*
X20101694Y21061279D01*
X20101694Y20747696D01*
X20101408Y20663995D01*
X20099179Y20555757D01*
X20093589Y20473211D01*
X20083281Y20411632D01*
X20066903Y20366295D01*
X20043099Y20332474D01*
X20010516Y20305443D01*
X19967799Y20280479D01*
X19878097Y20248875D01*
X19784481Y20246813D01*
X19696216Y20275917D01*
X19657706Y20294783D01*
X19638600Y20297603D01*
X19633799Y20284272D01*
X19625829Y20269304D01*
X19597298Y20261419D01*
X19541892Y20259174D01*
X19449984Y20259174D01*
X19449984Y21061279D01*
X19633799Y21061279D01*
X19633799Y20801167D01*
G37*
X22427657Y21062860D02*
X22503832Y21038927D01*
X22537419Y21022660D01*
X22554312Y21020980D01*
X22558142Y21035784D01*
X22558145Y21036232D01*
X22566400Y21051349D01*
X22594869Y21059097D01*
X22650049Y21061279D01*
X22741957Y21061279D01*
X22741957Y20259174D01*
X22558142Y20259174D01*
X22558142Y20535657D01*
X22558016Y20629020D01*
X22557156Y20705712D01*
X22554857Y20759378D01*
X22550410Y20795488D01*
X22543110Y20819509D01*
X22532250Y20836909D01*
X22517125Y20853157D01*
X22496521Y20870439D01*
X22437275Y20893658D01*
X22375086Y20886843D01*
X22318118Y20850119D01*
X22301835Y20833027D01*
X22290146Y20815729D01*
X22282306Y20792710D01*
X22277547Y20758429D01*
X22275099Y20707347D01*
X22274193Y20633923D01*
X22274063Y20532619D01*
X22274063Y20259174D01*
X22090247Y20259174D01*
X22090614Y20555786D01*
X22090639Y20568998D01*
X22092233Y20695165D01*
X22097128Y20793172D01*
X22106584Y20867785D01*
X22121859Y20923769D01*
X22144210Y20965891D01*
X22174895Y20998916D01*
X22215174Y21027610D01*
X22256763Y21047474D01*
X22340520Y21065522D01*
X22427657Y21062860D01*
G36*
X22427657Y21062860D02*
G01*
X22503832Y21038927D01*
X22537419Y21022660D01*
X22554312Y21020980D01*
X22558142Y21035784D01*
X22558145Y21036232D01*
X22566400Y21051349D01*
X22594869Y21059097D01*
X22650049Y21061279D01*
X22741957Y21061279D01*
X22741957Y20259174D01*
X22558142Y20259174D01*
X22558142Y20535657D01*
X22558016Y20629020D01*
X22557156Y20705712D01*
X22554857Y20759378D01*
X22550410Y20795488D01*
X22543110Y20819509D01*
X22532250Y20836909D01*
X22517125Y20853157D01*
X22496521Y20870439D01*
X22437275Y20893658D01*
X22375086Y20886843D01*
X22318118Y20850119D01*
X22301835Y20833027D01*
X22290146Y20815729D01*
X22282306Y20792710D01*
X22277547Y20758429D01*
X22275099Y20707347D01*
X22274193Y20633923D01*
X22274063Y20532619D01*
X22274063Y20259174D01*
X22090247Y20259174D01*
X22090614Y20555786D01*
X22090639Y20568998D01*
X22092233Y20695165D01*
X22097128Y20793172D01*
X22106584Y20867785D01*
X22121859Y20923769D01*
X22144210Y20965891D01*
X22174895Y20998916D01*
X22215174Y21027610D01*
X22256763Y21047474D01*
X22340520Y21065522D01*
X22427657Y21062860D01*
G37*
X18508330Y21057453D02*
X18599511Y21021929D01*
X18676627Y20963287D01*
X18733584Y20882744D01*
X18737430Y20874531D01*
X18761850Y20794433D01*
X18774050Y20698752D01*
X18773954Y20599131D01*
X18761484Y20507212D01*
X18736563Y20434634D01*
X18705793Y20384050D01*
X18638064Y20312390D01*
X18553377Y20266838D01*
X18480922Y20248418D01*
X18370595Y20246407D01*
X18265022Y20274187D01*
X18171402Y20330558D01*
X18110808Y20380504D01*
X18165384Y20436813D01*
X18199864Y20470170D01*
X18231052Y20488742D01*
X18259970Y20484653D01*
X18296957Y20459700D01*
X18311705Y20449932D01*
X18374011Y20429938D01*
X18445623Y20429951D01*
X18512670Y20450557D01*
X18537916Y20467105D01*
X18574948Y20515970D01*
X18593512Y20587742D01*
X18594707Y20685564D01*
X18594703Y20685619D01*
X18580891Y20773138D01*
X18550464Y20833819D01*
X18500396Y20871355D01*
X18427661Y20889439D01*
X18381857Y20891871D01*
X18341836Y20881911D01*
X18300790Y20853058D01*
X18247674Y20808364D01*
X18180408Y20862421D01*
X18155833Y20883130D01*
X18125136Y20912801D01*
X18113142Y20930287D01*
X18117389Y20938167D01*
X18141855Y20962360D01*
X18180830Y20993129D01*
X18211325Y21013151D01*
X18308144Y21054281D01*
X18409177Y21068643D01*
X18508330Y21057453D01*
G36*
X18508330Y21057453D02*
G01*
X18599511Y21021929D01*
X18676627Y20963287D01*
X18733584Y20882744D01*
X18737430Y20874531D01*
X18761850Y20794433D01*
X18774050Y20698752D01*
X18773954Y20599131D01*
X18761484Y20507212D01*
X18736563Y20434634D01*
X18705793Y20384050D01*
X18638064Y20312390D01*
X18553377Y20266838D01*
X18480922Y20248418D01*
X18370595Y20246407D01*
X18265022Y20274187D01*
X18171402Y20330558D01*
X18110808Y20380504D01*
X18165384Y20436813D01*
X18199864Y20470170D01*
X18231052Y20488742D01*
X18259970Y20484653D01*
X18296957Y20459700D01*
X18311705Y20449932D01*
X18374011Y20429938D01*
X18445623Y20429951D01*
X18512670Y20450557D01*
X18537916Y20467105D01*
X18574948Y20515970D01*
X18593512Y20587742D01*
X18594707Y20685564D01*
X18594703Y20685619D01*
X18580891Y20773138D01*
X18550464Y20833819D01*
X18500396Y20871355D01*
X18427661Y20889439D01*
X18381857Y20891871D01*
X18341836Y20881911D01*
X18300790Y20853058D01*
X18247674Y20808364D01*
X18180408Y20862421D01*
X18155833Y20883130D01*
X18125136Y20912801D01*
X18113142Y20930287D01*
X18117389Y20938167D01*
X18141855Y20962360D01*
X18180830Y20993129D01*
X18211325Y21013151D01*
X18308144Y21054281D01*
X18409177Y21068643D01*
X18508330Y21057453D01*
G37*
X20899702Y20602584D02*
X20895040Y20549699D01*
X20874434Y20448735D01*
X20837577Y20371693D01*
X20781481Y20313499D01*
X20703154Y20269083D01*
X20672743Y20258512D01*
X20593983Y20245323D01*
X20511104Y20245682D01*
X20441170Y20260169D01*
X20439796Y20260695D01*
X20383438Y20293848D01*
X20326500Y20345170D01*
X20279255Y20403860D01*
X20251975Y20459116D01*
X20243889Y20499507D01*
X20236966Y20575131D01*
X20235805Y20642539D01*
X20404162Y20642539D01*
X20414227Y20561686D01*
X20437871Y20495249D01*
X20473693Y20451838D01*
X20487271Y20444384D01*
X20539047Y20430836D01*
X20598933Y20428049D01*
X20649316Y20437463D01*
X20668980Y20450964D01*
X20696582Y20498177D01*
X20713950Y20572070D01*
X20719984Y20669037D01*
X20719887Y20696950D01*
X20717791Y20753510D01*
X20710820Y20790406D01*
X20696195Y20817669D01*
X20671138Y20845328D01*
X20623456Y20878851D01*
X20561383Y20892557D01*
X20501409Y20879503D01*
X20451611Y20841749D01*
X20420065Y20781351D01*
X20409078Y20729198D01*
X20404162Y20642539D01*
X20235805Y20642539D01*
X20235483Y20661258D01*
X20239198Y20746981D01*
X20247865Y20821395D01*
X20261242Y20873594D01*
X20292399Y20932694D01*
X20358528Y21005360D01*
X20443051Y21051390D01*
X20543454Y21069610D01*
X20657225Y21058842D01*
X20676155Y21054255D01*
X20764315Y21014700D01*
X20830748Y20949759D01*
X20875455Y20859429D01*
X20898438Y20743706D01*
X20899107Y20669037D01*
X20899702Y20602584D01*
G36*
X20899702Y20602584D02*
G01*
X20895040Y20549699D01*
X20874434Y20448735D01*
X20837577Y20371693D01*
X20781481Y20313499D01*
X20703154Y20269083D01*
X20672743Y20258512D01*
X20593983Y20245323D01*
X20511104Y20245682D01*
X20441170Y20260169D01*
X20439796Y20260695D01*
X20383438Y20293848D01*
X20326500Y20345170D01*
X20279255Y20403860D01*
X20251975Y20459116D01*
X20243889Y20499507D01*
X20236966Y20575131D01*
X20235805Y20642539D01*
X20404162Y20642539D01*
X20414227Y20561686D01*
X20437871Y20495249D01*
X20473693Y20451838D01*
X20487271Y20444384D01*
X20539047Y20430836D01*
X20598933Y20428049D01*
X20649316Y20437463D01*
X20668980Y20450964D01*
X20696582Y20498177D01*
X20713950Y20572070D01*
X20719984Y20669037D01*
X20719887Y20696950D01*
X20717791Y20753510D01*
X20710820Y20790406D01*
X20696195Y20817669D01*
X20671138Y20845328D01*
X20623456Y20878851D01*
X20561383Y20892557D01*
X20501409Y20879503D01*
X20451611Y20841749D01*
X20420065Y20781351D01*
X20409078Y20729198D01*
X20404162Y20642539D01*
X20235805Y20642539D01*
X20235483Y20661258D01*
X20239198Y20746981D01*
X20247865Y20821395D01*
X20261242Y20873594D01*
X20292399Y20932694D01*
X20358528Y21005360D01*
X20443051Y21051390D01*
X20543454Y21069610D01*
X20657225Y21058842D01*
X20676155Y21054255D01*
X20764315Y21014700D01*
X20830748Y20949759D01*
X20875455Y20859429D01*
X20898438Y20743706D01*
X20899107Y20669037D01*
X20899702Y20602584D01*
G37*
X21032783Y19545593D02*
X21055375Y19478190D01*
X21082099Y19403573D01*
X21104416Y19347046D01*
X21120479Y19313214D01*
X21128444Y19306684D01*
X21130366Y19312363D01*
X21140769Y19347193D01*
X21157339Y19405365D01*
X21178236Y19480367D01*
X21201620Y19565687D01*
X21265238Y19799634D01*
X21362375Y19804710D01*
X21370574Y19805116D01*
X21422955Y19805654D01*
X21448126Y19800277D01*
X21451332Y19787999D01*
X21447282Y19776008D01*
X21433961Y19734966D01*
X21413104Y19669964D01*
X21386199Y19585652D01*
X21354732Y19486678D01*
X21320189Y19377694D01*
X21197225Y18989174D01*
X21043409Y18989174D01*
X20970933Y19235654D01*
X20957550Y19280915D01*
X20932816Y19363198D01*
X20911682Y19431760D01*
X20896049Y19480475D01*
X20887822Y19503217D01*
X20885478Y19504913D01*
X20874071Y19490244D01*
X20857785Y19451452D01*
X20839326Y19394598D01*
X20838351Y19391259D01*
X20813637Y19307353D01*
X20785361Y19212349D01*
X20759450Y19126172D01*
X20717434Y18987447D01*
X20562470Y18997529D01*
X20490707Y19223121D01*
X20459200Y19322246D01*
X20423907Y19433419D01*
X20390113Y19539996D01*
X20362138Y19628351D01*
X20305333Y19807990D01*
X20495376Y19807990D01*
X20541440Y19636707D01*
X20553685Y19591449D01*
X20576845Y19507075D01*
X20598292Y19430316D01*
X20614596Y19373516D01*
X20641689Y19281608D01*
X20728094Y19540621D01*
X20814500Y19799634D01*
X20880590Y19804596D01*
X20946679Y19809557D01*
X21032783Y19545593D01*
G36*
X21032783Y19545593D02*
G01*
X21055375Y19478190D01*
X21082099Y19403573D01*
X21104416Y19347046D01*
X21120479Y19313214D01*
X21128444Y19306684D01*
X21130366Y19312363D01*
X21140769Y19347193D01*
X21157339Y19405365D01*
X21178236Y19480367D01*
X21201620Y19565687D01*
X21265238Y19799634D01*
X21362375Y19804710D01*
X21370574Y19805116D01*
X21422955Y19805654D01*
X21448126Y19800277D01*
X21451332Y19787999D01*
X21447282Y19776008D01*
X21433961Y19734966D01*
X21413104Y19669964D01*
X21386199Y19585652D01*
X21354732Y19486678D01*
X21320189Y19377694D01*
X21197225Y18989174D01*
X21043409Y18989174D01*
X20970933Y19235654D01*
X20957550Y19280915D01*
X20932816Y19363198D01*
X20911682Y19431760D01*
X20896049Y19480475D01*
X20887822Y19503217D01*
X20885478Y19504913D01*
X20874071Y19490244D01*
X20857785Y19451452D01*
X20839326Y19394598D01*
X20838351Y19391259D01*
X20813637Y19307353D01*
X20785361Y19212349D01*
X20759450Y19126172D01*
X20717434Y18987447D01*
X20562470Y18997529D01*
X20490707Y19223121D01*
X20459200Y19322246D01*
X20423907Y19433419D01*
X20390113Y19539996D01*
X20362138Y19628351D01*
X20305333Y19807990D01*
X20495376Y19807990D01*
X20541440Y19636707D01*
X20553685Y19591449D01*
X20576845Y19507075D01*
X20598292Y19430316D01*
X20614596Y19373516D01*
X20641689Y19281608D01*
X20728094Y19540621D01*
X20814500Y19799634D01*
X20880590Y19804596D01*
X20946679Y19809557D01*
X21032783Y19545593D01*
G37*
X22172706Y19336041D02*
X22170588Y19264599D01*
X22166328Y19214834D01*
X22165598Y19210273D01*
X22136926Y19128696D01*
X22084566Y19059535D01*
X22015878Y19012679D01*
X21942116Y18993284D01*
X21851388Y18994789D01*
X21767925Y19020794D01*
X21746185Y19031768D01*
X21718230Y19043526D01*
X21707592Y19039868D01*
X21705905Y19020794D01*
X21705130Y19011282D01*
X21695127Y18997215D01*
X21667343Y18990738D01*
X21613997Y18989174D01*
X21522089Y18989174D01*
X21522089Y19390372D01*
X21705905Y19390372D01*
X21707222Y19320868D01*
X21712568Y19274594D01*
X21723982Y19242893D01*
X21743503Y19216327D01*
X21795049Y19176827D01*
X21855370Y19163585D01*
X21913864Y19179960D01*
X21963130Y19225640D01*
X21976152Y19259066D01*
X21985771Y19318259D01*
X21990000Y19390074D01*
X21988668Y19463733D01*
X21981604Y19528461D01*
X21968637Y19573478D01*
X21964494Y19580860D01*
X21924560Y19617962D01*
X21870442Y19634399D01*
X21812320Y19630576D01*
X21760373Y19606898D01*
X21724783Y19563771D01*
X21723312Y19560144D01*
X21714487Y19519674D01*
X21708262Y19459201D01*
X21705905Y19390372D01*
X21522089Y19390372D01*
X21522089Y20125490D01*
X21705905Y20125490D01*
X21705905Y19735968D01*
X21739952Y19766780D01*
X21772734Y19785931D01*
X21834779Y19801940D01*
X21907309Y19807098D01*
X21978139Y19800765D01*
X22035088Y19782300D01*
X22075848Y19756034D01*
X22117833Y19711288D01*
X22146090Y19651112D01*
X22163075Y19569712D01*
X22171248Y19461295D01*
X22172449Y19417470D01*
X22172536Y19390074D01*
X22172706Y19336041D01*
G36*
X22172706Y19336041D02*
G01*
X22170588Y19264599D01*
X22166328Y19214834D01*
X22165598Y19210273D01*
X22136926Y19128696D01*
X22084566Y19059535D01*
X22015878Y19012679D01*
X21942116Y18993284D01*
X21851388Y18994789D01*
X21767925Y19020794D01*
X21746185Y19031768D01*
X21718230Y19043526D01*
X21707592Y19039868D01*
X21705905Y19020794D01*
X21705130Y19011282D01*
X21695127Y18997215D01*
X21667343Y18990738D01*
X21613997Y18989174D01*
X21522089Y18989174D01*
X21522089Y19390372D01*
X21705905Y19390372D01*
X21707222Y19320868D01*
X21712568Y19274594D01*
X21723982Y19242893D01*
X21743503Y19216327D01*
X21795049Y19176827D01*
X21855370Y19163585D01*
X21913864Y19179960D01*
X21963130Y19225640D01*
X21976152Y19259066D01*
X21985771Y19318259D01*
X21990000Y19390074D01*
X21988668Y19463733D01*
X21981604Y19528461D01*
X21968637Y19573478D01*
X21964494Y19580860D01*
X21924560Y19617962D01*
X21870442Y19634399D01*
X21812320Y19630576D01*
X21760373Y19606898D01*
X21724783Y19563771D01*
X21723312Y19560144D01*
X21714487Y19519674D01*
X21708262Y19459201D01*
X21705905Y19390372D01*
X21522089Y19390372D01*
X21522089Y20125490D01*
X21705905Y20125490D01*
X21705905Y19735968D01*
X21739952Y19766780D01*
X21772734Y19785931D01*
X21834779Y19801940D01*
X21907309Y19807098D01*
X21978139Y19800765D01*
X22035088Y19782300D01*
X22075848Y19756034D01*
X22117833Y19711288D01*
X22146090Y19651112D01*
X22163075Y19569712D01*
X22171248Y19461295D01*
X22172449Y19417470D01*
X22172536Y19390074D01*
X22172706Y19336041D01*
G37*
X25062151Y20614332D02*
X25059993Y20561999D01*
X25055096Y20498181D01*
X25046753Y20452948D01*
X25032976Y20417107D01*
X25011777Y20381464D01*
X25010874Y20380113D01*
X24958673Y20322365D01*
X24894803Y20278320D01*
X24820533Y20252183D01*
X24722830Y20243697D01*
X24627070Y20260384D01*
X24541475Y20300594D01*
X24474265Y20362678D01*
X24454970Y20392012D01*
X24418936Y20483204D01*
X24401064Y20595716D01*
X24401370Y20624176D01*
X24580969Y20624176D01*
X24581308Y20570950D01*
X24586951Y20535416D01*
X24599809Y20508111D01*
X24621792Y20479576D01*
X24652299Y20451260D01*
X24713312Y20425990D01*
X24778826Y20430684D01*
X24841439Y20465804D01*
X24859101Y20482578D01*
X24877959Y20511293D01*
X24888416Y20551654D01*
X24894344Y20614546D01*
X24895977Y20661790D01*
X24887031Y20758272D01*
X24859580Y20827348D01*
X24813501Y20869399D01*
X24759486Y20889535D01*
X24695069Y20887840D01*
X24635357Y20853845D01*
X24621081Y20840903D01*
X24603067Y20818260D01*
X24592379Y20788636D01*
X24586449Y20743218D01*
X24582708Y20673194D01*
X24580969Y20624176D01*
X24401370Y20624176D01*
X24402443Y20724076D01*
X24404202Y20742282D01*
X24428744Y20858888D01*
X24474150Y20949410D01*
X24540515Y21013946D01*
X24627936Y21052596D01*
X24736511Y21065457D01*
X24777531Y21064250D01*
X24861654Y21049480D01*
X24930442Y21014226D01*
X24994574Y20953872D01*
X25004830Y20941758D01*
X25032494Y20900963D01*
X25050675Y20854770D01*
X25060756Y20796232D01*
X25064121Y20718401D01*
X25063049Y20661790D01*
X25062151Y20614332D01*
G36*
X25062151Y20614332D02*
G01*
X25059993Y20561999D01*
X25055096Y20498181D01*
X25046753Y20452948D01*
X25032976Y20417107D01*
X25011777Y20381464D01*
X25010874Y20380113D01*
X24958673Y20322365D01*
X24894803Y20278320D01*
X24820533Y20252183D01*
X24722830Y20243697D01*
X24627070Y20260384D01*
X24541475Y20300594D01*
X24474265Y20362678D01*
X24454970Y20392012D01*
X24418936Y20483204D01*
X24401064Y20595716D01*
X24401370Y20624176D01*
X24580969Y20624176D01*
X24581308Y20570950D01*
X24586951Y20535416D01*
X24599809Y20508111D01*
X24621792Y20479576D01*
X24652299Y20451260D01*
X24713312Y20425990D01*
X24778826Y20430684D01*
X24841439Y20465804D01*
X24859101Y20482578D01*
X24877959Y20511293D01*
X24888416Y20551654D01*
X24894344Y20614546D01*
X24895977Y20661790D01*
X24887031Y20758272D01*
X24859580Y20827348D01*
X24813501Y20869399D01*
X24759486Y20889535D01*
X24695069Y20887840D01*
X24635357Y20853845D01*
X24621081Y20840903D01*
X24603067Y20818260D01*
X24592379Y20788636D01*
X24586449Y20743218D01*
X24582708Y20673194D01*
X24580969Y20624176D01*
X24401370Y20624176D01*
X24402443Y20724076D01*
X24404202Y20742282D01*
X24428744Y20858888D01*
X24474150Y20949410D01*
X24540515Y21013946D01*
X24627936Y21052596D01*
X24736511Y21065457D01*
X24777531Y21064250D01*
X24861654Y21049480D01*
X24930442Y21014226D01*
X24994574Y20953872D01*
X25004830Y20941758D01*
X25032494Y20900963D01*
X25050675Y20854770D01*
X25060756Y20796232D01*
X25064121Y20718401D01*
X25063049Y20661790D01*
X25062151Y20614332D01*
G37*
X18091087Y20714073D02*
X18088936Y20586171D01*
X18088656Y20583656D01*
X18064629Y20466295D01*
X18021219Y20375048D01*
X17957073Y20307909D01*
X17870839Y20262876D01*
X17855009Y20257726D01*
X17756893Y20242549D01*
X17655418Y20251012D01*
X17561079Y20281255D01*
X17484369Y20331415D01*
X17426910Y20384503D01*
X17487986Y20432796D01*
X17549061Y20481089D01*
X17622667Y20445329D01*
X17707835Y20416353D01*
X17783021Y20415485D01*
X17844536Y20442108D01*
X17888803Y20495545D01*
X17904672Y20527564D01*
X17913531Y20554929D01*
X17908405Y20573415D01*
X17885407Y20584762D01*
X17840651Y20590713D01*
X17770249Y20593007D01*
X17670313Y20593384D01*
X17428010Y20593384D01*
X17428010Y20709270D01*
X17429820Y20760145D01*
X17600426Y20760145D01*
X17608620Y20750788D01*
X17632880Y20745917D01*
X17678992Y20744070D01*
X17752739Y20743779D01*
X17792286Y20744243D01*
X17854691Y20747312D01*
X17897023Y20752687D01*
X17912615Y20759703D01*
X17908626Y20785592D01*
X17880508Y20835130D01*
X17833652Y20875825D01*
X17777794Y20900405D01*
X17722671Y20901595D01*
X17681178Y20881885D01*
X17634160Y20837032D01*
X17604265Y20781378D01*
X17602514Y20775455D01*
X17600426Y20760145D01*
X17429820Y20760145D01*
X17430191Y20770562D01*
X17436596Y20831204D01*
X17445745Y20872198D01*
X17452415Y20887848D01*
X17500963Y20957551D01*
X17571111Y21015687D01*
X17653146Y21053751D01*
X17695936Y21064146D01*
X17797890Y21068878D01*
X17888735Y21044807D01*
X17965973Y20994612D01*
X18027109Y20920973D01*
X18069646Y20826567D01*
X18082391Y20759703D01*
X18091087Y20714073D01*
G36*
X18091087Y20714073D02*
G01*
X18088936Y20586171D01*
X18088656Y20583656D01*
X18064629Y20466295D01*
X18021219Y20375048D01*
X17957073Y20307909D01*
X17870839Y20262876D01*
X17855009Y20257726D01*
X17756893Y20242549D01*
X17655418Y20251012D01*
X17561079Y20281255D01*
X17484369Y20331415D01*
X17426910Y20384503D01*
X17487986Y20432796D01*
X17549061Y20481089D01*
X17622667Y20445329D01*
X17707835Y20416353D01*
X17783021Y20415485D01*
X17844536Y20442108D01*
X17888803Y20495545D01*
X17904672Y20527564D01*
X17913531Y20554929D01*
X17908405Y20573415D01*
X17885407Y20584762D01*
X17840651Y20590713D01*
X17770249Y20593007D01*
X17670313Y20593384D01*
X17428010Y20593384D01*
X17428010Y20709270D01*
X17429820Y20760145D01*
X17600426Y20760145D01*
X17608620Y20750788D01*
X17632880Y20745917D01*
X17678992Y20744070D01*
X17752739Y20743779D01*
X17792286Y20744243D01*
X17854691Y20747312D01*
X17897023Y20752687D01*
X17912615Y20759703D01*
X17908626Y20785592D01*
X17880508Y20835130D01*
X17833652Y20875825D01*
X17777794Y20900405D01*
X17722671Y20901595D01*
X17681178Y20881885D01*
X17634160Y20837032D01*
X17604265Y20781378D01*
X17602514Y20775455D01*
X17600426Y20760145D01*
X17429820Y20760145D01*
X17430191Y20770562D01*
X17436596Y20831204D01*
X17445745Y20872198D01*
X17452415Y20887848D01*
X17500963Y20957551D01*
X17571111Y21015687D01*
X17653146Y21053751D01*
X17695936Y21064146D01*
X17797890Y21068878D01*
X17888735Y21044807D01*
X17965973Y20994612D01*
X18027109Y20920973D01*
X18069646Y20826567D01*
X18082391Y20759703D01*
X18091087Y20714073D01*
G37*
X21386119Y21061821D02*
X21482629Y21037632D01*
X21553131Y20992798D01*
X21598027Y20927019D01*
X21617719Y20839993D01*
X21613732Y20756677D01*
X21584955Y20686403D01*
X21529768Y20634446D01*
X21447068Y20599790D01*
X21335746Y20581421D01*
X21263412Y20571794D01*
X21197390Y20550963D01*
X21163303Y20520796D01*
X21161246Y20481348D01*
X21174963Y20456751D01*
X21217446Y20427599D01*
X21277837Y20413811D01*
X21348609Y20415696D01*
X21422232Y20433567D01*
X21491177Y20467733D01*
X21559917Y20513223D01*
X21680839Y20390865D01*
X21630707Y20349945D01*
X21611214Y20335727D01*
X21556370Y20303425D01*
X21497023Y20275591D01*
X21450055Y20259617D01*
X21381282Y20248046D01*
X21296497Y20247893D01*
X21192526Y20260633D01*
X21098865Y20292923D01*
X21032569Y20344214D01*
X20993480Y20414635D01*
X20981442Y20504313D01*
X20990156Y20583203D01*
X21018128Y20647793D01*
X21068488Y20694049D01*
X21144423Y20724812D01*
X21249120Y20742922D01*
X21261145Y20744233D01*
X21326331Y20752594D01*
X21379210Y20761343D01*
X21409293Y20768787D01*
X21419332Y20774780D01*
X21436304Y20805687D01*
X21433548Y20845250D01*
X21410866Y20879595D01*
X21398956Y20887085D01*
X21349326Y20899087D01*
X21285220Y20898280D01*
X21218373Y20885508D01*
X21160519Y20861614D01*
X21099728Y20825746D01*
X21052574Y20880848D01*
X21041132Y20894847D01*
X21015354Y20932347D01*
X21004742Y20957763D01*
X21015886Y20973347D01*
X21050364Y20997674D01*
X21100148Y21023852D01*
X21107163Y21027052D01*
X21172812Y21052152D01*
X21236092Y21064153D01*
X21314620Y21066563D01*
X21386119Y21061821D01*
G36*
X21386119Y21061821D02*
G01*
X21482629Y21037632D01*
X21553131Y20992798D01*
X21598027Y20927019D01*
X21617719Y20839993D01*
X21613732Y20756677D01*
X21584955Y20686403D01*
X21529768Y20634446D01*
X21447068Y20599790D01*
X21335746Y20581421D01*
X21263412Y20571794D01*
X21197390Y20550963D01*
X21163303Y20520796D01*
X21161246Y20481348D01*
X21174963Y20456751D01*
X21217446Y20427599D01*
X21277837Y20413811D01*
X21348609Y20415696D01*
X21422232Y20433567D01*
X21491177Y20467733D01*
X21559917Y20513223D01*
X21680839Y20390865D01*
X21630707Y20349945D01*
X21611214Y20335727D01*
X21556370Y20303425D01*
X21497023Y20275591D01*
X21450055Y20259617D01*
X21381282Y20248046D01*
X21296497Y20247893D01*
X21192526Y20260633D01*
X21098865Y20292923D01*
X21032569Y20344214D01*
X20993480Y20414635D01*
X20981442Y20504313D01*
X20990156Y20583203D01*
X21018128Y20647793D01*
X21068488Y20694049D01*
X21144423Y20724812D01*
X21249120Y20742922D01*
X21261145Y20744233D01*
X21326331Y20752594D01*
X21379210Y20761343D01*
X21409293Y20768787D01*
X21419332Y20774780D01*
X21436304Y20805687D01*
X21433548Y20845250D01*
X21410866Y20879595D01*
X21398956Y20887085D01*
X21349326Y20899087D01*
X21285220Y20898280D01*
X21218373Y20885508D01*
X21160519Y20861614D01*
X21099728Y20825746D01*
X21052574Y20880848D01*
X21041132Y20894847D01*
X21015354Y20932347D01*
X21004742Y20957763D01*
X21015886Y20973347D01*
X21050364Y20997674D01*
X21100148Y21023852D01*
X21107163Y21027052D01*
X21172812Y21052152D01*
X21236092Y21064153D01*
X21314620Y21066563D01*
X21386119Y21061821D01*
G37*
X18948138Y19398582D02*
X18945965Y19336202D01*
X18926175Y19216906D01*
X18885454Y19123102D01*
X18823444Y19054119D01*
X18739786Y19009288D01*
X18712757Y19001368D01*
X18616244Y18990305D01*
X18514335Y18999641D01*
X18422286Y19028454D01*
X18389858Y19044808D01*
X18343363Y19072822D01*
X18315185Y19095873D01*
X18311025Y19101140D01*
X18303242Y19120401D01*
X18314456Y19141339D01*
X18348606Y19173050D01*
X18365087Y19186855D01*
X18397552Y19212117D01*
X18414575Y19222442D01*
X18419452Y19221379D01*
X18447401Y19209881D01*
X18489128Y19189700D01*
X18502733Y19183062D01*
X18582991Y19158411D01*
X18652717Y19164765D01*
X18713860Y19202233D01*
X18720975Y19209156D01*
X18754988Y19252522D01*
X18774422Y19294141D01*
X18785186Y19340095D01*
X18280247Y19340095D01*
X18280340Y19427825D01*
X18280393Y19436550D01*
X18287210Y19506937D01*
X18464063Y19506937D01*
X18466151Y19492339D01*
X18476872Y19482278D01*
X18502427Y19476694D01*
X18549009Y19474292D01*
X18622813Y19473779D01*
X18663844Y19474311D01*
X18724408Y19477420D01*
X18766065Y19482688D01*
X18781563Y19489402D01*
X18768346Y19544667D01*
X18729650Y19596248D01*
X18673841Y19632034D01*
X18609371Y19644412D01*
X18561905Y19630458D01*
X18514458Y19596347D01*
X18478389Y19551904D01*
X18464063Y19506937D01*
X18287210Y19506937D01*
X18290847Y19544484D01*
X18321275Y19632287D01*
X18374369Y19707977D01*
X18406758Y19739995D01*
X18473652Y19782855D01*
X18553527Y19803622D01*
X18654420Y19805082D01*
X18703155Y19799357D01*
X18793116Y19769629D01*
X18861991Y19715522D01*
X18910384Y19636202D01*
X18938899Y19530834D01*
X18941794Y19489402D01*
X18948138Y19398582D01*
G36*
X18948138Y19398582D02*
G01*
X18945965Y19336202D01*
X18926175Y19216906D01*
X18885454Y19123102D01*
X18823444Y19054119D01*
X18739786Y19009288D01*
X18712757Y19001368D01*
X18616244Y18990305D01*
X18514335Y18999641D01*
X18422286Y19028454D01*
X18389858Y19044808D01*
X18343363Y19072822D01*
X18315185Y19095873D01*
X18311025Y19101140D01*
X18303242Y19120401D01*
X18314456Y19141339D01*
X18348606Y19173050D01*
X18365087Y19186855D01*
X18397552Y19212117D01*
X18414575Y19222442D01*
X18419452Y19221379D01*
X18447401Y19209881D01*
X18489128Y19189700D01*
X18502733Y19183062D01*
X18582991Y19158411D01*
X18652717Y19164765D01*
X18713860Y19202233D01*
X18720975Y19209156D01*
X18754988Y19252522D01*
X18774422Y19294141D01*
X18785186Y19340095D01*
X18280247Y19340095D01*
X18280340Y19427825D01*
X18280393Y19436550D01*
X18287210Y19506937D01*
X18464063Y19506937D01*
X18466151Y19492339D01*
X18476872Y19482278D01*
X18502427Y19476694D01*
X18549009Y19474292D01*
X18622813Y19473779D01*
X18663844Y19474311D01*
X18724408Y19477420D01*
X18766065Y19482688D01*
X18781563Y19489402D01*
X18768346Y19544667D01*
X18729650Y19596248D01*
X18673841Y19632034D01*
X18609371Y19644412D01*
X18561905Y19630458D01*
X18514458Y19596347D01*
X18478389Y19551904D01*
X18464063Y19506937D01*
X18287210Y19506937D01*
X18290847Y19544484D01*
X18321275Y19632287D01*
X18374369Y19707977D01*
X18406758Y19739995D01*
X18473652Y19782855D01*
X18553527Y19803622D01*
X18654420Y19805082D01*
X18703155Y19799357D01*
X18793116Y19769629D01*
X18861991Y19715522D01*
X18910384Y19636202D01*
X18938899Y19530834D01*
X18941794Y19489402D01*
X18948138Y19398582D01*
G37*
X23523263Y20760609D02*
X23529109Y20643562D01*
X23527648Y20592484D01*
X23511174Y20480857D01*
X23474871Y20392844D01*
X23416840Y20324816D01*
X23335181Y20273149D01*
X23255966Y20249030D01*
X23156591Y20244415D01*
X23056327Y20262163D01*
X22966892Y20301373D01*
X22933750Y20323185D01*
X22897235Y20351144D01*
X22880573Y20369542D01*
X22881518Y20377133D01*
X22900168Y20402997D01*
X22935218Y20434333D01*
X22995961Y20480664D01*
X23067138Y20445116D01*
X23086385Y20436317D01*
X23143043Y20417194D01*
X23190531Y20409569D01*
X23225548Y20415852D01*
X23280498Y20446109D01*
X23326687Y20493080D01*
X23353107Y20547430D01*
X23363870Y20593384D01*
X22858931Y20593384D01*
X22859024Y20681115D01*
X22859789Y20708919D01*
X22865369Y20768581D01*
X23042747Y20768581D01*
X23043072Y20765163D01*
X23052260Y20754519D01*
X23078224Y20747980D01*
X23126499Y20744686D01*
X23202623Y20743779D01*
X23227643Y20743790D01*
X23292622Y20744390D01*
X23331684Y20746985D01*
X23350623Y20753038D01*
X23355231Y20764014D01*
X23351301Y20781378D01*
X23350701Y20783347D01*
X23316847Y20843770D01*
X23263477Y20885371D01*
X23199835Y20900858D01*
X23176311Y20899620D01*
X23132648Y20884804D01*
X23090761Y20847121D01*
X23079478Y20833797D01*
X23053233Y20795744D01*
X23042747Y20768581D01*
X22865369Y20768581D01*
X22866086Y20776251D01*
X22876646Y20831966D01*
X22888221Y20863157D01*
X22928915Y20931000D01*
X22983415Y20992614D01*
X23041050Y21034834D01*
X23057702Y21042673D01*
X23154665Y21068679D01*
X23253680Y21065938D01*
X23346772Y21035608D01*
X23425964Y20978852D01*
X23468798Y20926510D01*
X23503821Y20852772D01*
X23522545Y20764014D01*
X23523263Y20760609D01*
G36*
X23523263Y20760609D02*
G01*
X23529109Y20643562D01*
X23527648Y20592484D01*
X23511174Y20480857D01*
X23474871Y20392844D01*
X23416840Y20324816D01*
X23335181Y20273149D01*
X23255966Y20249030D01*
X23156591Y20244415D01*
X23056327Y20262163D01*
X22966892Y20301373D01*
X22933750Y20323185D01*
X22897235Y20351144D01*
X22880573Y20369542D01*
X22881518Y20377133D01*
X22900168Y20402997D01*
X22935218Y20434333D01*
X22995961Y20480664D01*
X23067138Y20445116D01*
X23086385Y20436317D01*
X23143043Y20417194D01*
X23190531Y20409569D01*
X23225548Y20415852D01*
X23280498Y20446109D01*
X23326687Y20493080D01*
X23353107Y20547430D01*
X23363870Y20593384D01*
X22858931Y20593384D01*
X22859024Y20681115D01*
X22859789Y20708919D01*
X22865369Y20768581D01*
X23042747Y20768581D01*
X23043072Y20765163D01*
X23052260Y20754519D01*
X23078224Y20747980D01*
X23126499Y20744686D01*
X23202623Y20743779D01*
X23227643Y20743790D01*
X23292622Y20744390D01*
X23331684Y20746985D01*
X23350623Y20753038D01*
X23355231Y20764014D01*
X23351301Y20781378D01*
X23350701Y20783347D01*
X23316847Y20843770D01*
X23263477Y20885371D01*
X23199835Y20900858D01*
X23176311Y20899620D01*
X23132648Y20884804D01*
X23090761Y20847121D01*
X23079478Y20833797D01*
X23053233Y20795744D01*
X23042747Y20768581D01*
X22865369Y20768581D01*
X22866086Y20776251D01*
X22876646Y20831966D01*
X22888221Y20863157D01*
X22928915Y20931000D01*
X22983415Y20992614D01*
X23041050Y21034834D01*
X23057702Y21042673D01*
X23154665Y21068679D01*
X23253680Y21065938D01*
X23346772Y21035608D01*
X23425964Y20978852D01*
X23468798Y20926510D01*
X23503821Y20852772D01*
X23522545Y20764014D01*
X23523263Y20760609D01*
G37*
X20310388Y19209100D02*
X20290229Y19133236D01*
X20246418Y19068335D01*
X20179961Y19021649D01*
X20173439Y19018811D01*
X20100725Y18998370D01*
X20018791Y18990401D01*
X19940892Y18995273D01*
X19880280Y19013352D01*
X19856068Y19025146D01*
X19838300Y19027959D01*
X19834326Y19013249D01*
X19826798Y18999645D01*
X19797673Y18991544D01*
X19741140Y18989174D01*
X19647955Y18989174D01*
X19653410Y19310851D01*
X19653993Y19340095D01*
X19834326Y19340095D01*
X19834326Y19281608D01*
X19840620Y19237894D01*
X19867747Y19189700D01*
X19877760Y19180842D01*
X19918801Y19162206D01*
X19980543Y19157410D01*
X20017591Y19159283D01*
X20086915Y19173391D01*
X20129883Y19199676D01*
X20144375Y19236356D01*
X20128271Y19281648D01*
X20118874Y19293500D01*
X20076907Y19320087D01*
X20010486Y19335268D01*
X19915790Y19340095D01*
X19834326Y19340095D01*
X19653993Y19340095D01*
X19654892Y19385238D01*
X19658796Y19496601D01*
X19665377Y19581754D01*
X19675934Y19645340D01*
X19691768Y19692001D01*
X19714179Y19726379D01*
X19744467Y19753117D01*
X19783933Y19776856D01*
X19804293Y19785920D01*
X19874728Y19803027D01*
X19959679Y19810100D01*
X20047508Y19807268D01*
X20126577Y19794659D01*
X20185247Y19772403D01*
X20205655Y19759481D01*
X20252641Y19721181D01*
X20268544Y19689111D01*
X20264682Y19682914D01*
X20240614Y19661268D01*
X20201759Y19632392D01*
X20181894Y19618876D01*
X20148066Y19599726D01*
X20126083Y19597897D01*
X20105673Y19611115D01*
X20054806Y19637884D01*
X19986360Y19648892D01*
X19916414Y19640464D01*
X19915090Y19640082D01*
X19865756Y19618648D01*
X19841336Y19585097D01*
X19834582Y19529609D01*
X19834326Y19476821D01*
X20008730Y19471123D01*
X20036516Y19470185D01*
X20106568Y19466925D01*
X20153529Y19461803D01*
X20185272Y19452902D01*
X20209668Y19438303D01*
X20234589Y19416088D01*
X20275735Y19364705D01*
X20305891Y19288674D01*
X20308848Y19236356D01*
X20310388Y19209100D01*
G36*
X20310388Y19209100D02*
G01*
X20290229Y19133236D01*
X20246418Y19068335D01*
X20179961Y19021649D01*
X20173439Y19018811D01*
X20100725Y18998370D01*
X20018791Y18990401D01*
X19940892Y18995273D01*
X19880280Y19013352D01*
X19856068Y19025146D01*
X19838300Y19027959D01*
X19834326Y19013249D01*
X19826798Y18999645D01*
X19797673Y18991544D01*
X19741140Y18989174D01*
X19647955Y18989174D01*
X19653410Y19310851D01*
X19653993Y19340095D01*
X19834326Y19340095D01*
X19834326Y19281608D01*
X19840620Y19237894D01*
X19867747Y19189700D01*
X19877760Y19180842D01*
X19918801Y19162206D01*
X19980543Y19157410D01*
X20017591Y19159283D01*
X20086915Y19173391D01*
X20129883Y19199676D01*
X20144375Y19236356D01*
X20128271Y19281648D01*
X20118874Y19293500D01*
X20076907Y19320087D01*
X20010486Y19335268D01*
X19915790Y19340095D01*
X19834326Y19340095D01*
X19653993Y19340095D01*
X19654892Y19385238D01*
X19658796Y19496601D01*
X19665377Y19581754D01*
X19675934Y19645340D01*
X19691768Y19692001D01*
X19714179Y19726379D01*
X19744467Y19753117D01*
X19783933Y19776856D01*
X19804293Y19785920D01*
X19874728Y19803027D01*
X19959679Y19810100D01*
X20047508Y19807268D01*
X20126577Y19794659D01*
X20185247Y19772403D01*
X20205655Y19759481D01*
X20252641Y19721181D01*
X20268544Y19689111D01*
X20264682Y19682914D01*
X20240614Y19661268D01*
X20201759Y19632392D01*
X20181894Y19618876D01*
X20148066Y19599726D01*
X20126083Y19597897D01*
X20105673Y19611115D01*
X20054806Y19637884D01*
X19986360Y19648892D01*
X19916414Y19640464D01*
X19915090Y19640082D01*
X19865756Y19618648D01*
X19841336Y19585097D01*
X19834582Y19529609D01*
X19834326Y19476821D01*
X20008730Y19471123D01*
X20036516Y19470185D01*
X20106568Y19466925D01*
X20153529Y19461803D01*
X20185272Y19452902D01*
X20209668Y19438303D01*
X20234589Y19416088D01*
X20275735Y19364705D01*
X20305891Y19288674D01*
X20308848Y19236356D01*
X20310388Y19209100D01*
G37*
X23523632Y19211904D02*
X23523442Y19209700D01*
X23503080Y19123854D01*
X23457787Y19059288D01*
X23385313Y19012763D01*
X23347860Y19001444D01*
X23283710Y18992622D01*
X23213560Y18990515D01*
X23150268Y18995370D01*
X23106696Y19007432D01*
X23080232Y19017094D01*
X23054321Y19007432D01*
X23044843Y19001834D01*
X23007014Y18992757D01*
X22955852Y18989174D01*
X22875642Y18989174D01*
X22875642Y19312558D01*
X22875648Y19340095D01*
X23059457Y19340095D01*
X23059457Y19275843D01*
X23065635Y19226947D01*
X23090017Y19183935D01*
X23103969Y19174626D01*
X23153771Y19160117D01*
X23215945Y19156495D01*
X23276916Y19163855D01*
X23323108Y19182292D01*
X23346119Y19206670D01*
X23360247Y19249987D01*
X23347718Y19284324D01*
X23306302Y19314180D01*
X23239725Y19333334D01*
X23151902Y19340095D01*
X23059457Y19340095D01*
X22875648Y19340095D01*
X22875648Y19340524D01*
X22875952Y19445933D01*
X22877096Y19524299D01*
X22879597Y19580829D01*
X22883976Y19620730D01*
X22890752Y19649208D01*
X22900445Y19671470D01*
X22913573Y19692722D01*
X22955804Y19742520D01*
X23015650Y19780540D01*
X23094263Y19801516D01*
X23197856Y19807964D01*
X23201223Y19807957D01*
X23273233Y19804705D01*
X23337686Y19796597D01*
X23381672Y19785230D01*
X23393730Y19779534D01*
X23432111Y19755411D01*
X23466844Y19726740D01*
X23489697Y19700940D01*
X23492436Y19685427D01*
X23487090Y19681235D01*
X23428847Y19636482D01*
X23389901Y19610087D01*
X23364151Y19599438D01*
X23345492Y19601920D01*
X23327821Y19614918D01*
X23295210Y19631144D01*
X23240253Y19641963D01*
X23178140Y19644769D01*
X23121937Y19639058D01*
X23084704Y19624324D01*
X23082745Y19622531D01*
X23066014Y19588850D01*
X23059457Y19538575D01*
X23059457Y19473779D01*
X23214030Y19473717D01*
X23285034Y19472593D01*
X23344802Y19467704D01*
X23387557Y19457645D01*
X23422100Y19441035D01*
X23430139Y19435933D01*
X23488296Y19379853D01*
X23519230Y19305696D01*
X23521845Y19249987D01*
X23523632Y19211904D01*
G36*
X23523632Y19211904D02*
G01*
X23523442Y19209700D01*
X23503080Y19123854D01*
X23457787Y19059288D01*
X23385313Y19012763D01*
X23347860Y19001444D01*
X23283710Y18992622D01*
X23213560Y18990515D01*
X23150268Y18995370D01*
X23106696Y19007432D01*
X23080232Y19017094D01*
X23054321Y19007432D01*
X23044843Y19001834D01*
X23007014Y18992757D01*
X22955852Y18989174D01*
X22875642Y18989174D01*
X22875642Y19312558D01*
X22875648Y19340095D01*
X23059457Y19340095D01*
X23059457Y19275843D01*
X23065635Y19226947D01*
X23090017Y19183935D01*
X23103969Y19174626D01*
X23153771Y19160117D01*
X23215945Y19156495D01*
X23276916Y19163855D01*
X23323108Y19182292D01*
X23346119Y19206670D01*
X23360247Y19249987D01*
X23347718Y19284324D01*
X23306302Y19314180D01*
X23239725Y19333334D01*
X23151902Y19340095D01*
X23059457Y19340095D01*
X22875648Y19340095D01*
X22875648Y19340524D01*
X22875952Y19445933D01*
X22877096Y19524299D01*
X22879597Y19580829D01*
X22883976Y19620730D01*
X22890752Y19649208D01*
X22900445Y19671470D01*
X22913573Y19692722D01*
X22955804Y19742520D01*
X23015650Y19780540D01*
X23094263Y19801516D01*
X23197856Y19807964D01*
X23201223Y19807957D01*
X23273233Y19804705D01*
X23337686Y19796597D01*
X23381672Y19785230D01*
X23393730Y19779534D01*
X23432111Y19755411D01*
X23466844Y19726740D01*
X23489697Y19700940D01*
X23492436Y19685427D01*
X23487090Y19681235D01*
X23428847Y19636482D01*
X23389901Y19610087D01*
X23364151Y19599438D01*
X23345492Y19601920D01*
X23327821Y19614918D01*
X23295210Y19631144D01*
X23240253Y19641963D01*
X23178140Y19644769D01*
X23121937Y19639058D01*
X23084704Y19624324D01*
X23082745Y19622531D01*
X23066014Y19588850D01*
X23059457Y19538575D01*
X23059457Y19473779D01*
X23214030Y19473717D01*
X23285034Y19472593D01*
X23344802Y19467704D01*
X23387557Y19457645D01*
X23422100Y19441035D01*
X23430139Y19435933D01*
X23488296Y19379853D01*
X23519230Y19305696D01*
X23521845Y19249987D01*
X23523632Y19211904D01*
G37*
X24279326Y18987427D02*
X24191595Y18992478D01*
X24103865Y18997529D01*
X24099694Y19264898D01*
X24098460Y19329912D01*
X24094957Y19427589D01*
X24088944Y19499266D01*
X24079317Y19549760D01*
X24064969Y19583890D01*
X24044795Y19606473D01*
X24017690Y19622328D01*
X23966832Y19638520D01*
X23916254Y19632228D01*
X23862845Y19597623D01*
X23811431Y19554361D01*
X23811431Y18989174D01*
X23627615Y18989174D01*
X23627615Y19295690D01*
X23627792Y19391765D01*
X23628769Y19477138D01*
X23631119Y19539629D01*
X23635411Y19584906D01*
X23642215Y19618632D01*
X23652098Y19646473D01*
X23665630Y19674095D01*
X23668839Y19679959D01*
X23711512Y19737073D01*
X23761455Y19776986D01*
X23821668Y19797944D01*
X23901400Y19807273D01*
X23981247Y19802220D01*
X24046208Y19782495D01*
X24095510Y19757000D01*
X24095510Y20308769D01*
X24027957Y20273558D01*
X23999739Y20260766D01*
X23910670Y20242677D01*
X23822154Y20255179D01*
X23740101Y20296748D01*
X23670424Y20365857D01*
X23659509Y20382100D01*
X23649018Y20405910D01*
X23642175Y20438282D01*
X23638224Y20485429D01*
X23636408Y20553565D01*
X23636082Y20624558D01*
X23812611Y20624558D01*
X23812760Y20565269D01*
X23817293Y20525731D01*
X23827480Y20497511D01*
X23844592Y20472181D01*
X23866330Y20448631D01*
X23901092Y20430808D01*
X23953470Y20426279D01*
X23999740Y20430220D01*
X24045537Y20449941D01*
X24075032Y20489891D01*
X24090824Y20554100D01*
X24095510Y20646599D01*
X24094298Y20695806D01*
X24082201Y20788694D01*
X24057243Y20851504D01*
X24019564Y20883794D01*
X23981509Y20892878D01*
X23915233Y20888619D01*
X23859236Y20862248D01*
X23845834Y20850155D01*
X23831633Y20829233D01*
X23822853Y20798089D01*
X23817639Y20748990D01*
X23814136Y20674202D01*
X23812611Y20624558D01*
X23636082Y20624558D01*
X23635970Y20648903D01*
X23636120Y20692404D01*
X23638682Y20793589D01*
X23645817Y20869178D01*
X23659326Y20924883D01*
X23681014Y20966417D01*
X23712680Y20999494D01*
X23756128Y21029826D01*
X23791360Y21047232D01*
X23874893Y21066429D01*
X23962942Y21063813D01*
X24041201Y21038928D01*
X24074787Y21022661D01*
X24091680Y21020980D01*
X24095510Y21035784D01*
X24095514Y21036232D01*
X24103768Y21051349D01*
X24132237Y21059097D01*
X24187418Y21061279D01*
X24279326Y21061279D01*
X24279326Y20646599D01*
X24279326Y18987427D01*
G36*
X24279326Y18987427D02*
G01*
X24191595Y18992478D01*
X24103865Y18997529D01*
X24099694Y19264898D01*
X24098460Y19329912D01*
X24094957Y19427589D01*
X24088944Y19499266D01*
X24079317Y19549760D01*
X24064969Y19583890D01*
X24044795Y19606473D01*
X24017690Y19622328D01*
X23966832Y19638520D01*
X23916254Y19632228D01*
X23862845Y19597623D01*
X23811431Y19554361D01*
X23811431Y18989174D01*
X23627615Y18989174D01*
X23627615Y19295690D01*
X23627792Y19391765D01*
X23628769Y19477138D01*
X23631119Y19539629D01*
X23635411Y19584906D01*
X23642215Y19618632D01*
X23652098Y19646473D01*
X23665630Y19674095D01*
X23668839Y19679959D01*
X23711512Y19737073D01*
X23761455Y19776986D01*
X23821668Y19797944D01*
X23901400Y19807273D01*
X23981247Y19802220D01*
X24046208Y19782495D01*
X24095510Y19757000D01*
X24095510Y20308769D01*
X24027957Y20273558D01*
X23999739Y20260766D01*
X23910670Y20242677D01*
X23822154Y20255179D01*
X23740101Y20296748D01*
X23670424Y20365857D01*
X23659509Y20382100D01*
X23649018Y20405910D01*
X23642175Y20438282D01*
X23638224Y20485429D01*
X23636408Y20553565D01*
X23636082Y20624558D01*
X23812611Y20624558D01*
X23812760Y20565269D01*
X23817293Y20525731D01*
X23827480Y20497511D01*
X23844592Y20472181D01*
X23866330Y20448631D01*
X23901092Y20430808D01*
X23953470Y20426279D01*
X23999740Y20430220D01*
X24045537Y20449941D01*
X24075032Y20489891D01*
X24090824Y20554100D01*
X24095510Y20646599D01*
X24094298Y20695806D01*
X24082201Y20788694D01*
X24057243Y20851504D01*
X24019564Y20883794D01*
X23981509Y20892878D01*
X23915233Y20888619D01*
X23859236Y20862248D01*
X23845834Y20850155D01*
X23831633Y20829233D01*
X23822853Y20798089D01*
X23817639Y20748990D01*
X23814136Y20674202D01*
X23812611Y20624558D01*
X23636082Y20624558D01*
X23635970Y20648903D01*
X23636120Y20692404D01*
X23638682Y20793589D01*
X23645817Y20869178D01*
X23659326Y20924883D01*
X23681014Y20966417D01*
X23712680Y20999494D01*
X23756128Y21029826D01*
X23791360Y21047232D01*
X23874893Y21066429D01*
X23962942Y21063813D01*
X24041201Y21038928D01*
X24074787Y21022661D01*
X24091680Y21020980D01*
X24095510Y21035784D01*
X24095514Y21036232D01*
X24103768Y21051349D01*
X24132237Y21059097D01*
X24187418Y21061279D01*
X24279326Y21061279D01*
X24279326Y20646599D01*
X24279326Y18987427D01*
G37*
X21738974Y26601124D02*
X21814523Y26200378D01*
X22093287Y26085462D01*
X22372052Y25970546D01*
X22706476Y26197952D01*
X22772666Y26242783D01*
X22860413Y26301629D01*
X22936383Y26351890D01*
X22996631Y26390985D01*
X23037211Y26416335D01*
X23054177Y26425358D01*
X23064597Y26418941D01*
X23095745Y26392053D01*
X23142881Y26347926D01*
X23202013Y26290613D01*
X23269146Y26224165D01*
X23340286Y26152635D01*
X23411439Y26080074D01*
X23478612Y26010533D01*
X23537810Y25948065D01*
X23585039Y25896722D01*
X23616306Y25860555D01*
X23627615Y25843617D01*
X23624984Y25836339D01*
X23606768Y25803876D01*
X23573502Y25750451D01*
X23527884Y25680251D01*
X23472610Y25597464D01*
X23410378Y25506279D01*
X23376226Y25456548D01*
X23317477Y25369969D01*
X23267108Y25294409D01*
X23227806Y25233967D01*
X23202255Y25192739D01*
X23193142Y25174824D01*
X23193291Y25173831D01*
X23201331Y25151120D01*
X23219774Y25104745D01*
X23246051Y25040763D01*
X23277591Y24965232D01*
X23311822Y24884211D01*
X23346174Y24803757D01*
X23378075Y24729928D01*
X23404955Y24668782D01*
X23424242Y24626378D01*
X23433366Y24608774D01*
X23438765Y24607212D01*
X23471566Y24600169D01*
X23530026Y24588501D01*
X23609466Y24573120D01*
X23705206Y24554940D01*
X23812566Y24534870D01*
X23869151Y24524229D01*
X23973009Y24503927D01*
X24063817Y24485178D01*
X24136611Y24469058D01*
X24186428Y24456644D01*
X24208306Y24449014D01*
X24212236Y24441450D01*
X24218754Y24404491D01*
X24223876Y24342935D01*
X24227604Y24262573D01*
X24229943Y24169197D01*
X24230897Y24068599D01*
X24230469Y23966572D01*
X24228665Y23868907D01*
X24225486Y23781396D01*
X24220939Y23709831D01*
X24215026Y23660004D01*
X24207751Y23637707D01*
X24203337Y23635192D01*
X24170414Y23624404D01*
X24113302Y23610131D01*
X24038602Y23593936D01*
X23952916Y23577381D01*
X23924005Y23572108D01*
X23790475Y23547587D01*
X23685533Y23527879D01*
X23605540Y23512169D01*
X23546859Y23499638D01*
X23505852Y23489471D01*
X23478881Y23480849D01*
X23462308Y23472955D01*
X23452495Y23464973D01*
X23451355Y23463633D01*
X23435308Y23435703D01*
X23411563Y23384596D01*
X23382421Y23316308D01*
X23350183Y23236834D01*
X23317150Y23152171D01*
X23285624Y23068313D01*
X23257906Y22991256D01*
X23236297Y22926996D01*
X23223099Y22881528D01*
X23220613Y22860848D01*
X23222275Y22858165D01*
X23239485Y22832216D01*
X23271850Y22784355D01*
X23316370Y22718990D01*
X23370043Y22640530D01*
X23429869Y22553385D01*
X23446287Y22529408D01*
X23504023Y22443405D01*
X23553920Y22366489D01*
X23593129Y22303223D01*
X23618803Y22258168D01*
X23628094Y22235885D01*
X23626092Y22230027D01*
X23605223Y22201159D01*
X23564051Y22154020D01*
X23505523Y22091780D01*
X23432587Y22017613D01*
X23348193Y21934692D01*
X23299954Y21888279D01*
X23223682Y21815992D01*
X23156925Y21754076D01*
X23103266Y21705789D01*
X23066290Y21674393D01*
X23049583Y21663146D01*
X23038105Y21667316D01*
X23002765Y21687037D01*
X22951443Y21719290D01*
X22890833Y21759989D01*
X22847740Y21789689D01*
X22761707Y21848670D01*
X22669899Y21911310D01*
X22586043Y21968231D01*
X22421773Y22079341D01*
X22283880Y22004784D01*
X22251410Y21987575D01*
X22192362Y21958140D01*
X22146699Y21937817D01*
X22122294Y21930240D01*
X22114308Y21939970D01*
X22094476Y21977021D01*
X22065182Y22038107D01*
X22028058Y22119351D01*
X21984733Y22216877D01*
X21936838Y22326809D01*
X21886001Y22445268D01*
X21833853Y22568379D01*
X21782024Y22692265D01*
X21732144Y22813050D01*
X21685843Y22926856D01*
X21644751Y23029807D01*
X21610498Y23118027D01*
X21584713Y23187638D01*
X21569028Y23234764D01*
X21565071Y23255528D01*
X21565339Y23256135D01*
X21583770Y23275330D01*
X21622322Y23305394D01*
X21673036Y23340091D01*
X21689044Y23350686D01*
X21810845Y23451202D01*
X21911649Y23570923D01*
X21989071Y23704866D01*
X22040724Y23848047D01*
X22064220Y23995484D01*
X22057174Y24142193D01*
X22028630Y24272680D01*
X21977379Y24404443D01*
X21902665Y24521994D01*
X21800134Y24633658D01*
X21759847Y24669331D01*
X21629609Y24757220D01*
X21488917Y24816412D01*
X21341847Y24847435D01*
X21192478Y24850821D01*
X21044887Y24827098D01*
X20903149Y24776796D01*
X20771343Y24700445D01*
X20653546Y24598575D01*
X20553834Y24471716D01*
X20534663Y24440300D01*
X20469503Y24296708D01*
X20434897Y24147183D01*
X20429938Y23995595D01*
X20453721Y23845818D01*
X20505339Y23701724D01*
X20583886Y23567185D01*
X20688456Y23446075D01*
X20818142Y23342266D01*
X20822354Y23339468D01*
X20872530Y23304110D01*
X20910137Y23274047D01*
X20927314Y23255528D01*
X20925146Y23241010D01*
X20911671Y23198735D01*
X20887778Y23133214D01*
X20855095Y23048323D01*
X20815253Y22947941D01*
X20769880Y22835943D01*
X20720607Y22716209D01*
X20669061Y22592616D01*
X20616874Y22469041D01*
X20565673Y22349361D01*
X20517088Y22237455D01*
X20472750Y22137200D01*
X20434286Y22052473D01*
X20403326Y21987153D01*
X20381499Y21945116D01*
X20370436Y21930240D01*
X20361236Y21932254D01*
X20325091Y21946734D01*
X20271671Y21972122D01*
X20208851Y22004784D01*
X20070958Y22079341D01*
X19906688Y21968231D01*
X19858156Y21935330D01*
X19767886Y21873855D01*
X19677891Y21812282D01*
X19601897Y21759989D01*
X19559957Y21731491D01*
X19505446Y21696084D01*
X19465029Y21671845D01*
X19445288Y21662858D01*
X19436807Y21666674D01*
X19406149Y21690044D01*
X19358888Y21731190D01*
X19299136Y21786065D01*
X19231008Y21850623D01*
X19158616Y21920815D01*
X19086076Y21992594D01*
X19017500Y22061914D01*
X18957002Y22124727D01*
X18908696Y22176986D01*
X18876696Y22214643D01*
X18865115Y22233652D01*
X18865783Y22237269D01*
X18879567Y22266707D01*
X18909012Y22317638D01*
X18951273Y22385462D01*
X19003505Y22465577D01*
X19062862Y22553385D01*
X19079509Y22577604D01*
X19137964Y22662832D01*
X19189453Y22738179D01*
X19230976Y22799237D01*
X19259531Y22841596D01*
X19272118Y22860848D01*
X19272427Y22861673D01*
X19268713Y22885227D01*
X19254527Y22932941D01*
X19232171Y22998821D01*
X19203947Y23076870D01*
X19172155Y23161093D01*
X19139098Y23245495D01*
X19107076Y23324079D01*
X19078391Y23390850D01*
X19055343Y23439814D01*
X19040235Y23464973D01*
X19038722Y23466535D01*
X19027905Y23474437D01*
X19009635Y23482406D01*
X18980276Y23491259D01*
X18936190Y23501813D01*
X18873738Y23514885D01*
X18789284Y23531292D01*
X18679189Y23551852D01*
X18539815Y23577381D01*
X18510907Y23582754D01*
X18428097Y23599363D01*
X18358438Y23615100D01*
X18308532Y23628402D01*
X18284979Y23637707D01*
X18281039Y23645470D01*
X18274470Y23682758D01*
X18269264Y23744575D01*
X18265426Y23825128D01*
X18262959Y23918625D01*
X18261867Y24019274D01*
X18262155Y24121283D01*
X18263827Y24218861D01*
X18266885Y24306215D01*
X18271335Y24377553D01*
X18277180Y24427083D01*
X18284424Y24449014D01*
X18291821Y24452254D01*
X18328616Y24462467D01*
X18390811Y24476911D01*
X18473443Y24494511D01*
X18571548Y24514190D01*
X18680164Y24534870D01*
X18739470Y24545919D01*
X18841118Y24565079D01*
X18928610Y24581856D01*
X18997269Y24595339D01*
X19042413Y24604616D01*
X19059364Y24608774D01*
X19060001Y24609631D01*
X19070797Y24631407D01*
X19091377Y24677029D01*
X19119169Y24740442D01*
X19151602Y24815593D01*
X19186102Y24896430D01*
X19220098Y24976901D01*
X19251017Y25050951D01*
X19276286Y25112528D01*
X19293335Y25155579D01*
X19299589Y25174050D01*
X19296830Y25180550D01*
X19278470Y25211478D01*
X19245166Y25263537D01*
X19199594Y25332641D01*
X19144431Y25414707D01*
X19082352Y25505648D01*
X19048293Y25555452D01*
X18989517Y25642769D01*
X18939123Y25719402D01*
X18899800Y25781169D01*
X18874234Y25823894D01*
X18865115Y25843395D01*
X18871452Y25853973D01*
X18897957Y25885581D01*
X18941440Y25933417D01*
X18997909Y25993427D01*
X19063373Y26061558D01*
X19133841Y26133755D01*
X19205321Y26205967D01*
X19273820Y26274138D01*
X19335349Y26334217D01*
X19385914Y26382149D01*
X19421525Y26413880D01*
X19438190Y26425358D01*
X19447440Y26420895D01*
X19481409Y26400198D01*
X19536225Y26364973D01*
X19607938Y26317804D01*
X19692598Y26261269D01*
X19786255Y26197952D01*
X20120679Y25970546D01*
X20678207Y26200378D01*
X20753756Y26601124D01*
X20829305Y27001871D01*
X21663426Y27001871D01*
X21738974Y26601124D01*
G36*
X21738974Y26601124D02*
G01*
X21814523Y26200378D01*
X22093287Y26085462D01*
X22372052Y25970546D01*
X22706476Y26197952D01*
X22772666Y26242783D01*
X22860413Y26301629D01*
X22936383Y26351890D01*
X22996631Y26390985D01*
X23037211Y26416335D01*
X23054177Y26425358D01*
X23064597Y26418941D01*
X23095745Y26392053D01*
X23142881Y26347926D01*
X23202013Y26290613D01*
X23269146Y26224165D01*
X23340286Y26152635D01*
X23411439Y26080074D01*
X23478612Y26010533D01*
X23537810Y25948065D01*
X23585039Y25896722D01*
X23616306Y25860555D01*
X23627615Y25843617D01*
X23624984Y25836339D01*
X23606768Y25803876D01*
X23573502Y25750451D01*
X23527884Y25680251D01*
X23472610Y25597464D01*
X23410378Y25506279D01*
X23376226Y25456548D01*
X23317477Y25369969D01*
X23267108Y25294409D01*
X23227806Y25233967D01*
X23202255Y25192739D01*
X23193142Y25174824D01*
X23193291Y25173831D01*
X23201331Y25151120D01*
X23219774Y25104745D01*
X23246051Y25040763D01*
X23277591Y24965232D01*
X23311822Y24884211D01*
X23346174Y24803757D01*
X23378075Y24729928D01*
X23404955Y24668782D01*
X23424242Y24626378D01*
X23433366Y24608774D01*
X23438765Y24607212D01*
X23471566Y24600169D01*
X23530026Y24588501D01*
X23609466Y24573120D01*
X23705206Y24554940D01*
X23812566Y24534870D01*
X23869151Y24524229D01*
X23973009Y24503927D01*
X24063817Y24485178D01*
X24136611Y24469058D01*
X24186428Y24456644D01*
X24208306Y24449014D01*
X24212236Y24441450D01*
X24218754Y24404491D01*
X24223876Y24342935D01*
X24227604Y24262573D01*
X24229943Y24169197D01*
X24230897Y24068599D01*
X24230469Y23966572D01*
X24228665Y23868907D01*
X24225486Y23781396D01*
X24220939Y23709831D01*
X24215026Y23660004D01*
X24207751Y23637707D01*
X24203337Y23635192D01*
X24170414Y23624404D01*
X24113302Y23610131D01*
X24038602Y23593936D01*
X23952916Y23577381D01*
X23924005Y23572108D01*
X23790475Y23547587D01*
X23685533Y23527879D01*
X23605540Y23512169D01*
X23546859Y23499638D01*
X23505852Y23489471D01*
X23478881Y23480849D01*
X23462308Y23472955D01*
X23452495Y23464973D01*
X23451355Y23463633D01*
X23435308Y23435703D01*
X23411563Y23384596D01*
X23382421Y23316308D01*
X23350183Y23236834D01*
X23317150Y23152171D01*
X23285624Y23068313D01*
X23257906Y22991256D01*
X23236297Y22926996D01*
X23223099Y22881528D01*
X23220613Y22860848D01*
X23222275Y22858165D01*
X23239485Y22832216D01*
X23271850Y22784355D01*
X23316370Y22718990D01*
X23370043Y22640530D01*
X23429869Y22553385D01*
X23446287Y22529408D01*
X23504023Y22443405D01*
X23553920Y22366489D01*
X23593129Y22303223D01*
X23618803Y22258168D01*
X23628094Y22235885D01*
X23626092Y22230027D01*
X23605223Y22201159D01*
X23564051Y22154020D01*
X23505523Y22091780D01*
X23432587Y22017613D01*
X23348193Y21934692D01*
X23299954Y21888279D01*
X23223682Y21815992D01*
X23156925Y21754076D01*
X23103266Y21705789D01*
X23066290Y21674393D01*
X23049583Y21663146D01*
X23038105Y21667316D01*
X23002765Y21687037D01*
X22951443Y21719290D01*
X22890833Y21759989D01*
X22847740Y21789689D01*
X22761707Y21848670D01*
X22669899Y21911310D01*
X22586043Y21968231D01*
X22421773Y22079341D01*
X22283880Y22004784D01*
X22251410Y21987575D01*
X22192362Y21958140D01*
X22146699Y21937817D01*
X22122294Y21930240D01*
X22114308Y21939970D01*
X22094476Y21977021D01*
X22065182Y22038107D01*
X22028058Y22119351D01*
X21984733Y22216877D01*
X21936838Y22326809D01*
X21886001Y22445268D01*
X21833853Y22568379D01*
X21782024Y22692265D01*
X21732144Y22813050D01*
X21685843Y22926856D01*
X21644751Y23029807D01*
X21610498Y23118027D01*
X21584713Y23187638D01*
X21569028Y23234764D01*
X21565071Y23255528D01*
X21565339Y23256135D01*
X21583770Y23275330D01*
X21622322Y23305394D01*
X21673036Y23340091D01*
X21689044Y23350686D01*
X21810845Y23451202D01*
X21911649Y23570923D01*
X21989071Y23704866D01*
X22040724Y23848047D01*
X22064220Y23995484D01*
X22057174Y24142193D01*
X22028630Y24272680D01*
X21977379Y24404443D01*
X21902665Y24521994D01*
X21800134Y24633658D01*
X21759847Y24669331D01*
X21629609Y24757220D01*
X21488917Y24816412D01*
X21341847Y24847435D01*
X21192478Y24850821D01*
X21044887Y24827098D01*
X20903149Y24776796D01*
X20771343Y24700445D01*
X20653546Y24598575D01*
X20553834Y24471716D01*
X20534663Y24440300D01*
X20469503Y24296708D01*
X20434897Y24147183D01*
X20429938Y23995595D01*
X20453721Y23845818D01*
X20505339Y23701724D01*
X20583886Y23567185D01*
X20688456Y23446075D01*
X20818142Y23342266D01*
X20822354Y23339468D01*
X20872530Y23304110D01*
X20910137Y23274047D01*
X20927314Y23255528D01*
X20925146Y23241010D01*
X20911671Y23198735D01*
X20887778Y23133214D01*
X20855095Y23048323D01*
X20815253Y22947941D01*
X20769880Y22835943D01*
X20720607Y22716209D01*
X20669061Y22592616D01*
X20616874Y22469041D01*
X20565673Y22349361D01*
X20517088Y22237455D01*
X20472750Y22137200D01*
X20434286Y22052473D01*
X20403326Y21987153D01*
X20381499Y21945116D01*
X20370436Y21930240D01*
X20361236Y21932254D01*
X20325091Y21946734D01*
X20271671Y21972122D01*
X20208851Y22004784D01*
X20070958Y22079341D01*
X19906688Y21968231D01*
X19858156Y21935330D01*
X19767886Y21873855D01*
X19677891Y21812282D01*
X19601897Y21759989D01*
X19559957Y21731491D01*
X19505446Y21696084D01*
X19465029Y21671845D01*
X19445288Y21662858D01*
X19436807Y21666674D01*
X19406149Y21690044D01*
X19358888Y21731190D01*
X19299136Y21786065D01*
X19231008Y21850623D01*
X19158616Y21920815D01*
X19086076Y21992594D01*
X19017500Y22061914D01*
X18957002Y22124727D01*
X18908696Y22176986D01*
X18876696Y22214643D01*
X18865115Y22233652D01*
X18865783Y22237269D01*
X18879567Y22266707D01*
X18909012Y22317638D01*
X18951273Y22385462D01*
X19003505Y22465577D01*
X19062862Y22553385D01*
X19079509Y22577604D01*
X19137964Y22662832D01*
X19189453Y22738179D01*
X19230976Y22799237D01*
X19259531Y22841596D01*
X19272118Y22860848D01*
X19272427Y22861673D01*
X19268713Y22885227D01*
X19254527Y22932941D01*
X19232171Y22998821D01*
X19203947Y23076870D01*
X19172155Y23161093D01*
X19139098Y23245495D01*
X19107076Y23324079D01*
X19078391Y23390850D01*
X19055343Y23439814D01*
X19040235Y23464973D01*
X19038722Y23466535D01*
X19027905Y23474437D01*
X19009635Y23482406D01*
X18980276Y23491259D01*
X18936190Y23501813D01*
X18873738Y23514885D01*
X18789284Y23531292D01*
X18679189Y23551852D01*
X18539815Y23577381D01*
X18510907Y23582754D01*
X18428097Y23599363D01*
X18358438Y23615100D01*
X18308532Y23628402D01*
X18284979Y23637707D01*
X18281039Y23645470D01*
X18274470Y23682758D01*
X18269264Y23744575D01*
X18265426Y23825128D01*
X18262959Y23918625D01*
X18261867Y24019274D01*
X18262155Y24121283D01*
X18263827Y24218861D01*
X18266885Y24306215D01*
X18271335Y24377553D01*
X18277180Y24427083D01*
X18284424Y24449014D01*
X18291821Y24452254D01*
X18328616Y24462467D01*
X18390811Y24476911D01*
X18473443Y24494511D01*
X18571548Y24514190D01*
X18680164Y24534870D01*
X18739470Y24545919D01*
X18841118Y24565079D01*
X18928610Y24581856D01*
X18997269Y24595339D01*
X19042413Y24604616D01*
X19059364Y24608774D01*
X19060001Y24609631D01*
X19070797Y24631407D01*
X19091377Y24677029D01*
X19119169Y24740442D01*
X19151602Y24815593D01*
X19186102Y24896430D01*
X19220098Y24976901D01*
X19251017Y25050951D01*
X19276286Y25112528D01*
X19293335Y25155579D01*
X19299589Y25174050D01*
X19296830Y25180550D01*
X19278470Y25211478D01*
X19245166Y25263537D01*
X19199594Y25332641D01*
X19144431Y25414707D01*
X19082352Y25505648D01*
X19048293Y25555452D01*
X18989517Y25642769D01*
X18939123Y25719402D01*
X18899800Y25781169D01*
X18874234Y25823894D01*
X18865115Y25843395D01*
X18871452Y25853973D01*
X18897957Y25885581D01*
X18941440Y25933417D01*
X18997909Y25993427D01*
X19063373Y26061558D01*
X19133841Y26133755D01*
X19205321Y26205967D01*
X19273820Y26274138D01*
X19335349Y26334217D01*
X19385914Y26382149D01*
X19421525Y26413880D01*
X19438190Y26425358D01*
X19447440Y26420895D01*
X19481409Y26400198D01*
X19536225Y26364973D01*
X19607938Y26317804D01*
X19692598Y26261269D01*
X19786255Y26197952D01*
X20120679Y25970546D01*
X20678207Y26200378D01*
X20753756Y26601124D01*
X20829305Y27001871D01*
X21663426Y27001871D01*
X21738974Y26601124D01*
G37*
%TD*%
%LPC*%
D16*
%TO.C,H1*%
X5024120Y33134300D03*
%TD*%
D17*
%TO.C,H3*%
X94886520Y46863000D03*
%TD*%
%TO.C,H4*%
X96918520Y12331700D03*
%TD*%
%TO.C,H5*%
X2992120Y12331700D03*
%TD*%
D18*
%TO.C,J204*%
X15702520Y37990700D03*
D19*
X15702520Y35450700D03*
X13162520Y37990700D03*
X13162520Y35450700D03*
X10622520Y37990700D03*
X10622520Y35450700D03*
%TD*%
D20*
%TO.C,J601*%
X67487720Y43765700D03*
D19*
X67487720Y46305700D03*
X70027720Y43765700D03*
X70027720Y46305700D03*
X72567720Y43765700D03*
X72567720Y46305700D03*
X75107720Y43765700D03*
X75107720Y46305700D03*
X77647720Y43765700D03*
X77647720Y46305700D03*
X80187720Y43765700D03*
X80187720Y46305700D03*
X82727720Y43765700D03*
X82727720Y46305700D03*
X85267720Y43765700D03*
X85267720Y46305700D03*
X87807720Y43765700D03*
X87807720Y46305700D03*
X90347720Y43765700D03*
X90347720Y46305700D03*
%TD*%
D17*
%TO.C,H2*%
X16276320Y46863000D03*
%TD*%
D21*
%TO.C,J203*%
X89067720Y17020700D03*
D19*
X91607720Y17020700D03*
X89067720Y14480700D03*
X91607720Y14480700D03*
X89067720Y11940700D03*
X91607720Y11940700D03*
X89067720Y9400700D03*
X91607720Y9400700D03*
%TD*%
D18*
%TO.C,J201*%
X1803400Y1752600D03*
D19*
X4343400Y1752600D03*
X6883400Y1752600D03*
X9423400Y1752600D03*
X11963400Y1752600D03*
X14503400Y1752600D03*
X17043400Y1752600D03*
X19583400Y1752600D03*
X22123400Y1752600D03*
X24663400Y1752600D03*
X27203400Y1752600D03*
X29743400Y1752600D03*
X32283400Y1752600D03*
X34823400Y1752600D03*
X37363400Y1752600D03*
X39903400Y1752600D03*
X42443400Y1752600D03*
X44983400Y1752600D03*
X47523400Y1752600D03*
X50063400Y1752600D03*
X52603400Y1752600D03*
X55143400Y1752600D03*
X57683400Y1752600D03*
X60223400Y1752600D03*
X62763400Y1752600D03*
X65303400Y1752600D03*
X67843400Y1752600D03*
X70383400Y1752600D03*
X72923400Y1752600D03*
X75463400Y1752600D03*
X78003400Y1752600D03*
X80543400Y1752600D03*
X83083400Y1752600D03*
X85623400Y1752600D03*
X88163400Y1752600D03*
X90703400Y1752600D03*
X93243400Y1752600D03*
X95783400Y1752600D03*
X98323400Y1752600D03*
X100863400Y1752600D03*
X1803400Y4292600D03*
X4343400Y4292600D03*
X6883400Y4292600D03*
X9423400Y4292600D03*
X11963400Y4292600D03*
X14503400Y4292600D03*
X17043400Y4292600D03*
X19583400Y4292600D03*
X22123400Y4292600D03*
X24663400Y4292600D03*
X27203400Y4292600D03*
X29743400Y4292600D03*
X32283400Y4292600D03*
X34823400Y4292600D03*
X37363400Y4292600D03*
X39903400Y4292600D03*
X42443400Y4292600D03*
X44983400Y4292600D03*
X47523400Y4292600D03*
X50063400Y4292600D03*
X52603400Y4292600D03*
X55143400Y4292600D03*
X57683400Y4292600D03*
X60223400Y4292600D03*
X62763400Y4292600D03*
X65303400Y4292600D03*
X67843400Y4292600D03*
X70383400Y4292600D03*
X72923400Y4292600D03*
X75463400Y4292600D03*
X78003400Y4292600D03*
X80543400Y4292600D03*
X83083400Y4292600D03*
X85623400Y4292600D03*
X88163400Y4292600D03*
X90703400Y4292600D03*
X93243400Y4292600D03*
X95783400Y4292600D03*
X98323400Y4292600D03*
X100863400Y4292600D03*
%TD*%
D21*
%TO.C,J202*%
X81442720Y17010700D03*
D19*
X83982720Y17010700D03*
X81442720Y14470700D03*
X83982720Y14470700D03*
X81442720Y11930700D03*
X83982720Y11930700D03*
X81442720Y9390700D03*
X83982720Y9390700D03*
%TD*%
D22*
%TO.C,J301*%
X25064720Y43065700D03*
X25064720Y45605700D03*
X27604720Y43065700D03*
X27604720Y45605700D03*
X30144720Y43065700D03*
X30144720Y45605700D03*
%TD*%
%LPD*%
M02*
