%TF.GenerationSoftware,KiCad,Pcbnew,10.0.1*%
%TF.CreationDate,2026-04-26T14:01:33-07:00*%
%TF.ProjectId,SPIFEE,53504946-4545-42e6-9b69-6361645f7063,0*%
%TF.SameCoordinates,PX76d3ec0PY771d2a0*%
%TF.FileFunction,Paste,Top*%
%TF.FilePolarity,Positive*%
%FSLAX46Y46*%
G04 Gerber Fmt 4.6, Leading zero omitted, Abs format (unit mm)*
G04 Created by KiCad (PCBNEW 10.0.1) date 2026-04-26 14:01:33*
%MOMM*%
%LPD*%
G01*
G04 APERTURE LIST*
G04 Aperture macros list*
%AMRoundRect*
0 Rectangle with rounded corners*
0 $1 Rounding radius*
0 $2 $3 $4 $5 $6 $7 $8 $9 X,Y pos of 4 corners*
0 Add a 4 corners polygon primitive as box body*
4,1,4,$2,$3,$4,$5,$6,$7,$8,$9,$2,$3,0*
0 Add four circle primitives for the rounded corners*
1,1,$1+$1,$2,$3*
1,1,$1+$1,$4,$5*
1,1,$1+$1,$6,$7*
1,1,$1+$1,$8,$9*
0 Add four rect primitives between the rounded corners*
20,1,$1+$1,$2,$3,$4,$5,0*
20,1,$1+$1,$4,$5,$6,$7,0*
20,1,$1+$1,$6,$7,$8,$9,0*
20,1,$1+$1,$8,$9,$2,$3,0*%
G04 Aperture macros list end*
%ADD10RoundRect,0.200000X-0.275000X0.200000X-0.275000X-0.200000X0.275000X-0.200000X0.275000X0.200000X0*%
%ADD11RoundRect,0.250000X-0.250000X0.300000X-0.250000X-0.300000X0.250000X-0.300000X0.250000X0.300000X0*%
%ADD12RoundRect,0.225000X-0.250000X0.225000X-0.250000X-0.225000X0.250000X-0.225000X0.250000X0.225000X0*%
%ADD13R,0.760000X2.410000*%
%ADD14R,2.410000X0.760000*%
%ADD15RoundRect,0.100000X-0.712500X-0.100000X0.712500X-0.100000X0.712500X0.100000X-0.712500X0.100000X0*%
%ADD16RoundRect,0.200000X0.275000X-0.200000X0.275000X0.200000X-0.275000X0.200000X-0.275000X-0.200000X0*%
%ADD17RoundRect,0.087500X-0.425000X-0.087500X0.425000X-0.087500X0.425000X0.087500X-0.425000X0.087500X0*%
%ADD18RoundRect,0.225000X0.225000X0.250000X-0.225000X0.250000X-0.225000X-0.250000X0.225000X-0.250000X0*%
%ADD19R,1.600000X0.400000*%
%ADD20RoundRect,0.137500X-0.137500X0.825000X-0.137500X-0.825000X0.137500X-0.825000X0.137500X0.825000X0*%
%ADD21RoundRect,0.137500X-0.825000X0.137500X-0.825000X-0.137500X0.825000X-0.137500X0.825000X0.137500X0*%
%ADD22RoundRect,0.200000X0.200000X0.275000X-0.200000X0.275000X-0.200000X-0.275000X0.200000X-0.275000X0*%
%ADD23RoundRect,0.087500X0.087500X-0.425000X0.087500X0.425000X-0.087500X0.425000X-0.087500X-0.425000X0*%
%ADD24RoundRect,0.200000X-0.200000X-0.275000X0.200000X-0.275000X0.200000X0.275000X-0.200000X0.275000X0*%
G04 APERTURE END LIST*
D10*
%TO.C,R321*%
X84265741Y28764618D03*
X84265741Y27114618D03*
%TD*%
%TO.C,R315*%
X88900000Y7175000D03*
X88900000Y5525000D03*
%TD*%
D11*
%TO.C,D302*%
X98552000Y40220000D03*
X98552000Y38520000D03*
%TD*%
D12*
%TO.C,C310*%
X11684000Y7125000D03*
X11684000Y5575000D03*
%TD*%
D10*
%TO.C,R316*%
X91440000Y7175000D03*
X91440000Y5525000D03*
%TD*%
%TO.C,R320*%
X45770800Y7213600D03*
X45770800Y5563600D03*
%TD*%
D13*
%TO.C,U305*%
X28092400Y22474300D03*
X29362400Y22474300D03*
X30632400Y22474300D03*
X31902400Y22474300D03*
D14*
X33852400Y24424300D03*
X33852400Y25694300D03*
X33852400Y26964300D03*
X33852400Y28234300D03*
X33852400Y29504300D03*
X33852400Y30774300D03*
X33852400Y32044300D03*
X33852400Y33314300D03*
X33852400Y34584300D03*
D13*
X31902400Y36534300D03*
X30632400Y36534300D03*
X29362400Y36534300D03*
X28092400Y36534300D03*
X26822400Y36534300D03*
X25552400Y36534300D03*
X24282400Y36534300D03*
D14*
X22332400Y34584300D03*
X22332400Y33314300D03*
X22332400Y32044300D03*
X22332400Y30774300D03*
X22332400Y29504300D03*
X22332400Y28234300D03*
X22332400Y26964300D03*
X22332400Y25694300D03*
X22332400Y24424300D03*
D13*
X24282400Y22474300D03*
X25552400Y22474300D03*
X26822400Y22474300D03*
%TD*%
D15*
%TO.C,U301*%
X80629241Y25203398D03*
X80629241Y24553398D03*
X80629241Y23903398D03*
X80629241Y23253398D03*
X84854241Y23253398D03*
X84854241Y23903398D03*
X84854241Y24553398D03*
X84854241Y25203398D03*
%TD*%
D11*
%TO.C,D304*%
X98679000Y28663000D03*
X98679000Y26963000D03*
%TD*%
D10*
%TO.C,R304*%
X20320000Y7175000D03*
X20320000Y5525000D03*
%TD*%
%TO.C,R318*%
X64936914Y7224126D03*
X64936914Y5574126D03*
%TD*%
%TO.C,R322*%
X82741741Y28764618D03*
X82741741Y27114618D03*
%TD*%
D16*
%TO.C,R208*%
X25908000Y5525000D03*
X25908000Y7175000D03*
%TD*%
D17*
%TO.C,U303*%
X81772341Y38766998D03*
X81772341Y38116998D03*
X81772341Y37466998D03*
X83447341Y37466998D03*
X83447341Y38116998D03*
X83447341Y38766998D03*
%TD*%
D16*
%TO.C,R327*%
X95250000Y38545000D03*
X95250000Y40195000D03*
%TD*%
D10*
%TO.C,R305*%
X58253085Y7196214D03*
X58253085Y5546214D03*
%TD*%
%TO.C,R301*%
X28956000Y7175000D03*
X28956000Y5525000D03*
%TD*%
D16*
%TO.C,R205*%
X14732000Y5525000D03*
X14732000Y7175000D03*
%TD*%
D18*
%TO.C,C203*%
X42177000Y8586200D03*
X40627000Y8586200D03*
%TD*%
D16*
%TO.C,R325*%
X81231741Y27138398D03*
X81231741Y28788398D03*
%TD*%
D19*
%TO.C,U304*%
X80997041Y34154598D03*
X80997041Y33504598D03*
X80997041Y32854598D03*
X80997041Y32204598D03*
X84397041Y32204598D03*
X84397041Y32854598D03*
X84397041Y33504598D03*
X84397041Y34154598D03*
%TD*%
D10*
%TO.C,R312*%
X59912578Y7213041D03*
X59912578Y5563041D03*
%TD*%
D20*
%TO.C,U302*%
X61829200Y37449100D03*
X61029200Y37449100D03*
X60229200Y37449100D03*
X59429200Y37449100D03*
X58629200Y37449100D03*
X57829200Y37449100D03*
X57029200Y37449100D03*
X56229200Y37449100D03*
X55429200Y37449100D03*
X54629200Y37449100D03*
X53829200Y37449100D03*
X53029200Y37449100D03*
X52229200Y37449100D03*
X51429200Y37449100D03*
X50629200Y37449100D03*
X49829200Y37449100D03*
D21*
X47691700Y35311600D03*
X47691700Y34511600D03*
X47691700Y33711600D03*
X47691700Y32911600D03*
X47691700Y32111600D03*
X47691700Y31311600D03*
X47691700Y30511600D03*
X47691700Y29711600D03*
X47691700Y28911600D03*
X47691700Y28111600D03*
X47691700Y27311600D03*
X47691700Y26511600D03*
X47691700Y25711600D03*
X47691700Y24911600D03*
X47691700Y24111600D03*
X47691700Y23311600D03*
D20*
X49829200Y21174100D03*
X50629200Y21174100D03*
X51429200Y21174100D03*
X52229200Y21174100D03*
X53029200Y21174100D03*
X53829200Y21174100D03*
X54629200Y21174100D03*
X55429200Y21174100D03*
X56229200Y21174100D03*
X57029200Y21174100D03*
X57829200Y21174100D03*
X58629200Y21174100D03*
X59429200Y21174100D03*
X60229200Y21174100D03*
X61029200Y21174100D03*
X61829200Y21174100D03*
D21*
X63966700Y23311600D03*
X63966700Y24111600D03*
X63966700Y24911600D03*
X63966700Y25711600D03*
X63966700Y26511600D03*
X63966700Y27311600D03*
X63966700Y28111600D03*
X63966700Y28911600D03*
X63966700Y29711600D03*
X63966700Y30511600D03*
X63966700Y31311600D03*
X63966700Y32111600D03*
X63966700Y32911600D03*
X63966700Y33711600D03*
X63966700Y34511600D03*
X63966700Y35311600D03*
%TD*%
D18*
%TO.C,C305*%
X81752741Y21561398D03*
X80202741Y21561398D03*
%TD*%
D10*
%TO.C,R202*%
X47294800Y7225800D03*
X47294800Y5575800D03*
%TD*%
D22*
%TO.C,R203*%
X84010000Y14605000D03*
X82360000Y14605000D03*
%TD*%
D11*
%TO.C,D303*%
X98552000Y32600000D03*
X98552000Y30900000D03*
%TD*%
D16*
%TO.C,R302*%
X27432000Y5525000D03*
X27432000Y7175000D03*
%TD*%
%TO.C,R317*%
X13207860Y5526536D03*
X13207860Y7176536D03*
%TD*%
D10*
%TO.C,R319*%
X56585617Y7182258D03*
X56585617Y5532258D03*
%TD*%
%TO.C,R308*%
X44246800Y7226800D03*
X44246800Y5576800D03*
%TD*%
D16*
%TO.C,R326*%
X95250000Y34735000D03*
X95250000Y36385000D03*
%TD*%
D23*
%TO.C,U201*%
X48971392Y5893500D03*
X49621392Y5893500D03*
X50271392Y5893500D03*
X50271392Y7568500D03*
X49621392Y7568500D03*
X48971392Y7568500D03*
%TD*%
D22*
%TO.C,R201*%
X53403000Y9525000D03*
X51753000Y9525000D03*
%TD*%
D16*
%TO.C,R330*%
X95250000Y22924000D03*
X95250000Y24574000D03*
%TD*%
D18*
%TO.C,C202*%
X42177000Y5538200D03*
X40627000Y5538200D03*
%TD*%
D16*
%TO.C,R207*%
X24384000Y5525000D03*
X24384000Y7175000D03*
%TD*%
D18*
%TO.C,C204*%
X42177000Y7062200D03*
X40627000Y7062200D03*
%TD*%
D10*
%TO.C,R309*%
X54909696Y7177871D03*
X54909696Y5527871D03*
%TD*%
D16*
%TO.C,R329*%
X95250000Y26988000D03*
X95250000Y28638000D03*
%TD*%
D10*
%TO.C,R306*%
X61588978Y7213041D03*
X61588978Y5563041D03*
%TD*%
D11*
%TO.C,D301*%
X98552000Y36410000D03*
X98552000Y34710000D03*
%TD*%
D16*
%TO.C,R206*%
X16256000Y5525000D03*
X16256000Y7175000D03*
%TD*%
D10*
%TO.C,R313*%
X53390800Y7175000D03*
X53390800Y5525000D03*
%TD*%
%TO.C,R310*%
X51866800Y7187200D03*
X51866800Y5537200D03*
%TD*%
%TO.C,R307*%
X17780000Y7175000D03*
X17780000Y5525000D03*
%TD*%
%TO.C,R303*%
X22479000Y7175000D03*
X22479000Y5525000D03*
%TD*%
D12*
%TO.C,C311*%
X30480000Y7125000D03*
X30480000Y5575000D03*
%TD*%
D10*
%TO.C,R314*%
X86360000Y7175000D03*
X86360000Y5525000D03*
%TD*%
D11*
%TO.C,D305*%
X98679000Y24599000D03*
X98679000Y22899000D03*
%TD*%
D18*
%TO.C,C201*%
X47409400Y9271000D03*
X45859400Y9271000D03*
%TD*%
D16*
%TO.C,R328*%
X95250000Y30925000D03*
X95250000Y32575000D03*
%TD*%
D24*
%TO.C,R323*%
X83694741Y21561398D03*
X85344741Y21561398D03*
%TD*%
D12*
%TO.C,C312*%
X66613314Y7174126D03*
X66613314Y5624126D03*
%TD*%
D10*
%TO.C,R311*%
X63273353Y7210170D03*
X63273353Y5560170D03*
%TD*%
M02*
