M48
; DRILL file KiCad 10.0.1 date 2026-04-26T14:01:38
; FORMAT={-:-/ absolute / metric / decimal}
; #@! TF.CreationDate,2026-04-26T14:01:38-07:00
; #@! TF.GenerationSoftware,Kicad,Pcbnew,10.0.1
; #@! TF.FileFunction,Plated,1,4,PTH
FMAT,2
METRIC
; #@! TA.AperFunction,Plated,PTH,ViaDrill
T1C0.300
; #@! TA.AperFunction,Plated,PTH,ViaDrill
T2C0.400
; #@! TA.AperFunction,Plated,PTH,ComponentDrill
T3C1.000
%
G90
G05
T1
X-0.14Y28.38
X-0.14Y25.84
X-0.14Y23.3
X-0.14Y20.76
X-0.14Y18.22
X-0.14Y15.68
X-0.14Y13.14
X-0.14Y8.06
X3.67Y36.0
X4.623Y6.045
X5.575Y37.905
X7.48Y39.81
X7.671Y5.842
X8.026Y10.668
X9.385Y41.715
X10.071Y13.754
X10.211Y5.639
X11.29Y43.62
X13.818Y27.178
X14.681Y31.039
X15.494Y22.733
X15.494Y11.43
X15.621Y17.272
X16.84Y28.677
X17.526Y25.451
X17.759Y4.826
X18.085Y26.797
X19.05Y46.99
X19.812Y20.955
X20.091Y19.787
X20.117Y10.008
X20.142Y18.263
X20.193Y30.658
X20.193Y26.924
X20.32Y4.877
X21.107Y35.916
X21.59Y46.99
X21.844Y17.272
X22.352Y22.86
X22.479Y4.877
X23.571Y14.478
X23.876Y32.004
X23.876Y28.194
X23.927Y25.694
X24.13Y46.99
X24.282Y20.955
X24.74Y29.464
X24.892Y14.783
X25.4Y43.053
X25.908Y8.001
X26.035Y17.018
X26.162Y20.701
X26.416Y31.547
X26.467Y15.367
X26.67Y46.99
X27.635Y20.752
X28.439Y24.799
X28.956Y4.877
X29.21Y46.99
X29.4Y20.256
X29.87Y15.977
X30.353Y33.147
X30.543Y27.495
X30.607Y29.464
X30.632Y20.853
X31.75Y46.99
X32.258Y29.504
X32.258Y26.975
X32.309Y32.044
X32.385Y20.32
X32.829Y13.462
X33.02Y22.987
X33.02Y21.971
X33.172Y16.51
X33.363Y20.612
X33.782Y36.068
X33.807Y23.241
X33.909Y13.589
X34.29Y46.99
X35.001Y6.452
X35.306Y22.733
X35.433Y33.314
X35.433Y30.774
X35.433Y28.234
X35.433Y25.743
X35.433Y24.424
X35.56Y23.495
X35.687Y11.938
X36.83Y46.99
X39.37Y46.99
X41.91Y46.99
X41.961Y30.531
X42.672Y11.938
X42.85Y41.377
X44.247Y8.077
X44.247Y4.903
X44.45Y46.99
X44.577Y21.971
X45.212Y36.322
X45.745Y4.89
X45.771Y8.077
X46.431Y34.493
X46.99Y46.99
X48.971Y35.306
X49.53Y46.99
X50.038Y33.147
X50.546Y24.511
X50.952Y39.929
X51.429Y35.103
X51.74Y33.757
X51.867Y7.976
X51.867Y4.889
X52.07Y46.99
X52.222Y36.068
X52.222Y22.403
X53.086Y26.289
X53.086Y11.938
X53.365Y7.976
X53.416Y4.877
X53.797Y24.181
X54.61Y46.99
X54.91Y8.021
X54.915Y4.877
X54.966Y30.226
X55.118Y41.148
X55.88Y35.611
X56.083Y40.437
X56.134Y26.289
X56.286Y24.74
X56.388Y31.191
X56.515Y11.049
X56.591Y8.026
X56.591Y4.877
X56.744Y15.748
X57.15Y46.99
X57.353Y26.975
X57.658Y40.996
X57.709Y34.493
X57.963Y30.632
X58.166Y10.668
X58.268Y8.026
X58.268Y4.877
X58.725Y29.312
X59.03Y12.344
X59.436Y32.106
X59.69Y46.99
X59.893Y4.877
X59.913Y8.039
X60.147Y41.554
X60.198Y28.804
X61.57Y4.877
X61.589Y8.039
X61.595Y9.398
X61.722Y24.13
X61.722Y17.907
X62.23Y46.99
X62.611Y38.862
X62.611Y32.131
X62.611Y30.512
X62.611Y27.305
X63.273Y8.036
X63.297Y4.877
X64.313Y36.779
X64.77Y46.99
X64.872Y21.539
X64.937Y8.063
X64.937Y4.866
X65.244Y28.112
X65.278Y31.312
X65.278Y29.712
X65.278Y26.512
X65.69Y32.912
X66.167Y22.733
X67.31Y46.99
X67.31Y16.891
X67.818Y14.732
X68.453Y19.914
X68.707Y12.446
X68.961Y18.39
X69.469Y16.764
X69.469Y10.541
X69.85Y46.99
X69.977Y15.037
X70.485Y13.513
X70.612Y8.255
X70.866Y5.791
X71.018Y11.887
X71.501Y10.211
X72.009Y8.788
X72.39Y46.99
X72.898Y33.782
X73.711Y31.039
X74.803Y19.177
X76.327Y20.447
X76.327Y6.223
X78.74Y6.223
X79.654Y34.392
X79.794Y32.855
X80.01Y46.99
X81.001Y6.223
X81.772Y36.83
X81.788Y39.243
X82.55Y46.99
X82.742Y29.413
X83.718Y20.777
X84.201Y40.386
X84.252Y9.601
X84.266Y29.413
X84.582Y18.161
X84.836Y25.686
X85.09Y46.99
X85.598Y32.868
X85.979Y26.289
X86.36Y4.826
X86.487Y20.32
X87.198Y9.525
X87.376Y21.844
X87.63Y46.99
X88.9Y4.826
X90.17Y46.99
X91.44Y21.209
X92.202Y5.588
X92.329Y36.576
X92.71Y46.99
X93.091Y29.591
X93.98Y5.207
X96.52Y7.366
X98.92Y20.275
X98.92Y17.735
X98.92Y15.195
X98.92Y7.575
X98.92Y5.035
X99.06Y43.18
T2
X11.684Y8.026
X11.684Y4.674
X13.259Y4.724
X17.78Y8.001
X20.32Y8.001
X22.479Y8.001
X26.812Y24.17
X27.432Y4.699
X28.956Y8.001
X29.362Y34.9
X30.48Y8.001
X30.48Y4.674
X39.751Y8.586
X39.751Y7.062
X39.751Y5.538
X43.053Y8.586
X43.053Y7.062
X43.053Y5.538
X45.009Y9.271
X48.311Y9.271
X49.073Y30.516
X49.618Y4.74
X56.236Y22.758
X56.286Y19.406
X57.048Y35.763
X58.572Y35.763
X62.586Y28.905
X66.571Y4.76
X66.613Y8.05
X80.202Y22.453
X80.772Y38.117
X81.407Y15.291
X81.777Y22.453
X82.031Y24.587
X82.245Y32.196
X84.379Y34.798
X84.455Y38.117
X86.36Y8.001
X88.9Y8.001
X91.44Y8.001
X97.638Y38.506
X97.638Y34.747
X97.638Y30.886
X97.739Y26.924
X97.739Y22.911
T3
X-0.021Y2.561
X-0.021Y0.021
X2.519Y2.561
X2.519Y0.021
X5.059Y2.561
X5.059Y0.021
X7.599Y2.561
X7.599Y0.021
X10.139Y2.561
X10.139Y0.021
X12.679Y2.561
X12.679Y0.021
X15.219Y2.561
X15.219Y0.021
X17.759Y2.561
X17.759Y0.021
X20.299Y2.561
X20.299Y0.021
X22.839Y2.561
X22.839Y0.021
X25.379Y2.561
X25.379Y0.021
X27.919Y2.561
X27.919Y0.021
X30.459Y2.561
X30.459Y0.021
X32.999Y2.561
X32.999Y0.021
X35.539Y2.561
X35.539Y0.021
X38.079Y2.561
X38.079Y0.021
X40.619Y2.561
X40.619Y0.021
X43.159Y2.561
X43.159Y0.021
X45.699Y2.561
X45.699Y0.021
X48.239Y2.561
X48.239Y0.021
X50.779Y2.561
X50.779Y0.021
X53.319Y2.561
X53.319Y0.021
X55.859Y2.561
X55.859Y0.021
X58.399Y2.561
X58.399Y0.021
X60.939Y2.561
X60.939Y0.021
X63.479Y2.561
X63.479Y0.021
X66.019Y2.561
X66.019Y0.021
X68.559Y2.561
X68.559Y0.021
X71.099Y2.561
X71.099Y0.021
X73.639Y2.561
X73.639Y0.021
X74.554Y45.847
X74.554Y43.307
X74.554Y40.767
X76.179Y2.561
X76.179Y0.021
X77.094Y45.847
X77.094Y43.307
X77.094Y40.767
X78.719Y2.561
X78.719Y0.021
X81.259Y2.561
X81.259Y0.021
X83.799Y2.561
X83.799Y0.021
X86.339Y2.561
X86.339Y0.021
X86.741Y17.013
X86.741Y14.473
X88.879Y2.561
X88.879Y0.021
X89.281Y17.013
X89.281Y14.473
X91.419Y2.561
X91.419Y0.021
X91.821Y17.013
X91.821Y14.473
X93.959Y2.561
X93.959Y0.021
X96.499Y2.561
X96.499Y0.021
X99.039Y2.561
X99.039Y0.021
M30
